<svg width="66" height="91" viewBox="0 0 66 91" fill="none" xmlns="http://www.w3.org/2000/svg">
<g filter="url(#filter0_d_6_312)">
<path d="M33.0302 1.30005C17.5747 1.30005 5.05347 14.1377 5.05347 29.6454C5.05347 45.1443 24.6768 81.5 33.0302 81.5C41.3836 81.5 61.007 45.1443 61.007 29.6454C61.007 14.1377 48.4769 1.30005 33.0302 1.30005Z" fill="#FF2020"/>
<path d="M33.0302 1.30005C17.5747 1.30005 5.05347 14.1377 5.05347 29.6454C5.05347 45.1443 24.6768 81.5 33.0302 81.5C41.3836 81.5 61.007 45.1443 61.007 29.6454C61.007 14.1377 48.4769 1.30005 33.0302 1.30005Z" stroke="white" stroke-width="2"/>
</g>
<path d="M10.0535 29.3C10.0535 42.0026 20.3509 52.3 33.0535 52.3C45.756 52.3 56.0535 42.0026 56.0535 29.3C56.0535 16.5975 45.756 6.30005 33.0535 6.30005C20.3509 6.30005 10.0535 16.5975 10.0535 29.3Z" fill="white"/>
<g clip-path="url(#clip0_6_312)">
<path d="M48.2595 22.8266H46.6446L45.0823 19.702C44.9732 19.4837 44.7488 19.3442 44.5043 19.3442H20.906C20.6675 19.3442 20.4492 19.4756 20.336 19.6858L18.6545 22.8266H17.6884C17.2943 22.8266 16.9729 23.1459 16.9729 23.542V26.9132C16.9729 27.3073 17.2922 27.6286 17.6884 27.6286H19.6125L20.1925 39.1569C20.2107 39.5369 20.526 39.836 20.906 39.836H23.5758V40.7697C23.5758 40.992 23.7577 41.1739 23.98 41.1739H28.2243C28.4467 41.1739 28.6286 40.992 28.6286 40.7697V39.836H37.1172V40.7697C37.1172 40.992 37.2991 41.1739 37.5214 41.1739H41.7657C41.988 41.1739 42.1699 40.992 42.1699 40.7697V39.836H44.5043C44.8842 39.836 45.1995 39.5369 45.2177 39.1569L45.7978 27.6286H48.2574C48.6515 27.6286 48.9729 27.3093 48.9729 26.9132V23.542C48.9729 23.1479 48.6536 22.8266 48.2574 22.8266H48.2595ZM37.4122 24.1969H41.7657V26.6221H37.4122V24.1969ZM23.7779 24.1969H28.4729V26.6221H23.7779V24.1969ZM21.5871 38.4071L21.0434 27.6286H25.5706L26.1467 38.4071H21.5891H21.5871ZM27.1572 38.4071L26.5812 27.6286H39.0837L38.5077 38.4071H27.1552H27.1572ZM43.8252 38.4071H39.5223L40.0983 27.6286H44.3688L43.8252 38.4071Z" fill="#FF2020"/>
</g>
<defs>
<filter id="filter0_d_6_312" x="0.0534668" y="0.300049" width="65.9535" height="90.2" filterUnits="userSpaceOnUse" color-interpolation-filters="sRGB">
<feFlood flood-opacity="0" result="BackgroundImageFix"/>
<feColorMatrix in="SourceAlpha" type="matrix" values="0 0 0 0 0 0 0 0 0 0 0 0 0 0 0 0 0 0 127 0" result="hardAlpha"/>
<feOffset dy="4"/>
<feGaussianBlur stdDeviation="2"/>
<feComposite in2="hardAlpha" operator="out"/>
<feColorMatrix type="matrix" values="0 0 0 0 0 0 0 0 0 0 0 0 0 0 0 0 0 0 0.25 0"/>
<feBlend mode="normal" in2="BackgroundImageFix" result="effect1_dropShadow_6_312"/>
<feBlend mode="normal" in="SourceGraphic" in2="effect1_dropShadow_6_312" result="shape"/>
</filter>
<clipPath id="clip0_6_312">
<rect width="32" height="32" fill="white" transform="translate(17.0535 13.3)"/>
</clipPath>
</defs>
</svg>
