<svg width="75" height="90" viewBox="0 0 75 90" fill="none" xmlns="http://www.w3.org/2000/svg">
<g filter="url(#filter0_d_408_1504)">
<path d="M37.0463 74.3235L18.8971 52.7206L56.1029 52.7206L37.0463 74.3235Z" fill="#008FDF"/>
<path d="M65 32.5C65 47.6878 52.6878 60 37.5 60C22.3122 60 10 47.6878 10 32.5C10 17.3122 22.3122 5 37.5 5C52.6878 5 65 17.3122 65 32.5Z" fill="white"/>
<path d="M37.0463 74.3235L18.8971 52.7206L56.1029 52.7206L37.0463 74.3235Z" stroke="white" stroke-width="4" stroke-linejoin="round"/>
<path d="M65 32.5C65 47.6878 52.6878 60 37.5 60C22.3122 60 10 47.6878 10 32.5C10 17.3122 22.3122 5 37.5 5C52.6878 5 65 17.3122 65 32.5Z" stroke="white" stroke-width="4" stroke-linejoin="round"/>
</g>
<path d="M37.0464 74.3237L18.8971 52.7208L56.103 52.7208L37.0464 74.3237Z" fill="#A50000"/>
<path d="M61.9091 32.5C61.9091 45.9808 50.9808 56.9091 37.5 56.9091C24.0192 56.9091 13.0909 45.9808 13.0909 32.5C13.0909 19.0192 24.0192 8.09091 37.5 8.09091C50.9808 8.09091 61.9091 19.0192 61.9091 32.5Z" fill="#A50000" stroke="#A50000" stroke-width="6.18182"/>
<ellipse cx="37.853" cy="33" rx="23" ry="23" fill="white"/>
<rect width="32" height="32" transform="translate(22 17)" fill="white"/>
<path d="M45.2005 24.6787C41.429 24.6787 38.9543 26.6855 38.219 29.0371C37.4836 26.6855 35.0091 24.6787 31.2376 24.6787C27.2551 24.6787 23.6536 28.3291 24.0266 33.3203C24.5383 40.168 36.2503 49 38.219 49C40.1878 49 51.8997 40.168 52.4114 33.3203C52.7845 28.3291 49.1829 24.6787 45.2005 24.6787ZM43.9749 35.2656L33.6506 44.1016L37.0881 37.8653H34.2717L37.2219 30.5899H44.0646L40.5207 35.2657H43.9749V35.2656Z" fill="#A50000"/>
<path d="M29.2436 22.9795H30.0962C30.1577 22.9795 30.1928 22.9531 30.2104 22.8916L30.6059 21.7314L30.7182 21.4023H32.7446L32.8569 21.7314L33.2534 22.8916C33.271 22.9531 33.3062 22.9795 33.3677 22.9795H34.229C34.2905 22.9795 34.3081 22.9434 34.2905 22.8916L32.268 17.0879C32.2504 17.0361 32.2153 17 32.1537 17H31.3442C31.2836 17 31.2475 17.0361 31.2299 17.0879L29.1811 22.8916C29.1645 22.9434 29.1811 22.9795 29.2436 22.9795ZM31.7231 18.4863H31.7495L32.4985 20.6836H30.9653L31.7231 18.4863Z" fill="#A50000"/>
<path d="M36.4583 22.9795H40.2044C40.2572 22.9795 40.2933 22.9434 40.2933 22.8916V22.1348C40.2933 22.082 40.2572 22.0478 40.2044 22.0478H37.4612C37.426 22.0478 37.4085 22.0293 37.4085 21.9941V20.4824C37.4085 20.4473 37.426 20.4297 37.4612 20.4297H39.3567C39.4085 20.4297 39.4437 20.3945 39.4437 20.3418V19.5859C39.4437 19.5323 39.4085 19.4971 39.3567 19.4971H37.4612C37.426 19.4971 37.4085 19.4795 37.4085 19.4443V17.9863C37.4085 17.9492 37.426 17.9326 37.4612 17.9326H40.2044C40.2572 17.9326 40.2933 17.8965 40.2933 17.8438V17.0879C40.2933 17.0361 40.2572 17 40.2044 17H36.4583C36.4055 17 36.3713 17.0361 36.3713 17.0879V22.8916C36.3714 22.9434 36.4055 22.9795 36.4583 22.9795Z" fill="#A50000"/>
<path d="M42.9808 22.9795H45.1175C46.1468 22.9795 46.8324 22.5224 47.1136 21.6514C47.2103 21.3526 47.2631 21.0274 47.2631 19.9893C47.2631 18.9521 47.2103 18.6269 47.1136 18.3281C46.8323 17.458 46.1468 17 45.1174 17H42.9807C42.9279 17 42.8928 17.0361 42.8928 17.0879V22.8916C42.8928 22.9434 42.928 22.9795 42.9808 22.9795ZM43.9309 17.9863C43.9309 17.9492 43.9485 17.9326 43.9837 17.9326H44.8714C45.5306 17.9326 45.9349 18.1524 46.1106 18.6885C46.1731 18.8555 46.2171 19.1192 46.2171 19.9893C46.2171 20.8516 46.1731 21.1251 46.1106 21.2911C45.9348 21.8272 45.5306 22.0479 44.8714 22.0479H43.9837C43.9485 22.0479 43.9309 22.0293 43.9309 21.9942V17.9863Z" fill="#A50000"/>
<defs>
<filter id="filter0_d_408_1504" x="0" y="0" width="75" height="89.3237" filterUnits="userSpaceOnUse" color-interpolation-filters="sRGB">
<feFlood flood-opacity="0" result="BackgroundImageFix"/>
<feColorMatrix in="SourceAlpha" type="matrix" values="0 0 0 0 0 0 0 0 0 0 0 0 0 0 0 0 0 0 127 0" result="hardAlpha"/>
<feOffset dy="5"/>
<feGaussianBlur stdDeviation="4"/>
<feComposite in2="hardAlpha" operator="out"/>
<feColorMatrix type="matrix" values="0 0 0 0 0 0 0 0 0 0 0 0 0 0 0 0 0 0 0.25 0"/>
<feBlend mode="normal" in2="BackgroundImageFix" result="effect1_dropShadow_408_1504"/>
<feBlend mode="normal" in="SourceGraphic" in2="effect1_dropShadow_408_1504" result="shape"/>
</filter>
</defs>
</svg>
