<svg width="66" height="91" viewBox="0 0 66 91" fill="none" xmlns="http://www.w3.org/2000/svg">
<g filter="url(#filter0_d_6_318)">
<path d="M33.0302 1.6001C17.5747 1.6001 5.05347 14.4377 5.05347 29.9455C5.05347 45.4444 24.6768 81.8001 33.0302 81.8001C41.3836 81.8001 61.007 45.4444 61.007 29.9455C61.007 14.4377 48.4769 1.6001 33.0302 1.6001Z" fill="#A50000"/>
<path d="M33.0302 1.6001C17.5747 1.6001 5.05347 14.4377 5.05347 29.9455C5.05347 45.4444 24.6768 81.8001 33.0302 81.8001C41.3836 81.8001 61.007 45.4444 61.007 29.9455C61.007 14.4377 48.4769 1.6001 33.0302 1.6001Z" stroke="white" stroke-width="2"/>
</g>
<path d="M10.0535 29.6001C10.0535 42.3026 20.3509 52.6001 33.0535 52.6001C45.756 52.6001 56.0535 42.3026 56.0535 29.6001C56.0535 16.8975 45.756 6.6001 33.0535 6.6001C20.3509 6.6001 10.0535 16.8975 10.0535 29.6001Z" fill="white"/>
<path d="M40.7968 20.3027C36.4942 20.3027 33.6711 22.5921 32.8323 25.2748C31.9934 22.5921 29.1703 20.3027 24.8678 20.3027C20.3246 20.3027 16.2159 24.4671 16.6415 30.1612C17.2252 37.9731 30.5863 48.0487 32.8323 48.0487C35.0782 48.0487 48.4393 37.973 49.0231 30.1612C49.4487 24.4672 45.34 20.3027 40.7968 20.3027ZM39.3986 32.3804L27.6206 42.4605L31.5422 35.3461H28.3291L31.6947 27.0463H39.501L35.4581 32.3805H39.3986V32.3804Z" fill="#A50000"/>
<path d="M22.5929 18.3642H23.5655C23.6356 18.3642 23.6758 18.3341 23.6958 18.2639L24.147 16.9404L24.2751 16.5649H26.5868L26.715 16.9404L27.1673 18.2639C27.1873 18.3341 27.2275 18.3642 27.2976 18.3642H28.2802C28.3504 18.3642 28.3705 18.323 28.3504 18.2639L26.0431 11.643C26.0231 11.5839 25.983 11.5427 25.9127 11.5427H24.9892C24.9201 11.5427 24.8789 11.5839 24.8589 11.643L22.5216 18.2639C22.5026 18.323 22.5216 18.3642 22.5929 18.3642ZM25.4215 13.2383H25.4516L26.306 15.745H24.557L25.4215 13.2383Z" fill="#A50000"/>
<path d="M30.8235 18.3642H35.0972C35.1573 18.3642 35.1985 18.323 35.1985 18.2639V17.4005C35.1985 17.3403 35.1573 17.3013 35.0972 17.3013H31.9677C31.9276 17.3013 31.9075 17.2801 31.9075 17.2401V15.5155C31.9075 15.4754 31.9276 15.4553 31.9677 15.4553H34.1301C34.1891 15.4553 34.2293 15.4152 34.2293 15.3551V14.4928C34.2293 14.4315 34.1891 14.3914 34.1301 14.3914H31.9677C31.9276 14.3914 31.9075 14.3714 31.9075 14.3312V12.6679C31.9075 12.6256 31.9276 12.6067 31.9677 12.6067H35.0972C35.1573 12.6067 35.1985 12.5655 35.1985 12.5053V11.643C35.1985 11.5839 35.1573 11.5427 35.0972 11.5427H30.8235C30.7634 11.5427 30.7244 11.5839 30.7244 11.643V18.2639C30.7244 18.323 30.7634 18.3642 30.8235 18.3642Z" fill="#A50000"/>
<path d="M38.2646 18.3642H40.7023C41.8765 18.3642 42.6586 17.8428 42.9794 16.8491C43.0897 16.5082 43.1499 16.1372 43.1499 14.9529C43.1499 13.7697 43.0897 13.3988 42.9794 13.0579C42.6585 12.0652 41.8764 11.5427 40.7022 11.5427H38.2646C38.2044 11.5427 38.1643 11.5839 38.1643 11.643V18.2639C38.1643 18.323 38.2044 18.3642 38.2646 18.3642ZM39.3486 12.6679C39.3486 12.6256 39.3686 12.6067 39.4088 12.6067H40.4215C41.1735 12.6067 41.6347 12.8574 41.8352 13.469C41.9065 13.6595 41.9566 13.9603 41.9566 14.953C41.9566 15.9367 41.9065 16.2486 41.8352 16.438C41.6346 17.0496 41.1735 17.3014 40.4215 17.3014H39.4088C39.3686 17.3014 39.3486 17.2802 39.3486 17.2401V12.6679Z" fill="#A50000"/>
<defs>
<filter id="filter0_d_6_318" x="0.0534668" y="0.600098" width="65.9535" height="90.2" filterUnits="userSpaceOnUse" color-interpolation-filters="sRGB">
<feFlood flood-opacity="0" result="BackgroundImageFix"/>
<feColorMatrix in="SourceAlpha" type="matrix" values="0 0 0 0 0 0 0 0 0 0 0 0 0 0 0 0 0 0 127 0" result="hardAlpha"/>
<feOffset dy="4"/>
<feGaussianBlur stdDeviation="2"/>
<feComposite in2="hardAlpha" operator="out"/>
<feColorMatrix type="matrix" values="0 0 0 0 0 0 0 0 0 0 0 0 0 0 0 0 0 0 0.25 0"/>
<feBlend mode="normal" in2="BackgroundImageFix" result="effect1_dropShadow_6_318"/>
<feBlend mode="normal" in="SourceGraphic" in2="effect1_dropShadow_6_318" result="shape"/>
</filter>
</defs>
</svg>
