<svg width="67" height="91" viewBox="0 0 67 91" fill="none" xmlns="http://www.w3.org/2000/svg">
<g filter="url(#filter0_d_22_768)">
<path d="M33.0837 1.30005C17.6282 1.30005 5.10693 14.1377 5.10693 29.6454C5.10693 45.1443 24.7303 81.5 33.0837 81.5C41.4371 81.5 61.0604 45.1443 61.0604 29.6454C61.0604 14.1377 48.5304 1.30005 33.0837 1.30005Z" fill="#FF6B00"/>
<path d="M33.0837 1.30005C17.6282 1.30005 5.10693 14.1377 5.10693 29.6454C5.10693 45.1443 24.7303 81.5 33.0837 81.5C41.4371 81.5 61.0604 45.1443 61.0604 29.6454C61.0604 14.1377 48.5304 1.30005 33.0837 1.30005Z" stroke="white" stroke-width="2"/>
</g>
<path d="M10.1069 29.3C10.1069 42.0026 20.4044 52.3 33.1069 52.3C45.8095 52.3 56.1069 42.0026 56.1069 29.3C56.1069 16.5975 45.8095 6.30005 33.1069 6.30005C20.4044 6.30005 10.1069 16.5975 10.1069 29.3Z" fill="white"/>
<path d="M40.5006 23.476L44.787 20.9784L41.9054 20.2312L42.059 16.9128L39.0462 17.8984L37.435 15.1128L35.5694 19.7608C35.5262 19.7368 35.4814 19.7112 35.4398 19.6888C33.283 18.5112 31.7614 18.284 30.7886 18.9944C28.651 20.5544 21.8398 33.7608 21.8302 39.3672C21.827 40.78 22.227 41.7896 23.0158 42.3704C23.4766 42.7096 24.0318 42.8792 24.6878 42.8792C25.5246 42.8792 26.5246 42.6024 27.7054 42.0504C30.291 40.8376 33.9246 38.1496 37.4238 34.86C39.0862 33.2968 42.9646 29.4712 43.0702 27.7208C43.1422 26.5112 42.0094 24.9448 40.5022 23.4776L40.5006 23.476ZM39.4238 29.86C39.4238 29.86 39.4142 29.8504 39.4094 29.8456L36.4398 27.6616C36.235 27.5112 35.947 27.5544 35.7966 27.7592C35.6462 27.964 35.6894 28.252 35.8942 28.4024L38.8158 30.5512C38.0078 31.444 36.931 32.54 35.515 33.8408L32.2014 31.404C31.9966 31.2536 31.7086 31.2968 31.5582 31.5016C31.4078 31.7064 31.451 31.9944 31.6558 32.1448L34.819 34.4712C34.1902 35.0328 33.5662 35.5672 32.9518 36.0712L31.2014 34.7832C30.9966 34.6328 30.7086 34.676 30.5582 34.8808C30.4078 35.0856 30.451 35.3736 30.6558 35.524L32.211 36.668C29.8622 38.5272 27.7166 39.8904 26.1486 40.4904C25.067 40.9048 24.4478 40.8808 24.2302 40.7192C24.0078 40.556 23.8766 40.0504 23.8782 39.3656C23.8798 38.3544 24.1486 36.9784 24.6494 35.3368L27.6718 37.5592C27.7534 37.62 27.8494 37.6488 27.9438 37.6488C28.0846 37.6488 28.2254 37.5832 28.315 37.4616C28.4654 37.2568 28.4222 36.9688 28.2174 36.8184L24.947 34.412C25.3006 33.3624 25.739 32.2216 26.2526 31.0104L27.4046 31.8584C27.4862 31.9192 27.5822 31.948 27.6766 31.948C27.8174 31.948 27.9582 31.8824 28.0478 31.7608C28.1982 31.556 28.155 31.268 27.9502 31.1176L26.6286 30.1448C26.875 29.5864 27.1374 29.0168 27.4142 28.4344C27.8126 27.596 28.2046 26.812 28.5806 26.0904L31.947 28.5672C32.0286 28.628 32.1246 28.6568 32.219 28.6568C32.3598 28.6568 32.5006 28.5912 32.5902 28.4696C32.7406 28.2648 32.6974 27.9768 32.4926 27.8264L29.0158 25.2696C30.4574 22.6008 31.6142 20.9368 31.987 20.6504C32.2814 20.5384 33.6126 20.8104 35.9278 22.38C38.995 24.4584 41.0142 26.868 41.0302 27.5768C40.9758 27.7736 40.5582 28.5272 39.4254 29.8568L39.4238 29.86Z" fill="#FF6B00"/>
<defs>
<filter id="filter0_d_22_768" x="0.106934" y="0.300049" width="65.9535" height="90.2" filterUnits="userSpaceOnUse" color-interpolation-filters="sRGB">
<feFlood flood-opacity="0" result="BackgroundImageFix"/>
<feColorMatrix in="SourceAlpha" type="matrix" values="0 0 0 0 0 0 0 0 0 0 0 0 0 0 0 0 0 0 127 0" result="hardAlpha"/>
<feOffset dy="4"/>
<feGaussianBlur stdDeviation="2"/>
<feComposite in2="hardAlpha" operator="out"/>
<feColorMatrix type="matrix" values="0 0 0 0 0 0 0 0 0 0 0 0 0 0 0 0 0 0 0.25 0"/>
<feBlend mode="normal" in2="BackgroundImageFix" result="effect1_dropShadow_22_768"/>
<feBlend mode="normal" in="SourceGraphic" in2="effect1_dropShadow_22_768" result="shape"/>
</filter>
</defs>
</svg>
