<svg width="75" height="90" viewBox="0 0 75 90" fill="none" xmlns="http://www.w3.org/2000/svg">
<g filter="url(#filter0_d_463_1823)">
<path d="M37.0463 74.3235L18.8971 52.7206L56.1029 52.7206L37.0463 74.3235Z" fill="#008FDF"/>
<path d="M65 32.5C65 47.6878 52.6878 60 37.5 60C22.3122 60 10 47.6878 10 32.5C10 17.3122 22.3122 5 37.5 5C52.6878 5 65 17.3122 65 32.5Z" fill="white"/>
<path d="M37.0463 74.3235L18.8971 52.7206L56.1029 52.7206L37.0463 74.3235Z" stroke="white" stroke-width="4" stroke-linejoin="round"/>
<path d="M65 32.5C65 47.6878 52.6878 60 37.5 60C22.3122 60 10 47.6878 10 32.5C10 17.3122 22.3122 5 37.5 5C52.6878 5 65 17.3122 65 32.5Z" stroke="white" stroke-width="4" stroke-linejoin="round"/>
</g>
<path d="M37.0464 74.3235L18.8971 52.7205L56.103 52.7205L37.0464 74.3235Z" fill="#FF6B00"/>
<path d="M61.9091 32.5C61.9091 45.9808 50.9808 56.9091 37.5 56.9091C24.0192 56.9091 13.0909 45.9808 13.0909 32.5C13.0909 19.0192 24.0192 8.09091 37.5 8.09091C50.9808 8.09091 61.9091 19.0192 61.9091 32.5Z" fill="#FF6B00" stroke="#FF6B00" stroke-width="6.18182"/>
<ellipse cx="37.853" cy="33" rx="23" ry="23" fill="white"/>
<path d="M45.3936 27.1759L49.68 24.6783L46.7984 23.9311L46.952 20.6127L43.9392 21.5983L42.328 18.8127L40.4624 23.4607C40.4192 23.4367 40.3744 23.4111 40.3328 23.3887C38.176 22.2111 36.6544 21.9839 35.6816 22.6943C33.544 24.2543 26.7328 37.4607 26.7232 43.0671C26.72 44.4799 27.12 45.4895 27.9088 46.0703C28.3696 46.4095 28.9248 46.5791 29.5808 46.5791C30.4176 46.5791 31.4176 46.3023 32.5984 45.7503C35.184 44.5375 38.8176 41.8495 42.3168 38.5599C43.9792 36.9967 47.8576 33.1711 47.9632 31.4207C48.0352 30.2111 46.9024 28.6447 45.3952 27.1775L45.3936 27.1759ZM44.3168 33.5599C44.3168 33.5599 44.3072 33.5503 44.3024 33.5455L41.3328 31.3615C41.128 31.2111 40.84 31.2543 40.6896 31.4591C40.5392 31.6639 40.5824 31.9519 40.7872 32.1023L43.7088 34.2511C42.9008 35.1439 41.824 36.2399 40.408 37.5407L37.0944 35.1039C36.8896 34.9535 36.6016 34.9967 36.4512 35.2015C36.3008 35.4063 36.344 35.6943 36.5488 35.8447L39.712 38.1711C39.0832 38.7327 38.4592 39.2671 37.8448 39.7711L36.0944 38.4831C35.8896 38.3327 35.6016 38.3759 35.4512 38.5807C35.3008 38.7855 35.344 39.0735 35.5488 39.2239L37.104 40.3679C34.7552 42.2271 32.6096 43.5903 31.0416 44.1903C29.96 44.6047 29.3408 44.5807 29.1232 44.4191C28.9008 44.2559 28.7696 43.7503 28.7712 43.0655C28.7728 42.0543 29.0416 40.6783 29.5424 39.0367L32.5648 41.2591C32.6464 41.3199 32.7424 41.3487 32.8368 41.3487C32.9776 41.3487 33.1184 41.2831 33.208 41.1615C33.3584 40.9567 33.3152 40.6687 33.1104 40.5183L29.84 38.1119C30.1936 37.0623 30.632 35.9215 31.1456 34.7103L32.2976 35.5583C32.3792 35.6191 32.4752 35.6479 32.5696 35.6479C32.7104 35.6479 32.8512 35.5823 32.9408 35.4607C33.0912 35.2559 33.048 34.9679 32.8432 34.8175L31.5216 33.8447C31.768 33.2863 32.0304 32.7167 32.3072 32.1343C32.7056 31.2959 33.0976 30.5119 33.4736 29.7903L36.84 32.2671C36.9216 32.3279 37.0176 32.3567 37.112 32.3567C37.2528 32.3567 37.3936 32.2911 37.4832 32.1695C37.6336 31.9647 37.5904 31.6767 37.3856 31.5263L33.9088 28.9695C35.3504 26.3007 36.5072 24.6367 36.88 24.3503C37.1744 24.2383 38.5056 24.5103 40.8208 26.0799C43.888 28.1583 45.9072 30.5679 45.9232 31.2767C45.8688 31.4735 45.4512 32.2271 44.3184 33.5567L44.3168 33.5599Z" fill="#FF6B00"/>
<defs>
<filter id="filter0_d_463_1823" x="0" y="0" width="75" height="89.3235" filterUnits="userSpaceOnUse" color-interpolation-filters="sRGB">
<feFlood flood-opacity="0" result="BackgroundImageFix"/>
<feColorMatrix in="SourceAlpha" type="matrix" values="0 0 0 0 0 0 0 0 0 0 0 0 0 0 0 0 0 0 127 0" result="hardAlpha"/>
<feOffset dy="5"/>
<feGaussianBlur stdDeviation="4"/>
<feComposite in2="hardAlpha" operator="out"/>
<feColorMatrix type="matrix" values="0 0 0 0 0 0 0 0 0 0 0 0 0 0 0 0 0 0 0.25 0"/>
<feBlend mode="normal" in2="BackgroundImageFix" result="effect1_dropShadow_463_1823"/>
<feBlend mode="normal" in="SourceGraphic" in2="effect1_dropShadow_463_1823" result="shape"/>
</filter>
</defs>
</svg>
