<svg width="76" height="76" viewBox="0 0 76 76" fill="none" xmlns="http://www.w3.org/2000/svg">
<g filter="url(#filter0_d_846_2558)">
<rect x="38.25" y="-0.347168" width="45.3333" height="46.0798" rx="5.66667" transform="rotate(45 38.25 -0.347168)" fill="#FF7F50"/>
<rect x="38.25" y="-0.347168" width="45.3333" height="46.0798" rx="5.66667" transform="rotate(45 38.25 -0.347168)" stroke="black" stroke-width="4"/>
</g>
<rect x="38.25" y="-0.347168" width="45.3333" height="46.0798" rx="5.66667" transform="rotate(45 38.25 -0.347168)" fill="#FF7F50" stroke="black" stroke-width="4"/>
<path d="M54.1521 40.6504C54.0807 40.3102 53.2533 39.1615 53.0328 38.5504C53.0307 38.5441 52.9992 38.5315 52.9635 38.4097C52.9362 38.332 52.9173 38.2795 52.8942 38.1997C52.8648 38.0695 52.8438 37.9855 52.8249 37.849C52.8102 37.7398 52.7661 37.6285 52.7556 37.4983C52.6674 36.8746 52.6821 36.442 52.7556 35.8183C52.7661 35.6671 52.8102 35.5285 52.8249 35.3983C52.8438 35.2786 52.8753 35.1589 52.8942 35.0476C52.911 34.9258 52.9572 34.8061 52.9635 34.7683C52.9803 34.6591 53.0286 34.5184 53.0328 34.489C53.0496 34.3735 53.0979 34.2391 53.1021 34.2097C53.1189 34.0921 53.1672 33.9661 53.1714 33.9304C53.1882 33.817 53.2365 33.6847 53.2407 33.6511C53.2617 33.5167 53.2953 33.355 53.31 33.2311C53.331 33.0568 53.3667 32.8405 53.3793 32.6704C53.4276 32.0131 53.4339 30.9463 53.3793 30.2911C53.3667 30.1735 53.3289 29.9992 53.31 29.8711C53.2953 29.7514 53.2617 29.5792 53.2407 29.4511C53.2323 29.407 53.1903 29.26 53.1714 29.1718C53.1693 29.1613 53.1231 29.0458 53.1021 28.9618C53.0958 28.9345 53.0538 28.8232 53.0328 28.7518C52.9887 28.6237 52.9845 28.525 52.9635 28.4725C52.0794 26.1814 49.9815 24.1969 47.7156 23.296C47.6547 23.2729 47.5749 23.2519 47.5056 23.2267C47.4426 23.2036 47.3607 23.1784 47.2956 23.1574C47.2305 23.1364 47.1444 23.1049 47.0856 23.0881C47.0121 23.0671 46.9071 23.0272 46.8756 23.0188C46.7916 22.9978 46.6761 22.9663 46.5963 22.9495C46.4913 22.9264 46.3485 22.897 46.2456 22.8802C46.1364 22.8613 45.9894 22.8214 45.8949 22.8109C45.7227 22.7878 45.5001 22.7542 45.3342 22.7416C44.8428 22.7038 44.154 22.7164 43.6542 22.7416C43.4862 22.7542 43.272 22.792 43.0935 22.8109C42.9528 22.8214 42.7575 22.8634 42.6042 22.8802C42.4803 22.8949 42.3186 22.9306 42.1842 22.9495C42.0561 22.9663 41.9028 22.9999 41.7642 23.0188C41.6298 23.0398 41.4828 23.0671 41.3442 23.0881C41.2371 23.1049 41.1132 23.1406 40.9935 23.1574C40.8591 23.1784 40.7142 23.2057 40.5735 23.2267C40.4685 23.2435 40.3404 23.2792 40.2228 23.296C40.1178 23.3128 39.9897 23.3464 39.8721 23.3653C39.7335 23.3884 39.5928 23.4136 39.4521 23.4346C39.345 23.4514 39.2211 23.4871 39.1014 23.5039C38.9943 23.5207 38.8725 23.5564 38.7507 23.5732C38.6436 23.5879 38.5302 23.632 38.4 23.6425C38.3517 23.6467 38.2068 23.7055 38.0493 23.7118C37.665 23.758 37.5243 23.7601 37.14 23.7118C36.9972 23.695 36.9426 23.6446 36.93 23.6425C36.8292 23.6173 36.7683 23.5858 36.72 23.5732C36.6444 23.5522 36.5772 23.5249 36.51 23.5039C36.4386 23.4808 36.3672 23.4556 36.3 23.4346C36.1488 23.3989 36.1677 23.3674 36.1593 23.3653C36.0648 23.3443 35.9598 23.2981 35.9493 23.296C35.8527 23.275 35.7498 23.2288 35.7393 23.2267C35.6406 23.2036 35.544 23.1595 35.5293 23.1574C35.4327 23.1343 35.3361 23.0923 35.3193 23.0881C35.2269 23.0671 35.1198 23.0209 35.1093 23.0188C34.998 22.9936 34.872 22.9705 34.7586 22.9495C34.6536 22.9285 34.5066 22.8949 34.4079 22.8802C34.2273 22.8529 33.9564 22.8214 33.7779 22.8109C33.549 22.8046 33.3075 22.7983 33.0786 22.8109C32.8812 22.8151 32.5872 22.8592 32.3793 22.8802C32.2554 22.8949 32.0895 22.9285 31.9593 22.9495C31.8564 22.9663 31.7199 22.9978 31.6086 23.0188C31.5309 23.0335 31.4196 23.0692 31.3293 23.0881C31.2453 23.107 31.1403 23.1364 31.05 23.1574C30.9639 23.1763 30.8568 23.2036 30.7707 23.2267C30.7371 23.2351 30.6384 23.275 30.5607 23.296C30.5019 23.3128 30.42 23.3443 30.3507 23.3653C30.2877 23.3842 30.21 23.4136 30.1407 23.4346C30.0756 23.4556 29.9979 23.4829 29.9307 23.5039C29.8614 23.527 29.7879 23.5501 29.7207 23.5732C29.7123 23.5753 29.6745 23.6089 29.58 23.6425C29.5086 23.6677 29.4372 23.6887 29.37 23.7118C29.2986 23.737 29.2272 23.758 29.16 23.7811C29.1516 23.7832 29.1096 23.8189 29.0193 23.8504C28.5867 24.0142 26.2116 25.2049 25.9764 25.1104C25.9134 25.0852 25.5795 24.2536 25.1028 24.1318C25.0356 24.115 24.5379 24.115 24.4728 24.1318C24.1767 24.2095 23.7987 24.7891 23.6328 25.0411C23.6265 25.0516 23.6412 25.123 23.5635 25.2511C23.5068 25.3435 23.6643 25.3351 23.4228 25.5304C23.2758 25.6501 23.2191 25.5703 23.1435 25.5997C23.133 25.6039 23.0742 25.6417 23.0028 25.669C20.7159 27.0823 21.516 26.7274 20.1342 28.7119C19.563 29.533 18.5508 29.7661 17.8263 30.4255C17.8347 30.4927 17.8116 30.5746 17.8263 30.6355C17.8536 30.7447 19.0443 32.0215 19.2249 32.1055C19.2354 32.1097 19.4139 32.1706 19.4349 32.1748C19.4874 32.1895 19.6953 32.242 19.7142 32.2441C19.9557 32.2798 20.3589 32.2483 20.6235 32.2441C20.7999 32.2315 20.9889 32.1811 21.1842 32.1748C21.2472 32.1748 21.5034 32.1076 21.6735 32.1055C21.8772 32.0971 21.957 32.095 22.1628 32.1055C22.3497 32.116 22.4778 32.1475 22.6521 32.1748C22.7802 32.1895 22.902 32.2399 22.9314 32.2441C23.0532 32.2609 23.1687 32.3071 23.2107 32.3134C23.3199 32.3323 23.4543 32.3785 23.49 32.3827C23.6013 32.3995 23.7399 32.4478 23.7693 32.452C23.889 32.4688 24.015 32.5066 24.12 32.5213C24.2355 32.5381 24.3699 32.578 24.4707 32.5906C24.6261 32.6116 24.8109 32.6452 24.96 32.6599C25.1658 32.6809 25.3884 32.7103 25.59 32.7292C26.4552 32.8006 27.3057 32.6557 28.1793 32.7985C28.3011 32.8153 28.3494 32.8363 28.4586 32.8678C29.2062 33.0799 29.3301 33.2416 29.6472 33.9178C29.6997 34.0312 29.6934 34.0669 29.7165 34.1278C29.7501 34.2118 29.7606 34.2601 29.7858 34.3378C29.8089 34.4092 29.8341 34.468 29.8551 34.5478C29.895 34.6696 29.8992 34.7221 29.9244 34.8271C29.9496 34.9258 29.9748 34.9993 29.9937 35.1064C30.0168 35.224 30.0441 35.329 30.063 35.4571C30.0882 35.6503 30.1197 35.8141 30.1323 36.0178C30.1806 36.5281 30.1806 36.8368 30.1323 37.3471C30.1218 37.5235 30.0819 37.6747 30.063 37.8364C30.0399 37.9897 30.0252 38.1031 29.9937 38.2564C29.9748 38.3614 29.9433 38.4475 29.9244 38.5357C29.9013 38.6386 29.8803 38.7184 29.8551 38.815C29.832 38.8906 29.8089 38.9536 29.7858 39.025C29.7606 39.1006 29.7459 39.1573 29.7165 39.235C29.6829 39.3358 29.6493 39.3673 29.6472 39.3757C29.5044 39.76 28.8429 41.4127 28.4922 41.545C28.4061 41.5765 28.1961 41.5135 28.1079 41.545C27.9525 41.65 27.8517 41.5996 27.8286 41.6143C27.5094 41.839 26.9718 42.2926 26.85 42.6643C26.8395 42.6979 26.7807 42.9289 26.7807 42.9436C26.7807 43.0864 26.745 43.1977 26.8857 43.2943H31.9929C33.1668 41.8411 34.6116 40.5181 35.3172 38.7457C35.3382 38.6827 35.6679 37.2757 35.6679 37.2757L36.8754 37.0531L38.0409 37.0888C38.0367 37.135 38.0346 37.1665 38.0325 37.177C38.0052 37.3723 37.9989 37.5361 37.9632 37.7377C37.9359 37.8511 37.9233 37.9645 37.8939 38.0884C37.8729 38.1892 37.8456 38.2774 37.8246 38.3677C37.8015 38.4664 37.7805 38.5504 37.7553 38.647C37.728 38.7457 37.7196 38.8192 37.686 38.9263C37.6503 39.0292 37.6188 39.0586 37.6167 39.067C37.5936 39.13 37.4319 40.7617 37.3878 40.8646C36.7494 42.511 35.817 42.0784 34.7124 43.4056H39.1896C39.2778 43.3657 40.8234 39.4114 41.4471 37.2652C41.4639 37.345 41.4828 37.4416 41.4933 37.4857C41.5059 37.5466 41.5437 37.6957 41.5626 37.765C41.5752 37.8112 41.613 37.912 41.6319 37.975C41.6508 38.038 41.6802 38.1241 41.7012 38.185C42.1065 39.2833 42.9885 40.2955 43.5198 41.3329L43.5891 41.4379C43.5618 41.5009 43.4799 41.4589 43.4484 41.4736C43.2153 41.5744 43.0578 41.503 42.9591 41.5429C42.8688 41.5807 42.7785 41.5996 42.7491 41.6122C42.3144 41.8201 41.9427 42.2989 41.7705 42.7315C41.7516 42.8323 41.6991 42.9961 41.7012 43.0108C41.7075 43.0801 41.697 43.1515 41.7012 43.2208L41.7705 43.2901C42.3417 43.2124 45.96 43.4224 46.1784 43.2208C46.1889 43.2103 46.1742 43.0906 46.2477 42.9415C46.2582 42.9205 46.2708 42.7861 46.317 42.6622C46.338 42.6097 46.3359 42.5635 46.3863 42.4522C46.59 41.9608 46.632 41.5156 47.1549 41.1586C46.2624 40.5265 46.4388 39.2035 46.4052 37.9792C46.7475 38.2186 47.0835 38.4832 47.2809 38.71C47.7492 39.2518 49.9752 40.9255 50.0802 41.1586C50.3637 41.7928 49.845 41.5198 49.6602 41.6143C49.2339 41.8306 48.9882 42.1183 48.7509 42.5236C48.7194 42.6013 48.6837 42.6559 48.6816 42.6643C48.6585 42.7546 48.6123 42.8638 48.6123 42.8743C48.6039 42.9646 48.6627 43.1347 48.543 43.1536L53.0559 43.2943C53.1567 43.2607 54.0303 41.5408 54.0702 41.4043C54.0828 41.3602 54.1395 41.1397 54.1395 41.125C54.1521 41.0137 54.1605 40.7323 54.1395 40.6357L54.1521 40.6504Z" fill="black"/>
<defs>
<filter id="filter0_d_846_2558" x="0.347005" y="0" width="75.2777" height="75.2777" filterUnits="userSpaceOnUse" color-interpolation-filters="sRGB">
<feFlood flood-opacity="0" result="BackgroundImageFix"/>
<feColorMatrix in="SourceAlpha" type="matrix" values="0 0 0 0 0 0 0 0 0 0 0 0 0 0 0 0 0 0 127 0" result="hardAlpha"/>
<feOffset dy="5.66667"/>
<feGaussianBlur stdDeviation="2.83333"/>
<feComposite in2="hardAlpha" operator="out"/>
<feColorMatrix type="matrix" values="0 0 0 0 0 0 0 0 0 0 0 0 0 0 0 0 0 0 0.25 0"/>
<feBlend mode="normal" in2="BackgroundImageFix" result="effect1_dropShadow_846_2558"/>
<feBlend mode="normal" in="SourceGraphic" in2="effect1_dropShadow_846_2558" result="shape"/>
</filter>
</defs>
</svg>
