<svg width="76" height="76" viewBox="0 0 76 76" fill="none" xmlns="http://www.w3.org/2000/svg">
<g filter="url(#filter0_d_803_2859)">
<rect x="38.25" y="-0.347168" width="45.3333" height="46.0798" rx="5.66667" transform="rotate(45 38.25 -0.347168)" fill="#FFF000"/>
<rect x="38.25" y="-0.347168" width="45.3333" height="46.0798" rx="5.66667" transform="rotate(45 38.25 -0.347168)" stroke="black" stroke-width="4"/>
</g>
<rect x="38.25" y="-0.347168" width="45.3333" height="46.0798" rx="5.66667" transform="rotate(45 38.25 -0.347168)" fill="#FFF000" stroke="black" stroke-width="4"/>
<path d="M54.1521 40.6507C54.0807 40.3105 53.2533 39.1618 53.0328 38.5507C53.0307 38.5444 52.9992 38.5318 52.9635 38.41C52.9362 38.3323 52.9173 38.2798 52.8942 38.2C52.8648 38.0698 52.8438 37.9858 52.8249 37.8493C52.8102 37.7401 52.7661 37.6288 52.7556 37.4986C52.6674 36.8749 52.6821 36.4423 52.7556 35.8186C52.7661 35.6674 52.8102 35.5288 52.8249 35.3986C52.8438 35.2789 52.8753 35.1592 52.8942 35.0479C52.911 34.9261 52.9572 34.8064 52.9635 34.7686C52.9803 34.6594 53.0286 34.5187 53.0328 34.4893C53.0496 34.3738 53.0979 34.2394 53.1021 34.21C53.1189 34.0924 53.1672 33.9664 53.1714 33.9307C53.1882 33.8173 53.2365 33.685 53.2407 33.6514C53.2617 33.517 53.2953 33.3553 53.31 33.2314C53.331 33.0571 53.3667 32.8408 53.3793 32.6707C53.4276 32.0134 53.4339 30.9466 53.3793 30.2914C53.3667 30.1738 53.3289 29.9995 53.31 29.8714C53.2953 29.7517 53.2617 29.5795 53.2407 29.4514C53.2323 29.4073 53.1903 29.2603 53.1714 29.1721C53.1693 29.1616 53.1231 29.0461 53.1021 28.9621C53.0958 28.9348 53.0538 28.8235 53.0328 28.7521C52.9887 28.624 52.9845 28.5253 52.9635 28.4728C52.0794 26.1817 49.9815 24.1972 47.7156 23.2963C47.6547 23.2732 47.5749 23.2522 47.5056 23.227C47.4426 23.2039 47.3607 23.1787 47.2956 23.1577C47.2305 23.1367 47.1444 23.1052 47.0856 23.0884C47.0121 23.0674 46.9071 23.0275 46.8756 23.0191C46.7916 22.9981 46.6761 22.9666 46.5963 22.9498C46.4913 22.9267 46.3485 22.8973 46.2456 22.8805C46.1364 22.8616 45.9894 22.8217 45.8949 22.8112C45.7227 22.7881 45.5001 22.7545 45.3342 22.7419C44.8428 22.7041 44.154 22.7167 43.6542 22.7419C43.4862 22.7545 43.272 22.7923 43.0935 22.8112C42.9528 22.8217 42.7575 22.8637 42.6042 22.8805C42.4803 22.8952 42.3186 22.9309 42.1842 22.9498C42.0561 22.9666 41.9028 23.0002 41.7642 23.0191C41.6298 23.0401 41.4828 23.0674 41.3442 23.0884C41.2371 23.1052 41.1132 23.1409 40.9935 23.1577C40.8591 23.1787 40.7142 23.206 40.5735 23.227C40.4685 23.2438 40.3404 23.2795 40.2228 23.2963C40.1178 23.3131 39.9897 23.3467 39.8721 23.3656C39.7335 23.3887 39.5928 23.4139 39.4521 23.4349C39.345 23.4517 39.2211 23.4874 39.1014 23.5042C38.9943 23.521 38.8725 23.5567 38.7507 23.5735C38.6436 23.5882 38.5302 23.6323 38.4 23.6428C38.3517 23.647 38.2068 23.7058 38.0493 23.7121C37.665 23.7583 37.5243 23.7604 37.14 23.7121C36.9972 23.6953 36.9426 23.6449 36.93 23.6428C36.8292 23.6176 36.7683 23.5861 36.72 23.5735C36.6444 23.5525 36.5772 23.5252 36.51 23.5042C36.4386 23.4811 36.3672 23.4559 36.3 23.4349C36.1488 23.3992 36.1677 23.3677 36.1593 23.3656C36.0648 23.3446 35.9598 23.2984 35.9493 23.2963C35.8527 23.2753 35.7498 23.2291 35.7393 23.227C35.6406 23.2039 35.544 23.1598 35.5293 23.1577C35.4327 23.1346 35.3361 23.0926 35.3193 23.0884C35.2269 23.0674 35.1198 23.0212 35.1093 23.0191C34.998 22.9939 34.872 22.9708 34.7586 22.9498C34.6536 22.9288 34.5066 22.8952 34.4079 22.8805C34.2273 22.8532 33.9564 22.8217 33.7779 22.8112C33.549 22.8049 33.3075 22.7986 33.0786 22.8112C32.8812 22.8154 32.5872 22.8595 32.3793 22.8805C32.2554 22.8952 32.0895 22.9288 31.9593 22.9498C31.8564 22.9666 31.7199 22.9981 31.6086 23.0191C31.5309 23.0338 31.4196 23.0695 31.3293 23.0884C31.2453 23.1073 31.1403 23.1367 31.05 23.1577C30.9639 23.1766 30.8568 23.2039 30.7707 23.227C30.7371 23.2354 30.6384 23.2753 30.5607 23.2963C30.5019 23.3131 30.42 23.3446 30.3507 23.3656C30.2877 23.3845 30.21 23.4139 30.1407 23.4349C30.0756 23.4559 29.9979 23.4832 29.9307 23.5042C29.8614 23.5273 29.7879 23.5504 29.7207 23.5735C29.7123 23.5756 29.6745 23.6092 29.58 23.6428C29.5086 23.668 29.4372 23.689 29.37 23.7121C29.2986 23.7373 29.2272 23.7583 29.16 23.7814C29.1516 23.7835 29.1096 23.8192 29.0193 23.8507C28.5867 24.0145 26.2116 25.2052 25.9764 25.1107C25.9134 25.0855 25.5795 24.2539 25.1028 24.1321C25.0356 24.1153 24.5379 24.1153 24.4728 24.1321C24.1767 24.2098 23.7987 24.7894 23.6328 25.0414C23.6265 25.0519 23.6412 25.1233 23.5635 25.2514C23.5068 25.3438 23.6643 25.3354 23.4228 25.5307C23.2758 25.6504 23.2191 25.5706 23.1435 25.6C23.133 25.6042 23.0742 25.642 23.0028 25.6693C20.7159 27.0826 21.516 26.7277 20.1342 28.7122C19.563 29.5333 18.5508 29.7664 17.8263 30.4258C17.8347 30.493 17.8116 30.5749 17.8263 30.6358C17.8536 30.745 19.0443 32.0218 19.2249 32.1058C19.2354 32.11 19.4139 32.1709 19.4349 32.1751C19.4874 32.1898 19.6953 32.2423 19.7142 32.2444C19.9557 32.2801 20.3589 32.2486 20.6235 32.2444C20.7999 32.2318 20.9889 32.1814 21.1842 32.1751C21.2472 32.1751 21.5034 32.1079 21.6735 32.1058C21.8772 32.0974 21.957 32.0953 22.1628 32.1058C22.3497 32.1163 22.4778 32.1478 22.6521 32.1751C22.7802 32.1898 22.902 32.2402 22.9314 32.2444C23.0532 32.2612 23.1687 32.3074 23.2107 32.3137C23.3199 32.3326 23.4543 32.3788 23.49 32.383C23.6013 32.3998 23.7399 32.4481 23.7693 32.4523C23.889 32.4691 24.015 32.5069 24.12 32.5216C24.2355 32.5384 24.3699 32.5783 24.4707 32.5909C24.6261 32.6119 24.8109 32.6455 24.96 32.6602C25.1658 32.6812 25.3884 32.7106 25.59 32.7295C26.4552 32.8009 27.3057 32.656 28.1793 32.7988C28.3011 32.8156 28.3494 32.8366 28.4586 32.8681C29.2062 33.0802 29.3301 33.2419 29.6472 33.9181C29.6997 34.0315 29.6934 34.0672 29.7165 34.1281C29.7501 34.2121 29.7606 34.2604 29.7858 34.3381C29.8089 34.4095 29.8341 34.4683 29.8551 34.5481C29.895 34.6699 29.8992 34.7224 29.9244 34.8274C29.9496 34.9261 29.9748 34.9996 29.9937 35.1067C30.0168 35.2243 30.0441 35.3293 30.063 35.4574C30.0882 35.6506 30.1197 35.8144 30.1323 36.0181C30.1806 36.5284 30.1806 36.8371 30.1323 37.3474C30.1218 37.5238 30.0819 37.675 30.063 37.8367C30.0399 37.99 30.0252 38.1034 29.9937 38.2567C29.9748 38.3617 29.9433 38.4478 29.9244 38.536C29.9013 38.6389 29.8803 38.7187 29.8551 38.8153C29.832 38.8909 29.8089 38.9539 29.7858 39.0253C29.7606 39.1009 29.7459 39.1576 29.7165 39.2353C29.6829 39.3361 29.6493 39.3676 29.6472 39.376C29.5044 39.7603 28.8429 41.413 28.4922 41.5453C28.4061 41.5768 28.1961 41.5138 28.1079 41.5453C27.9525 41.6503 27.8517 41.5999 27.8286 41.6146C27.5094 41.8393 26.9718 42.2929 26.85 42.6646C26.8395 42.6982 26.7807 42.9292 26.7807 42.9439C26.7807 43.0867 26.745 43.198 26.8857 43.2946H31.9929C33.1668 41.8414 34.6116 40.5184 35.3172 38.746C35.3382 38.683 35.6679 37.276 35.6679 37.276L36.8754 37.0534L38.0409 37.0891C38.0367 37.1353 38.0346 37.1668 38.0325 37.1773C38.0052 37.3726 37.9989 37.5364 37.9632 37.738C37.9359 37.8514 37.9233 37.9648 37.8939 38.0887C37.8729 38.1895 37.8456 38.2777 37.8246 38.368C37.8015 38.4667 37.7805 38.5507 37.7553 38.6473C37.728 38.746 37.7196 38.8195 37.686 38.9266C37.6503 39.0295 37.6188 39.0589 37.6167 39.0673C37.5936 39.1303 37.4319 40.762 37.3878 40.8649C36.7494 42.5113 35.817 42.0787 34.7124 43.4059H39.1896C39.2778 43.366 40.8234 39.4117 41.4471 37.2655C41.4639 37.3453 41.4828 37.4419 41.4933 37.486C41.5059 37.5469 41.5437 37.696 41.5626 37.7653C41.5752 37.8115 41.613 37.9123 41.6319 37.9753C41.6508 38.0383 41.6802 38.1244 41.7012 38.1853C42.1065 39.2836 42.9885 40.2958 43.5198 41.3332L43.5891 41.4382C43.5618 41.5012 43.4799 41.4592 43.4484 41.4739C43.2153 41.5747 43.0578 41.5033 42.9591 41.5432C42.8688 41.581 42.7785 41.5999 42.7491 41.6125C42.3144 41.8204 41.9427 42.2992 41.7705 42.7318C41.7516 42.8326 41.6991 42.9964 41.7012 43.0111C41.7075 43.0804 41.697 43.1518 41.7012 43.2211L41.7705 43.2904C42.3417 43.2127 45.96 43.4227 46.1784 43.2211C46.1889 43.2106 46.1742 43.0909 46.2477 42.9418C46.2582 42.9208 46.2708 42.7864 46.317 42.6625C46.338 42.61 46.3359 42.5638 46.3863 42.4525C46.59 41.9611 46.632 41.5159 47.1549 41.1589C46.2624 40.5268 46.4388 39.2038 46.4052 37.9795C46.7475 38.2189 47.0835 38.4835 47.2809 38.7103C47.7492 39.2521 49.9752 40.9258 50.0802 41.1589C50.3637 41.7931 49.845 41.5201 49.6602 41.6146C49.2339 41.8309 48.9882 42.1186 48.7509 42.5239C48.7194 42.6016 48.6837 42.6562 48.6816 42.6646C48.6585 42.7549 48.6123 42.8641 48.6123 42.8746C48.6039 42.9649 48.6627 43.135 48.543 43.1539L53.0559 43.2946C53.1567 43.261 54.0303 41.5411 54.0702 41.4046C54.0828 41.3605 54.1395 41.14 54.1395 41.1253C54.1521 41.014 54.1605 40.7326 54.1395 40.636L54.1521 40.6507Z" fill="black"/>
<defs>
<filter id="filter0_d_803_2859" x="0.347005" y="0" width="75.2777" height="75.2777" filterUnits="userSpaceOnUse" color-interpolation-filters="sRGB">
<feFlood flood-opacity="0" result="BackgroundImageFix"/>
<feColorMatrix in="SourceAlpha" type="matrix" values="0 0 0 0 0 0 0 0 0 0 0 0 0 0 0 0 0 0 127 0" result="hardAlpha"/>
<feOffset dy="5.66667"/>
<feGaussianBlur stdDeviation="2.83333"/>
<feComposite in2="hardAlpha" operator="out"/>
<feColorMatrix type="matrix" values="0 0 0 0 0 0 0 0 0 0 0 0 0 0 0 0 0 0 0.25 0"/>
<feBlend mode="normal" in2="BackgroundImageFix" result="effect1_dropShadow_803_2859"/>
<feBlend mode="normal" in="SourceGraphic" in2="effect1_dropShadow_803_2859" result="shape"/>
</filter>
</defs>
</svg>
