<svg width="77" height="77" viewBox="0 0 77 77" fill="none" xmlns="http://www.w3.org/2000/svg">
<g filter="url(#filter0_d_846_2611)">
<circle cx="38.1357" cy="34.0674" r="30" fill="#D9D9D9"/>
<circle cx="38.1357" cy="34.0674" r="30" stroke="black" stroke-width="4.0678"/>
</g>
<circle cx="38.1357" cy="34.0674" r="30" fill="#FFF000" stroke="black" stroke-width="4.0678"/>
<path d="M53.6462 29.5544C53.8766 29.528 50.5502 28.3136 50.5502 28.3136L53.6462 27.488H47.675L51.215 26.0408L43.487 26.6144L47.0126 25.2128L40.3766 25.6256L42.3662 24.3848L35.951 25.004C35.951 25.004 32.0774 26.0744 31.9694 26.0912C31.8902 26.1032 27.6854 26.9624 26.0102 27.1976C25.7102 27.2384 23.7182 30.332 22.3406 31.94C21.7718 32.6048 18.983 33.0512 18.2606 33.5864C18.2702 33.6392 18.2462 33.7088 18.2606 33.7568C18.287 33.8456 19.475 36.9848 19.655 37.052C19.6646 37.0568 19.8422 37.1048 19.8638 37.1096C19.9166 37.1216 20.123 37.1648 20.1422 37.1672C20.3846 37.196 20.7854 37.1696 21.0494 37.1672C21.2246 37.1576 21.4118 37.1168 21.6062 37.1096C21.671 37.1096 21.9254 37.0544 22.0934 37.052C22.2974 37.0448 22.3766 37.0424 22.5806 37.052C22.7654 37.0592 24.4286 37.3784 24.5342 37.3928C24.6494 37.4072 24.7838 37.4384 24.8822 37.4504C25.0382 37.4672 25.2206 37.4936 25.3694 37.508C25.5758 37.5248 25.7966 37.5488 25.9982 37.5656C26.8598 37.6232 27.707 37.5056 28.5782 37.6232C28.6982 37.6376 28.7486 37.6544 28.8566 37.6808C29.603 37.8512 29.7254 37.9832 30.0422 38.5304C30.095 38.6216 30.443 39.2072 30.4598 39.3104C30.4838 39.4664 30.5774 40.4288 30.5294 40.8416C30.5174 40.9856 30.1406 42.308 30.1118 42.3728C30.0782 42.4544 30.0446 42.4808 30.0422 42.4856C29.9006 42.7952 29.2406 44.1344 28.8926 44.2424C28.8062 44.2688 28.5974 44.216 28.5086 44.2424C28.355 44.3288 28.2518 44.2856 28.2302 44.3C27.911 44.4824 27.3758 44.8496 27.2534 45.1496C27.2414 45.176 27.1838 45.3656 27.1838 45.3752C27.1838 45.4904 27.1478 45.5816 27.2894 45.6584H32.3798C33.5486 44.4824 34.9886 43.4096 35.6918 41.9744C35.7134 41.924 38.0798 41.8784 38.0366 41.96C37.4006 43.2944 36.1862 44.6744 35.0846 45.7496H39.5486C39.6374 45.7184 41.963 41.3 41.9846 41.3504C42.0062 41.4008 43.3382 43.2296 43.8686 44.0696L43.9382 44.1536C43.9118 44.2064 43.343 44.852 43.1726 45.2024C43.1534 45.284 43.1006 45.4184 43.103 45.428C43.1078 45.4832 43.1006 45.5432 43.103 45.5984L43.1726 45.656C43.7414 45.5912 46.3022 45.764 46.5206 45.5984C46.5302 45.5912 46.5158 45.4928 46.5902 45.3728C46.6022 45.356 46.6142 45.248 46.6598 45.1472C46.6814 45.104 46.679 45.068 46.7294 44.9768C46.931 44.5784 46.7846 42.344 46.7486 41.3528C47.0894 41.5448 48.9374 41.7752 49.1342 41.9576C49.5998 42.3968 50.1782 44.2208 49.9934 44.2952C49.5686 44.4704 49.3238 44.7032 49.0862 45.032C49.055 45.0944 49.019 45.14 49.0166 45.1448C48.9926 45.2192 48.947 45.3056 48.947 45.3152C48.9374 45.3896 48.9974 45.5264 48.8774 45.5408L53.375 45.6536C53.4758 45.6272 53.5598 42.2936 53.339 41.7992C53.3366 41.7944 53.3054 41.7824 53.2694 41.6864C53.2406 41.624 53.2238 41.5808 53.1998 41.516C53.171 41.4104 53.1494 41.3408 53.1302 41.2328C53.1158 41.144 53.0726 41.0552 53.0606 40.9496C52.9718 40.4432 56.4374 32.3216 53.6462 29.552V29.5544ZM25.2134 36.4976L23.8382 32.0312L27.275 35.1248L25.2134 36.5V36.4976ZM55.3334 31.0688L55.3886 35.72C56.4638 37.8968 58.0406 39.9224 60.0182 41.6672C58.0622 38.2352 58.163 34.1048 55.3358 31.0688H55.3334Z" fill="black"/>
<defs>
<filter id="filter0_d_846_2611" x="-0.000132561" y="-0.000206947" width="76.2717" height="76.2708" filterUnits="userSpaceOnUse" color-interpolation-filters="sRGB">
<feFlood flood-opacity="0" result="BackgroundImageFix"/>
<feColorMatrix in="SourceAlpha" type="matrix" values="0 0 0 0 0 0 0 0 0 0 0 0 0 0 0 0 0 0 127 0" result="hardAlpha"/>
<feOffset dy="4.0678"/>
<feGaussianBlur stdDeviation="3.05085"/>
<feComposite in2="hardAlpha" operator="out"/>
<feColorMatrix type="matrix" values="0 0 0 0 0 0 0 0 0 0 0 0 0 0 0 0 0 0 0.25 0"/>
<feBlend mode="normal" in2="BackgroundImageFix" result="effect1_dropShadow_846_2611"/>
<feBlend mode="normal" in="SourceGraphic" in2="effect1_dropShadow_846_2611" result="shape"/>
</filter>
</defs>
</svg>
