<svg width="75" height="90" viewBox="0 0 75 90" fill="none" xmlns="http://www.w3.org/2000/svg">
<g filter="url(#filter0_d_463_1837)">
<path d="M37.0463 74.3235L18.8971 52.7206L56.1029 52.7206L37.0463 74.3235Z" fill="#008FDF"/>
<path d="M65 32.5C65 47.6878 52.6878 60 37.5 60C22.3122 60 10 47.6878 10 32.5C10 17.3122 22.3122 5 37.5 5C52.6878 5 65 17.3122 65 32.5Z" fill="white"/>
<path d="M37.0463 74.3235L18.8971 52.7206L56.1029 52.7206L37.0463 74.3235Z" stroke="white" stroke-width="4" stroke-linejoin="round"/>
<path d="M65 32.5C65 47.6878 52.6878 60 37.5 60C22.3122 60 10 47.6878 10 32.5C10 17.3122 22.3122 5 37.5 5C52.6878 5 65 17.3122 65 32.5Z" stroke="white" stroke-width="4" stroke-linejoin="round"/>
</g>
<path d="M37.0464 74.3235L18.8971 52.7205L56.103 52.7205L37.0464 74.3235Z" fill="#9747FF"/>
<path d="M61.9091 32.5C61.9091 45.9808 50.9808 56.9091 37.5 56.9091C24.0192 56.9091 13.0909 45.9808 13.0909 32.5C13.0909 19.0192 24.0192 8.09091 37.5 8.09091C50.9808 8.09091 61.9091 19.0192 61.9091 32.5Z" fill="#9747FF" stroke="#9747FF" stroke-width="6.18182"/>
<ellipse cx="37.853" cy="33" rx="23" ry="23" fill="white"/>
<path d="M49.0431 30.7344C47.6815 25.7984 43.1119 22.28 37.9375 22.28C32.7631 22.28 28.1871 25.8048 26.8287 30.7472C24.8239 30.9712 23.2607 32.6768 23.2607 34.7408C23.2607 36.9568 25.0639 38.76 27.2799 38.76C27.3647 38.76 27.4495 38.7568 27.5359 38.752C29.4415 42.7632 33.4591 45.3216 37.9391 45.3216C42.4191 45.3216 46.4431 42.76 48.3455 38.7424C48.4703 38.7552 48.5951 38.76 48.7199 38.76C50.9359 38.76 52.7391 36.9568 52.7391 34.7408C52.7391 32.5248 51.1087 30.9008 49.0447 30.7344H49.0431ZM48.7199 37.16C48.5103 37.16 48.2959 37.1296 48.0799 37.0704C47.6895 36.9632 47.2799 37.1648 47.1279 37.5408C45.5983 41.2944 41.9919 43.7216 37.9391 43.7216C33.8863 43.7216 30.2975 41.3056 28.7615 37.568C28.6367 37.2624 28.3407 37.072 28.0223 37.072C27.9615 37.072 27.8991 37.0784 27.8383 37.0928C27.6479 37.1376 27.4607 37.16 27.2815 37.16C25.9487 37.16 24.8623 36.0752 24.8623 34.7408C24.8623 33.4064 25.9471 32.3216 27.2815 32.3216C27.3071 32.3216 27.3311 32.3232 27.3551 32.3248L27.4175 32.328C27.8127 32.3504 28.1615 32.0832 28.2447 31.6976C28.9055 28.6336 30.9839 26.1408 33.6943 24.8448C33.1727 25.9248 32.9983 27.1984 33.2095 28.2688C33.5471 29.9776 34.7471 30.9984 36.4191 30.9984C38.3887 30.9984 39.3471 29.5216 39.4031 28.1504C39.4495 27.024 38.8991 26.1904 38.0655 26.1216C37.6255 26.0864 37.2383 26.4128 37.2031 26.8544C37.1727 27.232 37.4095 27.5712 37.7567 27.6816C37.8239 27.864 37.8511 28.312 37.6367 28.7312C37.4095 29.1744 36.9999 29.4 36.4175 29.4C35.5183 29.4 34.9663 28.9152 34.7775 27.96C34.5119 26.6192 35.1503 24.7344 36.4031 24.2192C36.5423 24.1616 36.6543 24.0672 36.7391 23.9552C37.1343 23.9072 37.5343 23.88 37.9391 23.88C42.5823 23.88 46.6607 27.1712 47.6351 31.7056C47.7199 32.1024 48.0895 32.3712 48.4911 32.3344C48.5775 32.3264 48.6511 32.3232 48.7199 32.3232C50.0527 32.3232 51.1391 33.408 51.1391 34.7424C51.1391 36.0768 50.0543 37.1616 48.7199 37.1616V37.16Z" fill="#9747FF"/>
<path d="M33.0591 35.9601C33.8544 35.9601 34.4991 35.3154 34.4991 34.5201C34.4991 33.7248 33.8544 33.0801 33.0591 33.0801C32.2639 33.0801 31.6191 33.7248 31.6191 34.5201C31.6191 35.3154 32.2639 35.9601 33.0591 35.9601Z" fill="#9747FF"/>
<path d="M42.6592 35.9601C43.4545 35.9601 44.0992 35.3154 44.0992 34.5201C44.0992 33.7248 43.4545 33.0801 42.6592 33.0801C41.8639 33.0801 41.2192 33.7248 41.2192 34.5201C41.2192 35.3154 41.8639 35.9601 42.6592 35.9601Z" fill="#9747FF"/>
<path d="M42.0607 37.8896C41.6639 37.696 41.1839 37.8624 40.9919 38.2592C40.5743 39.1184 39.3519 39.72 38.0191 39.72C36.6863 39.72 35.5807 39.1792 35.1087 38.376C34.8847 37.9952 34.3951 37.8672 34.0143 38.0912C33.6335 38.3152 33.5055 38.8048 33.7295 39.1856C34.4911 40.4816 36.1743 41.32 38.0191 41.32C40.0015 41.32 41.7327 40.3936 42.4303 38.96C42.6239 38.5632 42.4575 38.0832 42.0607 37.8912V37.8896Z" fill="#9747FF"/>
<defs>
<filter id="filter0_d_463_1837" x="0" y="0" width="75" height="89.3235" filterUnits="userSpaceOnUse" color-interpolation-filters="sRGB">
<feFlood flood-opacity="0" result="BackgroundImageFix"/>
<feColorMatrix in="SourceAlpha" type="matrix" values="0 0 0 0 0 0 0 0 0 0 0 0 0 0 0 0 0 0 127 0" result="hardAlpha"/>
<feOffset dy="5"/>
<feGaussianBlur stdDeviation="4"/>
<feComposite in2="hardAlpha" operator="out"/>
<feColorMatrix type="matrix" values="0 0 0 0 0 0 0 0 0 0 0 0 0 0 0 0 0 0 0.25 0"/>
<feBlend mode="normal" in2="BackgroundImageFix" result="effect1_dropShadow_463_1837"/>
<feBlend mode="normal" in="SourceGraphic" in2="effect1_dropShadow_463_1837" result="shape"/>
</filter>
</defs>
</svg>
