<svg width="67" height="91" viewBox="0 0 67 91" fill="none" xmlns="http://www.w3.org/2000/svg">
<g filter="url(#filter0_d_22_954)">
<path d="M33.2977 1.30005C17.8422 1.30005 5.32092 14.1377 5.32092 29.6454C5.32092 45.1443 24.9443 81.5 33.2977 81.5C41.651 81.5 61.2744 45.1443 61.2744 29.6454C61.2744 14.1377 48.7444 1.30005 33.2977 1.30005Z" fill="#9747FF"/>
<path d="M33.2977 1.30005C17.8422 1.30005 5.32092 14.1377 5.32092 29.6454C5.32092 45.1443 24.9443 81.5 33.2977 81.5C41.651 81.5 61.2744 45.1443 61.2744 29.6454C61.2744 14.1377 48.7444 1.30005 33.2977 1.30005Z" stroke="white" stroke-width="2"/>
</g>
<path d="M10.3209 29.3C10.3209 42.0026 20.6184 52.3 33.3209 52.3C46.0235 52.3 56.3209 42.0026 56.3209 29.3C56.3209 16.5975 46.0235 6.30005 33.3209 6.30005C20.6184 6.30005 10.3209 16.5975 10.3209 29.3Z" fill="white"/>
<path d="M49.1955 26.0432C47.2382 18.9477 40.6694 13.89 33.2312 13.89C25.793 13.89 19.215 18.9569 17.2623 26.0616C14.3804 26.3836 12.1333 28.8354 12.1333 31.8024C12.1333 34.9879 14.7254 37.58 17.9109 37.58C18.0328 37.58 18.1547 37.5754 18.2789 37.5685C21.0182 43.3346 26.7935 47.0123 33.2335 47.0123C39.6735 47.0123 45.458 43.33 48.1927 37.5547C48.3721 37.5731 48.5515 37.58 48.7309 37.58C51.9164 37.58 54.5085 34.9879 54.5085 31.8024C54.5085 28.6169 52.1648 26.2824 49.1978 26.0432H49.1955ZM48.7309 35.28C48.4296 35.28 48.1214 35.2363 47.8109 35.1512C47.2497 34.9971 46.6609 35.2869 46.4424 35.8274C44.2436 41.2232 39.0594 44.7123 33.2335 44.7123C27.4076 44.7123 22.2487 41.2393 20.0407 35.8665C19.8613 35.4272 19.4358 35.1535 18.9781 35.1535C18.8907 35.1535 18.801 35.1627 18.7136 35.1834C18.4399 35.2478 18.1708 35.28 17.9132 35.28C15.9973 35.28 14.4356 33.7206 14.4356 31.8024C14.4356 29.8842 15.995 28.3248 17.9132 28.3248C17.95 28.3248 17.9845 28.3271 18.019 28.3294L18.1087 28.334C18.6768 28.3662 19.1782 27.9821 19.2978 27.4278C20.2477 23.0233 23.2354 19.4399 27.1316 17.5769C26.3818 19.1294 26.1311 20.9602 26.4347 22.4989C26.92 24.9553 28.645 26.4227 31.0485 26.4227C33.8798 26.4227 35.2575 24.2998 35.338 22.3287C35.4047 20.7095 34.6135 19.5112 33.4152 19.4123C32.7827 19.3617 32.2261 19.8309 32.1755 20.4657C32.1318 21.0085 32.4722 21.4961 32.9713 21.6548C33.0679 21.917 33.107 22.561 32.7988 23.1636C32.4722 23.8007 31.8834 24.125 31.0462 24.125C29.7536 24.125 28.9601 23.4281 28.6887 22.055C28.3069 20.1276 29.2246 17.4182 31.0255 16.6776C31.2256 16.5948 31.3866 16.4591 31.5085 16.2981C32.0766 16.2291 32.6516 16.19 33.2335 16.19C39.9081 16.19 45.7708 20.9211 47.1715 27.4393C47.2934 28.0097 47.8247 28.3961 48.402 28.3432C48.5262 28.3317 48.632 28.3271 48.7309 28.3271C50.6468 28.3271 52.2085 29.8865 52.2085 31.8047C52.2085 33.7229 50.6491 35.2823 48.7309 35.2823V35.28Z" fill="#9747FF"/>
<path d="M26.2186 33.555C27.3618 33.555 28.2886 32.6283 28.2886 31.485C28.2886 30.3418 27.3618 29.415 26.2186 29.415C25.0753 29.415 24.1486 30.3418 24.1486 31.485C24.1486 32.6283 25.0753 33.555 26.2186 33.555Z" fill="#9747FF"/>
<path d="M40.0185 33.555C41.1617 33.555 42.0885 32.6283 42.0885 31.485C42.0885 30.3418 41.1617 29.415 40.0185 29.415C38.8753 29.415 37.9485 30.3418 37.9485 31.485C37.9485 32.6283 38.8753 33.555 40.0185 33.555Z" fill="#9747FF"/>
<path d="M39.1583 36.3288C38.5879 36.0505 37.8979 36.2897 37.6219 36.8601C37.0216 38.0952 35.2644 38.96 33.3485 38.96C31.4326 38.96 29.8433 38.1826 29.1648 37.028C28.8428 36.4806 28.139 36.2966 27.5916 36.6186C27.0442 36.9406 26.8602 37.6444 27.1822 38.1918C28.277 40.0548 30.6966 41.26 33.3485 41.26C36.1982 41.26 38.6868 39.9283 39.6896 37.8675C39.9679 37.2971 39.7287 36.6071 39.1583 36.3311V36.3288Z" fill="#9747FF"/>
<defs>
<filter id="filter0_d_22_954" x="0.320923" y="0.300049" width="65.9535" height="90.2" filterUnits="userSpaceOnUse" color-interpolation-filters="sRGB">
<feFlood flood-opacity="0" result="BackgroundImageFix"/>
<feColorMatrix in="SourceAlpha" type="matrix" values="0 0 0 0 0 0 0 0 0 0 0 0 0 0 0 0 0 0 127 0" result="hardAlpha"/>
<feOffset dy="4"/>
<feGaussianBlur stdDeviation="2"/>
<feComposite in2="hardAlpha" operator="out"/>
<feColorMatrix type="matrix" values="0 0 0 0 0 0 0 0 0 0 0 0 0 0 0 0 0 0 0.25 0"/>
<feBlend mode="normal" in2="BackgroundImageFix" result="effect1_dropShadow_22_954"/>
<feBlend mode="normal" in="SourceGraphic" in2="effect1_dropShadow_22_954" result="shape"/>
</filter>
</defs>
</svg>
