<svg width="75" height="90" viewBox="0 0 75 90" fill="none" xmlns="http://www.w3.org/2000/svg">
<g filter="url(#filter0_d_463_1849)">
<path d="M37.0463 74.3235L18.8971 52.7206L56.1029 52.7206L37.0463 74.3235Z" fill="#008FDF"/>
<path d="M65 32.5C65 47.6878 52.6878 60 37.5 60C22.3122 60 10 47.6878 10 32.5C10 17.3122 22.3122 5 37.5 5C52.6878 5 65 17.3122 65 32.5Z" fill="white"/>
<path d="M37.0463 74.3235L18.8971 52.7206L56.1029 52.7206L37.0463 74.3235Z" stroke="white" stroke-width="4" stroke-linejoin="round"/>
<path d="M65 32.5C65 47.6878 52.6878 60 37.5 60C22.3122 60 10 47.6878 10 32.5C10 17.3122 22.3122 5 37.5 5C52.6878 5 65 17.3122 65 32.5Z" stroke="white" stroke-width="4" stroke-linejoin="round"/>
</g>
<path d="M37.0464 74.3235L18.8971 52.7205L56.103 52.7205L37.0464 74.3235Z" fill="#FF6B00"/>
<path d="M61.9091 32.5C61.9091 45.9808 50.9808 56.9091 37.5 56.9091C24.0192 56.9091 13.0909 45.9808 13.0909 32.5C13.0909 19.0192 24.0192 8.09091 37.5 8.09091C50.9808 8.09091 61.9091 19.0192 61.9091 32.5Z" fill="#FF6B00" stroke="#FF6B00" stroke-width="6.18182"/>
<ellipse cx="37.853" cy="33" rx="23" ry="23" fill="white"/>
<path d="M39.3343 40.5199L38.1071 38.8847C40.8223 37.9535 45.2159 33.7759 45.2159 28.7599C45.2159 23.0607 41.5855 18.4399 37.1055 18.4399C32.6255 18.4399 28.9951 23.0607 28.9951 28.7599C28.9951 33.7759 33.3887 37.9535 36.1039 38.8847L34.8767 40.5199H39.3343ZM31.5999 29.7999C31.2463 29.7999 30.9599 29.5135 30.9599 29.1599C30.9599 28.8063 31.2463 28.5199 31.5999 28.5199C31.9535 28.5199 32.2399 28.8063 32.2399 29.1599C32.2399 29.5135 31.9535 29.7999 31.5999 29.7999ZM35.6991 22.3487C33.8591 22.7935 32.4607 25.0479 32.4399 26.7679C32.4367 27.0495 32.2063 27.2767 31.9247 27.2767C31.9231 27.2767 31.9199 27.2767 31.9183 27.2767C31.6335 27.2735 31.4063 27.0399 31.4095 26.7551C31.4351 24.6095 33.0687 21.9231 35.4575 21.3471C35.7343 21.2799 36.0127 21.4511 36.0783 21.7263C36.1455 22.0031 35.9743 22.2815 35.6991 22.3471V22.3487Z" fill="#FF6B00"/>
<path d="M37.4703 41.3201H36.7695C36.7695 42.2321 37.8143 47.2929 42.4383 47.7457L42.5071 47.0481C38.4095 46.6465 37.4703 42.0065 37.4703 41.3201Z" fill="#FF6B00"/>
<defs>
<filter id="filter0_d_463_1849" x="0" y="0" width="75" height="89.3235" filterUnits="userSpaceOnUse" color-interpolation-filters="sRGB">
<feFlood flood-opacity="0" result="BackgroundImageFix"/>
<feColorMatrix in="SourceAlpha" type="matrix" values="0 0 0 0 0 0 0 0 0 0 0 0 0 0 0 0 0 0 127 0" result="hardAlpha"/>
<feOffset dy="5"/>
<feGaussianBlur stdDeviation="4"/>
<feComposite in2="hardAlpha" operator="out"/>
<feColorMatrix type="matrix" values="0 0 0 0 0 0 0 0 0 0 0 0 0 0 0 0 0 0 0.25 0"/>
<feBlend mode="normal" in2="BackgroundImageFix" result="effect1_dropShadow_463_1849"/>
<feBlend mode="normal" in="SourceGraphic" in2="effect1_dropShadow_463_1849" result="shape"/>
</filter>
</defs>
</svg>
