<svg width="66" height="91" viewBox="0 0 66 91" fill="none" xmlns="http://www.w3.org/2000/svg">
<g filter="url(#filter0_d_20_678)">
<path d="M32.9767 1.30005C17.5212 1.30005 5 14.1377 5 29.6454C5 45.1443 24.6234 81.5 32.9767 81.5C41.3301 81.5 60.9535 45.1443 60.9535 29.6454C60.9535 14.1377 48.4234 1.30005 32.9767 1.30005Z" fill="#FF6B00"/>
<path d="M32.9767 1.30005C17.5212 1.30005 5 14.1377 5 29.6454C5 45.1443 24.6234 81.5 32.9767 81.5C41.3301 81.5 60.9535 45.1443 60.9535 29.6454C60.9535 14.1377 48.4234 1.30005 32.9767 1.30005Z" stroke="white" stroke-width="2"/>
</g>
<path d="M10 29.3C10 42.0026 20.2975 52.3 33 52.3C45.7025 52.3 56 42.0026 56 29.3C56 16.5975 45.7025 6.30005 33 6.30005C20.2975 6.30005 10 16.5975 10 29.3Z" fill="white"/>
<path d="M34.5846 38.23L33.1273 36.2882C36.3516 35.1824 41.569 30.2215 41.569 24.265C41.569 17.4972 37.2579 12.01 31.9379 12.01C26.6179 12.01 22.3068 17.4972 22.3068 24.265C22.3068 30.2215 27.5242 35.1824 30.7485 36.2882L29.2912 38.23H34.5846ZM25.4 25.5C24.9801 25.5 24.64 25.1599 24.64 24.74C24.64 24.3201 24.9801 23.98 25.4 23.98C25.8199 23.98 26.16 24.3201 26.16 24.74C26.16 25.1599 25.8199 25.5 25.4 25.5ZM30.2678 16.6517C28.0828 17.1799 26.4222 19.857 26.3975 21.8995C26.3937 22.2339 26.1201 22.5037 25.7857 22.5037C25.7838 22.5037 25.78 22.5037 25.7781 22.5037C25.4399 22.4999 25.1701 22.2225 25.1739 21.8843C25.2043 19.3364 27.1442 16.1463 29.9809 15.4623C30.3096 15.3825 30.6402 15.5858 30.7181 15.9126C30.7979 16.2413 30.5946 16.5719 30.2678 16.6498V16.6517Z" fill="#FF6B00"/>
<path d="M32.3711 39.1801H31.5389C31.5389 40.2631 32.7796 46.2728 38.2706 46.8105L38.3523 45.9821C33.4864 45.5052 32.3711 39.9952 32.3711 39.1801Z" fill="#FF6B00"/>
<defs>
<filter id="filter0_d_20_678" x="0" y="0.300049" width="65.9535" height="90.2" filterUnits="userSpaceOnUse" color-interpolation-filters="sRGB">
<feFlood flood-opacity="0" result="BackgroundImageFix"/>
<feColorMatrix in="SourceAlpha" type="matrix" values="0 0 0 0 0 0 0 0 0 0 0 0 0 0 0 0 0 0 127 0" result="hardAlpha"/>
<feOffset dy="4"/>
<feGaussianBlur stdDeviation="2"/>
<feComposite in2="hardAlpha" operator="out"/>
<feColorMatrix type="matrix" values="0 0 0 0 0 0 0 0 0 0 0 0 0 0 0 0 0 0 0.25 0"/>
<feBlend mode="normal" in2="BackgroundImageFix" result="effect1_dropShadow_20_678"/>
<feBlend mode="normal" in="SourceGraphic" in2="effect1_dropShadow_20_678" result="shape"/>
</filter>
</defs>
</svg>
