<svg width="75" height="90" viewBox="0 0 75 90" fill="none" xmlns="http://www.w3.org/2000/svg">
<g filter="url(#filter0_d_463_1860)">
<path d="M37.0463 74.3235L18.8971 52.7206L56.1029 52.7206L37.0463 74.3235Z" fill="#008FDF"/>
<path d="M65 32.5C65 47.6878 52.6878 60 37.5 60C22.3122 60 10 47.6878 10 32.5C10 17.3122 22.3122 5 37.5 5C52.6878 5 65 17.3122 65 32.5Z" fill="white"/>
<path d="M37.0463 74.3235L18.8971 52.7206L56.1029 52.7206L37.0463 74.3235Z" stroke="white" stroke-width="4" stroke-linejoin="round"/>
<path d="M65 32.5C65 47.6878 52.6878 60 37.5 60C22.3122 60 10 47.6878 10 32.5C10 17.3122 22.3122 5 37.5 5C52.6878 5 65 17.3122 65 32.5Z" stroke="white" stroke-width="4" stroke-linejoin="round"/>
</g>
<path d="M37.0464 74.3235L18.8971 52.7205L56.103 52.7205L37.0464 74.3235Z" fill="#FFF000"/>
<path d="M61.9091 32.5C61.9091 45.9808 50.9808 56.9091 37.5 56.9091C24.0192 56.9091 13.0909 45.9808 13.0909 32.5C13.0909 19.0192 24.0192 8.09091 37.5 8.09091C50.9808 8.09091 61.9091 19.0192 61.9091 32.5Z" fill="#FFF000" stroke="#FFF000" stroke-width="6.18182"/>
<ellipse cx="37.853" cy="33" rx="23" ry="23" fill="white"/>
<path d="M38 19C30.2793 19 24 25.2811 24 33C24 40.7189 30.2811 47 38 47C45.7189 47 52 40.7189 52 33C52 25.2811 45.7207 19 38 19ZM26.2342 33C26.2342 29.8036 27.5171 26.9027 29.5946 24.7802C30.1423 25.3622 30.6288 25.9928 31.0468 26.6649L30.1369 27.2342C30.3441 27.564 30.5351 27.9099 30.7045 28.2613L31.6703 27.7946C32.0667 28.6162 32.3712 29.4811 32.573 30.373L31.5243 30.6072C31.609 30.9856 31.6739 31.3748 31.7189 31.764L32.7892 31.6432C32.8414 32.0919 32.8685 32.5459 32.8685 33.0018C32.8685 33.4577 32.8396 33.9243 32.7856 34.3802L31.7153 34.2577C31.6703 34.645 31.6054 35.0342 31.5189 35.4144L32.5676 35.6504C32.364 36.5441 32.0595 37.4072 31.6613 38.2288L30.6973 37.7603C30.5279 38.1099 30.3351 38.4558 30.1279 38.7856L31.0378 39.3567C30.6216 40.0216 30.1405 40.6468 29.5964 41.2234C27.5207 39.1009 26.236 36.2 26.236 33.0018L26.2342 33ZM38 44.7658C35.3568 44.7658 32.9135 43.8883 30.9477 42.4126C31.555 41.7622 32.0937 41.0576 32.5622 40.3117L33.4847 40.8901C33.7676 40.4396 34.0288 39.9694 34.2613 39.4901L33.2811 39.0144C33.7387 38.0703 34.0901 37.0739 34.3243 36.045L35.3856 36.2847C35.5027 35.7658 35.5928 35.236 35.6522 34.7063L34.5748 34.5838C34.636 34.0613 34.6685 33.5333 34.6685 33.0018C34.6685 32.4703 34.636 31.9567 34.5766 31.4396L35.654 31.3171C35.5946 30.7874 35.5045 30.2577 35.3892 29.7387L34.3279 29.9766C34.0955 28.9477 33.7459 27.9531 33.2901 27.0072L34.2721 26.5315C34.0396 26.0522 33.7802 25.582 33.4991 25.1315L32.5766 25.7081C32.1063 24.955 31.564 24.2432 30.9513 23.5892C32.9171 22.1117 35.3604 21.2342 38.0036 21.2342C40.6468 21.2342 43.0901 22.1117 45.0558 23.5892C44.4432 24.245 43.9009 24.955 43.4306 25.7081L42.5081 25.1315C42.227 25.582 41.9658 26.0541 41.7351 26.5315L42.7171 27.0072C42.2613 27.9531 41.9099 28.9477 41.6793 29.9766L40.618 29.7387C40.5027 30.2577 40.4126 30.7874 40.3531 31.3171L41.4306 31.4396C41.3712 31.9549 41.3387 32.4757 41.3387 33.0018C41.3387 33.5279 41.373 34.0613 41.4324 34.5838L40.3549 34.7063C40.4162 35.2342 40.5045 35.7658 40.6216 36.2847L41.6829 36.045C41.9171 37.0739 42.2685 38.0685 42.7261 39.0144L41.7459 39.4901C41.9784 39.9676 42.2396 40.4396 42.5225 40.8901L43.445 40.3117C43.9117 41.0576 44.4504 41.7622 45.0576 42.4126C43.0919 43.8901 40.6486 44.7676 38.0054 44.7676L38 44.7658ZM46.4054 41.2198C45.8612 40.6432 45.3802 40.018 44.964 39.3531L45.8739 38.782C45.6667 38.4522 45.4757 38.1063 45.3045 37.7567L44.3405 38.2252C43.9423 37.4054 43.6378 36.5405 43.4342 35.6468L44.4829 35.4108C44.3964 35.0306 44.3315 34.6414 44.2865 34.254L43.2162 34.3766C43.164 33.9207 43.1333 33.4613 43.1333 32.9982C43.1333 32.5351 43.1622 32.0883 43.2126 31.6396L44.2829 31.7604C44.3261 31.373 44.3928 30.9838 44.4775 30.6036L43.4288 30.3694C43.6306 29.4757 43.9351 28.6126 44.3315 27.791L45.2973 28.2577C45.4667 27.9063 45.6576 27.5622 45.8649 27.2306L44.9549 26.6613C45.373 25.991 45.8576 25.3586 46.4072 24.7784C48.4829 26.9009 49.7658 29.8018 49.7658 32.9982C49.7658 36.1946 48.4829 39.0955 46.4072 41.218L46.4054 41.2198Z" fill="#D4B200"/>
<defs>
<filter id="filter0_d_463_1860" x="0" y="0" width="75" height="89.3235" filterUnits="userSpaceOnUse" color-interpolation-filters="sRGB">
<feFlood flood-opacity="0" result="BackgroundImageFix"/>
<feColorMatrix in="SourceAlpha" type="matrix" values="0 0 0 0 0 0 0 0 0 0 0 0 0 0 0 0 0 0 127 0" result="hardAlpha"/>
<feOffset dy="5"/>
<feGaussianBlur stdDeviation="4"/>
<feComposite in2="hardAlpha" operator="out"/>
<feColorMatrix type="matrix" values="0 0 0 0 0 0 0 0 0 0 0 0 0 0 0 0 0 0 0.25 0"/>
<feBlend mode="normal" in2="BackgroundImageFix" result="effect1_dropShadow_463_1860"/>
<feBlend mode="normal" in="SourceGraphic" in2="effect1_dropShadow_463_1860" result="shape"/>
</filter>
</defs>
</svg>
