<svg width="67" height="91" viewBox="0 0 67 91" fill="none" xmlns="http://www.w3.org/2000/svg">
<g filter="url(#filter0_d_16_459)">
<path d="M33.1907 1C17.7352 1 5.21393 13.8376 5.21393 29.3454C5.21393 44.8443 24.8373 81.2 33.1907 81.2C41.544 81.2 61.1674 44.8443 61.1674 29.3454C61.1674 13.8376 48.6374 1 33.1907 1Z" fill="#FFF000"/>
<path d="M33.1907 1C17.7352 1 5.21393 13.8376 5.21393 29.3454C5.21393 44.8443 24.8373 81.2 33.1907 81.2C41.544 81.2 61.1674 44.8443 61.1674 29.3454C61.1674 13.8376 48.6374 1 33.1907 1Z" stroke="white" stroke-width="2"/>
</g>
<path d="M10.2139 29C10.2139 41.7025 20.5114 52 33.2139 52C45.9165 52 56.2139 41.7025 56.2139 29C56.2139 16.2975 45.9165 6 33.2139 6C20.5114 6 10.2139 16.2975 10.2139 29Z" fill="white"/>
<path d="M33.2139 15C25.4932 15 19.2139 21.2811 19.2139 29C19.2139 36.7189 25.495 43 33.2139 43C40.9328 43 47.2139 36.7189 47.2139 29C47.2139 21.2811 40.9346 15 33.2139 15ZM21.4482 29C21.4482 25.8036 22.731 22.9027 24.8085 20.7802C25.3563 21.3622 25.8428 21.9928 26.2608 22.6649L25.3509 23.2342C25.5581 23.564 25.7491 23.9099 25.9184 24.2613L26.8842 23.7946C27.2806 24.6162 27.5851 25.4811 27.7869 26.373L26.7382 26.6072C26.8229 26.9856 26.8878 27.3748 26.9328 27.764L28.0031 27.6432C28.0554 28.0919 28.0824 28.5459 28.0824 29.0018C28.0824 29.4577 28.0536 29.9243 27.9995 30.3802L26.9292 30.2577C26.8842 30.645 26.8193 31.0342 26.7328 31.4144L27.7815 31.6504C27.5779 32.5441 27.2734 33.4072 26.8752 34.2288L25.9112 33.7603C25.7419 34.1099 25.5491 34.4558 25.3419 34.7856L26.2518 35.3567C25.8355 36.0216 25.3545 36.6468 24.8103 37.2234C22.7346 35.1009 21.45 32.2 21.45 29.0018L21.4482 29ZM33.2139 40.7658C30.5707 40.7658 28.1274 39.8883 26.1617 38.4126C26.7689 37.7622 27.3076 37.0576 27.7761 36.3117L28.6986 36.8901C28.9815 36.4396 29.2428 35.9694 29.4752 35.4901L28.495 35.0144C28.9527 34.0703 29.304 33.0739 29.5382 32.045L30.5995 32.2847C30.7166 31.7658 30.8067 31.236 30.8662 30.7063L29.7887 30.5838C29.85 30.0613 29.8824 29.5333 29.8824 29.0018C29.8824 28.4703 29.85 27.9567 29.7905 27.4396L30.868 27.3171C30.8085 26.7874 30.7184 26.2577 30.6031 25.7387L29.5419 25.9766C29.3094 24.9477 28.9599 23.9531 28.504 23.0072L29.486 22.5315C29.2536 22.0522 28.9941 21.582 28.713 21.1315L27.7905 21.7081C27.3202 20.955 26.7779 20.2432 26.1653 19.5892C28.131 18.1117 30.5743 17.2342 33.2175 17.2342C35.8608 17.2342 38.304 18.1117 40.2698 19.5892C39.6572 20.245 39.1148 20.955 38.6445 21.7081L37.722 21.1315C37.4409 21.582 37.1797 22.0541 36.9491 22.5315L37.931 23.0072C37.4752 23.9531 37.1238 24.9477 36.8932 25.9766L35.8319 25.7387C35.7166 26.2577 35.6265 26.7874 35.5671 27.3171L36.6446 27.4396C36.5851 27.9549 36.5527 28.4757 36.5527 29.0018C36.5527 29.5279 36.5869 30.0613 36.6464 30.5838L35.5689 30.7063C35.6301 31.2342 35.7184 31.7658 35.8355 32.2847L36.8968 32.045C37.131 33.0739 37.4824 34.0685 37.94 35.0144L36.9599 35.4901C37.1923 35.9676 37.4536 36.4396 37.7364 36.8901L38.659 36.3117C39.1256 37.0576 39.6644 37.7622 40.2716 38.4126C38.3058 39.8901 35.8626 40.7676 33.2193 40.7676L33.2139 40.7658ZM41.6193 37.2198C41.0752 36.6432 40.5941 36.018 40.1779 35.3531L41.0878 34.782C40.8806 34.4522 40.6896 34.1063 40.5184 33.7567L39.5545 34.2252C39.1563 33.4054 38.8518 32.5405 38.6482 31.6468L39.6968 31.4108C39.6103 31.0306 39.5454 30.6414 39.5004 30.254L38.4301 30.3766C38.3779 29.9207 38.3473 29.4613 38.3473 28.9982C38.3473 28.5351 38.3761 28.0883 38.4265 27.6396L39.4968 27.7604C39.54 27.373 39.6067 26.9838 39.6914 26.6036L38.6427 26.3694C38.8445 25.4757 39.1491 24.6126 39.5454 23.791L40.5112 24.2577C40.6806 23.9063 40.8716 23.5622 41.0788 23.2306L40.1689 22.6613C40.5869 21.991 41.0716 21.3586 41.6211 20.7784C43.6968 22.9009 44.9797 25.8018 44.9797 28.9982C44.9797 32.1946 43.6968 35.0955 41.6211 37.218L41.6193 37.2198Z" fill="#D4B200"/>
<defs>
<filter id="filter0_d_16_459" x="0.213928" y="0" width="65.9535" height="90.2" filterUnits="userSpaceOnUse" color-interpolation-filters="sRGB">
<feFlood flood-opacity="0" result="BackgroundImageFix"/>
<feColorMatrix in="SourceAlpha" type="matrix" values="0 0 0 0 0 0 0 0 0 0 0 0 0 0 0 0 0 0 127 0" result="hardAlpha"/>
<feOffset dy="4"/>
<feGaussianBlur stdDeviation="2"/>
<feComposite in2="hardAlpha" operator="out"/>
<feColorMatrix type="matrix" values="0 0 0 0 0 0 0 0 0 0 0 0 0 0 0 0 0 0 0.25 0"/>
<feBlend mode="normal" in2="BackgroundImageFix" result="effect1_dropShadow_16_459"/>
<feBlend mode="normal" in="SourceGraphic" in2="effect1_dropShadow_16_459" result="shape"/>
</filter>
</defs>
</svg>