<svg width="75" height="90" viewBox="0 0 75 90" fill="none" xmlns="http://www.w3.org/2000/svg">
<g filter="url(#filter0_d_771_2611)">
<path d="M37.0463 74.3235L18.8971 52.7206L56.1029 52.7206L37.0463 74.3235Z" fill="#008FDF"/>
<path d="M65 32.5C65 47.6878 52.6878 60 37.5 60C22.3122 60 10 47.6878 10 32.5C10 17.3122 22.3122 5 37.5 5C52.6878 5 65 17.3122 65 32.5Z" fill="white"/>
<path d="M37.0463 74.3235L18.8971 52.7206L56.1029 52.7206L37.0463 74.3235Z" stroke="white" stroke-width="4" stroke-linejoin="round"/>
<path d="M65 32.5C65 47.6878 52.6878 60 37.5 60C22.3122 60 10 47.6878 10 32.5C10 17.3122 22.3122 5 37.5 5C52.6878 5 65 17.3122 65 32.5Z" stroke="white" stroke-width="4" stroke-linejoin="round"/>
</g>
<path d="M37.0464 74.3235L18.8971 52.7205L56.103 52.7205L37.0464 74.3235Z" fill="#9747FF"/>
<path d="M37.5 8.09082C50.9808 8.09082 61.9092 19.0192 61.9092 32.5C61.9092 45.9808 50.9808 56.9092 37.5 56.9092C24.0192 56.9092 13.0908 45.9808 13.0908 32.5C13.0908 19.0192 24.0192 8.09082 37.5 8.09082Z" fill="#9747FF" stroke="#9747FF" stroke-width="6.18182"/>
<ellipse cx="37.853" cy="33" rx="23" ry="23" fill="white"/>
<path d="M55.2213 35.2163C55.2213 35.1695 55.2155 35.1246 55.2077 35.0778C55.2057 35.0642 55.2018 35.0525 55.1979 35.0388C55.1901 35.0057 55.1804 34.9745 55.1687 34.9413C55.1628 34.9277 55.1589 34.916 55.1531 34.9023C55.1355 34.8614 55.1141 34.8224 55.0887 34.7853C55.0887 34.7834 55.0848 34.7814 55.0829 34.7795C55.0634 34.7502 55.0419 34.7229 55.0185 34.6956L53.1972 32.691C53.049 32.5292 52.8404 32.4356 52.62 32.4356H50.5764V30.5343H52.347C52.778 30.5343 53.127 30.1853 53.127 29.7543V21.1919C53.127 20.7609 52.778 20.4119 52.347 20.4119H24.6531C24.2222 20.4119 23.8731 20.7609 23.8731 21.1919V29.7543C23.8731 30.1853 24.2222 30.5343 24.6531 30.5343H26.4237V32.4356H24.9261C24.7409 32.4356 24.5634 32.4999 24.423 32.6208L22.0538 34.6254C22.044 34.6332 22.0362 34.6449 22.0265 34.6527C22.0148 34.6644 22.0031 34.6742 21.9933 34.6859C21.9699 34.7093 21.9504 34.7346 21.9309 34.7619C21.9231 34.7736 21.9134 34.7834 21.9075 34.7951C21.8822 34.8321 21.8607 34.8731 21.8432 34.914C21.8393 34.9218 21.8373 34.9296 21.8354 34.9394C21.8217 34.9745 21.81 35.0096 21.8022 35.0466C21.7983 35.0622 21.7964 35.0759 21.7944 35.0915C21.7886 35.1266 21.7847 35.1597 21.7847 35.1948C21.7847 35.2046 21.7827 35.2124 21.7827 35.2221V37.9541C21.7827 38.385 22.1318 38.7341 22.5627 38.7341H24.657V43.4199H27.0263V38.7341H28.4829V40.8693H30.6123V38.7341H46.3937V40.8693H48.5231V38.7341H49.9797V43.4199H52.349V38.7341H54.4433C54.8742 38.7341 55.2233 38.385 55.2233 37.9541V35.2221C55.2233 35.2221 55.2233 35.2182 55.2233 35.2163H55.2213ZM28.713 30.5363H48.2871V32.4375H28.713V30.5363ZM52.6512 35.5146H24.3489C24.1871 35.5146 24.0564 35.384 24.0564 35.2221C24.0564 35.0603 24.1871 34.9296 24.3489 34.9296H52.6512C52.8131 34.9296 52.9437 35.0603 52.9437 35.2221C52.9437 35.384 52.8131 35.5146 52.6512 35.5146Z" fill="#9747FF"/>
<defs>
<filter id="filter0_d_771_2611" x="0" y="0" width="75" height="89.3235" filterUnits="userSpaceOnUse" color-interpolation-filters="sRGB">
<feFlood flood-opacity="0" result="BackgroundImageFix"/>
<feColorMatrix in="SourceAlpha" type="matrix" values="0 0 0 0 0 0 0 0 0 0 0 0 0 0 0 0 0 0 127 0" result="hardAlpha"/>
<feOffset dy="5"/>
<feGaussianBlur stdDeviation="4"/>
<feComposite in2="hardAlpha" operator="out"/>
<feColorMatrix type="matrix" values="0 0 0 0 0 0 0 0 0 0 0 0 0 0 0 0 0 0 0.25 0"/>
<feBlend mode="normal" in2="BackgroundImageFix" result="effect1_dropShadow_771_2611"/>
<feBlend mode="normal" in="SourceGraphic" in2="effect1_dropShadow_771_2611" result="shape"/>
</filter>
</defs>
</svg>
