<svg width="66" height="91" viewBox="0 0 66 91" fill="none" xmlns="http://www.w3.org/2000/svg">
<g filter="url(#filter0_d_68_645)">
<path d="M32.9767 1C17.5212 1 5 13.8376 5 29.3454C5 44.8443 24.6234 81.2 32.9767 81.2C41.3301 81.2 60.9535 44.8443 60.9535 29.3454C60.9535 13.8376 48.4234 1 32.9767 1Z" fill="#FF0000"/>
<path d="M32.9767 1C17.5212 1 5 13.8376 5 29.3454C5 44.8443 24.6234 81.2 32.9767 81.2C41.3301 81.2 60.9535 44.8443 60.9535 29.3454C60.9535 13.8376 48.4234 1 32.9767 1Z" stroke="white" stroke-width="2"/>
</g>
<path d="M10 29C10 41.7025 20.2975 52 33 52C45.7025 52 56 41.7025 56 29C56 16.2975 45.7025 6 33 6C20.2975 6 10 16.2975 10 29Z" fill="white"/>
<path d="M23.0689 38.3599C19.7665 38.3599 17.0801 35.6735 17.0801 32.3711C17.0801 29.0687 19.7665 26.3823 23.0689 26.3823C26.3713 26.3823 29.0577 29.0687 29.0577 32.3711C29.0577 35.6735 26.3713 38.3599 23.0689 38.3599ZM23.0689 27.8223C20.5601 27.8223 18.5201 29.8623 18.5201 32.3711C18.5201 34.8799 20.5601 36.9199 23.0689 36.9199C25.5777 36.9199 27.6177 34.8799 27.6177 32.3711C27.6177 29.8623 25.5777 27.8223 23.0689 27.8223Z" fill="#FF0000"/>
<path d="M42.7713 38.3599C39.4689 38.3599 36.7825 35.6735 36.7825 32.3711C36.7825 29.0687 39.4689 26.3823 42.7713 26.3823C46.0737 26.3823 48.7601 29.0687 48.7601 32.3711C48.7601 35.6735 46.0737 38.3599 42.7713 38.3599ZM42.7713 27.8223C40.2625 27.8223 38.2225 29.8623 38.2225 32.3711C38.2225 34.8799 40.2625 36.9199 42.7713 36.9199C45.2801 36.9199 47.3201 34.8799 47.3201 32.3711C47.3201 29.8623 45.2801 27.8223 42.7713 27.8223Z" fill="#FF0000"/>
<path d="M23.1601 33.36C23.0497 33.36 22.9377 33.3344 22.8321 33.28C22.4785 33.0976 22.3393 32.664 22.5201 32.3104L29.0161 19.6704C29.1393 19.4304 29.3873 19.28 29.6561 19.28H33.9201C34.3185 19.28 34.6401 19.6016 34.6401 20C34.6401 20.3984 34.3185 20.72 33.9201 20.72H30.0961L23.8017 32.968C23.6737 33.216 23.4225 33.3584 23.1601 33.3584V33.36Z" fill="#FF0000"/>
<path d="M32.7841 32.7199C32.6369 32.7199 32.4913 32.6527 32.3969 32.5247L26.9537 25.1455C26.7969 24.9327 26.8417 24.6319 27.0545 24.4751C27.2673 24.3183 27.5681 24.3631 27.7249 24.5759L33.1681 31.9551C33.3249 32.1679 33.2801 32.4687 33.0673 32.6255C32.9809 32.6895 32.8817 32.7199 32.7825 32.7199H32.7841Z" fill="#FF0000"/>
<path d="M41.5601 32.7601H41.5585L32.7825 32.7201C32.6177 32.7201 32.4641 32.6337 32.3761 32.4929C32.2897 32.3521 32.2801 32.1777 32.3521 32.0289L35.4337 25.7361L28.2929 25.3329C28.0289 25.3185 27.8257 25.0913 27.8401 24.8273C27.8545 24.5633 28.0817 24.3601 28.3457 24.3745L36.2049 24.8193C36.2129 24.8193 36.2209 24.8193 36.2289 24.8209C36.2433 24.8209 36.2577 24.8241 36.2705 24.8273C36.3761 24.8481 36.4737 24.9025 36.5473 24.9905C36.5521 24.9969 36.5569 25.0017 36.5617 25.0081L41.9377 31.9889C42.0497 32.1345 42.0689 32.3297 41.9873 32.4945C41.9057 32.6577 41.7393 32.7617 41.5569 32.7617L41.5601 32.7601ZM33.5521 31.7633L40.5809 31.7953L36.2737 26.2017L33.5505 31.7633H33.5521Z" fill="#FF0000"/>
<defs>
<filter id="filter0_d_68_645" x="0" y="0" width="65.9536" height="90.2" filterUnits="userSpaceOnUse" color-interpolation-filters="sRGB">
<feFlood flood-opacity="0" result="BackgroundImageFix"/>
<feColorMatrix in="SourceAlpha" type="matrix" values="0 0 0 0 0 0 0 0 0 0 0 0 0 0 0 0 0 0 127 0" result="hardAlpha"/>
<feOffset dy="4"/>
<feGaussianBlur stdDeviation="2"/>
<feComposite in2="hardAlpha" operator="out"/>
<feColorMatrix type="matrix" values="0 0 0 0 0 0 0 0 0 0 0 0 0 0 0 0 0 0 0.25 0"/>
<feBlend mode="normal" in2="BackgroundImageFix" result="effect1_dropShadow_68_645"/>
<feBlend mode="normal" in="SourceGraphic" in2="effect1_dropShadow_68_645" result="shape"/>
</filter>
</defs>
</svg>
