<svg width="75" height="90" viewBox="0 0 75 90" fill="none" xmlns="http://www.w3.org/2000/svg">
<g filter="url(#filter0_d_463_1885)">
<path d="M37.0463 74.3235L18.8971 52.7206L56.1029 52.7206L37.0463 74.3235Z" fill="#008FDF"/>
<path d="M65 32.5C65 47.6878 52.6878 60 37.5 60C22.3122 60 10 47.6878 10 32.5C10 17.3122 22.3122 5 37.5 5C52.6878 5 65 17.3122 65 32.5Z" fill="white"/>
<path d="M37.0463 74.3235L18.8971 52.7206L56.1029 52.7206L37.0463 74.3235Z" stroke="white" stroke-width="4" stroke-linejoin="round"/>
<path d="M65 32.5C65 47.6878 52.6878 60 37.5 60C22.3122 60 10 47.6878 10 32.5C10 17.3122 22.3122 5 37.5 5C52.6878 5 65 17.3122 65 32.5Z" stroke="white" stroke-width="4" stroke-linejoin="round"/>
</g>
<path d="M37.0464 74.3235L18.8971 52.7205L56.103 52.7205L37.0464 74.3235Z" fill="#FF0000"/>
<path d="M61.9091 32.5C61.9091 45.9808 50.9808 56.9091 37.5 56.9091C24.0192 56.9091 13.0909 45.9808 13.0909 32.5C13.0909 19.0192 24.0192 8.09091 37.5 8.09091C50.9808 8.09091 61.9091 19.0192 61.9091 32.5Z" fill="#FF0000" stroke="#FF0000" stroke-width="6.18182"/>
<ellipse cx="37.853" cy="33" rx="23" ry="23" fill="white"/>
<path d="M28.0689 42.3599C24.7665 42.3599 22.0801 39.6735 22.0801 36.3711C22.0801 33.0687 24.7665 30.3823 28.0689 30.3823C31.3713 30.3823 34.0577 33.0687 34.0577 36.3711C34.0577 39.6735 31.3713 42.3599 28.0689 42.3599ZM28.0689 31.8223C25.5601 31.8223 23.5201 33.8623 23.5201 36.3711C23.5201 38.8799 25.5601 40.9199 28.0689 40.9199C30.5777 40.9199 32.6177 38.8799 32.6177 36.3711C32.6177 33.8623 30.5777 31.8223 28.0689 31.8223Z" fill="#FF0000"/>
<path d="M47.771 42.3599C44.4686 42.3599 41.7822 39.6735 41.7822 36.3711C41.7822 33.0687 44.4686 30.3823 47.771 30.3823C51.0734 30.3823 53.7598 33.0687 53.7598 36.3711C53.7598 39.6735 51.0734 42.3599 47.771 42.3599ZM47.771 31.8223C45.2622 31.8223 43.2222 33.8623 43.2222 36.3711C43.2222 38.8799 45.2622 40.9199 47.771 40.9199C50.2798 40.9199 52.3198 38.8799 52.3198 36.3711C52.3198 33.8623 50.2798 31.8223 47.771 31.8223Z" fill="#FF0000"/>
<path d="M28.1601 37.36C28.0497 37.36 27.9377 37.3344 27.8321 37.28C27.4785 37.0976 27.3393 36.664 27.5201 36.3104L34.0161 23.6704C34.1393 23.4304 34.3873 23.28 34.6561 23.28H38.9201C39.3185 23.28 39.6401 23.6016 39.6401 24C39.6401 24.3984 39.3185 24.72 38.9201 24.72H35.0961L28.8017 36.968C28.6737 37.216 28.4225 37.3584 28.1601 37.3584V37.36Z" fill="#FF0000"/>
<path d="M37.7838 36.7199C37.6366 36.7199 37.491 36.6527 37.3966 36.5247L31.9534 29.1455C31.7966 28.9327 31.8414 28.6319 32.0542 28.4751C32.267 28.3183 32.5678 28.3631 32.7246 28.5759L38.1678 35.9551C38.3246 36.1679 38.2798 36.4687 38.067 36.6255C37.9806 36.6895 37.8814 36.7199 37.7822 36.7199H37.7838Z" fill="#FF0000"/>
<path d="M46.5601 36.7601H46.5585L37.7825 36.7201C37.6177 36.7201 37.4641 36.6337 37.3761 36.4929C37.2897 36.3521 37.2801 36.1777 37.3521 36.0289L40.4337 29.7361L33.2929 29.3329C33.0289 29.3185 32.8257 29.0913 32.8401 28.8273C32.8545 28.5633 33.0817 28.3601 33.3457 28.3745L41.2049 28.8193C41.2129 28.8193 41.2209 28.8193 41.2289 28.8209C41.2433 28.8209 41.2577 28.8241 41.2705 28.8273C41.3761 28.8481 41.4737 28.9025 41.5473 28.9905C41.5521 28.9969 41.5569 29.0017 41.5617 29.0081L46.9377 35.9889C47.0497 36.1345 47.0689 36.3297 46.9873 36.4945C46.9057 36.6577 46.7393 36.7617 46.5569 36.7617L46.5601 36.7601ZM38.5521 35.7633L45.5809 35.7953L41.2737 30.2017L38.5505 35.7633H38.5521Z" fill="#FF0000"/>
<defs>
<filter id="filter0_d_463_1885" x="0" y="0" width="75" height="89.3235" filterUnits="userSpaceOnUse" color-interpolation-filters="sRGB">
<feFlood flood-opacity="0" result="BackgroundImageFix"/>
<feColorMatrix in="SourceAlpha" type="matrix" values="0 0 0 0 0 0 0 0 0 0 0 0 0 0 0 0 0 0 127 0" result="hardAlpha"/>
<feOffset dy="5"/>
<feGaussianBlur stdDeviation="4"/>
<feComposite in2="hardAlpha" operator="out"/>
<feColorMatrix type="matrix" values="0 0 0 0 0 0 0 0 0 0 0 0 0 0 0 0 0 0 0.25 0"/>
<feBlend mode="normal" in2="BackgroundImageFix" result="effect1_dropShadow_463_1885"/>
<feBlend mode="normal" in="SourceGraphic" in2="effect1_dropShadow_463_1885" result="shape"/>
</filter>
</defs>
</svg>
