<svg width="66" height="91" viewBox="0 0 66 91" fill="none" xmlns="http://www.w3.org/2000/svg">
<g filter="url(#filter0_d_21_686)">
<path d="M33.0302 1.30005C17.5747 1.30005 5.05347 14.1377 5.05347 29.6454C5.05347 45.1443 24.6768 81.5 33.0302 81.5C41.3836 81.5 61.007 45.1443 61.007 29.6454C61.007 14.1377 48.4769 1.30005 33.0302 1.30005Z" fill="#00A560"/>
<path d="M33.0302 1.30005C17.5747 1.30005 5.05347 14.1377 5.05347 29.6454C5.05347 45.1443 24.6768 81.5 33.0302 81.5C41.3836 81.5 61.007 45.1443 61.007 29.6454C61.007 14.1377 48.4769 1.30005 33.0302 1.30005Z" stroke="white" stroke-width="2"/>
</g>
<path d="M10.0535 29.3C10.0535 42.0026 20.3509 52.3 33.0535 52.3C45.756 52.3 56.0535 42.0026 56.0535 29.3C56.0535 16.5975 45.756 6.30005 33.0535 6.30005C20.3509 6.30005 10.0535 16.5975 10.0535 29.3Z" fill="white"/>
<g clip-path="url(#clip0_21_686)">
<path d="M23.1223 38.6601C19.8199 38.6601 17.1335 35.9737 17.1335 32.6713C17.1335 29.3689 19.8199 26.6825 23.1223 26.6825C26.4247 26.6825 29.1111 29.3689 29.1111 32.6713C29.1111 35.9737 26.4247 38.6601 23.1223 38.6601ZM23.1223 28.1225C20.6135 28.1225 18.5735 30.1625 18.5735 32.6713C18.5735 35.1801 20.6135 37.2201 23.1223 37.2201C25.6311 37.2201 27.6711 35.1801 27.6711 32.6713C27.6711 30.1625 25.6311 28.1225 23.1223 28.1225Z" fill="#00A560"/>
<path d="M42.8247 38.6601C39.5223 38.6601 36.8359 35.9737 36.8359 32.6713C36.8359 29.3689 39.5223 26.6825 42.8247 26.6825C46.1271 26.6825 48.8135 29.3689 48.8135 32.6713C48.8135 35.9737 46.1271 38.6601 42.8247 38.6601ZM42.8247 28.1225C40.3159 28.1225 38.2759 30.1625 38.2759 32.6713C38.2759 35.1801 40.3159 37.2201 42.8247 37.2201C45.3335 37.2201 47.3735 35.1801 47.3735 32.6713C47.3735 30.1625 45.3335 28.1225 42.8247 28.1225Z" fill="#00A560"/>
<path d="M23.2134 33.6601C23.103 33.6601 22.991 33.6345 22.8854 33.5801C22.5318 33.3977 22.3926 32.9641 22.5734 32.6105L29.0694 19.9705C29.1926 19.7305 29.4406 19.5801 29.7094 19.5801H33.9734C34.3718 19.5801 34.6934 19.9017 34.6934 20.3001C34.6934 20.6985 34.3718 21.0201 33.9734 21.0201H30.1494L23.855 33.2681C23.727 33.5161 23.4758 33.6585 23.2134 33.6585V33.6601Z" fill="#00A560"/>
<path d="M32.8375 33.0201C32.6903 33.0201 32.5447 32.9529 32.4503 32.8249L27.0071 25.4457C26.8503 25.2329 26.8951 24.9321 27.1079 24.7753C27.3207 24.6185 27.6215 24.6633 27.7783 24.8761L33.2215 32.2553C33.3783 32.4681 33.3335 32.7689 33.1207 32.9257C33.0343 32.9897 32.9351 33.0201 32.8359 33.0201H32.8375Z" fill="#00A560"/>
<path d="M41.6135 33.06H41.6119L32.8359 33.02C32.6711 33.02 32.5175 32.9336 32.4295 32.7928C32.3431 32.652 32.3335 32.4776 32.4055 32.3288L35.4871 26.036L28.3463 25.6328C28.0823 25.6184 27.8791 25.3912 27.8935 25.1272C27.9079 24.8632 28.1351 24.66 28.3991 24.6744L36.2583 25.1192C36.2663 25.1192 36.2743 25.1192 36.2823 25.1208C36.2967 25.1208 36.3111 25.124 36.3239 25.1272C36.4295 25.148 36.5271 25.2024 36.6007 25.2904C36.6055 25.2968 36.6103 25.3016 36.6151 25.308L41.9911 32.2888C42.1031 32.4344 42.1223 32.6296 42.0407 32.7944C41.9591 32.9576 41.7927 33.0616 41.6103 33.0616L41.6135 33.06ZM33.6055 32.0632L40.6343 32.0952L36.3271 26.5016L33.6039 32.0632H33.6055Z" fill="#00A560"/>
</g>
<defs>
<filter id="filter0_d_21_686" x="0.0534668" y="0.300049" width="65.9535" height="90.2" filterUnits="userSpaceOnUse" color-interpolation-filters="sRGB">
<feFlood flood-opacity="0" result="BackgroundImageFix"/>
<feColorMatrix in="SourceAlpha" type="matrix" values="0 0 0 0 0 0 0 0 0 0 0 0 0 0 0 0 0 0 127 0" result="hardAlpha"/>
<feOffset dy="4"/>
<feGaussianBlur stdDeviation="2"/>
<feComposite in2="hardAlpha" operator="out"/>
<feColorMatrix type="matrix" values="0 0 0 0 0 0 0 0 0 0 0 0 0 0 0 0 0 0 0.25 0"/>
<feBlend mode="normal" in2="BackgroundImageFix" result="effect1_dropShadow_21_686"/>
<feBlend mode="normal" in="SourceGraphic" in2="effect1_dropShadow_21_686" result="shape"/>
</filter>
<clipPath id="clip0_21_686">
<rect width="32" height="32" fill="white" transform="translate(17.0535 13.3)"/>
</clipPath>
</defs>
</svg>
