<svg width="75" height="90" viewBox="0 0 75 90" fill="none" xmlns="http://www.w3.org/2000/svg">
<g filter="url(#filter0_d_875_3043)">
<path d="M37.0463 74.3235L18.8971 52.7206L56.1029 52.7206L37.0463 74.3235Z" fill="#008FDF"/>
<path d="M65 32.5C65 47.6878 52.6878 60 37.5 60C22.3122 60 10 47.6878 10 32.5C10 17.3122 22.3122 5 37.5 5C52.6878 5 65 17.3122 65 32.5Z" fill="white"/>
<path d="M37.0463 74.3235L18.8971 52.7206L56.1029 52.7206L37.0463 74.3235Z" stroke="white" stroke-width="4" stroke-linejoin="round"/>
<path d="M65 32.5C65 47.6878 52.6878 60 37.5 60C22.3122 60 10 47.6878 10 32.5C10 17.3122 22.3122 5 37.5 5C52.6878 5 65 17.3122 65 32.5Z" stroke="white" stroke-width="4" stroke-linejoin="round"/>
</g>
<path d="M37.0464 74.3237L18.8971 52.7208L56.103 52.7208L37.0464 74.3237Z" fill="#008FDF"/>
<path d="M37.5 8.09082C50.9808 8.09082 61.9092 19.0192 61.9092 32.5C61.9092 45.9808 50.9808 56.9092 37.5 56.9092C24.0192 56.9092 13.0908 45.9808 13.0908 32.5C13.0908 19.0192 24.0192 8.09082 37.5 8.09082Z" fill="#008FDF" stroke="#008FDF" stroke-width="6.18182"/>
<ellipse cx="37.853" cy="33" rx="23" ry="23" fill="white"/>
<path d="M47.674 36.8819C47.574 36.8359 47.464 36.8119 47.354 36.8119H42.242C42.132 36.8119 42.022 36.8359 41.922 36.8819C40.738 37.4339 39.736 38.7339 39.1 40.5419C38.288 42.8459 38.282 45.3099 39.084 46.8199C39.208 47.0519 39.458 47.1999 39.732 47.1999H49.866C50.14 47.1999 50.39 47.0539 50.514 46.8199C51.316 45.3099 51.31 42.8459 50.498 40.5419C49.86 38.7339 48.858 37.4339 47.676 36.8819H47.674ZM44.798 35.8599C46.552 35.8599 47.976 34.5059 47.976 32.8339C47.976 31.1619 46.554 29.8079 44.798 29.8079C43.042 29.8079 41.62 31.1619 41.62 32.8339C41.62 34.5059 43.042 35.8599 44.798 35.8599ZM52.166 21.8999H23.834C23.108 21.8999 22.52 22.4879 22.52 23.2139V39.4419C22.52 40.1679 23.108 40.7559 23.834 40.7559H35.902C36.004 40.3499 36.126 39.9459 36.268 39.5459C36.916 37.7059 37.898 36.2079 39.104 35.1739C38.792 34.4539 38.62 33.6639 38.62 32.8339C38.62 29.5099 41.392 26.8059 44.8 26.8059C48.208 26.8059 50.98 29.5099 50.98 32.8339C50.98 33.6639 50.808 34.4539 50.496 35.1739C51.702 36.2079 52.684 37.7059 53.332 39.5459C53.366 39.6399 53.394 39.7339 53.424 39.8279C53.462 39.7059 53.482 39.5759 53.482 39.4419V23.2139C53.482 22.4879 52.894 21.8999 52.168 21.8999H52.166Z" fill="#008FDF"/>
<defs>
<filter id="filter0_d_875_3043" x="0" y="0" width="75" height="89.3237" filterUnits="userSpaceOnUse" color-interpolation-filters="sRGB">
<feFlood flood-opacity="0" result="BackgroundImageFix"/>
<feColorMatrix in="SourceAlpha" type="matrix" values="0 0 0 0 0 0 0 0 0 0 0 0 0 0 0 0 0 0 127 0" result="hardAlpha"/>
<feOffset dy="5"/>
<feGaussianBlur stdDeviation="4"/>
<feComposite in2="hardAlpha" operator="out"/>
<feColorMatrix type="matrix" values="0 0 0 0 0 0 0 0 0 0 0 0 0 0 0 0 0 0 0.25 0"/>
<feBlend mode="normal" in2="BackgroundImageFix" result="effect1_dropShadow_875_3043"/>
<feBlend mode="normal" in="SourceGraphic" in2="effect1_dropShadow_875_3043" result="shape"/>
</filter>
</defs>
</svg>
