<svg width="75" height="90" viewBox="0 0 75 90" fill="none" xmlns="http://www.w3.org/2000/svg">
<g filter="url(#filter0_d_463_1903)">
<path d="M37.0463 74.3235L18.8971 52.7206L56.1029 52.7206L37.0463 74.3235Z" fill="#008FDF"/>
<path d="M65 32.5C65 47.6878 52.6878 60 37.5 60C22.3122 60 10 47.6878 10 32.5C10 17.3122 22.3122 5 37.5 5C52.6878 5 65 17.3122 65 32.5Z" fill="white"/>
<path d="M37.0463 74.3235L18.8971 52.7206L56.1029 52.7206L37.0463 74.3235Z" stroke="white" stroke-width="4" stroke-linejoin="round"/>
<path d="M65 32.5C65 47.6878 52.6878 60 37.5 60C22.3122 60 10 47.6878 10 32.5C10 17.3122 22.3122 5 37.5 5C52.6878 5 65 17.3122 65 32.5Z" stroke="white" stroke-width="4" stroke-linejoin="round"/>
</g>
<path d="M37.0464 74.3235L18.8971 52.7205L56.103 52.7205L37.0464 74.3235Z" fill="#C79100"/>
<path d="M61.9091 32.5C61.9091 45.9808 50.9808 56.9091 37.5 56.9091C24.0192 56.9091 13.0909 45.9808 13.0909 32.5C13.0909 19.0192 24.0192 8.09091 37.5 8.09091C50.9808 8.09091 61.9091 19.0192 61.9091 32.5Z" fill="#C79100" stroke="#C79100" stroke-width="6.18182"/>
<ellipse cx="37.853" cy="33" rx="23" ry="23" fill="white"/>
<path d="M41.4273 33.5791H32.6497V35.4415H41.4273V33.5791ZM32.6497 40.7359H43.8833V38.8735H32.6497V40.7359ZM32.6497 30.1455H43.8833V28.2831H32.6497V30.1455ZM46.3393 19.2575H41.7889C41.4657 18.7071 40.8705 18.3359 40.1873 18.3359H35.8113C35.1281 18.3359 34.5329 18.7071 34.2097 19.2575H29.6593C27.9057 19.2575 26.4785 20.6847 26.4785 22.4383V44.8527C26.4785 46.6063 27.9057 48.0335 29.6593 48.0335H46.3377C48.0913 48.0335 49.5185 46.6063 49.5185 44.8527V22.4367C49.5185 20.6831 48.0913 19.2559 46.3377 19.2559L46.3393 19.2575ZM35.0721 21.1183H40.9281V21.4991C40.9281 21.9071 40.5953 22.2383 40.1873 22.2383H35.8113C35.4033 22.2383 35.0705 21.9071 35.0705 21.4991V21.1183H35.0721ZM47.6577 44.8511C47.6577 45.5775 47.0657 46.1695 46.3393 46.1695H29.6609C28.9345 46.1695 28.3425 45.5775 28.3425 44.8511V22.4367C28.3425 21.7103 28.9345 21.1183 29.6609 21.1183H33.9553V21.4991C33.9553 22.5231 34.7889 23.3567 35.8129 23.3567H40.1889C41.2129 23.3567 42.0465 22.5231 42.0465 21.4991V21.1183H46.3409C47.0673 21.1183 47.6593 21.7103 47.6593 22.4367V44.8511H47.6577Z" fill="#C79100"/>
<defs>
<filter id="filter0_d_463_1903" x="0" y="0" width="75" height="89.3235" filterUnits="userSpaceOnUse" color-interpolation-filters="sRGB">
<feFlood flood-opacity="0" result="BackgroundImageFix"/>
<feColorMatrix in="SourceAlpha" type="matrix" values="0 0 0 0 0 0 0 0 0 0 0 0 0 0 0 0 0 0 127 0" result="hardAlpha"/>
<feOffset dy="5"/>
<feGaussianBlur stdDeviation="4"/>
<feComposite in2="hardAlpha" operator="out"/>
<feColorMatrix type="matrix" values="0 0 0 0 0 0 0 0 0 0 0 0 0 0 0 0 0 0 0.25 0"/>
<feBlend mode="normal" in2="BackgroundImageFix" result="effect1_dropShadow_463_1903"/>
<feBlend mode="normal" in="SourceGraphic" in2="effect1_dropShadow_463_1903" result="shape"/>
</filter>
</defs>
</svg>
