<svg width="75" height="90" viewBox="0 0 75 90" fill="none" xmlns="http://www.w3.org/2000/svg">
<g filter="url(#filter0_d_420_1780)">
<path d="M37.0463 74.3235L18.8971 52.7206L56.1029 52.7206L37.0463 74.3235Z" fill="#008FDF"/>
<path d="M65 32.5C65 47.6878 52.6878 60 37.5 60C22.3122 60 10 47.6878 10 32.5C10 17.3122 22.3122 5 37.5 5C52.6878 5 65 17.3122 65 32.5Z" fill="white"/>
<path d="M37.0463 74.3235L18.8971 52.7206L56.1029 52.7206L37.0463 74.3235Z" stroke="white" stroke-width="4" stroke-linejoin="round"/>
<path d="M65 32.5C65 47.6878 52.6878 60 37.5 60C22.3122 60 10 47.6878 10 32.5C10 17.3122 22.3122 5 37.5 5C52.6878 5 65 17.3122 65 32.5Z" stroke="white" stroke-width="4" stroke-linejoin="round"/>
</g>
<path d="M37.0464 74.3235L18.8971 52.7205L56.103 52.7205L37.0464 74.3235Z" fill="#EF2F20"/>
<path d="M61.9091 32.5C61.9091 45.9808 50.9808 56.9091 37.5 56.9091C24.0192 56.9091 13.0909 45.9808 13.0909 32.5C13.0909 19.0192 24.0192 8.09091 37.5 8.09091C50.9808 8.09091 61.9091 19.0192 61.9091 32.5Z" fill="#EF2F20" stroke="#EF2F20" stroke-width="6.18182"/>
<ellipse cx="37.853" cy="33" rx="23" ry="23" fill="white"/>
<path d="M46.6863 18.0288C46.7615 18.9632 46.3583 19.9776 45.3647 20.1936L30.8527 20.2064C29.6847 20.0944 29.1935 19.1168 29.3151 18.0288H22.1135V20.7152C22.1135 23.0064 25.1647 26.6016 27.5423 26.6016H34.4559V28.6016L34.6271 28.7728H41.4271C41.3903 28.6608 41.5407 28.5248 41.5407 28.4864V26.6H48.4543C50.8911 26.6 53.8831 22.9344 53.8831 20.6V18.0288H46.6831H46.6863Z" fill="#EF2F20"/>
<path d="M45.3647 29.792L30.8527 29.8048C29.6847 29.6928 29.1935 28.7152 29.3151 27.6272H22.1135V30.3136C22.1135 32.6048 25.1647 36.2 27.5423 36.2H34.4559V38.2L34.6271 38.3712H41.4271C41.3903 38.2592 41.5407 38.1232 41.5407 38.0848V36.1984H48.4543C50.8911 36.1984 53.8831 32.5328 53.8831 30.1984V27.6272H46.6831C46.7583 28.5616 46.3551 29.576 45.3615 29.792H45.3647Z" fill="#EF2F20"/>
<path d="M45.3647 39.3921L30.8527 39.4049C29.6847 39.2929 29.1935 38.3153 29.3151 37.2273H22.1135V39.9137C22.1135 42.2049 25.1647 45.8001 27.5423 45.8001H34.4559V47.8001L34.6271 47.9713H41.4271C41.3903 47.8593 41.5407 47.7233 41.5407 47.6849V45.7985H48.4543C50.8911 45.7985 53.8831 42.1329 53.8831 39.7985V37.2273H46.6831C46.7583 38.1617 46.3551 39.1761 45.3615 39.3921H45.3647Z" fill="#EF2F20"/>
<defs>
<filter id="filter0_d_420_1780" x="0" y="0" width="75" height="89.3235" filterUnits="userSpaceOnUse" color-interpolation-filters="sRGB">
<feFlood flood-opacity="0" result="BackgroundImageFix"/>
<feColorMatrix in="SourceAlpha" type="matrix" values="0 0 0 0 0 0 0 0 0 0 0 0 0 0 0 0 0 0 127 0" result="hardAlpha"/>
<feOffset dy="5"/>
<feGaussianBlur stdDeviation="4"/>
<feComposite in2="hardAlpha" operator="out"/>
<feColorMatrix type="matrix" values="0 0 0 0 0 0 0 0 0 0 0 0 0 0 0 0 0 0 0.25 0"/>
<feBlend mode="normal" in2="BackgroundImageFix" result="effect1_dropShadow_420_1780"/>
<feBlend mode="normal" in="SourceGraphic" in2="effect1_dropShadow_420_1780" result="shape"/>
</filter>
</defs>
</svg>
