<svg width="75" height="90" viewBox="0 0 75 90" fill="none" xmlns="http://www.w3.org/2000/svg">
<g filter="url(#filter0_d_463_1790)">
<path d="M37.0463 74.3235L18.8971 52.7206L56.1029 52.7206L37.0463 74.3235Z" fill="#008FDF"/>
<path d="M65 32.5C65 47.6878 52.6878 60 37.5 60C22.3122 60 10 47.6878 10 32.5C10 17.3122 22.3122 5 37.5 5C52.6878 5 65 17.3122 65 32.5Z" fill="white"/>
<path d="M37.0463 74.3235L18.8971 52.7206L56.1029 52.7206L37.0463 74.3235Z" stroke="white" stroke-width="4" stroke-linejoin="round"/>
<path d="M65 32.5C65 47.6878 52.6878 60 37.5 60C22.3122 60 10 47.6878 10 32.5C10 17.3122 22.3122 5 37.5 5C52.6878 5 65 17.3122 65 32.5Z" stroke="white" stroke-width="4" stroke-linejoin="round"/>
</g>
<path d="M37.0464 74.3235L18.8971 52.7205L56.103 52.7205L37.0464 74.3235Z" fill="#FF8EA3"/>
<path d="M61.9091 32.5C61.9091 45.9808 50.9808 56.9091 37.5 56.9091C24.0192 56.9091 13.0909 45.9808 13.0909 32.5C13.0909 19.0192 24.0192 8.09091 37.5 8.09091C50.9808 8.09091 61.9091 19.0192 61.9091 32.5Z" fill="#FF8EA3" stroke="#FF8EA3" stroke-width="6.18182"/>
<ellipse cx="37.853" cy="33" rx="23" ry="23" fill="white"/>
<path d="M32.0499 37.8978C30.7842 37.8978 29.7543 38.9276 29.7543 40.1933C29.7543 41.459 30.7842 42.4889 32.0499 42.4889C33.3156 42.4889 34.3454 41.459 34.3454 40.1933C34.3454 38.9276 33.3156 37.8978 32.0499 37.8978ZM51.4788 23.5112H24.5232C23.1303 23.5112 22 24.6416 22 26.0345V39.7174H28.7676C28.9994 38.1111 30.38 36.8721 32.0499 36.8721C33.7197 36.8721 35.1003 38.1111 35.3321 39.7174H42.1674C42.3993 38.1111 43.7799 36.8721 45.4497 36.8721C47.1196 36.8721 48.5002 38.1111 48.732 39.7174H54V26.0345C54 24.6416 52.8697 23.5112 51.4768 23.5112H51.4788ZM28.1542 36.0249H24.6668V26.9986H28.1542V36.0249ZM34.9239 31.1015H31.4365V26.9986H34.9239V31.1015ZM40.2576 31.1015H36.7702V26.9986H40.2576V31.1015ZM45.5913 31.1015H42.1039V26.9986H45.5913V31.1015ZM50.9249 31.1015H47.4375V26.9986H50.9249V31.1015ZM45.4497 37.8978C44.184 37.8978 43.1542 38.9276 43.1542 40.1933C43.1542 41.459 44.184 42.4889 45.4497 42.4889C46.7154 42.4889 47.7452 41.459 47.7452 40.1933C47.7452 38.9276 46.7154 37.8978 45.4497 37.8978Z" fill="#FF8EA3"/>
<defs>
<filter id="filter0_d_463_1790" x="0" y="0" width="75" height="89.3235" filterUnits="userSpaceOnUse" color-interpolation-filters="sRGB">
<feFlood flood-opacity="0" result="BackgroundImageFix"/>
<feColorMatrix in="SourceAlpha" type="matrix" values="0 0 0 0 0 0 0 0 0 0 0 0 0 0 0 0 0 0 127 0" result="hardAlpha"/>
<feOffset dy="5"/>
<feGaussianBlur stdDeviation="4"/>
<feComposite in2="hardAlpha" operator="out"/>
<feColorMatrix type="matrix" values="0 0 0 0 0 0 0 0 0 0 0 0 0 0 0 0 0 0 0.25 0"/>
<feBlend mode="normal" in2="BackgroundImageFix" result="effect1_dropShadow_463_1790"/>
<feBlend mode="normal" in="SourceGraphic" in2="effect1_dropShadow_463_1790" result="shape"/>
</filter>
</defs>
</svg>
