<svg width="75" height="90" viewBox="0 0 75 90" fill="none" xmlns="http://www.w3.org/2000/svg">
<g filter="url(#filter0_d_418_1635)">
<path d="M37.0463 74.3235L18.8971 52.7206L56.1029 52.7206L37.0463 74.3235Z" fill="#008FDF"/>
<path d="M65 32.5C65 47.6878 52.6878 60 37.5 60C22.3122 60 10 47.6878 10 32.5C10 17.3122 22.3122 5 37.5 5C52.6878 5 65 17.3122 65 32.5Z" fill="white"/>
<path d="M37.0463 74.3235L18.8971 52.7206L56.1029 52.7206L37.0463 74.3235Z" stroke="white" stroke-width="4" stroke-linejoin="round"/>
<path d="M65 32.5C65 47.6878 52.6878 60 37.5 60C22.3122 60 10 47.6878 10 32.5C10 17.3122 22.3122 5 37.5 5C52.6878 5 65 17.3122 65 32.5Z" stroke="white" stroke-width="4" stroke-linejoin="round"/>
</g>
<path d="M37.0464 74.3235L18.8971 52.7205L56.103 52.7205L37.0464 74.3235Z" fill="#FF8EA3"/>
<path d="M61.9091 32.5C61.9091 45.9808 50.9808 56.9091 37.5 56.9091C24.0192 56.9091 13.0909 45.9808 13.0909 32.5C13.0909 19.0192 24.0192 8.09091 37.5 8.09091C50.9808 8.09091 61.9091 19.0192 61.9091 32.5Z" fill="#FF8EA3" stroke="#FF8EA3" stroke-width="6.18182"/>
<ellipse cx="37.853" cy="33" rx="23" ry="23" fill="white"/>
<path d="M49.7869 30.268L47.9804 25H35.4497L29.3556 30.2261H29.1961L23 32.1608V35.149L23.7739 36.9033H27.4549C27.7346 38.8013 29.3712 40.2654 31.3451 40.2654C33.319 40.2654 34.9556 38.8013 35.2353 36.9033H42.0405C42.1634 37.7373 42.5425 38.5059 43.1464 39.1124C43.8915 39.8549 44.8797 40.2654 45.9307 40.2654C47.9072 40.2654 49.5412 38.8013 49.8209 36.9033H52.2261L53 35.2118V32.1608L49.7791 30.2654L49.7869 30.268ZM31.3477 38.3673C30.2235 38.3673 29.3111 37.4549 29.3111 36.3307C29.3111 35.2065 30.2235 34.2941 31.3477 34.2941C32.4719 34.2941 33.3843 35.2065 33.3843 36.3307C33.3843 37.4549 32.4719 38.3673 31.3477 38.3673ZM39.8444 29.8392C39.8444 30.1582 39.583 30.4196 39.2641 30.4196H35.0052C34.6863 30.4196 34.5791 30.2078 34.7673 29.9516L36.4954 27.5961C36.6837 27.3399 37.0993 27.1281 37.4209 27.1281H39.2641C39.583 27.1281 39.8444 27.3895 39.8444 27.7085V29.8392ZM41.9752 30.4196C41.6562 30.4196 41.3948 30.1582 41.3948 29.8392V27.7085C41.3948 27.3895 41.6562 27.1281 41.9752 27.1281H44.4902C44.8092 27.1281 45.1307 27.3817 45.2039 27.6928L45.7137 29.8523C45.7869 30.1634 45.5856 30.417 45.2667 30.417H41.9752V30.4196ZM45.9386 38.3673C44.8144 38.3673 43.902 37.4549 43.902 36.3307C43.902 35.2065 44.8144 34.2941 45.9386 34.2941C47.0627 34.2941 47.9752 35.2065 47.9752 36.3307C47.9752 37.4549 47.0627 38.3673 45.9386 38.3673Z" fill="#FF8EA3"/>
<defs>
<filter id="filter0_d_418_1635" x="0" y="0" width="75" height="89.3235" filterUnits="userSpaceOnUse" color-interpolation-filters="sRGB">
<feFlood flood-opacity="0" result="BackgroundImageFix"/>
<feColorMatrix in="SourceAlpha" type="matrix" values="0 0 0 0 0 0 0 0 0 0 0 0 0 0 0 0 0 0 127 0" result="hardAlpha"/>
<feOffset dy="5"/>
<feGaussianBlur stdDeviation="4"/>
<feComposite in2="hardAlpha" operator="out"/>
<feColorMatrix type="matrix" values="0 0 0 0 0 0 0 0 0 0 0 0 0 0 0 0 0 0 0.25 0"/>
<feBlend mode="normal" in2="BackgroundImageFix" result="effect1_dropShadow_418_1635"/>
<feBlend mode="normal" in="SourceGraphic" in2="effect1_dropShadow_418_1635" result="shape"/>
</filter>
</defs>
</svg>
