<svg width="75" height="90" viewBox="0 0 75 90" fill="none" xmlns="http://www.w3.org/2000/svg">
<g filter="url(#filter0_d_420_2020)">
<path d="M37.0463 74.3235L18.8971 52.7206L56.1029 52.7206L37.0463 74.3235Z" fill="#008FDF"/>
<path d="M65 32.5C65 47.6878 52.6878 60 37.5 60C22.3122 60 10 47.6878 10 32.5C10 17.3122 22.3122 5 37.5 5C52.6878 5 65 17.3122 65 32.5Z" fill="white"/>
<path d="M37.0463 74.3235L18.8971 52.7206L56.1029 52.7206L37.0463 74.3235Z" stroke="white" stroke-width="4" stroke-linejoin="round"/>
<path d="M65 32.5C65 47.6878 52.6878 60 37.5 60C22.3122 60 10 47.6878 10 32.5C10 17.3122 22.3122 5 37.5 5C52.6878 5 65 17.3122 65 32.5Z" stroke="white" stroke-width="4" stroke-linejoin="round"/>
</g>
<path d="M37.0464 74.3235L18.8971 52.7205L56.103 52.7205L37.0464 74.3235Z" fill="#9747FF"/>
<path d="M61.9091 32.5C61.9091 45.9808 50.9808 56.9091 37.5 56.9091C24.0192 56.9091 13.0909 45.9808 13.0909 32.5C13.0909 19.0192 24.0192 8.09091 37.5 8.09091C50.9808 8.09091 61.9091 19.0192 61.9091 32.5Z" fill="#9747FF" stroke="#9747FF" stroke-width="6.18182"/>
<ellipse cx="37.853" cy="33" rx="23" ry="23" fill="white"/>
<path d="M49.0143 37.4065L47.2959 32.3953H35.3743L29.5775 37.3681H29.4255L23.5327 39.2097V42.0513L24.2687 43.7217H27.7711C28.0383 45.5281 29.5935 46.9201 31.4735 46.9201C33.3535 46.9201 34.9087 45.5281 35.1759 43.7217H41.6511C41.9183 45.5281 43.4735 46.9201 45.3535 46.9201C47.2335 46.9201 48.7887 45.5281 49.0559 43.7217H51.3439L52.0799 42.1121V39.2097L49.0143 37.4065ZM33.3935 43.4305C33.3919 43.4465 33.3887 43.4641 33.3855 43.4801C33.3727 43.5617 33.3551 43.6433 33.3327 43.7217C33.0959 44.5249 32.3535 45.1121 31.4735 45.1121C30.5935 45.1121 29.8511 44.5249 29.6159 43.7217C29.5935 43.6433 29.5759 43.5633 29.5631 43.4801C29.5599 43.4641 29.5583 43.4465 29.5551 43.4305C29.5439 43.3457 29.5359 43.2609 29.5359 43.1729C29.5359 42.5041 29.8751 41.9137 30.3903 41.5649C30.5967 41.4257 30.8303 41.3249 31.0831 41.2737C31.1455 41.2609 31.2111 41.2513 31.2751 41.2449C31.3407 41.2385 31.4063 41.2353 31.4735 41.2353C31.5407 41.2353 31.6063 41.2385 31.6719 41.2449C31.7375 41.2513 31.8015 41.2609 31.8639 41.2737C32.1167 41.3249 32.3503 41.4257 32.5567 41.5649C33.0719 41.9137 33.4111 42.5025 33.4111 43.1729C33.4111 43.2609 33.4031 43.3457 33.3919 43.4305H33.3935ZM39.5567 37.5521H34.3999L36.6975 34.4209H39.5567V37.5521ZM41.0303 37.5521V34.4209H44.5279L45.2671 37.5521H41.0319H41.0303ZM47.2719 43.4305C47.2703 43.4465 47.2671 43.4641 47.2639 43.4801C47.2511 43.5617 47.2335 43.6433 47.2111 43.7217C46.9743 44.5249 46.2319 45.1121 45.3535 45.1121C44.4751 45.1121 43.7311 44.5249 43.4943 43.7217C43.4719 43.6433 43.4543 43.5633 43.4415 43.4801C43.4383 43.4641 43.4367 43.4465 43.4335 43.4305C43.4223 43.3457 43.4143 43.2609 43.4143 43.1729C43.4143 42.1025 44.2815 41.2353 45.3519 41.2353C46.4223 41.2353 47.2895 42.1025 47.2895 43.1729C47.2895 43.2609 47.2815 43.3457 47.2703 43.4305H47.2719Z" fill="#9747FF"/>
<path d="M22.9536 20.5664H24.8128C25.408 20.5664 25.8928 20.7264 26.2656 21.0432C26.3936 21.1552 26.5184 21.3056 26.6368 21.496C26.8832 21.888 27.008 22.3456 27.008 22.8672C27.008 23.52 26.8416 24.0512 26.5104 24.456C26.2672 24.7536 25.9328 24.9424 25.5104 25.0192V25.0496C25.8832 25.2352 26.1728 25.5776 26.3792 26.0752C26.616 26.6336 26.9648 27.6048 27.4256 28.9904H26.0448C25.5744 27.368 25.2736 26.416 25.1408 26.1312C24.944 25.6944 24.6832 25.4768 24.3584 25.4768H24.1408V28.9904H22.9568V20.5664H22.9536ZM24.136 21.5872V24.4768H24.68C25.0048 24.4768 25.2688 24.3424 25.472 24.0752C25.6688 23.8208 25.7664 23.4512 25.7664 22.9632C25.7664 22.5232 25.6752 22.1792 25.4928 21.9328C25.3264 21.7024 25.0768 21.5872 24.7408 21.5872H24.136Z" fill="#9747FF"/>
<path d="M28.4016 20.5664H32.0736V21.6576H29.5744V24.1248H31.7728V25.2064H29.5744V27.8672H32.1648V28.9888H28.4016V20.5664Z" fill="#9747FF"/>
<path d="M33.2161 20.5664H34.5265L36.0849 24.736C36.2673 25.224 36.4513 25.9552 36.6337 26.9296L36.6689 27.0976H36.7089C36.5809 26.0144 36.5041 24.7104 36.4801 23.1872L36.4401 20.5664H37.5825V28.9904H36.5617L34.7441 24.248C34.5921 23.848 34.3761 23.048 34.0993 21.8464H34.0593C34.2049 23.136 34.2881 24.4192 34.3073 25.696L34.3585 28.992H33.2161V20.5664Z" fill="#9747FF"/>
<path d="M38.28 20.5664H42.9168V21.6992H41.1904V28.992H40.008V21.6992H38.2816V20.5664H38.28Z" fill="#9747FF"/>
<path d="M45.2064 20.5264H46.3887L48.3024 28.992H47.0432L46.5856 26.768H45.0064L44.5487 28.992H43.2896L45.2048 20.5264H45.2064ZM46.4192 25.7152L46.0176 23.344C45.9264 22.8192 45.8608 22.3232 45.8192 21.856H45.7728C45.728 22.32 45.68 22.72 45.6256 23.0544C45.608 23.1488 45.5936 23.2464 45.5792 23.344L45.1728 25.7152H46.4176H46.4192Z" fill="#9747FF"/>
<path d="M49.3647 20.5664H50.5631V27.8384H52.9855V28.992H49.3647V20.5664Z" fill="#9747FF"/>
<defs>
<filter id="filter0_d_420_2020" x="0" y="0" width="75" height="89.3235" filterUnits="userSpaceOnUse" color-interpolation-filters="sRGB">
<feFlood flood-opacity="0" result="BackgroundImageFix"/>
<feColorMatrix in="SourceAlpha" type="matrix" values="0 0 0 0 0 0 0 0 0 0 0 0 0 0 0 0 0 0 127 0" result="hardAlpha"/>
<feOffset dy="5"/>
<feGaussianBlur stdDeviation="4"/>
<feComposite in2="hardAlpha" operator="out"/>
<feColorMatrix type="matrix" values="0 0 0 0 0 0 0 0 0 0 0 0 0 0 0 0 0 0 0.25 0"/>
<feBlend mode="normal" in2="BackgroundImageFix" result="effect1_dropShadow_420_2020"/>
<feBlend mode="normal" in="SourceGraphic" in2="effect1_dropShadow_420_2020" result="shape"/>
</filter>
</defs>
</svg>
