<svg width="75" height="90" viewBox="0 0 75 90" fill="none" xmlns="http://www.w3.org/2000/svg">
<g filter="url(#filter0_d_878_3076)">
<path d="M37.0463 74.3235L18.8971 52.7206L56.1029 52.7206L37.0463 74.3235Z" fill="#008FDF"/>
<path d="M65 32.5C65 47.6878 52.6878 60 37.5 60C22.3122 60 10 47.6878 10 32.5C10 17.3122 22.3122 5 37.5 5C52.6878 5 65 17.3122 65 32.5Z" fill="white"/>
<path d="M37.0463 74.3235L18.8971 52.7206L56.1029 52.7206L37.0463 74.3235Z" stroke="white" stroke-width="4" stroke-linejoin="round"/>
<path d="M65 32.5C65 47.6878 52.6878 60 37.5 60C22.3122 60 10 47.6878 10 32.5C10 17.3122 22.3122 5 37.5 5C52.6878 5 65 17.3122 65 32.5Z" stroke="white" stroke-width="4" stroke-linejoin="round"/>
</g>
<path d="M37.0464 74.3237L18.8971 52.7208L56.103 52.7208L37.0464 74.3237Z" fill="#455DB7"/>
<path d="M37.5 8.09082C50.9808 8.09082 61.9092 19.0192 61.9092 32.5C61.9092 45.9808 50.9808 56.9092 37.5 56.9092C24.0192 56.9092 13.0908 45.9808 13.0908 32.5C13.0908 19.0192 24.0192 8.09082 37.5 8.09082Z" fill="#455DB7" stroke="#455DB7" stroke-width="6.18182"/>
<ellipse cx="37.853" cy="33" rx="23" ry="23" fill="white"/>
<path d="M55.1658 19.5858C54.9378 19.0818 54.3438 18.8598 53.8418 19.0898L47.2418 22.0898C46.9198 22.2358 46.6978 22.5438 46.6618 22.8958L46.3038 26.2898H22.8558C22.5138 26.2898 22.1938 26.4658 22.0098 26.7558C21.8258 27.0458 21.8038 27.4098 21.9518 27.7198L26.7518 37.8318C26.9178 38.1798 27.2698 38.4038 27.6558 38.4038H45.0298L44.7558 41.0038H28.0518C27.4998 41.0038 27.0518 41.4518 27.0518 42.0038C27.0518 42.5558 27.4998 43.0038 28.0518 43.0038H30.8198C30.2278 43.5518 29.8538 44.3338 29.8538 45.2038C29.8538 46.8598 31.1978 48.2038 32.8538 48.2038C34.5098 48.2038 35.8538 46.8598 35.8538 45.2038C35.8538 44.3338 35.4798 43.5518 34.8878 43.0038H40.8178C40.2258 43.5518 39.8518 44.3338 39.8518 45.2038C39.8518 46.8598 41.1958 48.2038 42.8518 48.2038C44.5078 48.2038 45.8518 46.8598 45.8518 45.2038C45.8518 44.3338 45.4778 43.5518 44.8858 43.0038H45.6518C46.1638 43.0038 46.5938 42.6178 46.6458 42.1078L48.5858 23.6758L54.6658 20.9118C55.1678 20.6838 55.3898 20.0898 55.1618 19.5878L55.1658 19.5858ZM45.2398 36.3998H28.2878L24.4378 28.2878H46.0938L45.2398 36.3998Z" fill="#455DB7"/>
<defs>
<filter id="filter0_d_878_3076" x="0" y="0" width="75" height="89.3237" filterUnits="userSpaceOnUse" color-interpolation-filters="sRGB">
<feFlood flood-opacity="0" result="BackgroundImageFix"/>
<feColorMatrix in="SourceAlpha" type="matrix" values="0 0 0 0 0 0 0 0 0 0 0 0 0 0 0 0 0 0 127 0" result="hardAlpha"/>
<feOffset dy="5"/>
<feGaussianBlur stdDeviation="4"/>
<feComposite in2="hardAlpha" operator="out"/>
<feColorMatrix type="matrix" values="0 0 0 0 0 0 0 0 0 0 0 0 0 0 0 0 0 0 0.25 0"/>
<feBlend mode="normal" in2="BackgroundImageFix" result="effect1_dropShadow_878_3076"/>
<feBlend mode="normal" in="SourceGraphic" in2="effect1_dropShadow_878_3076" result="shape"/>
</filter>
</defs>
</svg>
