<svg width="75" height="90" viewBox="0 0 75 90" fill="none" xmlns="http://www.w3.org/2000/svg">
<g filter="url(#filter0_d_606_2419)">
<path d="M37.0463 74.3235L18.8971 52.7206L56.1029 52.7206L37.0463 74.3235Z" fill="#008FDF"/>
<path d="M65 32.5C65 47.6878 52.6878 60 37.5 60C22.3122 60 10 47.6878 10 32.5C10 17.3122 22.3122 5 37.5 5C52.6878 5 65 17.3122 65 32.5Z" fill="white"/>
<path d="M37.0463 74.3235L18.8971 52.7206L56.1029 52.7206L37.0463 74.3235Z" stroke="white" stroke-width="4" stroke-linejoin="round"/>
<path d="M65 32.5C65 47.6878 52.6878 60 37.5 60C22.3122 60 10 47.6878 10 32.5C10 17.3122 22.3122 5 37.5 5C52.6878 5 65 17.3122 65 32.5Z" stroke="white" stroke-width="4" stroke-linejoin="round"/>
</g>
<path d="M37.0464 74.3235L18.8971 52.7205L56.103 52.7205L37.0464 74.3235Z" fill="#9747FF"/>
<path d="M37.5 8.09082C50.9808 8.09082 61.9092 19.0192 61.9092 32.5C61.9092 45.9808 50.9808 56.9092 37.5 56.9092C24.0192 56.9092 13.0908 45.9808 13.0908 32.5C13.0908 19.0192 24.0192 8.09082 37.5 8.09082Z" fill="#9747FF" stroke="#9747FF" stroke-width="6.18182"/>
<ellipse cx="37.853" cy="33" rx="23" ry="23" fill="white"/>
<path d="M51.1746 29.3584C51.0242 29.208 50.821 29.1248 50.6082 29.1248H29.7298L49.341 23.2528C49.549 23.1904 49.7234 23.0464 49.8226 22.8528C49.9218 22.6592 49.9394 22.4352 49.869 22.2288L48.8226 19.1424C48.7106 18.8096 48.4002 18.5984 48.0658 18.5984C47.989 18.5984 47.9122 18.6096 47.8354 18.632L24.8514 25.5152C24.6434 25.5776 24.469 25.7216 24.3698 25.9152C24.2706 26.1088 24.253 26.3328 24.3234 26.5392L25.3698 29.6256C25.429 29.8 25.5426 29.9392 25.6866 30.0352V33.1648C25.6866 33.3776 25.7714 33.5808 25.9202 33.7312C26.0706 33.8816 26.2738 33.9648 26.4866 33.9648H26.6514C26.6354 34.0272 26.6258 34.0896 26.6258 34.1568V45.8016C26.6258 46.2432 26.9842 46.6016 27.4258 46.6016H50.0994C50.541 46.6016 50.8994 46.2432 50.8994 45.8016V34.1568C50.8994 34.0752 50.8834 33.9968 50.861 33.9216C51.1794 33.816 51.4114 33.52 51.4114 33.1648V29.9264C51.4114 29.7136 51.3266 29.5104 51.1778 29.36L51.1746 29.3584ZM35.8546 23.056L39.3106 22.0208L38.4338 25.6832L43.0994 24.2864L43.9762 20.624L43.4146 20.792L47.4338 19.5888L46.557 23.2512L49.1122 22.4864L34.9794 26.7184L35.8562 23.056H35.8546ZM25.0802 26.2816L31.1874 24.4528L30.3106 28.1152L26.9394 29.1248H26.861L27.7314 25.488L25.0802 26.2816ZM26.485 33.1632H29.2674L27.2498 29.9248H30.877L32.8946 33.1632H37.7922L35.7746 29.9248H39.4018L41.4194 33.1632H46.317L44.2994 29.9248H47.9266L49.9442 33.1632H50.6082H26.485Z" fill="#9747FF"/>
<defs>
<filter id="filter0_d_606_2419" x="0" y="0" width="75" height="89.3235" filterUnits="userSpaceOnUse" color-interpolation-filters="sRGB">
<feFlood flood-opacity="0" result="BackgroundImageFix"/>
<feColorMatrix in="SourceAlpha" type="matrix" values="0 0 0 0 0 0 0 0 0 0 0 0 0 0 0 0 0 0 127 0" result="hardAlpha"/>
<feOffset dy="5"/>
<feGaussianBlur stdDeviation="4"/>
<feComposite in2="hardAlpha" operator="out"/>
<feColorMatrix type="matrix" values="0 0 0 0 0 0 0 0 0 0 0 0 0 0 0 0 0 0 0.25 0"/>
<feBlend mode="normal" in2="BackgroundImageFix" result="effect1_dropShadow_606_2419"/>
<feBlend mode="normal" in="SourceGraphic" in2="effect1_dropShadow_606_2419" result="shape"/>
</filter>
</defs>
</svg>
