<svg width="66" height="91" viewBox="0 0 66 91" fill="none" xmlns="http://www.w3.org/2000/svg">
<g filter="url(#filter0_d_111_653)">
<path d="M32.9767 1C17.5212 1 5 13.8376 5 29.3454C5 44.8443 24.6234 81.2 32.9767 81.2C41.3301 81.2 60.9535 44.8443 60.9535 29.3454C60.9535 13.8376 48.4234 1 32.9767 1Z" fill="#C9C9C9"/>
<path d="M32.9767 1C17.5212 1 5 13.8376 5 29.3454C5 44.8443 24.6234 81.2 32.9767 81.2C41.3301 81.2 60.9535 44.8443 60.9535 29.3454C60.9535 13.8376 48.4234 1 32.9767 1Z" stroke="white" stroke-width="2"/>
</g>
<path d="M10 29C10 41.7025 20.2975 52 33 52C45.7025 52 56 41.7025 56 29C56 16.2975 45.7025 6 33 6C20.2975 6 10 16.2975 10 29Z" fill="white"/>
<path d="M33 13C24.1627 13 17 20.1627 17 29C17 37.8373 24.1627 45 33 45C41.8373 45 49 37.8373 49 29C49 20.1627 41.8373 13 33 13ZM45.0498 29C45.0498 30.5964 44.7351 32.12 44.168 33.5156L36.1218 28.6053L43.8942 23.8622C44.632 25.4213 45.048 27.1636 45.048 29H45.0498ZM33 16.9502C36.7156 16.9502 40.0418 18.6409 42.2533 21.2933L33.1973 26.8204L23.8818 21.1369C26.0933 18.5769 29.3591 16.952 33 16.952V16.9502ZM20.9502 29C20.9502 27.0889 21.4 25.2827 22.1947 23.6756L30.2729 28.6053L21.9102 33.7093C21.2933 32.2622 20.952 30.6711 20.952 29.0018L20.9502 29ZM33 41.0498C29.1156 41.0498 25.656 39.2009 23.4516 36.3369L33.1973 30.3902L42.6747 36.1733C40.4773 39.1298 36.9591 41.0498 33 41.0498Z" fill="#C9C9C9"/>
<defs>
<filter id="filter0_d_111_653" x="0" y="0" width="65.9535" height="90.2" filterUnits="userSpaceOnUse" color-interpolation-filters="sRGB">
<feFlood flood-opacity="0" result="BackgroundImageFix"/>
<feColorMatrix in="SourceAlpha" type="matrix" values="0 0 0 0 0 0 0 0 0 0 0 0 0 0 0 0 0 0 127 0" result="hardAlpha"/>
<feOffset dy="4"/>
<feGaussianBlur stdDeviation="2"/>
<feComposite in2="hardAlpha" operator="out"/>
<feColorMatrix type="matrix" values="0 0 0 0 0 0 0 0 0 0 0 0 0 0 0 0 0 0 0.25 0"/>
<feBlend mode="normal" in2="BackgroundImageFix" result="effect1_dropShadow_111_653"/>
<feBlend mode="normal" in="SourceGraphic" in2="effect1_dropShadow_111_653" result="shape"/>
</filter>
</defs>
</svg>
