<svg width="75" height="90" viewBox="0 0 75 90" fill="none" xmlns="http://www.w3.org/2000/svg">
<g filter="url(#filter0_d_463_2001)">
<path d="M37.0463 74.3235L18.8971 52.7206L56.1029 52.7206L37.0463 74.3235Z" fill="#008FDF"/>
<path d="M65 32.5C65 47.6878 52.6878 60 37.5 60C22.3122 60 10 47.6878 10 32.5C10 17.3122 22.3122 5 37.5 5C52.6878 5 65 17.3122 65 32.5Z" fill="white"/>
<path d="M37.0463 74.3235L18.8971 52.7206L56.1029 52.7206L37.0463 74.3235Z" stroke="white" stroke-width="4" stroke-linejoin="round"/>
<path d="M65 32.5C65 47.6878 52.6878 60 37.5 60C22.3122 60 10 47.6878 10 32.5C10 17.3122 22.3122 5 37.5 5C52.6878 5 65 17.3122 65 32.5Z" stroke="white" stroke-width="4" stroke-linejoin="round"/>
</g>
<path d="M37.0464 74.3235L18.8971 52.7205L56.103 52.7205L37.0464 74.3235Z" fill="#C9C9C9"/>
<path d="M61.9091 32.5C61.9091 45.9808 50.9808 56.9091 37.5 56.9091C24.0192 56.9091 13.0909 45.9808 13.0909 32.5C13.0909 19.0192 24.0192 8.09091 37.5 8.09091C50.9808 8.09091 61.9091 19.0192 61.9091 32.5Z" fill="#C9C9C9" stroke="#C9C9C9" stroke-width="6.18182"/>
<ellipse cx="37.853" cy="33" rx="23" ry="23" fill="white"/>
<path d="M38 17C29.1627 17 22 24.1627 22 33C22 41.8373 29.1627 49 38 49C46.8373 49 54 41.8373 54 33C54 24.1627 46.8373 17 38 17ZM50.0498 33C50.0498 34.5964 49.7351 36.12 49.168 37.5156L41.1218 32.6053L48.8942 27.8622C49.632 29.4213 50.048 31.1636 50.048 33H50.0498ZM38 20.9502C41.7156 20.9502 45.0418 22.6409 47.2533 25.2933L38.1973 30.8204L28.8818 25.1369C31.0933 22.5769 34.3591 20.952 38 20.952V20.9502ZM25.9502 33C25.9502 31.0889 26.4 29.2827 27.1947 27.6756L35.2729 32.6053L26.9102 37.7093C26.2933 36.2622 25.952 34.6711 25.952 33.0018L25.9502 33ZM38 45.0498C34.1156 45.0498 30.656 43.2009 28.4516 40.3369L38.1973 34.3902L47.6747 40.1733C45.4773 43.1298 41.9591 45.0498 38 45.0498Z" fill="#C9C9C9"/>
<defs>
<filter id="filter0_d_463_2001" x="0" y="0" width="75" height="89.3235" filterUnits="userSpaceOnUse" color-interpolation-filters="sRGB">
<feFlood flood-opacity="0" result="BackgroundImageFix"/>
<feColorMatrix in="SourceAlpha" type="matrix" values="0 0 0 0 0 0 0 0 0 0 0 0 0 0 0 0 0 0 127 0" result="hardAlpha"/>
<feOffset dy="5"/>
<feGaussianBlur stdDeviation="4"/>
<feComposite in2="hardAlpha" operator="out"/>
<feColorMatrix type="matrix" values="0 0 0 0 0 0 0 0 0 0 0 0 0 0 0 0 0 0 0.25 0"/>
<feBlend mode="normal" in2="BackgroundImageFix" result="effect1_dropShadow_463_2001"/>
<feBlend mode="normal" in="SourceGraphic" in2="effect1_dropShadow_463_2001" result="shape"/>
</filter>
</defs>
</svg>
