<svg width="66" height="91" viewBox="0 0 66 91" fill="none" xmlns="http://www.w3.org/2000/svg">
<g filter="url(#filter0_d_112_700)">
<path d="M32.9767 1C17.5212 1 5 13.8376 5 29.3454C5 44.8443 24.6234 81.2 32.9767 81.2C41.3301 81.2 60.9535 44.8443 60.9535 29.3454C60.9535 13.8376 48.4234 1 32.9767 1Z" fill="#F2C34A"/>
<path d="M32.9767 1C17.5212 1 5 13.8376 5 29.3454C5 44.8443 24.6234 81.2 32.9767 81.2C41.3301 81.2 60.9535 44.8443 60.9535 29.3454C60.9535 13.8376 48.4234 1 32.9767 1Z" stroke="white" stroke-width="2"/>
</g>
<path d="M10 29C10 41.7025 20.2975 52 33 52C45.7025 52 56 41.7025 56 29C56 16.2975 45.7025 6 33 6C20.2975 6 10 16.2975 10 29Z" fill="white"/>
<path d="M33 13C24.1627 13 17 20.1627 17 29C17 37.8373 24.1627 45 33 45C41.8373 45 49 37.8373 49 29C49 20.1627 41.8373 13 33 13ZM20.9502 29C20.9502 26.3049 21.8391 23.8142 23.3413 21.8036L40.1964 38.6587C38.1876 40.1591 35.6951 41.0498 33 41.0498C26.3564 41.0498 20.9502 35.6436 20.9502 29ZM42.3884 36.5413L25.4587 19.6116C27.5244 17.9493 30.1467 16.9502 33 16.9502C39.6436 16.9502 45.0498 22.3547 45.0498 29C45.0498 31.8533 44.0507 34.4756 42.3884 36.5413Z" fill="#F2C34A"/>
<defs>
<filter id="filter0_d_112_700" x="0" y="0" width="65.9535" height="90.2" filterUnits="userSpaceOnUse" color-interpolation-filters="sRGB">
<feFlood flood-opacity="0" result="BackgroundImageFix"/>
<feColorMatrix in="SourceAlpha" type="matrix" values="0 0 0 0 0 0 0 0 0 0 0 0 0 0 0 0 0 0 127 0" result="hardAlpha"/>
<feOffset dy="4"/>
<feGaussianBlur stdDeviation="2"/>
<feComposite in2="hardAlpha" operator="out"/>
<feColorMatrix type="matrix" values="0 0 0 0 0 0 0 0 0 0 0 0 0 0 0 0 0 0 0.25 0"/>
<feBlend mode="normal" in2="BackgroundImageFix" result="effect1_dropShadow_112_700"/>
<feBlend mode="normal" in="SourceGraphic" in2="effect1_dropShadow_112_700" result="shape"/>
</filter>
</defs>
</svg>
