<svg width="75" height="90" viewBox="0 0 75 90" fill="none" xmlns="http://www.w3.org/2000/svg">
<g filter="url(#filter0_d_851_3085)">
<path d="M37.0463 74.3235L18.8971 52.7206L56.1029 52.7206L37.0463 74.3235Z" fill="#008FDF"/>
<path d="M65 32.5C65 47.6878 52.6878 60 37.5 60C22.3122 60 10 47.6878 10 32.5C10 17.3122 22.3122 5 37.5 5C52.6878 5 65 17.3122 65 32.5Z" fill="#FFF000"/>
<path d="M37.0463 74.3235L18.8971 52.7206L56.1029 52.7206L37.0463 74.3235Z" stroke="white" stroke-width="4" stroke-linejoin="round"/>
<path d="M65 32.5C65 47.6878 52.6878 60 37.5 60C22.3122 60 10 47.6878 10 32.5C10 17.3122 22.3122 5 37.5 5C52.6878 5 65 17.3122 65 32.5Z" stroke="white" stroke-width="4" stroke-linejoin="round"/>
</g>
<path d="M37.0464 74.3237L18.8971 52.7208L56.103 52.7208L37.0464 74.3237Z" fill="#FFF000"/>
<path d="M37.5 8.09082C50.9808 8.09082 61.9092 19.0192 61.9092 32.5C61.9092 45.9808 50.9808 56.9092 37.5 56.9092C24.0192 56.9092 13.0908 45.9808 13.0908 32.5C13.0908 19.0192 24.0192 8.09082 37.5 8.09082Z" fill="#FFF000" stroke="#FFF000" stroke-width="6.18182"/>
<path d="M37.853 12C49.451 12 58.853 21.402 58.853 33C58.853 44.598 49.451 54 37.853 54C26.255 54 16.853 44.598 16.853 33C16.853 21.402 26.255 12 37.853 12Z" fill="#FFF000" stroke="white" stroke-width="4"/>
<circle cx="38" cy="33" r="19" stroke="black" stroke-width="2"/>
<path d="M38.6499 26.6296C39.8979 26.6296 40.9093 25.6182 40.9093 24.3702C40.9093 23.1222 39.8979 22.1108 38.6499 22.1108C37.4019 22.1108 36.3905 23.1222 36.3905 24.3702C36.3905 25.6182 37.4019 26.6296 38.6499 26.6296ZM46.3394 37.3949L45.6556 31.151L47.8721 27.9335C48.0242 27.7125 48.0515 27.4304 47.9475 27.1847C47.8435 26.939 47.6186 26.7635 47.3547 26.7219L42.4602 25.9354C42.2288 25.8977 42.0052 25.9679 41.8375 26.107C41.7855 26.1174 41.7335 26.1317 41.6828 26.1577L38.2677 27.9049C38.0415 28.0206 36.8052 28.8682 36.8312 29.2985L37.0249 32.4887L35.6456 33.3259C35.4649 33.4364 35.344 33.608 35.2959 33.7978L33.355 34.6896L33.3212 34.5128C33.2341 34.1046 32.4112 33.7328 32.3488 33.8862L30.3078 36.7293C30.2012 36.9841 30.131 37.3806 30.7459 37.4885C31.405 37.6055 34.2884 37.5275 34.2312 37.2428C34.6446 37.2012 34.2767 36.3536 33.9712 36.0728L33.5981 35.4592C33.5981 35.4592 33.589 35.4488 33.5838 35.4436L35.513 34.557C35.6599 34.6974 35.8536 34.7728 36.0525 34.7728C36.1903 34.7728 36.3294 34.7364 36.4568 34.6597L37.0925 34.2736V40.3628H35.6625V41.0128H32.6959C32.0004 39.8584 30.781 39.3254 30.2506 37.9955C30.1609 37.7706 30.0868 37.5158 29.9334 37.3689C29.7748 37.2168 29.5655 37.2142 29.3848 37.118C29.0364 36.9321 28.7634 36.39 28.3942 36.4706C28.2226 36.5083 28.0835 36.6786 27.9626 36.8515C27.193 37.9578 26.7549 39.4827 26.7601 41.0128H26.6938V41.9228H48.7938V41.0128L46.3433 37.3975L46.3394 37.3949ZM45.887 28.0648L44.6403 29.8744L43.2376 27.6397L45.887 28.0661V28.0648ZM38.2365 33.5755C38.4835 33.4247 38.6278 33.1504 38.6109 32.8618L38.4094 29.539L41.5671 32.7643L37.32 34.1332L38.2365 33.5768V33.5755ZM44.1099 40.3602V41.0102H38.7799V40.4694L39.6899 35.7777L44.1502 34.4439L44.0202 37.7459L45.848 40.3589H44.1086L44.1099 40.3602Z" fill="black"/>
<defs>
<filter id="filter0_d_851_3085" x="0" y="0" width="75" height="89.3237" filterUnits="userSpaceOnUse" color-interpolation-filters="sRGB">
<feFlood flood-opacity="0" result="BackgroundImageFix"/>
<feColorMatrix in="SourceAlpha" type="matrix" values="0 0 0 0 0 0 0 0 0 0 0 0 0 0 0 0 0 0 127 0" result="hardAlpha"/>
<feOffset dy="5"/>
<feGaussianBlur stdDeviation="4"/>
<feComposite in2="hardAlpha" operator="out"/>
<feColorMatrix type="matrix" values="0 0 0 0 0 0 0 0 0 0 0 0 0 0 0 0 0 0 0.25 0"/>
<feBlend mode="normal" in2="BackgroundImageFix" result="effect1_dropShadow_851_3085"/>
<feBlend mode="normal" in="SourceGraphic" in2="effect1_dropShadow_851_3085" result="shape"/>
</filter>
</defs>
</svg>
