<svg width="75" height="90" viewBox="0 0 75 90" fill="none" xmlns="http://www.w3.org/2000/svg">
<g filter="url(#filter0_d_875_3021)">
<path d="M37.0463 74.3235L18.8971 52.7206L56.1029 52.7206L37.0463 74.3235Z" fill="#008FDF"/>
<path d="M65 32.5C65 47.6878 52.6878 60 37.5 60C22.3122 60 10 47.6878 10 32.5C10 17.3122 22.3122 5 37.5 5C52.6878 5 65 17.3122 65 32.5Z" fill="white"/>
<path d="M37.0463 74.3235L18.8971 52.7206L56.1029 52.7206L37.0463 74.3235Z" stroke="white" stroke-width="4" stroke-linejoin="round"/>
<path d="M65 32.5C65 47.6878 52.6878 60 37.5 60C22.3122 60 10 47.6878 10 32.5C10 17.3122 22.3122 5 37.5 5C52.6878 5 65 17.3122 65 32.5Z" stroke="white" stroke-width="4" stroke-linejoin="round"/>
</g>
<path d="M37.0464 74.3237L18.8971 52.7208L56.103 52.7208L37.0464 74.3237Z" fill="#455DB7"/>
<path d="M37.5 8.09082C50.9808 8.09082 61.9092 19.0192 61.9092 32.5C61.9092 45.9808 50.9808 56.9092 37.5 56.9092C24.0192 56.9092 13.0908 45.9808 13.0908 32.5C13.0908 19.0192 24.0192 8.09082 37.5 8.09082Z" fill="#455DB7" stroke="#455DB7" stroke-width="6.18182"/>
<ellipse cx="37.853" cy="33" rx="23" ry="23" fill="white"/>
<path d="M53.1102 21.6338H22.8902C22.0262 21.6338 21.3262 22.3338 21.3262 23.1978V30.9978C21.3262 31.8618 22.0262 32.5618 22.8902 32.5618H23.3522C23.3402 32.6398 23.3322 32.7178 23.3322 32.7978V42.7978C23.3322 43.6638 24.0342 44.3658 24.9002 44.3658H51.1002C51.9662 44.3658 52.6682 43.6638 52.6682 42.7978V32.7978C52.6682 32.7178 52.6602 32.6378 52.6482 32.5618H53.1102C53.9742 32.5618 54.6742 31.8618 54.6742 30.9978V23.1978C54.6742 22.3338 53.9742 21.6338 53.1102 21.6338ZM36.8462 42.4138H34.0842V36.7818H36.8462V42.4138ZM41.9162 42.4138H38.4142V36.7818H41.9162V42.4138ZM51.1002 42.7978H43.4842V35.9978C43.4842 35.5638 43.1342 35.2138 42.7002 35.2138H33.3002C32.8662 35.2138 32.5162 35.5638 32.5162 35.9978V42.7978H24.9002V32.7978H51.1002V42.7978ZM53.1102 30.9978H22.8902V28.8978H53.1082V30.9978H53.1102ZM53.1102 25.4978H22.8902V23.1978H53.1082V25.4978H53.1102Z" fill="#455DB7"/>
<defs>
<filter id="filter0_d_875_3021" x="0" y="0" width="75" height="89.3237" filterUnits="userSpaceOnUse" color-interpolation-filters="sRGB">
<feFlood flood-opacity="0" result="BackgroundImageFix"/>
<feColorMatrix in="SourceAlpha" type="matrix" values="0 0 0 0 0 0 0 0 0 0 0 0 0 0 0 0 0 0 127 0" result="hardAlpha"/>
<feOffset dy="5"/>
<feGaussianBlur stdDeviation="4"/>
<feComposite in2="hardAlpha" operator="out"/>
<feColorMatrix type="matrix" values="0 0 0 0 0 0 0 0 0 0 0 0 0 0 0 0 0 0 0.25 0"/>
<feBlend mode="normal" in2="BackgroundImageFix" result="effect1_dropShadow_875_3021"/>
<feBlend mode="normal" in="SourceGraphic" in2="effect1_dropShadow_875_3021" result="shape"/>
</filter>
</defs>
</svg>
