<svg width="67" height="91" viewBox="0 0 67 91" fill="none" xmlns="http://www.w3.org/2000/svg">
<g filter="url(#filter0_d_22_786)">
<path d="M33.1372 1.30005C17.6817 1.30005 5.16046 14.1377 5.16046 29.6454C5.16046 45.1443 24.7838 81.5 33.1372 81.5C41.4906 81.5 61.114 45.1443 61.114 29.6454C61.114 14.1377 48.5839 1.30005 33.1372 1.30005Z" fill="#9747FF"/>
<path d="M33.1372 1.30005C17.6817 1.30005 5.16046 14.1377 5.16046 29.6454C5.16046 45.1443 24.7838 81.5 33.1372 81.5C41.4906 81.5 61.114 45.1443 61.114 29.6454C61.114 14.1377 48.5839 1.30005 33.1372 1.30005Z" stroke="white" stroke-width="2"/>
</g>
<path d="M10.1605 29.3C10.1605 42.0026 20.4579 52.3 33.1605 52.3C45.863 52.3 56.1605 42.0026 56.1605 29.3C56.1605 16.5975 45.863 6.30005 33.1605 6.30005C20.4579 6.30005 10.1605 16.5975 10.1605 29.3Z" fill="white"/>
<path d="M22.2905 28.4049L19.7719 43.0612L34.3515 40.5294C37.3344 36.5037 43.5297 29.9921 43.5297 29.9921L32.7726 19.1783C32.7726 19.1783 26.377 25.4667 22.2905 28.4049ZM33.1514 38.5413L23.3904 40.2365L29.3198 34.2758C29.7095 34.4992 30.1521 34.6218 30.6146 34.6218C31.3139 34.6218 31.9713 34.3472 32.4667 33.8511C32.962 33.3532 33.2333 32.6923 33.2333 31.9893C33.2333 31.2864 32.9602 30.6255 32.4667 30.1275C31.9731 29.6296 31.3139 29.3568 30.6146 29.3568C29.9153 29.3568 29.2579 29.6314 28.7626 30.1275C28.2672 30.6255 27.9959 31.2864 27.9959 31.9893C27.9959 32.5166 28.1489 33.02 28.4348 33.4502L22.6055 39.3102L24.2663 29.6369C27.1418 27.4548 30.733 24.1266 32.7416 22.2136L40.5286 30.0415C38.6456 32.0717 35.3458 35.7056 33.1514 38.5449V38.5413ZM29.2033 31.9857C29.2033 31.6067 29.3508 31.2516 29.6167 30.9825C29.8825 30.7152 30.2377 30.5669 30.6146 30.5669C30.9916 30.5669 31.3449 30.7152 31.6126 30.9825C31.8784 31.2497 32.026 31.6067 32.026 31.9857C32.026 32.3646 31.8784 32.7198 31.6126 32.9889C31.3467 33.258 30.9916 33.4044 30.6146 33.4044C30.2377 33.4044 29.8844 33.2561 29.6167 32.9889C29.349 32.7216 29.2033 32.3646 29.2033 31.9857Z" fill="#9747FF"/>
<path d="M36.9083 15.3149L33.4895 18.7517L44.1027 29.4208L47.5215 25.9839L36.9083 15.3149Z" fill="#9747FF"/>
<defs>
<filter id="filter0_d_22_786" x="0.160461" y="0.300049" width="65.9535" height="90.2" filterUnits="userSpaceOnUse" color-interpolation-filters="sRGB">
<feFlood flood-opacity="0" result="BackgroundImageFix"/>
<feColorMatrix in="SourceAlpha" type="matrix" values="0 0 0 0 0 0 0 0 0 0 0 0 0 0 0 0 0 0 127 0" result="hardAlpha"/>
<feOffset dy="4"/>
<feGaussianBlur stdDeviation="2"/>
<feComposite in2="hardAlpha" operator="out"/>
<feColorMatrix type="matrix" values="0 0 0 0 0 0 0 0 0 0 0 0 0 0 0 0 0 0 0.25 0"/>
<feBlend mode="normal" in2="BackgroundImageFix" result="effect1_dropShadow_22_786"/>
<feBlend mode="normal" in="SourceGraphic" in2="effect1_dropShadow_22_786" result="shape"/>
</filter>
</defs>
</svg>
