<svg width="75" height="90" viewBox="0 0 75 90" fill="none" xmlns="http://www.w3.org/2000/svg">
<g filter="url(#filter0_d_463_2028)">
<path d="M37.0463 74.3235L18.8971 52.7206L56.1029 52.7206L37.0463 74.3235Z" fill="#008FDF"/>
<path d="M65 32.5C65 47.6878 52.6878 60 37.5 60C22.3122 60 10 47.6878 10 32.5C10 17.3122 22.3122 5 37.5 5C52.6878 5 65 17.3122 65 32.5Z" fill="white"/>
<path d="M37.0463 74.3235L18.8971 52.7206L56.1029 52.7206L37.0463 74.3235Z" stroke="white" stroke-width="4" stroke-linejoin="round"/>
<path d="M65 32.5C65 47.6878 52.6878 60 37.5 60C22.3122 60 10 47.6878 10 32.5C10 17.3122 22.3122 5 37.5 5C52.6878 5 65 17.3122 65 32.5Z" stroke="white" stroke-width="4" stroke-linejoin="round"/>
</g>
<path d="M37.0464 74.3235L18.8971 52.7205L56.103 52.7205L37.0464 74.3235Z" fill="#9747FF"/>
<path d="M61.9091 32.5C61.9091 45.9808 50.9808 56.9091 37.5 56.9091C24.0192 56.9091 13.0909 45.9808 13.0909 32.5C13.0909 19.0192 24.0192 8.09091 37.5 8.09091C50.9808 8.09091 61.9091 19.0192 61.9091 32.5Z" fill="#9747FF" stroke="#9747FF" stroke-width="6.18182"/>
<ellipse cx="37.853" cy="33" rx="23" ry="23" fill="white"/>
<path d="M27.1299 32.1047L24.6113 46.761L39.1909 44.2292C42.1738 40.2036 48.3691 33.6919 48.3691 33.6919L37.612 22.8782C37.612 22.8782 31.2164 29.1665 27.1299 32.1047ZM37.9908 42.2411L28.2298 43.9363L34.1592 37.9757C34.549 38.199 34.9915 38.3217 35.454 38.3217C36.1533 38.3217 36.8107 38.0471 37.3061 37.5509C37.8014 37.053 38.0727 36.3921 38.0727 35.6892C38.0727 34.9862 37.7996 34.3253 37.3061 33.8274C36.8126 33.3294 36.1533 33.0567 35.454 33.0567C34.7547 33.0567 34.0973 33.3313 33.602 33.8274C33.1067 34.3253 32.8353 34.9862 32.8353 35.6892C32.8353 36.2164 32.9883 36.7198 33.2742 37.15L27.4449 43.01L29.1058 33.3368C31.9812 31.1546 35.5724 27.8265 37.5811 25.9134L45.368 33.7413C43.485 35.7715 40.1852 39.4054 37.9908 42.2448V42.2411ZM34.0427 35.6855C34.0427 35.3065 34.1902 34.9514 34.4561 34.6823C34.722 34.415 35.0771 34.2667 35.454 34.2667C35.831 34.2667 36.1843 34.415 36.452 34.6823C36.7179 34.9496 36.8654 35.3065 36.8654 35.6855C36.8654 36.0644 36.7179 36.4196 36.452 36.6887C36.1861 36.9578 35.831 37.1043 35.454 37.1043C35.0771 37.1043 34.7238 36.956 34.4561 36.6887C34.1884 36.4214 34.0427 36.0644 34.0427 35.6855Z" fill="#9747FF"/>
<path d="M41.7479 19.0148L38.3291 22.4517L48.9423 33.1207L52.3611 29.6839L41.7479 19.0148Z" fill="#9747FF"/>
<defs>
<filter id="filter0_d_463_2028" x="0" y="0" width="75" height="89.3235" filterUnits="userSpaceOnUse" color-interpolation-filters="sRGB">
<feFlood flood-opacity="0" result="BackgroundImageFix"/>
<feColorMatrix in="SourceAlpha" type="matrix" values="0 0 0 0 0 0 0 0 0 0 0 0 0 0 0 0 0 0 127 0" result="hardAlpha"/>
<feOffset dy="5"/>
<feGaussianBlur stdDeviation="4"/>
<feComposite in2="hardAlpha" operator="out"/>
<feColorMatrix type="matrix" values="0 0 0 0 0 0 0 0 0 0 0 0 0 0 0 0 0 0 0.25 0"/>
<feBlend mode="normal" in2="BackgroundImageFix" result="effect1_dropShadow_463_2028"/>
<feBlend mode="normal" in="SourceGraphic" in2="effect1_dropShadow_463_2028" result="shape"/>
</filter>
</defs>
</svg>
