<svg width="75" height="90" viewBox="0 0 75 90" fill="none" xmlns="http://www.w3.org/2000/svg">
<g filter="url(#filter0_d_420_2079)">
<path d="M37.0463 74.3235L18.8971 52.7206L56.1029 52.7206L37.0463 74.3235Z" fill="#008FDF"/>
<path d="M65 32.5C65 47.6878 52.6878 60 37.5 60C22.3122 60 10 47.6878 10 32.5C10 17.3122 22.3122 5 37.5 5C52.6878 5 65 17.3122 65 32.5Z" fill="white"/>
<path d="M37.0463 74.3235L18.8971 52.7206L56.1029 52.7206L37.0463 74.3235Z" stroke="white" stroke-width="4" stroke-linejoin="round"/>
<path d="M65 32.5C65 47.6878 52.6878 60 37.5 60C22.3122 60 10 47.6878 10 32.5C10 17.3122 22.3122 5 37.5 5C52.6878 5 65 17.3122 65 32.5Z" stroke="white" stroke-width="4" stroke-linejoin="round"/>
</g>
<path d="M37.0464 74.3237L18.8971 52.7208L56.103 52.7208L37.0464 74.3237Z" fill="#FF6B00"/>
<path d="M61.9091 32.5C61.9091 45.9808 50.9808 56.9091 37.5 56.9091C24.0192 56.9091 13.0909 45.9808 13.0909 32.5C13.0909 19.0192 24.0192 8.09091 37.5 8.09091C50.9808 8.09091 61.9091 19.0192 61.9091 32.5Z" fill="#FF6B00" stroke="#FF6B00" stroke-width="6.18182"/>
<ellipse cx="37.853" cy="33" rx="23" ry="23" fill="white"/>
<path d="M46.32 35.3168H43.12V37.0464H46.32V35.3168ZM39.92 26.9968H36.72V28.7264H39.92V26.9968ZM46.32 31.1568H43.12V32.8864H46.32V31.1568ZM39.92 31.1568H36.72V32.8864H39.92V31.1568ZM46.32 26.9968H43.12V28.7264H46.32V26.9968ZM33.52 35.3168H30.32V37.0464H33.52V35.3168ZM39.92 35.3168H36.72V37.0464H39.92V35.3168ZM33.52 31.1568H30.32V32.8864H33.52V31.1568ZM47.9072 22.6768H28.0928C27.336 22.6768 26.72 23.2928 26.72 24.0496V43.2224C26.72 43.9792 27.336 44.5952 28.0928 44.5952H34.3856C35.1424 44.5952 35.7584 43.9792 35.7584 43.2224V41.2352H41.0384V43.2224C41.0384 43.9792 41.6544 44.5952 42.4112 44.5952H47.904C48.6608 44.5952 49.2768 43.9792 49.2768 43.2224V24.0496C49.2768 23.2928 48.6608 22.6768 47.904 22.6768H47.9072ZM47.68 42.9968H42.64V41.0096C42.64 40.2528 42.024 39.6368 41.2672 39.6368H35.5344C34.7776 39.6368 34.1616 40.2528 34.1616 41.0096V42.9968H28.3216V24.2768H47.6816V42.9968H47.68ZM33.52 26.9968H30.32V28.7264H33.52V26.9968Z" fill="#FF6B00"/>
<defs>
<filter id="filter0_d_420_2079" x="0" y="0" width="75" height="89.3237" filterUnits="userSpaceOnUse" color-interpolation-filters="sRGB">
<feFlood flood-opacity="0" result="BackgroundImageFix"/>
<feColorMatrix in="SourceAlpha" type="matrix" values="0 0 0 0 0 0 0 0 0 0 0 0 0 0 0 0 0 0 127 0" result="hardAlpha"/>
<feOffset dy="5"/>
<feGaussianBlur stdDeviation="4"/>
<feComposite in2="hardAlpha" operator="out"/>
<feColorMatrix type="matrix" values="0 0 0 0 0 0 0 0 0 0 0 0 0 0 0 0 0 0 0.25 0"/>
<feBlend mode="normal" in2="BackgroundImageFix" result="effect1_dropShadow_420_2079"/>
<feBlend mode="normal" in="SourceGraphic" in2="effect1_dropShadow_420_2079" result="shape"/>
</filter>
</defs>
</svg>
