<svg width="75" height="90" viewBox="0 0 75 90" fill="none" xmlns="http://www.w3.org/2000/svg">
<g filter="url(#filter0_d_420_2079)">
<path d="M37.0463 74.3235L18.8971 52.7206L56.1029 52.7206L37.0463 74.3235Z" fill="#008FDF"/>
<path d="M65 32.5C65 47.6878 52.6878 60 37.5 60C22.3122 60 10 47.6878 10 32.5C10 17.3122 22.3122 5 37.5 5C52.6878 5 65 17.3122 65 32.5Z" fill="white"/>
<path d="M37.0463 74.3235L18.8971 52.7206L56.1029 52.7206L37.0463 74.3235Z" stroke="white" stroke-width="4" stroke-linejoin="round"/>
<path d="M65 32.5C65 47.6878 52.6878 60 37.5 60C22.3122 60 10 47.6878 10 32.5C10 17.3122 22.3122 5 37.5 5C52.6878 5 65 17.3122 65 32.5Z" stroke="white" stroke-width="4" stroke-linejoin="round"/>
</g>
<path d="M37.0464 74.3237L18.8971 52.7208L56.103 52.7208L37.0464 74.3237Z" fill="#FF6B00"/>
<path d="M61.9091 32.5C61.9091 45.9808 50.9808 56.9091 37.5 56.9091C24.0192 56.9091 13.0909 45.9808 13.0909 32.5C13.0909 19.0192 24.0192 8.09091 37.5 8.09091C50.9808 8.09091 61.9091 19.0192 61.9091 32.5Z" fill="#FF6B00" stroke="#FF6B00" stroke-width="6.18182"/>
<ellipse cx="37.853" cy="33" rx="23" ry="23" fill="white"/>
<g clip-path="url(#clip0_420_2079)">
<path d="M52.9737 31.9535L39.3766 25.7783V23.8865L46.0159 21.4656C46.305 21.3613 46.4958 21.086 46.4958 20.7792C46.4958 20.4724 46.303 20.1971 46.0159 20.0929L37.6578 17.0446C37.4336 16.962 37.1839 16.9955 36.9892 17.1331C36.7945 17.2708 36.6765 17.493 36.6765 17.731V18.5334C36.6431 18.6533 36.6234 18.7792 36.6234 18.911V25.7783L23.0263 31.9535C22.3164 32.276 21.927 33.0508 22.0922 33.8139C22.2574 34.5769 22.9319 35.1217 23.7126 35.1217H25.7087V47.9184C25.7087 48.5162 26.1925 49 26.7904 49H49.2097C49.8075 49 50.2913 48.5162 50.2913 47.9184V35.1217H52.2874C53.0681 35.1217 53.7427 34.5769 53.9079 33.8139C54.0731 33.0508 53.6837 32.276 52.9737 31.9535ZM41.4966 46.8367H34.5034V44.3785C34.5034 42.4512 36.0728 40.8819 38 40.8819C39.9273 40.8819 41.4966 42.4512 41.4966 44.3785V46.8367ZM48.128 46.8367H43.3531V44.3785C43.3531 41.4266 40.9519 39.0254 38 39.0254C35.0481 39.0254 32.6469 41.4266 32.6469 44.3785V46.8367H27.872V35.1217H48.128V46.8367Z" fill="#FF6B00"/>
</g>
<defs>
<filter id="filter0_d_420_2079" x="0" y="0" width="75" height="89.3237" filterUnits="userSpaceOnUse" color-interpolation-filters="sRGB">
<feFlood flood-opacity="0" result="BackgroundImageFix"/>
<feColorMatrix in="SourceAlpha" type="matrix" values="0 0 0 0 0 0 0 0 0 0 0 0 0 0 0 0 0 0 127 0" result="hardAlpha"/>
<feOffset dy="5"/>
<feGaussianBlur stdDeviation="4"/>
<feComposite in2="hardAlpha" operator="out"/>
<feColorMatrix type="matrix" values="0 0 0 0 0 0 0 0 0 0 0 0 0 0 0 0 0 0 0.25 0"/>
<feBlend mode="normal" in2="BackgroundImageFix" result="effect1_dropShadow_420_2079"/>
<feBlend mode="normal" in="SourceGraphic" in2="effect1_dropShadow_420_2079" result="shape"/>
</filter>
<clipPath id="clip0_420_2079">
<rect width="32" height="32" fill="white" transform="translate(22 17)"/>
</clipPath>
</defs>
</svg>
