<svg width="75" height="90" viewBox="0 0 75 90" fill="none" xmlns="http://www.w3.org/2000/svg">
<g filter="url(#filter0_d_463_2053)">
<path d="M37.0463 74.3235L18.8971 52.7206L56.1029 52.7206L37.0463 74.3235Z" fill="#008FDF"/>
<path d="M65 32.5C65 47.6878 52.6878 60 37.5 60C22.3122 60 10 47.6878 10 32.5C10 17.3122 22.3122 5 37.5 5C52.6878 5 65 17.3122 65 32.5Z" fill="white"/>
<path d="M37.0463 74.3235L18.8971 52.7206L56.1029 52.7206L37.0463 74.3235Z" stroke="white" stroke-width="4" stroke-linejoin="round"/>
<path d="M65 32.5C65 47.6878 52.6878 60 37.5 60C22.3122 60 10 47.6878 10 32.5C10 17.3122 22.3122 5 37.5 5C52.6878 5 65 17.3122 65 32.5Z" stroke="white" stroke-width="4" stroke-linejoin="round"/>
</g>
<path d="M37.0464 74.3235L18.8971 52.7205L56.103 52.7205L37.0464 74.3235Z" fill="#FF0000"/>
<path d="M61.9091 32.5C61.9091 45.9808 50.9808 56.9091 37.5 56.9091C24.0192 56.9091 13.0909 45.9808 13.0909 32.5C13.0909 19.0192 24.0192 8.09091 37.5 8.09091C50.9808 8.09091 61.9091 19.0192 61.9091 32.5Z" fill="#FF0000" stroke="#FF0000" stroke-width="6.18182"/>
<ellipse cx="37.853" cy="33" rx="23" ry="23" fill="white"/>
<path d="M38.051 25.3052C39.7921 25.3052 41.2036 23.8937 41.2036 22.1526C41.2036 20.4115 39.7921 19 38.051 19C36.3099 19 34.8984 20.4115 34.8984 22.1526C34.8984 23.8937 36.3099 25.3052 38.051 25.3052Z" fill="#FF0000"/>
<path d="M49.0432 36.3936L43.3856 27.2406C43.1298 26.827 42.631 26.6583 42.1884 26.8034C42.1303 26.7907 42.0723 26.7835 42.0106 26.7835H36.8519C36.6886 26.7835 36.5362 26.8324 36.4074 26.9141C36.0973 26.905 35.7853 27.032 35.5749 27.2914L31.5353 32.2778L27.5846 34.1752C27.0712 34.4219 26.8554 35.0368 27.1021 35.5501C27.2018 35.7569 27.3596 35.9129 27.5483 36.0109V46.3248C27.5483 46.8943 28.009 47.3551 28.5786 47.3551C29.1482 47.3551 29.6089 46.8943 29.6089 46.3248V35.4884L32.6381 34.0355C32.776 33.9702 32.8975 33.8741 32.9937 33.7543L36.0211 30.0177V46.3266C36.0211 46.9705 36.5435 47.4911 37.1856 47.4911C37.8277 47.4911 38.3501 46.9687 38.3501 46.3266V39.265H40.5141V46.3266C40.5141 46.9705 41.0366 47.4911 41.6787 47.4911C42.3208 47.4911 42.8432 46.9687 42.8432 46.3266V30.2807L47.2928 37.4765C47.4887 37.7921 47.8242 37.9644 48.1707 37.9644C48.3557 37.9644 48.5425 37.9155 48.7112 37.8103C49.1956 37.511 49.3461 36.8761 49.0468 36.3918L49.0432 36.3936Z" fill="#FF0000"/>
<defs>
<filter id="filter0_d_463_2053" x="0" y="0" width="75" height="89.3235" filterUnits="userSpaceOnUse" color-interpolation-filters="sRGB">
<feFlood flood-opacity="0" result="BackgroundImageFix"/>
<feColorMatrix in="SourceAlpha" type="matrix" values="0 0 0 0 0 0 0 0 0 0 0 0 0 0 0 0 0 0 127 0" result="hardAlpha"/>
<feOffset dy="5"/>
<feGaussianBlur stdDeviation="4"/>
<feComposite in2="hardAlpha" operator="out"/>
<feColorMatrix type="matrix" values="0 0 0 0 0 0 0 0 0 0 0 0 0 0 0 0 0 0 0.25 0"/>
<feBlend mode="normal" in2="BackgroundImageFix" result="effect1_dropShadow_463_2053"/>
<feBlend mode="normal" in="SourceGraphic" in2="effect1_dropShadow_463_2053" result="shape"/>
</filter>
</defs>
</svg>
