<svg width="66" height="91" viewBox="0 0 66 91" fill="none" xmlns="http://www.w3.org/2000/svg">
<g filter="url(#filter0_d_6_311)">
<path d="M32.9767 1.30005C17.5212 1.30005 5 14.1377 5 29.6454C5 45.1443 24.6234 81.5 32.9767 81.5C41.3301 81.5 60.9535 45.1443 60.9535 29.6454C60.9535 14.1377 48.4234 1.30005 32.9767 1.30005Z" fill="#FF2020"/>
<path d="M32.9767 1.30005C17.5212 1.30005 5 14.1377 5 29.6454C5 45.1443 24.6234 81.5 32.9767 81.5C41.3301 81.5 60.9535 45.1443 60.9535 29.6454C60.9535 14.1377 48.4234 1.30005 32.9767 1.30005Z" stroke="white" stroke-width="2"/>
</g>
<path d="M10 29.3C10 42.0026 20.2975 52.3 33 52.3C45.7025 52.3 56 42.0026 56 29.3C56 16.5975 45.7025 6.30005 33 6.30005C20.2975 6.30005 10 16.5975 10 29.3Z" fill="white"/>
<path d="M33.051 21.6052C34.7921 21.6052 36.2036 20.1938 36.2036 18.4526C36.2036 16.7115 34.7921 15.3 33.051 15.3C31.3099 15.3 29.8984 16.7115 29.8984 18.4526C29.8984 20.1938 31.3099 21.6052 33.051 21.6052Z" fill="#FF2020"/>
<path d="M44.0432 32.6936L38.3856 23.5406C38.1298 23.127 37.631 22.9583 37.1884 23.1035C37.1303 23.0908 37.0723 23.0835 37.0106 23.0835H31.8519C31.6886 23.0835 31.5362 23.1325 31.4074 23.2141C31.0973 23.205 30.7853 23.332 30.5749 23.5914L26.5353 28.5779L22.5846 30.4752C22.0712 30.7219 21.8554 31.3368 22.1021 31.8502C22.2018 32.057 22.3596 32.2129 22.5483 32.3109V42.6248C22.5483 43.1944 23.009 43.6551 23.5786 43.6551C24.1482 43.6551 24.6089 43.1944 24.6089 42.6248V31.7885L27.6381 30.3355C27.776 30.2702 27.8975 30.1741 27.9937 30.0544L31.0211 26.3177V42.6266C31.0211 43.2706 31.5435 43.7912 32.1856 43.7912C32.8277 43.7912 33.3501 43.2688 33.3501 42.6266V35.5651H35.5141V42.6266C35.5141 43.2706 36.0366 43.7912 36.6787 43.7912C37.3208 43.7912 37.8432 43.2688 37.8432 42.6266V26.5807L42.2928 33.7765C42.4887 34.0922 42.8242 34.2645 43.1707 34.2645C43.3557 34.2645 43.5425 34.2155 43.7112 34.1103C44.1956 33.811 44.3461 33.1761 44.0468 32.6918L44.0432 32.6936Z" fill="#FF2020"/>
<defs>
<filter id="filter0_d_6_311" x="0" y="0.300049" width="65.9535" height="90.2" filterUnits="userSpaceOnUse" color-interpolation-filters="sRGB">
<feFlood flood-opacity="0" result="BackgroundImageFix"/>
<feColorMatrix in="SourceAlpha" type="matrix" values="0 0 0 0 0 0 0 0 0 0 0 0 0 0 0 0 0 0 127 0" result="hardAlpha"/>
<feOffset dy="4"/>
<feGaussianBlur stdDeviation="2"/>
<feComposite in2="hardAlpha" operator="out"/>
<feColorMatrix type="matrix" values="0 0 0 0 0 0 0 0 0 0 0 0 0 0 0 0 0 0 0.25 0"/>
<feBlend mode="normal" in2="BackgroundImageFix" result="effect1_dropShadow_6_311"/>
<feBlend mode="normal" in="SourceGraphic" in2="effect1_dropShadow_6_311" result="shape"/>
</filter>
</defs>
</svg>
