<svg width="75" height="90" viewBox="0 0 75 90" fill="none" xmlns="http://www.w3.org/2000/svg">
<g filter="url(#filter0_d_463_2065)">
<path d="M37.0463 74.3235L18.8971 52.7206L56.1029 52.7206L37.0463 74.3235Z" fill="#008FDF"/>
<path d="M65 32.5C65 47.6878 52.6878 60 37.5 60C22.3122 60 10 47.6878 10 32.5C10 17.3122 22.3122 5 37.5 5C52.6878 5 65 17.3122 65 32.5Z" fill="white"/>
<path d="M37.0463 74.3235L18.8971 52.7206L56.1029 52.7206L37.0463 74.3235Z" stroke="white" stroke-width="4" stroke-linejoin="round"/>
<path d="M65 32.5C65 47.6878 52.6878 60 37.5 60C22.3122 60 10 47.6878 10 32.5C10 17.3122 22.3122 5 37.5 5C52.6878 5 65 17.3122 65 32.5Z" stroke="white" stroke-width="4" stroke-linejoin="round"/>
</g>
<path d="M37.0464 74.3235L18.8971 52.7205L56.103 52.7205L37.0464 74.3235Z" fill="#00AFA8"/>
<path d="M61.9091 32.5C61.9091 45.9808 50.9808 56.9091 37.5 56.9091C24.0192 56.9091 13.0909 45.9808 13.0909 32.5C13.0909 19.0192 24.0192 8.09091 37.5 8.09091C50.9808 8.09091 61.9091 19.0192 61.9091 32.5Z" fill="#00AFA8" stroke="#00AFA8" stroke-width="6.18182"/>
<ellipse cx="37.853" cy="33" rx="23" ry="23" fill="white"/>
<path d="M40.6435 34.5972L48.2577 29.9008C48.6141 29.6809 48.7877 29.1516 48.6402 28.7398L47.1323 24.5372C47.0875 24.4105 47.1118 24.2539 47.192 24.1365L50.9991 18.7245C51.2119 18.4207 50.9879 18.0144 50.7024 18.184L42.9371 22.7649C42.6291 22.9755 42.4631 23.4228 42.5526 23.8104L43.4372 27.6737C43.4988 27.944 43.4372 28.2552 43.2767 28.4919L39.9381 33.3616C39.451 34.0717 39.9847 35.0054 40.6454 34.5972H40.6435ZM47.9572 39.5732C49.0564 39.0234 50.3142 39.001 51.406 39.5135C52.1524 39.8639 53.0408 39.5452 53.3935 38.7998C53.7443 38.0543 53.4252 37.1672 52.6787 36.8168C50.7528 35.9111 48.5451 35.9446 46.621 36.9081C44.9451 37.7468 43.6761 39.206 43.0192 41.0026L34.4924 41.051L29.5264 35.749C29.4761 35.6949 29.4201 35.6465 29.3622 35.6017L33.2477 21.151L35.7745 21.2069C36.5975 21.2236 37.2824 20.5732 37.3011 19.7495C37.3198 18.9258 36.6666 18.2437 35.8417 18.225L32.1447 18.143C31.4561 18.1318 30.8477 18.5828 30.6704 19.2463L25.0363 40.2012C25.0363 40.2012 25.0345 40.2143 25.0326 40.2199C23.3008 40.6038 22 42.1469 22 43.99C22 46.1202 23.7356 47.8552 25.8705 47.8552C28.0055 47.8552 29.7411 46.122 29.7411 43.99C29.7411 42.637 29.0394 41.4443 27.9812 40.7547L28.4608 38.9693L32.7625 43.5614C33.0443 43.8633 33.4399 44.0348 33.8523 44.0348H33.8598L43.7507 43.9788C43.8534 43.9788 43.9542 43.9677 44.0512 43.9472C44.0867 43.949 44.1203 43.9528 44.1557 43.9528C44.8574 43.9528 45.4733 43.4608 45.617 42.76C45.9081 41.3362 46.7628 40.1733 47.9647 39.5732H47.9572ZM25.8649 45.9916C24.7601 45.9916 23.8606 45.0933 23.8606 43.99C23.8606 42.8867 24.7601 41.9885 25.8649 41.9885C25.9079 41.9885 25.9508 41.9922 25.9918 41.9941C26.0236 42.0052 26.0534 42.0164 26.087 42.0239C26.2065 42.0556 26.3278 42.0705 26.4453 42.0742C27.2683 42.3239 27.8692 43.0862 27.8692 43.9882C27.8692 45.0914 26.9697 45.9897 25.8649 45.9897V45.9916ZM50.1295 40.1267C47.9964 40.1267 46.2589 41.8599 46.2589 43.9919C46.2589 46.1239 47.9945 47.8571 50.1295 47.8571C52.2644 47.8571 54 46.1239 54 43.9919C54 41.8599 52.2644 40.1267 50.1295 40.1267ZM50.1295 45.9916C49.0247 45.9916 48.1252 45.0933 48.1252 43.99C48.1252 42.8867 49.0247 41.9885 50.1295 41.9885C51.2343 41.9885 52.1338 42.8867 52.1338 43.99C52.1338 45.0933 51.2343 45.9916 50.1295 45.9916Z" fill="#00AFA8"/>
<defs>
<filter id="filter0_d_463_2065" x="0" y="0" width="75" height="89.3235" filterUnits="userSpaceOnUse" color-interpolation-filters="sRGB">
<feFlood flood-opacity="0" result="BackgroundImageFix"/>
<feColorMatrix in="SourceAlpha" type="matrix" values="0 0 0 0 0 0 0 0 0 0 0 0 0 0 0 0 0 0 127 0" result="hardAlpha"/>
<feOffset dy="5"/>
<feGaussianBlur stdDeviation="4"/>
<feComposite in2="hardAlpha" operator="out"/>
<feColorMatrix type="matrix" values="0 0 0 0 0 0 0 0 0 0 0 0 0 0 0 0 0 0 0.25 0"/>
<feBlend mode="normal" in2="BackgroundImageFix" result="effect1_dropShadow_463_2065"/>
<feBlend mode="normal" in="SourceGraphic" in2="effect1_dropShadow_463_2065" result="shape"/>
</filter>
</defs>
</svg>
