<svg width="75" height="90" viewBox="0 0 75 90" fill="none" xmlns="http://www.w3.org/2000/svg">
<g filter="url(#filter0_d_420_1971)">
<path d="M37.0463 74.3235L18.8971 52.7206L56.1029 52.7206L37.0463 74.3235Z" fill="#008FDF"/>
<path d="M65 32.5C65 47.6878 52.6878 60 37.5 60C22.3122 60 10 47.6878 10 32.5C10 17.3122 22.3122 5 37.5 5C52.6878 5 65 17.3122 65 32.5Z" fill="white"/>
<path d="M37.0463 74.3235L18.8971 52.7206L56.1029 52.7206L37.0463 74.3235Z" stroke="white" stroke-width="4" stroke-linejoin="round"/>
<path d="M65 32.5C65 47.6878 52.6878 60 37.5 60C22.3122 60 10 47.6878 10 32.5C10 17.3122 22.3122 5 37.5 5C52.6878 5 65 17.3122 65 32.5Z" stroke="white" stroke-width="4" stroke-linejoin="round"/>
</g>
<path d="M37.0464 74.3235L18.8971 52.7205L56.103 52.7205L37.0464 74.3235Z" fill="#008000"/>
<path d="M61.9091 32.5C61.9091 45.9808 50.9808 56.9091 37.5 56.9091C24.0192 56.9091 13.0909 45.9808 13.0909 32.5C13.0909 19.0192 24.0192 8.09091 37.5 8.09091C50.9808 8.09091 61.9091 19.0192 61.9091 32.5Z" fill="#008000" stroke="#008000" stroke-width="6.18182"/>
<ellipse cx="37.853" cy="33" rx="23" ry="23" fill="white"/>
<path d="M37.5089 19.1871L33.3777 47.9599C33.3409 48.2143 33.5393 48.4431 33.7969 48.4431H42.0577C42.3153 48.4431 42.5137 48.2143 42.4769 47.9599L38.3473 19.1871C38.2785 18.7023 37.5793 18.7023 37.5089 19.1871Z" fill="#008000"/>
<path d="M31.9775 29.8575L36.0143 28.2927C36.6015 28.0655 36.6191 27.2415 36.0447 26.9887L31.9007 25.1599C31.4975 24.9823 31.0223 25.2111 30.9279 25.6431C30.6671 26.8463 30.6959 28.2383 31.0447 29.4063C31.1615 29.7999 31.5951 30.0063 31.9775 29.8575Z" fill="#008000"/>
<path d="M23.9984 33.2224L24.8592 32.888C24.8384 32.8368 24.816 32.7888 24.7968 32.7376C23.3904 29.1104 23.4448 25.1616 24.936 21.5808L24.0912 21.208C22.5008 25.0144 22.44 29.2144 23.936 33.072C23.9552 33.1232 23.9792 33.1728 23.9984 33.2224Z" fill="#008000"/>
<path d="M27.2529 31.96L28.1137 31.6256C28.0929 31.5744 28.0705 31.5248 28.0513 31.4752C26.9489 28.632 27.0625 25.6128 28.1345 22.9904L27.2849 22.616C26.0705 25.5696 26.0321 28.8208 27.1905 31.8096C27.2097 31.8608 27.2337 31.9104 27.2529 31.96Z" fill="#008000"/>
<path d="M43.6623 29.8575L39.6255 28.2927C39.0383 28.0655 39.0207 27.2415 39.5951 26.9887L43.7391 25.1599C44.1423 24.9823 44.6175 25.2111 44.7119 25.6431C44.9727 26.8463 44.9439 28.2383 44.5951 29.4063C44.4783 29.7999 44.0447 30.0063 43.6623 29.8575Z" fill="#008000"/>
<path d="M51.6415 33.2224L50.7807 32.888C50.8015 32.8368 50.8239 32.7888 50.8431 32.7376C52.2495 29.1104 52.1951 25.1616 50.7039 21.5808L51.5487 21.208C53.1391 25.0144 53.1999 29.2144 51.7039 33.072C51.6847 33.1232 51.6607 33.1728 51.6415 33.2224Z" fill="#008000"/>
<path d="M48.3872 31.96L47.5264 31.6256C47.5472 31.5744 47.5696 31.5248 47.5888 31.4752C48.6912 28.632 48.5776 25.6128 47.5056 22.9904L48.3552 22.616C49.5696 25.5696 49.608 28.8208 48.4496 31.8096C48.4304 31.8608 48.4064 31.9104 48.3872 31.96Z" fill="#008000"/>
<defs>
<filter id="filter0_d_420_1971" x="0" y="0" width="75" height="89.3235" filterUnits="userSpaceOnUse" color-interpolation-filters="sRGB">
<feFlood flood-opacity="0" result="BackgroundImageFix"/>
<feColorMatrix in="SourceAlpha" type="matrix" values="0 0 0 0 0 0 0 0 0 0 0 0 0 0 0 0 0 0 127 0" result="hardAlpha"/>
<feOffset dy="5"/>
<feGaussianBlur stdDeviation="4"/>
<feComposite in2="hardAlpha" operator="out"/>
<feColorMatrix type="matrix" values="0 0 0 0 0 0 0 0 0 0 0 0 0 0 0 0 0 0 0.25 0"/>
<feBlend mode="normal" in2="BackgroundImageFix" result="effect1_dropShadow_420_1971"/>
<feBlend mode="normal" in="SourceGraphic" in2="effect1_dropShadow_420_1971" result="shape"/>
</filter>
</defs>
</svg>
