<svg width="75" height="90" viewBox="0 0 75 90" fill="none" xmlns="http://www.w3.org/2000/svg">
<g filter="url(#filter0_d_415_1534)">
<path d="M37.0463 74.3235L18.8971 52.7206L56.1029 52.7206L37.0463 74.3235Z" fill="#008FDF"/>
<path d="M65 32.5C65 47.6878 52.6878 60 37.5 60C22.3122 60 10 47.6878 10 32.5C10 17.3122 22.3122 5 37.5 5C52.6878 5 65 17.3122 65 32.5Z" fill="white"/>
<path d="M37.0463 74.3235L18.8971 52.7206L56.1029 52.7206L37.0463 74.3235Z" stroke="white" stroke-width="4" stroke-linejoin="round"/>
<path d="M65 32.5C65 47.6878 52.6878 60 37.5 60C22.3122 60 10 47.6878 10 32.5C10 17.3122 22.3122 5 37.5 5C52.6878 5 65 17.3122 65 32.5Z" stroke="white" stroke-width="4" stroke-linejoin="round"/>
</g>
<path d="M37.0464 74.3235L18.8971 52.7205L56.103 52.7205L37.0464 74.3235Z" fill="#00A560"/>
<path d="M61.9091 32.5C61.9091 45.9808 50.9808 56.9091 37.5 56.9091C24.0192 56.9091 13.0909 45.9808 13.0909 32.5C13.0909 19.0192 24.0192 8.09091 37.5 8.09091C50.9808 8.09091 61.9091 19.0192 61.9091 32.5Z" fill="#00A560" stroke="#00A560" stroke-width="6.18182"/>
<ellipse cx="37.853" cy="33" rx="23" ry="23" fill="white"/>
<path d="M50.7679 24.6655L39.1183 18.8463C38.4591 18.5167 37.5391 18.5167 36.8799 18.8463L25.2319 24.6655C24.5087 25.0271 23.9839 25.8751 23.9839 26.6831V45.5391C23.9839 46.5647 24.8175 47.3983 25.8431 47.3983H50.1567C51.1823 47.3983 52.0159 46.5647 52.0159 45.5391V26.6847C52.0159 25.8767 51.4911 25.0271 50.7679 24.6671V24.6655ZM49.5855 44.9711H26.4143V26.7919L37.9391 21.0335C37.9727 21.0271 38.0271 21.0271 38.0607 21.0335L49.5855 26.7919V44.9711Z" fill="#00A560"/>
<path d="M34.6831 32.7969C35.6959 34.0929 36.2015 35.4433 36.2015 36.8497C36.2015 37.5377 36.0831 38.0465 35.8479 38.3761C35.5487 38.7857 35.0159 38.9905 34.2511 38.9905C33.8783 38.9905 33.4975 38.9649 33.1103 38.9121L32.7727 37.2993C33.2559 37.3937 33.6351 37.4417 33.9135 37.4417C34.1919 37.4417 34.3487 37.3889 34.4175 37.2849C34.4911 37.1585 34.5279 36.9121 34.5279 36.5457C34.5279 35.3345 34.0431 34.1409 33.0719 32.9649C33.5695 31.7425 33.9583 30.4737 34.2367 29.1569H32.6079V42.3281H30.9631V27.6769H35.3775L36.1727 28.3857C35.7007 30.1121 35.2047 31.5825 34.6863 32.8001L34.6831 32.7969ZM40.4271 31.1617C40.4111 32.0593 40.3791 32.8097 40.3327 33.4113H44.6607C44.6287 36.6065 44.5007 39.0001 44.2751 40.5953C44.2223 41.0049 44.0911 41.3265 43.8815 41.5633C43.5663 41.9297 43.0047 42.1137 42.1983 42.1137C41.4319 42.1137 40.7471 42.0817 40.1439 42.0193L39.8367 40.2721C40.5391 40.4145 41.1919 40.4849 41.7967 40.4849C42.1487 40.4849 42.3759 40.3953 42.4815 40.2177C42.7391 39.7873 42.8991 38.0177 42.9615 34.9073H40.1759C39.7567 38.3377 38.4687 40.8065 36.3119 42.3121L35.0607 41.0689C36.6559 39.9889 37.6911 38.4673 38.1695 36.5057C38.4943 35.1681 38.6783 33.3873 38.7199 31.1633H35.8799V29.5969H39.4527V27.0161H41.1759V29.5969H45.7551V31.1633H40.4287L40.4271 31.1617Z" fill="#00A560"/>
<defs>
<filter id="filter0_d_415_1534" x="0" y="0" width="75" height="89.3235" filterUnits="userSpaceOnUse" color-interpolation-filters="sRGB">
<feFlood flood-opacity="0" result="BackgroundImageFix"/>
<feColorMatrix in="SourceAlpha" type="matrix" values="0 0 0 0 0 0 0 0 0 0 0 0 0 0 0 0 0 0 127 0" result="hardAlpha"/>
<feOffset dy="5"/>
<feGaussianBlur stdDeviation="4"/>
<feComposite in2="hardAlpha" operator="out"/>
<feColorMatrix type="matrix" values="0 0 0 0 0 0 0 0 0 0 0 0 0 0 0 0 0 0 0.25 0"/>
<feBlend mode="normal" in2="BackgroundImageFix" result="effect1_dropShadow_415_1534"/>
<feBlend mode="normal" in="SourceGraphic" in2="effect1_dropShadow_415_1534" result="shape"/>
</filter>
</defs>
</svg>
