<svg width="75" height="90" viewBox="0 0 75 90" fill="none" xmlns="http://www.w3.org/2000/svg">
<g filter="url(#filter0_d_808_2652)">
<path d="M37.0463 74.3235L18.8971 52.7206L56.1029 52.7206L37.0463 74.3235Z" fill="#008FDF"/>
<path d="M65 32.5C65 47.6878 52.6878 60 37.5 60C22.3122 60 10 47.6878 10 32.5C10 17.3122 22.3122 5 37.5 5C52.6878 5 65 17.3122 65 32.5Z" fill="white"/>
<path d="M37.0463 74.3235L18.8971 52.7206L56.1029 52.7206L37.0463 74.3235Z" stroke="white" stroke-width="4" stroke-linejoin="round"/>
<path d="M65 32.5C65 47.6878 52.6878 60 37.5 60C22.3122 60 10 47.6878 10 32.5C10 17.3122 22.3122 5 37.5 5C52.6878 5 65 17.3122 65 32.5Z" stroke="white" stroke-width="4" stroke-linejoin="round"/>
</g>
<path d="M37.0459 74.3237L18.8967 52.7208L56.1025 52.7208L37.0459 74.3237Z" fill="#00A560"/>
<path d="M37.5 8.09082C50.9808 8.09082 61.9092 19.0192 61.9092 32.5C61.9092 45.9808 50.9808 56.9092 37.5 56.9092C24.0192 56.9092 13.0908 45.9808 13.0908 32.5C13.0908 19.0192 24.0192 8.09082 37.5 8.09082Z" fill="#00A560" stroke="#00A560" stroke-width="6.18182"/>
<ellipse cx="37.8525" cy="33" rx="23" ry="23" fill="white"/>
<path d="M48.7093 24.8829V31.5799H50.687V44.0378L45.5366 43.9749V20.7241C45.5366 18.9907 44.1251 17.5791 42.3916 17.5791H26.7388C25.0053 17.5791 23.5938 18.9907 23.5938 20.7241V49.4194H45.5347V45.8268L51.599 45.9007C51.599 45.9007 51.6065 45.9007 51.6102 45.9007C51.8525 45.9007 52.0874 45.8045 52.2595 45.6343C52.4352 45.4604 52.5352 45.2236 52.5352 44.9757V31.5817H55.4045V24.8848H48.7075L48.7093 24.8829ZM43.6848 47.5713H25.4438V20.7241C25.4438 20.01 26.0247 19.4291 26.7388 19.4291H42.3898C43.1039 19.4291 43.6848 20.01 43.6848 20.7241V47.5694V47.5713ZM50.7888 20.5613H48.9388V24.426H50.7888V20.5613ZM55.0308 20.5613H53.1808V24.426H55.0308V20.5613ZM27.6267 28.7013H41.5018V21.8563H27.6267V28.7013ZM29.4767 23.7063H39.6518V26.8513H29.4767V23.7063ZM37.5464 30.2664L29.4379 37.2224L33.3766 38.991L29.6839 46.6944L38.7416 38.3324L34.8806 36.6822L37.5464 30.2664Z" fill="#00A560"/>
<defs>
<filter id="filter0_d_808_2652" x="0" y="0" width="75" height="89.3237" filterUnits="userSpaceOnUse" color-interpolation-filters="sRGB">
<feFlood flood-opacity="0" result="BackgroundImageFix"/>
<feColorMatrix in="SourceAlpha" type="matrix" values="0 0 0 0 0 0 0 0 0 0 0 0 0 0 0 0 0 0 127 0" result="hardAlpha"/>
<feOffset dy="5"/>
<feGaussianBlur stdDeviation="4"/>
<feComposite in2="hardAlpha" operator="out"/>
<feColorMatrix type="matrix" values="0 0 0 0 0 0 0 0 0 0 0 0 0 0 0 0 0 0 0.25 0"/>
<feBlend mode="normal" in2="BackgroundImageFix" result="effect1_dropShadow_808_2652"/>
<feBlend mode="normal" in="SourceGraphic" in2="effect1_dropShadow_808_2652" result="shape"/>
</filter>
</defs>
</svg>
