<svg width="67" height="91" viewBox="0 0 67 91" fill="none" xmlns="http://www.w3.org/2000/svg">
<g filter="url(#filter0_d_6_319)">
<path d="M33.0837 1.6001C17.6282 1.6001 5.10693 14.4377 5.10693 29.9455C5.10693 45.4444 24.7303 81.8001 33.0837 81.8001C41.4371 81.8001 61.0604 45.4444 61.0604 29.9455C61.0604 14.4377 48.5304 1.6001 33.0837 1.6001Z" fill="#00A560"/>
<path d="M33.0837 1.6001C17.6282 1.6001 5.10693 14.4377 5.10693 29.9455C5.10693 45.4444 24.7303 81.8001 33.0837 81.8001C41.4371 81.8001 61.0604 45.4444 61.0604 29.9455C61.0604 14.4377 48.5304 1.6001 33.0837 1.6001Z" stroke="white" stroke-width="2"/>
</g>
<path d="M33.1069 51.6001C20.9567 51.6001 11.1069 41.7504 11.1069 29.6001C11.1069 17.4498 20.9567 7.6001 33.1069 7.6001C45.2572 7.6001 55.1069 17.4498 55.1069 29.6001C55.1069 41.7504 45.2572 51.6001 33.1069 51.6001Z" fill="#00A560" stroke="white" stroke-width="2"/>
<path d="M32.262 24.5275C32.262 25.5572 31.4276 26.4004 30.3891 26.4004C29.3505 26.4004 28.5161 25.5661 28.5161 24.5275C28.5161 23.4889 29.3505 22.6545 30.3891 22.6545C31.4276 22.6545 32.262 23.4889 32.262 24.5275Z" fill="white"/>
<path d="M27.5573 30.173C26.5099 30.1286 25.3825 30.0931 24.8588 30.0931C24.3351 30.0931 23.8291 30.3416 23.8469 31.0162C23.8646 31.6909 24.3972 31.8418 24.9032 31.8684L25.2405 31.8862C25.2405 31.8862 26.9714 31.9838 27.7437 32.0193C28.516 32.0548 28.6757 31.753 28.9775 31.3802C29.2882 31.0074 30.2025 29.667 30.2025 29.667L31.6849 33.0312L27.2732 42.3694H28.4982C29.661 42.3694 29.7587 42.0942 30.0871 41.5438C30.4155 40.9935 33.8419 33.9633 33.8419 33.9633C33.8419 33.9633 34.0283 36.7416 34.1171 37.9133C34.2058 39.085 34.9337 39.0495 35.6705 39.0495H42.0527C42.0527 39.0495 41.8397 38.5968 41.4491 37.8423C41.0497 37.0878 40.4105 37.0612 39.7892 37.0612H36.2918C36.2918 37.0612 36.1587 35.1438 36.0344 33.7769C35.9101 32.4099 35.7681 32.0903 35.4929 31.4867C35.2178 30.8742 34.0993 28.4243 34.0993 28.4243H36.1853C36.1853 28.4243 37.3393 30.3949 37.5878 30.821C37.8452 31.2559 38.218 31.6642 38.8039 31.3713C39.3897 31.0873 39.372 30.528 39.1234 30.0665C38.8749 29.6049 38.3246 28.6196 37.8097 27.7142C37.286 26.8088 36.9309 26.6667 36.0699 26.6312C35.2089 26.5957 33.185 26.5691 31.7737 26.5691C30.3623 26.5691 29.8829 26.9597 29.4214 27.5544C28.9598 28.1491 27.5395 30.1907 27.5395 30.1907L27.5573 30.173Z" fill="white"/>
<path d="M32.9544 10.6001L19.1069 20.3643V42.6001H25.9951V20.7105H40.6592V42.6001H47.7427V20.3643L32.9544 10.6001Z" fill="white"/>
<defs>
<filter id="filter0_d_6_319" x="0.106934" y="0.600098" width="65.9535" height="90.2" filterUnits="userSpaceOnUse" color-interpolation-filters="sRGB">
<feFlood flood-opacity="0" result="BackgroundImageFix"/>
<feColorMatrix in="SourceAlpha" type="matrix" values="0 0 0 0 0 0 0 0 0 0 0 0 0 0 0 0 0 0 127 0" result="hardAlpha"/>
<feOffset dy="4"/>
<feGaussianBlur stdDeviation="2"/>
<feComposite in2="hardAlpha" operator="out"/>
<feColorMatrix type="matrix" values="0 0 0 0 0 0 0 0 0 0 0 0 0 0 0 0 0 0 0.25 0"/>
<feBlend mode="normal" in2="BackgroundImageFix" result="effect1_dropShadow_6_319"/>
<feBlend mode="normal" in="SourceGraphic" in2="effect1_dropShadow_6_319" result="shape"/>
</filter>
</defs>
</svg>
