<svg width="67" height="91" viewBox="0 0 67 91" fill="none" xmlns="http://www.w3.org/2000/svg">
<g filter="url(#filter0_d_6_320)">
<path d="M33.1371 1.6001C17.6816 1.6001 5.1604 14.4377 5.1604 29.9455C5.1604 45.4444 24.7838 81.8001 33.1371 81.8001C41.4905 81.8001 61.1139 45.4444 61.1139 29.9455C61.1139 14.4377 48.5838 1.6001 33.1371 1.6001Z" fill="#00A560"/>
<path d="M33.1371 1.6001C17.6816 1.6001 5.1604 14.4377 5.1604 29.9455C5.1604 45.4444 24.7838 81.8001 33.1371 81.8001C41.4905 81.8001 61.1139 45.4444 61.1139 29.9455C61.1139 14.4377 48.5838 1.6001 33.1371 1.6001Z" stroke="white" stroke-width="2"/>
</g>
<path d="M10.1604 29.6001C10.1604 42.3026 20.4579 52.6001 33.1604 52.6001C45.8629 52.6001 56.1604 42.3026 56.1604 29.6001C56.1604 16.8975 45.8629 6.6001 33.1604 6.6001C20.4579 6.6001 10.1604 16.8975 10.1604 29.6001Z" fill="white"/>
<path d="M37.9513 33.4959C37.0032 35.4221 36.1186 37.1989 35.9282 37.5161L35.8647 37.6207C35.3944 38.4157 34.9987 38.8823 33.3675 38.8823H30.8292L33.737 32.727C32.4418 32.5889 31.2473 32.5366 30.3216 32.5366C26.1297 32.5366 16.4618 33.593 16.4618 39.1063C16.4618 44.6196 26.1334 45.676 30.3216 45.676C34.5097 45.676 44.1813 44.6196 44.1813 39.1063C44.1813 36.079 41.266 34.3993 37.9439 33.4959H37.9513Z" fill="#00A560"/>
<path d="M38.0714 16.1199C38.0714 17.3965 37.0374 18.4305 35.7608 18.4305C34.4842 18.4305 33.4502 17.3965 33.4502 16.1199C33.4502 14.8433 34.4842 13.8093 35.7608 13.8093C37.0374 13.8093 38.0714 14.8433 38.0714 16.1199Z" fill="#00A560"/>
<path d="M32.2565 23.089C30.965 23.0367 29.569 22.9882 28.9195 22.9882C28.27 22.9882 27.6503 23.2905 27.6727 24.1267C27.6914 24.9628 28.3558 25.1495 28.9754 25.1831L29.3972 25.2092C29.3972 25.2092 31.5324 25.3324 32.488 25.3734C33.4436 25.4145 33.6377 25.0449 34.0184 24.5783C34.4029 24.1155 35.5377 22.4581 35.5377 22.4581L37.3704 26.6164L31.9131 38.1544H33.4324C34.8695 38.1544 34.9889 37.8185 35.3995 37.1354C35.8101 36.4523 40.0356 27.7661 40.0356 27.7661C40.0356 27.7661 40.2671 31.2003 40.3791 32.6486C40.4873 34.0969 41.3906 34.0559 42.294 34.0559H50.185C50.185 34.0559 49.9237 33.4959 49.4348 32.5665C48.942 31.637 48.1469 31.596 47.3817 31.596H43.0592C43.0592 31.596 42.8949 29.2294 42.7456 27.5347C42.5963 25.84 42.4171 25.4556 42.0737 24.7053C41.7303 23.9512 40.3529 20.9165 40.3529 20.9165H42.936C42.936 20.9165 44.3582 23.3503 44.6717 23.8841C44.9853 24.4178 45.4519 24.9218 46.176 24.5672C46.9002 24.2125 46.8741 23.5294 46.5717 22.9546C46.2694 22.3797 45.5863 21.1629 44.9442 20.043C44.3022 18.9232 43.8617 18.744 42.7979 18.703C41.7303 18.6619 39.2294 18.6208 37.4899 18.6208C35.7504 18.6208 35.1532 19.0986 34.5783 19.8377C34.0035 20.5768 32.2528 23.0927 32.2528 23.0927L32.2565 23.089Z" fill="#00A560"/>
<defs>
<filter id="filter0_d_6_320" x="0.1604" y="0.600098" width="65.9535" height="90.2" filterUnits="userSpaceOnUse" color-interpolation-filters="sRGB">
<feFlood flood-opacity="0" result="BackgroundImageFix"/>
<feColorMatrix in="SourceAlpha" type="matrix" values="0 0 0 0 0 0 0 0 0 0 0 0 0 0 0 0 0 0 127 0" result="hardAlpha"/>
<feOffset dy="4"/>
<feGaussianBlur stdDeviation="2"/>
<feComposite in2="hardAlpha" operator="out"/>
<feColorMatrix type="matrix" values="0 0 0 0 0 0 0 0 0 0 0 0 0 0 0 0 0 0 0.25 0"/>
<feBlend mode="normal" in2="BackgroundImageFix" result="effect1_dropShadow_6_320"/>
<feBlend mode="normal" in="SourceGraphic" in2="effect1_dropShadow_6_320" result="shape"/>
</filter>
</defs>
</svg>
