<svg width="75" height="90" viewBox="0 0 75 90" fill="none" xmlns="http://www.w3.org/2000/svg">
<g filter="url(#filter0_d_415_1647)">
<path d="M37.0463 74.3235L18.8971 52.7206L56.1029 52.7206L37.0463 74.3235Z" fill="#008FDF"/>
<path d="M65 32.5C65 47.6878 52.6878 60 37.5 60C22.3122 60 10 47.6878 10 32.5C10 17.3122 22.3122 5 37.5 5C52.6878 5 65 17.3122 65 32.5Z" fill="white"/>
<path d="M37.0463 74.3235L18.8971 52.7206L56.1029 52.7206L37.0463 74.3235Z" stroke="white" stroke-width="4" stroke-linejoin="round"/>
<path d="M65 32.5C65 47.6878 52.6878 60 37.5 60C22.3122 60 10 47.6878 10 32.5C10 17.3122 22.3122 5 37.5 5C52.6878 5 65 17.3122 65 32.5Z" stroke="white" stroke-width="4" stroke-linejoin="round"/>
</g>
<path d="M54.7334 53.339L37.0578 73.3763L20.2239 53.339L54.7334 53.339Z" fill="#00A560" stroke="#00A560" stroke-width="1.23636"/>
<path d="M61.9091 32.5C61.9091 45.9808 50.9808 56.9091 37.5 56.9091C24.0192 56.9091 13.0909 45.9808 13.0909 32.5C13.0909 19.0192 24.0192 8.09091 37.5 8.09091C50.9808 8.09091 61.9091 19.0192 61.9091 32.5Z" fill="#00A560" stroke="#00A560" stroke-width="6.18182"/>
<path d="M59.853 33C59.853 45.1503 50.0033 55 37.853 55C25.7028 55 15.853 45.1503 15.853 33C15.853 20.8497 25.7028 11 37.853 11C50.0033 11 59.853 20.8497 59.853 33Z" fill="#00A560" stroke="white" stroke-width="2"/>
<path d="M37.2163 31.0602C37.2163 31.9869 36.4653 32.7458 35.5306 32.7458C34.5959 32.7458 33.845 31.9949 33.845 31.0602C33.845 30.1255 34.5959 29.3745 35.5306 29.3745C36.4653 29.3745 37.2163 30.1255 37.2163 31.0602Z" fill="white"/>
<path d="M32.9821 36.141C32.0394 36.101 31.0248 36.0691 30.5535 36.0691C30.0821 36.0691 29.6268 36.2927 29.6427 36.8999C29.6587 37.5071 30.1381 37.6429 30.5934 37.6668L30.897 37.6828C30.897 37.6828 32.4548 37.7707 33.1499 37.8026C33.8449 37.8346 33.9887 37.563 34.2603 37.2274C34.5399 36.8919 35.3628 35.6856 35.3628 35.6856L36.6969 38.7134L32.7265 47.1177H33.8289C34.8755 47.1177 34.9634 46.8701 35.2589 46.3747C35.5545 45.8794 38.6382 39.5522 38.6382 39.5522C38.6382 39.5522 38.806 42.0527 38.8859 43.1073C38.9658 44.1618 39.6209 44.1299 40.284 44.1299H46.028C46.028 44.1299 45.8363 43.7224 45.4847 43.0434C45.1252 42.3643 44.55 42.3403 43.9908 42.3403H40.8432C40.8432 42.3403 40.7234 40.6147 40.6115 39.3845C40.4997 38.1542 40.3718 37.8666 40.1242 37.3233C39.8765 36.7721 38.8699 34.5671 38.8699 34.5671H40.7473C40.7473 34.5671 41.7859 36.3407 42.0096 36.7241C42.2412 37.1156 42.5768 37.4831 43.104 37.2195C43.6313 36.9638 43.6153 36.4605 43.3916 36.0451C43.168 35.6297 42.6726 34.7429 42.2093 33.928C41.7379 33.1132 41.4184 32.9853 40.6435 32.9534C39.8685 32.9214 38.0471 32.8975 36.7768 32.8975C35.5066 32.8975 35.0752 33.249 34.6598 33.7842C34.2444 34.3195 32.9661 36.1569 32.9661 36.1569L32.9821 36.141Z" fill="white"/>
<path d="M37.8394 18.5254L25.3767 27.3132V47.3254H31.5761V27.6248H44.7738V47.3254H51.1489V27.3132L37.8394 18.5254Z" fill="white"/>
<defs>
<filter id="filter0_d_415_1647" x="0" y="0" width="75" height="89.3237" filterUnits="userSpaceOnUse" color-interpolation-filters="sRGB">
<feFlood flood-opacity="0" result="BackgroundImageFix"/>
<feColorMatrix in="SourceAlpha" type="matrix" values="0 0 0 0 0 0 0 0 0 0 0 0 0 0 0 0 0 0 127 0" result="hardAlpha"/>
<feOffset dy="5"/>
<feGaussianBlur stdDeviation="4"/>
<feComposite in2="hardAlpha" operator="out"/>
<feColorMatrix type="matrix" values="0 0 0 0 0 0 0 0 0 0 0 0 0 0 0 0 0 0 0.25 0"/>
<feBlend mode="normal" in2="BackgroundImageFix" result="effect1_dropShadow_415_1647"/>
<feBlend mode="normal" in="SourceGraphic" in2="effect1_dropShadow_415_1647" result="shape"/>
</filter>
</defs>
</svg>
