<svg width="75" height="90" viewBox="0 0 75 90" fill="none" xmlns="http://www.w3.org/2000/svg">
<g filter="url(#filter0_d_463_2077)">
<path d="M37.0463 74.3235L18.8971 52.7206L56.1029 52.7206L37.0463 74.3235Z" fill="#008FDF"/>
<path d="M65 32.5C65 47.6878 52.6878 60 37.5 60C22.3122 60 10 47.6878 10 32.5C10 17.3122 22.3122 5 37.5 5C52.6878 5 65 17.3122 65 32.5Z" fill="white"/>
<path d="M37.0463 74.3235L18.8971 52.7206L56.1029 52.7206L37.0463 74.3235Z" stroke="white" stroke-width="4" stroke-linejoin="round"/>
<path d="M65 32.5C65 47.6878 52.6878 60 37.5 60C22.3122 60 10 47.6878 10 32.5C10 17.3122 22.3122 5 37.5 5C52.6878 5 65 17.3122 65 32.5Z" stroke="white" stroke-width="4" stroke-linejoin="round"/>
</g>
<path d="M37.0464 74.3235L18.8971 52.7205L56.103 52.7205L37.0464 74.3235Z" fill="#008000"/>
<path d="M61.9091 32.5C61.9091 45.9808 50.9808 56.9091 37.5 56.9091C24.0192 56.9091 13.0909 45.9808 13.0909 32.5C13.0909 19.0192 24.0192 8.09091 37.5 8.09091C50.9808 8.09091 61.9091 19.0192 61.9091 32.5Z" fill="#008000" stroke="#008000" stroke-width="6.18182"/>
<ellipse cx="37.853" cy="33" rx="23" ry="23" fill="white"/>
<path d="M42.3914 36.769C41.4918 38.7032 40.6523 40.4874 40.4717 40.806L40.4114 40.911C39.9652 41.7094 39.5897 42.1779 38.0418 42.1779H35.6333L38.3925 35.9968C37.1634 35.8581 36.03 35.8057 35.1515 35.8057C31.1738 35.8057 22 36.8665 22 42.4028C22 47.9392 31.1774 49 35.1515 49C39.1257 49 48.3031 47.9392 48.3031 42.4028C48.3031 39.3629 45.5368 37.6761 42.3844 36.769H42.3914Z" fill="#008000"/>
<path d="M42.5051 19.3203C42.5051 20.6022 41.524 21.6405 40.3126 21.6405C39.1013 21.6405 38.1201 20.6022 38.1201 19.3203C38.1201 18.0383 39.1013 17 40.3126 17C41.524 17 42.5051 18.0383 42.5051 19.3203Z" fill="#008000"/>
<path d="M36.9876 26.3184C35.7621 26.2659 34.4374 26.2172 33.821 26.2172C33.2047 26.2172 32.6168 26.5208 32.638 27.3604C32.6557 28.2001 33.2862 28.3875 33.8742 28.4212L34.2744 28.4475C34.2744 28.4475 36.3005 28.5711 37.2072 28.6124C38.114 28.6536 38.2982 28.2825 38.6595 27.814C39.0243 27.3492 40.1011 25.6849 40.1011 25.6849L41.8402 29.8606L36.6618 41.4469H38.1034C39.467 41.4469 39.5804 41.1095 39.97 40.4236C40.3596 39.7376 44.3692 31.0151 44.3692 31.0151C44.3692 31.0151 44.5888 34.4636 44.6951 35.918C44.7978 37.3724 45.655 37.3311 46.5121 37.3311H54C54 37.3311 53.752 36.7689 53.288 35.8355C52.8205 34.9022 52.066 34.8609 51.3399 34.8609H47.2382C47.2382 34.8609 47.0824 32.4845 46.9407 30.7827C46.799 29.0809 46.629 28.6948 46.3031 27.9414C45.9773 27.1842 44.6703 24.1368 44.6703 24.1368H47.1214C47.1214 24.1368 48.4709 26.5808 48.7684 27.1168C49.0659 27.6528 49.5087 28.1588 50.1958 27.8027C50.883 27.4466 50.8582 26.7607 50.5713 26.1834C50.2844 25.6062 49.6362 24.3842 49.027 23.2597C48.4177 22.1352 47.9998 21.9552 46.9903 21.914C45.9773 21.8728 43.6041 21.8315 41.9535 21.8315C40.303 21.8315 39.7362 22.3113 39.1908 23.0535C38.6453 23.7957 36.9841 26.3221 36.9841 26.3221L36.9876 26.3184Z" fill="#008000"/>
<defs>
<filter id="filter0_d_463_2077" x="0" y="0" width="75" height="89.3235" filterUnits="userSpaceOnUse" color-interpolation-filters="sRGB">
<feFlood flood-opacity="0" result="BackgroundImageFix"/>
<feColorMatrix in="SourceAlpha" type="matrix" values="0 0 0 0 0 0 0 0 0 0 0 0 0 0 0 0 0 0 127 0" result="hardAlpha"/>
<feOffset dy="5"/>
<feGaussianBlur stdDeviation="4"/>
<feComposite in2="hardAlpha" operator="out"/>
<feColorMatrix type="matrix" values="0 0 0 0 0 0 0 0 0 0 0 0 0 0 0 0 0 0 0.25 0"/>
<feBlend mode="normal" in2="BackgroundImageFix" result="effect1_dropShadow_463_2077"/>
<feBlend mode="normal" in="SourceGraphic" in2="effect1_dropShadow_463_2077" result="shape"/>
</filter>
</defs>
</svg>
