<svg width="92" height="97" viewBox="0 0 92 97" fill="none" xmlns="http://www.w3.org/2000/svg">
<g filter="url(#filter0_d_791_2429)">
<path d="M37.0463 81.3235L18.8971 59.7206L56.1029 59.7206L37.0463 81.3235Z" fill="#008FDF"/>
<path d="M65 39.5C65 54.6878 52.6878 67 37.5 67C22.3122 67 10 54.6878 10 39.5C10 24.3122 22.3122 12 37.5 12C52.6878 12 65 24.3122 65 39.5Z" fill="white"/>
<path d="M37.0463 81.3235L18.8971 59.7206L56.1029 59.7206L37.0463 81.3235Z" stroke="white" stroke-width="4" stroke-linejoin="round"/>
<path d="M65 39.5C65 54.6878 52.6878 67 37.5 67C22.3122 67 10 54.6878 10 39.5C10 24.3122 22.3122 12 37.5 12C52.6878 12 65 24.3122 65 39.5Z" stroke="white" stroke-width="4" stroke-linejoin="round"/>
</g>
<path d="M20.2251 60.3391L54.7329 60.3391L37.0581 80.3762L20.2251 60.3391Z" fill="#00A560" stroke="#00A560" stroke-width="1.23636"/>
<path d="M37.5 15.0908C50.9808 15.0908 61.9092 26.0192 61.9092 39.5C61.9092 52.9808 50.9808 63.9092 37.5 63.9092C24.0192 63.9092 13.0908 52.9808 13.0908 39.5C13.0908 26.0192 24.0192 15.0908 37.5 15.0908Z" fill="#00A560" stroke="#00A560" stroke-width="6.18182"/>
<path d="M37.853 18C50.0033 18 59.853 27.8497 59.853 40C59.853 52.1503 50.0033 62 37.853 62C25.7028 62 15.853 52.1503 15.853 40C15.853 27.8497 25.7028 18 37.853 18Z" fill="#00A560" stroke="white" stroke-width="2"/>
<path d="M37.2163 38.0599C37.2163 38.9866 36.4653 39.7456 35.5306 39.7456C34.5959 39.7456 33.845 38.9946 33.845 38.0599C33.845 37.1252 34.5959 36.3743 35.5306 36.3743C36.4653 36.3743 37.2163 37.1252 37.2163 38.0599Z" fill="white"/>
<path d="M32.9821 43.141C32.0394 43.101 31.0248 43.0691 30.5535 43.0691C30.0821 43.0691 29.6268 43.2927 29.6427 43.8999C29.6587 44.5071 30.1381 44.6429 30.5934 44.6668L30.897 44.6828C30.897 44.6828 32.4548 44.7707 33.1499 44.8026C33.8449 44.8346 33.9887 44.563 34.2603 44.2274C34.5399 43.8919 35.3628 42.6856 35.3628 42.6856L36.6969 45.7134L32.7265 54.1177H33.8289C34.8755 54.1177 34.9634 53.8701 35.2589 53.3747C35.5545 52.8794 38.6382 46.5522 38.6382 46.5522C38.6382 46.5522 38.806 49.0527 38.8859 50.1073C38.9658 51.1618 39.6209 51.1299 40.284 51.1299H46.028C46.028 51.1299 45.8363 50.7224 45.4847 50.0434C45.1252 49.3643 44.55 49.3403 43.9908 49.3403H40.8432C40.8432 49.3403 40.7234 47.6147 40.6115 46.3845C40.4997 45.1542 40.3718 44.8666 40.1242 44.3233C39.8765 43.7721 38.8699 41.5671 38.8699 41.5671H40.7473C40.7473 41.5671 41.7859 43.3407 42.0096 43.7241C42.2412 44.1156 42.5768 44.4831 43.104 44.2195C43.6313 43.9638 43.6153 43.4605 43.3916 43.0451C43.168 42.6297 42.6726 41.7429 42.2093 40.928C41.7379 40.1132 41.4184 39.9853 40.6435 39.9534C39.8685 39.9214 38.0471 39.8975 36.7768 39.8975C35.5066 39.8975 35.0752 40.249 34.6598 40.7842C34.2444 41.3195 32.9661 43.1569 32.9661 43.1569L32.9821 43.141Z" fill="white"/>
<path d="M37.8394 25.5254L25.3767 34.3132V54.3254H31.5761V34.6248H44.7738V54.3254H51.1489V34.3132L37.8394 25.5254Z" fill="white"/>
<g filter="url(#filter1_d_791_2429)">
<circle cx="69.5" cy="19.5" r="19.5" fill="black"/>
</g>
<path d="M72.1081 20.572H75.7201V29.784H72.1081V20.572ZM71.3801 13.292V14.664H76.6721V13.292H71.3801ZM67.7961 10.268H80.4241V17.688H67.7961V10.268ZM66.4241 18.584H81.6001V31.604H77.6801V21.804H70.1481V31.604H66.4241V18.584ZM68.5521 23.092H79.7801V26.06H68.5521V23.092ZM68.5801 27.376H79.8081V30.596H68.5801V27.376ZM66.2561 6.12401H81.6561V9.51201H66.2561V6.12401ZM56.2881 10.212H64.6321V13.852H56.2881V10.212ZM59.3961 5.08801H63.3721V11.892H59.3961V5.08801ZM63.7081 16.848C63.9135 16.9787 64.1841 17.184 64.5201 17.464C64.8748 17.744 65.2481 18.052 65.6401 18.388C66.0508 18.7053 66.4148 19.004 66.7321 19.284C67.0681 19.564 67.3015 19.7693 67.4321 19.9L65.0521 23.148C64.8281 22.8307 64.5575 22.476 64.2401 22.084C63.9415 21.692 63.6241 21.2907 63.2881 20.88C62.9521 20.4693 62.6255 20.0867 62.3081 19.732C61.9908 19.3587 61.7015 19.0413 61.4401 18.78L63.7081 16.848ZM63.1201 10.212H63.9041L64.5761 10.072L66.8161 11.5C66.1815 13.3667 65.3508 15.1587 64.3241 16.876C63.2975 18.5747 62.1588 20.1147 60.9081 21.496C59.6761 22.8587 58.3975 23.988 57.0721 24.884C56.9788 24.5107 56.8201 24.072 56.5961 23.568C56.3721 23.0453 56.1388 22.5413 55.8961 22.056C55.6535 21.5707 55.4295 21.2067 55.2241 20.964C56.4001 20.292 57.5015 19.424 58.5281 18.36C59.5735 17.296 60.4975 16.12 61.3001 14.832C62.1028 13.544 62.7095 12.2373 63.1201 10.912V10.212ZM59.3961 20.432L63.3721 15.672V31.688H59.3961V20.432Z" fill="#67FFBF"/>
<defs>
<filter id="filter0_d_791_2429" x="0" y="7" width="75" height="89.3235" filterUnits="userSpaceOnUse" color-interpolation-filters="sRGB">
<feFlood flood-opacity="0" result="BackgroundImageFix"/>
<feColorMatrix in="SourceAlpha" type="matrix" values="0 0 0 0 0 0 0 0 0 0 0 0 0 0 0 0 0 0 127 0" result="hardAlpha"/>
<feOffset dy="5"/>
<feGaussianBlur stdDeviation="4"/>
<feComposite in2="hardAlpha" operator="out"/>
<feColorMatrix type="matrix" values="0 0 0 0 0 0 0 0 0 0 0 0 0 0 0 0 0 0 0.25 0"/>
<feBlend mode="normal" in2="BackgroundImageFix" result="effect1_dropShadow_791_2429"/>
<feBlend mode="normal" in="SourceGraphic" in2="effect1_dropShadow_791_2429" result="shape"/>
</filter>
<filter id="filter1_d_791_2429" x="47.7714" y="0" width="43.4571" height="43.4571" filterUnits="userSpaceOnUse" color-interpolation-filters="sRGB">
<feFlood flood-opacity="0" result="BackgroundImageFix"/>
<feColorMatrix in="SourceAlpha" type="matrix" values="0 0 0 0 0 0 0 0 0 0 0 0 0 0 0 0 0 0 127 0" result="hardAlpha"/>
<feOffset dy="2.22857"/>
<feGaussianBlur stdDeviation="1.11429"/>
<feComposite in2="hardAlpha" operator="out"/>
<feColorMatrix type="matrix" values="0 0 0 0 0 0 0 0 0 0 0 0 0 0 0 0 0 0 0.25 0"/>
<feBlend mode="normal" in2="BackgroundImageFix" result="effect1_dropShadow_791_2429"/>
<feBlend mode="normal" in="SourceGraphic" in2="effect1_dropShadow_791_2429" result="shape"/>
</filter>
</defs>
</svg>
