<svg width="75" height="90" viewBox="0 0 75 90" fill="none" xmlns="http://www.w3.org/2000/svg">
<g filter="url(#filter0_d_336_1947)">
<path d="M37.0463 74.3235L18.8971 52.7206L56.1029 52.7206L37.0463 74.3235Z" fill="#008FDF"/>
<path d="M65 32.5C65 47.6878 52.6878 60 37.5 60C22.3122 60 10 47.6878 10 32.5C10 17.3122 22.3122 5 37.5 5C52.6878 5 65 17.3122 65 32.5Z" fill="white"/>
<path d="M37.0463 74.3235L18.8971 52.7206L56.1029 52.7206L37.0463 74.3235Z" stroke="white" stroke-width="4" stroke-linejoin="round"/>
<path d="M65 32.5C65 47.6878 52.6878 60 37.5 60C22.3122 60 10 47.6878 10 32.5C10 17.3122 22.3122 5 37.5 5C52.6878 5 65 17.3122 65 32.5Z" stroke="white" stroke-width="4" stroke-linejoin="round"/>
</g>
<path d="M54.7333 53.3387L37.0577 73.3761L20.2238 53.3387L54.7333 53.3387Z" fill="black" stroke="black" stroke-width="1.23636"/>
<path d="M61.9091 32.5C61.9091 45.9808 50.9808 56.9091 37.5 56.9091C24.0192 56.9091 13.0909 45.9808 13.0909 32.5C13.0909 19.0192 24.0192 8.09091 37.5 8.09091C50.9808 8.09091 61.9091 19.0192 61.9091 32.5Z" fill="black" stroke="black" stroke-width="6.18182"/>
<path d="M59.8529 33C59.8529 45.1503 50.0032 55 37.8529 55C25.7026 55 15.8529 45.1503 15.8529 33C15.8529 20.8497 25.7026 11 37.8529 11C50.0032 11 59.8529 20.8497 59.8529 33Z" fill="black" stroke="#C9C9C9" stroke-width="2"/>
<path d="M37.2162 31.0599C37.2162 31.9866 36.4652 32.7456 35.5305 32.7456C34.5958 32.7456 33.8448 31.9946 33.8448 31.0599C33.8448 30.1252 34.5958 29.3743 35.5305 29.3743C36.4652 29.3743 37.2162 30.1252 37.2162 31.0599Z" fill="#C9C9C9"/>
<path d="M32.9819 36.141C32.0392 36.101 31.0246 36.0691 30.5532 36.0691C30.0819 36.0691 29.6265 36.2927 29.6425 36.8999C29.6585 37.5071 30.1378 37.6429 30.5932 37.6668L30.8968 37.6828C30.8968 37.6828 32.4546 37.7707 33.1496 37.8026C33.8447 37.8346 33.9885 37.563 34.2601 37.2274C34.5397 36.8919 35.3626 35.6856 35.3626 35.6856L36.6967 38.7134L32.7262 47.1177H33.8287C34.8752 47.1177 34.9631 46.8701 35.2587 46.3747C35.5543 45.8794 38.638 39.5522 38.638 39.5522C38.638 39.5522 38.8058 42.0527 38.8857 43.1073C38.9655 44.1618 39.6206 44.1299 40.2837 44.1299H46.0277C46.0277 44.1299 45.836 43.7224 45.4845 43.0434C45.125 42.3643 44.5498 42.3403 43.9906 42.3403H40.8429C40.8429 42.3403 40.7231 40.6147 40.6113 39.3845C40.4994 38.1542 40.3716 37.8666 40.1239 37.3233C39.8763 36.7721 38.8697 34.5671 38.8697 34.5671H40.7471C40.7471 34.5671 41.7856 36.3407 42.0093 36.7241C42.241 37.1156 42.5765 37.4831 43.1038 37.2195C43.6311 36.9638 43.6151 36.4605 43.3914 36.0451C43.1677 35.6297 42.6724 34.7429 42.209 33.928C41.7377 33.1132 41.4181 32.9853 40.6432 32.9534C39.8683 32.9214 38.0468 32.8975 36.7766 32.8975C35.5064 32.8975 35.075 33.249 34.6595 33.7842C34.2441 34.3195 32.9659 36.1569 32.9659 36.1569L32.9819 36.141Z" fill="#C9C9C9"/>
<path d="M37.8393 18.5254L25.3766 27.3132V47.3254H31.576V27.6248H44.7736V47.3254H51.1488V27.3132L37.8393 18.5254Z" fill="#C9C9C9"/>
<path d="M52.3188 18.9309L24.3188 46.9309" stroke="black" stroke-width="8"/>
<path d="M53.3795 17.8704L22.6204 48.6295" stroke="#B2B2B2" stroke-width="3"/>
<defs>
<filter id="filter0_d_336_1947" x="0" y="0" width="75" height="89.3235" filterUnits="userSpaceOnUse" color-interpolation-filters="sRGB">
<feFlood flood-opacity="0" result="BackgroundImageFix"/>
<feColorMatrix in="SourceAlpha" type="matrix" values="0 0 0 0 0 0 0 0 0 0 0 0 0 0 0 0 0 0 127 0" result="hardAlpha"/>
<feOffset dy="5"/>
<feGaussianBlur stdDeviation="4"/>
<feComposite in2="hardAlpha" operator="out"/>
<feColorMatrix type="matrix" values="0 0 0 0 0 0 0 0 0 0 0 0 0 0 0 0 0 0 0.25 0"/>
<feBlend mode="normal" in2="BackgroundImageFix" result="effect1_dropShadow_336_1947"/>
<feBlend mode="normal" in="SourceGraphic" in2="effect1_dropShadow_336_1947" result="shape"/>
</filter>
</defs>
</svg>
