<svg width="75" height="90" viewBox="0 0 75 90" fill="none" xmlns="http://www.w3.org/2000/svg">
<g filter="url(#filter0_d_435_1863)">
<path d="M37.0463 74.3235L18.8971 52.7206L56.1029 52.7206L37.0463 74.3235Z" fill="#008FDF"/>
<path d="M65 32.5C65 47.6878 52.6878 60 37.5 60C22.3122 60 10 47.6878 10 32.5C10 17.3122 22.3122 5 37.5 5C52.6878 5 65 17.3122 65 32.5Z" fill="white"/>
<path d="M37.0463 74.3235L18.8971 52.7206L56.1029 52.7206L37.0463 74.3235Z" stroke="white" stroke-width="4" stroke-linejoin="round"/>
<path d="M65 32.5C65 47.6878 52.6878 60 37.5 60C22.3122 60 10 47.6878 10 32.5C10 17.3122 22.3122 5 37.5 5C52.6878 5 65 17.3122 65 32.5Z" stroke="white" stroke-width="4" stroke-linejoin="round"/>
</g>
<path d="M37.0464 74.3235L18.8971 52.7205L56.103 52.7205L37.0464 74.3235Z" fill="#9747FF"/>
<path d="M61.9091 32.5C61.9091 45.9808 50.9808 56.9091 37.5 56.9091C24.0192 56.9091 13.0909 45.9808 13.0909 32.5C13.0909 19.0192 24.0192 8.09091 37.5 8.09091C50.9808 8.09091 61.9091 19.0192 61.9091 32.5Z" fill="#9747FF" stroke="#9747FF" stroke-width="6.18182"/>
<ellipse cx="37.853" cy="33" rx="23" ry="23" fill="white"/>
<path d="M24.576 23.976C23.436 23.318 22.716 23.472 22.412 24C22.108 24.528 22.332 25.228 23.472 25.886C24.612 26.544 26.54 26.382 26.54 26.382C26.54 26.382 25.716 24.632 24.576 23.974V23.976ZM38 25.658C37.668 25.658 37.398 25.926 37.398 26.574C37.398 27.222 38 28.002 38 28.002C38 28.002 38.602 27.222 38.602 26.574C38.602 25.926 38.332 25.658 38 25.658ZM37.186 31.59C37.412 31.46 37.49 31.17 37.36 30.944C37.23 30.718 36.94 30.64 36.714 30.77C36.488 30.9 36.41 31.19 36.54 31.416C36.67 31.642 36.96 31.72 37.186 31.59ZM35.942 32.358C36.168 32.488 36.458 32.412 36.588 32.184C36.718 31.958 36.642 31.668 36.414 31.538C36.188 31.408 35.898 31.484 35.768 31.712C35.638 31.938 35.714 32.228 35.942 32.358ZM39.104 16.862C39.104 15.546 38.61 15 38 15C37.39 15 36.896 15.546 36.896 16.862C36.896 18.178 38 19.766 38 19.766C38 19.766 39.104 18.178 39.104 16.862ZM38.594 22.616C38.594 22.288 38.328 22.022 38 22.022C37.672 22.022 37.406 22.288 37.406 22.616C37.406 22.944 37.672 23.21 38 23.21C38.328 23.21 38.594 22.944 38.594 22.616ZM35.5 28.67C35.5 28.67 35.63 27.692 35.308 27.132C34.984 26.572 34.616 26.474 34.33 26.64C34.042 26.806 33.942 27.174 34.266 27.734C34.59 28.294 35.502 28.67 35.502 28.67H35.5ZM23.472 40.114C22.332 40.772 22.106 41.472 22.412 42C22.716 42.528 23.436 42.682 24.576 42.024C25.716 41.366 26.54 39.616 26.54 39.616C26.54 39.616 24.612 39.454 23.472 40.112V40.114ZM21.862 31.896C20.546 31.896 20 32.39 20 33C20 33.61 20.546 34.104 21.862 34.104C23.178 34.104 24.766 33 24.766 33C24.766 33 23.178 31.896 21.862 31.896ZM30.658 33C30.658 33.332 30.926 33.602 31.574 33.602C32.222 33.602 33.002 33 33.002 33C33.002 33 32.222 32.398 31.574 32.398C30.926 32.398 30.658 32.668 30.658 33ZM31.384 21.54C31.384 21.54 31.546 19.612 30.888 18.472C30.23 17.332 29.53 17.106 29.002 17.412C28.474 17.716 28.32 18.436 28.978 19.576C29.636 20.716 31.386 21.54 31.386 21.54H31.384ZM28.71 28.322C28.994 28.486 29.358 28.388 29.522 28.104C29.686 27.82 29.588 27.456 29.304 27.292C29.02 27.128 28.656 27.226 28.492 27.51C28.328 27.794 28.426 28.158 28.71 28.322ZM33.104 24.522C33.388 24.358 33.486 23.994 33.322 23.71C33.158 23.426 32.794 23.328 32.51 23.492C32.226 23.656 32.128 24.02 32.292 24.304C32.456 24.588 32.82 24.686 33.104 24.522ZM42.896 24.522C43.18 24.686 43.544 24.588 43.708 24.304C43.872 24.02 43.774 23.656 43.49 23.492C43.206 23.328 42.842 23.426 42.678 23.71C42.514 23.994 42.612 24.358 42.896 24.522ZM43.868 30.308C44.428 29.984 44.526 29.616 44.36 29.33C44.194 29.042 43.826 28.942 43.266 29.266C42.706 29.59 42.33 30.502 42.33 30.502C42.33 30.502 43.308 30.632 43.868 30.31V30.308ZM43 33C43 33 43.78 33.602 44.428 33.602C45.076 33.602 45.344 33.332 45.344 33C45.344 32.668 45.076 32.398 44.428 32.398C43.78 32.398 43 33 43 33ZM47.024 19.576C47.682 18.436 47.528 17.716 47 17.412C46.472 17.108 45.772 17.332 45.114 18.472C44.456 19.612 44.618 21.54 44.618 21.54C44.618 21.54 46.368 20.716 47.026 19.576H47.024ZM38 30.424C37.738 30.424 37.526 30.636 37.526 30.898C37.526 31.16 37.738 31.372 38 31.372C38.262 31.372 38.474 31.16 38.474 30.898C38.474 30.636 38.262 30.424 38 30.424ZM52.528 25.886C53.668 25.228 53.894 24.528 53.588 24C53.284 23.472 52.564 23.318 51.424 23.976C50.284 24.634 49.46 26.384 49.46 26.384C49.46 26.384 51.388 26.546 52.528 25.888V25.886ZM38.474 35.102C38.474 34.84 38.262 34.628 38 34.628C37.738 34.628 37.526 34.84 37.526 35.102C37.526 35.364 37.738 35.576 38 35.576C38.262 35.576 38.474 35.364 38.474 35.102ZM37.406 43.384C37.406 43.712 37.672 43.978 38 43.978C38.328 43.978 38.594 43.712 38.594 43.384C38.594 43.056 38.328 42.79 38 42.79C37.672 42.79 37.406 43.056 37.406 43.384ZM38.642 30.942C38.512 31.168 38.588 31.458 38.816 31.588C39.042 31.718 39.332 31.642 39.462 31.414C39.592 31.188 39.516 30.898 39.288 30.768C39.062 30.638 38.772 30.714 38.642 30.942ZM38 38C38 38 37.398 38.78 37.398 39.428C37.398 40.076 37.668 40.344 38 40.344C38.332 40.344 38.602 40.076 38.602 39.428C38.602 38.78 38 38 38 38ZM39.41 32.186C39.54 32.412 39.83 32.49 40.056 32.36C40.282 32.23 40.36 31.94 40.23 31.714C40.1 31.488 39.81 31.41 39.584 31.54C39.358 31.67 39.28 31.96 39.41 32.186ZM52.528 40.114C51.388 39.456 49.46 39.618 49.46 39.618C49.46 39.618 50.284 41.368 51.424 42.026C52.564 42.684 53.284 42.53 53.588 42.002C53.892 41.474 53.668 40.774 52.528 40.116V40.114ZM42.896 41.478C42.612 41.642 42.514 42.006 42.678 42.29C42.842 42.574 43.206 42.672 43.49 42.508C43.774 42.344 43.872 41.98 43.708 41.696C43.544 41.412 43.18 41.314 42.896 41.478ZM41.672 26.64C41.384 26.474 41.016 26.572 40.694 27.132C40.37 27.692 40.502 28.67 40.502 28.67C40.502 28.67 41.414 28.294 41.738 27.734C42.062 27.174 41.962 26.806 41.674 26.64H41.672ZM40.5 37.33C40.5 37.33 40.37 38.308 40.692 38.868C41.016 39.428 41.384 39.526 41.67 39.36C41.956 39.194 42.058 38.826 41.734 38.266C41.41 37.706 40.498 37.33 40.498 37.33H40.5ZM40.102 32.526C39.84 32.526 39.628 32.738 39.628 33C39.628 33.262 39.84 33.474 40.102 33.474C40.364 33.474 40.576 33.262 40.576 33C40.576 32.738 40.364 32.526 40.102 32.526ZM43.868 35.692C43.308 35.368 42.33 35.5 42.33 35.5C42.33 35.5 42.706 36.412 43.266 36.736C43.826 37.06 44.194 36.96 44.36 36.672C44.526 36.384 44.428 36.016 43.868 35.694V35.692ZM48.384 32.406C48.056 32.406 47.79 32.672 47.79 33C47.79 33.328 48.056 33.594 48.384 33.594C48.712 33.594 48.978 33.328 48.978 33C48.978 32.672 48.712 32.406 48.384 32.406ZM54.138 31.896C52.822 31.896 51.234 33 51.234 33C51.234 33 52.822 34.104 54.138 34.104C55.454 34.104 56 33.61 56 33C56 32.39 55.454 31.896 54.138 31.896ZM40.058 33.642C39.832 33.512 39.542 33.588 39.412 33.816C39.282 34.042 39.358 34.332 39.586 34.462C39.812 34.592 40.102 34.516 40.232 34.288C40.362 34.062 40.286 33.772 40.058 33.642ZM47.29 37.678C47.006 37.514 46.642 37.612 46.478 37.896C46.314 38.18 46.412 38.544 46.696 38.708C46.98 38.872 47.344 38.774 47.508 38.49C47.672 38.206 47.574 37.842 47.29 37.678ZM44.616 44.46C44.616 44.46 44.454 46.388 45.112 47.528C45.77 48.668 46.47 48.894 46.998 48.588C47.526 48.284 47.68 47.564 47.022 46.424C46.364 45.284 44.614 44.46 44.614 44.46H44.616ZM46.696 27.294C46.412 27.458 46.314 27.822 46.478 28.106C46.642 28.39 47.006 28.488 47.29 28.324C47.574 28.16 47.672 27.796 47.508 27.512C47.344 27.228 46.98 27.13 46.696 27.294ZM32.734 29.266C32.174 28.942 31.806 29.042 31.64 29.33C31.474 29.618 31.572 29.986 32.132 30.308C32.692 30.632 33.67 30.5 33.67 30.5C33.67 30.5 33.294 29.588 32.734 29.264V29.266ZM33.104 41.478C32.82 41.314 32.456 41.412 32.292 41.696C32.128 41.98 32.226 42.344 32.51 42.508C32.794 42.672 33.158 42.574 33.322 42.29C33.486 42.006 33.388 41.642 33.104 41.478ZM32.132 35.692C31.572 36.016 31.474 36.384 31.64 36.67C31.806 36.958 32.174 37.058 32.734 36.734C33.294 36.41 33.67 35.498 33.67 35.498C33.67 35.498 32.692 35.368 32.132 35.69V35.692ZM29.304 38.706C29.588 38.542 29.686 38.178 29.522 37.894C29.358 37.61 28.994 37.512 28.71 37.676C28.426 37.84 28.328 38.204 28.492 38.488C28.656 38.772 29.02 38.87 29.304 38.706ZM28.976 46.424C28.318 47.564 28.472 48.284 29 48.588C29.528 48.892 30.228 48.668 30.886 47.528C31.544 46.388 31.382 44.46 31.382 44.46C31.382 44.46 29.632 45.284 28.974 46.424H28.976ZM27.616 32.406C27.288 32.406 27.022 32.672 27.022 33C27.022 33.328 27.288 33.594 27.616 33.594C27.944 33.594 28.21 33.328 28.21 33C28.21 32.672 27.944 32.406 27.616 32.406ZM37.358 35.058C37.488 34.832 37.412 34.542 37.184 34.412C36.958 34.282 36.668 34.358 36.538 34.586C36.408 34.812 36.484 35.102 36.712 35.232C36.938 35.362 37.228 35.286 37.358 35.058ZM36.896 49.138C36.896 50.454 37.39 51 38 51C38.61 51 39.104 50.454 39.104 49.138C39.104 47.822 38 46.234 38 46.234C38 46.234 36.896 47.822 36.896 49.138ZM34.266 38.266C33.942 38.826 34.042 39.194 34.33 39.36C34.618 39.526 34.986 39.428 35.308 38.868C35.632 38.308 35.5 37.33 35.5 37.33C35.5 37.33 34.588 37.706 34.264 38.266H34.266ZM38.814 34.41C38.588 34.54 38.51 34.83 38.64 35.056C38.77 35.282 39.06 35.36 39.286 35.23C39.512 35.1 39.59 34.81 39.46 34.584C39.33 34.358 39.04 34.28 38.814 34.41ZM36.37 33C36.37 32.738 36.158 32.526 35.896 32.526C35.634 32.526 35.422 32.738 35.422 33C35.422 33.262 35.634 33.474 35.896 33.474C36.158 33.474 36.37 33.262 36.37 33ZM36.59 33.814C36.46 33.588 36.17 33.51 35.944 33.64C35.718 33.77 35.64 34.06 35.77 34.286C35.9 34.512 36.19 34.59 36.416 34.46C36.642 34.33 36.72 34.04 36.59 33.814Z" fill="#9747FF"/>
<defs>
<filter id="filter0_d_435_1863" x="0" y="0" width="75" height="89.3235" filterUnits="userSpaceOnUse" color-interpolation-filters="sRGB">
<feFlood flood-opacity="0" result="BackgroundImageFix"/>
<feColorMatrix in="SourceAlpha" type="matrix" values="0 0 0 0 0 0 0 0 0 0 0 0 0 0 0 0 0 0 127 0" result="hardAlpha"/>
<feOffset dy="5"/>
<feGaussianBlur stdDeviation="4"/>
<feComposite in2="hardAlpha" operator="out"/>
<feColorMatrix type="matrix" values="0 0 0 0 0 0 0 0 0 0 0 0 0 0 0 0 0 0 0.25 0"/>
<feBlend mode="normal" in2="BackgroundImageFix" result="effect1_dropShadow_435_1863"/>
<feBlend mode="normal" in="SourceGraphic" in2="effect1_dropShadow_435_1863" result="shape"/>
</filter>
</defs>
</svg>
