<svg width="75" height="90" viewBox="0 0 75 90" fill="none" xmlns="http://www.w3.org/2000/svg">
<g filter="url(#filter0_d_433_1841)">
<path d="M37.0463 74.3235L18.8971 52.7206L56.1029 52.7206L37.0463 74.3235Z" fill="#008FDF"/>
<path d="M65 32.5C65 47.6878 52.6878 60 37.5 60C22.3122 60 10 47.6878 10 32.5C10 17.3122 22.3122 5 37.5 5C52.6878 5 65 17.3122 65 32.5Z" fill="white"/>
<path d="M37.0463 74.3235L18.8971 52.7206L56.1029 52.7206L37.0463 74.3235Z" stroke="white" stroke-width="4" stroke-linejoin="round"/>
<path d="M65 32.5C65 47.6878 52.6878 60 37.5 60C22.3122 60 10 47.6878 10 32.5C10 17.3122 22.3122 5 37.5 5C52.6878 5 65 17.3122 65 32.5Z" stroke="white" stroke-width="4" stroke-linejoin="round"/>
</g>
<path d="M37.0464 74.3235L18.8971 52.7205L56.103 52.7205L37.0464 74.3235Z" fill="#455DB7"/>
<path d="M61.9091 32.5C61.9091 45.9808 50.9808 56.9091 37.5 56.9091C24.0192 56.9091 13.0909 45.9808 13.0909 32.5C13.0909 19.0192 24.0192 8.09091 37.5 8.09091C50.9808 8.09091 61.9091 19.0192 61.9091 32.5Z" fill="#455DB7" stroke="#455DB7" stroke-width="6.18182"/>
<ellipse cx="37.853" cy="33" rx="23" ry="23" fill="white"/>
<path d="M27.8 27.2H23.4C23.068 27.2 22.8 27.468 22.8 27.8V32.2C22.8 32.532 23.068 32.8 23.4 32.8H27.8C28.132 32.8 28.4 32.532 28.4 32.2V27.8C28.4 27.468 28.132 27.2 27.8 27.2ZM27.2 31.6H24V28.4H27.2V31.6Z" fill="#455DB7"/>
<path d="M35.2001 32.2V27.8C35.2001 27.468 34.9321 27.2 34.6001 27.2H30.2001C29.8681 27.2 29.6001 27.468 29.6001 27.8V32.2C29.6001 32.532 29.8681 32.8 30.2001 32.8H34.6001C34.9321 32.8 35.2001 32.532 35.2001 32.2ZM34.0001 31.6H30.8001V28.4H34.0001V31.6Z" fill="#455DB7"/>
<path d="M37.2001 32.8H41.6001C41.9321 32.8 42.2001 32.532 42.2001 32.2V27.8C42.2001 27.468 41.9321 27.2 41.6001 27.2H37.2001C36.8681 27.2 36.6001 27.468 36.6001 27.8V32.2C36.6001 32.532 36.8681 32.8 37.2001 32.8ZM37.8001 28.4H41.0001V31.6H37.8001V28.4Z" fill="#455DB7"/>
<path d="M50.7999 43.8H40.2V50H50.7999V43.8Z" fill="#455DB7"/>
<path d="M56.6 36.9999H56.598C56.604 36.8159 56.514 36.6259 56.302 36.5079C55.642 36.3339 55.024 36.1399 54.44 35.9279C54.348 35.8779 54.252 35.8399 54.146 35.8199C52.952 35.3679 51.9 34.8419 50.932 34.2719C51.098 34.0939 51.202 33.8559 51.202 33.5919V24.1519C51.202 23.7379 50.948 23.3679 50.562 23.2199L35.686 17.4679C35.45 17.3779 35.188 17.3779 34.952 17.4719L20.628 23.2239C20.248 23.3759 20 23.7439 20 24.1519V44.5999C20 45.1519 20.448 45.5999 21 45.5999H36.2V49.9999C36.2 50.5519 36.648 50.9999 37.2 50.9999C37.752 50.9999 38.2 50.5519 38.2 49.9999V38.3679C38.41 38.2079 38.582 38.0159 38.706 37.7999H39.146C39.502 38.4199 40.258 38.8479 41.136 38.8479C42.014 38.8479 42.768 38.4199 43.126 37.7999H43.566C43.922 38.4199 44.678 38.8479 45.556 38.8479C46.434 38.8479 47.188 38.4199 47.546 37.7999H47.986C48.342 38.4199 49.098 38.8479 49.976 38.8479C50.854 38.8479 51.608 38.4199 51.966 37.7999H52.406C52.54 38.0339 52.732 38.2419 52.964 38.4079V49.9999C52.964 50.5519 53.412 50.9999 53.964 50.9999C54.516 50.9999 54.964 50.5519 54.964 49.9999V38.7859C55.908 38.5759 56.604 37.8559 56.604 36.9999H56.6ZM22 43.5999V24.8279L35.332 19.4759L49.2 24.8379V33.1599C48.036 32.3559 46.956 31.5079 45.828 30.6839C45.626 30.5719 45.372 30.5719 45.17 30.6839C42.248 33.0319 39.25 35.3259 34.696 36.5079C34.336 36.7079 34.324 37.1099 34.546 37.3539C34.71 38.0659 35.36 38.6299 36.196 38.7979V43.6019H22V43.5999Z" fill="#455DB7"/>
<defs>
<filter id="filter0_d_433_1841" x="0" y="0" width="75" height="89.3235" filterUnits="userSpaceOnUse" color-interpolation-filters="sRGB">
<feFlood flood-opacity="0" result="BackgroundImageFix"/>
<feColorMatrix in="SourceAlpha" type="matrix" values="0 0 0 0 0 0 0 0 0 0 0 0 0 0 0 0 0 0 127 0" result="hardAlpha"/>
<feOffset dy="5"/>
<feGaussianBlur stdDeviation="4"/>
<feComposite in2="hardAlpha" operator="out"/>
<feColorMatrix type="matrix" values="0 0 0 0 0 0 0 0 0 0 0 0 0 0 0 0 0 0 0.25 0"/>
<feBlend mode="normal" in2="BackgroundImageFix" result="effect1_dropShadow_433_1841"/>
<feBlend mode="normal" in="SourceGraphic" in2="effect1_dropShadow_433_1841" result="shape"/>
</filter>
</defs>
</svg>
