<svg width="75" height="90" viewBox="0 0 75 90" fill="none" xmlns="http://www.w3.org/2000/svg">
<g filter="url(#filter0_d_772_2878)">
<path d="M37.0463 74.3235L18.8971 52.7206L56.1029 52.7206L37.0463 74.3235Z" fill="#008FDF"/>
<path d="M65 32.5C65 47.6878 52.6878 60 37.5 60C22.3122 60 10 47.6878 10 32.5C10 17.3122 22.3122 5 37.5 5C52.6878 5 65 17.3122 65 32.5Z" fill="#455DB7"/>
<path d="M37.0463 74.3235L18.8971 52.7206L56.1029 52.7206L37.0463 74.3235Z" stroke="white" stroke-width="4" stroke-linejoin="round"/>
<path d="M65 32.5C65 47.6878 52.6878 60 37.5 60C22.3122 60 10 47.6878 10 32.5C10 17.3122 22.3122 5 37.5 5C52.6878 5 65 17.3122 65 32.5Z" stroke="white" stroke-width="4" stroke-linejoin="round"/>
</g>
<path d="M37.0464 74.3235L18.8971 52.7205L56.103 52.7205L37.0464 74.3235Z" fill="#455DB7"/>
<path d="M37.5 8.09082C50.9808 8.09082 61.9092 19.0192 61.9092 32.5C61.9092 45.9808 50.9808 56.9092 37.5 56.9092C24.0192 56.9092 13.0908 45.9808 13.0908 32.5C13.0908 19.0192 24.0192 8.09082 37.5 8.09082Z" fill="#455DB7" stroke="#455DB7" stroke-width="6.18182"/>
<ellipse cx="37.853" cy="33" rx="23" ry="23" fill="white"/>
<path d="M45.7841 34.7535H42.5841V36.4831H45.7841V34.7535ZM39.3841 30.5935H36.1841V32.3231H39.3841V30.5935ZM23.1665 27.0399V44.0351H34.7297V40.6751H42.3425V44.0351H52.8337V21.9663L23.1665 27.0399ZM51.2337 42.4335H43.9425V39.0735H33.1297V42.4335H24.7665V28.3887L51.2337 23.8623V42.4335ZM45.7841 30.5935H42.5841V32.3231H45.7841V30.5935ZM32.9841 34.7535H29.7841V36.4831H32.9841V34.7535ZM39.3841 34.7535H36.1841V36.4831H39.3841V34.7535ZM32.9841 30.5935H29.7841V32.3231H32.9841V30.5935Z" fill="#455DB7"/>
<defs>
<filter id="filter0_d_772_2878" x="0" y="0" width="75" height="89.3235" filterUnits="userSpaceOnUse" color-interpolation-filters="sRGB">
<feFlood flood-opacity="0" result="BackgroundImageFix"/>
<feColorMatrix in="SourceAlpha" type="matrix" values="0 0 0 0 0 0 0 0 0 0 0 0 0 0 0 0 0 0 127 0" result="hardAlpha"/>
<feOffset dy="5"/>
<feGaussianBlur stdDeviation="4"/>
<feComposite in2="hardAlpha" operator="out"/>
<feColorMatrix type="matrix" values="0 0 0 0 0 0 0 0 0 0 0 0 0 0 0 0 0 0 0.25 0"/>
<feBlend mode="normal" in2="BackgroundImageFix" result="effect1_dropShadow_772_2878"/>
<feBlend mode="normal" in="SourceGraphic" in2="effect1_dropShadow_772_2878" result="shape"/>
</filter>
</defs>
</svg>
