<svg width="75" height="90" viewBox="0 0 75 90" fill="none" xmlns="http://www.w3.org/2000/svg">
<g filter="url(#filter0_d_433_1764)">
<path d="M37.0463 74.3235L18.8971 52.7206L56.1029 52.7206L37.0463 74.3235Z" fill="#008FDF"/>
<path d="M65 32.5C65 47.6878 52.6878 60 37.5 60C22.3122 60 10 47.6878 10 32.5C10 17.3122 22.3122 5 37.5 5C52.6878 5 65 17.3122 65 32.5Z" fill="white"/>
<path d="M37.0463 74.3235L18.8971 52.7206L56.1029 52.7206L37.0463 74.3235Z" stroke="white" stroke-width="4" stroke-linejoin="round"/>
<path d="M65 32.5C65 47.6878 52.6878 60 37.5 60C22.3122 60 10 47.6878 10 32.5C10 17.3122 22.3122 5 37.5 5C52.6878 5 65 17.3122 65 32.5Z" stroke="white" stroke-width="4" stroke-linejoin="round"/>
</g>
<path d="M37.0464 74.3235L18.8971 52.7205L56.103 52.7205L37.0464 74.3235Z" fill="#00A560"/>
<path d="M61.9091 32.5C61.9091 45.9808 50.9808 56.9091 37.5 56.9091C24.0192 56.9091 13.0909 45.9808 13.0909 32.5C13.0909 19.0192 24.0192 8.09091 37.5 8.09091C50.9808 8.09091 61.9091 19.0192 61.9091 32.5Z" fill="#00A560" stroke="#00A560" stroke-width="6.18182"/>
<ellipse cx="37.853" cy="33" rx="23" ry="23" fill="white"/>
<path d="M52.7025 31.7967L51.6753 30.3103L43.1873 32.9551L44.3377 34.6223C44.7041 35.1519 45.5153 35.4079 46.1489 35.1951L52.2161 33.1455C52.8497 32.9311 53.0673 32.3279 52.7009 31.7983L52.7025 31.7967Z" fill="#00A560"/>
<path d="M50.7696 28.9983L44.0048 19.2031C43.6384 18.6735 42.8272 18.4175 42.1936 18.6303L36.1264 20.6799C35.4928 20.8943 35.2752 21.4975 35.6416 22.0271L36.6368 23.4687C36.552 23.5567 36.4736 23.6559 36.4064 23.7631L23.3872 44.7327C22.8704 45.5663 23.1264 46.6607 23.9584 47.1775C24.2496 47.3583 24.5728 47.4447 24.8928 47.4447C25.4864 47.4447 26.0672 47.1471 26.4032 46.6063L38.8128 26.6207L42.2816 31.6431L50.7696 28.9983Z" fill="#00A560"/>
<defs>
<filter id="filter0_d_433_1764" x="0" y="0" width="75" height="89.3235" filterUnits="userSpaceOnUse" color-interpolation-filters="sRGB">
<feFlood flood-opacity="0" result="BackgroundImageFix"/>
<feColorMatrix in="SourceAlpha" type="matrix" values="0 0 0 0 0 0 0 0 0 0 0 0 0 0 0 0 0 0 127 0" result="hardAlpha"/>
<feOffset dy="5"/>
<feGaussianBlur stdDeviation="4"/>
<feComposite in2="hardAlpha" operator="out"/>
<feColorMatrix type="matrix" values="0 0 0 0 0 0 0 0 0 0 0 0 0 0 0 0 0 0 0.25 0"/>
<feBlend mode="normal" in2="BackgroundImageFix" result="effect1_dropShadow_433_1764"/>
<feBlend mode="normal" in="SourceGraphic" in2="effect1_dropShadow_433_1764" result="shape"/>
</filter>
</defs>
</svg>
