<svg width="75" height="90" viewBox="0 0 75 90" fill="none" xmlns="http://www.w3.org/2000/svg">
<g filter="url(#filter0_d_771_2512)">
<path d="M37.0463 74.3235L18.8971 52.7206L56.1029 52.7206L37.0463 74.3235Z" fill="#008FDF"/>
<path d="M65 32.5C65 47.6878 52.6878 60 37.5 60C22.3122 60 10 47.6878 10 32.5C10 17.3122 22.3122 5 37.5 5C52.6878 5 65 17.3122 65 32.5Z" fill="white"/>
<path d="M37.0463 74.3235L18.8971 52.7206L56.1029 52.7206L37.0463 74.3235Z" stroke="white" stroke-width="4" stroke-linejoin="round"/>
<path d="M65 32.5C65 47.6878 52.6878 60 37.5 60C22.3122 60 10 47.6878 10 32.5C10 17.3122 22.3122 5 37.5 5C52.6878 5 65 17.3122 65 32.5Z" stroke="white" stroke-width="4" stroke-linejoin="round"/>
</g>
<path d="M37.0464 74.3235L18.8971 52.7205L56.103 52.7205L37.0464 74.3235Z" fill="#FF6B00"/>
<path d="M37.5 8.09082C50.9808 8.09082 61.9092 19.0192 61.9092 32.5C61.9092 45.9808 50.9808 56.9092 37.5 56.9092C24.0192 56.9092 13.0908 45.9808 13.0908 32.5C13.0908 19.0192 24.0192 8.09082 37.5 8.09082Z" fill="#FF6B00" stroke="#FF6B00" stroke-width="6.18182"/>
<ellipse cx="37.853" cy="33" rx="23" ry="23" fill="white"/>
<path d="M31.8222 39.9101C31.2322 39.4441 29.8262 38.3241 29.4782 37.9981C28.7902 37.3501 28.4182 36.4521 28.4602 35.5341C28.5022 34.6101 28.9602 33.7421 29.7162 33.1521C30.3422 32.6641 31.1362 32.3941 31.9542 32.3941C32.5522 32.3941 33.1282 32.5341 33.6382 32.7961C33.9962 31.0701 35.3042 29.6881 36.9902 29.2241C36.2562 27.4621 35.3982 26.1561 34.4542 25.4181C34.3142 25.3081 34.1582 25.2501 34.0002 25.2501H27.4242C27.2662 25.2501 27.1122 25.3081 26.9702 25.4181C25.2962 26.7301 23.8762 29.8161 22.9742 34.1101C21.8262 39.5801 21.8162 45.4321 22.9502 49.0161C23.1262 49.5681 23.4802 49.9181 23.8682 49.9181H23.8722L30.7062 49.8821L31.7662 49.8881C31.7662 49.8881 31.7622 49.8821 31.7622 49.8781C31.4502 49.1181 31.4622 48.2621 31.7942 47.5121C31.9402 47.0801 32.4962 45.0041 32.9462 43.2641C33.2182 42.2121 32.6702 40.5821 31.8182 39.9101H31.8222ZM30.9062 23.8721C33.0582 23.8721 34.8022 22.1281 34.8022 19.9761C34.8022 17.8241 33.0582 16.0801 30.9062 16.0801C28.7542 16.0801 27.0102 17.8241 27.0102 19.9761C27.0102 22.1281 28.7542 23.8721 30.9062 23.8721ZM45.4762 27.2341C47.6282 27.2341 49.3722 25.4901 49.3722 23.3381C49.3722 21.1861 47.6282 19.4421 45.4762 19.4421C43.3242 19.4421 41.5802 21.1861 41.5802 23.3381C41.5802 25.4901 43.3242 27.2341 45.4762 27.2341ZM53.0222 36.2661C52.1202 32.5581 50.7022 29.8921 49.0262 28.7601C48.8862 28.6641 48.7302 28.6141 48.5722 28.6141H41.9962C41.8382 28.6141 41.6842 28.6641 41.5422 28.7601C41.1942 28.9961 40.8562 29.3001 40.5322 29.6661C41.6422 30.2961 42.4742 31.3641 42.7842 32.6341L43.4002 32.0541L44.4902 32.3621C45.9502 32.7761 47.4622 33.9141 47.5482 35.5281C47.6462 37.3581 45.0942 39.5561 44.3082 40.1861C43.7622 40.6241 43.3482 42.0621 43.6522 43.1861C44.1322 44.9561 44.7262 47.0721 44.8762 47.4961C45.2142 48.2501 45.2302 49.1121 44.9162 49.8761C44.9162 49.8801 44.9122 49.8841 44.9102 49.8881H45.2802L52.1222 49.9181H52.1262C52.5142 49.9181 52.8682 49.6181 53.0442 49.1401C54.1782 46.0441 54.1702 40.9901 53.0202 36.2661H53.0222ZM38.0422 49.8021C38.1682 49.8761 38.3022 49.9201 38.4442 49.9201H38.6982C38.6082 49.7281 38.4782 49.4381 38.3422 49.1361C38.2322 49.3821 38.1242 49.6201 38.0422 49.8021ZM35.5422 33.7481C35.5422 35.2341 36.7462 36.4381 38.2322 36.4381C39.7182 36.4381 40.9222 35.2341 40.9222 33.7481C40.9222 32.2621 39.7182 31.0581 38.2322 31.0581C36.7462 31.0581 35.5422 32.2621 35.5422 33.7481ZM41.7262 43.7101C41.2362 41.8981 41.8362 39.6101 43.0602 38.6261C44.2842 37.6421 45.5822 36.1321 45.5542 35.6341C45.5282 35.1361 44.8062 34.5281 43.9482 34.2861L43.3922 34.8101C43.0982 35.0761 40.9702 36.7601 40.9702 36.7601C39.4982 37.9261 37.0762 37.9421 35.5882 36.7961C35.5882 36.7961 33.3622 35.0821 33.0602 34.8101C32.5022 34.2901 31.5582 34.2521 30.9482 34.7281C30.3362 35.2041 30.2922 36.0161 30.8502 36.5401C31.1722 36.8441 33.0642 38.3401 33.0642 38.3401C34.5362 39.5041 35.3582 41.9461 34.8882 43.7641C34.8882 43.7641 33.8062 47.9541 33.6422 48.2921C33.3582 48.8801 33.6842 49.5561 34.3702 49.7981C34.5382 49.8581 34.7142 49.8861 34.8842 49.8861C35.4122 49.8861 35.9102 49.6201 36.1242 49.1761C36.2502 48.9261 36.9662 47.3021 36.9662 47.3021C37.7222 45.5841 38.9602 45.5841 39.7182 47.3021C39.7182 47.3021 40.4302 48.9201 40.5602 49.1741C40.7762 49.6161 41.2762 49.8821 41.8022 49.8821C41.9742 49.8821 42.1462 49.8541 42.3142 49.7941C43.0002 49.5521 43.3282 48.8781 43.0442 48.2901C42.8682 47.9241 41.7262 43.7061 41.7262 43.7061V43.7101Z" fill="#FF6B00"/>
<defs>
<filter id="filter0_d_771_2512" x="0" y="0" width="75" height="89.3237" filterUnits="userSpaceOnUse" color-interpolation-filters="sRGB">
<feFlood flood-opacity="0" result="BackgroundImageFix"/>
<feColorMatrix in="SourceAlpha" type="matrix" values="0 0 0 0 0 0 0 0 0 0 0 0 0 0 0 0 0 0 127 0" result="hardAlpha"/>
<feOffset dy="5"/>
<feGaussianBlur stdDeviation="4"/>
<feComposite in2="hardAlpha" operator="out"/>
<feColorMatrix type="matrix" values="0 0 0 0 0 0 0 0 0 0 0 0 0 0 0 0 0 0 0.25 0"/>
<feBlend mode="normal" in2="BackgroundImageFix" result="effect1_dropShadow_771_2512"/>
<feBlend mode="normal" in="SourceGraphic" in2="effect1_dropShadow_771_2512" result="shape"/>
</filter>
</defs>
</svg>
