<svg width="75" height="90" viewBox="0 0 75 90" fill="none" xmlns="http://www.w3.org/2000/svg">
<g filter="url(#filter0_d_420_1759)">
<path d="M37.0463 74.3235L18.8971 52.7206L56.1029 52.7206L37.0463 74.3235Z" fill="#008FDF"/>
<path d="M65 32.5C65 47.6878 52.6878 60 37.5 60C22.3122 60 10 47.6878 10 32.5C10 17.3122 22.3122 5 37.5 5C52.6878 5 65 17.3122 65 32.5Z" fill="white"/>
<path d="M37.0463 74.3235L18.8971 52.7206L56.1029 52.7206L37.0463 74.3235Z" stroke="white" stroke-width="4" stroke-linejoin="round"/>
<path d="M65 32.5C65 47.6878 52.6878 60 37.5 60C22.3122 60 10 47.6878 10 32.5C10 17.3122 22.3122 5 37.5 5C52.6878 5 65 17.3122 65 32.5Z" stroke="white" stroke-width="4" stroke-linejoin="round"/>
</g>
<path d="M37.0464 74.3235L18.8971 52.7205L56.103 52.7205L37.0464 74.3235Z" fill="#008FDF"/>
<path d="M61.9091 32.5C61.9091 45.9808 50.9808 56.9091 37.5 56.9091C24.0192 56.9091 13.0909 45.9808 13.0909 32.5C13.0909 19.0192 24.0192 8.09091 37.5 8.09091C50.9808 8.09091 61.9091 19.0192 61.9091 32.5Z" fill="#008FDF" stroke="#008FDF" stroke-width="6.18182"/>
<ellipse cx="37.853" cy="33" rx="23" ry="23" fill="white"/>
<path d="M37.3999 15C27.4579 15 19.3999 23.058 19.3999 33C19.3999 42.942 27.4579 51 37.3999 51C47.3419 51 55.3999 42.942 55.3999 33C55.3999 23.058 47.3419 15 37.3999 15ZM49.5399 28.378L51.0919 29.062C50.3439 30.68 49.5199 32.122 48.6179 33.39L47.2439 32.692C48.1139 31.462 48.8799 30.024 49.5399 28.378ZM40.6719 28.858L42.2299 29.152C41.8659 31.094 41.2819 32.73 40.4799 34.06L39.0519 33.164C39.7939 32.038 40.3339 30.602 40.6719 28.858ZM26.6659 36.684L26.3719 35.282C26.7919 35.364 27.1219 35.406 27.3639 35.406C27.6059 35.406 27.7419 35.36 27.8019 35.27C27.8659 35.16 27.8979 34.946 27.8979 34.628C27.8979 33.576 27.4759 32.538 26.6339 31.518C27.0659 30.456 27.4039 29.354 27.6459 28.21H26.2299V39.654H24.8019V26.926H28.6359L29.3259 27.542C28.9159 29.042 28.4859 30.32 28.0339 31.376C28.9139 32.502 29.3539 33.676 29.3539 34.896C29.3539 35.494 29.2519 35.936 29.0459 36.222C28.7859 36.578 28.3239 36.756 27.6579 36.756C27.3339 36.756 27.0039 36.734 26.6659 36.688V36.684ZM37.6519 29.952H33.0239C33.0099 30.732 32.9819 31.384 32.9419 31.908H36.7019C36.6739 34.684 36.5619 36.764 36.3679 38.15C36.3219 38.506 36.2079 38.786 36.0259 38.99C35.7519 39.308 35.2639 39.468 34.5639 39.468C33.8979 39.468 33.3039 39.44 32.7799 39.386L32.5139 37.868C33.1239 37.992 33.6919 38.052 34.2159 38.052C34.5219 38.052 34.7199 37.974 34.8099 37.82C35.0339 37.446 35.1719 35.908 35.2259 33.206H32.8059C32.4419 36.186 31.3219 38.33 29.4499 39.638L28.3639 38.558C29.7499 37.62 30.6499 36.298 31.0639 34.594C31.3459 33.432 31.5059 31.884 31.5419 29.952H29.0739V28.592H32.1779V26.35H33.6759V28.592H37.6539V29.952H37.6519ZM45.0819 33.438C44.7119 34.932 44.1499 36.138 43.3939 37.054C42.5099 38.12 41.2199 38.97 39.5239 39.604L38.5199 38.306C40.4379 37.668 41.8279 36.698 42.6899 35.394C43.2279 34.578 43.6259 33.588 43.8859 32.42C44.0779 31.568 44.1739 30.702 44.1739 29.822V26.35H45.7259V29.706C45.7259 31.694 46.4079 33.552 47.7699 35.284C48.6999 36.468 49.9819 37.436 51.6179 38.182L50.5859 39.59C47.7599 38.1 45.9259 36.048 45.0839 33.438H45.0819Z" fill="#008FDF"/>
<defs>
<filter id="filter0_d_420_1759" x="0" y="0" width="75" height="89.3235" filterUnits="userSpaceOnUse" color-interpolation-filters="sRGB">
<feFlood flood-opacity="0" result="BackgroundImageFix"/>
<feColorMatrix in="SourceAlpha" type="matrix" values="0 0 0 0 0 0 0 0 0 0 0 0 0 0 0 0 0 0 127 0" result="hardAlpha"/>
<feOffset dy="5"/>
<feGaussianBlur stdDeviation="4"/>
<feComposite in2="hardAlpha" operator="out"/>
<feColorMatrix type="matrix" values="0 0 0 0 0 0 0 0 0 0 0 0 0 0 0 0 0 0 0.25 0"/>
<feBlend mode="normal" in2="BackgroundImageFix" result="effect1_dropShadow_420_1759"/>
<feBlend mode="normal" in="SourceGraphic" in2="effect1_dropShadow_420_1759" result="shape"/>
</filter>
</defs>
</svg>
