<svg width="75" height="90" viewBox="0 0 75 90" fill="none" xmlns="http://www.w3.org/2000/svg">
<g filter="url(#filter0_d_463_2672)">
<path d="M37.0463 74.3235L18.8971 52.7206L56.1029 52.7206L37.0463 74.3235Z" fill="#008FDF"/>
<path d="M65 32.5C65 47.6878 52.6878 60 37.5 60C22.3122 60 10 47.6878 10 32.5C10 17.3122 22.3122 5 37.5 5C52.6878 5 65 17.3122 65 32.5Z" fill="white"/>
<path d="M37.0463 74.3235L18.8971 52.7206L56.1029 52.7206L37.0463 74.3235Z" stroke="white" stroke-width="4" stroke-linejoin="round"/>
<path d="M65 32.5C65 47.6878 52.6878 60 37.5 60C22.3122 60 10 47.6878 10 32.5C10 17.3122 22.3122 5 37.5 5C52.6878 5 65 17.3122 65 32.5Z" stroke="white" stroke-width="4" stroke-linejoin="round"/>
</g>
<path d="M37.0464 74.3235L18.8971 52.7205L56.103 52.7205L37.0464 74.3235Z" fill="#E30000"/>
<path d="M61.9091 32.5C61.9091 45.9808 50.9808 56.9091 37.5 56.9091C24.0192 56.9091 13.0909 45.9808 13.0909 32.5C13.0909 19.0192 24.0192 8.09091 37.5 8.09091C50.9808 8.09091 61.9091 19.0192 61.9091 32.5Z" fill="#E30000" stroke="#E30000" stroke-width="6.18182"/>
<ellipse cx="37.853" cy="33" rx="23" ry="23" fill="white"/>
<path d="M36.5152 29.4784H33.992V32.0016H36.5152V29.4784ZM36.5152 24.9984H33.992V27.5216H36.5152V24.9984ZM34.152 38.4384V40.9616H36.1184C35.88 40.192 35.7328 39.352 35.6992 38.4384H34.152ZM34.152 33.9584V36.4816H35.792C35.8928 35.6848 36.072 34.8448 36.3424 33.9584H34.152ZM25.6496 45.0656V20.9344H40.6608V25.856C41.0688 25.3008 41.504 24.7344 41.9696 24.1568V19.624H24.3408V46.3728H40.984C40.2416 46.0448 39.5216 45.608 38.864 45.064H25.6496V45.0656ZM28.6064 32.0016H31.1296V29.4784H28.6064V32.0016ZM31.2896 33.9584H28.7664V36.4816H31.2896V33.9584ZM47.6464 21.784C42.192 25.6992 45.2688 31.5728 42.472 31.8528C42.4416 31.856 41.0448 30.0352 41.7728 27.2384C31.6464 40.064 41.3872 45.6976 45.0176 45.6976C48.648 45.6976 51.5904 42.7552 51.5904 39.1248C52.4016 33.2512 45.8288 33.8112 47.6464 21.784ZM47.6928 40.1744C47.584 41.4128 46.8096 42.7344 44.1584 42.7344C40.9184 42.7344 40.1776 39.4208 40.9136 37.9392C40.9136 37.9392 42.3472 41.7824 44.1872 40.4368C46.9152 38.44 38.7312 35.2768 46.7328 33.112C42.7312 36.7744 48.0064 36.608 47.6912 40.1744H47.6928ZM31.2896 38.4384H28.7664V40.9616H31.2896V38.4384ZM31.1296 24.9984H28.6064V27.5216H31.1296V24.9984Z" fill="#E30000"/>
<defs>
<filter id="filter0_d_463_2672" x="0" y="0" width="75" height="89.3235" filterUnits="userSpaceOnUse" color-interpolation-filters="sRGB">
<feFlood flood-opacity="0" result="BackgroundImageFix"/>
<feColorMatrix in="SourceAlpha" type="matrix" values="0 0 0 0 0 0 0 0 0 0 0 0 0 0 0 0 0 0 127 0" result="hardAlpha"/>
<feOffset dy="5"/>
<feGaussianBlur stdDeviation="4"/>
<feComposite in2="hardAlpha" operator="out"/>
<feColorMatrix type="matrix" values="0 0 0 0 0 0 0 0 0 0 0 0 0 0 0 0 0 0 0.25 0"/>
<feBlend mode="normal" in2="BackgroundImageFix" result="effect1_dropShadow_463_2672"/>
<feBlend mode="normal" in="SourceGraphic" in2="effect1_dropShadow_463_2672" result="shape"/>
</filter>
</defs>
</svg>
