<svg width="75" height="90" viewBox="0 0 75 90" fill="none" xmlns="http://www.w3.org/2000/svg">
<g filter="url(#filter0_d_463_1812)">
<path d="M37.0463 74.3235L18.8971 52.7206L56.1029 52.7206L37.0463 74.3235Z" fill="#008FDF"/>
<path d="M65 32.5C65 47.6878 52.6878 60 37.5 60C22.3122 60 10 47.6878 10 32.5C10 17.3122 22.3122 5 37.5 5C52.6878 5 65 17.3122 65 32.5Z" fill="white"/>
<path d="M37.0463 74.3235L18.8971 52.7206L56.1029 52.7206L37.0463 74.3235Z" stroke="white" stroke-width="4" stroke-linejoin="round"/>
<path d="M65 32.5C65 47.6878 52.6878 60 37.5 60C22.3122 60 10 47.6878 10 32.5C10 17.3122 22.3122 5 37.5 5C52.6878 5 65 17.3122 65 32.5Z" stroke="white" stroke-width="4" stroke-linejoin="round"/>
</g>
<path d="M37.0464 74.3235L18.8971 52.7205L56.103 52.7205L37.0464 74.3235Z" fill="#FF0000"/>
<path d="M61.9091 32.5C61.9091 45.9808 50.9808 56.9091 37.5 56.9091C24.0192 56.9091 13.0909 45.9808 13.0909 32.5C13.0909 19.0192 24.0192 8.09091 37.5 8.09091C50.9808 8.09091 61.9091 19.0192 61.9091 32.5Z" fill="#FF0000" stroke="#FF0000" stroke-width="6.18182"/>
<ellipse cx="37.853" cy="33" rx="23" ry="23" fill="white"/>
<g clip-path="url(#clip0_463_1812)">
<path d="M53.206 26.5265H51.5911L50.0288 23.4019C49.9197 23.1836 49.6953 23.0442 49.4508 23.0442H25.8525C25.614 23.0442 25.3957 23.1756 25.2825 23.3858L23.601 26.5265H22.6349C22.2408 26.5265 21.9194 26.8458 21.9194 27.242V30.6131C21.9194 31.0072 22.2388 31.3286 22.6349 31.3286H24.559L25.139 42.8568C25.1572 43.2368 25.4725 43.5359 25.8525 43.5359H28.5224V44.4697C28.5224 44.692 28.7042 44.8739 28.9266 44.8739H33.1709C33.3932 44.8739 33.5751 44.692 33.5751 44.4697V43.5359H42.0637V44.4697C42.0637 44.692 42.2456 44.8739 42.4679 44.8739H46.7122C46.9345 44.8739 47.1164 44.692 47.1164 44.4697V43.5359H49.4508C49.8308 43.5359 50.146 43.2368 50.1642 42.8568L50.7443 31.3286H53.204C53.5981 31.3286 53.9194 31.0093 53.9194 30.6131V27.242C53.9194 26.8479 53.6001 26.5265 53.204 26.5265H53.206ZM42.3588 27.8968H46.7122V30.3221H42.3588V27.8968ZM28.7245 27.8968H33.4195V30.3221H28.7245V27.8968ZM26.5336 42.107L25.9899 31.3286H30.5172L31.0932 42.107H26.5356H26.5336ZM32.1037 42.107L31.5277 31.3286H44.0302L43.4542 42.107H32.1017H32.1037ZM48.7717 42.107H44.4688L45.0448 31.3286H49.3154L48.7717 42.107Z" fill="#FF0000"/>
</g>
<defs>
<filter id="filter0_d_463_1812" x="0" y="0" width="75" height="89.3235" filterUnits="userSpaceOnUse" color-interpolation-filters="sRGB">
<feFlood flood-opacity="0" result="BackgroundImageFix"/>
<feColorMatrix in="SourceAlpha" type="matrix" values="0 0 0 0 0 0 0 0 0 0 0 0 0 0 0 0 0 0 127 0" result="hardAlpha"/>
<feOffset dy="5"/>
<feGaussianBlur stdDeviation="4"/>
<feComposite in2="hardAlpha" operator="out"/>
<feColorMatrix type="matrix" values="0 0 0 0 0 0 0 0 0 0 0 0 0 0 0 0 0 0 0.25 0"/>
<feBlend mode="normal" in2="BackgroundImageFix" result="effect1_dropShadow_463_1812"/>
<feBlend mode="normal" in="SourceGraphic" in2="effect1_dropShadow_463_1812" result="shape"/>
</filter>
<clipPath id="clip0_463_1812">
<rect width="32" height="32" fill="white" transform="translate(22 17)"/>
</clipPath>
</defs>
</svg>
