<svg width="67" height="91" viewBox="0 0 67 91" fill="none" xmlns="http://www.w3.org/2000/svg">
<g filter="url(#filter0_d_47_604)">
<path d="M33.0837 1C17.6282 1 5.10693 13.8376 5.10693 29.3454C5.10693 44.8443 24.7303 81.2 33.0837 81.2C41.4371 81.2 61.0604 44.8443 61.0604 29.3454C61.0604 13.8376 48.5304 1 33.0837 1Z" fill="#FF2020"/>
<path d="M33.0837 1C17.6282 1 5.10693 13.8376 5.10693 29.3454C5.10693 44.8443 24.7303 81.2 33.0837 81.2C41.4371 81.2 61.0604 44.8443 61.0604 29.3454C61.0604 13.8376 48.5304 1 33.0837 1Z" stroke="white" stroke-width="2"/>
</g>
<path d="M10.1069 29C10.1069 41.7025 20.4044 52 33.1069 52C45.8095 52 56.1069 41.7025 56.1069 29C56.1069 16.2975 45.8095 6 33.1069 6C20.4044 6 10.1069 16.2975 10.1069 29Z" fill="white"/>
<path fill-rule="evenodd" clip-rule="evenodd" d="M21.922 17C21.922 23.068 26.8406 27.9863 32.9066 27.9863C38.9717 27.9863 43.8903 23.068 43.8903 17H45.7054C45.7054 24.0702 39.9745 29.8015 32.9066 29.8015C25.838 29.8015 20.1069 24.0703 20.1069 17H21.922Z" fill="#FF2020" stroke="#FF2020" stroke-width="3.07182"/>
<path fill-rule="evenodd" clip-rule="evenodd" d="M31.9991 46V28.8939H33.8142V46H31.9991Z" fill="#FF2020" stroke="#FF2020" stroke-width="3.07182"/>
<defs>
<filter id="filter0_d_47_604" x="0.106934" y="0" width="65.9535" height="90.2" filterUnits="userSpaceOnUse" color-interpolation-filters="sRGB">
<feFlood flood-opacity="0" result="BackgroundImageFix"/>
<feColorMatrix in="SourceAlpha" type="matrix" values="0 0 0 0 0 0 0 0 0 0 0 0 0 0 0 0 0 0 127 0" result="hardAlpha"/>
<feOffset dy="4"/>
<feGaussianBlur stdDeviation="2"/>
<feComposite in2="hardAlpha" operator="out"/>
<feColorMatrix type="matrix" values="0 0 0 0 0 0 0 0 0 0 0 0 0 0 0 0 0 0 0.25 0"/>
<feBlend mode="normal" in2="BackgroundImageFix" result="effect1_dropShadow_47_604"/>
<feBlend mode="normal" in="SourceGraphic" in2="effect1_dropShadow_47_604" result="shape"/>
</filter>
</defs>
</svg>
