<svg width="67" height="91" viewBox="0 0 67 91" fill="none" xmlns="http://www.w3.org/2000/svg">
<g filter="url(#filter0_d_20_622)">
<path d="M33.3511 1C17.8956 1 5.37439 13.8376 5.37439 29.3454C5.37439 44.8443 24.9978 81.2 33.3511 81.2C41.7045 81.2 61.3279 44.8443 61.3279 29.3454C61.3279 13.8376 48.7978 1 33.3511 1Z" fill="#008FDF"/>
<path d="M33.3511 1C17.8956 1 5.37439 13.8376 5.37439 29.3454C5.37439 44.8443 24.9978 81.2 33.3511 81.2C41.7045 81.2 61.3279 44.8443 61.3279 29.3454C61.3279 13.8376 48.7978 1 33.3511 1Z" stroke="white" stroke-width="2"/>
</g>
<path d="M10.3744 29C10.3744 41.7025 20.6718 52 33.3744 52C46.0769 52 56.3744 41.7025 56.3744 29C56.3744 16.2975 46.0769 6 33.3744 6C20.6718 6 10.3744 16.2975 10.3744 29Z" fill="white"/>
<path d="M53.1544 22.866L46.1417 26.8841C45.0745 25.557 43.0505 24.246 40.3986 23.2455C40.279 22.4773 39.7109 21.8908 38.9818 21.486C38.1561 21.0283 33.6021 18.703 29.0504 19.2228C28.4961 19.2849 27.3691 20.6327 26.8148 21.7183C19.2616 22.7487 13.5944 26.8657 13.5944 28.8782C13.5944 31.1667 20.913 36.1669 29.998 36.2727C31.5459 37.5561 33.6044 39.0971 34.2852 38.8211C34.966 38.5451 35.3202 37.1099 35.3478 35.8541C40.5665 34.9732 44.672 32.848 46.2636 30.7182L53.1544 34.6673L52.1125 28.7678L53.1544 22.8683V22.866ZM19.7055 29.5038C19.0753 29.5038 18.567 28.9932 18.567 28.3653C18.567 27.7374 19.0776 27.2268 19.7055 27.2268C20.3334 27.2268 20.844 27.7374 20.844 28.3653C20.844 28.9932 20.3334 29.5038 19.7055 29.5038ZM24.662 34.0072C24.5401 34.1774 24.3492 34.2671 24.156 34.2671C24.0295 34.2671 23.9053 34.2303 23.7949 34.1498C23.5166 33.9497 23.4522 33.561 23.6523 33.2827C24.7816 31.7072 24.5769 27.0842 23.5902 25.9825C23.3602 25.7272 23.3832 25.3339 23.6385 25.1062C23.8938 24.8785 24.2871 24.8992 24.5148 25.1545C25.9638 26.7714 26.0512 32.0683 24.6597 34.0095L24.662 34.0072Z" fill="#008FDF"/>
<defs>
<filter id="filter0_d_20_622" x="0.37439" y="0" width="65.9535" height="90.2" filterUnits="userSpaceOnUse" color-interpolation-filters="sRGB">
<feFlood flood-opacity="0" result="BackgroundImageFix"/>
<feColorMatrix in="SourceAlpha" type="matrix" values="0 0 0 0 0 0 0 0 0 0 0 0 0 0 0 0 0 0 127 0" result="hardAlpha"/>
<feOffset dy="4"/>
<feGaussianBlur stdDeviation="2"/>
<feComposite in2="hardAlpha" operator="out"/>
<feColorMatrix type="matrix" values="0 0 0 0 0 0 0 0 0 0 0 0 0 0 0 0 0 0 0.25 0"/>
<feBlend mode="normal" in2="BackgroundImageFix" result="effect1_dropShadow_20_622"/>
<feBlend mode="normal" in="SourceGraphic" in2="effect1_dropShadow_20_622" result="shape"/>
</filter>
</defs>
</svg>
