<svg width="75" height="90" viewBox="0 0 75 90" fill="none" xmlns="http://www.w3.org/2000/svg">
<g filter="url(#filter0_d_463_2156)">
<path d="M37.0463 74.3235L18.8971 52.7206L56.1029 52.7206L37.0463 74.3235Z" fill="#008FDF"/>
<path d="M65 32.5C65 47.6878 52.6878 60 37.5 60C22.3122 60 10 47.6878 10 32.5C10 17.3122 22.3122 5 37.5 5C52.6878 5 65 17.3122 65 32.5Z" fill="white"/>
<path d="M37.0463 74.3235L18.8971 52.7206L56.1029 52.7206L37.0463 74.3235Z" stroke="white" stroke-width="4" stroke-linejoin="round"/>
<path d="M65 32.5C65 47.6878 52.6878 60 37.5 60C22.3122 60 10 47.6878 10 32.5C10 17.3122 22.3122 5 37.5 5C52.6878 5 65 17.3122 65 32.5Z" stroke="white" stroke-width="4" stroke-linejoin="round"/>
</g>
<path d="M37.0464 74.3235L18.8971 52.7205L56.103 52.7205L37.0464 74.3235Z" fill="#008FDF"/>
<path d="M61.9091 32.5C61.9091 45.9808 50.9808 56.9091 37.5 56.9091C24.0192 56.9091 13.0909 45.9808 13.0909 32.5C13.0909 19.0192 24.0192 8.09091 37.5 8.09091C50.9808 8.09091 61.9091 19.0192 61.9091 32.5Z" fill="#008FDF" stroke="#008FDF" stroke-width="6.18182"/>
<ellipse cx="37.853" cy="33" rx="23" ry="23" fill="white"/>
<path d="M55.2 27.6661L49.102 31.1601C48.174 30.0061 46.414 28.8661 44.108 27.9961C44.004 27.3281 43.51 26.8181 42.876 26.4661C42.158 26.0681 38.198 24.0461 34.24 24.4981C33.758 24.5521 32.778 25.7241 32.296 26.6681C25.728 27.5641 20.8 31.1441 20.8 32.8941C20.8 34.8841 27.164 39.2321 35.064 39.3241C36.41 40.4401 38.2 41.7801 38.792 41.5401C39.384 41.3001 39.692 40.0521 39.716 38.9601C44.254 38.1941 47.824 36.3461 49.208 34.4941L55.2 37.9281L54.294 32.7981L55.2 27.6681V27.6661ZM26.114 33.4381C25.566 33.4381 25.124 32.9941 25.124 32.4481C25.124 31.9021 25.568 31.4581 26.114 31.4581C26.66 31.4581 27.104 31.9021 27.104 32.4481C27.104 32.9941 26.66 33.4381 26.114 33.4381ZM30.424 37.3541C30.318 37.5021 30.152 37.5801 29.984 37.5801C29.874 37.5801 29.766 37.5481 29.67 37.4781C29.428 37.3041 29.372 36.9661 29.546 36.7241C30.528 35.3541 30.35 31.3341 29.492 30.3761C29.292 30.1541 29.312 29.8121 29.534 29.6141C29.756 29.4161 30.098 29.4341 30.296 29.6561C31.556 31.0621 31.632 35.6681 30.422 37.3561L30.424 37.3541Z" fill="#008FDF"/>
<defs>
<filter id="filter0_d_463_2156" x="0" y="0" width="75" height="89.3235" filterUnits="userSpaceOnUse" color-interpolation-filters="sRGB">
<feFlood flood-opacity="0" result="BackgroundImageFix"/>
<feColorMatrix in="SourceAlpha" type="matrix" values="0 0 0 0 0 0 0 0 0 0 0 0 0 0 0 0 0 0 127 0" result="hardAlpha"/>
<feOffset dy="5"/>
<feGaussianBlur stdDeviation="4"/>
<feComposite in2="hardAlpha" operator="out"/>
<feColorMatrix type="matrix" values="0 0 0 0 0 0 0 0 0 0 0 0 0 0 0 0 0 0 0.25 0"/>
<feBlend mode="normal" in2="BackgroundImageFix" result="effect1_dropShadow_463_2156"/>
<feBlend mode="normal" in="SourceGraphic" in2="effect1_dropShadow_463_2156" result="shape"/>
</filter>
</defs>
</svg>
