<svg width="69" height="64" viewBox="0 0 69 64" fill="none" xmlns="http://www.w3.org/2000/svg">
<g filter="url(#filter0_d_1_1213)">
<path d="M37.3755 6.10857C35.794 3.29714 33.206 3.29714 31.6245 6.10857L8.67499 46.8905C7.09345 49.7019 8.38744 52 11.5505 52H57.4495C60.6126 52 61.9065 49.7019 60.325 46.8905L37.3755 6.10857Z" fill="white"/>
<path d="M6.93201 45.9096L6.93187 45.9099C5.93466 47.6826 5.60954 49.7375 6.59064 51.4805C7.58192 53.2417 9.51842 54 11.5505 54H57.4495C59.4816 54 61.4181 53.2417 62.4094 51.4805C63.3905 49.7375 63.0653 47.6826 62.0681 45.9099L62.068 45.9096L39.1186 5.128C39.1186 5.12791 39.1185 5.12782 39.1185 5.12773C38.1257 3.36311 36.5295 2 34.5 2C32.4705 2 30.8743 3.36311 29.8815 5.12773C29.8815 5.12782 29.8814 5.12791 29.8814 5.128L6.93201 45.9096Z" stroke="white" stroke-width="4"/>
</g>
<path d="M6.93201 45.9096L6.93187 45.9099C5.93466 47.6826 5.60954 49.7375 6.59064 51.4805C7.58192 53.2417 9.51842 54 11.5505 54H57.4495C59.4816 54 61.4181 53.2417 62.4094 51.4805C63.3905 49.7375 63.0653 47.6826 62.0681 45.9099L62.068 45.9096L39.1186 5.128C39.1186 5.12791 39.1185 5.12782 39.1185 5.12773C38.1257 3.36311 36.5295 2 34.5 2C32.4704 2 30.8741 3.36324 29.8814 5.128L6.93201 45.9096Z" fill="#FFF000" stroke="black" stroke-width="4"/>
<g clip-path="url(#clip0_1_1213)">
<path d="M49.9154 43.3445C48.3991 43.3445 47.5922 43.9218 46.9414 44.3849C46.3926 44.777 45.9957 45.0613 45.1085 45.0613C44.2213 45.0613 43.8243 44.777 43.2755 44.3849C42.6269 43.9218 41.8178 43.3445 40.3015 43.3445C38.7853 43.3445 37.9783 43.9218 37.3276 44.3849C36.7787 44.777 36.3818 45.0613 35.4946 45.0613C34.6074 45.0613 34.2104 44.777 33.6616 44.3849C33.013 43.9218 32.2039 43.3445 30.6898 43.3445C29.1757 43.3445 28.3666 43.9218 27.718 44.3849C27.1692 44.777 26.7722 45.0613 25.885 45.0613C24.9978 45.0613 24.6009 44.777 24.0521 44.3849C23.4035 43.9218 22.5944 43.3445 21.0803 43.3445C20.5401 43.3445 20.1041 43.7774 20.1041 44.3138C20.1041 44.8502 20.5401 45.2832 21.0803 45.2832C21.9675 45.2832 22.3623 45.5676 22.9132 45.9596C23.5618 46.4228 24.3709 47.0001 25.885 47.0001C27.3991 47.0001 28.2082 46.4228 28.8568 45.9596C29.4056 45.5676 29.8026 45.2832 30.6898 45.2832C31.577 45.2832 31.9718 45.5676 32.5228 45.9596C33.1714 46.4228 33.9805 47.0001 35.4946 47.0001C37.0087 47.0001 37.8178 46.4228 38.4664 45.9596C39.0152 45.5676 39.4121 45.2832 40.2994 45.2832C41.1866 45.2832 41.5835 45.5676 42.1323 45.9596C42.7809 46.4228 43.59 47.0001 45.1063 47.0001C46.6226 47.0001 47.4295 46.4228 48.0803 45.9596C48.6291 45.5676 49.026 45.2832 49.9132 45.2832C50.4534 45.2832 50.8894 44.8502 50.8894 44.3138C50.8894 43.7774 50.4534 43.3445 49.9132 43.3445H49.9154ZM21.0846 40.6518C21.9349 40.6518 22.3015 40.9124 22.8525 41.3066C23.5141 41.7805 24.3384 42.3686 25.8894 42.3686C27.4403 42.3686 28.2646 41.7805 28.9262 41.3066C29.4794 40.9124 29.8438 40.6518 30.6941 40.6518C31.5445 40.6518 31.9111 40.9124 32.462 41.3066C33.1236 41.7805 33.9479 42.3686 35.4989 42.3686C37.0499 42.3686 37.8742 41.7805 38.5358 41.3066C39.0889 40.9124 39.4534 40.6518 40.3037 40.6518C41.154 40.6518 41.5206 40.9124 42.0738 41.3066C42.7354 41.7805 43.5597 42.3686 45.1106 42.3686C46.6616 42.3686 47.4859 41.7805 48.1475 41.3066C48.7007 40.9124 49.0651 40.6496 49.9176 40.6496C50.5163 40.6496 51.0022 40.1671 51.0022 39.5725C51.0022 38.978 50.5163 38.4954 49.9176 38.4954C48.3666 38.4954 47.5423 39.0835 46.8807 39.5574C46.3276 39.9517 45.9631 40.2123 45.1106 40.2123C44.2581 40.2123 43.8937 39.9517 43.3406 39.5553C42.679 39.0814 41.8547 38.4933 40.3037 38.4933C38.7527 38.4933 37.9284 39.0814 37.2668 39.5553C36.7137 39.9495 36.3492 40.2101 35.4989 40.2101C34.6486 40.2101 34.282 39.9495 33.731 39.5553C33.0694 39.0814 32.2451 38.4933 30.6941 38.4933C29.1432 38.4933 28.3189 39.0814 27.6573 39.5553C27.1041 39.9495 26.7397 40.2101 25.8894 40.2101C25.039 40.2101 24.6725 39.9495 24.1215 39.5553C23.4599 39.0814 22.6356 38.4933 21.0846 38.4933C20.4859 38.4933 20 38.9758 20 39.5704C20 40.1649 20.4859 40.6474 21.0846 40.6474V40.6518ZM20.8156 34.9928C20.898 35.178 21.1323 35.3288 21.3362 35.3288H24.4924C24.6551 36.4274 25.2993 37.3688 26.2039 37.9418C26.2646 37.9009 26.3297 37.8535 26.3883 37.8104C26.846 37.483 27.4881 37.0263 28.4056 36.7096C28.3449 36.7161 28.282 36.7183 28.2191 36.7183C27.141 36.7183 26.2668 35.8501 26.2668 34.7795C26.2668 33.7089 27.141 32.8408 28.2191 32.8408C29.2972 32.8408 30.1714 33.7089 30.1714 34.7795C30.1714 35.5421 29.7267 36.1991 29.0824 36.5158C29.5553 36.4081 30.0868 36.3413 30.692 36.3413C31.0195 36.3413 31.3254 36.3628 31.6139 36.3973C31.7744 36.0634 31.8915 35.7058 31.9479 35.3267H38.4707C38.5315 35.7381 38.6638 36.1259 38.846 36.4813C39.2798 36.393 39.7614 36.3391 40.3015 36.3391C40.5835 36.3391 40.8482 36.3542 41.0998 36.38C40.5835 36.0311 40.2451 35.443 40.2451 34.7774C40.2451 33.7067 41.1193 32.8386 42.1974 32.8386C43.2755 32.8386 44.1497 33.7067 44.1497 34.7774C44.1497 35.736 43.449 36.5308 42.5271 36.6859C43.4121 36.9811 44.0434 37.4076 44.5033 37.735C45.2538 37.1555 45.7809 36.3025 45.9263 35.3245H47.8612C48.0651 35.3245 48.3015 35.1737 48.3861 34.9885L48.82 34.0492C48.9046 33.864 48.974 33.5495 48.974 33.3448V31.1777C48.974 30.9753 48.8308 30.7254 48.6551 30.622L46.2082 29.1916C46.0325 29.0882 45.8351 28.8469 45.7679 28.6552L44.2777 24.3404C44.2104 24.1487 43.9913 23.9915 43.7853 23.9915H32.5206C32.3167 23.9915 32.0239 24.0992 31.8677 24.2306L26.5922 28.7242C26.4382 28.8556 26.2755 28.9633 26.2343 28.9633C26.1931 28.9633 25.9978 29.0128 25.8026 29.0731L20.577 30.706C20.3818 30.7663 20.2234 30.9817 20.2234 31.1842V33.291C20.2234 33.4935 20.2907 33.8101 20.3731 33.9975L20.8156 34.9928ZM37.846 26.5786C37.846 26.2749 38.0954 26.025 38.4035 26.025H40.8134C41.1193 26.025 41.4273 26.2663 41.4967 26.5635L41.9848 28.6186C42.0542 28.9137 41.8612 29.1571 41.5553 29.1571H38.4013C38.0954 29.1571 37.8438 28.9094 37.8438 28.6035V26.5765L37.846 26.5786ZM31.4967 28.7112L33.1518 26.4709C33.3319 26.2253 33.731 26.025 34.0369 26.025H35.8048C36.1106 26.025 36.3623 26.2727 36.3623 26.5786V28.6057C36.3623 28.9094 36.1128 29.1593 35.8048 29.1593H31.7245C31.4187 29.1593 31.3167 28.959 31.4967 28.7134V28.7112Z" fill="black"/>
</g>
<defs>
<filter id="filter0_d_1_1213" x="-0.00259399" y="0" width="69.0052" height="64" filterUnits="userSpaceOnUse" color-interpolation-filters="sRGB">
<feFlood flood-opacity="0" result="BackgroundImageFix"/>
<feColorMatrix in="SourceAlpha" type="matrix" values="0 0 0 0 0 0 0 0 0 0 0 0 0 0 0 0 0 0 127 0" result="hardAlpha"/>
<feOffset dy="4"/>
<feGaussianBlur stdDeviation="2"/>
<feComposite in2="hardAlpha" operator="out"/>
<feColorMatrix type="matrix" values="0 0 0 0 0 0 0 0 0 0 0 0 0 0 0 0 0 0 0.25 0"/>
<feBlend mode="normal" in2="BackgroundImageFix" result="effect1_dropShadow_1_1213"/>
<feBlend mode="normal" in="SourceGraphic" in2="effect1_dropShadow_1_1213" result="shape"/>
</filter>
<clipPath id="clip0_1_1213">
<rect width="31" height="23" fill="white" transform="translate(20 24)"/>
</clipPath>
</defs>
</svg>
