<svg width="75" height="90" viewBox="0 0 75 90" fill="none" xmlns="http://www.w3.org/2000/svg">
<g filter="url(#filter0_d_415_1579)">
<path d="M37.0463 74.3235L18.8971 52.7206L56.1029 52.7206L37.0463 74.3235Z" fill="#008FDF"/>
<path d="M65 32.5C65 47.6878 52.6878 60 37.5 60C22.3122 60 10 47.6878 10 32.5C10 17.3122 22.3122 5 37.5 5C52.6878 5 65 17.3122 65 32.5Z" fill="white"/>
<path d="M37.0463 74.3235L18.8971 52.7206L56.1029 52.7206L37.0463 74.3235Z" stroke="white" stroke-width="4" stroke-linejoin="round"/>
<path d="M65 32.5C65 47.6878 52.6878 60 37.5 60C22.3122 60 10 47.6878 10 32.5C10 17.3122 22.3122 5 37.5 5C52.6878 5 65 17.3122 65 32.5Z" stroke="white" stroke-width="4" stroke-linejoin="round"/>
</g>
<path d="M37.0464 74.3235L18.8971 52.7205L56.103 52.7205L37.0464 74.3235Z" fill="#008000"/>
<path d="M61.9091 32.5C61.9091 45.9808 50.9808 56.9091 37.5 56.9091C24.0192 56.9091 13.0909 45.9808 13.0909 32.5C13.0909 19.0192 24.0192 8.09091 37.5 8.09091C50.9808 8.09091 61.9091 19.0192 61.9091 32.5Z" fill="#008000" stroke="#008000" stroke-width="6.18182"/>
<ellipse cx="37.853" cy="33" rx="23" ry="23" fill="white"/>
<path d="M50.7679 24.6655L39.1183 18.8463C38.4591 18.5167 37.5391 18.5167 36.8799 18.8463L25.2319 24.6655C24.5087 25.0271 23.9839 25.8751 23.9839 26.6831V45.5391C23.9839 46.5647 24.8175 47.3983 25.8431 47.3983H50.1567C51.1823 47.3983 52.0159 46.5647 52.0159 45.5391V26.6847C52.0159 25.8767 51.4911 25.0271 50.7679 24.6671V24.6655ZM49.5855 44.9711H26.4143V26.7919L37.9391 21.0335C37.9727 21.0271 38.0271 21.0271 38.0607 21.0335L49.5855 26.7919V44.9711Z" fill="#008000"/>
<path d="M30.7168 30.8624H35.9328L36.8064 31.72C36.5024 33.304 36.0976 34.6528 35.5952 35.7648C34.872 37.36 33.8432 38.7808 32.5104 40.0288C32.2432 40.28 31.8864 40.5872 31.44 40.9488L30.1968 39.5488C32.7152 37.7344 34.2672 35.3648 34.8544 32.4432H30.7152V30.8624H30.7168ZM39.1056 29.9968C39.3312 30.9984 39.6912 31.9936 40.184 32.9792C41.5328 31.8416 42.7456 30.616 43.8272 29.304L45.2592 30.4928C43.7744 32.0976 42.3424 33.3696 40.9632 34.3088C40.9888 34.3456 41.016 34.3856 41.0416 34.4272C42.1856 36.1632 43.8368 37.6896 45.9984 39.0064L44.8736 40.5488C42.3712 39.0432 40.448 36.8432 39.1056 33.9472V40.808C39.1056 41.328 38.9792 41.6912 38.728 41.9024C38.4704 42.1168 38.0016 42.2256 37.32 42.2256C36.5072 42.2256 35.7696 42.184 35.1088 42.0992L34.7856 40.3136C35.6928 40.44 36.4016 40.5024 36.9104 40.5024C37.1312 40.5024 37.2624 40.4544 37.304 40.36C37.336 40.2976 37.352 40.2 37.352 40.0688V27.0144H39.1072V29.9968H39.1056Z" fill="#008000"/>
<defs>
<filter id="filter0_d_415_1579" x="0" y="0" width="75" height="89.3235" filterUnits="userSpaceOnUse" color-interpolation-filters="sRGB">
<feFlood flood-opacity="0" result="BackgroundImageFix"/>
<feColorMatrix in="SourceAlpha" type="matrix" values="0 0 0 0 0 0 0 0 0 0 0 0 0 0 0 0 0 0 127 0" result="hardAlpha"/>
<feOffset dy="5"/>
<feGaussianBlur stdDeviation="4"/>
<feComposite in2="hardAlpha" operator="out"/>
<feColorMatrix type="matrix" values="0 0 0 0 0 0 0 0 0 0 0 0 0 0 0 0 0 0 0.25 0"/>
<feBlend mode="normal" in2="BackgroundImageFix" result="effect1_dropShadow_415_1579"/>
<feBlend mode="normal" in="SourceGraphic" in2="effect1_dropShadow_415_1579" result="shape"/>
</filter>
</defs>
</svg>
