<svg width="75" height="90" viewBox="0 0 75 90" fill="none" xmlns="http://www.w3.org/2000/svg">
<g filter="url(#filter0_d_781_2934)">
<path d="M37.0463 74.3235L18.8971 52.7206L56.1029 52.7206L37.0463 74.3235Z" fill="#008FDF"/>
<path d="M65 32.5C65 47.6878 52.6878 60 37.5 60C22.3122 60 10 47.6878 10 32.5C10 17.3122 22.3122 5 37.5 5C52.6878 5 65 17.3122 65 32.5Z" fill="#FF0000"/>
<path d="M37.0463 74.3235L18.8971 52.7206L56.1029 52.7206L37.0463 74.3235Z" stroke="white" stroke-width="4" stroke-linejoin="round"/>
<path d="M65 32.5C65 47.6878 52.6878 60 37.5 60C22.3122 60 10 47.6878 10 32.5C10 17.3122 22.3122 5 37.5 5C52.6878 5 65 17.3122 65 32.5Z" stroke="white" stroke-width="4" stroke-linejoin="round"/>
</g>
<path d="M37.0464 74.3235L18.8971 52.7205L56.103 52.7205L37.0464 74.3235Z" fill="#FF0000"/>
<path d="M37.5 8.09082C50.9808 8.09082 61.9092 19.0192 61.9092 32.5C61.9092 45.9808 50.9808 56.9092 37.5 56.9092C24.0192 56.9092 13.0908 45.9808 13.0908 32.5C13.0908 19.0192 24.0192 8.09082 37.5 8.09082Z" fill="#FF0000" stroke="#FF0000" stroke-width="6.18182"/>
<ellipse cx="37.853" cy="33" rx="23" ry="23" fill="white"/>
<path d="M48.2192 21.3569H40.4592V19.8369C40.4592 19.5281 40.208 19.2769 39.8992 19.2769H37.0192C36.7104 19.2769 36.4592 19.5281 36.4592 19.8369V21.3569H28.6992C28.3904 21.3569 28.1392 21.6081 28.1392 21.9169V23.9969C28.1392 24.3057 28.3904 24.5569 28.6992 24.5569H48.2192C48.528 24.5569 48.7792 24.3057 48.7792 23.9969V21.9169C48.7792 21.6081 48.528 21.3569 48.2192 21.3569ZM47.2192 26.8769H29.6992C29.472 26.8769 29.256 26.9729 29.104 27.1425C28.952 27.3105 28.88 27.5361 28.9024 27.7617L30.7664 45.3617C30.8096 45.7681 31.152 46.0769 31.5616 46.0769H45.3536C45.7632 46.0769 46.1056 45.7681 46.1488 45.3617L48.0128 27.7617C48.0368 27.5361 47.9632 27.3105 47.8112 27.1425C47.6592 26.9745 47.4432 26.8769 47.216 26.8769H47.2192ZM33.784 44.4993C33.768 44.4993 33.7536 44.4993 33.7376 44.4993C33.3168 44.4993 32.9632 44.1697 32.9392 43.7457L32.1392 29.7217C32.1136 29.2801 32.4512 28.9025 32.8928 28.8769C33.3328 28.8577 33.712 29.1889 33.7376 29.6305L34.5376 43.6545C34.5632 44.0961 34.2256 44.4737 33.784 44.4993ZM39.2592 43.6993C39.2592 44.1409 38.9008 44.4993 38.4592 44.4993C38.0176 44.4993 37.6592 44.1409 37.6592 43.6993V29.6753C37.6592 29.2337 38.0176 28.8753 38.4592 28.8753C38.9008 28.8753 39.2592 29.2337 39.2592 29.6753V43.6993ZM43.9776 43.7457C43.9536 44.1713 43.6 44.4993 43.1792 44.4993C43.1632 44.4993 43.1488 44.4993 43.1328 44.4993C42.6912 44.4737 42.3552 44.0961 42.3792 43.6545L43.1792 29.6305C43.2048 29.1889 43.5808 28.8545 44.024 28.8769C44.4656 28.9025 44.8016 29.2801 44.7776 29.7217L43.9776 43.7457Z" fill="#FF0000"/>
<defs>
<filter id="filter0_d_781_2934" x="0" y="0" width="75" height="89.3235" filterUnits="userSpaceOnUse" color-interpolation-filters="sRGB">
<feFlood flood-opacity="0" result="BackgroundImageFix"/>
<feColorMatrix in="SourceAlpha" type="matrix" values="0 0 0 0 0 0 0 0 0 0 0 0 0 0 0 0 0 0 127 0" result="hardAlpha"/>
<feOffset dy="5"/>
<feGaussianBlur stdDeviation="4"/>
<feComposite in2="hardAlpha" operator="out"/>
<feColorMatrix type="matrix" values="0 0 0 0 0 0 0 0 0 0 0 0 0 0 0 0 0 0 0.25 0"/>
<feBlend mode="normal" in2="BackgroundImageFix" result="effect1_dropShadow_781_2934"/>
<feBlend mode="normal" in="SourceGraphic" in2="effect1_dropShadow_781_2934" result="shape"/>
</filter>
</defs>
</svg>
