<svg width="75" height="90" viewBox="0 0 75 90" fill="none" xmlns="http://www.w3.org/2000/svg">
<g filter="url(#filter0_d_878_3128)">
<path d="M37.0463 74.3235L18.8971 52.7206L56.1029 52.7206L37.0463 74.3235Z" fill="#008FDF"/>
<path d="M65 32.5C65 47.6878 52.6878 60 37.5 60C22.3122 60 10 47.6878 10 32.5C10 17.3122 22.3122 5 37.5 5C52.6878 5 65 17.3122 65 32.5Z" fill="white"/>
<path d="M37.0463 74.3235L18.8971 52.7206L56.1029 52.7206L37.0463 74.3235Z" stroke="white" stroke-width="4" stroke-linejoin="round"/>
<path d="M65 32.5C65 47.6878 52.6878 60 37.5 60C22.3122 60 10 47.6878 10 32.5C10 17.3122 22.3122 5 37.5 5C52.6878 5 65 17.3122 65 32.5Z" stroke="white" stroke-width="4" stroke-linejoin="round"/>
</g>
<path d="M37.0464 74.3237L18.8971 52.7208L56.103 52.7208L37.0464 74.3237Z" fill="#00A560"/>
<path d="M37.5 8.09082C50.9808 8.09082 61.9092 19.0192 61.9092 32.5C61.9092 45.9808 50.9808 56.9092 37.5 56.9092C24.0192 56.9092 13.0908 45.9808 13.0908 32.5C13.0908 19.0192 24.0192 8.09082 37.5 8.09082Z" fill="#00A560" stroke="#00A560" stroke-width="6.18182"/>
<ellipse cx="37.853" cy="33" rx="23" ry="23" fill="white"/>
<path d="M29.0051 36.6117H43.1816V21.7026H29.0051V36.6117ZM31.1566 23.8541H41.0301V34.4583H31.1566V23.8541ZM55.4194 27.6022C55.4194 26.2628 52.1319 17.4605 52.1319 17.4605C51.9488 16.8704 51.3031 16.5355 50.6908 16.7131C50.0784 16.8907 49.7306 17.5123 49.9156 18.1025L51.5029 23.0586L48.3764 28.875C48.1692 29.258 48.2118 29.7223 48.4837 30.0664L51.0608 33.3187L50.4577 35.3685C50.3615 35.6978 50.5946 36.0308 50.9479 36.066L52.2133 36.1918V44.0395L47.4089 43.9821V20.7221C47.4089 18.7981 45.8438 17.2311 43.9179 17.2311H28.2688C26.3448 17.2311 24.7778 18.7962 24.7778 20.7221V49.7634H47.4107V45.8284L53.1291 45.8969C53.1291 45.8969 53.1365 45.8969 53.1402 45.8969C53.3825 45.8969 53.6175 45.8007 53.7895 45.6305C53.9653 45.4566 54.0652 45.2198 54.0652 44.9719V36.3712L54.9162 36.4563C55.3047 36.4952 55.6414 36.1936 55.6303 35.8162C55.5729 33.8978 55.4212 28.6882 55.4212 27.6004L55.4194 27.6022ZM44.8688 47.2215H27.3197V20.7221C27.3197 20.1985 27.7452 19.773 28.2688 19.773H43.9198C44.4433 19.773 44.8688 20.1985 44.8688 20.7221V47.2215ZM52.3965 28.999L52.0191 30.3643C51.9599 30.5789 51.6694 30.6122 51.5621 30.4179L51.0793 29.5447C51.0441 29.48 51.0386 29.4041 51.0645 29.3357L51.6898 27.7188C51.7786 27.4875 52.1134 27.5153 52.1652 27.7576L52.3983 28.8843C52.4057 28.9231 52.4057 28.962 52.3946 29.0008L52.3965 28.999Z" fill="#00A560"/>
<defs>
<filter id="filter0_d_878_3128" x="0" y="0" width="75" height="89.3237" filterUnits="userSpaceOnUse" color-interpolation-filters="sRGB">
<feFlood flood-opacity="0" result="BackgroundImageFix"/>
<feColorMatrix in="SourceAlpha" type="matrix" values="0 0 0 0 0 0 0 0 0 0 0 0 0 0 0 0 0 0 127 0" result="hardAlpha"/>
<feOffset dy="5"/>
<feGaussianBlur stdDeviation="4"/>
<feComposite in2="hardAlpha" operator="out"/>
<feColorMatrix type="matrix" values="0 0 0 0 0 0 0 0 0 0 0 0 0 0 0 0 0 0 0.25 0"/>
<feBlend mode="normal" in2="BackgroundImageFix" result="effect1_dropShadow_878_3128"/>
<feBlend mode="normal" in="SourceGraphic" in2="effect1_dropShadow_878_3128" result="shape"/>
</filter>
</defs>
</svg>
