<svg width="75" height="90" viewBox="0 0 75 90" fill="none" xmlns="http://www.w3.org/2000/svg">
<g filter="url(#filter0_d_415_1627)">
<path d="M37.0463 74.3235L18.8971 52.7206L56.1029 52.7206L37.0463 74.3235Z" fill="#008FDF"/>
<path d="M65 32.5C65 47.6878 52.6878 60 37.5 60C22.3122 60 10 47.6878 10 32.5C10 17.3122 22.3122 5 37.5 5C52.6878 5 65 17.3122 65 32.5Z" fill="white"/>
<path d="M37.0463 74.3235L18.8971 52.7206L56.1029 52.7206L37.0463 74.3235Z" stroke="white" stroke-width="4" stroke-linejoin="round"/>
<path d="M65 32.5C65 47.6878 52.6878 60 37.5 60C22.3122 60 10 47.6878 10 32.5C10 17.3122 22.3122 5 37.5 5C52.6878 5 65 17.3122 65 32.5Z" stroke="white" stroke-width="4" stroke-linejoin="round"/>
</g>
<path d="M37.0464 74.3235L18.8971 52.7205L56.103 52.7205L37.0464 74.3235Z" fill="#008FDF"/>
<path d="M61.9091 32.5C61.9091 45.9808 50.9808 56.9091 37.5 56.9091C24.0192 56.9091 13.0909 45.9808 13.0909 32.5C13.0909 19.0192 24.0192 8.09091 37.5 8.09091C50.9808 8.09091 61.9091 19.0192 61.9091 32.5Z" fill="#008FDF" stroke="#008FDF" stroke-width="6.18182"/>
<ellipse cx="37.853" cy="33" rx="23" ry="23" fill="white"/>
<path d="M38 51C28.074 51 20 42.926 20 33C20 23.074 28.074 15 38 15C47.926 15 56 23.074 56 33C56 42.926 47.926 51 38 51ZM38 17.88C29.662 17.88 22.88 24.662 22.88 33C22.88 41.338 29.662 48.12 38 48.12C46.338 48.12 53.12 41.338 53.12 33C53.12 24.662 46.338 17.88 38 17.88Z" fill="#008FDF"/>
<path d="M45.606 23.2739H41.698C41.5 23.2739 41.338 23.4359 41.338 23.6339V30.4519H34.7V23.6339C34.7 23.4359 34.538 23.2739 34.34 23.2739H30.444C30.246 23.2739 30.084 23.4359 30.084 23.6339V42.4619C30.084 42.6599 30.246 42.8219 30.444 42.8219H34.34C34.538 42.8219 34.7 42.6599 34.7 42.4619V34.4179H41.338V42.4619C41.338 42.6599 41.5 42.8219 41.698 42.8219H45.606C45.804 42.8219 45.966 42.6599 45.966 42.4619V23.6339C45.966 23.4359 45.804 23.2739 45.606 23.2739Z" fill="#008FDF"/>
<defs>
<filter id="filter0_d_415_1627" x="0" y="0" width="75" height="89.3235" filterUnits="userSpaceOnUse" color-interpolation-filters="sRGB">
<feFlood flood-opacity="0" result="BackgroundImageFix"/>
<feColorMatrix in="SourceAlpha" type="matrix" values="0 0 0 0 0 0 0 0 0 0 0 0 0 0 0 0 0 0 127 0" result="hardAlpha"/>
<feOffset dy="5"/>
<feGaussianBlur stdDeviation="4"/>
<feComposite in2="hardAlpha" operator="out"/>
<feColorMatrix type="matrix" values="0 0 0 0 0 0 0 0 0 0 0 0 0 0 0 0 0 0 0.25 0"/>
<feBlend mode="normal" in2="BackgroundImageFix" result="effect1_dropShadow_415_1627"/>
<feBlend mode="normal" in="SourceGraphic" in2="effect1_dropShadow_415_1627" result="shape"/>
</filter>
</defs>
</svg>
