<svg width="67" height="91" viewBox="0 0 67 91" fill="none" xmlns="http://www.w3.org/2000/svg">
<g filter="url(#filter0_d_22_880)">
<path d="M33.2442 1.30005C17.7887 1.30005 5.26746 14.1377 5.26746 29.6454C5.26746 45.1443 24.8908 81.5 33.2442 81.5C41.5976 81.5 61.2209 45.1443 61.2209 29.6454C61.2209 14.1377 48.6909 1.30005 33.2442 1.30005Z" fill="#A76400"/>
<path d="M33.2442 1.30005C17.7887 1.30005 5.26746 14.1377 5.26746 29.6454C5.26746 45.1443 24.8908 81.5 33.2442 81.5C41.5976 81.5 61.2209 45.1443 61.2209 29.6454C61.2209 14.1377 48.6909 1.30005 33.2442 1.30005Z" stroke="white" stroke-width="2"/>
</g>
<path d="M10.2675 29.3C10.2675 42.0026 20.5649 52.3 33.2675 52.3C45.97 52.3 56.2675 42.0026 56.2675 29.3C56.2675 16.5975 45.97 6.30005 33.2675 6.30005C20.5649 6.30005 10.2675 16.5975 10.2675 29.3Z" fill="white"/>
<path d="M32.6501 8.58447L18.2231 20.2584L19.9199 22.3563L32.6501 12.0579L45.3782 22.3563L47.0771 20.2584L32.6501 8.58447Z" fill="#A76400"/>
<path d="M36.3501 42.0501V42.1301H36.4301H38.1374H38.1395H38.1726L38.196 42.1067L39.2355 41.0672L39.2921 41.0106L39.2355 40.954L36.4866 38.2051L36.3501 38.0686V38.2617V42.0501ZM39.9768 41.6953L39.9203 41.6387L39.8637 41.6953L39.5655 41.9935L39.4289 42.1301H39.6221H40.2185H40.4116L40.275 41.9935L39.9768 41.6953ZM26.0646 40.954L25.928 41.0906H26.0901L27.1062 42.1067L27.1296 42.1301H27.1628H28.8701H28.9501V42.0501V38.2617V38.0686L28.8135 38.2051L26.0646 40.954ZM25.676 42.1301H25.8691L25.7325 41.9935L25.4343 41.6953L25.3778 41.6387L25.3212 41.6953L25.023 41.9935L24.8864 42.1301H25.0796H25.676ZM30.588 36.4285L30.4514 36.5651H30.6446H34.6514H34.8445L34.7079 36.4285L32.7045 34.4251L32.648 34.3685L32.5914 34.4251L30.588 36.4285ZM25.3212 40.3238L25.3778 40.3803L25.4343 40.3238L28.3281 37.43L28.3847 37.3734L28.3281 37.3168L25.4343 34.423L25.3778 34.3664L25.3212 34.423L22.4274 37.3168L22.3708 37.3734L22.4274 37.43L25.3212 40.3238ZM36.9699 37.3168L36.9133 37.3734L36.9699 37.43L39.8637 40.3238L39.9203 40.3803L39.9768 40.3238L42.8706 37.43L42.9272 37.3734L42.8706 37.3168L39.9768 34.423L39.9203 34.3664L39.8637 34.423L36.9699 37.3168ZM42.7785 35.9663L42.9151 36.1028V35.9097V32.6001V32.5201H42.8351H41.8019H41.7687L41.7453 32.5435L40.6071 33.6817L40.5505 33.7383L40.6071 33.7949L42.7785 35.9663ZM39.9203 33.077H40.1134L40.0324 32.9959L40.3716 32.6567L40.5082 32.5201H40.3151H39.5234H39.3302L39.4668 32.6567L39.8061 32.9959L39.725 33.077H39.9182H39.9203ZM38.0952 32.5435L38.0718 32.5201H38.0387H38.0366H34.5275H34.4943L34.4709 32.5435L33.3327 33.6817L33.2761 33.7383L33.3327 33.7949L36.0795 36.5417L36.1027 36.5648L36.1355 36.5651L36.4274 36.5672L36.4609 36.5674L36.4845 36.5438L39.2334 33.7949L39.29 33.7383L39.2334 33.6817L38.0952 32.5435ZM32.5935 33.0536L32.6501 33.1101L32.7066 33.0536L33.1035 32.6567L33.2401 32.5201H33.047H32.2532H32.06L32.1966 32.6567L32.5935 33.0536ZM30.825 32.5435L30.8016 32.5201H30.7685H30.7664H27.2573H27.2241L27.2007 32.5435L26.0625 33.6817L26.0059 33.7383L26.0625 33.7949L28.8114 36.5417L28.8349 36.5651H28.868H29.1599H29.193L29.2164 36.5417L31.9632 33.7949L32.0198 33.7383L31.9632 33.6817L30.825 32.5435ZM25.3212 33.0536L25.3778 33.1101L25.4343 33.0536L25.8312 32.6567L25.9678 32.5201H25.7747H24.9809H24.7877L24.9243 32.6567L25.3212 33.0536ZM23.5527 32.5435L23.5293 32.5201H23.4962H22.463H22.383V32.6001V35.9097V36.1028L22.5195 35.9663L24.6909 33.7949L24.7475 33.7383L24.6909 33.6817L23.5527 32.5435ZM22.5216 38.7826L22.3851 38.646V38.8392V42.0501V42.1301H22.4651H23.597H23.6301L23.6535 42.1067L24.693 41.0672L24.7496 41.0106L24.693 40.954L22.5216 38.7826ZM41.6466 42.1067L41.67 42.1301H41.7032H42.8351H42.9151V42.0501V38.8392V38.646L42.7785 38.7826L40.6071 40.954L40.5505 41.0106L40.6071 41.0672L41.6466 42.1067ZM42.8351 31.8401H42.9151V31.7601V23.8746V23.836L42.8849 23.812L32.6999 15.7039L32.6501 15.6642L32.6003 15.7039L22.4153 23.812L22.3851 23.836V23.8746V31.7601V31.8401H22.4651H42.8351ZM21.2851 43.2301V23.3042L32.6501 14.2559L44.0151 23.3042V43.2301H21.2851Z" fill="#A76400" stroke="#A76400" stroke-width="0.16"/>
<path d="M34.475 22.3101H30.8231V27.1401H34.475V22.3101Z" fill="#A76400"/>
<defs>
<filter id="filter0_d_22_880" x="0.267456" y="0.300049" width="65.9535" height="90.2" filterUnits="userSpaceOnUse" color-interpolation-filters="sRGB">
<feFlood flood-opacity="0" result="BackgroundImageFix"/>
<feColorMatrix in="SourceAlpha" type="matrix" values="0 0 0 0 0 0 0 0 0 0 0 0 0 0 0 0 0 0 127 0" result="hardAlpha"/>
<feOffset dy="4"/>
<feGaussianBlur stdDeviation="2"/>
<feComposite in2="hardAlpha" operator="out"/>
<feColorMatrix type="matrix" values="0 0 0 0 0 0 0 0 0 0 0 0 0 0 0 0 0 0 0.25 0"/>
<feBlend mode="normal" in2="BackgroundImageFix" result="effect1_dropShadow_22_880"/>
<feBlend mode="normal" in="SourceGraphic" in2="effect1_dropShadow_22_880" result="shape"/>
</filter>
</defs>
</svg>
