<svg width="75" height="90" viewBox="0 0 75 90" fill="none" xmlns="http://www.w3.org/2000/svg">
<g filter="url(#filter0_d_463_2178)">
<path d="M37.0463 74.3235L18.8971 52.7206L56.1029 52.7206L37.0463 74.3235Z" fill="#008FDF"/>
<path d="M65 32.5C65 47.6878 52.6878 60 37.5 60C22.3122 60 10 47.6878 10 32.5C10 17.3122 22.3122 5 37.5 5C52.6878 5 65 17.3122 65 32.5Z" fill="white"/>
<path d="M37.0463 74.3235L18.8971 52.7206L56.1029 52.7206L37.0463 74.3235Z" stroke="white" stroke-width="4" stroke-linejoin="round"/>
<path d="M65 32.5C65 47.6878 52.6878 60 37.5 60C22.3122 60 10 47.6878 10 32.5C10 17.3122 22.3122 5 37.5 5C52.6878 5 65 17.3122 65 32.5Z" stroke="white" stroke-width="4" stroke-linejoin="round"/>
</g>
<path d="M37.0464 74.3235L18.8971 52.7205L56.103 52.7205L37.0464 74.3235Z" fill="#A76400"/>
<path d="M61.9091 32.5C61.9091 45.9808 50.9808 56.9091 37.5 56.9091C24.0192 56.9091 13.0909 45.9808 13.0909 32.5C13.0909 19.0192 24.0192 8.09091 37.5 8.09091C50.9808 8.09091 61.9091 19.0192 61.9091 32.5Z" fill="#A76400" stroke="#A76400" stroke-width="6.18182"/>
<ellipse cx="37.853" cy="33" rx="23" ry="23" fill="white"/>
<path d="M37.4119 16.1279L23.6719 27.2459L25.2879 29.2439L37.4119 19.4359L49.5339 29.2439L51.1519 27.2459L37.4119 16.1279Z" fill="#A76400"/>
<path d="M26.5122 30.1099V49.1999H48.3122V30.1099L37.4122 21.4319L26.5122 30.1099ZM42.6382 47.9999H41.0122V44.3919L43.6302 47.0099L42.6402 47.9999H42.6382ZM44.3362 47.7159L44.6202 47.9999H44.0522L44.3362 47.7159ZM31.1942 47.0099L33.8122 44.3919V47.9999H32.1862L31.1962 47.0099H31.1942ZM30.7702 47.9999H30.2022L30.4862 47.7159L30.7702 47.9999ZM35.5022 42.6999L37.4102 40.7919L39.3182 42.6999H35.5022ZM30.4862 46.3019L27.7302 43.5459L30.4862 40.7899L33.2422 43.5459L30.4862 46.3019ZM41.5802 43.5459L44.3362 40.7899L47.0922 43.5459L44.3362 46.3019L41.5802 43.5459ZM47.1122 42.1519L45.0442 40.0839L46.1282 38.9999H47.1122V42.1519ZM44.3362 39.3779L43.9582 38.9999H44.7122L44.3342 39.3779H44.3362ZM42.5442 38.9999L43.6282 40.0839L41.0102 42.7019L40.7322 42.6999L38.1162 40.0839L39.2002 38.9999H42.5422H42.5442ZM37.4122 39.3779L37.0342 38.9999H37.7902L37.4122 39.3779ZM35.6202 38.9999L36.7042 40.0839L34.0882 42.6999H33.8102L31.1922 40.0839L32.2762 38.9999H35.6182H35.6202ZM30.4862 39.3779L30.1082 38.9999H30.8642L30.4862 39.3779ZM28.6942 38.9999L29.7782 40.0839L27.7102 42.1519V38.9999H28.6942ZM27.7122 44.9419L29.7802 47.0099L28.7902 47.9999H27.7122V44.9419ZM46.0342 47.9999L45.0442 47.0099L47.1122 44.9419V47.9999H46.0342ZM47.1122 38.1999H27.7122V30.6899L37.4122 22.9679L47.1122 30.6899V38.1999Z" fill="#A76400"/>
<path d="M39.1499 29.2H35.6719V33.7999H39.1499V29.2Z" fill="#A76400"/>
<defs>
<filter id="filter0_d_463_2178" x="0" y="0" width="75" height="89.3235" filterUnits="userSpaceOnUse" color-interpolation-filters="sRGB">
<feFlood flood-opacity="0" result="BackgroundImageFix"/>
<feColorMatrix in="SourceAlpha" type="matrix" values="0 0 0 0 0 0 0 0 0 0 0 0 0 0 0 0 0 0 127 0" result="hardAlpha"/>
<feOffset dy="5"/>
<feGaussianBlur stdDeviation="4"/>
<feComposite in2="hardAlpha" operator="out"/>
<feColorMatrix type="matrix" values="0 0 0 0 0 0 0 0 0 0 0 0 0 0 0 0 0 0 0.25 0"/>
<feBlend mode="normal" in2="BackgroundImageFix" result="effect1_dropShadow_463_2178"/>
<feBlend mode="normal" in="SourceGraphic" in2="effect1_dropShadow_463_2178" result="shape"/>
</filter>
</defs>
</svg>
