<svg width="67" height="91" viewBox="0 0 67 91" fill="none" xmlns="http://www.w3.org/2000/svg">
<g filter="url(#filter0_d_47_614)">
<path d="M33.1371 1C17.6816 1 5.1604 13.8376 5.1604 29.3454C5.1604 44.8443 24.7838 81.2 33.1371 81.2C41.4905 81.2 61.1139 44.8443 61.1139 29.3454C61.1139 13.8376 48.5838 1 33.1371 1Z" fill="#455DB7"/>
<path d="M33.1371 1C17.6816 1 5.1604 13.8376 5.1604 29.3454C5.1604 44.8443 24.7838 81.2 33.1371 81.2C41.4905 81.2 61.1139 44.8443 61.1139 29.3454C61.1139 13.8376 48.5838 1 33.1371 1Z" stroke="white" stroke-width="2"/>
</g>
<path d="M10.1604 29C10.1604 41.7025 20.4579 52 33.1604 52C45.8629 52 56.1604 41.7025 56.1604 29C56.1604 16.2975 45.8629 6 33.1604 6C20.4579 6 10.1604 16.2975 10.1604 29Z" fill="white"/>
<path d="M41.1604 24.7008V11H25.1604V24.7008H17.1604V41H33.1604H49.1604V24.7008H41.1604ZM25.5656 33.4612H22.0872V29.9177H25.5656V33.4612ZM34.8997 33.4612H31.4212V29.9177H34.8997V33.4612ZM37.9143 20.6479H34.4007V24.2273H31.9202V20.6479H28.4065V18.123H31.9202V14.5436H34.4007V18.123H37.9143V20.6479ZM44.2337 33.4612H40.7551V29.9177H44.2337V33.4612Z" fill="#455DB7"/>
<defs>
<filter id="filter0_d_47_614" x="0.1604" y="0" width="65.9535" height="90.2" filterUnits="userSpaceOnUse" color-interpolation-filters="sRGB">
<feFlood flood-opacity="0" result="BackgroundImageFix"/>
<feColorMatrix in="SourceAlpha" type="matrix" values="0 0 0 0 0 0 0 0 0 0 0 0 0 0 0 0 0 0 127 0" result="hardAlpha"/>
<feOffset dy="4"/>
<feGaussianBlur stdDeviation="2"/>
<feComposite in2="hardAlpha" operator="out"/>
<feColorMatrix type="matrix" values="0 0 0 0 0 0 0 0 0 0 0 0 0 0 0 0 0 0 0.25 0"/>
<feBlend mode="normal" in2="BackgroundImageFix" result="effect1_dropShadow_47_614"/>
<feBlend mode="normal" in="SourceGraphic" in2="effect1_dropShadow_47_614" result="shape"/>
</filter>
</defs>
</svg>
