<svg width="75" height="90" viewBox="0 0 75 90" fill="none" xmlns="http://www.w3.org/2000/svg">
<g filter="url(#filter0_d_420_2062)">
<path d="M37.0463 74.3235L18.8971 52.7206L56.1029 52.7206L37.0463 74.3235Z" fill="#008FDF"/>
<path d="M65 32.5C65 47.6878 52.6878 60 37.5 60C22.3122 60 10 47.6878 10 32.5C10 17.3122 22.3122 5 37.5 5C52.6878 5 65 17.3122 65 32.5Z" fill="white"/>
<path d="M37.0463 74.3235L18.8971 52.7206L56.1029 52.7206L37.0463 74.3235Z" stroke="white" stroke-width="4" stroke-linejoin="round"/>
<path d="M65 32.5C65 47.6878 52.6878 60 37.5 60C22.3122 60 10 47.6878 10 32.5C10 17.3122 22.3122 5 37.5 5C52.6878 5 65 17.3122 65 32.5Z" stroke="white" stroke-width="4" stroke-linejoin="round"/>
</g>
<path d="M37.0464 74.3235L18.8971 52.7205L56.103 52.7205L37.0464 74.3235Z" fill="#455DB7"/>
<path d="M61.9091 32.5C61.9091 45.9808 50.9808 56.9091 37.5 56.9091C24.0192 56.9091 13.0909 45.9808 13.0909 32.5C13.0909 19.0192 24.0192 8.09091 37.5 8.09091C50.9808 8.09091 61.9091 19.0192 61.9091 32.5Z" fill="#455DB7" stroke="#455DB7" stroke-width="6.18182"/>
<ellipse cx="37.853" cy="33" rx="23" ry="23" fill="white"/>
<g clip-path="url(#clip0_420_2062)">
<path d="M52.7361 17.6033H23.2641C22.9137 17.6033 22.6289 17.8881 22.6289 18.2385V47.7633C22.6289 48.1137 22.9137 48.3985 23.2641 48.3985H32.9073C33.2577 48.3985 33.5425 48.1137 33.5425 47.7633V45.2817C33.5425 44.9313 33.8273 44.6465 34.1777 44.6465H37.9377V48.3985H38.8977V44.6465H43.0001C43.3505 44.6465 43.6353 44.9313 43.6353 45.2817V47.7633C43.6353 48.1137 43.9201 48.3985 44.2705 48.3985H52.7393C53.0897 48.3985 53.3745 48.1137 53.3745 47.7633V18.2385C53.3745 17.8881 53.0897 17.6033 52.7393 17.6033H52.7361ZM29.0641 40.2945H25.4913V38.3633H29.0641V40.2945ZM29.0641 36.0225H25.4913V34.0913H29.0641V36.0225ZM29.0641 31.7505H25.4913V29.8193H29.0641V31.7505ZM29.6913 27.6193H28.5361V24.3585H26.9505V27.6193H25.7969V20.2561H26.9505V23.2657H28.5361V20.2561H29.6913V27.6209V27.6193ZM31.5009 26.6449C31.1665 25.9569 30.9969 25.0385 30.9969 23.9169C30.9969 22.7953 31.1809 21.8129 31.5441 21.1297C31.9137 20.4353 32.4321 20.0849 33.0865 20.0849C33.7409 20.0849 34.2289 20.4289 34.5985 21.1073C34.9713 21.7937 35.1601 22.7409 35.1601 23.9201C35.1601 25.0353 34.9937 25.9473 34.6657 26.6305C34.2945 27.3985 33.7585 27.7873 33.0737 27.7873C32.3889 27.7873 31.8689 27.4017 31.4993 26.6433L31.5009 26.6449ZM35.8961 40.2945H32.3233V38.3633H35.8961V40.2945ZM35.8961 36.0225H32.3233V34.0913H35.8961V36.0225ZM35.8961 31.7505H32.3233V29.8193H35.8961V31.7505ZM38.9985 27.6193H37.8273V21.3841H36.3505V20.2561H40.4753V21.3841H38.9985V27.6193ZM43.0417 40.2945H39.4689V38.3633H43.0417V40.2945ZM43.0417 36.0225H39.4689V34.0913H43.0417V36.0225ZM43.0417 31.7505H39.4689V29.8193H43.0417V31.7505ZM45.5121 27.6193H42.1345V20.2561H45.4337V21.3489H43.2977V23.2993H45.1777V24.3841H43.2977V26.4993H45.5121V27.6193ZM50.1873 40.2945H46.6145V38.3633H50.1873V40.2945ZM50.1873 36.0225H46.6145V34.0913H50.1873V36.0225ZM50.1873 31.7505H46.6145V29.8193H50.1873V31.7505ZM50.8657 27.6193H47.6097V20.2561H48.7953V26.4753H50.8673V27.6209L50.8657 27.6193Z" fill="#455DB7"/>
<path d="M33.6432 26.1088C33.8352 25.6112 33.9328 24.8784 33.9328 23.9312C33.9328 22.8736 33.8144 22.0896 33.5808 21.5984C33.44 21.304 33.2688 21.1536 33.0752 21.1536C32.8496 21.1536 32.6592 21.3632 32.5072 21.7744C32.32 22.2736 32.2256 22.9952 32.2256 23.9216C32.2256 24.848 32.32 25.5888 32.5072 26.0864C32.656 26.4848 32.848 26.6864 33.08 26.6864C33.312 26.6864 33.496 26.4912 33.6432 26.1072V26.1088Z" fill="black"/>
</g>
<defs>
<filter id="filter0_d_420_2062" x="0" y="0" width="75" height="89.3235" filterUnits="userSpaceOnUse" color-interpolation-filters="sRGB">
<feFlood flood-opacity="0" result="BackgroundImageFix"/>
<feColorMatrix in="SourceAlpha" type="matrix" values="0 0 0 0 0 0 0 0 0 0 0 0 0 0 0 0 0 0 127 0" result="hardAlpha"/>
<feOffset dy="5"/>
<feGaussianBlur stdDeviation="4"/>
<feComposite in2="hardAlpha" operator="out"/>
<feColorMatrix type="matrix" values="0 0 0 0 0 0 0 0 0 0 0 0 0 0 0 0 0 0 0.25 0"/>
<feBlend mode="normal" in2="BackgroundImageFix" result="effect1_dropShadow_420_2062"/>
<feBlend mode="normal" in="SourceGraphic" in2="effect1_dropShadow_420_2062" result="shape"/>
</filter>
<clipPath id="clip0_420_2062">
<rect width="32" height="32" fill="white" transform="translate(22 17)"/>
</clipPath>
</defs>
</svg>
