<svg width="75" height="90" viewBox="0 0 75 90" fill="none" xmlns="http://www.w3.org/2000/svg">
<g filter="url(#filter0_d_408_1459)">
<path d="M37.0463 74.3235L18.8971 52.7206L56.1029 52.7206L37.0463 74.3235Z" fill="#008FDF"/>
<path d="M65 32.5C65 47.6878 52.6878 60 37.5 60C22.3122 60 10 47.6878 10 32.5C10 17.3122 22.3122 5 37.5 5C52.6878 5 65 17.3122 65 32.5Z" fill="white"/>
<path d="M37.0463 74.3235L18.8971 52.7206L56.1029 52.7206L37.0463 74.3235Z" stroke="white" stroke-width="4" stroke-linejoin="round"/>
<path d="M65 32.5C65 47.6878 52.6878 60 37.5 60C22.3122 60 10 47.6878 10 32.5C10 17.3122 22.3122 5 37.5 5C52.6878 5 65 17.3122 65 32.5Z" stroke="white" stroke-width="4" stroke-linejoin="round"/>
</g>
<path d="M37.0464 74.3235L18.8971 52.7205L56.103 52.7205L37.0464 74.3235Z" fill="#9747FF"/>
<path d="M61.9091 32.5C61.9091 45.9808 50.9808 56.9091 37.5 56.9091C24.0192 56.9091 13.0909 45.9808 13.0909 32.5C13.0909 19.0192 24.0192 8.09091 37.5 8.09091C50.9808 8.09091 61.9091 19.0192 61.9091 32.5Z" fill="#9747FF" stroke="#9747FF" stroke-width="6.18182"/>
<ellipse cx="37.853" cy="33" rx="23" ry="23" fill="white"/>
<path d="M43.0097 28.1956L44.5298 29.4394C45.2759 30.0493 45.5679 31.0794 45.2597 32.0111L43.5705 37.1257C43.4407 37.5146 43.9505 37.7812 44.1752 37.4426L47.8062 32.0087C48.4782 31.0026 48.2812 29.6267 47.3521 28.8679L45.8297 27.6217C45.0998 27.0238 44.8032 26.0225 45.0812 25.1029L46.6592 19.9259C46.7797 19.5345 46.2676 19.28 46.0475 19.6209L42.5301 25.0885C41.8836 26.0946 42.0898 27.4464 43.0051 28.1956H43.0097ZM35.6226 28.1956L37.1427 29.4394C37.8888 30.0493 38.1807 31.0794 37.8726 32.0111L36.1833 37.1257C36.0536 37.5146 36.5634 37.7812 36.7881 37.4426L40.4191 32.0087C41.0911 31.0026 40.8941 29.6267 39.965 28.8679L38.4426 27.6217C37.7127 27.0238 37.4138 26.0225 37.6941 25.1029L39.2721 19.9259C39.3926 19.5345 38.8805 19.28 38.6604 19.6209L35.1429 25.0885C34.4965 26.0946 34.7027 27.4464 35.618 28.1956H35.6226ZM50.8996 32.645C50.6772 32.4793 50.4153 32.7915 50.6054 32.998C51.4836 33.9513 51.9748 35.0198 51.9748 36.1508C51.9748 40.18 45.7185 43.4456 38 43.4456C30.2815 43.4456 24.0252 40.18 24.0252 36.1508C24.0252 35.0222 24.5164 33.9537 25.3946 32.998C25.5846 32.7915 25.3228 32.4793 25.1004 32.645C23.1516 34.0905 22 35.877 22 37.8076C22 42.6292 29.1623 46.5383 38 46.5383C46.8377 46.5383 54 42.6292 54 37.8076C54 35.8746 52.8484 34.0905 50.8996 32.645ZM28.2378 28.1956L29.7579 29.4394C30.504 30.0493 30.7959 31.0794 30.4878 32.0111L28.7986 37.1257C28.6688 37.5146 29.1786 37.7812 29.4033 37.4426L33.0343 32.0087C33.7063 31.0026 33.5093 29.6267 32.5802 28.8679L31.0578 27.6217C30.3279 27.0238 30.0313 26.0225 30.3093 25.1029L31.8873 19.9259C32.0078 19.5345 31.4957 19.28 31.2756 19.6209L27.7581 25.0885C27.1117 26.0946 27.3179 27.4464 28.2332 28.1956H28.2378Z" fill="#9747FF"/>
<defs>
<filter id="filter0_d_408_1459" x="0" y="0" width="75" height="89.3235" filterUnits="userSpaceOnUse" color-interpolation-filters="sRGB">
<feFlood flood-opacity="0" result="BackgroundImageFix"/>
<feColorMatrix in="SourceAlpha" type="matrix" values="0 0 0 0 0 0 0 0 0 0 0 0 0 0 0 0 0 0 127 0" result="hardAlpha"/>
<feOffset dy="5"/>
<feGaussianBlur stdDeviation="4"/>
<feComposite in2="hardAlpha" operator="out"/>
<feColorMatrix type="matrix" values="0 0 0 0 0 0 0 0 0 0 0 0 0 0 0 0 0 0 0.25 0"/>
<feBlend mode="normal" in2="BackgroundImageFix" result="effect1_dropShadow_408_1459"/>
<feBlend mode="normal" in="SourceGraphic" in2="effect1_dropShadow_408_1459" result="shape"/>
</filter>
</defs>
</svg>
