<svg width="66" height="91" viewBox="0 0 66 91" fill="none" xmlns="http://www.w3.org/2000/svg">
<g filter="url(#filter0_d_58_820)">
<path d="M32.9767 1C17.5212 1 5 13.8376 5 29.3454C5 44.8443 24.6234 81.2 32.9767 81.2C41.3301 81.2 60.9535 44.8443 60.9535 29.3454C60.9535 13.8376 48.4234 1 32.9767 1Z" fill="#9747FF"/>
<path d="M32.9767 1C17.5212 1 5 13.8376 5 29.3454C5 44.8443 24.6234 81.2 32.9767 81.2C41.3301 81.2 60.9535 44.8443 60.9535 29.3454C60.9535 13.8376 48.4234 1 32.9767 1Z" stroke="white" stroke-width="2"/>
</g>
<path d="M10 29C10 41.7025 20.2975 52 33 52C45.7025 52 56 41.7025 56 29C56 16.2975 45.7025 6 33 6C20.2975 6 10 16.2975 10 29Z" fill="white"/>
<path d="M38.0097 24.1956L39.5298 25.4394C40.2759 26.0493 40.5679 27.0794 40.2597 28.0111L38.5705 33.1257C38.4407 33.5146 38.9505 33.7812 39.1752 33.4426L42.8062 28.0087C43.4782 27.0026 43.2812 25.6267 42.3521 24.8679L40.8297 23.6217C40.0998 23.0238 39.8032 22.0225 40.0812 21.1029L41.6592 15.9259C41.7797 15.5345 41.2676 15.28 41.0475 15.6209L37.5301 21.0885C36.8836 22.0946 37.0898 23.4464 38.0051 24.1956H38.0097ZM30.6226 24.1956L32.1427 25.4394C32.8888 26.0493 33.1807 27.0794 32.8726 28.0111L31.1833 33.1257C31.0536 33.5146 31.5634 33.7812 31.7881 33.4426L35.4191 28.0087C36.0911 27.0026 35.8941 25.6267 34.965 24.8679L33.4426 23.6217C32.7127 23.0238 32.4138 22.0225 32.6941 21.1029L34.2721 15.9259C34.3926 15.5345 33.8805 15.28 33.6604 15.6209L30.1429 21.0885C29.4965 22.0946 29.7027 23.4464 30.618 24.1956H30.6226ZM45.8996 28.645C45.6772 28.4793 45.4153 28.7915 45.6054 28.998C46.4836 29.9513 46.9748 31.0198 46.9748 32.1508C46.9748 36.18 40.7185 39.4456 33 39.4456C25.2815 39.4456 19.0252 36.18 19.0252 32.1508C19.0252 31.0222 19.5164 29.9537 20.3946 28.998C20.5846 28.7915 20.3228 28.4793 20.1004 28.645C18.1516 30.0905 17 31.877 17 33.8076C17 38.6292 24.1623 42.5383 33 42.5383C41.8377 42.5383 49 38.6292 49 33.8076C49 31.8746 47.8484 30.0905 45.8996 28.645ZM23.2378 24.1956L24.7579 25.4394C25.504 26.0493 25.7959 27.0794 25.4878 28.0111L23.7986 33.1257C23.6688 33.5146 24.1786 33.7812 24.4033 33.4426L28.0343 28.0087C28.7063 27.0026 28.5093 25.6267 27.5802 24.8679L26.0578 23.6217C25.3279 23.0238 25.0313 22.0225 25.3093 21.1029L26.8873 15.9259C27.0078 15.5345 26.4957 15.28 26.2756 15.6209L22.7581 21.0885C22.1117 22.0946 22.3179 23.4464 23.2332 24.1956H23.2378Z" fill="#9747FF"/>
<defs>
<filter id="filter0_d_58_820" x="0" y="0" width="65.9536" height="90.2" filterUnits="userSpaceOnUse" color-interpolation-filters="sRGB">
<feFlood flood-opacity="0" result="BackgroundImageFix"/>
<feColorMatrix in="SourceAlpha" type="matrix" values="0 0 0 0 0 0 0 0 0 0 0 0 0 0 0 0 0 0 127 0" result="hardAlpha"/>
<feOffset dy="4"/>
<feGaussianBlur stdDeviation="2"/>
<feComposite in2="hardAlpha" operator="out"/>
<feColorMatrix type="matrix" values="0 0 0 0 0 0 0 0 0 0 0 0 0 0 0 0 0 0 0.25 0"/>
<feBlend mode="normal" in2="BackgroundImageFix" result="effect1_dropShadow_58_820"/>
<feBlend mode="normal" in="SourceGraphic" in2="effect1_dropShadow_58_820" result="shape"/>
</filter>
</defs>
</svg>
