<svg width="75" height="90" viewBox="0 0 75 90" fill="none" xmlns="http://www.w3.org/2000/svg">
<g filter="url(#filter0_d_772_2899)">
<path d="M37.0463 74.3235L18.8971 52.7206L56.1029 52.7206L37.0463 74.3235Z" fill="#008FDF"/>
<path d="M65 32.5C65 47.6878 52.6878 60 37.5 60C22.3122 60 10 47.6878 10 32.5C10 17.3122 22.3122 5 37.5 5C52.6878 5 65 17.3122 65 32.5Z" fill="white"/>
<path d="M37.0463 74.3235L18.8971 52.7206L56.1029 52.7206L37.0463 74.3235Z" stroke="white" stroke-width="4" stroke-linejoin="round"/>
<path d="M65 32.5C65 47.6878 52.6878 60 37.5 60C22.3122 60 10 47.6878 10 32.5C10 17.3122 22.3122 5 37.5 5C52.6878 5 65 17.3122 65 32.5Z" stroke="white" stroke-width="4" stroke-linejoin="round"/>
</g>
<path d="M37.0464 74.3235L18.8971 52.7205L56.103 52.7205L37.0464 74.3235Z" fill="#008FDF"/>
<path d="M37.5 8.09082C50.9808 8.09082 61.9092 19.0192 61.9092 32.5C61.9092 45.9808 50.9808 56.9092 37.5 56.9092C24.0192 56.9092 13.0908 45.9808 13.0908 32.5C13.0908 19.0192 24.0192 8.09082 37.5 8.09082Z" fill="#008FDF" stroke="#008FDF" stroke-width="6.18182"/>
<ellipse cx="37.853" cy="33" rx="23" ry="23" fill="white"/>
<path d="M56.0927 32.3109L39.7615 20.4237C39.3851 20.1507 38.9425 20.0122 38.4998 20.0122C38.0572 20.0122 37.6145 20.1487 37.2382 20.4237L20.9069 32.3109C20.1562 32.8569 19.8422 33.826 20.1289 34.7094C20.4155 35.5927 21.2404 36.1914 22.1686 36.1914H27.2405V45.8205C27.2405 47.0061 28.1999 47.9655 29.3855 47.9655H47.6161C48.8017 47.9655 49.7611 47.0061 49.7611 45.8205V36.1914H54.833C55.7612 36.1914 56.5861 35.5927 56.8727 34.7094C57.1594 33.826 56.8454 32.8588 56.0947 32.3109H56.0927ZM47.6141 34.0464V45.8205H41.4736V39.0618H35.5261V45.8205H29.3855V34.0464H22.1686L38.4998 22.1592L54.8311 34.0464H47.6141Z" fill="#008FDF"/>
<defs>
<filter id="filter0_d_772_2899" x="0" y="0" width="75" height="89.3235" filterUnits="userSpaceOnUse" color-interpolation-filters="sRGB">
<feFlood flood-opacity="0" result="BackgroundImageFix"/>
<feColorMatrix in="SourceAlpha" type="matrix" values="0 0 0 0 0 0 0 0 0 0 0 0 0 0 0 0 0 0 127 0" result="hardAlpha"/>
<feOffset dy="5"/>
<feGaussianBlur stdDeviation="4"/>
<feComposite in2="hardAlpha" operator="out"/>
<feColorMatrix type="matrix" values="0 0 0 0 0 0 0 0 0 0 0 0 0 0 0 0 0 0 0.25 0"/>
<feBlend mode="normal" in2="BackgroundImageFix" result="effect1_dropShadow_772_2899"/>
<feBlend mode="normal" in="SourceGraphic" in2="effect1_dropShadow_772_2899" result="shape"/>
</filter>
</defs>
</svg>
