<svg width="75" height="90" viewBox="0 0 75 90" fill="none" xmlns="http://www.w3.org/2000/svg">
<g filter="url(#filter0_d_463_2210)">
<path d="M37.0463 74.3235L18.8971 52.7206L56.1029 52.7206L37.0463 74.3235Z" fill="#008FDF"/>
<path d="M65 32.5C65 47.6878 52.6878 60 37.5 60C22.3122 60 10 47.6878 10 32.5C10 17.3122 22.3122 5 37.5 5C52.6878 5 65 17.3122 65 32.5Z" fill="white"/>
<path d="M37.0463 74.3235L18.8971 52.7206L56.1029 52.7206L37.0463 74.3235Z" stroke="white" stroke-width="4" stroke-linejoin="round"/>
<path d="M65 32.5C65 47.6878 52.6878 60 37.5 60C22.3122 60 10 47.6878 10 32.5C10 17.3122 22.3122 5 37.5 5C52.6878 5 65 17.3122 65 32.5Z" stroke="white" stroke-width="4" stroke-linejoin="round"/>
</g>
<path d="M37.0464 74.3235L18.8971 52.7205L56.103 52.7205L37.0464 74.3235Z" fill="#FCD300"/>
<path d="M61.9091 32.5C61.9091 45.9808 50.9808 56.9091 37.5 56.9091C24.0192 56.9091 13.0909 45.9808 13.0909 32.5C13.0909 19.0192 24.0192 8.09091 37.5 8.09091C50.9808 8.09091 61.9091 19.0192 61.9091 32.5Z" fill="#FCD300" stroke="#FCD300" stroke-width="6.18182"/>
<ellipse cx="37.853" cy="33" rx="23" ry="23" fill="white"/>
<path d="M33.2782 26.7792L29.6718 24.5264L26.0654 26.7792L29.6718 29.032L33.2782 26.7792Z" fill="#D4B200"/>
<path d="M33.8398 31.6367L37.4462 29.3839L33.8398 27.1311L30.2334 29.3839L33.8398 31.6367Z" fill="#D4B200"/>
<path d="M33.2782 31.9872L29.6718 29.7344L26.0654 31.9872L29.6718 34.24L33.2782 31.9872Z" fill="#D4B200"/>
<path d="M41.6142 26.7792L38.0078 24.5264L34.4014 26.7792L38.0078 29.032L41.6142 26.7792Z" fill="#D4B200"/>
<path d="M45.7825 34.5919L42.1761 32.3391L38.5713 34.5919L42.1761 36.8447L45.7825 34.5919Z" fill="#D4B200"/>
<path d="M41.6142 31.9872L38.0078 29.7344L34.4014 31.9872L38.0078 34.24L41.6142 31.9872Z" fill="#D4B200"/>
<path d="M30.2334 34.5919L33.8398 36.8447L37.4462 34.5919L33.8398 32.3391L30.2334 34.5919Z" fill="#D4B200"/>
<path d="M29.6718 34.9424L26.0654 37.1952L29.6718 39.4496L33.2782 37.1952L29.6718 34.9424Z" fill="#D4B200"/>
<path d="M42.1762 31.6367L45.7826 29.3839L42.1762 27.1311L38.5698 29.3839L42.1762 31.6367Z" fill="#D4B200"/>
<path d="M42.7393 26.7792L46.3457 29.032L49.9521 26.7792L46.3457 24.5264L42.7393 26.7792Z" fill="#D4B200"/>
<path d="M30.2334 39.7999L33.8398 42.0527L37.4462 39.7999L33.8398 37.5471L30.2334 39.7999Z" fill="#D4B200"/>
<path d="M50.1598 22.4399H25.6798C24.619 22.4399 23.7598 23.2991 23.7598 24.3599V42.2799C23.7598 43.3407 24.619 44.1999 25.6798 44.1999H50.1598C51.2206 44.1999 52.0798 43.3407 52.0798 42.2799V24.3599C52.0798 23.2991 51.2206 22.4399 50.1598 22.4399ZM50.1598 27.3519L46.907 29.3839L50.1598 31.4159V32.5599L46.907 34.5919L50.1598 36.6239V37.7679L46.907 39.7999L50.1598 41.8319V42.2799H49.7518L46.3438 40.1503L42.9358 42.2799H41.4142L38.0062 40.1519L34.5982 42.2799H33.0766L29.6686 40.1519L26.2606 42.2799H25.6766V41.9423L29.107 39.7999L25.6766 37.6575V36.7343L29.1054 34.5919L25.6766 32.4495V31.5263L29.107 29.3839L25.6766 27.2415V26.3183L28.811 24.3599H30.5262L33.8366 26.4287L37.147 24.3599H38.8622L42.1726 26.4287L45.483 24.3599H47.1998L50.1566 26.2079V27.3519H50.1598Z" fill="#D4B200"/>
<path d="M42.7393 31.9872L46.3457 34.24L49.9521 31.9872L46.3457 29.7344L42.7393 31.9872Z" fill="#D4B200"/>
<path d="M38.0078 34.9424L34.4014 37.1952L38.0078 39.4496L41.6142 37.1952L38.0078 34.9424Z" fill="#D4B200"/>
<path d="M42.7393 37.1952L46.3457 39.4496L49.9505 37.1952L46.3457 34.9424L42.7393 37.1952Z" fill="#D4B200"/>
<path d="M38.5698 39.7999L42.1762 42.0527L45.7826 39.7999L42.1762 37.5471L38.5698 39.7999Z" fill="#D4B200"/>
<path d="M42.9742 30.7393H33.0254V35.2625H42.9742V30.7393Z" fill="#D4B200"/>
<path d="M42.9744 30.7391V35.2623H33.0257V30.7391H42.9744ZM43.4672 30.2463H32.5312V35.7551H43.4672V30.2463Z" fill="white"/>
<path d="M28.7728 32.2688H25.52V33.8H28.7728V32.2688Z" fill="white"/>
<path d="M50.4801 32.2688H46.6577V34.0672H50.4801V32.2688Z" fill="white"/>
<defs>
<filter id="filter0_d_463_2210" x="0" y="0" width="75" height="89.3235" filterUnits="userSpaceOnUse" color-interpolation-filters="sRGB">
<feFlood flood-opacity="0" result="BackgroundImageFix"/>
<feColorMatrix in="SourceAlpha" type="matrix" values="0 0 0 0 0 0 0 0 0 0 0 0 0 0 0 0 0 0 127 0" result="hardAlpha"/>
<feOffset dy="5"/>
<feGaussianBlur stdDeviation="4"/>
<feComposite in2="hardAlpha" operator="out"/>
<feColorMatrix type="matrix" values="0 0 0 0 0 0 0 0 0 0 0 0 0 0 0 0 0 0 0.25 0"/>
<feBlend mode="normal" in2="BackgroundImageFix" result="effect1_dropShadow_463_2210"/>
<feBlend mode="normal" in="SourceGraphic" in2="effect1_dropShadow_463_2210" result="shape"/>
</filter>
</defs>
</svg>
