<svg width="66" height="91" viewBox="0 0 66 91" fill="none" xmlns="http://www.w3.org/2000/svg">
<g filter="url(#filter0_d_6_306)">
<path d="M33.0302 1C17.5747 1 5.05347 13.8376 5.05347 29.3454C5.05347 44.8443 24.6768 81.2 33.0302 81.2C41.3836 81.2 61.007 44.8443 61.007 29.3454C61.007 13.8376 48.4769 1 33.0302 1Z" fill="#FCD300"/>
<path d="M33.0302 1C17.5747 1 5.05347 13.8376 5.05347 29.3454C5.05347 44.8443 24.6768 81.2 33.0302 81.2C41.3836 81.2 61.007 44.8443 61.007 29.3454C61.007 13.8376 48.4769 1 33.0302 1Z" stroke="white" stroke-width="2"/>
</g>
<path d="M10.0535 29C10.0535 41.7025 20.3509 52 33.0535 52C45.756 52 56.0535 41.7025 56.0535 29C56.0535 16.2975 45.756 6 33.0535 6C20.3509 6 10.0535 16.2975 10.0535 29Z" fill="white"/>
<path d="M28.3318 22.7792L24.7254 20.5264L21.119 22.7792L24.7254 25.032L28.3318 22.7792Z" fill="#D4B200"/>
<path d="M28.8935 27.6367L32.4999 25.3839L28.8935 23.1311L25.2871 25.3839L28.8935 27.6367Z" fill="#D4B200"/>
<path d="M28.3318 27.9872L24.7254 25.7344L21.119 27.9872L24.7254 30.24L28.3318 27.9872Z" fill="#D4B200"/>
<path d="M36.6679 22.7792L33.0615 20.5264L29.4551 22.7792L33.0615 25.032L36.6679 22.7792Z" fill="#D4B200"/>
<path d="M40.8358 30.5919L37.2294 28.3391L33.6246 30.5919L37.2294 32.8447L40.8358 30.5919Z" fill="#D4B200"/>
<path d="M36.6679 27.9872L33.0615 25.7344L29.4551 27.9872L33.0615 30.24L36.6679 27.9872Z" fill="#D4B200"/>
<path d="M25.2871 30.5919L28.8935 32.8447L32.4999 30.5919L28.8935 28.3391L25.2871 30.5919Z" fill="#D4B200"/>
<path d="M24.7254 30.9424L21.119 33.1952L24.7254 35.4496L28.3318 33.1952L24.7254 30.9424Z" fill="#D4B200"/>
<path d="M37.2294 27.6367L40.8358 25.3839L37.2294 23.1311L33.623 25.3839L37.2294 27.6367Z" fill="#D4B200"/>
<path d="M37.7927 22.7792L41.3991 25.032L45.0055 22.7792L41.3991 20.5264L37.7927 22.7792Z" fill="#D4B200"/>
<path d="M25.2871 35.7999L28.8935 38.0527L32.4999 35.7999L28.8935 33.5471L25.2871 35.7999Z" fill="#D4B200"/>
<path d="M45.2135 18.4399H20.7335C19.6727 18.4399 18.8135 19.2991 18.8135 20.3599V38.2799C18.8135 39.3407 19.6727 40.1999 20.7335 40.1999H45.2135C46.2743 40.1999 47.1335 39.3407 47.1335 38.2799V20.3599C47.1335 19.2991 46.2743 18.4399 45.2135 18.4399ZM45.2135 23.3519L41.9607 25.3839L45.2135 27.4159V28.5599L41.9607 30.5919L45.2135 32.6239V33.7679L41.9607 35.7999L45.2135 37.8319V38.2799H44.8055L41.3975 36.1503L37.9895 38.2799H36.4679L33.0599 36.1519L29.6519 38.2799H28.1303L24.7223 36.1519L21.3143 38.2799H20.7303V37.9423L24.1607 35.7999L20.7303 33.6575V32.7343L24.1591 30.5919L20.7303 28.4495V27.5263L24.1607 25.3839L20.7303 23.2415V22.3183L23.8647 20.3599H25.5799L28.8903 22.4287L32.2007 20.3599H33.9159L37.2263 22.4287L40.5367 20.3599H42.2535L45.2103 22.2079V23.3519H45.2135Z" fill="#D4B200"/>
<path d="M37.7927 27.9872L41.3991 30.24L45.0055 27.9872L41.3991 25.7344L37.7927 27.9872Z" fill="#D4B200"/>
<path d="M33.0615 30.9424L29.4551 33.1952L33.0615 35.4496L36.6679 33.1952L33.0615 30.9424Z" fill="#D4B200"/>
<path d="M37.7927 33.1952L41.3991 35.4496L45.0039 33.1952L41.3991 30.9424L37.7927 33.1952Z" fill="#D4B200"/>
<path d="M33.623 35.7999L37.2294 38.0527L40.8358 35.7999L37.2294 33.5471L33.623 35.7999Z" fill="#D4B200"/>
<path d="M38.0279 26.7393H28.0791V31.2625H38.0279V26.7393Z" fill="#D4B200"/>
<path d="M38.0279 26.7391V31.2623H28.0791V26.7391H38.0279ZM38.5207 26.2463H27.5847V31.7551H38.5207V26.2463Z" fill="white"/>
<path d="M23.8263 28.2688H20.5735V29.8H23.8263V28.2688Z" fill="white"/>
<path d="M45.5335 28.2688H41.7111V30.0672H45.5335V28.2688Z" fill="white"/>
<defs>
<filter id="filter0_d_6_306" x="0.0534668" y="0" width="65.9535" height="90.2" filterUnits="userSpaceOnUse" color-interpolation-filters="sRGB">
<feFlood flood-opacity="0" result="BackgroundImageFix"/>
<feColorMatrix in="SourceAlpha" type="matrix" values="0 0 0 0 0 0 0 0 0 0 0 0 0 0 0 0 0 0 127 0" result="hardAlpha"/>
<feOffset dy="4"/>
<feGaussianBlur stdDeviation="2"/>
<feComposite in2="hardAlpha" operator="out"/>
<feColorMatrix type="matrix" values="0 0 0 0 0 0 0 0 0 0 0 0 0 0 0 0 0 0 0.25 0"/>
<feBlend mode="normal" in2="BackgroundImageFix" result="effect1_dropShadow_6_306"/>
<feBlend mode="normal" in="SourceGraphic" in2="effect1_dropShadow_6_306" result="shape"/>
</filter>
</defs>
</svg>
