<svg width="75" height="90" viewBox="0 0 75 90" fill="none" xmlns="http://www.w3.org/2000/svg">
<g filter="url(#filter0_d_418_1600)">
<path d="M37.0463 74.3235L18.8971 52.7206L56.1029 52.7206L37.0463 74.3235Z" fill="#008FDF"/>
<path d="M65 32.5C65 47.6878 52.6878 60 37.5 60C22.3122 60 10 47.6878 10 32.5C10 17.3122 22.3122 5 37.5 5C52.6878 5 65 17.3122 65 32.5Z" fill="white"/>
<path d="M37.0463 74.3235L18.8971 52.7206L56.1029 52.7206L37.0463 74.3235Z" stroke="white" stroke-width="4" stroke-linejoin="round"/>
<path d="M65 32.5C65 47.6878 52.6878 60 37.5 60C22.3122 60 10 47.6878 10 32.5C10 17.3122 22.3122 5 37.5 5C52.6878 5 65 17.3122 65 32.5Z" stroke="white" stroke-width="4" stroke-linejoin="round"/>
</g>
<path d="M37.0464 74.3235L18.8971 52.7205L56.103 52.7205L37.0464 74.3235Z" fill="#008FDF"/>
<path d="M61.9091 32.5C61.9091 45.9808 50.9808 56.9091 37.5 56.9091C24.0192 56.9091 13.0909 45.9808 13.0909 32.5C13.0909 19.0192 24.0192 8.09091 37.5 8.09091C50.9808 8.09091 61.9091 19.0192 61.9091 32.5Z" fill="#008FDF" stroke="#008FDF" stroke-width="6.18182"/>
<ellipse cx="37.853" cy="33" rx="23" ry="23" fill="white"/>
<path d="M53.4793 23.2402C53.4693 23.2303 53.4574 23.2204 53.4475 23.2104V22.5168C53.4475 22.1888 53.3183 21.8768 53.0857 21.6442C49.8957 18.4541 42.0845 18.9272 38.8924 20.2489C38.5525 20.39 38.2564 20.5431 38.002 20.71C37.7476 20.5431 37.4514 20.39 37.1116 20.2489C35.4161 19.5473 32.6494 19.1597 30.0636 19.2631C27.7998 19.3545 24.721 19.8415 22.9183 21.6422C22.6877 21.8728 22.5565 22.1868 22.5565 22.5148V23.2084C22.5466 23.2184 22.5347 23.2283 22.5247 23.2382C22.1888 23.5741 22 24.0293 22 24.5023V44.9744C22 45.6979 22.4353 46.3498 23.1051 46.6261C23.3257 46.7175 23.5583 46.7632 23.7888 46.7632C24.2281 46.7632 24.6594 46.6022 24.9933 46.2961C25.4445 46.0238 27.5791 45.4156 30.7096 45.1712C33.995 44.9168 35.6368 45.2566 36.1853 45.4812C36.404 46.2226 37.0897 46.7632 37.9006 46.7632C37.9344 46.7632 37.9662 46.7592 38 46.7573C38.0338 46.7573 38.0656 46.7632 38.0994 46.7632C38.9103 46.7632 39.596 46.2226 39.8147 45.4812C40.3612 45.2586 42.005 44.9168 45.2904 45.1712C48.4209 45.4156 50.5575 46.0238 51.0067 46.2961C51.3406 46.6002 51.7719 46.7632 52.2112 46.7632C52.4417 46.7632 52.6743 46.7195 52.8949 46.6261C53.5627 46.3498 54 45.6979 54 44.9744V24.5043C54 24.0293 53.8112 23.5741 53.4753 23.2402H53.4793ZM36.6723 40.4864C33.844 39.7391 28.237 40.1048 25.0251 41.0827V23.0812C26.2773 22.163 28.6663 21.6482 31.435 21.7197C34.152 21.7913 36.1257 22.3935 36.6723 22.7771V40.4845V40.4864ZM50.9829 41.0827C50.806 41.0291 50.6171 40.9774 50.4263 40.9277C49.5558 40.6991 48.554 40.5123 47.5006 40.3712C47.4907 40.3712 47.4807 40.3692 47.4688 40.3672C47.3456 40.3513 47.2204 40.3354 47.0971 40.3215C47.0594 40.3175 47.0216 40.3115 46.9839 40.3076C46.8745 40.2956 46.7632 40.2837 46.6519 40.2718C46.5983 40.2658 46.5446 40.2599 46.4909 40.2559C46.3896 40.2459 46.2882 40.236 46.1888 40.2261C46.1232 40.2201 46.0596 40.2141 45.994 40.2082C45.9006 40.2002 45.8072 40.1923 45.7138 40.1863C45.6402 40.1804 45.5667 40.1744 45.4912 40.1704C45.4057 40.1645 45.3183 40.1585 45.2328 40.1525C45.1513 40.1466 45.0678 40.1426 44.9863 40.1386C44.9068 40.1346 44.8273 40.1307 44.7478 40.1267C44.6564 40.1227 44.567 40.1187 44.4755 40.1148C44.404 40.1128 44.3344 40.1088 44.2629 40.1068C44.1575 40.1028 44.0542 40.1009 43.9488 40.0989C43.8932 40.0989 43.8355 40.0949 43.7799 40.0949C43.6189 40.0929 43.4599 40.0909 43.3009 40.0909C43.126 40.0909 42.955 40.0929 42.7841 40.0969C42.7185 40.0969 42.6529 40.1009 42.5873 40.1028C42.488 40.1048 42.3866 40.1088 42.2892 40.1128C42.2037 40.1168 42.1202 40.1207 42.0368 40.1247C41.9652 40.1287 41.8937 40.1327 41.8221 40.1366C41.7227 40.1426 41.6253 40.1486 41.528 40.1565C41.4842 40.1605 41.4405 40.1645 41.3988 40.1664C40.8581 40.2122 40.3513 40.2777 39.8981 40.3652C39.7034 40.403 39.5165 40.4427 39.3416 40.4884V22.7771C39.8882 22.3935 41.8619 21.7913 44.5789 21.7197C47.3476 21.6462 49.7366 22.161 50.9888 23.0812V41.0827H50.9829Z" fill="#008FDF"/>
<defs>
<filter id="filter0_d_418_1600" x="0" y="0" width="75" height="89.3235" filterUnits="userSpaceOnUse" color-interpolation-filters="sRGB">
<feFlood flood-opacity="0" result="BackgroundImageFix"/>
<feColorMatrix in="SourceAlpha" type="matrix" values="0 0 0 0 0 0 0 0 0 0 0 0 0 0 0 0 0 0 127 0" result="hardAlpha"/>
<feOffset dy="5"/>
<feGaussianBlur stdDeviation="4"/>
<feComposite in2="hardAlpha" operator="out"/>
<feColorMatrix type="matrix" values="0 0 0 0 0 0 0 0 0 0 0 0 0 0 0 0 0 0 0.25 0"/>
<feBlend mode="normal" in2="BackgroundImageFix" result="effect1_dropShadow_418_1600"/>
<feBlend mode="normal" in="SourceGraphic" in2="effect1_dropShadow_418_1600" result="shape"/>
</filter>
</defs>
</svg>
