<svg width="75" height="90" viewBox="0 0 75 90" fill="none" xmlns="http://www.w3.org/2000/svg">
<g filter="url(#filter0_d_781_3037)">
<path d="M37.0463 74.3235L18.8971 52.7206L56.1029 52.7206L37.0463 74.3235Z" fill="#008FDF"/>
<path d="M65 32.5C65 47.6878 52.6878 60 37.5 60C22.3122 60 10 47.6878 10 32.5C10 17.3122 22.3122 5 37.5 5C52.6878 5 65 17.3122 65 32.5Z" fill="white"/>
<path d="M37.0463 74.3235L18.8971 52.7206L56.1029 52.7206L37.0463 74.3235Z" stroke="white" stroke-width="4" stroke-linejoin="round"/>
<path d="M65 32.5C65 47.6878 52.6878 60 37.5 60C22.3122 60 10 47.6878 10 32.5C10 17.3122 22.3122 5 37.5 5C52.6878 5 65 17.3122 65 32.5Z" stroke="white" stroke-width="4" stroke-linejoin="round"/>
</g>
<path d="M37.0464 74.3235L18.8971 52.7205L56.103 52.7205L37.0464 74.3235Z" fill="#008FDF"/>
<path d="M37.5 8.09082C50.9808 8.09082 61.9092 19.0192 61.9092 32.5C61.9092 45.9808 50.9808 56.9092 37.5 56.9092C24.0192 56.9092 13.0908 45.9808 13.0908 32.5C13.0908 19.0192 24.0192 8.09082 37.5 8.09082Z" fill="#008FDF" stroke="#008FDF" stroke-width="6.18182"/>
<ellipse cx="37.853" cy="33" rx="23" ry="23" fill="white"/>
<path d="M53.6867 29.1027C53.0529 27.9444 51.9863 26.8036 50.6817 25.8871C49.0437 24.7386 47.2322 24.0795 45.7092 24.0795C44.3598 24.0795 43.2542 24.5962 42.597 25.5322C42.5034 25.6648 42.4235 25.8052 42.3513 25.9476C42.246 26.049 42.1505 26.1621 42.0686 26.2869L40.4579 28.7595L31.5308 19.9767C31.0979 19.263 30.548 18.3855 30.2048 17.9604C29.2824 16.8235 28.0988 16.1586 26.8703 16.0864C26.7981 16.0825 26.724 16.0806 26.6519 16.0806C26.3711 16.0806 26.0922 16.1118 25.8212 16.1742C24.4328 16.4881 23.331 17.5431 22.8767 18.9997C22.3599 20.6572 22.7636 22.4707 23.9843 23.9761L24.0116 24.0112C24.0545 24.0639 24.1013 24.1146 24.152 24.1594L24.1851 24.1906L25.3532 25.2592L33.8786 38.2677L32.2971 40.2138C31.9208 40.6759 31.7765 41.2843 31.9071 41.8674C32.42 44.1723 33.3521 45.9663 34.6781 47.1948C36.0821 48.4954 37.88 49.1545 40.025 49.1545C40.0932 49.1545 40.1634 49.1506 40.2336 49.1487L40.4559 49.488L40.7972 50.0086C41.1053 50.4805 41.5986 50.8003 42.1544 50.892C42.2636 50.9095 42.3747 50.9193 42.4839 50.9193C42.9305 50.9193 43.3673 50.7711 43.7241 50.4922L44.2058 50.1159L45.0462 49.4587L45.5279 49.0824C46.3547 48.4369 46.5477 47.2669 45.9725 46.3894L45.6312 45.8688L45.0072 45.0147L46.6004 41.8927L47.9069 43.1778L48.3437 43.6068C48.5991 43.8583 48.9443 43.9987 49.3011 43.9987C49.3245 43.9987 49.346 43.9987 49.3694 43.9987C49.7496 43.9792 50.1065 43.8018 50.3502 43.5093L50.748 43.0315L51.4442 42.1969L51.842 41.7192C52.2963 41.1732 52.2573 40.3698 51.7503 39.8725L51.3135 39.4435L49.7145 37.8699L53.0958 34.2897C53.2479 34.1278 53.3688 33.9426 53.4585 33.7437C53.5697 33.6286 53.6711 33.5058 53.7647 33.3732C54.57 32.2246 54.5427 30.6685 53.6886 29.1066L53.6867 29.1027ZM45.1164 47.6842L42.7764 49.4392L34.7795 37.1542L26.3984 24.3661L25.1036 23.1825L25.0704 23.1513L25.0412 23.1162C24.113 21.9715 23.7971 20.6182 24.1754 19.4053C24.4835 18.4186 25.2089 17.7088 26.1176 17.5041C26.2911 17.4651 26.4686 17.4456 26.648 17.4456C26.6948 17.4456 26.7416 17.4456 26.7884 17.4495C27.6288 17.4982 28.4634 17.9857 29.142 18.8203C29.4833 19.2415 30.1404 20.316 30.4485 20.8288L39.6954 29.9275L38.4006 31.9146L28.8027 22.4688L28.7462 22.4142L28.7052 22.3459L28.6682 22.2855C28.3016 21.6712 27.6893 20.6865 27.4767 20.4252C27.1959 20.0781 26.8937 19.8694 26.6499 19.8558C26.6421 19.8558 26.6343 19.8558 26.6246 19.8558C26.5973 19.8558 26.5719 19.8577 26.5485 19.8636C26.4218 19.8928 26.3204 20.002 26.2697 20.1639C26.1605 20.5149 26.3048 20.9965 26.6558 21.4548L27.9837 22.6618L28.0422 22.7145L28.0851 22.7808L28.1222 22.8373L33.8376 31.5597L45.1164 47.6901V47.6842ZM37.6421 33.0787L37.0571 33.9757L34.3407 29.83L37.6421 33.0787ZM50.3541 40.4146L50.7909 40.8436L50.3931 41.3214L49.697 42.156L49.2992 42.6337L48.8624 42.2047L47.2497 40.6174L47.4096 40.3015L48.7746 38.8566L50.3541 40.4107V40.4146ZM52.1657 32.25C51.4032 33.3361 48.9989 32.9637 46.7973 31.4173C44.5958 29.871 43.4277 27.7377 44.1902 26.6496C44.9526 25.5634 47.357 25.9359 49.5585 27.4822C51.7601 29.0286 52.9281 31.1619 52.1657 32.25ZM48.4587 29.1826C46.9553 29.5473 50.9372 31.8814 50.9372 31.8814C50.8319 30.9162 49.9602 28.818 48.4587 29.1826Z" fill="#008FDF"/>
<defs>
<filter id="filter0_d_781_3037" x="0" y="0" width="75" height="89.3235" filterUnits="userSpaceOnUse" color-interpolation-filters="sRGB">
<feFlood flood-opacity="0" result="BackgroundImageFix"/>
<feColorMatrix in="SourceAlpha" type="matrix" values="0 0 0 0 0 0 0 0 0 0 0 0 0 0 0 0 0 0 127 0" result="hardAlpha"/>
<feOffset dy="5"/>
<feGaussianBlur stdDeviation="4"/>
<feComposite in2="hardAlpha" operator="out"/>
<feColorMatrix type="matrix" values="0 0 0 0 0 0 0 0 0 0 0 0 0 0 0 0 0 0 0.25 0"/>
<feBlend mode="normal" in2="BackgroundImageFix" result="effect1_dropShadow_781_3037"/>
<feBlend mode="normal" in="SourceGraphic" in2="effect1_dropShadow_781_3037" result="shape"/>
</filter>
</defs>
</svg>
