<svg width="75" height="90" viewBox="0 0 75 90" fill="none" xmlns="http://www.w3.org/2000/svg">
<g filter="url(#filter0_d_803_2728)">
<path d="M37.0463 74.3235L18.8971 52.7206L56.1029 52.7206L37.0463 74.3235Z" fill="#008FDF"/>
<path d="M65 32.5C65 47.6878 52.6878 60 37.5 60C22.3122 60 10 47.6878 10 32.5C10 17.3122 22.3122 5 37.5 5C52.6878 5 65 17.3122 65 32.5Z" fill="white"/>
<path d="M37.0463 74.3235L18.8971 52.7206L56.1029 52.7206L37.0463 74.3235Z" stroke="white" stroke-width="4" stroke-linejoin="round"/>
<path d="M65 32.5C65 47.6878 52.6878 60 37.5 60C22.3122 60 10 47.6878 10 32.5C10 17.3122 22.3122 5 37.5 5C52.6878 5 65 17.3122 65 32.5Z" stroke="white" stroke-width="4" stroke-linejoin="round"/>
</g>
<path d="M37.0459 74.3235L18.8967 52.7205L56.1025 52.7205L37.0459 74.3235Z" fill="#008FDF"/>
<path d="M37.5 8.09082C50.9808 8.09082 61.9092 19.0192 61.9092 32.5C61.9092 45.9808 50.9808 56.9092 37.5 56.9092C24.0192 56.9092 13.0908 45.9808 13.0908 32.5C13.0908 19.0192 24.0192 8.09082 37.5 8.09082Z" fill="#008FDF" stroke="#008FDF" stroke-width="6.18182"/>
<ellipse cx="37.8525" cy="33" rx="23" ry="23" fill="white"/>
<path d="M40.0932 20.7889C39.9816 20.8647 39.8763 20.951 39.7774 21.0479L39.5163 21.309L27.3123 33.513L27.226 33.5993C27.1838 33.6414 27.1417 33.6856 27.1038 33.732C25.7268 35.2164 24.9814 37.1451 25.0004 39.177C25.0193 41.2573 25.8426 43.2134 27.3123 44.6852C28.7841 46.157 30.7402 46.9782 32.8205 46.9972C34.8524 47.0161 36.779 46.2707 38.2656 44.8937C38.3119 44.8558 38.3561 44.8158 38.3982 44.7716L38.4845 44.6852L50.6885 32.4812L50.9496 32.2201C51.0486 32.1212 51.1349 32.0159 51.2086 31.9043C53.7711 28.7859 53.5627 24.1852 50.6864 21.309C47.8102 18.4327 43.2095 18.2264 40.0911 20.7868L40.0932 20.7889ZM43.1842 37.0061L36.9959 43.1945L36.9096 43.2808H36.9075C34.6376 45.4538 31.0371 45.4264 28.803 43.1945C26.569 40.9625 26.5416 37.3578 28.7188 35.0901H28.7167L28.803 35.0016L34.9914 28.8133L43.1863 37.0082L43.1842 37.0061ZM49.2946 24.6211C49.2652 24.6611 49.2315 24.699 49.1978 24.7348C48.8735 25.059 48.3534 25.1075 47.9702 24.8295C45.6246 23.124 43.1905 23.8673 40.5312 27.1036C40.1985 27.5057 39.6026 27.5668 39.1983 27.2341C38.7941 26.9014 38.7351 26.3055 39.0678 25.9013C40.967 23.5893 44.795 20.1783 49.0862 23.2988C49.5094 23.6062 49.6021 24.2 49.2946 24.6232V24.6211Z" fill="#008FDF"/>
<defs>
<filter id="filter0_d_803_2728" x="0" y="0" width="75" height="89.3235" filterUnits="userSpaceOnUse" color-interpolation-filters="sRGB">
<feFlood flood-opacity="0" result="BackgroundImageFix"/>
<feColorMatrix in="SourceAlpha" type="matrix" values="0 0 0 0 0 0 0 0 0 0 0 0 0 0 0 0 0 0 127 0" result="hardAlpha"/>
<feOffset dy="5"/>
<feGaussianBlur stdDeviation="4"/>
<feComposite in2="hardAlpha" operator="out"/>
<feColorMatrix type="matrix" values="0 0 0 0 0 0 0 0 0 0 0 0 0 0 0 0 0 0 0.25 0"/>
<feBlend mode="normal" in2="BackgroundImageFix" result="effect1_dropShadow_803_2728"/>
<feBlend mode="normal" in="SourceGraphic" in2="effect1_dropShadow_803_2728" result="shape"/>
</filter>
</defs>
</svg>
