<svg width="67" height="91" viewBox="0 0 67 91" fill="none" xmlns="http://www.w3.org/2000/svg">
<g filter="url(#filter0_d_6_313)">
<path d="M33.0837 1.30005C17.6282 1.30005 5.10693 14.1377 5.10693 29.6454C5.10693 45.1443 24.7303 81.5 33.0837 81.5C41.4371 81.5 61.0604 45.1443 61.0604 29.6454C61.0604 14.1377 48.5304 1.30005 33.0837 1.30005Z" fill="#FF2020"/>
<path d="M33.0837 1.30005C17.6282 1.30005 5.10693 14.1377 5.10693 29.6454C5.10693 45.1443 24.7303 81.5 33.0837 81.5C41.4371 81.5 61.0604 45.1443 61.0604 29.6454C61.0604 14.1377 48.5304 1.30005 33.0837 1.30005Z" stroke="white" stroke-width="2"/>
</g>
<path d="M10.1069 29.3C10.1069 42.0026 20.4044 52.3 33.1069 52.3C45.8095 52.3 56.1069 42.0026 56.1069 29.3C56.1069 16.5975 45.8095 6.30005 33.1069 6.30005C20.4044 6.30005 10.1069 16.5975 10.1069 29.3Z" fill="white"/>
<path d="M33.1111 16.3L19.5911 20.427V42.3001H29.1863V32.4923H38.0593V42.3001H46.6228V20.427L33.1111 16.3ZM33.4206 26.8734C32.2238 26.8734 31.2539 25.9036 31.2539 24.7067C31.2539 23.5099 32.2238 22.5401 33.4206 22.5401C34.6174 22.5401 35.5873 23.5099 35.5873 24.7067C35.5873 25.9036 34.6174 26.8734 33.4206 26.8734Z" fill="#FF2020"/>
<defs>
<filter id="filter0_d_6_313" x="0.106934" y="0.300049" width="65.9535" height="90.2" filterUnits="userSpaceOnUse" color-interpolation-filters="sRGB">
<feFlood flood-opacity="0" result="BackgroundImageFix"/>
<feColorMatrix in="SourceAlpha" type="matrix" values="0 0 0 0 0 0 0 0 0 0 0 0 0 0 0 0 0 0 127 0" result="hardAlpha"/>
<feOffset dy="4"/>
<feGaussianBlur stdDeviation="2"/>
<feComposite in2="hardAlpha" operator="out"/>
<feColorMatrix type="matrix" values="0 0 0 0 0 0 0 0 0 0 0 0 0 0 0 0 0 0 0.25 0"/>
<feBlend mode="normal" in2="BackgroundImageFix" result="effect1_dropShadow_6_313"/>
<feBlend mode="normal" in="SourceGraphic" in2="effect1_dropShadow_6_313" result="shape"/>
</filter>
</defs>
</svg>
