<svg width="67" height="91" viewBox="0 0 67 91" fill="none" xmlns="http://www.w3.org/2000/svg">
<g filter="url(#filter0_d_16_522)">
<path d="M33.2442 1C17.7887 1 5.26746 13.8376 5.26746 29.3454C5.26746 44.8443 24.8908 81.2 33.2442 81.2C41.5976 81.2 61.2209 44.8443 61.2209 29.3454C61.2209 13.8376 48.6909 1 33.2442 1Z" fill="#FF0000"/>
<path d="M33.2442 1C17.7887 1 5.26746 13.8376 5.26746 29.3454C5.26746 44.8443 24.8908 81.2 33.2442 81.2C41.5976 81.2 61.2209 44.8443 61.2209 29.3454C61.2209 13.8376 48.6909 1 33.2442 1Z" stroke="white" stroke-width="2"/>
</g>
<path d="M10.2675 29C10.2675 41.7025 20.5649 52 33.2675 52C45.97 52 56.2675 41.7025 56.2675 29C56.2675 16.2975 45.97 6 33.2675 6C20.5649 6 10.2675 16.2975 10.2675 29Z" fill="white"/>
<path d="M33.2675 16.1272L25.5283 20.9063H41.0066L33.2675 16.1272Z" fill="#FF0000"/>
<path d="M25.9613 24.8229H23.7178V34.6559H25.9613V24.8229Z" fill="#FF0000"/>
<path d="M31.5805 24.8229H29.337V34.6559H31.5805V24.8229Z" fill="#FF0000"/>
<path d="M37.1979 24.8229H34.9544V34.6559H37.1979V24.8229Z" fill="#FF0000"/>
<path d="M42.817 24.8229H40.5735V34.6559H42.817V24.8229Z" fill="#FF0000"/>
<path d="M45.2674 20.9324H21.2674V23.268H45.2674V20.9324Z" fill="#FF0000"/>
<path d="M45.2675 38.6125V36.6107H21.2675V38.6125H19.2675V40.9464H47.2675V38.6125H45.2675Z" fill="#FF0000"/>
<defs>
<filter id="filter0_d_16_522" x="0.267456" y="0" width="65.9535" height="90.2" filterUnits="userSpaceOnUse" color-interpolation-filters="sRGB">
<feFlood flood-opacity="0" result="BackgroundImageFix"/>
<feColorMatrix in="SourceAlpha" type="matrix" values="0 0 0 0 0 0 0 0 0 0 0 0 0 0 0 0 0 0 127 0" result="hardAlpha"/>
<feOffset dy="4"/>
<feGaussianBlur stdDeviation="2"/>
<feComposite in2="hardAlpha" operator="out"/>
<feColorMatrix type="matrix" values="0 0 0 0 0 0 0 0 0 0 0 0 0 0 0 0 0 0 0.25 0"/>
<feBlend mode="normal" in2="BackgroundImageFix" result="effect1_dropShadow_16_522"/>
<feBlend mode="normal" in="SourceGraphic" in2="effect1_dropShadow_16_522" result="shape"/>
</filter>
</defs>
</svg>
