<svg width="67" height="91" viewBox="0 0 67 91" fill="none" xmlns="http://www.w3.org/2000/svg">
<g filter="url(#filter0_d_6_309)">
<path d="M33.1906 1C17.7351 1 5.21387 13.8376 5.21387 29.3454C5.21387 44.8443 24.8372 81.2 33.1906 81.2C41.544 81.2 61.1674 44.8443 61.1674 29.3454C61.1674 13.8376 48.6373 1 33.1906 1Z" fill="#008FDF"/>
<path d="M33.1906 1C17.7351 1 5.21387 13.8376 5.21387 29.3454C5.21387 44.8443 24.8372 81.2 33.1906 81.2C41.544 81.2 61.1674 44.8443 61.1674 29.3454C61.1674 13.8376 48.6373 1 33.1906 1Z" stroke="white" stroke-width="2"/>
</g>
<path d="M10.2139 29C10.2139 41.7025 20.5113 52 33.2139 52C45.9164 52 56.2139 41.7025 56.2139 29C56.2139 16.2975 45.9164 6 33.2139 6C20.5113 6 10.2139 16.2975 10.2139 29Z" fill="white"/>
<path d="M34.6912 19.9143C36.273 19.2591 37.0241 17.4457 36.3689 15.8639C35.7137 14.2822 33.9003 13.5311 32.3186 14.1862C30.7369 14.8414 29.9857 16.6548 30.6409 18.2366C31.2961 19.8183 33.1095 20.5694 34.6912 19.9143Z" fill="#008FDF"/>
<path d="M42.5317 30.5202L36.9685 21.5199C36.8668 21.3558 36.7259 21.2328 36.5654 21.1507C36.4156 20.992 36.2069 20.8921 35.9714 20.8921H30.8987C30.6544 20.8921 30.4368 21.0009 30.2869 21.1721C30.1442 21.2524 30.0194 21.3701 29.9284 21.5199L24.3652 30.5202C24.0709 30.9965 24.219 31.6207 24.6952 31.915C24.8611 32.0185 25.0448 32.0667 25.2267 32.0667C25.5656 32.0667 25.8974 31.8954 26.09 31.5851L30.0836 25.1265V43.8548C30.0836 44.488 30.5973 44.9999 31.2287 44.9999C31.8601 44.9999 32.3738 44.4862 32.3738 43.8548V33.1654H34.5017V43.8548C34.5017 44.488 35.0154 44.9999 35.6468 44.9999C36.2782 44.9999 36.7919 44.4862 36.7919 43.8548V25.0854L40.8105 31.5851C41.0013 31.8954 41.3331 32.0667 41.6737 32.0667C41.8557 32.0667 42.0394 32.0185 42.2053 31.915C42.6815 31.6207 42.8296 30.9965 42.5353 30.5202H42.5317Z" fill="#008FDF"/>
<defs>
<filter id="filter0_d_6_309" x="0.213867" y="0" width="65.9535" height="90.2" filterUnits="userSpaceOnUse" color-interpolation-filters="sRGB">
<feFlood flood-opacity="0" result="BackgroundImageFix"/>
<feColorMatrix in="SourceAlpha" type="matrix" values="0 0 0 0 0 0 0 0 0 0 0 0 0 0 0 0 0 0 127 0" result="hardAlpha"/>
<feOffset dy="4"/>
<feGaussianBlur stdDeviation="2"/>
<feComposite in2="hardAlpha" operator="out"/>
<feColorMatrix type="matrix" values="0 0 0 0 0 0 0 0 0 0 0 0 0 0 0 0 0 0 0.25 0"/>
<feBlend mode="normal" in2="BackgroundImageFix" result="effect1_dropShadow_6_309"/>
<feBlend mode="normal" in="SourceGraphic" in2="effect1_dropShadow_6_309" result="shape"/>
</filter>
</defs>
</svg>
