<svg width="75" height="90" viewBox="0 0 75 90" fill="none" xmlns="http://www.w3.org/2000/svg">
<g filter="url(#filter0_d_463_2310)">
<path d="M37.0463 74.3235L18.8971 52.7206L56.1029 52.7206L37.0463 74.3235Z" fill="#008FDF"/>
<path d="M65 32.5C65 47.6878 52.6878 60 37.5 60C22.3122 60 10 47.6878 10 32.5C10 17.3122 22.3122 5 37.5 5C52.6878 5 65 17.3122 65 32.5Z" fill="white"/>
<path d="M37.0463 74.3235L18.8971 52.7206L56.1029 52.7206L37.0463 74.3235Z" stroke="white" stroke-width="4" stroke-linejoin="round"/>
<path d="M65 32.5C65 47.6878 52.6878 60 37.5 60C22.3122 60 10 47.6878 10 32.5C10 17.3122 22.3122 5 37.5 5C52.6878 5 65 17.3122 65 32.5Z" stroke="white" stroke-width="4" stroke-linejoin="round"/>
</g>
<path d="M37.0464 74.3235L18.8971 52.7205L56.103 52.7205L37.0464 74.3235Z" fill="#00A560"/>
<path d="M61.9091 32.5C61.9091 45.9808 50.9808 56.9091 37.5 56.9091C24.0192 56.9091 13.0909 45.9808 13.0909 32.5C13.0909 19.0192 24.0192 8.09091 37.5 8.09091C50.9808 8.09091 61.9091 19.0192 61.9091 32.5Z" fill="#00A560" stroke="#00A560" stroke-width="6.18182"/>
<ellipse cx="37.853" cy="33" rx="23" ry="23" fill="white"/>
<path d="M51.8271 45.1334L38.8946 26.0716V23.4086H43.7321C43.9595 23.4086 44.1582 23.257 44.2189 23.0381C44.2795 22.8191 44.1869 22.5866 43.9932 22.4704L38.7548 19.3072C38.6049 19.0781 38.3455 18.9282 38.0524 18.9282C37.5876 18.9282 37.2103 19.3055 37.2103 19.7704V25.9267C37.1951 25.9469 37.1783 25.9655 37.1648 25.9857L24.1733 45.1334C23.9628 45.4434 23.9409 45.8426 24.1161 46.1744C24.2912 46.5045 24.6348 46.7117 25.0088 46.7117H50.9883C51.3622 46.7117 51.7058 46.5045 51.881 46.1744C52.0562 45.8442 52.0343 45.4434 51.8237 45.1334H51.8271ZM40.1848 44.6888V38.583H35.8173V44.6888H26.9188L38.0019 28.3522L49.085 44.6888H40.1865H40.1848Z" fill="#00A560"/>
<defs>
<filter id="filter0_d_463_2310" x="0" y="0" width="75" height="89.3235" filterUnits="userSpaceOnUse" color-interpolation-filters="sRGB">
<feFlood flood-opacity="0" result="BackgroundImageFix"/>
<feColorMatrix in="SourceAlpha" type="matrix" values="0 0 0 0 0 0 0 0 0 0 0 0 0 0 0 0 0 0 127 0" result="hardAlpha"/>
<feOffset dy="5"/>
<feGaussianBlur stdDeviation="4"/>
<feComposite in2="hardAlpha" operator="out"/>
<feColorMatrix type="matrix" values="0 0 0 0 0 0 0 0 0 0 0 0 0 0 0 0 0 0 0.25 0"/>
<feBlend mode="normal" in2="BackgroundImageFix" result="effect1_dropShadow_463_2310"/>
<feBlend mode="normal" in="SourceGraphic" in2="effect1_dropShadow_463_2310" result="shape"/>
</filter>
</defs>
</svg>
