<svg width="75" height="90" viewBox="0 0 75 90" fill="none" xmlns="http://www.w3.org/2000/svg">
<g filter="url(#filter0_d_771_2409)">
<path d="M37.0463 74.3235L18.8971 52.7206L56.1029 52.7206L37.0463 74.3235Z" fill="#008FDF"/>
<path d="M65 32.5C65 47.6878 52.6878 60 37.5 60C22.3122 60 10 47.6878 10 32.5C10 17.3122 22.3122 5 37.5 5C52.6878 5 65 17.3122 65 32.5Z" fill="white"/>
<path d="M37.0463 74.3235L18.8971 52.7206L56.1029 52.7206L37.0463 74.3235Z" stroke="white" stroke-width="4" stroke-linejoin="round"/>
<path d="M65 32.5C65 47.6878 52.6878 60 37.5 60C22.3122 60 10 47.6878 10 32.5C10 17.3122 22.3122 5 37.5 5C52.6878 5 65 17.3122 65 32.5Z" stroke="white" stroke-width="4" stroke-linejoin="round"/>
</g>
<path d="M37.0464 74.3235L18.8971 52.7205L56.103 52.7205L37.0464 74.3235Z" fill="#455DB7"/>
<path d="M37.5 8.09082C50.9808 8.09082 61.9092 19.0192 61.9092 32.5C61.9092 45.9808 50.9808 56.9092 37.5 56.9092C24.0192 56.9092 13.0908 45.9808 13.0908 32.5C13.0908 19.0192 24.0192 8.09082 37.5 8.09082Z" fill="#455DB7" stroke="#455DB7" stroke-width="6.18182"/>
<ellipse cx="37.853" cy="33" rx="23" ry="23" fill="white"/>
<path d="M51.1868 44.4262C57.5399 37.6773 57.5399 27.1356 51.1868 20.3866C51.1127 20.2248 51.0093 20.0707 50.8748 19.9381C50.7402 19.8036 50.5881 19.7022 50.4263 19.6261C47.0528 16.4496 42.7296 14.8564 38.4065 14.8564C34.0833 14.8564 29.7602 16.4496 26.3867 19.6261C26.2248 19.7002 26.0727 19.8036 25.9382 19.9381C25.8036 20.0727 25.7022 20.2248 25.6262 20.3866C19.2731 27.1356 19.2731 37.6773 25.6262 44.4262C25.7003 44.5881 25.8036 44.7421 25.9382 44.8747C26.0727 45.0093 26.2248 45.1107 26.3867 45.1867C29.7602 48.3633 34.0814 49.9564 38.4065 49.9564C42.7316 49.9564 47.0528 48.3633 50.4263 45.1867C50.5881 45.1126 50.7422 45.0093 50.8748 44.8747C51.0093 44.7402 51.1107 44.5881 51.1868 44.4262ZM49.6541 41.4466L40.6139 32.4064L49.6541 23.3662C51.7152 25.9207 52.8384 29.0778 52.8384 32.4064C52.8384 35.7351 51.7172 38.8921 49.6541 41.4466ZM47.4467 21.1608L38.4065 30.201L29.3663 21.1608C31.9208 19.0996 35.0778 17.9764 38.4065 17.9764C41.7351 17.9764 44.8922 19.0977 47.4467 21.1608ZM27.1608 23.3662L36.201 32.4064L27.1608 41.4466C25.0997 38.8921 23.9765 35.7351 23.9765 32.4064C23.9765 29.0778 25.0977 25.9207 27.1608 23.3662ZM29.3663 43.654L38.4065 34.6138L47.4467 43.654C44.8922 45.7152 41.7351 46.8384 38.4065 46.8384C35.0778 46.8384 31.9208 45.7171 29.3663 43.654Z" fill="#455DB7"/>
<defs>
<filter id="filter0_d_771_2409" x="0" y="0" width="75" height="89.3235" filterUnits="userSpaceOnUse" color-interpolation-filters="sRGB">
<feFlood flood-opacity="0" result="BackgroundImageFix"/>
<feColorMatrix in="SourceAlpha" type="matrix" values="0 0 0 0 0 0 0 0 0 0 0 0 0 0 0 0 0 0 127 0" result="hardAlpha"/>
<feOffset dy="5"/>
<feGaussianBlur stdDeviation="4"/>
<feComposite in2="hardAlpha" operator="out"/>
<feColorMatrix type="matrix" values="0 0 0 0 0 0 0 0 0 0 0 0 0 0 0 0 0 0 0.25 0"/>
<feBlend mode="normal" in2="BackgroundImageFix" result="effect1_dropShadow_771_2409"/>
<feBlend mode="normal" in="SourceGraphic" in2="effect1_dropShadow_771_2409" result="shape"/>
</filter>
</defs>
</svg>
