<svg width="75" height="90" viewBox="0 0 75 90" fill="none" xmlns="http://www.w3.org/2000/svg">
<g filter="url(#filter0_d_578_3100)">
<path d="M37.0463 74.3235L18.8971 52.7206L56.1029 52.7206L37.0463 74.3235Z" fill="#008FDF"/>
<path d="M65 32.5C65 47.6878 52.6878 60 37.5 60C22.3122 60 10 47.6878 10 32.5C10 17.3122 22.3122 5 37.5 5C52.6878 5 65 17.3122 65 32.5Z" fill="#455DB7"/>
<path d="M37.0463 74.3235L18.8971 52.7206L56.1029 52.7206L37.0463 74.3235Z" stroke="white" stroke-width="4" stroke-linejoin="round"/>
<path d="M65 32.5C65 47.6878 52.6878 60 37.5 60C22.3122 60 10 47.6878 10 32.5C10 17.3122 22.3122 5 37.5 5C52.6878 5 65 17.3122 65 32.5Z" stroke="white" stroke-width="4" stroke-linejoin="round"/>
</g>
<path d="M37.0464 74.3235L18.8971 52.7205L56.103 52.7205L37.0464 74.3235Z" fill="#455DB7"/>
<path d="M37.5 8.09082C50.9808 8.09082 61.9092 19.0192 61.9092 32.5C61.9092 45.9808 50.9808 56.9092 37.5 56.9092C24.0192 56.9092 13.0908 45.9808 13.0908 32.5C13.0908 19.0192 24.0192 8.09082 37.5 8.09082Z" fill="#455DB7" stroke="#455DB7" stroke-width="6.18182"/>
<ellipse cx="37.853" cy="33" rx="23" ry="23" fill="white"/>
<g clip-path="url(#clip0_578_3100)">
<path d="M31.7521 23.5842L38.3341 28.5139C38.487 28.6291 38.6671 28.7066 38.8577 28.7359C38.9226 28.7464 38.9875 28.7527 39.0524 28.7527C39.109 28.7527 39.1655 28.7485 39.2221 28.7401C39.5383 28.694 39.8189 28.5286 40.0116 28.2731L46.8742 19.1069C47.0669 18.8514 47.1464 18.5352 47.1004 18.2189C47.0543 17.9027 46.8889 17.6221 46.6334 17.4294L40.0514 12.4997C39.7959 12.3092 39.4817 12.2275 39.1634 12.2736C38.8472 12.3196 38.5666 12.4851 38.3739 12.7406L31.5113 21.9068C31.3186 22.1623 31.239 22.4785 31.2851 22.7947C31.3312 23.1109 31.4966 23.3916 31.7521 23.5842ZM39.5739 15.1363L44.2397 18.6294L38.8116 25.8774L34.1458 22.3843L39.5739 15.1363ZM48.9056 32.1473C48.9349 31.9023 48.9056 31.6426 48.8071 31.4123L46.8093 26.8553C46.6669 26.5287 46.4093 26.3297 46.1308 26.3297H42.9853L41.3581 28.5014H45.6826L46.8826 31.2385H29.5951L30.7951 28.5014H36.2923L33.3919 26.3297H30.349C30.0705 26.3297 29.815 26.5287 29.6705 26.8553L27.6727 31.4123C27.5721 31.6426 27.5428 31.9023 27.5742 32.1473C27.5679 32.1934 27.5596 32.2395 27.5596 32.2876V48.2139C27.5596 48.7919 28.0287 49.261 28.6067 49.261H47.8731C48.4511 49.261 48.9202 48.7919 48.9202 48.2139V32.2876C48.9202 32.2395 48.9118 32.1934 48.9056 32.1473ZM46.826 47.1668H29.6538V33.3347H46.826V47.1668Z" fill="#455DB7"/>
</g>
<defs>
<filter id="filter0_d_578_3100" x="0" y="0" width="75" height="89.3235" filterUnits="userSpaceOnUse" color-interpolation-filters="sRGB">
<feFlood flood-opacity="0" result="BackgroundImageFix"/>
<feColorMatrix in="SourceAlpha" type="matrix" values="0 0 0 0 0 0 0 0 0 0 0 0 0 0 0 0 0 0 127 0" result="hardAlpha"/>
<feOffset dy="5"/>
<feGaussianBlur stdDeviation="4"/>
<feComposite in2="hardAlpha" operator="out"/>
<feColorMatrix type="matrix" values="0 0 0 0 0 0 0 0 0 0 0 0 0 0 0 0 0 0 0.25 0"/>
<feBlend mode="normal" in2="BackgroundImageFix" result="effect1_dropShadow_578_3100"/>
<feBlend mode="normal" in="SourceGraphic" in2="effect1_dropShadow_578_3100" result="shape"/>
</filter>
<clipPath id="clip0_578_3100">
<rect width="37" height="37" fill="white" transform="translate(19 12)"/>
</clipPath>
</defs>
</svg>
