<svg width="75" height="90" viewBox="0 0 75 90" fill="none" xmlns="http://www.w3.org/2000/svg">
<g filter="url(#filter0_d_463_2324)">
<path d="M37.0463 74.3235L18.8971 52.7206L56.1029 52.7206L37.0463 74.3235Z" fill="#008FDF"/>
<path d="M65 32.5C65 47.6878 52.6878 60 37.5 60C22.3122 60 10 47.6878 10 32.5C10 17.3122 22.3122 5 37.5 5C52.6878 5 65 17.3122 65 32.5Z" fill="white"/>
<path d="M37.0463 74.3235L18.8971 52.7206L56.1029 52.7206L37.0463 74.3235Z" stroke="white" stroke-width="4" stroke-linejoin="round"/>
<path d="M65 32.5C65 47.6878 52.6878 60 37.5 60C22.3122 60 10 47.6878 10 32.5C10 17.3122 22.3122 5 37.5 5C52.6878 5 65 17.3122 65 32.5Z" stroke="white" stroke-width="4" stroke-linejoin="round"/>
</g>
<path d="M37.0464 74.3235L18.8971 52.7205L56.103 52.7205L37.0464 74.3235Z" fill="#008FDF"/>
<path d="M61.9091 32.5C61.9091 45.9808 50.9808 56.9091 37.5 56.9091C24.0192 56.9091 13.0909 45.9808 13.0909 32.5C13.0909 19.0192 24.0192 8.09091 37.5 8.09091C50.9808 8.09091 61.9091 19.0192 61.9091 32.5Z" fill="#008FDF" stroke="#008FDF" stroke-width="6.18182"/>
<ellipse cx="37.853" cy="33" rx="23" ry="23" fill="white"/>
<g clip-path="url(#clip0_463_2324)">
<path d="M23.1403 38.28C24.0181 38.28 24.3965 38.551 24.9652 38.9608C25.6482 39.4534 26.4991 40.0647 28.1001 40.0647C29.7011 40.0647 30.552 39.4534 31.2349 38.9608C31.8059 38.551 32.1821 38.28 33.0598 38.28C33.9376 38.28 34.316 38.551 34.8847 38.9608C35.5677 39.4534 36.4186 40.0647 38.0196 40.0647C39.6206 40.0647 40.4715 39.4534 41.1544 38.9608C41.7254 38.551 42.1016 38.28 42.9794 38.28C43.8571 38.28 44.2355 38.551 44.8065 38.9608C45.4895 39.4534 46.3404 40.0647 47.9414 40.0647C49.5424 40.0647 50.3933 39.4534 51.0762 38.9608C51.6472 38.551 52.0234 38.2778 52.9034 38.2778C53.5214 38.2778 54.0229 37.7762 54.0229 37.1582C54.0229 36.5402 53.5214 36.0386 52.9034 36.0386C51.3024 36.0386 50.4515 36.6499 49.7685 37.1426C49.1975 37.5523 48.8214 37.8233 47.9414 37.8233C47.0614 37.8233 46.6852 37.5523 46.1142 37.1403C45.4312 36.6477 44.5804 36.0364 42.9794 36.0364C42.1777 36.0364 41.5642 36.1909 41.0671 36.4059L36.338 26.2513L42.8338 23.2262C43.7317 22.8075 44.1191 21.7438 43.7026 20.8459C43.2839 19.948 42.2203 19.5607 41.3224 19.9772L33.2031 23.7591C32.3052 24.1778 31.9178 25.2414 32.3343 26.1393L34.0025 29.722C30.5452 31.5379 22.5402 36.1685 22.5402 36.1685L22.5805 36.1932C22.2491 36.388 22.0229 36.744 22.0229 37.156C22.0229 37.774 22.5245 38.2756 23.1425 38.2756L23.1403 38.28Z" fill="#008FDF"/>
<path d="M52.9016 42.1987C51.3364 42.1987 50.5034 42.7988 49.8317 43.2802C49.2652 43.6878 48.8554 43.9833 47.9396 43.9833C47.0238 43.9833 46.614 43.6878 46.0475 43.2802C45.378 42.7988 44.5428 42.1987 42.9776 42.1987C41.4124 42.1987 40.5794 42.7988 39.9077 43.2802C39.3412 43.6878 38.9314 43.9833 38.0156 43.9833C37.0998 43.9833 36.69 43.6878 36.1235 43.2802C35.454 42.7988 34.6188 42.1987 33.0558 42.1987C31.4929 42.1987 30.6577 42.7988 29.9882 43.2802C29.4216 43.6878 29.0119 43.9833 28.0961 43.9833C27.1802 43.9833 26.7705 43.6878 26.204 43.2802C25.5344 42.7988 24.6992 42.1987 23.1363 42.1987C22.5787 42.1987 22.1287 42.6488 22.1287 43.2064C22.1287 43.7639 22.5787 44.214 23.1363 44.214C24.0521 44.214 24.4596 44.5095 25.0284 44.9171C25.6979 45.3985 26.5331 45.9986 28.0961 45.9986C29.659 45.9986 30.4942 45.3985 31.1637 44.9171C31.7302 44.5095 32.14 44.214 33.0558 44.214C33.9716 44.214 34.3792 44.5095 34.9479 44.9171C35.6174 45.3985 36.4526 45.9986 38.0156 45.9986C39.5785 45.9986 40.4137 45.3985 41.0832 44.9171C41.6498 44.5095 42.0595 44.214 42.9753 44.214C43.8912 44.214 44.3009 44.5095 44.8674 44.9171C45.537 45.3985 46.3722 45.9986 47.9374 45.9986C49.5025 45.9986 50.3355 45.3985 51.0073 44.9171C51.5738 44.5095 51.9835 44.214 52.8994 44.214C53.4569 44.214 53.907 43.7639 53.907 43.2064C53.907 42.6488 53.4569 42.1987 52.8994 42.1987H52.9016Z" fill="#008FDF"/>
<path d="M45.8273 33.0382C47.9297 33.0382 49.6339 31.3339 49.6339 29.2316C49.6339 27.1293 47.9297 25.425 45.8273 25.425C43.725 25.425 42.0208 27.1293 42.0208 29.2316C42.0208 31.3339 43.725 33.0382 45.8273 33.0382Z" fill="#008FDF"/>
</g>
<defs>
<filter id="filter0_d_463_2324" x="0" y="0" width="75" height="89.3235" filterUnits="userSpaceOnUse" color-interpolation-filters="sRGB">
<feFlood flood-opacity="0" result="BackgroundImageFix"/>
<feColorMatrix in="SourceAlpha" type="matrix" values="0 0 0 0 0 0 0 0 0 0 0 0 0 0 0 0 0 0 127 0" result="hardAlpha"/>
<feOffset dy="5"/>
<feGaussianBlur stdDeviation="4"/>
<feComposite in2="hardAlpha" operator="out"/>
<feColorMatrix type="matrix" values="0 0 0 0 0 0 0 0 0 0 0 0 0 0 0 0 0 0 0.25 0"/>
<feBlend mode="normal" in2="BackgroundImageFix" result="effect1_dropShadow_463_2324"/>
<feBlend mode="normal" in="SourceGraphic" in2="effect1_dropShadow_463_2324" result="shape"/>
</filter>
<clipPath id="clip0_463_2324">
<rect width="32" height="32" fill="white" transform="translate(22 17)"/>
</clipPath>
</defs>
</svg>
