<svg width="66" height="91" viewBox="0 0 66 91" fill="none" xmlns="http://www.w3.org/2000/svg">
<g filter="url(#filter0_d_57_783)">
<path d="M32.9767 1C17.5212 1 5 13.8376 5 29.3454C5 44.8443 24.6234 81.2 32.9767 81.2C41.3301 81.2 60.9535 44.8443 60.9535 29.3454C60.9535 13.8376 48.4234 1 32.9767 1Z" fill="#008FDF"/>
<path d="M32.9767 1C17.5212 1 5 13.8376 5 29.3454C5 44.8443 24.6234 81.2 32.9767 81.2C41.3301 81.2 60.9535 44.8443 60.9535 29.3454C60.9535 13.8376 48.4234 1 32.9767 1Z" stroke="white" stroke-width="2"/>
</g>
<path d="M10 29C10 41.7025 20.2975 52 33 52C45.7025 52 56 41.7025 56 29C56 16.2975 45.7025 6 33 6C20.2975 6 10 16.2975 10 29Z" fill="white"/>
<g clip-path="url(#clip0_57_783)">
<path d="M18.1403 34.2801C19.0181 34.2801 19.3965 34.551 19.9652 34.9608C20.6482 35.4534 21.4991 36.0647 23.1001 36.0647C24.7011 36.0647 25.552 35.4534 26.2349 34.9608C26.8059 34.551 27.1821 34.2801 28.0598 34.2801C28.9376 34.2801 29.316 34.551 29.8847 34.9608C30.5677 35.4534 31.4186 36.0647 33.0196 36.0647C34.6206 36.0647 35.4715 35.4534 36.1544 34.9608C36.7254 34.551 37.1016 34.2801 37.9794 34.2801C38.8571 34.2801 39.2355 34.551 39.8065 34.9608C40.4895 35.4534 41.3404 36.0647 42.9414 36.0647C44.5424 36.0647 45.3933 35.4534 46.0762 34.9608C46.6472 34.551 47.0234 34.2778 47.9034 34.2778C48.5214 34.2778 49.0229 33.7762 49.0229 33.1582C49.0229 32.5402 48.5214 32.0386 47.9034 32.0386C46.3024 32.0386 45.4515 32.6499 44.7685 33.1426C44.1975 33.5523 43.8214 33.8233 42.9414 33.8233C42.0614 33.8233 41.6852 33.5523 41.1142 33.1403C40.4312 32.6477 39.5804 32.0364 37.9794 32.0364C37.1777 32.0364 36.5642 32.1909 36.0671 32.4059L31.338 22.2513L37.8338 19.2262C38.7317 18.8075 39.1191 17.7438 38.7026 16.8459C38.2839 15.948 37.2203 15.5607 36.3224 15.9772L28.2031 19.7591C27.3052 20.1778 26.9178 21.2414 27.3343 22.1393L29.0025 25.722C25.5452 27.5379 17.5402 32.1685 17.5402 32.1685L17.5805 32.1931C17.2491 32.388 17.0229 32.744 17.0229 33.156C17.0229 33.774 17.5245 34.2756 18.1425 34.2756L18.1403 34.2801Z" fill="#008FDF"/>
<path d="M47.9016 38.1987C46.3364 38.1987 45.5034 38.7988 44.8317 39.2802C44.2652 39.6878 43.8554 39.9833 42.9396 39.9833C42.0238 39.9833 41.614 39.6878 41.0475 39.2802C40.378 38.7988 39.5428 38.1987 37.9776 38.1987C36.4124 38.1987 35.5794 38.7988 34.9077 39.2802C34.3412 39.6878 33.9314 39.9833 33.0156 39.9833C32.0998 39.9833 31.69 39.6878 31.1235 39.2802C30.454 38.7988 29.6188 38.1987 28.0558 38.1987C26.4929 38.1987 25.6577 38.7988 24.9882 39.2802C24.4216 39.6878 24.0119 39.9833 23.0961 39.9833C22.1802 39.9833 21.7705 39.6878 21.204 39.2802C20.5344 38.7988 19.6992 38.1987 18.1363 38.1987C17.5787 38.1987 17.1287 38.6488 17.1287 39.2064C17.1287 39.7639 17.5787 40.214 18.1363 40.214C19.0521 40.214 19.4596 40.5095 20.0284 40.9171C20.6979 41.3985 21.5331 41.9986 23.0961 41.9986C24.659 41.9986 25.4942 41.3985 26.1637 40.9171C26.7302 40.5095 27.14 40.214 28.0558 40.214C28.9716 40.214 29.3792 40.5095 29.9479 40.9171C30.6174 41.3985 31.4526 41.9986 33.0156 41.9986C34.5785 41.9986 35.4137 41.3985 36.0832 40.9171C36.6498 40.5095 37.0595 40.214 37.9753 40.214C38.8912 40.214 39.3009 40.5095 39.8674 40.9171C40.537 41.3985 41.3722 41.9986 42.9374 41.9986C44.5025 41.9986 45.3355 41.3985 46.0073 40.9171C46.5738 40.5095 46.9835 40.214 47.8994 40.214C48.4569 40.214 48.907 39.7639 48.907 39.2064C48.907 38.6488 48.4569 38.1987 47.8994 38.1987H47.9016Z" fill="#008FDF"/>
<path d="M44.522 25.2316C44.522 27.2721 42.8678 28.9262 40.8273 28.9262C38.7869 28.9262 37.1327 27.2721 37.1327 25.2316C37.1327 23.1911 38.7869 21.537 40.8273 21.537C42.8678 21.537 44.522 23.1911 44.522 25.2316Z" fill="#008FDF" stroke="#008FDF" stroke-width="0.223917"/>
</g>
<defs>
<filter id="filter0_d_57_783" x="0" y="0" width="65.9536" height="90.2" filterUnits="userSpaceOnUse" color-interpolation-filters="sRGB">
<feFlood flood-opacity="0" result="BackgroundImageFix"/>
<feColorMatrix in="SourceAlpha" type="matrix" values="0 0 0 0 0 0 0 0 0 0 0 0 0 0 0 0 0 0 127 0" result="hardAlpha"/>
<feOffset dy="4"/>
<feGaussianBlur stdDeviation="2"/>
<feComposite in2="hardAlpha" operator="out"/>
<feColorMatrix type="matrix" values="0 0 0 0 0 0 0 0 0 0 0 0 0 0 0 0 0 0 0.25 0"/>
<feBlend mode="normal" in2="BackgroundImageFix" result="effect1_dropShadow_57_783"/>
<feBlend mode="normal" in="SourceGraphic" in2="effect1_dropShadow_57_783" result="shape"/>
</filter>
<clipPath id="clip0_57_783">
<rect width="32" height="32" fill="white" transform="translate(17 13)"/>
</clipPath>
</defs>
</svg>
