<svg width="75" height="90" viewBox="0 0 75 90" fill="none" xmlns="http://www.w3.org/2000/svg">
<g filter="url(#filter0_d_874_3002)">
<path d="M37.0463 74.3235L18.8971 52.7206L56.1029 52.7206L37.0463 74.3235Z" fill="#008FDF"/>
<path d="M65 32.5C65 47.6878 52.6878 60 37.5 60C22.3122 60 10 47.6878 10 32.5C10 17.3122 22.3122 5 37.5 5C52.6878 5 65 17.3122 65 32.5Z" fill="white"/>
<path d="M37.0463 74.3235L18.8971 52.7206L56.1029 52.7206L37.0463 74.3235Z" stroke="white" stroke-width="4" stroke-linejoin="round"/>
<path d="M65 32.5C65 47.6878 52.6878 60 37.5 60C22.3122 60 10 47.6878 10 32.5C10 17.3122 22.3122 5 37.5 5C52.6878 5 65 17.3122 65 32.5Z" stroke="white" stroke-width="4" stroke-linejoin="round"/>
</g>
<path d="M37.0464 74.3237L18.8971 52.7208L56.103 52.7208L37.0464 74.3237Z" fill="#455DB7"/>
<path d="M37.5 8.09082C50.9808 8.09082 61.9092 19.0192 61.9092 32.5C61.9092 45.9808 50.9808 56.9092 37.5 56.9092C24.0192 56.9092 13.0908 45.9808 13.0908 32.5C13.0908 19.0192 24.0192 8.09082 37.5 8.09082Z" fill="#455DB7" stroke="#455DB7" stroke-width="6.18182"/>
<ellipse cx="37.853" cy="33" rx="23" ry="23" fill="white"/>
<path d="M38 15.1001C28.35 15.1001 20.5 22.9501 20.5 32.6001C20.5 42.2501 28.35 50.1001 38 50.1001C47.65 50.1001 55.5 42.2501 55.5 32.6001C55.5 22.9501 47.65 15.1001 38 15.1001ZM38 18.5001C42.128 18.5001 45.848 20.2841 48.428 23.1201H27.572C30.152 20.2841 33.872 18.5001 38 18.5001ZM36.3 46.5941C30.056 45.8401 25.056 40.9921 24.076 34.8181H36.3V46.5941ZM23.954 31.4181C24.1 29.6781 24.558 28.0241 25.28 26.5201H50.72C51.442 28.0241 51.902 29.6781 52.046 31.4181H23.954ZM39.7 46.5941V34.8181H51.924C50.944 40.9901 45.944 45.8401 39.7 46.5941Z" fill="#455DB7"/>
<defs>
<filter id="filter0_d_874_3002" x="0" y="0" width="75" height="89.3237" filterUnits="userSpaceOnUse" color-interpolation-filters="sRGB">
<feFlood flood-opacity="0" result="BackgroundImageFix"/>
<feColorMatrix in="SourceAlpha" type="matrix" values="0 0 0 0 0 0 0 0 0 0 0 0 0 0 0 0 0 0 127 0" result="hardAlpha"/>
<feOffset dy="5"/>
<feGaussianBlur stdDeviation="4"/>
<feComposite in2="hardAlpha" operator="out"/>
<feColorMatrix type="matrix" values="0 0 0 0 0 0 0 0 0 0 0 0 0 0 0 0 0 0 0.25 0"/>
<feBlend mode="normal" in2="BackgroundImageFix" result="effect1_dropShadow_874_3002"/>
<feBlend mode="normal" in="SourceGraphic" in2="effect1_dropShadow_874_3002" result="shape"/>
</filter>
</defs>
</svg>
