<svg width="92" height="97" viewBox="0 0 92 97" fill="none" xmlns="http://www.w3.org/2000/svg">
<g filter="url(#filter0_d_336_2016)">
<path d="M37.0463 81.3235L18.8971 59.7206L56.1029 59.7206L37.0463 81.3235Z" fill="#008FDF"/>
<path d="M65 39.5C65 54.6878 52.6878 67 37.5 67C22.3122 67 10 54.6878 10 39.5C10 24.3122 22.3122 12 37.5 12C52.6878 12 65 24.3122 65 39.5Z" fill="white"/>
<path d="M37.0463 81.3235L18.8971 59.7206L56.1029 59.7206L37.0463 81.3235Z" stroke="white" stroke-width="4" stroke-linejoin="round"/>
<path d="M65 39.5C65 54.6878 52.6878 67 37.5 67C22.3122 67 10 54.6878 10 39.5C10 24.3122 22.3122 12 37.5 12C52.6878 12 65 24.3122 65 39.5Z" stroke="white" stroke-width="4" stroke-linejoin="round"/>
</g>
<path d="M37.0462 81.3235L18.897 59.7205L56.1029 59.7205L37.0462 81.3235Z" fill="#008FDF"/>
<path d="M61.9091 39.5C61.9091 52.9808 50.9808 63.9091 37.5 63.9091C24.0192 63.9091 13.0909 52.9808 13.0909 39.5C13.0909 26.0192 24.0192 15.0909 37.5 15.0909C50.9808 15.0909 61.9091 26.0192 61.9091 39.5Z" fill="#008FDF" stroke="#008FDF" stroke-width="6.18182"/>
<ellipse cx="37.8529" cy="40" rx="23" ry="23" fill="white"/>
<g clip-path="url(#clip0_336_2016)">
<path d="M37.6563 24.213C37.7322 24.2852 37.8206 24.3337 37.9153 24.3591C38.1201 24.4139 38.348 24.3591 38.5041 24.1938L42.1317 20.4077L40.8103 20.0536L37.639 23.3657C37.4094 23.6044 37.417 23.9854 37.6582 24.2136L37.6563 24.213ZM42.5387 28.3932C42.617 28.4721 42.7107 28.5241 42.8092 28.5505C43.0082 28.6038 43.2288 28.5532 43.3867 28.3968L49.4785 22.3763L48.1359 22.0165L42.5443 27.5457C42.308 27.7785 42.3055 28.1588 42.5387 28.3932ZM44.783 34.3365C44.8598 34.413 44.953 34.467 45.0515 34.4934C45.2505 34.5467 45.4736 34.4946 45.6314 34.3382L48.1113 31.8678C48.3457 31.6346 48.3463 31.2537 48.113 31.0194C47.8797 30.785 47.4989 30.7844 47.2645 31.0177L44.7846 33.488C44.5503 33.7213 44.5497 34.1022 44.783 34.3365ZM50.4675 28.6769C50.5443 28.7534 50.638 28.8055 50.7346 28.8313C50.9355 28.8852 51.1586 28.8331 51.315 28.6742L55.8826 24.0922L54.5457 23.734L50.4647 27.8293C50.2299 28.0646 50.2317 28.444 50.465 28.6783L50.4675 28.6769ZM51.246 36.0103C51.0002 36.2322 50.9792 36.6118 51.2012 36.8576C51.2807 36.9472 51.383 37.0057 51.4912 37.0347C51.6805 37.0854 51.8908 37.0424 52.0489 36.9005L61.8098 28.1133L62.3797 25.9864L51.246 36.0103ZM41.1175 33.6587L41.4446 32.4378C41.5942 31.8795 41.2638 31.3044 40.7036 31.1543C40.1433 31.0042 39.5702 31.3351 39.4201 31.8953L39.0929 33.1162C33.2934 31.9412 26.9242 33.8042 23.8181 39.7323C25.6349 38.956 29.9415 40.7415 30.5692 44.9597C32.4885 44.0557 34.4205 43.7306 36.1936 43.9365C34.9922 48.4204 33.9155 52.4386 33.9155 52.4386C33.428 54.3661 30.4197 53.5539 30.9578 51.6461C31.1074 51.0878 30.777 50.5127 30.2168 50.3626C27.4659 50.197 29.0743 55.2908 31.4977 55.5426C33.4296 56.0603 35.421 54.9105 35.9387 52.9787L38.2282 44.4341C39.9567 45.1001 41.4289 46.3518 42.4337 48.1346C43.8875 45.027 48.7768 44.221 51.0466 47.024C51.3222 40.3313 46.7315 35.5336 41.1166 33.6543L41.1175 33.6587ZM33.6759 18.142L23.2776 28.5431C23.0433 28.7764 23.0427 29.1572 23.2779 29.3921C23.3547 29.4686 23.4484 29.5206 23.547 29.547C23.7479 29.6009 23.9709 29.5488 24.1269 29.3919L35.0128 18.5002L33.674 18.1415L33.6759 18.142ZM31.4876 30.1881C31.5668 30.2714 31.6638 30.3264 31.7662 30.3538C31.9613 30.4061 32.179 30.3588 32.3353 30.2082L35.2836 27.4037C35.5228 27.1758 35.5335 26.7956 35.3037 26.556C35.0758 26.3169 34.6957 26.3061 34.456 26.5359L31.5077 29.3404C31.2686 29.5683 31.2578 29.9484 31.4876 30.1881Z" fill="#008FDF"/>
</g>
<g filter="url(#filter1_d_336_2016)">
<circle cx="69.5" cy="19.5" r="19.5" fill="black"/>
</g>
<path d="M67.5777 24.92L66.6977 10.16L66.5377 4.6H72.4177L72.2577 10.16L71.4177 24.92H67.5777ZM69.4577 35.56C67.3777 35.56 65.8177 33.92 65.8177 31.72C65.8177 29.52 67.3777 27.92 69.4577 27.92C71.5777 27.92 73.1377 29.52 73.1377 31.72C73.1377 33.92 71.5777 35.56 69.4577 35.56Z" fill="#67FFBF"/>
<defs>
<filter id="filter0_d_336_2016" x="0" y="7" width="75" height="89.3235" filterUnits="userSpaceOnUse" color-interpolation-filters="sRGB">
<feFlood flood-opacity="0" result="BackgroundImageFix"/>
<feColorMatrix in="SourceAlpha" type="matrix" values="0 0 0 0 0 0 0 0 0 0 0 0 0 0 0 0 0 0 127 0" result="hardAlpha"/>
<feOffset dy="5"/>
<feGaussianBlur stdDeviation="4"/>
<feComposite in2="hardAlpha" operator="out"/>
<feColorMatrix type="matrix" values="0 0 0 0 0 0 0 0 0 0 0 0 0 0 0 0 0 0 0.25 0"/>
<feBlend mode="normal" in2="BackgroundImageFix" result="effect1_dropShadow_336_2016"/>
<feBlend mode="normal" in="SourceGraphic" in2="effect1_dropShadow_336_2016" result="shape"/>
</filter>
<filter id="filter1_d_336_2016" x="47.7714" y="0" width="43.4571" height="43.4571" filterUnits="userSpaceOnUse" color-interpolation-filters="sRGB">
<feFlood flood-opacity="0" result="BackgroundImageFix"/>
<feColorMatrix in="SourceAlpha" type="matrix" values="0 0 0 0 0 0 0 0 0 0 0 0 0 0 0 0 0 0 127 0" result="hardAlpha"/>
<feOffset dy="2.22857"/>
<feGaussianBlur stdDeviation="1.11429"/>
<feComposite in2="hardAlpha" operator="out"/>
<feColorMatrix type="matrix" values="0 0 0 0 0 0 0 0 0 0 0 0 0 0 0 0 0 0 0.25 0"/>
<feBlend mode="normal" in2="BackgroundImageFix" result="effect1_dropShadow_336_2016"/>
<feBlend mode="normal" in="SourceGraphic" in2="effect1_dropShadow_336_2016" result="shape"/>
</filter>
<clipPath id="clip0_336_2016">
<rect width="40" height="40" fill="white" transform="translate(23.8579 15.5051) rotate(15)"/>
</clipPath>
</defs>
</svg>
