<svg width="75" height="90" viewBox="0 0 75 90" fill="none" xmlns="http://www.w3.org/2000/svg">
<g filter="url(#filter0_d_759_2454)">
<path d="M37.0463 74.3235L18.8971 52.7206L56.1029 52.7206L37.0463 74.3235Z" fill="#008FDF"/>
<path d="M65 32.5C65 47.6878 52.6878 60 37.5 60C22.3122 60 10 47.6878 10 32.5C10 17.3122 22.3122 5 37.5 5C52.6878 5 65 17.3122 65 32.5Z" fill="white"/>
<path d="M37.0463 74.3235L18.8971 52.7206L56.1029 52.7206L37.0463 74.3235Z" stroke="white" stroke-width="4" stroke-linejoin="round"/>
<path d="M65 32.5C65 47.6878 52.6878 60 37.5 60C22.3122 60 10 47.6878 10 32.5C10 17.3122 22.3122 5 37.5 5C52.6878 5 65 17.3122 65 32.5Z" stroke="white" stroke-width="4" stroke-linejoin="round"/>
</g>
<path d="M37.0464 74.3235L18.8971 52.7205L56.103 52.7205L37.0464 74.3235Z" fill="#FF0000"/>
<path d="M37.5 8.09082C50.9808 8.09082 61.9092 19.0192 61.9092 32.5C61.9092 45.9808 50.9808 56.9092 37.5 56.9092C24.0192 56.9092 13.0908 45.9808 13.0908 32.5C13.0908 19.0192 24.0192 8.09082 37.5 8.09082Z" fill="#FF0000" stroke="#FF0000" stroke-width="6.18182"/>
<ellipse cx="37.853" cy="33" rx="23" ry="23" fill="white"/>
<path d="M38.1452 14.8604C28.4674 14.8604 20.5952 22.7325 20.5952 32.4104C20.5952 42.0882 28.4674 49.9604 38.1452 49.9604C47.8231 49.9604 55.6952 42.0882 55.6952 32.4104C55.6952 22.7325 47.8231 14.8604 38.1452 14.8604ZM38.1452 47.1524C30.0157 47.1524 23.4032 40.5399 23.4032 32.4104C23.4032 24.2808 30.0157 17.6684 38.1452 17.6684C46.2748 17.6684 52.8872 24.2808 52.8872 32.4104C52.8872 40.5399 46.2748 47.1524 38.1452 47.1524ZM43.0124 31.0434H33.3541V22.4186H31.1525V42.6128H33.3541V32.9544H43.0124V42.6128H45.214V22.4186H43.0124V31.0434Z" fill="#FF0000"/>
<defs>
<filter id="filter0_d_759_2454" x="0" y="0" width="75" height="89.3235" filterUnits="userSpaceOnUse" color-interpolation-filters="sRGB">
<feFlood flood-opacity="0" result="BackgroundImageFix"/>
<feColorMatrix in="SourceAlpha" type="matrix" values="0 0 0 0 0 0 0 0 0 0 0 0 0 0 0 0 0 0 127 0" result="hardAlpha"/>
<feOffset dy="5"/>
<feGaussianBlur stdDeviation="4"/>
<feComposite in2="hardAlpha" operator="out"/>
<feColorMatrix type="matrix" values="0 0 0 0 0 0 0 0 0 0 0 0 0 0 0 0 0 0 0.25 0"/>
<feBlend mode="normal" in2="BackgroundImageFix" result="effect1_dropShadow_759_2454"/>
<feBlend mode="normal" in="SourceGraphic" in2="effect1_dropShadow_759_2454" result="shape"/>
</filter>
</defs>
</svg>
