<svg width="75" height="90" viewBox="0 0 75 90" fill="none" xmlns="http://www.w3.org/2000/svg">
<g filter="url(#filter0_d_578_3194)">
<path d="M37.0463 74.3235L18.8971 52.7206L56.1029 52.7206L37.0463 74.3235Z" fill="#008FDF"/>
<path d="M65 32.5C65 47.6878 52.6878 60 37.5 60C22.3122 60 10 47.6878 10 32.5C10 17.3122 22.3122 5 37.5 5C52.6878 5 65 17.3122 65 32.5Z" fill="white"/>
<path d="M37.0463 74.3235L18.8971 52.7206L56.1029 52.7206L37.0463 74.3235Z" stroke="white" stroke-width="4" stroke-linejoin="round"/>
<path d="M65 32.5C65 47.6878 52.6878 60 37.5 60C22.3122 60 10 47.6878 10 32.5C10 17.3122 22.3122 5 37.5 5C52.6878 5 65 17.3122 65 32.5Z" stroke="white" stroke-width="4" stroke-linejoin="round"/>
</g>
<path d="M37.0464 74.3235L18.8971 52.7205L56.103 52.7205L37.0464 74.3235Z" fill="#008FDF"/>
<path d="M37.5 8.09082C50.9808 8.09082 61.9092 19.0192 61.9092 32.5C61.9092 45.9808 50.9808 56.9092 37.5 56.9092C24.0192 56.9092 13.0908 45.9808 13.0908 32.5C13.0908 19.0192 24.0192 8.09082 37.5 8.09082Z" fill="#008FDF" stroke="#008FDF" stroke-width="6.18182"/>
<ellipse cx="37.853" cy="33" rx="23" ry="23" fill="white"/>
<path d="M38.1978 31.0007C35.2279 31.0007 32.3146 30.601 30.7605 29.7859C30.4153 29.6045 30.2808 29.1775 30.4621 28.8323C30.6435 28.4872 31.0705 28.3526 31.4157 28.534C34.2607 30.0277 42.9714 29.9146 45.756 28.3487C46.0972 28.1576 46.5282 28.2785 46.7193 28.6178C46.9104 28.9591 46.7895 29.39 46.4502 29.5811C44.781 30.5191 41.4543 31.0007 38.1978 31.0007Z" fill="#008FDF"/>
<path d="M31.6752 27.0149C31.6518 27.0149 31.6265 27.0149 31.6011 27.011C31.2813 26.9701 31.0532 26.6776 31.0941 26.3578C31.7103 21.4321 35.5304 19.369 35.6922 19.2832C35.9789 19.133 36.3318 19.2422 36.482 19.5289C36.6321 19.8136 36.5229 20.1685 36.2382 20.3186C36.0978 20.3927 32.7926 22.2004 32.2544 26.504C32.2173 26.8004 31.9658 27.0169 31.6752 27.0169V27.0149Z" fill="#008FDF"/>
<path d="M45.7148 27.015C45.4242 27.015 45.1727 26.7985 45.1356 26.5021C44.5974 22.1985 41.2922 20.3908 41.1518 20.3167C40.8671 20.1646 40.7579 19.8117 40.91 19.527C41.0601 19.2423 41.4131 19.1331 41.6978 19.2832C41.8596 19.369 45.6797 21.4321 46.2959 26.3578C46.3368 26.6776 46.1087 26.9701 45.7889 27.0111C45.7635 27.015 45.7401 27.015 45.7148 27.015Z" fill="#008FDF"/>
<path d="M38.8901 27.7951C38.5781 27.7951 38.3207 27.5494 38.3051 27.2355C38.1121 22.807 37.9171 19.4784 37.9151 19.4452C37.8956 19.1235 38.1433 18.8466 38.465 18.8271C38.7829 18.8095 39.0637 19.0533 39.0832 19.377C39.0832 19.4101 39.2801 22.7485 39.4732 27.1867C39.4868 27.5104 39.2372 27.7815 38.9135 27.7971C38.9057 27.7971 38.896 27.7971 38.8882 27.7971L38.8901 27.7951Z" fill="#008FDF"/>
<path d="M34.8573 40.0273C34.8573 39.2049 34.1905 38.5361 33.3662 38.5361C32.5418 38.5361 31.875 39.2029 31.875 40.0273C31.875 40.8517 32.5418 41.5184 33.3662 41.5184C34.1905 41.5184 34.8573 40.8517 34.8573 40.0273Z" fill="#008FDF"/>
<path d="M43.3032 41.5184C44.1267 41.5184 44.7943 40.8508 44.7943 40.0273C44.7943 39.2037 44.1267 38.5361 43.3032 38.5361C42.4796 38.5361 41.812 39.2037 41.812 40.0273C41.812 40.8508 42.4796 41.5184 43.3032 41.5184Z" fill="#008FDF"/>
<path d="M35.3844 43.7693C35.1864 43.4319 34.752 43.3187 34.4145 43.5168C34.0771 43.7148 33.964 44.1492 34.162 44.4866C34.9298 45.7919 36.6311 46.6365 38.498 46.6365C40.5044 46.6365 42.2542 45.703 42.9553 44.2603C43.1271 43.9087 42.9796 43.4844 42.628 43.3127C42.2764 43.1409 41.8521 43.2884 41.6804 43.64C41.2217 44.5836 39.9427 45.218 38.498 45.218C37.1443 45.218 35.8936 44.6361 35.3824 43.7673L35.3844 43.7693Z" fill="#008FDF"/>
<path d="M57.9944 29.2658C57.96 28.8819 57.7095 28.5506 57.3498 28.4132L52.0964 26.3926C52.0803 26.3866 52.0621 26.3846 52.0459 26.3785C50.9892 21.4726 46.8653 17.573 41.5997 16.4556C41.4987 14.6533 40.149 13.2188 38.4982 13.2188C36.8474 13.2188 35.4977 14.6533 35.3967 16.4556C30.0989 17.5811 25.9568 21.5231 24.9323 26.4714L19.5719 29.0517C19.2001 29.2295 18.9758 29.6154 19.0021 30.0276C19.0162 30.2478 19.2203 32.2401 21.9864 34.0767C22.4026 34.3535 22.8532 34.6102 23.3402 34.8506C23.0896 34.9597 22.8512 35.1032 22.6289 35.287C21.4894 36.2326 21.0691 37.9521 21.6065 39.4695C21.9036 40.3121 22.926 42.2053 26.1285 42.4721C28.7552 49.457 34.6936 50.6714 38.5002 50.6714C42.3069 50.6714 45.6954 49.4429 47.9765 47.1173C49.203 45.8666 50.1284 44.3208 50.7568 42.4983C50.773 42.4983 50.7871 42.5024 50.8033 42.5024H50.8174C53.2501 42.47 55.0484 41.4699 55.7536 39.7565C56.3699 38.2572 56.0102 36.461 54.8565 35.287C54.5453 34.9698 54.1917 34.7193 53.8119 34.5314C55.1454 33.8565 56.0466 33.1331 56.6527 32.4583C58.0913 30.852 58.0085 29.4214 57.9944 29.2638V29.2658ZM38.5002 15.2393C38.9569 15.2393 39.3569 15.6313 39.5166 16.1667C39.1812 16.1445 38.8417 16.1283 38.5002 16.1283C38.1588 16.1283 37.8193 16.1445 37.4839 16.1667C37.6435 15.6313 38.0436 15.2393 38.5002 15.2393ZM23.5119 38.7967C23.2593 38.0855 23.4351 37.2449 23.9201 36.8428C24.1888 36.6206 24.5202 36.5721 24.9081 36.6953C25.0172 38.0249 25.2112 39.2311 25.4718 40.3262C24.4696 40.0777 23.7766 39.5504 23.5099 38.7987L23.5119 38.7967ZM46.5339 45.7049C44.1436 48.1417 40.8461 48.6529 38.5002 48.6529C33.5863 48.6529 27.6015 46.4727 26.8963 36.1397C29.7473 36.8812 33.2913 37.253 37.5041 37.253C38.0032 37.253 38.5103 37.247 39.0276 37.2369C43.6162 37.1439 47.0895 36.6731 49.7183 36.0084C49.7082 40.2959 48.6413 43.5591 46.5359 45.7049H46.5339ZM53.8846 38.9887C53.5391 39.8252 52.6339 40.3363 51.3125 40.4556C51.5812 39.1463 51.7226 37.7218 51.7368 36.1821C52.3955 36.0831 52.9794 36.2589 53.4158 36.7034C53.9998 37.2995 54.1937 38.237 53.8846 38.9866V38.9887ZM55.0424 31.2278C51.9408 34.4788 43.6506 35.1213 38.9852 35.2163C25.3365 35.4931 22.0349 31.9491 21.253 30.4862L24.6879 28.8314C24.6879 28.8314 24.6879 28.8496 24.6879 28.8597C24.6879 29.4174 25.1405 29.87 25.6981 29.87C26.2558 29.87 26.7084 29.4174 26.7084 28.8597C26.7084 22.9517 31.9982 18.1468 38.5002 18.1468C45.0023 18.1468 50.2921 22.9537 50.2921 28.8597C50.2921 29.4174 50.7447 29.87 51.3024 29.87C51.86 29.87 52.3126 29.4174 52.3126 28.8597C52.3126 28.785 52.3086 28.7122 52.3066 28.6375L55.8506 30.0013C55.7293 30.3206 55.495 30.7489 55.0403 31.2278H55.0424Z" fill="#008FDF"/>
<defs>
<filter id="filter0_d_578_3194" x="0" y="0" width="75" height="89.3235" filterUnits="userSpaceOnUse" color-interpolation-filters="sRGB">
<feFlood flood-opacity="0" result="BackgroundImageFix"/>
<feColorMatrix in="SourceAlpha" type="matrix" values="0 0 0 0 0 0 0 0 0 0 0 0 0 0 0 0 0 0 127 0" result="hardAlpha"/>
<feOffset dy="5"/>
<feGaussianBlur stdDeviation="4"/>
<feComposite in2="hardAlpha" operator="out"/>
<feColorMatrix type="matrix" values="0 0 0 0 0 0 0 0 0 0 0 0 0 0 0 0 0 0 0.25 0"/>
<feBlend mode="normal" in2="BackgroundImageFix" result="effect1_dropShadow_578_3194"/>
<feBlend mode="normal" in="SourceGraphic" in2="effect1_dropShadow_578_3194" result="shape"/>
</filter>
</defs>
</svg>
