<svg width="75" height="90" viewBox="0 0 75 90" fill="none" xmlns="http://www.w3.org/2000/svg">
<g filter="url(#filter0_d_408_1604)">
<path d="M37.0463 74.3235L18.8971 52.7206L56.1029 52.7206L37.0463 74.3235Z" fill="#008FDF"/>
<path d="M65 32.5C65 47.6878 52.6878 60 37.5 60C22.3122 60 10 47.6878 10 32.5C10 17.3122 22.3122 5 37.5 5C52.6878 5 65 17.3122 65 32.5Z" fill="white"/>
<path d="M37.0463 74.3235L18.8971 52.7206L56.1029 52.7206L37.0463 74.3235Z" stroke="white" stroke-width="4" stroke-linejoin="round"/>
<path d="M65 32.5C65 47.6878 52.6878 60 37.5 60C22.3122 60 10 47.6878 10 32.5C10 17.3122 22.3122 5 37.5 5C52.6878 5 65 17.3122 65 32.5Z" stroke="white" stroke-width="4" stroke-linejoin="round"/>
</g>
<path d="M37.0464 74.3235L18.8971 52.7205L56.103 52.7205L37.0464 74.3235Z" fill="#FF0000"/>
<path d="M61.9091 32.5C61.9091 45.9808 50.9808 56.9091 37.5 56.9091C24.0192 56.9091 13.0909 45.9808 13.0909 32.5C13.0909 19.0192 24.0192 8.09091 37.5 8.09091C50.9808 8.09091 61.9091 19.0192 61.9091 32.5Z" fill="#FF0000" stroke="#FF0000" stroke-width="6.18182"/>
<ellipse cx="37.853" cy="33" rx="23" ry="23" fill="white"/>
<path d="M45.3295 29.4319H48.0719C48.9551 29.4319 49.6719 28.7151 49.6719 27.8319C49.6719 26.9487 48.9551 26.2319 48.0719 26.2319H39.5983V23.7023C39.5983 22.8191 38.8815 22.1023 37.9983 22.1023C37.1151 22.1023 36.3983 22.8191 36.3983 23.7023V26.2319H27.9247C27.0415 26.2319 26.3247 26.9487 26.3247 27.8319C26.3247 28.7151 27.0415 29.4319 27.9247 29.4319H30.6671C30.6671 29.4319 30.6703 29.4415 30.6719 29.4463C31.7567 32.0575 33.3679 34.4863 35.3967 36.6367L33.5871 38.3087C32.0767 39.2799 30.4335 40.1215 28.6847 40.8079C27.8623 41.1311 27.4575 42.0591 27.7807 42.8815C28.0287 43.5119 28.6319 43.8975 29.2703 43.8975C29.4655 43.8975 29.6623 43.8623 29.8543 43.7871C32.8831 42.5983 35.6319 40.9855 37.9967 39.0543C40.3615 40.9855 43.1103 42.5983 46.1391 43.7871C46.3311 43.8623 46.5295 43.8975 46.7231 43.8975C47.3615 43.8975 47.9647 43.5119 48.2127 42.8815C48.5359 42.0591 48.1311 41.1311 47.3087 40.8079C45.5599 40.1215 43.9167 39.2799 42.4063 38.3087L40.5967 36.6367C42.6255 34.4863 44.2367 32.0575 45.3215 29.4463C45.3231 29.4415 45.3247 29.4367 45.3263 29.4319H45.3295ZM39.9823 32.4031L37.9999 34.2351L36.0175 32.4031C35.3167 31.4543 34.7039 30.4623 34.1871 29.4319H41.8111C41.2959 30.4623 40.6815 31.4543 39.9807 32.4031H39.9823Z" fill="#FF0000"/>
<defs>
<filter id="filter0_d_408_1604" x="0" y="0" width="75" height="89.3235" filterUnits="userSpaceOnUse" color-interpolation-filters="sRGB">
<feFlood flood-opacity="0" result="BackgroundImageFix"/>
<feColorMatrix in="SourceAlpha" type="matrix" values="0 0 0 0 0 0 0 0 0 0 0 0 0 0 0 0 0 0 127 0" result="hardAlpha"/>
<feOffset dy="5"/>
<feGaussianBlur stdDeviation="4"/>
<feComposite in2="hardAlpha" operator="out"/>
<feColorMatrix type="matrix" values="0 0 0 0 0 0 0 0 0 0 0 0 0 0 0 0 0 0 0.25 0"/>
<feBlend mode="normal" in2="BackgroundImageFix" result="effect1_dropShadow_408_1604"/>
<feBlend mode="normal" in="SourceGraphic" in2="effect1_dropShadow_408_1604" result="shape"/>
</filter>
</defs>
</svg>
