<svg width="66" height="91" viewBox="0 0 66 91" fill="none" xmlns="http://www.w3.org/2000/svg">
<g filter="url(#filter0_d_47_1171)">
<path d="M32.9767 1C17.5212 1 5 13.8376 5 29.3454C5 44.8443 24.6234 81.2 32.9767 81.2C41.3301 81.2 60.9535 44.8443 60.9535 29.3454C60.9535 13.8376 48.4234 1 32.9767 1Z" fill="#008FDF"/>
<path d="M32.9767 1C17.5212 1 5 13.8376 5 29.3454C5 44.8443 24.6234 81.2 32.9767 81.2C41.3301 81.2 60.9535 44.8443 60.9535 29.3454C60.9535 13.8376 48.4234 1 32.9767 1Z" stroke="white" stroke-width="2"/>
</g>
<path d="M10 29C10 41.7025 20.2975 52 33 52C45.7025 52 56 41.7025 56 29C56 16.2975 45.7025 6 33 6C20.2975 6 10 16.2975 10 29Z" fill="white"/>
<path d="M42.162 24.5401H45.59C46.694 24.5401 47.59 23.6441 47.59 22.5401C47.59 21.4361 46.694 20.5401 45.59 20.5401H34.998V17.3781C34.998 16.2741 34.102 15.3781 32.998 15.3781C31.894 15.3781 30.998 16.2741 30.998 17.3781V20.5401H20.406C19.302 20.5401 18.406 21.4361 18.406 22.5401C18.406 23.6441 19.302 24.5401 20.406 24.5401H23.834C23.834 24.5401 23.838 24.5521 23.84 24.5581C25.196 27.8221 27.21 30.8581 29.746 33.5461L27.484 35.6361C25.596 36.8501 23.542 37.9021 21.356 38.7601C20.328 39.1641 19.822 40.3241 20.226 41.3521C20.536 42.1401 21.29 42.6221 22.088 42.6221C22.332 42.6221 22.578 42.5781 22.818 42.4841C26.604 40.9981 30.04 38.9821 32.996 36.5681C35.952 38.9821 39.388 40.9981 43.174 42.4841C43.414 42.5781 43.662 42.6221 43.904 42.6221C44.702 42.6221 45.456 42.1401 45.766 41.3521C46.17 40.3241 45.664 39.1641 44.636 38.7601C42.45 37.9021 40.396 36.8501 38.508 35.6361L36.246 33.5461C38.782 30.8581 40.796 27.8221 42.152 24.5581C42.154 24.5521 42.156 24.5461 42.158 24.5401H42.162ZM35.478 28.2541L33 30.5441L30.522 28.2541C29.646 27.0681 28.88 25.8281 28.234 24.5401H37.764C37.12 25.8281 36.352 27.0681 35.476 28.2541H35.478Z" fill="#008FDF"/>
<defs>
<filter id="filter0_d_47_1171" x="0" y="0" width="65.9536" height="90.2" filterUnits="userSpaceOnUse" color-interpolation-filters="sRGB">
<feFlood flood-opacity="0" result="BackgroundImageFix"/>
<feColorMatrix in="SourceAlpha" type="matrix" values="0 0 0 0 0 0 0 0 0 0 0 0 0 0 0 0 0 0 127 0" result="hardAlpha"/>
<feOffset dy="4"/>
<feGaussianBlur stdDeviation="2"/>
<feComposite in2="hardAlpha" operator="out"/>
<feColorMatrix type="matrix" values="0 0 0 0 0 0 0 0 0 0 0 0 0 0 0 0 0 0 0.25 0"/>
<feBlend mode="normal" in2="BackgroundImageFix" result="effect1_dropShadow_47_1171"/>
<feBlend mode="normal" in="SourceGraphic" in2="effect1_dropShadow_47_1171" result="shape"/>
</filter>
</defs>
</svg>
