<svg width="75" height="90" viewBox="0 0 75 90" fill="none" xmlns="http://www.w3.org/2000/svg">
<g filter="url(#filter0_d_408_1424)">
<path d="M37.0463 74.3235L18.8971 52.7206L56.1029 52.7206L37.0463 74.3235Z" fill="#008FDF"/>
<path d="M65 32.5C65 47.6878 52.6878 60 37.5 60C22.3122 60 10 47.6878 10 32.5C10 17.3122 22.3122 5 37.5 5C52.6878 5 65 17.3122 65 32.5Z" fill="white"/>
<path d="M37.0463 74.3235L18.8971 52.7206L56.1029 52.7206L37.0463 74.3235Z" stroke="white" stroke-width="4" stroke-linejoin="round"/>
<path d="M65 32.5C65 47.6878 52.6878 60 37.5 60C22.3122 60 10 47.6878 10 32.5C10 17.3122 22.3122 5 37.5 5C52.6878 5 65 17.3122 65 32.5Z" stroke="white" stroke-width="4" stroke-linejoin="round"/>
</g>
<path d="M37.0464 74.3235L18.8971 52.7205L56.103 52.7205L37.0464 74.3235Z" fill="#008FDF"/>
<path d="M61.9091 32.5C61.9091 45.9808 50.9808 56.9091 37.5 56.9091C24.0192 56.9091 13.0909 45.9808 13.0909 32.5C13.0909 19.0192 24.0192 8.09091 37.5 8.09091C50.9808 8.09091 61.9091 19.0192 61.9091 32.5Z" fill="#008FDF" stroke="#008FDF" stroke-width="6.18182"/>
<ellipse cx="37.853" cy="33" rx="23" ry="23" fill="white"/>
<g clip-path="url(#clip0_408_1424)">
<path d="M46.3833 24.9448C48.5772 24.9448 50.3557 23.1663 50.3557 20.9724C50.3557 18.7785 48.5772 17 46.3833 17C44.1894 17 42.4109 18.7785 42.4109 20.9724C42.4109 23.1663 44.1894 24.9448 46.3833 24.9448Z" fill="#008FDF"/>
<path d="M49.3978 28.7649C49.1263 27.9991 48.237 27.3723 47.4226 27.3723H45.3415C44.5272 27.3723 43.64 27.9991 43.3663 28.7649L39.416 39.881C39.1445 40.6468 39.5859 41.2736 40.4003 41.2736H52.3638C53.1782 41.2736 53.6196 40.6468 53.3481 39.881L49.3978 28.7649Z" fill="#008FDF"/>
<path d="M46.7233 38.6277H46.0435C45.0136 38.6277 44.1787 39.4626 44.1787 40.4925V47.1353C44.1787 48.1652 45.0136 49.0001 46.0435 49.0001H46.7233C47.7532 49.0001 48.5881 48.1652 48.5881 47.1353V40.4925C48.5881 39.4626 47.7532 38.6277 46.7233 38.6277Z" fill="#008FDF"/>
<path d="M29.6108 24.9448C31.8047 24.9448 33.5833 23.1663 33.5833 20.9724C33.5833 18.7785 31.8047 17 29.6108 17C27.4169 17 25.6384 18.7785 25.6384 20.9724C25.6384 23.1663 27.4169 24.9448 29.6108 24.9448Z" fill="#008FDF"/>
<path d="M26.5786 38.8482C26.8589 39.5765 27.7284 40.1723 28.5096 40.1723H30.7099C31.4911 40.1723 32.3584 39.5765 32.6409 38.8482L36.5604 28.6965C36.8407 27.9682 36.4324 27.3723 35.6533 27.3723H23.5684C22.7871 27.3723 22.3789 27.9682 22.6613 28.6965L26.5808 38.8482H26.5786Z" fill="#008FDF"/>
<path d="M31.8134 46.7402C31.8134 47.9827 30.8225 49 29.6087 49C28.3949 49 27.4041 47.9827 27.4041 46.7402V36.0345C27.4041 34.792 28.3949 33.7747 29.6087 33.7747C30.8225 33.7747 31.8134 34.792 31.8134 36.0345V46.7402Z" fill="#008FDF"/>
</g>
<defs>
<filter id="filter0_d_408_1424" x="0" y="0" width="75" height="89.3235" filterUnits="userSpaceOnUse" color-interpolation-filters="sRGB">
<feFlood flood-opacity="0" result="BackgroundImageFix"/>
<feColorMatrix in="SourceAlpha" type="matrix" values="0 0 0 0 0 0 0 0 0 0 0 0 0 0 0 0 0 0 127 0" result="hardAlpha"/>
<feOffset dy="5"/>
<feGaussianBlur stdDeviation="4"/>
<feComposite in2="hardAlpha" operator="out"/>
<feColorMatrix type="matrix" values="0 0 0 0 0 0 0 0 0 0 0 0 0 0 0 0 0 0 0.25 0"/>
<feBlend mode="normal" in2="BackgroundImageFix" result="effect1_dropShadow_408_1424"/>
<feBlend mode="normal" in="SourceGraphic" in2="effect1_dropShadow_408_1424" result="shape"/>
</filter>
<clipPath id="clip0_408_1424">
<rect width="32" height="32" fill="white" transform="translate(22 17)"/>
</clipPath>
</defs>
</svg>
