<svg width="75" height="90" viewBox="0 0 75 90" fill="none" xmlns="http://www.w3.org/2000/svg">
<g filter="url(#filter0_d_416_1574)">
<path d="M37.0463 74.3235L18.8971 52.7206L56.1029 52.7206L37.0463 74.3235Z" fill="#008FDF"/>
<path d="M65 32.5C65 47.6878 52.6878 60 37.5 60C22.3122 60 10 47.6878 10 32.5C10 17.3122 22.3122 5 37.5 5C52.6878 5 65 17.3122 65 32.5Z" fill="white"/>
<path d="M37.0463 74.3235L18.8971 52.7206L56.1029 52.7206L37.0463 74.3235Z" stroke="white" stroke-width="4" stroke-linejoin="round"/>
<path d="M65 32.5C65 47.6878 52.6878 60 37.5 60C22.3122 60 10 47.6878 10 32.5C10 17.3122 22.3122 5 37.5 5C52.6878 5 65 17.3122 65 32.5Z" stroke="white" stroke-width="4" stroke-linejoin="round"/>
</g>
<path d="M37.0464 74.3237L18.8971 52.7208L56.103 52.7208L37.0464 74.3237Z" fill="#FF6B00"/>
<path d="M61.9091 32.5C61.9091 45.9808 50.9808 56.9091 37.5 56.9091C24.0192 56.9091 13.0909 45.9808 13.0909 32.5C13.0909 19.0192 24.0192 8.09091 37.5 8.09091C50.9808 8.09091 61.9091 19.0192 61.9091 32.5Z" fill="#FF6B00" stroke="#FF6B00" stroke-width="6.18182"/>
<ellipse cx="37.853" cy="33" rx="23" ry="23" fill="white"/>
<path d="M24.301 17V49H36.1166V43.7088H40.9288V49H51.6987V17H24.301Z" fill="#FF6B00"/>
<path d="M32.4681 21.688H29.8469V24.3091H32.4681V21.688Z" fill="#FF6B00"/>
<path d="M39.282 21.688H36.6609V24.3091H39.282V21.688Z" fill="#FF6B00"/>
<path d="M46.0958 21.688H43.4746V24.3091H46.0958V21.688Z" fill="#FF6B00"/>
<path d="M32.4681 26.9282H29.8469V29.5494H32.4681V26.9282Z" fill="white"/>
<path d="M39.282 26.9282H36.6609V29.5494H39.282V26.9282Z" fill="white"/>
<path d="M46.0958 26.9282H43.4746V29.5494H46.0958V26.9282Z" fill="white"/>
<path d="M32.4681 32.1704H29.8469V34.7916H32.4681V32.1704Z" fill="white"/>
<path d="M39.282 32.1704H36.6609V34.7916H39.282V32.1704Z" fill="white"/>
<path d="M46.0958 32.1704H43.4746V34.7916H46.0958V32.1704Z" fill="white"/>
<path d="M32.4681 37.4106H29.8469V40.0318H32.4681V37.4106Z" fill="white"/>
<path d="M39.282 37.4106H36.6609V40.0318H39.282V37.4106Z" fill="white"/>
<path d="M46.0958 37.4106H43.4746V40.0318H46.0958V37.4106Z" fill="white"/>
<defs>
<filter id="filter0_d_416_1574" x="0" y="0" width="75" height="89.3237" filterUnits="userSpaceOnUse" color-interpolation-filters="sRGB">
<feFlood flood-opacity="0" result="BackgroundImageFix"/>
<feColorMatrix in="SourceAlpha" type="matrix" values="0 0 0 0 0 0 0 0 0 0 0 0 0 0 0 0 0 0 127 0" result="hardAlpha"/>
<feOffset dy="5"/>
<feGaussianBlur stdDeviation="4"/>
<feComposite in2="hardAlpha" operator="out"/>
<feColorMatrix type="matrix" values="0 0 0 0 0 0 0 0 0 0 0 0 0 0 0 0 0 0 0.25 0"/>
<feBlend mode="normal" in2="BackgroundImageFix" result="effect1_dropShadow_416_1574"/>
<feBlend mode="normal" in="SourceGraphic" in2="effect1_dropShadow_416_1574" result="shape"/>
</filter>
</defs>
</svg>
