<svg width="66" height="91" viewBox="0 0 66 91" fill="none" xmlns="http://www.w3.org/2000/svg">
<g filter="url(#filter0_d_47_1183)">
<path d="M32.9767 1C17.5212 1 5 13.8376 5 29.3454C5 44.8443 24.6234 81.2 32.9767 81.2C41.3301 81.2 60.9535 44.8443 60.9535 29.3454C60.9535 13.8376 48.4234 1 32.9767 1Z" fill="#00A560"/>
<path d="M32.9767 1C17.5212 1 5 13.8376 5 29.3454C5 44.8443 24.6234 81.2 32.9767 81.2C41.3301 81.2 60.9535 44.8443 60.9535 29.3454C60.9535 13.8376 48.4234 1 32.9767 1Z" stroke="white" stroke-width="2"/>
</g>
<path d="M10 29C10 41.7025 20.2975 52 33 52C45.7025 52 56 41.7025 56 29C56 16.2975 45.7025 6 33 6C20.2975 6 10 16.2975 10 29Z" fill="white"/>
<path d="M47.538 25.602L35.496 16.284C34.124 15.222 31.88 15.222 30.508 16.284L18.466 25.602C17.094 26.664 17.39 27.532 19.126 27.532H23.092V42.514H30.244V33.278H34.862V42.514H42.014V27.532H46.88C48.614 27.532 48.912 26.664 47.54 25.602H47.538Z" fill="#00A560"/>
<defs>
<filter id="filter0_d_47_1183" x="0" y="0" width="65.9535" height="90.2" filterUnits="userSpaceOnUse" color-interpolation-filters="sRGB">
<feFlood flood-opacity="0" result="BackgroundImageFix"/>
<feColorMatrix in="SourceAlpha" type="matrix" values="0 0 0 0 0 0 0 0 0 0 0 0 0 0 0 0 0 0 127 0" result="hardAlpha"/>
<feOffset dy="4"/>
<feGaussianBlur stdDeviation="2"/>
<feComposite in2="hardAlpha" operator="out"/>
<feColorMatrix type="matrix" values="0 0 0 0 0 0 0 0 0 0 0 0 0 0 0 0 0 0 0.25 0"/>
<feBlend mode="normal" in2="BackgroundImageFix" result="effect1_dropShadow_47_1183"/>
<feBlend mode="normal" in="SourceGraphic" in2="effect1_dropShadow_47_1183" result="shape"/>
</filter>
</defs>
</svg>
