<svg width="75" height="90" viewBox="0 0 75 90" fill="none" xmlns="http://www.w3.org/2000/svg">
<g filter="url(#filter0_d_463_2711)">
<path d="M37.0463 74.3235L18.8971 52.7206L56.1029 52.7206L37.0463 74.3235Z" fill="#008FDF"/>
<path d="M65 32.5C65 47.6878 52.6878 60 37.5 60C22.3122 60 10 47.6878 10 32.5C10 17.3122 22.3122 5 37.5 5C52.6878 5 65 17.3122 65 32.5Z" fill="white"/>
<path d="M37.0463 74.3235L18.8971 52.7206L56.1029 52.7206L37.0463 74.3235Z" stroke="white" stroke-width="4" stroke-linejoin="round"/>
<path d="M65 32.5C65 47.6878 52.6878 60 37.5 60C22.3122 60 10 47.6878 10 32.5C10 17.3122 22.3122 5 37.5 5C52.6878 5 65 17.3122 65 32.5Z" stroke="white" stroke-width="4" stroke-linejoin="round"/>
</g>
<path d="M37.0464 74.3235L18.8971 52.7205L56.103 52.7205L37.0464 74.3235Z" fill="#FF0000"/>
<path d="M61.9091 32.5C61.9091 45.9808 50.9808 56.9091 37.5 56.9091C24.0192 56.9091 13.0909 45.9808 13.0909 32.5C13.0909 19.0192 24.0192 8.09091 37.5 8.09091C50.9808 8.09091 61.9091 19.0192 61.9091 32.5Z" fill="#FF0000" stroke="#FF0000" stroke-width="6.18182"/>
<ellipse cx="37.853" cy="33" rx="23" ry="23" fill="white"/>
<path d="M25.1572 18V48H36.2343V43.0395H40.7458V48H50.8426V18H25.1572Z" fill="#FF0000"/>
<path d="M32.8138 22.395H30.3564V24.8523H32.8138V22.395Z" fill="white"/>
<path d="M39.202 22.395H36.7446V24.8523H39.202V22.395Z" fill="white"/>
<path d="M45.5896 22.395H43.1323V24.8523H45.5896V22.395Z" fill="white"/>
<path d="M32.8138 27.3076H30.3564V29.7649H32.8138V27.3076Z" fill="white"/>
<path d="M39.202 27.3076H36.7446V29.7649H39.202V27.3076Z" fill="white"/>
<path d="M45.5896 27.3076H43.1323V29.7649H45.5896V27.3076Z" fill="white"/>
<path d="M32.8138 32.2224H30.3564V34.6797H32.8138V32.2224Z" fill="white"/>
<path d="M39.202 32.2224H36.7446V34.6797H39.202V32.2224Z" fill="white"/>
<path d="M45.5896 32.2224H43.1323V34.6797H45.5896V32.2224Z" fill="white"/>
<path d="M32.8138 37.135H30.3564V39.5923H32.8138V37.135Z" fill="white"/>
<path d="M39.202 37.135H36.7446V39.5923H39.202V37.135Z" fill="white"/>
<path d="M45.5896 37.135H43.1323V39.5923H45.5896V37.135Z" fill="white"/>
<defs>
<filter id="filter0_d_463_2711" x="0" y="0" width="75" height="89.3235" filterUnits="userSpaceOnUse" color-interpolation-filters="sRGB">
<feFlood flood-opacity="0" result="BackgroundImageFix"/>
<feColorMatrix in="SourceAlpha" type="matrix" values="0 0 0 0 0 0 0 0 0 0 0 0 0 0 0 0 0 0 127 0" result="hardAlpha"/>
<feOffset dy="5"/>
<feGaussianBlur stdDeviation="4"/>
<feComposite in2="hardAlpha" operator="out"/>
<feColorMatrix type="matrix" values="0 0 0 0 0 0 0 0 0 0 0 0 0 0 0 0 0 0 0.25 0"/>
<feBlend mode="normal" in2="BackgroundImageFix" result="effect1_dropShadow_463_2711"/>
<feBlend mode="normal" in="SourceGraphic" in2="effect1_dropShadow_463_2711" result="shape"/>
</filter>
</defs>
</svg>
