<svg width="67" height="91" viewBox="0 0 67 91" fill="none" xmlns="http://www.w3.org/2000/svg">
<g filter="url(#filter0_d_6_308)">
<path d="M33.1371 1C17.6816 1 5.1604 13.8376 5.1604 29.3454C5.1604 44.8443 24.7838 81.2 33.1371 81.2C41.4905 81.2 61.1139 44.8443 61.1139 29.3454C61.1139 13.8376 48.5838 1 33.1371 1Z" fill="#00A560"/>
<path d="M33.1371 1C17.6816 1 5.1604 13.8376 5.1604 29.3454C5.1604 44.8443 24.7838 81.2 33.1371 81.2C41.4905 81.2 61.1139 44.8443 61.1139 29.3454C61.1139 13.8376 48.5838 1 33.1371 1Z" stroke="white" stroke-width="2"/>
</g>
<path d="M10.1604 29C10.1604 41.7025 20.4579 52 33.1604 52C45.8629 52 56.1604 41.7025 56.1604 29C56.1604 16.2975 45.8629 6 33.1604 6C20.4579 6 10.1604 16.2975 10.1604 29Z" fill="white"/>
<path d="M35.345 35.3381H34.5306C33.8617 35.3381 33.32 34.7964 33.32 34.1275V24.8757C33.32 24.205 33.8635 23.6633 34.5324 23.6633H35.3432V15.0011H34.2394C34.1749 15.0011 34.1104 15.0067 34.0478 15.014C33.9944 15.0067 33.9354 15.003 33.8727 15.0011C26.2701 14.7911 26.2425 43.7773 33.8727 43.9984C33.9372 44.0002 33.9944 43.9929 34.0478 43.9855C34.1104 43.9929 34.1749 43.9984 34.2394 43.9984H35.3432V35.3381H35.345Z" fill="#00A560"/>
<path d="M36.7967 15.001H35.9436V23.6613H36.7967C37.6572 23.6613 38.3593 22.9574 38.3593 22.0987V16.5635C38.3593 15.703 37.6554 15.001 36.7967 15.001Z" fill="#00A560"/>
<path d="M36.5194 43.4224V35.9137H36.7967C37.3378 35.9137 37.7835 36.3584 37.7835 36.9004V42.4356C37.7835 42.9767 37.3388 43.4224 36.7967 43.4224H36.5194Z" fill="#00A560" stroke="#00A560" stroke-width="1.15164"/>
<defs>
<filter id="filter0_d_6_308" x="0.1604" y="0" width="65.9535" height="90.2" filterUnits="userSpaceOnUse" color-interpolation-filters="sRGB">
<feFlood flood-opacity="0" result="BackgroundImageFix"/>
<feColorMatrix in="SourceAlpha" type="matrix" values="0 0 0 0 0 0 0 0 0 0 0 0 0 0 0 0 0 0 127 0" result="hardAlpha"/>
<feOffset dy="4"/>
<feGaussianBlur stdDeviation="2"/>
<feComposite in2="hardAlpha" operator="out"/>
<feColorMatrix type="matrix" values="0 0 0 0 0 0 0 0 0 0 0 0 0 0 0 0 0 0 0.25 0"/>
<feBlend mode="normal" in2="BackgroundImageFix" result="effect1_dropShadow_6_308"/>
<feBlend mode="normal" in="SourceGraphic" in2="effect1_dropShadow_6_308" result="shape"/>
</filter>
</defs>
</svg>
