<svg width="75" height="90" viewBox="0 0 75 90" fill="none" xmlns="http://www.w3.org/2000/svg">
<g filter="url(#filter0_d_463_2340)">
<path d="M37.0463 74.3235L18.8971 52.7206L56.1029 52.7206L37.0463 74.3235Z" fill="#008FDF"/>
<path d="M65 32.5C65 47.6878 52.6878 60 37.5 60C22.3122 60 10 47.6878 10 32.5C10 17.3122 22.3122 5 37.5 5C52.6878 5 65 17.3122 65 32.5Z" fill="white"/>
<path d="M37.0463 74.3235L18.8971 52.7206L56.1029 52.7206L37.0463 74.3235Z" stroke="white" stroke-width="4" stroke-linejoin="round"/>
<path d="M65 32.5C65 47.6878 52.6878 60 37.5 60C22.3122 60 10 47.6878 10 32.5C10 17.3122 22.3122 5 37.5 5C52.6878 5 65 17.3122 65 32.5Z" stroke="white" stroke-width="4" stroke-linejoin="round"/>
</g>
<path d="M37.0464 74.3235L18.8971 52.7205L56.103 52.7205L37.0464 74.3235Z" fill="#00A560"/>
<path d="M61.9091 32.5C61.9091 45.9808 50.9808 56.9091 37.5 56.9091C24.0192 56.9091 13.0909 45.9808 13.0909 32.5C13.0909 19.0192 24.0192 8.09091 37.5 8.09091C50.9808 8.09091 61.9091 19.0192 61.9091 32.5Z" fill="#00A560" stroke="#00A560" stroke-width="6.18182"/>
<ellipse cx="37.853" cy="33" rx="23" ry="23" fill="white"/>
<path d="M40.1846 39.3381H39.3702C38.7013 39.3381 38.1596 38.7964 38.1596 38.1275V28.8757C38.1596 28.205 38.7031 27.6633 39.372 27.6633H40.1828V19.0011H39.079C39.0145 19.0011 38.95 19.0067 38.8874 19.014C38.834 19.0067 38.775 19.003 38.7123 19.0011C31.1097 18.7911 31.0821 47.7773 38.7123 47.9984C38.7768 48.0002 38.834 47.9929 38.8874 47.9855C38.95 47.9929 39.0145 47.9984 39.079 47.9984H40.1828V39.3381H40.1846Z" fill="#00A560"/>
<path d="M41.6363 19.001H40.7832V27.6613H41.6363C42.4968 27.6613 43.1989 26.9574 43.1989 26.0987V20.5635C43.1989 19.703 42.495 19.001 41.6363 19.001Z" fill="#00A560"/>
<path d="M41.6363 39.3379H40.7832V47.9982H41.6363C42.4968 47.9982 43.1989 47.2943 43.1989 46.4356V40.9004C43.1989 40.0399 42.495 39.3379 41.6363 39.3379Z" fill="#00A560"/>
<defs>
<filter id="filter0_d_463_2340" x="0" y="0" width="75" height="89.3235" filterUnits="userSpaceOnUse" color-interpolation-filters="sRGB">
<feFlood flood-opacity="0" result="BackgroundImageFix"/>
<feColorMatrix in="SourceAlpha" type="matrix" values="0 0 0 0 0 0 0 0 0 0 0 0 0 0 0 0 0 0 127 0" result="hardAlpha"/>
<feOffset dy="5"/>
<feGaussianBlur stdDeviation="4"/>
<feComposite in2="hardAlpha" operator="out"/>
<feColorMatrix type="matrix" values="0 0 0 0 0 0 0 0 0 0 0 0 0 0 0 0 0 0 0.25 0"/>
<feBlend mode="normal" in2="BackgroundImageFix" result="effect1_dropShadow_463_2340"/>
<feBlend mode="normal" in="SourceGraphic" in2="effect1_dropShadow_463_2340" result="shape"/>
</filter>
</defs>
</svg>
