<svg width="67" height="91" viewBox="0 0 67 91" fill="none" xmlns="http://www.w3.org/2000/svg">
<g filter="url(#filter0_d_16_379)">
<path d="M33.0837 1C17.6282 1 5.10693 13.8376 5.10693 29.3454C5.10693 44.8443 24.7303 81.2 33.0837 81.2C41.4371 81.2 61.0604 44.8443 61.0604 29.3454C61.0604 13.8376 48.5304 1 33.0837 1Z" fill="#008FDF"/>
<path d="M33.0837 1C17.6282 1 5.10693 13.8376 5.10693 29.3454C5.10693 44.8443 24.7303 81.2 33.0837 81.2C41.4371 81.2 61.0604 44.8443 61.0604 29.3454C61.0604 13.8376 48.5304 1 33.0837 1Z" stroke="white" stroke-width="2"/>
</g>
<path d="M10.1069 29C10.1069 41.7025 20.4044 52 33.1069 52C45.8095 52 56.1069 41.7025 56.1069 29C56.1069 16.2975 45.8095 6 33.1069 6C20.4044 6 10.1069 16.2975 10.1069 29Z" fill="white"/>
<g clip-path="url(#clip0_16_379)">
<path d="M41.4902 20.9448C43.6841 20.9448 45.4626 19.1663 45.4626 16.9724C45.4626 14.7785 43.6841 13 41.4902 13C39.2963 13 37.5178 14.7785 37.5178 16.9724C37.5178 19.1663 39.2963 20.9448 41.4902 20.9448Z" fill="#008FDF"/>
<path d="M44.5048 24.765C44.2333 23.9992 43.3439 23.3724 42.5296 23.3724H40.4485C39.6342 23.3724 38.747 23.9992 38.4733 24.765L34.523 35.8811C34.2515 36.6469 34.6929 37.2737 35.5073 37.2737H47.4708C48.2852 37.2737 48.7266 36.6469 48.4551 35.8811L44.5048 24.765Z" fill="#008FDF"/>
<path d="M41.83 34.6276H41.1503C40.1204 34.6276 39.2855 35.4625 39.2855 36.4924V43.1351C39.2855 44.1651 40.1204 45 41.1503 45H41.83C42.8599 45 43.6948 44.1651 43.6948 43.1351V36.4924C43.6948 35.4625 42.8599 34.6276 41.83 34.6276Z" fill="#008FDF"/>
<path d="M24.7177 20.9448C26.9116 20.9448 28.6901 19.1663 28.6901 16.9724C28.6901 14.7785 26.9116 13 24.7177 13C22.5238 13 20.7453 14.7785 20.7453 16.9724C20.7453 19.1663 22.5238 20.9448 24.7177 20.9448Z" fill="#008FDF"/>
<path d="M21.6855 34.8483C21.9657 35.5766 22.8353 36.1724 23.6165 36.1724H25.8168C26.598 36.1724 27.4653 35.5766 27.7478 34.8483L31.6673 24.6966C31.9475 23.9683 31.5393 23.3724 30.7602 23.3724H18.6753C17.894 23.3724 17.4857 23.9683 17.7682 24.6966L21.6877 34.8483H21.6855Z" fill="#008FDF"/>
<path d="M26.9202 42.7402C26.9202 43.9827 25.9293 45 24.7155 45C23.5017 45 22.5108 43.9827 22.5108 42.7402V32.0345C22.5108 30.792 23.5017 29.7747 24.7155 29.7747C25.9293 29.7747 26.9202 30.792 26.9202 32.0345V42.7402Z" fill="#008FDF"/>
</g>
<defs>
<filter id="filter0_d_16_379" x="0.106934" y="0" width="65.9535" height="90.2" filterUnits="userSpaceOnUse" color-interpolation-filters="sRGB">
<feFlood flood-opacity="0" result="BackgroundImageFix"/>
<feColorMatrix in="SourceAlpha" type="matrix" values="0 0 0 0 0 0 0 0 0 0 0 0 0 0 0 0 0 0 127 0" result="hardAlpha"/>
<feOffset dy="4"/>
<feGaussianBlur stdDeviation="2"/>
<feComposite in2="hardAlpha" operator="out"/>
<feColorMatrix type="matrix" values="0 0 0 0 0 0 0 0 0 0 0 0 0 0 0 0 0 0 0.25 0"/>
<feBlend mode="normal" in2="BackgroundImageFix" result="effect1_dropShadow_16_379"/>
<feBlend mode="normal" in="SourceGraphic" in2="effect1_dropShadow_16_379" result="shape"/>
</filter>
<clipPath id="clip0_16_379">
<rect width="32" height="32" fill="white" transform="translate(17.1069 13)"/>
</clipPath>
</defs>
</svg>
