<svg width="75" height="90" viewBox="0 0 75 90" fill="none" xmlns="http://www.w3.org/2000/svg">
<g filter="url(#filter0_d_463_2366)">
<path d="M37.0463 74.3235L18.8971 52.7206L56.1029 52.7206L37.0463 74.3235Z" fill="#008FDF"/>
<path d="M65 32.5C65 47.6878 52.6878 60 37.5 60C22.3122 60 10 47.6878 10 32.5C10 17.3122 22.3122 5 37.5 5C52.6878 5 65 17.3122 65 32.5Z" fill="white"/>
<path d="M37.0463 74.3235L18.8971 52.7206L56.1029 52.7206L37.0463 74.3235Z" stroke="white" stroke-width="4" stroke-linejoin="round"/>
<path d="M65 32.5C65 47.6878 52.6878 60 37.5 60C22.3122 60 10 47.6878 10 32.5C10 17.3122 22.3122 5 37.5 5C52.6878 5 65 17.3122 65 32.5Z" stroke="white" stroke-width="4" stroke-linejoin="round"/>
</g>
<path d="M37.0464 74.3235L18.8971 52.7205L56.103 52.7205L37.0464 74.3235Z" fill="#008FDF"/>
<path d="M61.9091 32.5C61.9091 45.9808 50.9808 56.9091 37.5 56.9091C24.0192 56.9091 13.0909 45.9808 13.0909 32.5C13.0909 19.0192 24.0192 8.09091 37.5 8.09091C50.9808 8.09091 61.9091 19.0192 61.9091 32.5Z" fill="#008FDF" stroke="#008FDF" stroke-width="6.18182"/>
<ellipse cx="37.853" cy="33" rx="23" ry="23" fill="white"/>
<path d="M48.6139 35.4548H29.8041C29.7049 35.4548 29.6092 35.436 29.522 35.4035C26.6509 35.0615 24.5117 33.0318 24.5117 30.6138C24.5117 28.75 25.8181 27.0537 27.8171 26.2551C28.0155 24.6084 28.9132 23.0899 30.3855 21.934C31.9758 20.6874 34.0688 20 36.2798 20C39.5134 20 42.4203 21.4723 43.8618 23.7944C44.0277 23.7808 44.1953 23.7739 44.3629 23.7739C46.8287 23.7739 48.8772 25.2223 49.3269 27.1717C51.4388 27.712 52.9162 29.3399 52.9162 31.2192C52.9162 33.0984 51.3071 34.8683 49.0465 35.33C48.9217 35.4086 48.7746 35.4548 48.6173 35.4548H48.6139ZM30.0059 33.8508H48.3061C48.3642 33.8269 48.4275 33.8081 48.4925 33.7995C50.1238 33.5533 51.3071 32.4675 51.3071 31.2192C51.3071 29.9709 50.1221 28.8833 48.4891 28.6388C48.1111 28.5824 47.8239 28.266 47.8068 27.883C47.7418 26.5031 46.196 25.3796 44.3595 25.3796C44.0944 25.3796 43.8276 25.4035 43.5677 25.4497C43.2189 25.513 42.8701 25.3386 42.7093 25.0205C41.6799 22.9771 39.0961 21.604 36.2781 21.604C32.5418 21.604 29.4467 23.9603 29.38 26.857C29.3715 27.2041 29.1423 27.5051 28.8106 27.606C27.1981 28.0933 26.1157 29.3023 26.1157 30.6138C26.1157 32.2554 27.7316 33.6354 29.8742 33.8269C29.9187 33.8303 29.9631 33.8389 30.0059 33.8491V33.8508Z" fill="#008FDF"/>
<path d="M34.2432 40.5763C34.1115 40.5763 33.9764 40.5387 33.8584 40.4583C33.5455 40.2462 33.4651 39.8205 33.6772 39.5075L35.0161 37.5393C35.2281 37.2264 35.6539 37.1461 35.9668 37.3581C36.2798 37.5701 36.3601 37.9959 36.1481 38.3088L34.8092 40.277C34.6775 40.472 34.4621 40.5763 34.2432 40.5763Z" fill="#008FDF"/>
<path d="M30.0304 46.0837L30.0303 46.0836C29.7433 45.8891 29.6693 45.4983 29.864 45.2109C29.864 45.2109 29.8641 45.2109 29.8641 45.2109L31.9946 42.08L31.9947 42.0799C32.1892 41.7928 32.58 41.7189 32.8674 41.9136C33.1545 42.1081 33.2284 42.4989 33.0337 42.7863C33.0337 42.7863 33.0337 42.7863 33.0337 42.7864L30.9031 45.9172L30.903 45.9174C30.7823 46.0961 30.5848 46.1919 30.3836 46.1919C30.2625 46.1919 30.1386 46.1573 30.0304 46.0837Z" fill="#008FDF" stroke="#008FDF" stroke-width="0.112366"/>
<path d="M36.083 46.2483C35.9514 46.2483 35.8163 46.2107 35.6983 46.1303C35.3854 45.9182 35.305 45.4925 35.517 45.1795L40.7154 37.5393C40.9274 37.2264 41.3532 37.1461 41.6661 37.3581C41.979 37.5701 42.0594 37.9959 41.8474 38.3088L36.649 45.949C36.5174 46.144 36.3019 46.2483 36.083 46.2483Z" fill="#008FDF"/>
<path d="M41.4988 45.7352C41.3671 45.7352 41.232 45.6976 41.1141 45.6172C40.8011 45.4052 40.7208 44.9794 40.9328 44.6665L42.2717 42.6983C42.4837 42.3854 42.9095 42.305 43.2225 42.517C43.5354 42.7291 43.6158 43.1548 43.4037 43.4678L42.0648 45.436C41.9331 45.6309 41.7177 45.7352 41.4988 45.7352Z" fill="#008FDF"/>
<path d="M44.5662 41.2276C44.4345 41.2276 44.2994 41.19 44.1814 41.1096C43.8685 40.8976 43.7881 40.4718 44.0002 40.1588L46.1308 37.0279C46.3429 36.7149 46.7686 36.6346 47.0816 36.8466C47.3945 37.0587 47.4749 37.4844 47.2628 37.7974L45.1322 40.9283C45.0005 41.1233 44.7851 41.2276 44.5662 41.2276Z" fill="#008FDF"/>
<path d="M24.6843 46.2483C24.5527 46.2483 24.4176 46.2107 24.2996 46.1303C23.9867 45.9182 23.9063 45.4925 24.1183 45.1795L29.3167 37.5393C29.5287 37.2264 29.9545 37.1461 30.2674 37.3581C30.5804 37.5701 30.6607 37.9959 30.4487 38.3088L25.2503 45.949C25.1187 46.144 24.9032 46.2483 24.6843 46.2483Z" fill="#008FDF"/>
<path d="M46.7432 46.2483C46.6115 46.2483 46.4764 46.2107 46.3584 46.1303C46.0455 45.9182 45.9651 45.4925 46.1772 45.1795L51.3755 37.5393C51.5876 37.2264 52.0133 37.1461 52.3263 37.3581C52.6392 37.5701 52.7196 37.9959 52.5075 38.3088L47.3092 45.949C47.1775 46.144 46.9621 46.2483 46.7432 46.2483Z" fill="#008FDF"/>
<defs>
<filter id="filter0_d_463_2366" x="0" y="0" width="75" height="89.3235" filterUnits="userSpaceOnUse" color-interpolation-filters="sRGB">
<feFlood flood-opacity="0" result="BackgroundImageFix"/>
<feColorMatrix in="SourceAlpha" type="matrix" values="0 0 0 0 0 0 0 0 0 0 0 0 0 0 0 0 0 0 127 0" result="hardAlpha"/>
<feOffset dy="5"/>
<feGaussianBlur stdDeviation="4"/>
<feComposite in2="hardAlpha" operator="out"/>
<feColorMatrix type="matrix" values="0 0 0 0 0 0 0 0 0 0 0 0 0 0 0 0 0 0 0.25 0"/>
<feBlend mode="normal" in2="BackgroundImageFix" result="effect1_dropShadow_463_2366"/>
<feBlend mode="normal" in="SourceGraphic" in2="effect1_dropShadow_463_2366" result="shape"/>
</filter>
</defs>
</svg>
