<svg width="67" height="91" viewBox="0 0 67 91" fill="none" xmlns="http://www.w3.org/2000/svg">
<g filter="url(#filter0_d_47_1345)">
<path d="M33.3511 1C17.8956 1 5.37439 13.8376 5.37439 29.3454C5.37439 44.8443 24.9978 81.2 33.3511 81.2C41.7045 81.2 61.3279 44.8443 61.3279 29.3454C61.3279 13.8376 48.7978 1 33.3511 1Z" fill="#008FDF"/>
<path d="M33.3511 1C17.8956 1 5.37439 13.8376 5.37439 29.3454C5.37439 44.8443 24.9978 81.2 33.3511 81.2C41.7045 81.2 61.3279 44.8443 61.3279 29.3454C61.3279 13.8376 48.7978 1 33.3511 1Z" stroke="white" stroke-width="2"/>
</g>
<path d="M10.3744 29C10.3744 41.7025 20.6718 52 33.3744 52C46.0769 52 56.3744 41.7025 56.3744 29C56.3744 16.2975 46.0769 6 33.3744 6C20.6718 6 10.3744 16.2975 10.3744 29Z" fill="white"/>
<path d="M43.9881 31.4548H25.1784C25.0792 31.4548 24.9834 31.436 24.8962 31.4035C22.0252 31.0615 19.886 29.0318 19.886 26.6138C19.886 24.75 21.1924 23.0537 23.1914 22.2551C23.3897 20.6084 24.2875 19.0899 25.7598 17.934C27.35 16.6874 29.4431 16 31.6541 16C34.8876 16 37.7946 17.4723 39.2361 19.7944C39.402 19.7808 39.5696 19.7739 39.7371 19.7739C42.2029 19.7739 44.2515 21.2223 44.7012 23.1717C46.813 23.712 48.2905 25.3399 48.2905 27.2192C48.2905 29.0984 46.6814 30.8683 44.4208 31.33C44.2959 31.4086 44.1489 31.4548 43.9916 31.4548H43.9881ZM25.3802 29.8508H43.6804C43.7385 29.8269 43.8018 29.8081 43.8667 29.7995C45.4981 29.5533 46.6814 28.4675 46.6814 27.2192C46.6814 25.9709 45.4964 24.8833 43.8633 24.6388C43.4854 24.5824 43.1981 24.266 43.181 23.883C43.1161 22.5031 41.5702 21.3796 39.7337 21.3796C39.4687 21.3796 39.2019 21.4035 38.942 21.4497C38.5932 21.513 38.2443 21.3386 38.0836 21.0205C37.0542 18.9771 34.4704 17.604 31.6524 17.604C27.9161 17.604 24.821 19.9603 24.7543 22.857C24.7457 23.2041 24.5166 23.5051 24.1849 23.606C22.5724 24.0933 21.4899 25.3023 21.4899 26.6138C21.4899 28.2554 23.1059 29.6354 25.2485 29.8269C25.2929 29.8303 25.3374 29.8389 25.3802 29.8491V29.8508Z" fill="#008FDF"/>
<path d="M29.6175 36.5763C29.4858 36.5763 29.3507 36.5387 29.2327 36.4583C28.9198 36.2462 28.8394 35.8205 29.0514 35.5075L30.3904 33.5393C30.6024 33.2264 31.0282 33.1461 31.3411 33.3581C31.654 33.5701 31.7344 33.9959 31.5224 34.3088L30.1835 36.277C30.0518 36.472 29.8363 36.5763 29.6175 36.5763Z" fill="#008FDF"/>
<path d="M25.7581 42.2481C25.6264 42.2481 25.4913 42.2105 25.3733 42.1301C25.0604 41.9181 24.98 41.4923 25.1921 41.1794L27.3227 38.0484C27.5347 37.7355 27.9605 37.6551 28.2735 37.8671C28.5864 38.0792 28.6668 38.5049 28.4547 38.8179L26.3241 41.9488C26.1924 42.1438 25.977 42.2481 25.7581 42.2481Z" fill="#008FDF"/>
<path d="M31.4573 42.2483C31.3256 42.2483 31.1905 42.2107 31.0726 42.1303C30.7596 41.9182 30.6793 41.4925 30.8913 41.1795L36.0896 33.5393C36.3017 33.2264 36.7275 33.1461 37.0404 33.3581C37.3533 33.5701 37.4337 33.9959 37.2216 34.3088L32.0233 41.949C31.8916 42.144 31.6762 42.2483 31.4573 42.2483Z" fill="#008FDF"/>
<path d="M36.8731 41.7352C36.7414 41.7352 36.6063 41.6976 36.4883 41.6172C36.1754 41.4052 36.095 40.9794 36.3071 40.6665L37.646 38.6983C37.858 38.3854 38.2838 38.305 38.5967 38.517C38.9097 38.7291 38.99 39.1548 38.778 39.4678L37.4391 41.436C37.3074 41.6309 37.0919 41.7352 36.8731 41.7352Z" fill="#008FDF"/>
<path d="M39.9404 37.2276C39.8088 37.2276 39.6737 37.19 39.5557 37.1096C39.2428 36.8976 39.1624 36.4718 39.3744 36.1588L41.5051 33.0279C41.7171 32.7149 42.1429 32.6346 42.4558 32.8466C42.7688 33.0587 42.8491 33.4844 42.6371 33.7974L40.5065 36.9283C40.3748 37.1233 40.1593 37.2276 39.9404 37.2276Z" fill="#008FDF"/>
<path d="M20.0587 42.2483C19.9271 42.2483 19.792 42.2107 19.674 42.1303C19.3611 41.9182 19.2807 41.4925 19.4927 41.1795L24.6911 33.5393C24.9031 33.2264 25.3289 33.1461 25.6418 33.3581C25.9547 33.5701 26.0351 33.9959 25.8231 34.3088L20.6247 41.949C20.4931 42.144 20.2776 42.2483 20.0587 42.2483Z" fill="#008FDF"/>
<path d="M42.1177 42.2483C41.986 42.2483 41.8509 42.2107 41.733 42.1303C41.42 41.9182 41.3397 41.4925 41.5517 41.1795L46.75 33.5393C46.9621 33.2264 47.3879 33.1461 47.7008 33.3581C48.0137 33.5701 48.0941 33.9959 47.882 34.3088L42.6837 41.949C42.552 42.144 42.3366 42.2483 42.1177 42.2483Z" fill="#008FDF"/>
<defs>
<filter id="filter0_d_47_1345" x="0.37439" y="0" width="65.9535" height="90.2" filterUnits="userSpaceOnUse" color-interpolation-filters="sRGB">
<feFlood flood-opacity="0" result="BackgroundImageFix"/>
<feColorMatrix in="SourceAlpha" type="matrix" values="0 0 0 0 0 0 0 0 0 0 0 0 0 0 0 0 0 0 127 0" result="hardAlpha"/>
<feOffset dy="4"/>
<feGaussianBlur stdDeviation="2"/>
<feComposite in2="hardAlpha" operator="out"/>
<feColorMatrix type="matrix" values="0 0 0 0 0 0 0 0 0 0 0 0 0 0 0 0 0 0 0.25 0"/>
<feBlend mode="normal" in2="BackgroundImageFix" result="effect1_dropShadow_47_1345"/>
<feBlend mode="normal" in="SourceGraphic" in2="effect1_dropShadow_47_1345" result="shape"/>
</filter>
</defs>
</svg>
