<svg width="75" height="90" viewBox="0 0 75 90" fill="none" xmlns="http://www.w3.org/2000/svg">
<g filter="url(#filter0_d_771_2444)">
<path d="M37.0463 74.3235L18.8971 52.7206L56.1029 52.7206L37.0463 74.3235Z" fill="#008FDF"/>
<path d="M65 32.5C65 47.6878 52.6878 60 37.5 60C22.3122 60 10 47.6878 10 32.5C10 17.3122 22.3122 5 37.5 5C52.6878 5 65 17.3122 65 32.5Z" fill="white"/>
<path d="M37.0463 74.3235L18.8971 52.7206L56.1029 52.7206L37.0463 74.3235Z" stroke="white" stroke-width="4" stroke-linejoin="round"/>
<path d="M65 32.5C65 47.6878 52.6878 60 37.5 60C22.3122 60 10 47.6878 10 32.5C10 17.3122 22.3122 5 37.5 5C52.6878 5 65 17.3122 65 32.5Z" stroke="white" stroke-width="4" stroke-linejoin="round"/>
</g>
<path d="M37.0464 74.3235L18.8971 52.7205L56.103 52.7205L37.0464 74.3235Z" fill="#008FDF"/>
<path d="M37.5 8.09082C50.9808 8.09082 61.9092 19.0192 61.9092 32.5C61.9092 45.9808 50.9808 56.9092 37.5 56.9092C24.0192 56.9092 13.0908 45.9808 13.0908 32.5C13.0908 19.0192 24.0192 8.09082 37.5 8.09082Z" fill="#008FDF" stroke="#008FDF" stroke-width="6.18182"/>
<ellipse cx="37.853" cy="33" rx="23" ry="23" fill="white"/>
<path d="M46.2747 24.1522C46.2747 24.1229 46.2708 24.0937 46.2688 24.0644C45.9958 21.7595 44.7985 20.4491 42.8076 20.2307C42.0061 20.4452 41.3197 20.8586 40.7289 21.4807C38.2504 24.0937 38.502 29.4113 38.5039 29.4659C38.5039 29.4757 38.5039 29.4874 38.5039 29.4971V43.0535C38.5039 43.3772 38.2426 43.6385 37.9189 43.6385C37.5952 43.6385 37.3339 43.3772 37.3339 43.0535V29.5127C37.3144 29.1032 37.0999 23.6101 39.8767 20.6792C40.0444 20.5018 40.2199 20.3399 40.4013 20.1898L37.6615 20.18C37.3963 20.1118 37.2403 20.0728 37.2403 20.0728C37.2403 20.0728 29.9317 20.0728 30.0682 20.0728C22.3618 20.0728 22.3618 28.7093 22.3618 28.7093V44.9275H40.5651V43.8277L45.6897 42.3847C46.1109 42.2657 46.4014 41.8835 46.4014 41.4467V28.7093C46.4014 28.7093 46.4014 28.6918 46.4014 28.682L46.2747 24.1502V24.1522ZM25.5657 43.1686C24.8383 43.1686 24.2475 42.5777 24.2475 41.8504C24.2475 41.123 24.8383 40.5322 25.5657 40.5322C26.293 40.5322 26.8839 41.123 26.8839 41.8504C26.8839 42.5777 26.293 43.1686 25.5657 43.1686ZM33.276 43.1686C32.5486 43.1686 31.9578 42.5777 31.9578 41.8504C31.9578 41.123 32.5486 40.5322 33.276 40.5322C34.0033 40.5322 34.5942 41.123 34.5942 41.8504C34.5942 42.5777 34.0033 43.1686 33.276 43.1686ZM40.567 29.7409V28.7093C40.567 28.7093 40.0308 23.729 43.4628 22.444C43.9035 22.7345 44.2057 23.2786 44.3266 24.2516L44.4495 28.6216L40.567 29.7409Z" fill="#008FDF"/>
<path d="M53.7998 29.5379C52.544 25.7744 50.1572 23.2803 47.3199 22.7051V26.607C48.3729 27.1472 49.5156 28.4088 50.2839 30.7118C51.3486 33.902 51.06 37.5192 49.6404 38.7731C49.0925 39.2586 48.3144 39.3834 47.318 39.1533V42.2187C47.318 42.4625 47.2244 42.6887 47.0723 42.8622C47.4603 42.9227 47.862 42.9597 48.2696 42.9597C49.5605 42.9597 50.9079 42.599 52.0955 41.5499C55.1258 38.8706 55.1024 33.4457 53.7978 29.5398L53.7998 29.5379Z" fill="#008FDF"/>
<defs>
<filter id="filter0_d_771_2444" x="0" y="0" width="75" height="89.3237" filterUnits="userSpaceOnUse" color-interpolation-filters="sRGB">
<feFlood flood-opacity="0" result="BackgroundImageFix"/>
<feColorMatrix in="SourceAlpha" type="matrix" values="0 0 0 0 0 0 0 0 0 0 0 0 0 0 0 0 0 0 127 0" result="hardAlpha"/>
<feOffset dy="5"/>
<feGaussianBlur stdDeviation="4"/>
<feComposite in2="hardAlpha" operator="out"/>
<feColorMatrix type="matrix" values="0 0 0 0 0 0 0 0 0 0 0 0 0 0 0 0 0 0 0.25 0"/>
<feBlend mode="normal" in2="BackgroundImageFix" result="effect1_dropShadow_771_2444"/>
<feBlend mode="normal" in="SourceGraphic" in2="effect1_dropShadow_771_2444" result="shape"/>
</filter>
</defs>
</svg>
