<svg width="75" height="90" viewBox="0 0 75 90" fill="none" xmlns="http://www.w3.org/2000/svg">
<g filter="url(#filter0_d_771_2625)">
<path d="M37.0463 74.3235L18.8971 52.7206L56.1029 52.7206L37.0463 74.3235Z" fill="#008FDF"/>
<path d="M65 32.5C65 47.6878 52.6878 60 37.5 60C22.3122 60 10 47.6878 10 32.5C10 17.3122 22.3122 5 37.5 5C52.6878 5 65 17.3122 65 32.5Z" fill="white"/>
<path d="M37.0463 74.3235L18.8971 52.7206L56.1029 52.7206L37.0463 74.3235Z" stroke="white" stroke-width="4" stroke-linejoin="round"/>
<path d="M65 32.5C65 47.6878 52.6878 60 37.5 60C22.3122 60 10 47.6878 10 32.5C10 17.3122 22.3122 5 37.5 5C52.6878 5 65 17.3122 65 32.5Z" stroke="white" stroke-width="4" stroke-linejoin="round"/>
</g>
<path d="M37.0464 74.3235L18.8971 52.7205L56.103 52.7205L37.0464 74.3235Z" fill="#00A560"/>
<path d="M37.5 8.09082C50.9808 8.09082 61.9092 19.0192 61.9092 32.5C61.9092 45.9808 50.9808 56.9092 37.5 56.9092C24.0192 56.9092 13.0908 45.9808 13.0908 32.5C13.0908 19.0192 24.0192 8.09082 37.5 8.09082Z" fill="#00A560" stroke="#00A560" stroke-width="6.18182"/>
<ellipse cx="37.853" cy="33" rx="23" ry="23" fill="white"/>
<path d="M52.23 22.5847L39.5628 16.257C38.9466 15.9489 38.0535 15.9489 37.4393 16.257L24.7701 22.5847C24.0954 22.9221 23.604 23.7157 23.604 24.4704V44.9766C23.604 45.9009 24.3548 46.6516 25.2791 46.6516H51.7191C52.6434 46.6516 53.3942 45.9009 53.3942 44.9766V24.4704C53.3942 23.7157 52.9047 22.9221 52.2281 22.5847H52.23ZM51.4461 44.6997H25.554V24.4801C25.5638 24.4333 25.6164 24.3475 25.6418 24.328L38.307 18.0022C38.3889 17.9652 38.6093 17.9652 38.6892 18.0022L51.3428 24.3222C51.3818 24.3495 51.4364 24.4392 51.4422 24.4704V44.7016L51.4461 44.6997ZM32.2386 38.2549C32.186 38.1633 32.1158 37.978 32.2386 37.7655L33.239 36.0319L34.7502 36.9036L33.6641 32.8554L29.6159 33.9396L31.1271 34.8112L30.1268 36.5448C29.5964 37.4632 29.5964 38.5572 30.1268 39.4737C30.6572 40.3902 31.6049 40.9381 32.6637 40.9381H38.541V38.4987H32.6637C32.418 38.4987 32.2932 38.3446 32.2406 38.2549H32.2386ZM44.0498 31.3539L41.936 32.5746L44.8746 37.6641C44.9975 37.8766 44.9273 38.0619 44.8746 38.1535C44.822 38.2452 44.6972 38.3973 44.4515 38.3973H42.4508V36.652L39.4868 39.616L42.4508 42.58V40.8367H44.4515C45.5103 40.8367 46.458 40.2888 46.9884 39.3723C47.5188 38.4538 47.5188 37.3599 46.9884 36.4434L44.0498 31.3539ZM43.1489 30.8976L44.235 26.8494L42.7238 27.721L41.7234 25.9875C41.193 25.069 40.2453 24.523 39.1865 24.523C38.1276 24.523 37.1799 25.071 36.6495 25.9875L33.7109 31.077L35.8247 32.2977L38.7633 27.2082C38.8862 26.9956 39.0812 26.9644 39.1865 26.9644C39.2918 26.9644 39.4868 26.9956 39.6096 27.2082L40.61 28.9417L39.0987 29.8134L43.1469 30.8976H43.1489Z" fill="#00A560"/>
<defs>
<filter id="filter0_d_771_2625" x="0" y="0" width="75" height="89.3235" filterUnits="userSpaceOnUse" color-interpolation-filters="sRGB">
<feFlood flood-opacity="0" result="BackgroundImageFix"/>
<feColorMatrix in="SourceAlpha" type="matrix" values="0 0 0 0 0 0 0 0 0 0 0 0 0 0 0 0 0 0 127 0" result="hardAlpha"/>
<feOffset dy="5"/>
<feGaussianBlur stdDeviation="4"/>
<feComposite in2="hardAlpha" operator="out"/>
<feColorMatrix type="matrix" values="0 0 0 0 0 0 0 0 0 0 0 0 0 0 0 0 0 0 0.25 0"/>
<feBlend mode="normal" in2="BackgroundImageFix" result="effect1_dropShadow_771_2625"/>
<feBlend mode="normal" in="SourceGraphic" in2="effect1_dropShadow_771_2625" result="shape"/>
</filter>
</defs>
</svg>
