<svg width="75" height="90" viewBox="0 0 75 90" fill="none" xmlns="http://www.w3.org/2000/svg">
<g filter="url(#filter0_d_606_2424)">
<path d="M37.0463 74.3235L18.8971 52.7206L56.1029 52.7206L37.0463 74.3235Z" fill="#008FDF"/>
<path d="M65 32.5C65 47.6878 52.6878 60 37.5 60C22.3122 60 10 47.6878 10 32.5C10 17.3122 22.3122 5 37.5 5C52.6878 5 65 17.3122 65 32.5Z" fill="white"/>
<path d="M37.0463 74.3235L18.8971 52.7206L56.1029 52.7206L37.0463 74.3235Z" stroke="white" stroke-width="4" stroke-linejoin="round"/>
<path d="M65 32.5C65 47.6878 52.6878 60 37.5 60C22.3122 60 10 47.6878 10 32.5C10 17.3122 22.3122 5 37.5 5C52.6878 5 65 17.3122 65 32.5Z" stroke="white" stroke-width="4" stroke-linejoin="round"/>
</g>
<path d="M37.0464 74.3235L18.8971 52.7205L56.103 52.7205L37.0464 74.3235Z" fill="#00A560"/>
<path d="M37.5 8.09082C50.9808 8.09082 61.9092 19.0192 61.9092 32.5C61.9092 45.9808 50.9808 56.9092 37.5 56.9092C24.0192 56.9092 13.0908 45.9808 13.0908 32.5C13.0908 19.0192 24.0192 8.09082 37.5 8.09082Z" fill="#00A560" stroke="#00A560" stroke-width="6.18182"/>
<ellipse cx="37.853" cy="33" rx="23" ry="23" fill="white"/>
<path d="M26.7865 41.2403C26.6871 41.0687 26.5545 40.7197 26.7865 40.3199L28.6683 37.0615L31.5094 38.7014L29.4678 31.0867L21.853 33.1264L24.6942 34.7663L22.8124 38.0248C21.816 39.7505 21.816 41.8097 22.8124 43.5335C23.8089 45.2573 25.5912 46.2889 27.5841 46.2889H38.6386V41.7005H27.5841C27.1219 41.7005 26.886 41.4119 26.7865 41.2403Z" fill="#00A560"/>
<path d="M54.5233 37.8357L48.997 28.2632L45.0229 30.5583L50.5492 40.1309C50.7812 40.5306 50.6486 40.8797 50.5492 41.0513C50.4497 41.2229 50.2138 41.5115 49.7516 41.5115H45.9901V38.2296L40.417 43.8047L45.9901 49.3797V46.0998H49.7516C51.7426 46.0998 53.5268 45.0702 54.5233 43.3445C55.5197 41.6187 55.5197 39.5595 54.5233 37.8357Z" fill="#00A560"/>
<path d="M47.3026 27.4032L49.3443 19.7904L46.5031 21.4303L44.6214 18.1719C43.6249 16.4461 41.8426 15.4165 39.8497 15.4165C37.8568 15.4165 36.0745 16.4461 35.0781 18.1719L29.5518 27.7444L33.5259 30.0396L39.0522 20.467C39.2842 20.0673 39.6508 20.0068 39.8497 20.0068C40.0486 20.0068 40.4152 20.0673 40.6473 20.467L42.529 23.7255L39.6879 25.3654L47.3026 27.4032Z" fill="#00A560"/>
<path d="M26.7865 41.2403C26.6871 41.0687 26.5545 40.7197 26.7865 40.3199L28.6683 37.0615L31.5094 38.7014L29.4678 31.0867L21.853 33.1264L24.6942 34.7663L22.8124 38.0248C21.816 39.7505 21.816 41.8097 22.8124 43.5335C23.8089 45.2573 25.5912 46.2889 27.5841 46.2889H38.6386V41.7005H27.5841C27.1219 41.7005 26.886 41.4119 26.7865 41.2403Z" fill="#00A560"/>
<path d="M54.5233 37.8357L48.997 28.2632L45.0229 30.5583L50.5492 40.1309C50.7812 40.5306 50.6486 40.8797 50.5492 41.0513C50.4497 41.2229 50.2138 41.5115 49.7516 41.5115H45.9901V38.2296L40.417 43.8047L45.9901 49.3797V46.0998H49.7516C51.7426 46.0998 53.5268 45.0702 54.5233 43.3445C55.5197 41.6187 55.5197 39.5595 54.5233 37.8357Z" fill="#00A560"/>
<path d="M47.3026 27.4032L49.3443 19.7904L46.5031 21.4303L44.6214 18.1719C43.6249 16.4461 41.8426 15.4165 39.8497 15.4165C37.8568 15.4165 36.0745 16.4461 35.0781 18.1719L29.5518 27.7444L33.5259 30.0396L39.0522 20.467C39.2842 20.0673 39.6508 20.0068 39.8497 20.0068C40.0486 20.0068 40.4152 20.0673 40.6473 20.467L42.529 23.7255L39.6879 25.3654L47.3026 27.4032Z" fill="#00A560"/>
<defs>
<filter id="filter0_d_606_2424" x="0" y="0" width="75" height="89.3235" filterUnits="userSpaceOnUse" color-interpolation-filters="sRGB">
<feFlood flood-opacity="0" result="BackgroundImageFix"/>
<feColorMatrix in="SourceAlpha" type="matrix" values="0 0 0 0 0 0 0 0 0 0 0 0 0 0 0 0 0 0 127 0" result="hardAlpha"/>
<feOffset dy="5"/>
<feGaussianBlur stdDeviation="4"/>
<feComposite in2="hardAlpha" operator="out"/>
<feColorMatrix type="matrix" values="0 0 0 0 0 0 0 0 0 0 0 0 0 0 0 0 0 0 0.25 0"/>
<feBlend mode="normal" in2="BackgroundImageFix" result="effect1_dropShadow_606_2424"/>
<feBlend mode="normal" in="SourceGraphic" in2="effect1_dropShadow_606_2424" result="shape"/>
</filter>
</defs>
</svg>
