<svg width="75" height="90" viewBox="0 0 75 90" fill="none" xmlns="http://www.w3.org/2000/svg">
<g filter="url(#filter0_d_420_1698)">
<path d="M37.0463 74.3235L18.8971 52.7206L56.1029 52.7206L37.0463 74.3235Z" fill="#008FDF"/>
<path d="M65 32.5C65 47.6878 52.6878 60 37.5 60C22.3122 60 10 47.6878 10 32.5C10 17.3122 22.3122 5 37.5 5C52.6878 5 65 17.3122 65 32.5Z" fill="white"/>
<path d="M37.0463 74.3235L18.8971 52.7206L56.1029 52.7206L37.0463 74.3235Z" stroke="white" stroke-width="4" stroke-linejoin="round"/>
<path d="M65 32.5C65 47.6878 52.6878 60 37.5 60C22.3122 60 10 47.6878 10 32.5C10 17.3122 22.3122 5 37.5 5C52.6878 5 65 17.3122 65 32.5Z" stroke="white" stroke-width="4" stroke-linejoin="round"/>
</g>
<path d="M37.0464 74.3235L18.8971 52.7205L56.103 52.7205L37.0464 74.3235Z" fill="#008000"/>
<path d="M61.9091 32.5C61.9091 45.9808 50.9808 56.9091 37.5 56.9091C24.0192 56.9091 13.0909 45.9808 13.0909 32.5C13.0909 19.0192 24.0192 8.09091 37.5 8.09091C50.9808 8.09091 61.9091 19.0192 61.9091 32.5Z" fill="#008000" stroke="#008000" stroke-width="6.18182"/>
<ellipse cx="37.853" cy="33" rx="23" ry="23" fill="white"/>
<path d="M38.9401 34.9381C38.0201 33.8781 37.0641 33.0021 36.0741 32.3101L35.1421 33.6101C35.9861 34.3021 36.8861 35.2421 37.8401 36.4321L38.9381 34.9381H38.9401Z" fill="#008000"/>
<path d="M38.254 28.6001L36.778 27.7041C36.398 28.6421 35.864 29.5761 35.178 30.5081L36.418 31.4841C37.11 30.6281 37.722 29.6681 38.254 28.6021V28.6001Z" fill="#008000"/>
<path d="M31.092 27.9241L29.738 28.9441C30.458 29.7701 31.042 30.6521 31.488 31.5901L32.93 30.5081C32.532 29.6521 31.92 28.7921 31.094 27.9241H31.092Z" fill="#008000"/>
<path d="M33.052 34.0421L32.384 32.4961C31.452 33.4341 30.416 34.2801 29.272 35.0361L30.134 36.8281C31.346 35.8721 32.32 34.9441 33.052 34.0421Z" fill="#008000"/>
<path d="M35.574 23.1159C36.09 23.8139 36.514 24.5799 36.848 25.4179L38.43 24.6799C37.972 23.6959 37.518 22.9279 37.068 22.3779L35.574 23.1159Z" fill="#008000"/>
<path d="M38.826 31.704C39.178 31.17 39.442 30.722 39.618 30.36C40.022 31.578 40.562 32.836 41.236 34.13C40.082 35.934 38.632 37.28 36.886 38.164L38.108 39.622C39.736 38.732 41.128 37.48 42.282 35.87C43.33 37.334 44.508 38.544 45.816 39.5L46.748 37.68C45.342 36.69 44.178 35.548 43.258 34.252C43.82 33.092 44.246 31.926 44.532 30.754C44.796 29.676 45 28.462 45.148 27.116H46.554V25.366H41.378C41.56 24.616 41.738 23.746 41.914 22.756L40.094 22.502C39.678 25.42 38.934 27.936 37.862 30.052L38.828 31.704H38.826ZM40.9 27.116H43.37C43.16 29.178 42.754 30.928 42.158 32.364C41.454 30.916 40.918 29.522 40.55 28.18C40.69 27.77 40.808 27.416 40.902 27.116H40.9Z" fill="#008000"/>
<path d="M35.0559 22.448H33.2539V25.506H29.5979V27.272H33.2539V37.282C33.2539 37.428 33.2399 37.532 33.2099 37.59C33.1679 37.672 33.0399 37.714 32.8239 37.714C32.4779 37.714 31.9119 37.652 31.1279 37.53L31.5239 39.35C32.2439 39.42 32.8959 39.456 33.4759 39.456C34.0919 39.456 34.5179 39.316 34.7599 39.034C34.9599 38.794 35.0579 38.442 35.0579 37.98V27.274H38.5999V25.508H35.0579V22.45L35.0559 22.448Z" fill="#008000"/>
<path d="M54.162 21.18C42.818 15.168 31.866 15.176 21.608 21.206C21.244 21.42 21.02 21.808 21.016 22.228C20.954 28.504 22.306 34.068 25.034 38.76C27.734 43.406 31.864 47.342 37.312 50.46C37.496 50.566 37.702 50.618 37.908 50.618C38.09 50.618 38.272 50.576 38.44 50.494C49.124 45.208 54.628 35.708 54.8 22.254C54.806 21.804 54.56 21.39 54.162 21.178V21.18ZM48.53 38.156C46.138 42.318 42.58 45.646 37.948 48.056C28.254 42.306 23.494 34.078 23.414 22.936C27.976 20.372 32.712 19.074 37.504 19.074C37.528 19.074 37.554 19.074 37.578 19.074C42.364 19.088 47.342 20.396 52.386 22.962C52.216 28.888 50.92 33.996 48.53 38.156Z" fill="#008000"/>
<defs>
<filter id="filter0_d_420_1698" x="0" y="0" width="75" height="89.3235" filterUnits="userSpaceOnUse" color-interpolation-filters="sRGB">
<feFlood flood-opacity="0" result="BackgroundImageFix"/>
<feColorMatrix in="SourceAlpha" type="matrix" values="0 0 0 0 0 0 0 0 0 0 0 0 0 0 0 0 0 0 127 0" result="hardAlpha"/>
<feOffset dy="5"/>
<feGaussianBlur stdDeviation="4"/>
<feComposite in2="hardAlpha" operator="out"/>
<feColorMatrix type="matrix" values="0 0 0 0 0 0 0 0 0 0 0 0 0 0 0 0 0 0 0.25 0"/>
<feBlend mode="normal" in2="BackgroundImageFix" result="effect1_dropShadow_420_1698"/>
<feBlend mode="normal" in="SourceGraphic" in2="effect1_dropShadow_420_1698" result="shape"/>
</filter>
</defs>
</svg>
