<svg width="75" height="90" viewBox="0 0 75 90" fill="none" xmlns="http://www.w3.org/2000/svg">
<g filter="url(#filter0_d_420_1716)">
<path d="M37.0463 74.3235L18.8971 52.7206L56.1029 52.7206L37.0463 74.3235Z" fill="#008FDF"/>
<path d="M65 32.5C65 47.6878 52.6878 60 37.5 60C22.3122 60 10 47.6878 10 32.5C10 17.3122 22.3122 5 37.5 5C52.6878 5 65 17.3122 65 32.5Z" fill="white"/>
<path d="M37.0463 74.3235L18.8971 52.7206L56.1029 52.7206L37.0463 74.3235Z" stroke="white" stroke-width="4" stroke-linejoin="round"/>
<path d="M65 32.5C65 47.6878 52.6878 60 37.5 60C22.3122 60 10 47.6878 10 32.5C10 17.3122 22.3122 5 37.5 5C52.6878 5 65 17.3122 65 32.5Z" stroke="white" stroke-width="4" stroke-linejoin="round"/>
</g>
<path d="M37.0464 74.3235L18.8971 52.7205L56.103 52.7205L37.0464 74.3235Z" fill="#008000"/>
<path d="M61.9091 32.5C61.9091 45.9808 50.9808 56.9091 37.5 56.9091C24.0192 56.9091 13.0909 45.9808 13.0909 32.5C13.0909 19.0192 24.0192 8.09091 37.5 8.09091C50.9808 8.09091 61.9091 19.0192 61.9091 32.5Z" fill="#008000" stroke="#008000" stroke-width="6.18182"/>
<ellipse cx="37.853" cy="33" rx="23" ry="23" fill="white"/>
<path d="M38 15C28.074 15 20 23.074 20 33C20 42.926 28.074 51 38 51C47.926 51 56 42.926 56 33C56 23.074 47.926 15 38 15ZM38 48.12C29.662 48.12 22.88 41.338 22.88 33C22.88 24.662 29.662 17.88 38 17.88C46.338 17.88 53.12 24.662 53.12 33C53.12 41.338 46.338 48.12 38 48.12Z" fill="#008000"/>
<path d="M32.502 36.3779L31.76 34.6599C30.724 35.7019 29.572 36.6419 28.302 37.4819L29.26 39.4739C30.608 38.4119 31.688 37.3819 32.502 36.3779Z" fill="#008000"/>
<path d="M30.3241 29.5821L28.8201 30.7141C29.6201 31.6321 30.2681 32.6121 30.7641 33.6541L32.3661 32.4521C31.9241 31.5021 31.2421 30.5441 30.3241 29.5801V29.5821Z" fill="#008000"/>
<path d="M38.478 25.9779C37.97 24.8839 37.466 24.0319 36.964 23.4199L35.304 24.2399C35.876 25.0139 36.348 25.8679 36.72 26.7979L38.478 25.9779Z" fill="#008000"/>
<path d="M39.044 37.3761C38.022 36.1981 36.96 35.2241 35.86 34.4561L34.824 35.9021C35.762 36.6701 36.76 37.7161 37.822 39.0361L39.042 37.3761H39.044Z" fill="#008000"/>
<path d="M38.6641 26.896H34.7281V23.498H32.7261V26.896H28.6641V28.858H32.7261V39.982C32.7261 40.144 32.7101 40.258 32.6781 40.324C32.6321 40.416 32.4901 40.46 32.2481 40.46C31.8641 40.46 31.2361 40.392 30.3641 40.254L30.8041 42.276C31.6041 42.354 32.3281 42.394 32.9721 42.394C33.6561 42.394 34.1301 42.238 34.3981 41.926C34.6201 41.66 34.7301 41.268 34.7301 40.754V28.86H38.6661V26.898L38.6641 26.896Z" fill="#008000"/>
<path d="M43.8401 36.6141C44.4641 35.3241 44.9361 34.0301 45.2561 32.7281C45.5481 31.5301 45.7761 30.1821 45.9401 28.6861H47.5021V26.7421H41.7501C41.9521 25.9081 42.1501 24.9421 42.3461 23.8421L40.3241 23.5581C39.8621 26.8001 39.0341 29.5961 37.8441 31.9461L38.9181 33.7821C39.3081 33.1901 39.6021 32.6921 39.7961 32.2881C40.2461 33.6421 40.8441 35.0381 41.5921 36.4781C40.3101 38.4841 38.6981 39.9781 36.7581 40.9601L38.1161 42.5821C39.9261 41.5921 41.4721 40.2021 42.7541 38.4121C43.9201 40.0401 45.2281 41.3841 46.6801 42.4461L47.7161 40.4241C46.1541 39.3241 44.8621 38.0541 43.8401 36.6161V36.6141ZM42.6201 34.5141C41.8381 32.9061 41.2441 31.3561 40.8321 29.8661C40.9881 29.4101 41.1181 29.0161 41.2221 28.6841H43.9661C43.7321 30.9761 43.2821 32.9201 42.6181 34.5141H42.6201Z" fill="#008000"/>
<path d="M36.242 33.5379C37.01 32.5879 37.69 31.5199 38.284 30.3339L36.644 29.3379C36.22 30.3799 35.628 31.4179 34.866 32.4539L36.242 33.5379Z" fill="#008000"/>
<defs>
<filter id="filter0_d_420_1716" x="0" y="0" width="75" height="89.3235" filterUnits="userSpaceOnUse" color-interpolation-filters="sRGB">
<feFlood flood-opacity="0" result="BackgroundImageFix"/>
<feColorMatrix in="SourceAlpha" type="matrix" values="0 0 0 0 0 0 0 0 0 0 0 0 0 0 0 0 0 0 127 0" result="hardAlpha"/>
<feOffset dy="5"/>
<feGaussianBlur stdDeviation="4"/>
<feComposite in2="hardAlpha" operator="out"/>
<feColorMatrix type="matrix" values="0 0 0 0 0 0 0 0 0 0 0 0 0 0 0 0 0 0 0.25 0"/>
<feBlend mode="normal" in2="BackgroundImageFix" result="effect1_dropShadow_420_1716"/>
<feBlend mode="normal" in="SourceGraphic" in2="effect1_dropShadow_420_1716" result="shape"/>
</filter>
</defs>
</svg>
