<svg width="82" height="90" viewBox="0 0 82 90" fill="none" xmlns="http://www.w3.org/2000/svg">
<g filter="url(#filter0_d_846_2966)">
<path d="M37.0463 74.3235L18.8971 52.7206L56.1029 52.7206L37.0463 74.3235Z" fill="#008FDF"/>
<path d="M65 32.5C65 47.6878 52.6878 60 37.5 60C22.3122 60 10 47.6878 10 32.5C10 17.3122 22.3122 5 37.5 5C52.6878 5 65 17.3122 65 32.5Z" fill="white"/>
<path d="M37.0463 74.3235L18.8971 52.7206L56.1029 52.7206L37.0463 74.3235Z" stroke="white" stroke-width="4" stroke-linejoin="round"/>
<path d="M65 32.5C65 47.6878 52.6878 60 37.5 60C22.3122 60 10 47.6878 10 32.5C10 17.3122 22.3122 5 37.5 5C52.6878 5 65 17.3122 65 32.5Z" stroke="white" stroke-width="4" stroke-linejoin="round"/>
</g>
<path d="M37.0459 74.3237L18.8967 52.7208L56.1025 52.7208L37.0459 74.3237Z" fill="#FF0000"/>
<path d="M37.5 8.09082C50.9808 8.09082 61.9092 19.0192 61.9092 32.5C61.9092 45.9808 50.9808 56.9092 37.5 56.9092C24.0192 56.9092 13.0908 45.9808 13.0908 32.5C13.0908 19.0192 24.0192 8.09082 37.5 8.09082Z" fill="#FF0000" stroke="#FF0000" stroke-width="6.18182"/>
<ellipse cx="37.8525" cy="33" rx="23" ry="23" fill="white"/>
<path d="M56.6779 44.2662L52.0979 21.2262C52.0839 21.1562 52.0639 21.0902 52.0399 21.0242C52.0379 21.0162 52.0339 21.0082 52.0319 21.0002C52.0079 20.9402 51.9779 20.8802 51.9459 20.8242C51.9399 20.8142 51.9339 20.8042 51.9279 20.7962C51.8939 20.7422 51.8579 20.6902 51.8159 20.6402C51.8099 20.6342 51.8039 20.6262 51.7979 20.6202C51.7559 20.5722 51.7099 20.5262 51.6599 20.4842C51.6579 20.4842 51.6559 20.4802 51.6539 20.4782C51.6039 20.4362 51.5479 20.3982 51.4919 20.3642C51.4839 20.3602 51.4759 20.3542 51.4679 20.3502C51.4119 20.3182 51.3539 20.2902 51.2919 20.2662C51.2819 20.2622 51.2739 20.2602 51.2639 20.2562C51.2019 20.2342 51.1379 20.2142 51.0719 20.2022C51.0659 20.2022 51.0599 20.2022 51.0559 20.2002C50.9919 20.1882 50.9259 20.1822 50.8579 20.1802C50.8519 20.1802 50.8479 20.1802 50.8439 20.1802C50.8379 20.1802 50.8319 20.1802 50.8259 20.1802H25.8799C25.8639 20.1802 25.8479 20.1802 25.8339 20.1822C25.8119 20.1822 25.7879 20.1822 25.7659 20.1862C25.7439 20.1882 25.7199 20.1922 25.6979 20.1942C25.6799 20.1962 25.6599 20.2002 25.6419 20.2022C25.6159 20.2062 25.5899 20.2142 25.5639 20.2202C25.5499 20.2242 25.5339 20.2262 25.5199 20.2322C25.4919 20.2402 25.4639 20.2502 25.4379 20.2602C25.4259 20.2642 25.4139 20.2682 25.4019 20.2742C25.3739 20.2842 25.3479 20.2962 25.3219 20.3102C25.3099 20.3162 25.2999 20.3202 25.2879 20.3262C25.2619 20.3382 25.2379 20.3522 25.2139 20.3682C25.2019 20.3762 25.1899 20.3822 25.1779 20.3902C25.1559 20.4042 25.1359 20.4182 25.1139 20.4342C25.0999 20.4442 25.0859 20.4542 25.0739 20.4642C25.0559 20.4782 25.0399 20.4922 25.0219 20.5082C25.0059 20.5222 24.9919 20.5342 24.9779 20.5482C24.9639 20.5622 24.9499 20.5762 24.9359 20.5902C24.9199 20.6062 24.9039 20.6242 24.8899 20.6402C24.8779 20.6542 24.8679 20.6682 24.8559 20.6822C24.8419 20.7002 24.8259 20.7202 24.8139 20.7402C24.8039 20.7562 24.7939 20.7702 24.7839 20.7862C24.7719 20.8062 24.7599 20.8262 24.7479 20.8462C24.7379 20.8642 24.7279 20.8822 24.7199 20.9022C24.7099 20.9202 24.7019 20.9402 24.6919 20.9582C24.6819 20.9802 24.6739 21.0042 24.6659 21.0262C24.6599 21.0422 24.6539 21.0602 24.6479 21.0762C24.6399 21.1022 24.6319 21.1282 24.6259 21.1542C24.6219 21.1662 24.6179 21.1782 24.6159 21.1902L19.3299 44.2302C19.1699 44.9302 19.6059 45.6282 20.3059 45.7882C20.4039 45.8102 20.5019 45.8222 20.5979 45.8222C21.1899 45.8222 21.7259 45.4142 21.8639 44.8122L26.9159 22.7822H27.7539V36.7482C27.1799 36.7862 26.7259 37.2642 26.7259 37.8482V39.6142C26.7259 40.2242 27.2199 40.7162 27.8279 40.7162H34.2499C34.8599 40.7162 35.3519 40.2222 35.3519 39.6142V37.8482C35.3519 37.3202 34.9819 36.8802 34.4879 36.7722V22.7802H37.0939V36.7462C36.5199 36.7842 36.0659 37.2622 36.0659 37.8462V39.6122C36.0659 40.2222 36.5599 40.7142 37.1679 40.7142H43.5899C44.1999 40.7142 44.6919 40.2202 44.6919 39.6122V37.8462C44.6919 37.3182 44.3219 36.8782 43.8279 36.7702V22.7802H49.1899L44.2699 44.2302C44.1099 44.9302 44.5459 45.6282 45.2459 45.7882C45.3439 45.8102 45.4419 45.8222 45.5379 45.8222C46.1299 45.8222 46.6659 45.4142 46.8039 44.8122L50.7299 27.6922L54.1259 44.7742C54.2659 45.4782 54.9499 45.9362 55.6539 45.7962C56.3579 45.6562 56.8159 44.9722 56.6759 44.2682L56.6779 44.2662ZM33.2879 36.7422H28.9539V22.7802H33.2879V36.7422ZM42.6279 36.7422H38.2939V22.7802H42.6279V36.7422Z" fill="#FF0000"/>
<g filter="url(#filter1_d_846_2966)">
<circle cx="65.5" cy="15.5" r="14.5" fill="#FF0000"/>
</g>
<path d="M64.5856 18.7925L64.0235 8.91468L63.8896 5.16699H67.8515L67.7176 8.91468L67.1555 18.7925H64.5856ZM65.8706 25.9131C65.1567 25.9131 64.5678 25.6633 64.1038 25.1636C63.6576 24.6639 63.4346 24.0571 63.4346 23.3433C63.4346 22.5938 63.6576 21.9781 64.1038 21.4962C64.5678 21.0144 65.1567 20.7735 65.8706 20.7735C66.5844 20.7735 67.1644 21.0144 67.6106 21.4962C68.0746 21.9781 68.3066 22.5938 68.3066 23.3433C68.3066 24.0571 68.0746 24.6639 67.6106 25.1636C67.1644 25.6633 66.5844 25.9131 65.8706 25.9131Z" fill="white"/>
<defs>
<filter id="filter0_d_846_2966" x="0" y="0" width="75" height="89.3237" filterUnits="userSpaceOnUse" color-interpolation-filters="sRGB">
<feFlood flood-opacity="0" result="BackgroundImageFix"/>
<feColorMatrix in="SourceAlpha" type="matrix" values="0 0 0 0 0 0 0 0 0 0 0 0 0 0 0 0 0 0 127 0" result="hardAlpha"/>
<feOffset dy="5"/>
<feGaussianBlur stdDeviation="4"/>
<feComposite in2="hardAlpha" operator="out"/>
<feColorMatrix type="matrix" values="0 0 0 0 0 0 0 0 0 0 0 0 0 0 0 0 0 0 0.25 0"/>
<feBlend mode="normal" in2="BackgroundImageFix" result="effect1_dropShadow_846_2966"/>
<feBlend mode="normal" in="SourceGraphic" in2="effect1_dropShadow_846_2966" result="shape"/>
</filter>
<filter id="filter1_d_846_2966" x="49.2374" y="1" width="32.5252" height="32.5252" filterUnits="userSpaceOnUse" color-interpolation-filters="sRGB">
<feFlood flood-opacity="0" result="BackgroundImageFix"/>
<feColorMatrix in="SourceAlpha" type="matrix" values="0 0 0 0 0 0 0 0 0 0 0 0 0 0 0 0 0 0 127 0" result="hardAlpha"/>
<feOffset dy="1.7626"/>
<feGaussianBlur stdDeviation="0.881299"/>
<feComposite in2="hardAlpha" operator="out"/>
<feColorMatrix type="matrix" values="0 0 0 0 0 0 0 0 0 0 0 0 0 0 0 0 0 0 0.25 0"/>
<feBlend mode="normal" in2="BackgroundImageFix" result="effect1_dropShadow_846_2966"/>
<feBlend mode="normal" in="SourceGraphic" in2="effect1_dropShadow_846_2966" result="shape"/>
</filter>
</defs>
</svg>
