<svg width="82" height="90" viewBox="0 0 82 90" fill="none" xmlns="http://www.w3.org/2000/svg">
<g filter="url(#filter0_d_846_2992)">
<path d="M37.0463 74.3235L18.8971 52.7206L56.1029 52.7206L37.0463 74.3235Z" fill="#008FDF"/>
<path d="M65 32.5C65 47.6878 52.6878 60 37.5 60C22.3122 60 10 47.6878 10 32.5C10 17.3122 22.3122 5 37.5 5C52.6878 5 65 17.3122 65 32.5Z" fill="white"/>
<path d="M37.0463 74.3235L18.8971 52.7206L56.1029 52.7206L37.0463 74.3235Z" stroke="white" stroke-width="4" stroke-linejoin="round"/>
<path d="M65 32.5C65 47.6878 52.6878 60 37.5 60C22.3122 60 10 47.6878 10 32.5C10 17.3122 22.3122 5 37.5 5C52.6878 5 65 17.3122 65 32.5Z" stroke="white" stroke-width="4" stroke-linejoin="round"/>
</g>
<path d="M37.0459 74.3237L18.8967 52.7208L56.1025 52.7208L37.0459 74.3237Z" fill="#FF0000"/>
<path d="M37.5 8.09082C50.9808 8.09082 61.9092 19.0192 61.9092 32.5C61.9092 45.9808 50.9808 56.9092 37.5 56.9092C24.0192 56.9092 13.0908 45.9808 13.0908 32.5C13.0908 19.0192 24.0192 8.09082 37.5 8.09082Z" fill="#FF0000" stroke="#FF0000" stroke-width="6.18182"/>
<ellipse cx="37.8525" cy="33" rx="23" ry="23" fill="white"/>
<path d="M23.7998 47.8001H28.5998V46.4001H23.7998V47.8001ZM51.8018 31.2201C51.0838 31.2201 50.5018 31.8021 50.5018 32.5201V32.8261H47.6018C46.3078 32.8261 45.2598 31.7921 45.2598 30.5181V30.0261C45.2598 29.4421 45.0378 28.9101 44.6738 28.5021H45.0618C45.7138 28.5021 46.2438 27.9741 46.2438 27.3201V26.9301C46.2438 26.2781 45.7158 25.7481 45.0618 25.7481H43.4178V23.1021H48.4138C49.3518 23.1021 50.1138 22.3401 50.1138 21.4021C50.1138 20.4641 49.3518 19.7021 48.4138 19.7021H43.6038V19.4701C43.6038 18.8181 43.0758 18.2881 42.4218 18.2881H41.6118C40.9598 18.2881 40.4298 18.8161 40.4298 19.4701V19.7021H35.6198C34.6818 19.7021 33.9198 20.4641 33.9198 21.4021C33.9198 22.3401 34.6818 23.1021 35.6198 23.1021H40.6158V25.7481H38.9718C38.3198 25.7481 37.7898 26.2761 37.7898 26.9301V27.3201C37.7898 27.9721 38.3178 28.5021 38.9718 28.5021H39.2858C38.9218 28.9081 38.6998 29.4421 38.6998 30.0261V30.5181C38.6998 31.7941 37.6518 32.8261 36.3578 32.8261H30.0898C26.6278 32.8261 23.8278 35.6481 23.8558 39.1101L23.9058 44.8001H28.2638L28.2738 40.7241C28.2758 39.3561 29.3858 38.2501 30.7538 38.2501H35.4358C36.2898 40.2601 38.9118 41.7241 42.0158 41.7241C45.1198 41.7241 47.7418 40.2601 48.5958 38.2501H50.5018V39.0261C50.5018 39.7441 51.0838 40.3261 51.8018 40.3261C52.5198 40.3261 53.1018 39.7441 53.1018 39.0261V32.5221C53.1018 31.8041 52.5198 31.2221 51.8018 31.2221V31.2201Z" fill="#FF0000"/>
<g filter="url(#filter1_d_846_2992)">
<circle cx="65.5" cy="15.5" r="14.5" fill="#FF0000"/>
</g>
<path d="M64.5856 18.7925L64.0235 8.91468L63.8896 5.16699H67.8515L67.7176 8.91468L67.1555 18.7925H64.5856ZM65.8706 25.9131C65.1567 25.9131 64.5678 25.6633 64.1038 25.1636C63.6576 24.6639 63.4346 24.0571 63.4346 23.3433C63.4346 22.5938 63.6576 21.9781 64.1038 21.4962C64.5678 21.0144 65.1567 20.7735 65.8706 20.7735C66.5844 20.7735 67.1644 21.0144 67.6106 21.4962C68.0746 21.9781 68.3066 22.5938 68.3066 23.3433C68.3066 24.0571 68.0746 24.6639 67.6106 25.1636C67.1644 25.6633 66.5844 25.9131 65.8706 25.9131Z" fill="white"/>
<defs>
<filter id="filter0_d_846_2992" x="0" y="0" width="75" height="89.3237" filterUnits="userSpaceOnUse" color-interpolation-filters="sRGB">
<feFlood flood-opacity="0" result="BackgroundImageFix"/>
<feColorMatrix in="SourceAlpha" type="matrix" values="0 0 0 0 0 0 0 0 0 0 0 0 0 0 0 0 0 0 127 0" result="hardAlpha"/>
<feOffset dy="5"/>
<feGaussianBlur stdDeviation="4"/>
<feComposite in2="hardAlpha" operator="out"/>
<feColorMatrix type="matrix" values="0 0 0 0 0 0 0 0 0 0 0 0 0 0 0 0 0 0 0.25 0"/>
<feBlend mode="normal" in2="BackgroundImageFix" result="effect1_dropShadow_846_2992"/>
<feBlend mode="normal" in="SourceGraphic" in2="effect1_dropShadow_846_2992" result="shape"/>
</filter>
<filter id="filter1_d_846_2992" x="49.2374" y="1" width="32.5252" height="32.5252" filterUnits="userSpaceOnUse" color-interpolation-filters="sRGB">
<feFlood flood-opacity="0" result="BackgroundImageFix"/>
<feColorMatrix in="SourceAlpha" type="matrix" values="0 0 0 0 0 0 0 0 0 0 0 0 0 0 0 0 0 0 127 0" result="hardAlpha"/>
<feOffset dy="1.7626"/>
<feGaussianBlur stdDeviation="0.881299"/>
<feComposite in2="hardAlpha" operator="out"/>
<feColorMatrix type="matrix" values="0 0 0 0 0 0 0 0 0 0 0 0 0 0 0 0 0 0 0.25 0"/>
<feBlend mode="normal" in2="BackgroundImageFix" result="effect1_dropShadow_846_2992"/>
<feBlend mode="normal" in="SourceGraphic" in2="effect1_dropShadow_846_2992" result="shape"/>
</filter>
</defs>
</svg>
