<svg width="82" height="90" viewBox="0 0 82 90" fill="none" xmlns="http://www.w3.org/2000/svg">
<g filter="url(#filter0_d_846_2953)">
<path d="M37.0463 74.3235L18.8971 52.7206L56.1029 52.7206L37.0463 74.3235Z" fill="#008FDF"/>
<path d="M65 32.5C65 47.6878 52.6878 60 37.5 60C22.3122 60 10 47.6878 10 32.5C10 17.3122 22.3122 5 37.5 5C52.6878 5 65 17.3122 65 32.5Z" fill="white"/>
<path d="M37.0463 74.3235L18.8971 52.7206L56.1029 52.7206L37.0463 74.3235Z" stroke="white" stroke-width="4" stroke-linejoin="round"/>
<path d="M65 32.5C65 47.6878 52.6878 60 37.5 60C22.3122 60 10 47.6878 10 32.5C10 17.3122 22.3122 5 37.5 5C52.6878 5 65 17.3122 65 32.5Z" stroke="white" stroke-width="4" stroke-linejoin="round"/>
</g>
<path d="M37.0459 74.3237L18.8967 52.7208L56.1025 52.7208L37.0459 74.3237Z" fill="#FF0000"/>
<path d="M37.5 8.09082C50.9808 8.09082 61.9092 19.0192 61.9092 32.5C61.9092 45.9808 50.9808 56.9092 37.5 56.9092C24.0192 56.9092 13.0908 45.9808 13.0908 32.5C13.0908 19.0192 24.0192 8.09082 37.5 8.09082Z" fill="#FF0000" stroke="#FF0000" stroke-width="6.18182"/>
<ellipse cx="37.8525" cy="33" rx="23" ry="23" fill="white"/>
<path d="M37.5842 28.0182V27.5662H32.5682V32.5822H33.0202C33.2222 30.1582 35.1602 28.2182 37.5842 28.0182ZM32.5662 44.2842H37.5822V39.2682H32.5662V44.2842ZM33.0182 33.4162H32.5662V38.4322H37.5822V37.9802C35.1582 37.7782 33.2182 35.8402 33.0182 33.4162ZM26.7162 32.5842H31.7342V27.5682H26.7162V32.5842ZM26.7162 38.4342H31.7342V33.4182H26.7162V38.4342ZM42.0002 33.0002C42.0002 30.7902 40.2102 29.0002 38.0002 29.0002C35.7902 29.0002 34.0002 30.7902 34.0002 33.0002C34.0002 35.2102 35.7902 37.0002 38.0002 37.0002C40.2102 37.0002 42.0002 35.2102 42.0002 33.0002ZM37.5842 21.7162H32.5682V26.7322H37.5842V21.7162ZM38.4162 26.7322H43.4322V21.7162H38.4162V26.7322ZM44.2682 32.5842H49.2862V27.5682H44.2682V32.5842ZM38.0002 15.2002C28.1842 15.2002 20.2002 23.1862 20.2002 33.0002C20.2002 42.8142 28.1842 50.8002 38.0002 50.8002C47.8162 50.8002 55.8002 42.8142 55.8002 33.0002C55.8002 23.1862 47.8162 15.2002 38.0002 15.2002ZM51.1182 38.4342C51.0002 38.7162 50.8742 38.9942 50.7382 39.2682H50.1182V40.3942C49.8622 40.8142 49.5822 41.2182 49.2842 41.6062V39.2682H44.2662V44.2842H46.6042C46.2142 44.5822 45.8102 44.8622 45.3922 45.1182H44.2662V45.7382C43.9922 45.8742 43.7142 46.0002 43.4322 46.1182V45.1202H38.4162V47.1902C38.2782 47.1942 38.1382 47.2002 38.0002 47.2002C37.8622 47.2002 37.7222 47.1942 37.5842 47.1902V45.1202H32.5682V46.1182C32.2862 46.0002 32.0082 45.8742 31.7342 45.7382V45.1182H30.6082C30.1882 44.8622 29.7842 44.5822 29.3962 44.2842H31.7342V39.2682H26.7162V41.6062C26.4182 41.2162 26.1382 40.8122 25.8822 40.3942V39.2682H25.2622C25.1262 38.9942 25.0002 38.7162 24.8822 38.4342H25.8802V33.4182H23.8102C23.8062 33.2802 23.8002 33.1402 23.8002 33.0022C23.8002 32.8642 23.8062 32.7242 23.8102 32.5862H25.8802V27.5702H24.8822C25.0002 27.2882 25.1262 27.0102 25.2622 26.7362H25.8822V25.6102C26.1382 25.1902 26.4182 24.7862 26.7162 24.3982V26.7362H31.7342V21.7202H29.3962C29.7862 21.4222 30.1902 21.1422 30.6082 20.8862H31.7342V20.2662C32.0082 20.1302 32.2862 20.0042 32.5682 19.8862V20.8842H37.5842V18.8142C37.7222 18.8102 37.8622 18.8042 38.0002 18.8042C38.1382 18.8042 38.2782 18.8102 38.4162 18.8142V20.8842H43.4322V19.8862C43.7142 20.0042 43.9922 20.1302 44.2662 20.2662V20.8862H45.3922C45.8122 21.1422 46.2162 21.4222 46.6042 21.7202H44.2662V26.7362H49.2842V24.3982C49.5822 24.7882 49.8622 25.1922 50.1182 25.6102V26.7362H50.7382C50.8742 27.0102 51.0002 27.2882 51.1182 27.5702H50.1202V32.5862H52.1902C52.1942 32.7242 52.2002 32.8642 52.2002 33.0022C52.2002 33.1402 52.1942 33.2802 52.1902 33.4182H50.1202V38.4342H51.1182ZM44.2682 38.4342H49.2862V33.4182H44.2682V38.4342ZM38.4162 28.0182C40.8402 28.2202 42.7802 30.1582 42.9802 32.5822H43.4322V27.5662H38.4162V28.0182ZM38.4162 44.2842H43.4322V39.2682H38.4162V44.2842ZM38.4162 37.9822V38.4342H43.4322V33.4182H42.9802C42.7782 35.8422 40.8402 37.7822 38.4162 37.9822Z" fill="#FF0000"/>
<g filter="url(#filter1_d_846_2953)">
<circle cx="65.5" cy="15.5" r="14.5" fill="#FF0000"/>
</g>
<path d="M64.5856 18.7925L64.0235 8.91468L63.8896 5.16699H67.8515L67.7176 8.91468L67.1555 18.7925H64.5856ZM65.8706 25.9131C65.1567 25.9131 64.5678 25.6633 64.1038 25.1636C63.6576 24.6639 63.4346 24.0571 63.4346 23.3433C63.4346 22.5938 63.6576 21.9781 64.1038 21.4962C64.5678 21.0144 65.1567 20.7735 65.8706 20.7735C66.5844 20.7735 67.1644 21.0144 67.6106 21.4962C68.0746 21.9781 68.3066 22.5938 68.3066 23.3433C68.3066 24.0571 68.0746 24.6639 67.6106 25.1636C67.1644 25.6633 66.5844 25.9131 65.8706 25.9131Z" fill="white"/>
<defs>
<filter id="filter0_d_846_2953" x="0" y="0" width="75" height="89.3237" filterUnits="userSpaceOnUse" color-interpolation-filters="sRGB">
<feFlood flood-opacity="0" result="BackgroundImageFix"/>
<feColorMatrix in="SourceAlpha" type="matrix" values="0 0 0 0 0 0 0 0 0 0 0 0 0 0 0 0 0 0 127 0" result="hardAlpha"/>
<feOffset dy="5"/>
<feGaussianBlur stdDeviation="4"/>
<feComposite in2="hardAlpha" operator="out"/>
<feColorMatrix type="matrix" values="0 0 0 0 0 0 0 0 0 0 0 0 0 0 0 0 0 0 0.25 0"/>
<feBlend mode="normal" in2="BackgroundImageFix" result="effect1_dropShadow_846_2953"/>
<feBlend mode="normal" in="SourceGraphic" in2="effect1_dropShadow_846_2953" result="shape"/>
</filter>
<filter id="filter1_d_846_2953" x="49.2374" y="1" width="32.5252" height="32.5252" filterUnits="userSpaceOnUse" color-interpolation-filters="sRGB">
<feFlood flood-opacity="0" result="BackgroundImageFix"/>
<feColorMatrix in="SourceAlpha" type="matrix" values="0 0 0 0 0 0 0 0 0 0 0 0 0 0 0 0 0 0 127 0" result="hardAlpha"/>
<feOffset dy="1.7626"/>
<feGaussianBlur stdDeviation="0.881299"/>
<feComposite in2="hardAlpha" operator="out"/>
<feColorMatrix type="matrix" values="0 0 0 0 0 0 0 0 0 0 0 0 0 0 0 0 0 0 0.25 0"/>
<feBlend mode="normal" in2="BackgroundImageFix" result="effect1_dropShadow_846_2953"/>
<feBlend mode="normal" in="SourceGraphic" in2="effect1_dropShadow_846_2953" result="shape"/>
</filter>
</defs>
</svg>
