<svg width="75" height="90" viewBox="0 0 75 90" fill="none" xmlns="http://www.w3.org/2000/svg">
<g filter="url(#filter0_d_463_2473)">
<path d="M37.0463 74.3235L18.8971 52.7206L56.1029 52.7206L37.0463 74.3235Z" fill="#008FDF"/>
<path d="M65 32.5C65 47.6878 52.6878 60 37.5 60C22.3122 60 10 47.6878 10 32.5C10 17.3122 22.3122 5 37.5 5C52.6878 5 65 17.3122 65 32.5Z" fill="white"/>
<path d="M37.0463 74.3235L18.8971 52.7206L56.1029 52.7206L37.0463 74.3235Z" stroke="white" stroke-width="4" stroke-linejoin="round"/>
<path d="M65 32.5C65 47.6878 52.6878 60 37.5 60C22.3122 60 10 47.6878 10 32.5C10 17.3122 22.3122 5 37.5 5C52.6878 5 65 17.3122 65 32.5Z" stroke="white" stroke-width="4" stroke-linejoin="round"/>
</g>
<path d="M37.0464 74.3235L18.8971 52.7205L56.103 52.7205L37.0464 74.3235Z" fill="#008FDF"/>
<path d="M61.9091 32.5C61.9091 45.9808 50.9808 56.9091 37.5 56.9091C24.0192 56.9091 13.0909 45.9808 13.0909 32.5C13.0909 19.0192 24.0192 8.09091 37.5 8.09091C50.9808 8.09091 61.9091 19.0192 61.9091 32.5Z" fill="#008FDF" stroke="#008FDF" stroke-width="6.18182"/>
<ellipse cx="37.853" cy="33" rx="23" ry="23" fill="white"/>
<path d="M50.874 23.0901C47.418 20.5641 42.846 19.1741 38 19.1741C33.154 19.1741 28.58 20.5661 25.126 23.0901C21.546 25.7081 19.574 29.2281 19.574 33.0001C19.574 36.7721 21.546 40.2941 25.126 42.9101C28.582 45.4361 33.154 46.8261 38 46.8261C42.846 46.8261 47.42 45.4341 50.874 42.9101C54.454 40.2921 56.426 36.7721 56.426 33.0001C56.426 29.2281 54.454 25.7061 50.874 23.0901ZM38 44.1721C33.212 44.1721 28.918 42.6501 26.022 40.2561C26.87 40.1981 27.36 39.8081 27.722 39.5141C28.022 39.2701 28.186 39.1361 28.592 39.1361C28.998 39.1361 29.164 39.2701 29.464 39.5141C29.854 39.8321 30.39 40.2681 31.374 40.2681C32.358 40.2681 32.894 39.8321 33.284 39.5141C33.584 39.2701 33.748 39.1361 34.156 39.1361C34.564 39.1361 34.728 39.2701 35.028 39.5141C35.418 39.8321 35.954 40.2681 36.938 40.2681C37.922 40.2681 38.458 39.8321 38.848 39.5141C39.148 39.2701 39.312 39.1361 39.72 39.1361C40.198 39.1361 40.586 38.7141 40.586 38.1961C40.586 37.6781 40.198 37.2561 39.72 37.2561C38.736 37.2561 38.2 37.6921 37.81 38.0101C37.51 38.2541 37.346 38.3881 36.938 38.3881C36.53 38.3881 36.366 38.2541 36.066 38.0101C35.676 37.6921 35.14 37.2561 34.156 37.2561C33.172 37.2561 32.636 37.6921 32.246 38.0101C31.946 38.2541 31.782 38.3881 31.374 38.3881C30.966 38.3881 30.802 38.2541 30.502 38.0101C30.112 37.6921 29.576 37.2561 28.592 37.2561C27.608 37.2561 27.072 37.6921 26.682 38.0101C26.382 38.2541 26.218 38.3881 25.812 38.3881C25.406 38.3881 25.24 38.2541 24.94 38.0101C24.608 37.7381 24.166 37.3861 23.436 37.2861C22.658 35.9641 22.226 34.5161 22.226 32.9981C22.226 26.8381 29.302 21.8261 37.998 21.8261C44.002 21.8261 49.234 24.2161 51.898 27.7241C51.534 27.8821 51.266 28.0941 51.046 28.2741C50.738 28.5241 50.598 28.6401 50.212 28.6401C49.826 28.6401 49.686 28.5261 49.378 28.2741C48.98 27.9501 48.436 27.5061 47.43 27.5061C46.424 27.5061 45.88 27.9501 45.482 28.2741C45.174 28.5241 45.034 28.6381 44.648 28.6381C44.262 28.6381 44.122 28.5241 43.814 28.2721C43.416 27.9481 42.872 27.5041 41.866 27.5041C40.86 27.5041 40.316 27.9481 39.918 28.2721C39.61 28.5221 39.47 28.6361 39.084 28.6361C38.698 28.6361 38.558 28.5221 38.25 28.2701C37.852 27.9461 37.308 27.5021 36.302 27.5021C35.79 27.5021 35.374 27.9561 35.374 28.5121C35.374 29.0681 35.79 29.5221 36.302 29.5221C36.688 29.5221 36.828 29.6361 37.136 29.8881C37.534 30.2121 38.078 30.6561 39.082 30.6561C40.086 30.6561 40.632 30.2121 41.03 29.8881C41.338 29.6381 41.478 29.5241 41.864 29.5241C42.25 29.5241 42.39 29.6381 42.698 29.8901C43.096 30.2141 43.64 30.6581 44.644 30.6581C45.648 30.6581 46.194 30.2141 46.592 29.8901C46.9 29.6401 47.04 29.5261 47.426 29.5261C47.812 29.5261 47.952 29.6401 48.26 29.8921C48.658 30.2161 49.202 30.6601 50.208 30.6601C51.214 30.6601 51.758 30.2161 52.156 29.8921C52.462 29.6421 52.604 29.5281 52.984 29.5281C53.49 30.6221 53.768 31.7881 53.768 33.0001C53.768 39.1601 46.692 44.1721 37.996 44.1721H38ZM47.196 32.5821C46.212 32.5821 45.676 33.0181 45.286 33.3361C44.986 33.5801 44.822 33.7141 44.414 33.7141C44.006 33.7141 43.842 33.5801 43.542 33.3361C43.152 33.0181 42.616 32.5821 41.632 32.5821C40.648 32.5821 40.112 33.0181 39.722 33.3361C39.422 33.5801 39.258 33.7141 38.85 33.7141C38.442 33.7141 38.278 33.5801 37.978 33.3361C37.588 33.0181 37.052 32.5821 36.068 32.5821C35.084 32.5821 34.548 33.0181 34.158 33.3361C33.858 33.5801 33.694 33.7141 33.288 33.7141C32.882 33.7141 32.716 33.5801 32.416 33.3361C32.026 33.0181 31.49 32.5821 30.506 32.5821C30.028 32.5821 29.64 33.0041 29.64 33.5221C29.64 34.0401 30.028 34.4621 30.506 34.4621C30.912 34.4621 31.078 34.5961 31.378 34.8401C31.768 35.1581 32.304 35.5941 33.288 35.5941C34.272 35.5941 34.808 35.1581 35.198 34.8401C35.498 34.5961 35.662 34.4621 36.068 34.4621C36.474 34.4621 36.64 34.5961 36.94 34.8401C37.33 35.1581 37.866 35.5941 38.85 35.5941C39.834 35.5941 40.37 35.1581 40.76 34.8401C41.06 34.5961 41.224 34.4621 41.632 34.4621C42.04 34.4621 42.204 34.5961 42.504 34.8401C42.894 35.1581 43.43 35.5941 44.414 35.5941C45.398 35.5941 45.934 35.1581 46.324 34.8401C46.624 34.5961 46.788 34.4621 47.196 34.4621C47.674 34.4621 48.062 34.0401 48.062 33.5221C48.062 33.0041 47.674 32.5821 47.196 32.5821Z" fill="#008FDF"/>
<defs>
<filter id="filter0_d_463_2473" x="0" y="0" width="75" height="89.3235" filterUnits="userSpaceOnUse" color-interpolation-filters="sRGB">
<feFlood flood-opacity="0" result="BackgroundImageFix"/>
<feColorMatrix in="SourceAlpha" type="matrix" values="0 0 0 0 0 0 0 0 0 0 0 0 0 0 0 0 0 0 127 0" result="hardAlpha"/>
<feOffset dy="5"/>
<feGaussianBlur stdDeviation="4"/>
<feComposite in2="hardAlpha" operator="out"/>
<feColorMatrix type="matrix" values="0 0 0 0 0 0 0 0 0 0 0 0 0 0 0 0 0 0 0.25 0"/>
<feBlend mode="normal" in2="BackgroundImageFix" result="effect1_dropShadow_463_2473"/>
<feBlend mode="normal" in="SourceGraphic" in2="effect1_dropShadow_463_2473" result="shape"/>
</filter>
</defs>
</svg>
