<svg width="67" height="91" viewBox="0 0 67 91" fill="none" xmlns="http://www.w3.org/2000/svg">
<g filter="url(#filter0_d_47_669)">
<path d="M33.1906 1C17.7351 1 5.21387 13.8376 5.21387 29.3454C5.21387 44.8443 24.8372 81.2 33.1906 81.2C41.544 81.2 61.1674 44.8443 61.1674 29.3454C61.1674 13.8376 48.6373 1 33.1906 1Z" fill="#008FDF"/>
<path d="M33.1906 1C17.7351 1 5.21387 13.8376 5.21387 29.3454C5.21387 44.8443 24.8372 81.2 33.1906 81.2C41.544 81.2 61.1674 44.8443 61.1674 29.3454C61.1674 13.8376 48.6373 1 33.1906 1Z" stroke="white" stroke-width="2"/>
</g>
<path d="M10.2139 29C10.2139 41.7025 20.5113 52 33.2139 52C45.9164 52 56.2139 41.7025 56.2139 29C56.2139 16.2975 45.9164 6 33.2139 6C20.5113 6 10.2139 16.2975 10.2139 29Z" fill="white"/>
<path d="M46.088 19.0901C42.632 16.5641 38.06 15.1741 33.214 15.1741C28.368 15.1741 23.794 16.5661 20.34 19.0901C16.76 21.7081 14.788 25.2281 14.788 29.0001C14.788 32.7721 16.76 36.2941 20.34 38.9101C23.796 41.4361 28.368 42.8261 33.214 42.8261C38.06 42.8261 42.634 41.4341 46.088 38.9101C49.668 36.2921 51.64 32.7721 51.64 29.0001C51.64 25.2281 49.668 21.7061 46.088 19.0901ZM33.214 40.1721C28.426 40.1721 24.132 38.6501 21.236 36.2561C22.084 36.1981 22.574 35.8081 22.936 35.5141C23.236 35.2701 23.4 35.1361 23.806 35.1361C24.212 35.1361 24.378 35.2701 24.678 35.5141C25.068 35.8321 25.604 36.2681 26.588 36.2681C27.572 36.2681 28.108 35.8321 28.498 35.5141C28.798 35.2701 28.962 35.1361 29.37 35.1361C29.778 35.1361 29.942 35.2701 30.242 35.5141C30.632 35.8321 31.168 36.2681 32.152 36.2681C33.136 36.2681 33.672 35.8321 34.062 35.5141C34.362 35.2701 34.526 35.1361 34.934 35.1361C35.412 35.1361 35.8 34.7141 35.8 34.1961C35.8 33.6781 35.412 33.2561 34.934 33.2561C33.95 33.2561 33.414 33.6921 33.024 34.0101C32.724 34.2541 32.56 34.3881 32.152 34.3881C31.744 34.3881 31.58 34.2541 31.28 34.0101C30.89 33.6921 30.354 33.2561 29.37 33.2561C28.386 33.2561 27.85 33.6921 27.46 34.0101C27.16 34.2541 26.996 34.3881 26.588 34.3881C26.18 34.3881 26.016 34.2541 25.716 34.0101C25.326 33.6921 24.79 33.2561 23.806 33.2561C22.822 33.2561 22.286 33.6921 21.896 34.0101C21.596 34.2541 21.432 34.3881 21.026 34.3881C20.62 34.3881 20.454 34.2541 20.154 34.0101C19.822 33.7381 19.38 33.3861 18.65 33.2861C17.872 31.9641 17.44 30.5161 17.44 28.9981C17.44 22.8381 24.516 17.8261 33.212 17.8261C39.216 17.8261 44.448 20.2161 47.112 23.7241C46.748 23.8821 46.48 24.0941 46.26 24.2741C45.952 24.5241 45.812 24.6401 45.426 24.6401C45.04 24.6401 44.9 24.5261 44.592 24.2741C44.194 23.9501 43.65 23.5061 42.644 23.5061C41.638 23.5061 41.094 23.9501 40.696 24.2741C40.388 24.5241 40.248 24.6381 39.862 24.6381C39.476 24.6381 39.336 24.5241 39.028 24.2721C38.63 23.9481 38.086 23.5041 37.08 23.5041C36.074 23.5041 35.53 23.9481 35.132 24.2721C34.824 24.5221 34.684 24.6361 34.298 24.6361C33.912 24.6361 33.772 24.5221 33.464 24.2701C33.066 23.9461 32.522 23.5021 31.516 23.5021C31.004 23.5021 30.588 23.9561 30.588 24.5121C30.588 25.0681 31.004 25.5221 31.516 25.5221C31.902 25.5221 32.042 25.6361 32.35 25.8881C32.748 26.2121 33.292 26.6561 34.296 26.6561C35.3 26.6561 35.846 26.2121 36.244 25.8881C36.552 25.6381 36.692 25.5241 37.078 25.5241C37.464 25.5241 37.604 25.6381 37.912 25.8901C38.31 26.2141 38.854 26.6581 39.858 26.6581C40.862 26.6581 41.408 26.2141 41.806 25.8901C42.114 25.6401 42.254 25.5261 42.64 25.5261C43.026 25.5261 43.166 25.6401 43.474 25.8921C43.872 26.2161 44.416 26.6601 45.422 26.6601C46.428 26.6601 46.972 26.2161 47.37 25.8921C47.676 25.6421 47.818 25.5281 48.198 25.5281C48.704 26.6221 48.982 27.7881 48.982 29.0001C48.982 35.1601 41.906 40.1721 33.21 40.1721H33.214ZM42.41 28.5821C41.426 28.5821 40.89 29.0181 40.5 29.3361C40.2 29.5801 40.036 29.7141 39.628 29.7141C39.22 29.7141 39.056 29.5801 38.756 29.3361C38.366 29.0181 37.83 28.5821 36.846 28.5821C35.862 28.5821 35.326 29.0181 34.936 29.3361C34.636 29.5801 34.472 29.7141 34.064 29.7141C33.656 29.7141 33.492 29.5801 33.192 29.3361C32.802 29.0181 32.266 28.5821 31.282 28.5821C30.298 28.5821 29.762 29.0181 29.372 29.3361C29.072 29.5801 28.908 29.7141 28.502 29.7141C28.096 29.7141 27.93 29.5801 27.63 29.3361C27.24 29.0181 26.704 28.5821 25.72 28.5821C25.242 28.5821 24.854 29.0041 24.854 29.5221C24.854 30.0401 25.242 30.4621 25.72 30.4621C26.126 30.4621 26.292 30.5961 26.592 30.8401C26.982 31.1581 27.518 31.5941 28.502 31.5941C29.486 31.5941 30.022 31.1581 30.412 30.8401C30.712 30.5961 30.876 30.4621 31.282 30.4621C31.688 30.4621 31.854 30.5961 32.154 30.8401C32.544 31.1581 33.08 31.5941 34.064 31.5941C35.048 31.5941 35.584 31.1581 35.974 30.8401C36.274 30.5961 36.438 30.4621 36.846 30.4621C37.254 30.4621 37.418 30.5961 37.718 30.8401C38.108 31.1581 38.644 31.5941 39.628 31.5941C40.612 31.5941 41.148 31.1581 41.538 30.8401C41.838 30.5961 42.002 30.4621 42.41 30.4621C42.888 30.4621 43.276 30.0401 43.276 29.5221C43.276 29.0041 42.888 28.5821 42.41 28.5821Z" fill="#008FDF"/>
<defs>
<filter id="filter0_d_47_669" x="0.213867" y="0" width="65.9535" height="90.2" filterUnits="userSpaceOnUse" color-interpolation-filters="sRGB">
<feFlood flood-opacity="0" result="BackgroundImageFix"/>
<feColorMatrix in="SourceAlpha" type="matrix" values="0 0 0 0 0 0 0 0 0 0 0 0 0 0 0 0 0 0 127 0" result="hardAlpha"/>
<feOffset dy="4"/>
<feGaussianBlur stdDeviation="2"/>
<feComposite in2="hardAlpha" operator="out"/>
<feColorMatrix type="matrix" values="0 0 0 0 0 0 0 0 0 0 0 0 0 0 0 0 0 0 0.25 0"/>
<feBlend mode="normal" in2="BackgroundImageFix" result="effect1_dropShadow_47_669"/>
<feBlend mode="normal" in="SourceGraphic" in2="effect1_dropShadow_47_669" result="shape"/>
</filter>
</defs>
</svg>
