<svg width="75" height="90" viewBox="0 0 75 90" fill="none" xmlns="http://www.w3.org/2000/svg">
<g filter="url(#filter0_d_408_1400)">
<path d="M37.0463 74.3235L18.8971 52.7206L56.1029 52.7206L37.0463 74.3235Z" fill="#008FDF"/>
<path d="M65 32.5C65 47.6878 52.6878 60 37.5 60C22.3122 60 10 47.6878 10 32.5C10 17.3122 22.3122 5 37.5 5C52.6878 5 65 17.3122 65 32.5Z" fill="white"/>
<path d="M37.0463 74.3235L18.8971 52.7206L56.1029 52.7206L37.0463 74.3235Z" stroke="white" stroke-width="4" stroke-linejoin="round"/>
<path d="M65 32.5C65 47.6878 52.6878 60 37.5 60C22.3122 60 10 47.6878 10 32.5C10 17.3122 22.3122 5 37.5 5C52.6878 5 65 17.3122 65 32.5Z" stroke="white" stroke-width="4" stroke-linejoin="round"/>
</g>
<path d="M37.0464 74.3235L18.8971 52.7205L56.103 52.7205L37.0464 74.3235Z" fill="#FCD300"/>
<path d="M61.9091 32.5C61.9091 45.9808 50.9808 56.9091 37.5 56.9091C24.0192 56.9091 13.0909 45.9808 13.0909 32.5C13.0909 19.0192 24.0192 8.09091 37.5 8.09091C50.9808 8.09091 61.9091 19.0192 61.9091 32.5Z" fill="#FCD300" stroke="#FCD300" stroke-width="6.18182"/>
<ellipse cx="37.853" cy="33" rx="23" ry="23" fill="white"/>
<g clip-path="url(#clip0_408_1400)">
<path d="M47.8243 18.1249C47.8108 18.0956 47.7973 18.064 47.7815 18.0347C47.777 18.0257 47.7725 18.0167 47.7658 18.0077C47.4888 17.4892 46.9775 17.1105 46.3627 17.0203C46.2704 17.0068 46.178 17 46.0857 17C45.3808 17 44.7344 17.3945 44.4056 18.0122C44.4034 18.019 44.3989 18.0235 44.3966 18.0302C44.3809 18.0595 44.3673 18.0911 44.3516 18.1226C44.2975 18.2354 44.257 18.3548 44.2255 18.4788L40.0793 32.4218C39.8091 33.3325 40.2482 34.3041 41.1108 34.6986L44.1669 36.1031V47.0816C44.1669 48.1411 45.025 49 46.0835 49C47.1419 49 48 48.1411 48 47.0816V18.9365C48 18.6457 47.9347 18.3729 47.8198 18.1249H47.8243Z" fill="#D4B200"/>
<path d="M36.993 17.9736C36.993 17.4363 36.5466 17 35.9969 17C35.4473 17 35.0009 17.4363 35.0009 17.9736V18.1848C35.0009 18.1848 34.9962 18.1848 34.9939 18.1848V24.8711C34.9939 25.4084 34.5476 25.8447 33.9979 25.8447C33.4482 25.8447 33.0019 25.4084 33.0019 24.8711V18.1274H32.9948V17.9759C32.9948 17.4386 32.5485 17.0023 31.9988 17.0023C31.4491 17.0023 31.0028 17.4386 31.0028 17.9759V18.1274H30.9958V24.8711C30.9958 25.4084 30.5494 25.8447 29.9998 25.8447C29.4501 25.8447 29.0038 25.4084 29.0038 24.8711V18.1871C29.0038 18.1871 28.9991 18.1871 28.9967 18.1871V17.9736C28.9967 17.4363 28.5504 17 28.0007 17C27.451 17 27.0047 17.4363 27.0047 17.9736V20.5337C27.0047 20.559 27 20.5843 27 20.6095V26.7746C27 27.4864 27.1597 28.1615 27.4463 28.7723C27.4792 28.8412 27.5121 28.91 27.5473 28.9766C27.6389 29.1488 27.7376 29.3165 27.8504 29.4772C27.9843 29.6701 28.1323 29.8537 28.292 30.026C28.3977 30.1408 28.5105 30.251 28.6279 30.3543C28.6866 30.4071 28.7477 30.4576 28.8088 30.5058C28.9309 30.6046 29.0578 30.6987 29.1893 30.786C29.3209 30.8732 29.4571 30.9536 29.5981 31.0294C29.7038 31.0845 29.8095 31.135 29.9199 31.1855V48.046C29.9199 49.1252 30.8149 50 31.919 50C33.023 50 33.918 49.1252 33.918 48.046V31.2544C35.7221 30.5288 37 28.7906 37 26.7746V20.6095C37 20.5889 36.9977 20.5682 36.9953 20.5475V17.9759L36.993 17.9736Z" fill="#D4B200"/>
</g>
<defs>
<filter id="filter0_d_408_1400" x="0" y="0" width="75" height="89.3235" filterUnits="userSpaceOnUse" color-interpolation-filters="sRGB">
<feFlood flood-opacity="0" result="BackgroundImageFix"/>
<feColorMatrix in="SourceAlpha" type="matrix" values="0 0 0 0 0 0 0 0 0 0 0 0 0 0 0 0 0 0 127 0" result="hardAlpha"/>
<feOffset dy="5"/>
<feGaussianBlur stdDeviation="4"/>
<feComposite in2="hardAlpha" operator="out"/>
<feColorMatrix type="matrix" values="0 0 0 0 0 0 0 0 0 0 0 0 0 0 0 0 0 0 0.25 0"/>
<feBlend mode="normal" in2="BackgroundImageFix" result="effect1_dropShadow_408_1400"/>
<feBlend mode="normal" in="SourceGraphic" in2="effect1_dropShadow_408_1400" result="shape"/>
</filter>
<clipPath id="clip0_408_1400">
<rect width="32" height="32" fill="white" transform="translate(22 17)"/>
</clipPath>
</defs>
</svg>
