<svg width="66" height="91" viewBox="0 0 66 91" fill="none" xmlns="http://www.w3.org/2000/svg">
<g filter="url(#filter0_d_57_581)">
<path d="M32.9767 1C17.5212 1 5 13.8376 5 29.3454C5 44.8443 24.6234 81.2 32.9767 81.2C41.3301 81.2 60.9535 44.8443 60.9535 29.3454C60.9535 13.8376 48.4234 1 32.9767 1Z" fill="#FCD300"/>
<path d="M32.9767 1C17.5212 1 5 13.8376 5 29.3454C5 44.8443 24.6234 81.2 32.9767 81.2C41.3301 81.2 60.9535 44.8443 60.9535 29.3454C60.9535 13.8376 48.4234 1 32.9767 1Z" stroke="white" stroke-width="2"/>
</g>
<path d="M10 29C10 41.7025 20.2975 52 33 52C45.7025 52 56 41.7025 56 29C56 16.2975 45.7025 6 33 6C20.2975 6 10 16.2975 10 29Z" fill="white"/>
<g clip-path="url(#clip0_57_581)">
<path d="M42.8243 14.1249C42.8108 14.0956 42.7973 14.064 42.7815 14.0347C42.777 14.0257 42.7725 14.0167 42.7658 14.0077C42.4888 13.4892 41.9775 13.1105 41.3627 13.0203C41.2704 13.0068 41.178 13 41.0857 13C40.3808 13 39.7344 13.3945 39.4056 14.0122C39.4034 14.019 39.3989 14.0235 39.3966 14.0302C39.3809 14.0595 39.3673 14.0911 39.3516 14.1226C39.2975 14.2354 39.257 14.3548 39.2255 14.4788L35.0793 28.4218C34.8091 29.3325 35.2482 30.3041 36.1108 30.6986L39.1669 32.1031V43.0816C39.1669 44.1411 40.025 45 41.0835 45C42.1419 45 43 44.1411 43 43.0816V14.9365C43 14.6457 42.9347 14.3729 42.8198 14.1249H42.8243Z" fill="#D4B200"/>
<path d="M31.993 13.9736C31.993 13.4363 31.5466 13 30.9969 13C30.4473 13 30.0009 13.4363 30.0009 13.9736V14.1848C30.0009 14.1848 29.9962 14.1848 29.9939 14.1848V20.8711C29.9939 21.4084 29.5476 21.8447 28.9979 21.8447C28.4482 21.8447 28.0019 21.4084 28.0019 20.8711V14.1274H27.9948V13.9759C27.9948 13.4386 27.5485 13.0023 26.9988 13.0023C26.4491 13.0023 26.0028 13.4386 26.0028 13.9759V14.1274H25.9958V20.8711C25.9958 21.4084 25.5494 21.8447 24.9998 21.8447C24.4501 21.8447 24.0038 21.4084 24.0038 20.8711V14.1871C24.0038 14.1871 23.9991 14.1871 23.9967 14.1871V13.9736C23.9967 13.4363 23.5504 13 23.0007 13C22.451 13 22.0047 13.4363 22.0047 13.9736V16.5337C22.0047 16.559 22 16.5843 22 16.6095V22.7746C22 23.4864 22.1597 24.1615 22.4463 24.7723C22.4792 24.8412 22.5121 24.91 22.5473 24.9766C22.6389 25.1488 22.7376 25.3165 22.8504 25.4772C22.9843 25.6701 23.1323 25.8537 23.292 26.026C23.3977 26.1408 23.5105 26.251 23.6279 26.3543C23.6866 26.4071 23.7477 26.4576 23.8088 26.5058C23.9309 26.6046 24.0578 26.6987 24.1893 26.786C24.3209 26.8732 24.4571 26.9536 24.5981 27.0294C24.7038 27.0845 24.8095 27.135 24.9199 27.1855V44.046C24.9199 45.1252 25.8149 46 26.919 46C28.023 46 28.918 45.1252 28.918 44.046V27.2544C30.7221 26.5288 32 24.7906 32 22.7746V16.6095C32 16.5889 31.9977 16.5682 31.9953 16.5475V13.9759L31.993 13.9736Z" fill="#D4B200"/>
</g>
<defs>
<filter id="filter0_d_57_581" x="0" y="0" width="65.9536" height="90.2" filterUnits="userSpaceOnUse" color-interpolation-filters="sRGB">
<feFlood flood-opacity="0" result="BackgroundImageFix"/>
<feColorMatrix in="SourceAlpha" type="matrix" values="0 0 0 0 0 0 0 0 0 0 0 0 0 0 0 0 0 0 127 0" result="hardAlpha"/>
<feOffset dy="4"/>
<feGaussianBlur stdDeviation="2"/>
<feComposite in2="hardAlpha" operator="out"/>
<feColorMatrix type="matrix" values="0 0 0 0 0 0 0 0 0 0 0 0 0 0 0 0 0 0 0.25 0"/>
<feBlend mode="normal" in2="BackgroundImageFix" result="effect1_dropShadow_57_581"/>
<feBlend mode="normal" in="SourceGraphic" in2="effect1_dropShadow_57_581" result="shape"/>
</filter>
<clipPath id="clip0_57_581">
<rect width="32" height="32" fill="white" transform="translate(17 13)"/>
</clipPath>
</defs>
</svg>
