<svg width="75" height="90" viewBox="0 0 75 90" fill="none" xmlns="http://www.w3.org/2000/svg">
<g filter="url(#filter0_d_433_1893)">
<path d="M37.0463 74.3235L18.8971 52.7206L56.1029 52.7206L37.0463 74.3235Z" fill="#008FDF"/>
<path d="M65 32.5C65 47.6878 52.6878 60 37.5 60C22.3122 60 10 47.6878 10 32.5C10 17.3122 22.3122 5 37.5 5C52.6878 5 65 17.3122 65 32.5Z" fill="white"/>
<path d="M37.0463 74.3235L18.8971 52.7206L56.1029 52.7206L37.0463 74.3235Z" stroke="white" stroke-width="4" stroke-linejoin="round"/>
<path d="M65 32.5C65 47.6878 52.6878 60 37.5 60C22.3122 60 10 47.6878 10 32.5C10 17.3122 22.3122 5 37.5 5C52.6878 5 65 17.3122 65 32.5Z" stroke="white" stroke-width="4" stroke-linejoin="round"/>
</g>
<path d="M37.0462 74.3237L18.897 52.7208L56.1029 52.7208L37.0462 74.3237Z" fill="#008FDF"/>
<path d="M61.9091 32.5C61.9091 45.9808 50.9808 56.9091 37.5 56.9091C24.0192 56.9091 13.0909 45.9808 13.0909 32.5C13.0909 19.0192 24.0192 8.09091 37.5 8.09091C50.9808 8.09091 61.9091 19.0192 61.9091 32.5Z" fill="#008FDF" stroke="#008FDF" stroke-width="6.18182"/>
<ellipse cx="37.8529" cy="33" rx="23" ry="23" fill="white"/>
<g clip-path="url(#clip0_433_1893)">
<path d="M54 42.6892C54 42.0716 53.4992 41.5708 52.8816 41.5708C51.2832 41.5708 50.4336 42.182 49.752 42.6732C49.1824 43.0828 48.8064 43.3548 47.928 43.3548C47.0496 43.3548 46.6736 43.0844 46.104 42.6732C45.4224 42.182 44.5728 41.5708 42.9744 41.5708C41.376 41.5708 40.5264 42.182 39.8448 42.6732C39.2752 43.0828 38.8992 43.3548 38.0208 43.3548C37.1424 43.3548 36.7664 43.0844 36.1968 42.6732C35.5152 42.182 34.6656 41.5708 33.0672 41.5708C31.4688 41.5708 30.6192 42.182 29.9376 42.6732C29.368 43.0828 28.992 43.3548 28.1152 43.3548C27.2384 43.3548 26.8608 43.0844 26.2912 42.6732C25.6096 42.182 24.76 41.5708 23.1616 41.5708C22.544 41.5708 22.0432 42.0716 22.0432 42.6892C22.0432 43.0188 22 43.5164 22 43.5164V48.9948H53.9776V43.5164C53.9776 43.5164 54 43.0188 54 42.6892Z" fill="#008FDF"/>
<path d="M47.928 39.7103C46.3296 39.7103 45.48 39.0991 44.7984 38.6079C44.2288 38.1983 43.8528 37.9263 42.9744 37.9263C42.096 37.9263 41.72 38.1967 41.1504 38.6079C40.4688 39.0991 39.6192 39.7103 38.0208 39.7103C36.4224 39.7103 35.5728 39.0991 34.8912 38.6079C34.3216 38.1983 33.9456 37.9263 33.0688 37.9263C32.192 37.9263 31.8144 38.1967 31.2448 38.6079C30.5632 39.0991 29.7136 39.7103 28.1152 39.7103C26.5168 39.7103 25.6672 39.0991 24.9856 38.6079C24.416 38.1983 24.04 37.9263 23.1632 37.9263C22.5456 37.9263 22.0448 37.4255 22.0448 36.8079C22.0448 36.1903 22.5456 35.6895 23.1632 35.6895C24.7616 35.6895 25.6112 36.3007 26.2928 36.7919C26.8624 37.2015 27.2384 37.4735 28.1168 37.4735C28.9952 37.4735 29.3712 37.2031 29.9392 36.7919C30.6208 36.3007 31.4704 35.6895 33.0688 35.6895C34.6672 35.6895 35.5168 36.3007 36.1984 36.7919C36.768 37.2015 37.144 37.4735 38.0224 37.4735C38.9008 37.4735 39.2768 37.2031 39.8464 36.7919C40.528 36.3007 41.3776 35.6895 42.976 35.6895C44.5744 35.6895 45.424 36.3007 46.1056 36.7919C46.6752 37.2015 47.0512 37.4735 47.9296 37.4735C48.808 37.4735 49.184 37.2031 49.7536 36.7919C50.4352 36.3007 51.2848 35.6895 52.8832 35.6895C53.5008 35.6895 54.0016 36.1903 54.0016 36.8079C54.0016 37.4255 53.5008 37.9263 52.8832 37.9263C52.0048 37.9263 51.6288 38.1967 51.0592 38.6079C50.3776 39.0991 49.528 39.7103 47.9296 39.7103H47.928Z" fill="#008FDF"/>
<path d="M39.3136 21.6816C38.0528 21.6816 37.0256 22.7072 37.0256 23.9696C37.0256 25.232 38.0512 26.2576 39.3136 26.2576C40.576 26.2576 41.6016 25.232 41.6016 23.9696C41.6016 22.7072 40.576 21.6816 39.3136 21.6816ZM39.3136 25.4496C38.496 25.4496 37.8336 24.7872 37.8336 23.9696C37.8336 23.152 38.496 22.4896 39.3136 22.4896C40.1312 22.4896 40.7936 23.152 40.7936 23.9696C40.7936 24.7872 40.1312 25.4496 39.3136 25.4496Z" fill="#008FDF"/>
<path d="M41.8625 21.0974L40.1009 20.355C39.9105 20.275 39.7057 20.2334 39.4977 20.2334H29.5169C28.6593 20.2334 27.9633 20.9294 27.9633 21.787V25.5502C27.9633 26.4078 28.6593 27.1038 29.5169 27.1038H41.2593C42.1169 27.1038 42.8129 26.4078 42.8129 25.5502V22.5278C42.8129 21.9022 42.4385 21.3374 41.8625 21.0958V21.0974ZM39.3137 26.7374C37.7873 26.7374 36.5457 25.4958 36.5457 23.9694C36.5457 22.443 37.7873 21.2014 39.3137 21.2014C40.8401 21.2014 42.0817 22.443 42.0817 23.9694C42.0817 25.4958 40.8401 26.7374 39.3137 26.7374Z" fill="#008FDF"/>
<path d="M33.0544 22.7298C32.7792 22.3298 32.2304 22.229 31.8304 22.5042L26.7168 26.0258V23.749C26.7168 23.0866 26.1792 22.549 25.5168 22.549C24.8544 22.549 24.3168 23.0866 24.3168 23.749V47.4786C24.3168 48.141 24.8544 48.6786 25.5168 48.6786C26.1792 48.6786 26.7168 48.141 26.7168 47.4786V28.1634L32.8288 23.9538C33.2288 23.6786 33.3296 23.1298 33.0544 22.7298Z" fill="#008FDF"/>
</g>
<defs>
<filter id="filter0_d_433_1893" x="0" y="0" width="75" height="89.3237" filterUnits="userSpaceOnUse" color-interpolation-filters="sRGB">
<feFlood flood-opacity="0" result="BackgroundImageFix"/>
<feColorMatrix in="SourceAlpha" type="matrix" values="0 0 0 0 0 0 0 0 0 0 0 0 0 0 0 0 0 0 127 0" result="hardAlpha"/>
<feOffset dy="5"/>
<feGaussianBlur stdDeviation="4"/>
<feComposite in2="hardAlpha" operator="out"/>
<feColorMatrix type="matrix" values="0 0 0 0 0 0 0 0 0 0 0 0 0 0 0 0 0 0 0.25 0"/>
<feBlend mode="normal" in2="BackgroundImageFix" result="effect1_dropShadow_433_1893"/>
<feBlend mode="normal" in="SourceGraphic" in2="effect1_dropShadow_433_1893" result="shape"/>
</filter>
<clipPath id="clip0_433_1893">
<rect width="32" height="32" fill="white" transform="translate(22 17)"/>
</clipPath>
</defs>
</svg>
