<svg width="75" height="90" viewBox="0 0 75 90" fill="none" xmlns="http://www.w3.org/2000/svg">
<g filter="url(#filter0_d_463_2483)">
<path d="M37.0463 74.3235L18.8971 52.7206L56.1029 52.7206L37.0463 74.3235Z" fill="#008FDF"/>
<path d="M65 32.5C65 47.6878 52.6878 60 37.5 60C22.3122 60 10 47.6878 10 32.5C10 17.3122 22.3122 5 37.5 5C52.6878 5 65 17.3122 65 32.5Z" fill="white"/>
<path d="M37.0463 74.3235L18.8971 52.7206L56.1029 52.7206L37.0463 74.3235Z" stroke="white" stroke-width="4" stroke-linejoin="round"/>
<path d="M65 32.5C65 47.6878 52.6878 60 37.5 60C22.3122 60 10 47.6878 10 32.5C10 17.3122 22.3122 5 37.5 5C52.6878 5 65 17.3122 65 32.5Z" stroke="white" stroke-width="4" stroke-linejoin="round"/>
</g>
<path d="M37.0464 74.3235L18.8971 52.7205L56.103 52.7205L37.0464 74.3235Z" fill="#FF6B00"/>
<path d="M61.9091 32.5C61.9091 45.9808 50.9808 56.9091 37.5 56.9091C24.0192 56.9091 13.0909 45.9808 13.0909 32.5C13.0909 19.0192 24.0192 8.09091 37.5 8.09091C50.9808 8.09091 61.9091 19.0192 61.9091 32.5Z" fill="#FF6B00" stroke="#FF6B00" stroke-width="6.18182"/>
<ellipse cx="37.853" cy="33" rx="23" ry="23" fill="white"/>
<path d="M48.436 33.596L46.788 28.79H35.356L29.798 33.558H29.652L24 35.324V38.05L24.706 39.652H28.064C28.32 41.384 29.812 42.72 31.614 42.72C33.416 42.72 34.908 41.384 35.164 39.652H41.374C41.63 41.384 43.122 42.72 44.924 42.72C46.726 42.72 48.218 41.384 48.474 39.652H50.668L51.374 38.108V35.324L48.434 33.596H48.436ZM32.952 40.418C32.89 40.482 32.822 40.542 32.752 40.596C32.742 40.604 32.73 40.612 32.72 40.62C32.648 40.674 32.572 40.724 32.492 40.766C32.49 40.766 32.486 40.768 32.484 40.77C32.408 40.81 32.328 40.844 32.244 40.874C32.23 40.88 32.216 40.884 32.202 40.89C32.12 40.918 32.034 40.94 31.946 40.954C31.928 40.958 31.912 40.96 31.894 40.962C31.802 40.976 31.71 40.986 31.616 40.986C31.522 40.986 31.428 40.976 31.338 40.962C31.32 40.96 31.304 40.958 31.286 40.954C31.198 40.938 31.114 40.916 31.03 40.89C31.016 40.886 31.002 40.88 30.988 40.874C30.906 40.844 30.826 40.81 30.748 40.77C30.746 40.77 30.742 40.768 30.74 40.766C30.66 40.724 30.586 40.674 30.514 40.62C30.504 40.612 30.492 40.604 30.482 40.596C30.412 40.542 30.344 40.482 30.282 40.418C30.278 40.414 30.274 40.408 30.268 40.404C30.204 40.336 30.144 40.264 30.092 40.188C30.038 40.112 29.992 40.03 29.95 39.946C29.946 39.938 29.942 39.93 29.938 39.922C29.898 39.836 29.862 39.748 29.836 39.656C29.786 39.49 29.76 39.314 29.76 39.13C29.76 38.104 30.592 37.272 31.618 37.272C32.644 37.272 33.476 38.104 33.476 39.13C33.476 39.414 33.41 39.682 33.296 39.922C33.292 39.93 33.288 39.938 33.284 39.946C33.242 40.03 33.196 40.112 33.142 40.19C33.088 40.266 33.03 40.338 32.964 40.406C32.96 40.41 32.956 40.416 32.95 40.42L32.952 40.418ZM39.366 33.736H34.42L36.624 30.734H39.366V33.736ZM40.778 33.736V30.734H44.132L44.84 33.736H40.778ZM46.26 40.418C46.198 40.482 46.13 40.542 46.06 40.596C46.05 40.604 46.038 40.612 46.028 40.62C45.956 40.674 45.88 40.724 45.802 40.766C45.8 40.766 45.796 40.768 45.794 40.77C45.718 40.81 45.638 40.844 45.554 40.874C45.54 40.88 45.526 40.884 45.512 40.89C45.43 40.918 45.344 40.94 45.256 40.954C45.238 40.958 45.222 40.96 45.204 40.962C45.112 40.976 45.02 40.986 44.926 40.986C44.832 40.986 44.738 40.976 44.648 40.962C44.63 40.96 44.614 40.958 44.596 40.954C44.508 40.938 44.424 40.916 44.34 40.89C44.326 40.886 44.312 40.88 44.298 40.874C44.216 40.844 44.134 40.81 44.058 40.77C44.056 40.77 44.052 40.768 44.05 40.766C43.97 40.724 43.896 40.674 43.822 40.62C43.812 40.612 43.8 40.604 43.79 40.596C43.72 40.542 43.652 40.482 43.59 40.418C43.586 40.414 43.582 40.408 43.576 40.404C43.512 40.336 43.452 40.264 43.4 40.188C43.346 40.112 43.3 40.03 43.258 39.946C43.254 39.938 43.25 39.93 43.246 39.922C43.206 39.836 43.17 39.748 43.144 39.656C43.094 39.49 43.068 39.314 43.068 39.13C43.068 38.104 43.9 37.272 44.926 37.272C45.952 37.272 46.784 38.104 46.784 39.13C46.784 39.414 46.718 39.682 46.604 39.922C46.6 39.93 46.596 39.938 46.592 39.946C46.55 40.03 46.504 40.112 46.45 40.188C46.396 40.266 46.338 40.338 46.274 40.404C46.27 40.408 46.266 40.414 46.26 40.418Z" fill="#FF6B00"/>
<path d="M22 26.6861C22 26.2921 22.298 25.8501 22.664 25.7041L37.236 19.8761C37.602 19.7301 38.2 19.7301 38.564 19.8761L53.136 25.7041C53.502 25.8501 53.8 26.2921 53.8 26.6861V45.2841C53.8 45.6781 53.478 46.0001 53.084 46.0001H22.716C22.322 46.0001 22 45.6781 22 45.2841V26.6861Z" stroke="#FF6B00" stroke-width="1.5936" stroke-miterlimit="10"/>
<defs>
<filter id="filter0_d_463_2483" x="0" y="0" width="75" height="89.3235" filterUnits="userSpaceOnUse" color-interpolation-filters="sRGB">
<feFlood flood-opacity="0" result="BackgroundImageFix"/>
<feColorMatrix in="SourceAlpha" type="matrix" values="0 0 0 0 0 0 0 0 0 0 0 0 0 0 0 0 0 0 127 0" result="hardAlpha"/>
<feOffset dy="5"/>
<feGaussianBlur stdDeviation="4"/>
<feComposite in2="hardAlpha" operator="out"/>
<feColorMatrix type="matrix" values="0 0 0 0 0 0 0 0 0 0 0 0 0 0 0 0 0 0 0.25 0"/>
<feBlend mode="normal" in2="BackgroundImageFix" result="effect1_dropShadow_463_2483"/>
<feBlend mode="normal" in="SourceGraphic" in2="effect1_dropShadow_463_2483" result="shape"/>
</filter>
</defs>
</svg>
