<svg width="67" height="91" viewBox="0 0 67 91" fill="none" xmlns="http://www.w3.org/2000/svg">
<g filter="url(#filter0_d_22_840)">
<path d="M33.1907 1.30005C17.7352 1.30005 5.21393 14.1377 5.21393 29.6454C5.21393 45.1443 24.8373 81.5 33.1907 81.5C41.544 81.5 61.1674 45.1443 61.1674 29.6454C61.1674 14.1377 48.6374 1.30005 33.1907 1.30005Z" fill="#FF6B00"/>
<path d="M33.1907 1.30005C17.7352 1.30005 5.21393 14.1377 5.21393 29.6454C5.21393 45.1443 24.8373 81.5 33.1907 81.5C41.544 81.5 61.1674 45.1443 61.1674 29.6454C61.1674 14.1377 48.6374 1.30005 33.1907 1.30005Z" stroke="white" stroke-width="2"/>
</g>
<path d="M10.2139 29.3C10.2139 42.0026 20.5114 52.3 33.2139 52.3C45.9165 52.3 56.2139 42.0026 56.2139 29.3C56.2139 16.5975 45.9165 6.30005 33.2139 6.30005C20.5114 6.30005 10.2139 16.5975 10.2139 29.3Z" fill="white"/>
<path d="M44.1717 26.9258L42.4413 21.8795H30.4377L24.6018 26.8859H24.4485L18.5139 28.7402V31.6025L19.2552 33.2846H22.7811C23.0499 35.1032 24.6165 36.506 26.5086 36.506C28.4007 36.506 29.9673 35.1032 30.2361 33.2846H36.7566C37.0254 35.1032 38.592 36.506 40.4841 36.506C42.3762 36.506 43.9428 35.1032 44.2116 33.2846H46.5153L47.2566 31.6634V28.7402L44.1696 26.9258H44.1717ZM27.9135 34.0889C27.8484 34.1561 27.777 34.2191 27.7035 34.2758C27.693 34.2842 27.6804 34.2926 27.6699 34.301C27.5943 34.3577 27.5145 34.4102 27.4305 34.4543C27.4284 34.4543 27.4242 34.4564 27.4221 34.4585C27.3423 34.5005 27.2583 34.5362 27.1701 34.5677C27.1554 34.574 27.1407 34.5782 27.126 34.5845C27.0399 34.6139 26.9496 34.637 26.8572 34.6517C26.8383 34.6559 26.8215 34.658 26.8026 34.6601C26.706 34.6748 26.6094 34.6853 26.5107 34.6853C26.412 34.6853 26.3133 34.6748 26.2188 34.6601C26.1999 34.658 26.1831 34.6559 26.1642 34.6517C26.0718 34.6349 25.9836 34.6118 25.8954 34.5845C25.8807 34.5803 25.866 34.574 25.8513 34.5677C25.7652 34.5362 25.6812 34.5005 25.5993 34.4585C25.5972 34.4585 25.593 34.4564 25.5909 34.4543C25.5069 34.4102 25.4292 34.3577 25.3536 34.301C25.3431 34.2926 25.3305 34.2842 25.32 34.2758C25.2465 34.2191 25.1751 34.1561 25.11 34.0889C25.1058 34.0847 25.1016 34.0784 25.0953 34.0742C25.0281 34.0028 24.9651 33.9272 24.9105 33.8474C24.8538 33.7676 24.8055 33.6815 24.7614 33.5933C24.7572 33.5849 24.753 33.5765 24.7488 33.5681C24.7068 33.4778 24.669 33.3854 24.6417 33.2888C24.5892 33.1145 24.5619 32.9297 24.5619 32.7365C24.5619 31.6592 25.4355 30.7856 26.5128 30.7856C27.5901 30.7856 28.4637 31.6592 28.4637 32.7365C28.4637 33.0347 28.3944 33.3161 28.2747 33.5681C28.2705 33.5765 28.2663 33.5849 28.2621 33.5933C28.218 33.6815 28.1697 33.7676 28.113 33.8495C28.0563 33.9293 27.9954 34.0049 27.9261 34.0763C27.9219 34.0805 27.9177 34.0868 27.9114 34.091L27.9135 34.0889ZM34.6482 27.0728H29.4549L31.7691 23.9207H34.6482V27.0728ZM36.1308 27.0728V23.9207H39.6525L40.3959 27.0728H36.1308ZM41.8869 34.0889C41.8218 34.1561 41.7504 34.2191 41.6769 34.2758C41.6664 34.2842 41.6538 34.2926 41.6433 34.301C41.5677 34.3577 41.4879 34.4102 41.406 34.4543C41.4039 34.4543 41.3997 34.4564 41.3976 34.4585C41.3178 34.5005 41.2338 34.5362 41.1456 34.5677C41.1309 34.574 41.1162 34.5782 41.1015 34.5845C41.0154 34.6139 40.9251 34.637 40.8327 34.6517C40.8138 34.6559 40.797 34.658 40.7781 34.6601C40.6815 34.6748 40.5849 34.6853 40.4862 34.6853C40.3875 34.6853 40.2888 34.6748 40.1943 34.6601C40.1754 34.658 40.1586 34.6559 40.1397 34.6517C40.0473 34.6349 39.9591 34.6118 39.8709 34.5845C39.8562 34.5803 39.8415 34.574 39.8268 34.5677C39.7407 34.5362 39.6546 34.5005 39.5748 34.4585C39.5727 34.4585 39.5685 34.4564 39.5664 34.4543C39.4824 34.4102 39.4047 34.3577 39.327 34.301C39.3165 34.2926 39.3039 34.2842 39.2934 34.2758C39.2199 34.2191 39.1485 34.1561 39.0834 34.0889C39.0792 34.0847 39.075 34.0784 39.0687 34.0742C39.0015 34.0028 38.9385 33.9272 38.8839 33.8474C38.8272 33.7676 38.7789 33.6815 38.7348 33.5933C38.7306 33.5849 38.7264 33.5765 38.7222 33.5681C38.6802 33.4778 38.6424 33.3854 38.6151 33.2888C38.5626 33.1145 38.5353 32.9297 38.5353 32.7365C38.5353 31.6592 39.4089 30.7856 40.4862 30.7856C41.5635 30.7856 42.4371 31.6592 42.4371 32.7365C42.4371 33.0347 42.3678 33.3161 42.2481 33.5681C42.2439 33.5765 42.2397 33.5849 42.2355 33.5933C42.1914 33.6815 42.1431 33.7676 42.0864 33.8474C42.0297 33.9293 41.9688 34.0049 41.9016 34.0742C41.8974 34.0784 41.8932 34.0847 41.8869 34.0889Z" fill="#FF6B00"/>
<path d="M16.4139 19.6704C16.4139 19.2567 16.7268 18.7926 17.1111 18.6393L32.4117 12.5199C32.796 12.3666 33.4239 12.3666 33.8061 12.5199L49.1067 18.6393C49.491 18.7926 49.8039 19.2567 49.8039 19.6704V39.1983C49.8039 39.612 49.4658 39.9501 49.0521 39.9501H17.1657C16.752 39.9501 16.4139 39.612 16.4139 39.1983V19.6704Z" stroke="#FF6B00" stroke-width="1.5936" stroke-miterlimit="10"/>
<defs>
<filter id="filter0_d_22_840" x="0.213928" y="0.300049" width="65.9535" height="90.2" filterUnits="userSpaceOnUse" color-interpolation-filters="sRGB">
<feFlood flood-opacity="0" result="BackgroundImageFix"/>
<feColorMatrix in="SourceAlpha" type="matrix" values="0 0 0 0 0 0 0 0 0 0 0 0 0 0 0 0 0 0 127 0" result="hardAlpha"/>
<feOffset dy="4"/>
<feGaussianBlur stdDeviation="2"/>
<feComposite in2="hardAlpha" operator="out"/>
<feColorMatrix type="matrix" values="0 0 0 0 0 0 0 0 0 0 0 0 0 0 0 0 0 0 0.25 0"/>
<feBlend mode="normal" in2="BackgroundImageFix" result="effect1_dropShadow_22_840"/>
<feBlend mode="normal" in="SourceGraphic" in2="effect1_dropShadow_22_840" result="shape"/>
</filter>
</defs>
</svg>
