<svg width="75" height="90" viewBox="0 0 75 90" fill="none" xmlns="http://www.w3.org/2000/svg">
<g filter="url(#filter0_d_420_1740)">
<path d="M37.0463 74.3235L18.8971 52.7206L56.1029 52.7206L37.0463 74.3235Z" fill="#008FDF"/>
<path d="M65 32.5C65 47.6878 52.6878 60 37.5 60C22.3122 60 10 47.6878 10 32.5C10 17.3122 22.3122 5 37.5 5C52.6878 5 65 17.3122 65 32.5Z" fill="white"/>
<path d="M37.0463 74.3235L18.8971 52.7206L56.1029 52.7206L37.0463 74.3235Z" stroke="white" stroke-width="4" stroke-linejoin="round"/>
<path d="M65 32.5C65 47.6878 52.6878 60 37.5 60C22.3122 60 10 47.6878 10 32.5C10 17.3122 22.3122 5 37.5 5C52.6878 5 65 17.3122 65 32.5Z" stroke="white" stroke-width="4" stroke-linejoin="round"/>
</g>
<path d="M37.0464 74.3235L18.8971 52.7205L56.103 52.7205L37.0464 74.3235Z" fill="#008FDF"/>
<path d="M61.9091 32.5C61.9091 45.9808 50.9808 56.9091 37.5 56.9091C24.0192 56.9091 13.0909 45.9808 13.0909 32.5C13.0909 19.0192 24.0192 8.09091 37.5 8.09091C50.9808 8.09091 61.9091 19.0192 61.9091 32.5Z" fill="#008FDF" stroke="#008FDF" stroke-width="6.18182"/>
<ellipse cx="37.853" cy="33" rx="23" ry="23" fill="white"/>
<path d="M28.9699 33.0339H26.5979V34.1479H28.9699V33.0339Z" fill="#008FDF"/>
<path d="M37.3999 15C27.4579 15 19.3999 23.058 19.3999 33C19.3999 42.942 27.4579 51 37.3999 51C47.3419 51 55.3999 42.942 55.3999 33C55.3999 23.058 47.3419 15 37.3999 15ZM37.0219 39.638C35.9819 38.63 35.1259 37.44 34.4519 36.062C34.1639 35.484 33.9659 34.928 33.8579 34.394C33.6719 35.302 33.4599 36.028 33.2219 36.574C32.6879 37.81 31.9299 38.878 30.9459 39.78L30.0239 38.632L29.4639 39.062C29.2639 38.598 29.1059 38.24 28.9919 37.988L28.8959 38.036C27.5779 38.696 26.2619 39.216 24.9439 39.594L24.3419 38.296C24.6019 38.232 24.8459 38.168 25.0739 38.104L25.2379 38.062V30.666C25.1379 30.748 25.0139 30.844 24.8679 30.954L24.1839 29.73C25.4139 28.814 26.3539 27.686 26.9999 26.346H28.4619C29.3419 27.17 30.1499 28.01 30.8879 28.862L29.9659 29.86C29.4699 29.194 28.8519 28.46 28.1139 27.658L27.9079 27.44C27.3339 28.442 26.6979 29.286 25.9999 29.97H27.2639V28.61H28.5219V29.97H30.2719V35.172H26.5939V37.654C27.3359 37.398 27.9619 37.166 28.4679 36.956C28.2619 36.586 28.0419 36.23 27.8039 35.882L28.9379 35.356C29.5479 36.19 30.0679 37.064 30.4959 37.98L30.5299 38.062C31.3099 37.282 31.9299 36.29 32.3899 35.082C32.7319 34.202 32.9659 33.202 33.0939 32.082C33.1439 31.668 33.1699 31.296 33.1699 30.968V29.888H32.4519C32.1279 30.986 31.7539 31.904 31.3299 32.642L30.3119 31.638C31.0819 30.252 31.6259 28.462 31.9459 26.264L33.3059 26.516C33.1919 27.19 33.0499 27.866 32.8819 28.54H36.8459L37.5919 29.128C37.2599 30.426 36.8579 31.58 36.3879 32.586L35.1979 32.08C35.5719 31.282 35.8539 30.552 36.0459 29.886H34.4799V31.008C34.4799 33.696 35.6199 36.082 37.8979 38.166L37.0159 39.636L37.0219 39.638ZM40.1459 37.656C39.9139 37.874 39.6039 38.142 39.2159 38.456L38.1359 37.24C40.3239 35.664 41.6719 33.606 42.1819 31.068H38.5859V29.694H43.1179L43.8759 30.44C43.6119 31.816 43.2599 32.988 42.8239 33.954C42.1959 35.34 41.3019 36.574 40.1439 37.66L40.1459 37.656ZM45.8759 32.372V38.332C45.8759 38.784 45.7659 39.1 45.5479 39.282C45.3239 39.468 44.9159 39.562 44.3239 39.562C43.6179 39.562 42.9779 39.526 42.4039 39.452L42.1239 37.9C42.9119 38.01 43.5279 38.064 43.9699 38.064C44.1619 38.064 44.2759 38.022 44.3119 37.94C44.3399 37.886 44.3539 37.802 44.3539 37.688V26.348H45.8779V28.938C46.0739 29.808 46.3859 30.672 46.8139 31.528C47.9859 30.54 49.0399 29.476 49.9799 28.336L51.2239 29.368C49.9339 30.762 48.6899 31.868 47.4919 32.684C47.5139 32.716 47.5379 32.75 47.5599 32.786C48.5539 34.294 49.9879 35.62 51.8659 36.764L50.8879 38.104C48.7139 36.796 47.0439 34.884 45.8779 32.368L45.8759 32.372Z" fill="#008FDF"/>
<path d="M28.9699 30.998H26.5979V32.03H28.9699V30.998Z" fill="black"/>
<defs>
<filter id="filter0_d_420_1740" x="0" y="0" width="75" height="89.3235" filterUnits="userSpaceOnUse" color-interpolation-filters="sRGB">
<feFlood flood-opacity="0" result="BackgroundImageFix"/>
<feColorMatrix in="SourceAlpha" type="matrix" values="0 0 0 0 0 0 0 0 0 0 0 0 0 0 0 0 0 0 127 0" result="hardAlpha"/>
<feOffset dy="5"/>
<feGaussianBlur stdDeviation="4"/>
<feComposite in2="hardAlpha" operator="out"/>
<feColorMatrix type="matrix" values="0 0 0 0 0 0 0 0 0 0 0 0 0 0 0 0 0 0 0.25 0"/>
<feBlend mode="normal" in2="BackgroundImageFix" result="effect1_dropShadow_420_1740"/>
<feBlend mode="normal" in="SourceGraphic" in2="effect1_dropShadow_420_1740" result="shape"/>
</filter>
</defs>
</svg>
