<svg width="75" height="90" viewBox="0 0 75 90" fill="none" xmlns="http://www.w3.org/2000/svg">
<g filter="url(#filter0_d_415_1615)">
<path d="M37.0463 74.3235L18.8971 52.7206L56.1029 52.7206L37.0463 74.3235Z" fill="#008FDF"/>
<path d="M65 32.5C65 47.6878 52.6878 60 37.5 60C22.3122 60 10 47.6878 10 32.5C10 17.3122 22.3122 5 37.5 5C52.6878 5 65 17.3122 65 32.5Z" fill="white"/>
<path d="M37.0463 74.3235L18.8971 52.7206L56.1029 52.7206L37.0463 74.3235Z" stroke="white" stroke-width="4" stroke-linejoin="round"/>
<path d="M65 32.5C65 47.6878 52.6878 60 37.5 60C22.3122 60 10 47.6878 10 32.5C10 17.3122 22.3122 5 37.5 5C52.6878 5 65 17.3122 65 32.5Z" stroke="white" stroke-width="4" stroke-linejoin="round"/>
</g>
<path d="M37.0464 74.3235L18.8971 52.7205L56.103 52.7205L37.0464 74.3235Z" fill="#A76400"/>
<path d="M61.9091 32.5C61.9091 45.9808 50.9808 56.9091 37.5 56.9091C24.0192 56.9091 13.0909 45.9808 13.0909 32.5C13.0909 19.0192 24.0192 8.09091 37.5 8.09091C50.9808 8.09091 61.9091 19.0192 61.9091 32.5Z" fill="#A76400" stroke="#A76400" stroke-width="6.18182"/>
<ellipse cx="37.853" cy="33" rx="23" ry="23" fill="white"/>
<path d="M37.066 34.0759C36.46 34.9679 36.158 36.0039 36.158 37.1799C36.158 38.0379 36.286 38.7099 36.542 39.1939C36.7 39.4939 36.854 39.6419 37.01 39.6419C37.22 39.6419 37.456 39.3339 37.718 38.7159C38.358 37.2139 38.792 35.2299 39.02 32.7639C38.504 32.8419 38.074 33.0259 37.728 33.3179C37.506 33.5079 37.288 33.7599 37.068 34.0739L37.066 34.0759Z" fill="#A76400"/>
<path d="M55.266 19.142L20.51 25.522C20.216 25.576 20 25.834 20 26.132V29.216C20 29.604 20.352 29.898 20.734 29.828L23.276 29.362C23.658 29.292 24.01 29.584 24.01 29.972V46.248C24.01 46.592 24.288 46.87 24.632 46.87H52.856C53.2 46.87 53.478 46.592 53.478 46.248V24.334C53.478 24.034 53.692 23.778 53.988 23.724L55.496 23.448C55.79 23.394 56.006 23.136 56.006 22.838V19.754C56.006 19.366 55.654 19.072 55.272 19.144L55.266 19.142ZM46.634 31.14C48.098 31.416 49.318 31.768 50.294 32.2L49.936 33.288C48.888 32.86 47.668 32.516 46.276 32.252L46.634 31.14ZM34.538 41.406H26.04V40.19H29.752V35.294H26.594V34.088H29.752V30.962H30.76V34.088H33.982V35.294H30.76V40.19H34.538V41.406ZM40.188 41.586L39.672 40.416C41.382 39.842 42.236 38.536 42.236 36.498C42.236 35.61 42.064 34.844 41.72 34.204C41.336 33.482 40.75 33.018 39.964 32.812C39.792 34.614 39.558 36.088 39.26 37.238C39.056 38.042 38.802 38.8 38.5 39.514C38.064 40.532 37.566 41.04 37.01 41.04C36.596 41.04 36.228 40.792 35.904 40.294C35.698 39.98 35.53 39.594 35.402 39.136C35.234 38.542 35.148 37.904 35.148 37.22C35.148 36.114 35.376 35.094 35.834 34.162C36.296 33.212 36.898 32.52 37.638 32.09C38.176 31.776 38.768 31.618 39.41 31.618C40.414 31.618 41.268 31.978 41.97 32.696C42.832 33.578 43.262 34.826 43.262 36.44C43.262 39.146 42.236 40.862 40.184 41.588L40.188 41.586ZM49.766 40.754C49.116 41.266 48.116 41.628 46.762 41.838L46.36 40.684C47.6 40.494 48.522 40.176 49.124 39.73C49.796 39.238 50.132 38.338 50.132 37.034C50.132 36.444 50.036 36.008 49.844 35.724C49.622 35.402 49.256 35.24 48.744 35.24C48.126 35.24 46.936 35.52 45.172 36.078L44.884 34.86C46.652 34.344 47.932 34.086 48.728 34.086C49.524 34.086 50.114 34.34 50.544 34.848C50.97 35.352 51.182 36.066 51.182 36.99C51.182 38.76 50.71 40.014 49.766 40.752V40.754Z" fill="#A76400"/>
<defs>
<filter id="filter0_d_415_1615" x="0" y="0" width="75" height="89.3235" filterUnits="userSpaceOnUse" color-interpolation-filters="sRGB">
<feFlood flood-opacity="0" result="BackgroundImageFix"/>
<feColorMatrix in="SourceAlpha" type="matrix" values="0 0 0 0 0 0 0 0 0 0 0 0 0 0 0 0 0 0 127 0" result="hardAlpha"/>
<feOffset dy="5"/>
<feGaussianBlur stdDeviation="4"/>
<feComposite in2="hardAlpha" operator="out"/>
<feColorMatrix type="matrix" values="0 0 0 0 0 0 0 0 0 0 0 0 0 0 0 0 0 0 0.25 0"/>
<feBlend mode="normal" in2="BackgroundImageFix" result="effect1_dropShadow_415_1615"/>
<feBlend mode="normal" in="SourceGraphic" in2="effect1_dropShadow_415_1615" result="shape"/>
</filter>
</defs>
</svg>
