<svg width="75" height="90" viewBox="0 0 75 90" fill="none" xmlns="http://www.w3.org/2000/svg">
<g filter="url(#filter0_d_801_2601)">
<path d="M37.0463 74.3235L18.8971 52.7206L56.1029 52.7206L37.0463 74.3235Z" fill="#008FDF"/>
<path d="M65 32.5C65 47.6878 52.6878 60 37.5 60C22.3122 60 10 47.6878 10 32.5C10 17.3122 22.3122 5 37.5 5C52.6878 5 65 17.3122 65 32.5Z" fill="white"/>
<path d="M37.0463 74.3235L18.8971 52.7206L56.1029 52.7206L37.0463 74.3235Z" stroke="white" stroke-width="4" stroke-linejoin="round"/>
<path d="M65 32.5C65 47.6878 52.6878 60 37.5 60C22.3122 60 10 47.6878 10 32.5C10 17.3122 22.3122 5 37.5 5C52.6878 5 65 17.3122 65 32.5Z" stroke="white" stroke-width="4" stroke-linejoin="round"/>
</g>
<path d="M37.0459 74.3235L18.8967 52.7205L56.1025 52.7205L37.0459 74.3235Z" fill="#A76400"/>
<path d="M37.5 8.09082C50.9808 8.09082 61.9092 19.0192 61.9092 32.5C61.9092 45.9808 50.9808 56.9092 37.5 56.9092C24.0192 56.9092 13.0908 45.9808 13.0908 32.5C13.0908 19.0192 24.0192 8.09082 37.5 8.09082Z" fill="#A76400" stroke="#A76400" stroke-width="6.18182"/>
<ellipse cx="37.8525" cy="33" rx="23" ry="23" fill="white"/>
<path d="M45.33 29.4319H48.0724C48.9556 29.4319 49.6724 28.7151 49.6724 27.8319C49.6724 26.9487 48.9556 26.2319 48.0724 26.2319H39.5988V23.7023C39.5988 22.8191 38.882 22.1023 37.9988 22.1023C37.1156 22.1023 36.3988 22.8191 36.3988 23.7023V26.2319H27.9252C27.042 26.2319 26.3252 26.9487 26.3252 27.8319C26.3252 28.7151 27.042 29.4319 27.9252 29.4319H30.6676C30.6676 29.4319 30.6708 29.4415 30.6724 29.4463C31.7572 32.0575 33.3684 34.4863 35.3972 36.6367L33.5876 38.3087C32.0772 39.2799 30.434 40.1215 28.6852 40.8079C27.8628 41.1311 27.458 42.0591 27.7812 42.8815C28.0292 43.5119 28.6324 43.8975 29.2708 43.8975C29.466 43.8975 29.6628 43.8623 29.8548 43.7871C32.8836 42.5983 35.6324 40.9855 37.9972 39.0543C40.362 40.9855 43.1108 42.5983 46.1396 43.7871C46.3316 43.8623 46.53 43.8975 46.7236 43.8975C47.362 43.8975 47.9652 43.5119 48.2132 42.8815C48.5364 42.0591 48.1316 41.1311 47.3092 40.8079C45.5604 40.1215 43.9172 39.2799 42.4068 38.3087L40.5972 36.6367C42.626 34.4863 44.2372 32.0575 45.322 29.4463C45.3236 29.4415 45.3252 29.4367 45.3268 29.4319H45.33ZM39.9828 32.4031L38.0004 34.2351L36.018 32.4031C35.3172 31.4543 34.7044 30.4623 34.1876 29.4319H41.8116C41.2964 30.4623 40.682 31.4543 39.9812 32.4031H39.9828Z" fill="#A76400"/>
<circle cx="38" cy="34" r="13" stroke="#A76400" stroke-width="3"/>
<defs>
<filter id="filter0_d_801_2601" x="0" y="0" width="75" height="89.3235" filterUnits="userSpaceOnUse" color-interpolation-filters="sRGB">
<feFlood flood-opacity="0" result="BackgroundImageFix"/>
<feColorMatrix in="SourceAlpha" type="matrix" values="0 0 0 0 0 0 0 0 0 0 0 0 0 0 0 0 0 0 127 0" result="hardAlpha"/>
<feOffset dy="5"/>
<feGaussianBlur stdDeviation="4"/>
<feComposite in2="hardAlpha" operator="out"/>
<feColorMatrix type="matrix" values="0 0 0 0 0 0 0 0 0 0 0 0 0 0 0 0 0 0 0.25 0"/>
<feBlend mode="normal" in2="BackgroundImageFix" result="effect1_dropShadow_801_2601"/>
<feBlend mode="normal" in="SourceGraphic" in2="effect1_dropShadow_801_2601" result="shape"/>
</filter>
</defs>
</svg>
