<svg width="75" height="90" viewBox="0 0 75 90" fill="none" xmlns="http://www.w3.org/2000/svg">
<g filter="url(#filter0_d_875_3032)">
<path d="M37.0463 74.3235L18.8971 52.7206L56.1029 52.7206L37.0463 74.3235Z" fill="#008FDF"/>
<path d="M65 32.5C65 47.6878 52.6878 60 37.5 60C22.3122 60 10 47.6878 10 32.5C10 17.3122 22.3122 5 37.5 5C52.6878 5 65 17.3122 65 32.5Z" fill="white"/>
<path d="M37.0463 74.3235L18.8971 52.7206L56.1029 52.7206L37.0463 74.3235Z" stroke="white" stroke-width="4" stroke-linejoin="round"/>
<path d="M65 32.5C65 47.6878 52.6878 60 37.5 60C22.3122 60 10 47.6878 10 32.5C10 17.3122 22.3122 5 37.5 5C52.6878 5 65 17.3122 65 32.5Z" stroke="white" stroke-width="4" stroke-linejoin="round"/>
</g>
<path d="M37.0464 74.3237L18.8971 52.7208L56.103 52.7208L37.0464 74.3237Z" fill="#008FDF"/>
<path d="M37.5 8.09082C50.9808 8.09082 61.9092 19.0192 61.9092 32.5C61.9092 45.9808 50.9808 56.9092 37.5 56.9092C24.0192 56.9092 13.0908 45.9808 13.0908 32.5C13.0908 19.0192 24.0192 8.09082 37.5 8.09082Z" fill="#008FDF" stroke="#008FDF" stroke-width="6.18182"/>
<ellipse cx="37.853" cy="33" rx="23" ry="23" fill="white"/>
<path d="M45.812 31.6922C45.84 31.7082 45.866 31.7262 45.894 31.7422C45.906 31.7482 45.918 31.7562 45.928 31.7622C48.246 33.0502 51.18 32.2122 52.468 29.8962C53.092 28.7742 53.242 27.4742 52.89 26.2382C52.538 25.0022 51.726 23.9742 50.602 23.3542C48.284 22.0662 45.35 22.9042 44.062 25.2202C43.574 26.0982 39.936 29.8222 39.936 29.8222C39.936 29.8222 40.92 24.3622 41.348 23.5922C41.972 22.4702 42.122 21.1702 41.77 19.9342C41.418 18.6982 40.608 17.6722 39.482 17.0502C38.36 16.4262 37.06 16.2762 35.824 16.6282C34.588 16.9802 33.564 17.7942 32.94 18.9162C31.658 21.2222 32.48 24.1402 34.772 25.4382C34.784 25.4442 35.118 25.8622 35.122 25.9842L35.07 32.8182L29.446 36.2862C26.732 37.7622 23.84 41.1422 23.812 44.5162C23.812 44.7582 23.94 44.9822 24.15 45.1002H24.154C24.366 45.2202 24.628 45.2142 24.832 45.0842L35.026 38.6422L34.94 50.1342C34.94 50.3762 35.068 50.5982 35.278 50.7182H35.282C35.494 50.8382 35.756 50.8322 35.96 50.7022C38.812 48.8982 40.156 44.6562 39.976 41.5722L39.954 35.5262L45.246 32.1802C45.47 32.0502 45.658 31.8822 45.808 31.6862L45.812 31.6922ZM35.988 23.3402C35.988 23.3402 35.976 23.3342 35.97 23.3302C34.834 22.6862 34.426 21.2422 35.062 20.0982C35.372 19.5422 35.878 19.1402 36.49 18.9642C37.102 18.7902 37.746 18.8642 38.302 19.1722C38.308 19.1762 38.314 19.1782 38.32 19.1822C38.868 19.4922 39.264 19.9962 39.436 20.6022C39.61 21.2142 39.536 21.8582 39.228 22.4142C38.59 23.5622 37.136 23.9782 35.986 23.3402H35.988ZM46.184 26.4002C46.822 25.2522 48.276 24.8362 49.424 25.4742C49.43 25.4782 49.436 25.4802 49.442 25.4842C49.99 25.7942 50.386 26.2982 50.558 26.9042C50.732 27.5162 50.658 28.1602 50.35 28.7162C49.712 29.8642 48.258 30.2802 47.108 29.6422C46.552 29.3402 46.15 28.8262 45.974 28.2142C45.8 27.6022 45.874 26.9582 46.182 26.4022L46.184 26.4002Z" fill="#008FDF"/>
<path d="M37.5361 33.5141C36.9961 33.2141 36.3141 33.4081 36.0141 33.9481C35.7141 34.4881 35.9081 35.1701 36.4481 35.4701C36.9881 35.7701 37.6701 35.5761 37.9701 35.0361C38.2701 34.4961 38.0761 33.8141 37.5361 33.5141Z" fill="white"/>
<defs>
<filter id="filter0_d_875_3032" x="0" y="0" width="75" height="89.3237" filterUnits="userSpaceOnUse" color-interpolation-filters="sRGB">
<feFlood flood-opacity="0" result="BackgroundImageFix"/>
<feColorMatrix in="SourceAlpha" type="matrix" values="0 0 0 0 0 0 0 0 0 0 0 0 0 0 0 0 0 0 127 0" result="hardAlpha"/>
<feOffset dy="5"/>
<feGaussianBlur stdDeviation="4"/>
<feComposite in2="hardAlpha" operator="out"/>
<feColorMatrix type="matrix" values="0 0 0 0 0 0 0 0 0 0 0 0 0 0 0 0 0 0 0.25 0"/>
<feBlend mode="normal" in2="BackgroundImageFix" result="effect1_dropShadow_875_3032"/>
<feBlend mode="normal" in="SourceGraphic" in2="effect1_dropShadow_875_3032" result="shape"/>
</filter>
</defs>
</svg>
