<svg width="75" height="90" viewBox="0 0 75 90" fill="none" xmlns="http://www.w3.org/2000/svg">
<g filter="url(#filter0_d_787_2452)">
<path d="M37.0463 74.3235L18.8971 52.7206L56.1029 52.7206L37.0463 74.3235Z" fill="#008FDF"/>
<path d="M65 32.5C65 47.6878 52.6878 60 37.5 60C22.3122 60 10 47.6878 10 32.5C10 17.3122 22.3122 5 37.5 5C52.6878 5 65 17.3122 65 32.5Z" fill="white"/>
<path d="M37.0463 74.3235L18.8971 52.7206L56.1029 52.7206L37.0463 74.3235Z" stroke="white" stroke-width="4" stroke-linejoin="round"/>
<path d="M65 32.5C65 47.6878 52.6878 60 37.5 60C22.3122 60 10 47.6878 10 32.5C10 17.3122 22.3122 5 37.5 5C52.6878 5 65 17.3122 65 32.5Z" stroke="white" stroke-width="4" stroke-linejoin="round"/>
</g>
<path d="M37.0464 74.3235L18.8971 52.7205L56.103 52.7205L37.0464 74.3235Z" fill="#008FDF"/>
<path d="M37.5 8.09082C50.9808 8.09082 61.9092 19.0192 61.9092 32.5C61.9092 45.9808 50.9808 56.9092 37.5 56.9092C24.0192 56.9092 13.0908 45.9808 13.0908 32.5C13.0908 19.0192 24.0192 8.09082 37.5 8.09082Z" fill="#008FDF" stroke="#008FDF" stroke-width="6.18182"/>
<ellipse cx="37.853" cy="33" rx="23" ry="23" fill="white"/>
<path d="M20.4614 31.2209C20.2625 30.6222 19.6171 30.2985 19.0204 30.4974L17.8172 30.8972C17.2186 31.0961 16.8949 31.7415 17.0938 32.3382L18.8488 37.6247C19.0477 38.2233 19.6931 38.547 20.2898 38.3481L21.493 37.9484C22.0916 37.7495 22.4153 37.104 22.2164 36.5073L20.4614 31.2209ZM53.5139 28.4324L50.0546 18.0116C49.8557 17.4129 49.2103 17.0892 48.6136 17.2881L21.8498 26.1743C21.2512 26.3732 20.9275 27.0186 21.1264 27.6153L24.5857 38.0361C24.7846 38.6348 25.43 38.9585 26.0267 38.7596L35.8703 35.4914L38.0036 40.7525L48.2704 46.4776V49.2701H52.6579V36.0101H48.2704V42.4587L40.7921 38.2876L39.2087 34.3818L52.7885 29.8734C53.3872 29.6745 53.7109 29.0291 53.512 28.4324H53.5139Z" fill="#008FDF"/>
<defs>
<filter id="filter0_d_787_2452" x="0" y="0" width="75" height="89.3235" filterUnits="userSpaceOnUse" color-interpolation-filters="sRGB">
<feFlood flood-opacity="0" result="BackgroundImageFix"/>
<feColorMatrix in="SourceAlpha" type="matrix" values="0 0 0 0 0 0 0 0 0 0 0 0 0 0 0 0 0 0 127 0" result="hardAlpha"/>
<feOffset dy="5"/>
<feGaussianBlur stdDeviation="4"/>
<feComposite in2="hardAlpha" operator="out"/>
<feColorMatrix type="matrix" values="0 0 0 0 0 0 0 0 0 0 0 0 0 0 0 0 0 0 0.25 0"/>
<feBlend mode="normal" in2="BackgroundImageFix" result="effect1_dropShadow_787_2452"/>
<feBlend mode="normal" in="SourceGraphic" in2="effect1_dropShadow_787_2452" result="shape"/>
</filter>
</defs>
</svg>
