<svg width="75" height="90" viewBox="0 0 75 90" fill="none" xmlns="http://www.w3.org/2000/svg">
<g filter="url(#filter0_d_408_1486)">
<path d="M37.0463 74.3235L18.8971 52.7206L56.1029 52.7206L37.0463 74.3235Z" fill="#008FDF"/>
<path d="M65 32.5C65 47.6878 52.6878 60 37.5 60C22.3122 60 10 47.6878 10 32.5C10 17.3122 22.3122 5 37.5 5C52.6878 5 65 17.3122 65 32.5Z" fill="white"/>
<path d="M37.0463 74.3235L18.8971 52.7206L56.1029 52.7206L37.0463 74.3235Z" stroke="white" stroke-width="4" stroke-linejoin="round"/>
<path d="M65 32.5C65 47.6878 52.6878 60 37.5 60C22.3122 60 10 47.6878 10 32.5C10 17.3122 22.3122 5 37.5 5C52.6878 5 65 17.3122 65 32.5Z" stroke="white" stroke-width="4" stroke-linejoin="round"/>
</g>
<path d="M37.0464 74.3235L18.8971 52.7205L56.103 52.7205L37.0464 74.3235Z" fill="#455DB7"/>
<path d="M61.9091 32.5C61.9091 45.9808 50.9808 56.9091 37.5 56.9091C24.0192 56.9091 13.0909 45.9808 13.0909 32.5C13.0909 19.0192 24.0192 8.09091 37.5 8.09091C50.9808 8.09091 61.9091 19.0192 61.9091 32.5Z" fill="#455DB7" stroke="#455DB7" stroke-width="6.18182"/>
<ellipse cx="37.853" cy="33" rx="23" ry="23" fill="white"/>
<path d="M47.1574 24.7557H43.6291V22.8396C43.6291 19.6199 41.0759 17 37.938 17C34.8002 17 32.2469 19.6199 32.2469 22.8396V24.7557H28.8426C27.8263 24.7557 27 25.6036 27 26.6464V47.1093C27 48.1521 27.8263 49 28.8426 49H47.1574C48.1737 49 49 48.1521 49 47.1093V26.6464C49 25.6036 48.1737 24.7557 47.1574 24.7557ZM34.3127 22.8417C34.3127 20.7899 35.9384 19.1217 37.938 19.1217C39.9377 19.1217 41.5634 20.7899 41.5634 22.8417V24.7578H34.3127V22.8417ZM46.7277 46.6684H29.2723V27.0873H32.2469V29.2557C31.7346 29.5842 31.3917 30.1671 31.3917 30.8348C31.3917 31.8628 32.2036 32.698 33.2075 32.698C34.2115 32.698 35.0233 31.8649 35.0233 30.8348C35.0233 30.2349 34.7444 29.7008 34.3147 29.3595V27.0873H41.5654V29.3066C41.0965 29.6436 40.7867 30.201 40.7867 30.8348C40.7867 31.8628 41.5985 32.698 42.6024 32.698C43.6064 32.698 44.4182 31.8649 44.4182 30.8348C44.4182 30.1989 44.1063 29.6372 43.6312 29.3002V27.0873H46.7298V46.6684H46.7277Z" fill="#455DB7"/>
<defs>
<filter id="filter0_d_408_1486" x="0" y="0" width="75" height="89.3235" filterUnits="userSpaceOnUse" color-interpolation-filters="sRGB">
<feFlood flood-opacity="0" result="BackgroundImageFix"/>
<feColorMatrix in="SourceAlpha" type="matrix" values="0 0 0 0 0 0 0 0 0 0 0 0 0 0 0 0 0 0 127 0" result="hardAlpha"/>
<feOffset dy="5"/>
<feGaussianBlur stdDeviation="4"/>
<feComposite in2="hardAlpha" operator="out"/>
<feColorMatrix type="matrix" values="0 0 0 0 0 0 0 0 0 0 0 0 0 0 0 0 0 0 0.25 0"/>
<feBlend mode="normal" in2="BackgroundImageFix" result="effect1_dropShadow_408_1486"/>
<feBlend mode="normal" in="SourceGraphic" in2="effect1_dropShadow_408_1486" result="shape"/>
</filter>
</defs>
</svg>
