<svg width="66" height="91" viewBox="0 0 66 91" fill="none" xmlns="http://www.w3.org/2000/svg">
<g filter="url(#filter0_d_58_846)">
<path d="M32.9767 1C17.5212 1 5 13.8376 5 29.3454C5 44.8443 24.6234 81.2 32.9767 81.2C41.3301 81.2 60.9535 44.8443 60.9535 29.3454C60.9535 13.8376 48.4234 1 32.9767 1Z" fill="#455DB7"/>
<path d="M32.9767 1C17.5212 1 5 13.8376 5 29.3454C5 44.8443 24.6234 81.2 32.9767 81.2C41.3301 81.2 60.9535 44.8443 60.9535 29.3454C60.9535 13.8376 48.4234 1 32.9767 1Z" stroke="white" stroke-width="2"/>
</g>
<path d="M10 29C10 41.7025 20.2975 52 33 52C45.7025 52 56 41.7025 56 29C56 16.2975 45.7025 6 33 6C20.2975 6 10 16.2975 10 29Z" fill="white"/>
<path d="M42.1574 20.7557H38.6291V18.8396C38.6291 15.6199 36.0759 13 32.938 13C29.8002 13 27.2469 15.6199 27.2469 18.8396V20.7557H23.8426C22.8263 20.7557 22 21.6036 22 22.6464V43.1093C22 44.1521 22.8263 45 23.8426 45H42.1574C43.1737 45 44 44.1521 44 43.1093V22.6464C44 21.6036 43.1737 20.7557 42.1574 20.7557ZM29.3127 18.8417C29.3127 16.7899 30.9384 15.1217 32.938 15.1217C34.9377 15.1217 36.5634 16.7899 36.5634 18.8417V20.7578H29.3127V18.8417ZM41.7277 42.6684H24.2723V23.0873H27.2469V25.2557C26.7346 25.5842 26.3917 26.1671 26.3917 26.8348C26.3917 27.8628 27.2036 28.698 28.2075 28.698C29.2115 28.698 30.0233 27.8649 30.0233 26.8348C30.0233 26.2349 29.7444 25.7008 29.3147 25.3595V23.0873H36.5654V25.3066C36.0965 25.6436 35.7867 26.201 35.7867 26.8348C35.7867 27.8628 36.5985 28.698 37.6024 28.698C38.6064 28.698 39.4182 27.8649 39.4182 26.8348C39.4182 26.1989 39.1063 25.6372 38.6312 25.3002V23.0873H41.7298V42.6684H41.7277Z" fill="#455DB7"/>
<defs>
<filter id="filter0_d_58_846" x="0" y="0" width="65.9536" height="90.2" filterUnits="userSpaceOnUse" color-interpolation-filters="sRGB">
<feFlood flood-opacity="0" result="BackgroundImageFix"/>
<feColorMatrix in="SourceAlpha" type="matrix" values="0 0 0 0 0 0 0 0 0 0 0 0 0 0 0 0 0 0 127 0" result="hardAlpha"/>
<feOffset dy="4"/>
<feGaussianBlur stdDeviation="2"/>
<feComposite in2="hardAlpha" operator="out"/>
<feColorMatrix type="matrix" values="0 0 0 0 0 0 0 0 0 0 0 0 0 0 0 0 0 0 0.25 0"/>
<feBlend mode="normal" in2="BackgroundImageFix" result="effect1_dropShadow_58_846"/>
<feBlend mode="normal" in="SourceGraphic" in2="effect1_dropShadow_58_846" result="shape"/>
</filter>
</defs>
</svg>
