<svg width="75" height="90" viewBox="0 0 75 90" fill="none" xmlns="http://www.w3.org/2000/svg">
<g filter="url(#filter0_d_874_2897)">
<path d="M37.0463 74.3235L18.8971 52.7206L56.1029 52.7206L37.0463 74.3235Z" fill="#008FDF"/>
<path d="M65 32.5C65 47.6878 52.6878 60 37.5 60C22.3122 60 10 47.6878 10 32.5C10 17.3122 22.3122 5 37.5 5C52.6878 5 65 17.3122 65 32.5Z" fill="white"/>
<path d="M37.0463 74.3235L18.8971 52.7206L56.1029 52.7206L37.0463 74.3235Z" stroke="white" stroke-width="4" stroke-linejoin="round"/>
<path d="M65 32.5C65 47.6878 52.6878 60 37.5 60C22.3122 60 10 47.6878 10 32.5C10 17.3122 22.3122 5 37.5 5C52.6878 5 65 17.3122 65 32.5Z" stroke="white" stroke-width="4" stroke-linejoin="round"/>
</g>
<path d="M37.0464 74.3237L18.8971 52.7208L56.103 52.7208L37.0464 74.3237Z" fill="#9747FF"/>
<path d="M37.5 8.09082C50.9808 8.09082 61.9092 19.0192 61.9092 32.5C61.9092 45.9808 50.9808 56.9092 37.5 56.9092C24.0192 56.9092 13.0908 45.9808 13.0908 32.5C13.0908 19.0192 24.0192 8.09082 37.5 8.09082Z" fill="#9747FF" stroke="#9747FF" stroke-width="6.18182"/>
<ellipse cx="37.853" cy="33" rx="23" ry="23" fill="white"/>
<path d="M35.6041 27.1569C36.3624 27.1569 36.9772 26.5421 36.9772 25.7837C36.9772 25.0254 36.3624 24.4106 35.6041 24.4106C34.8457 24.4106 34.231 25.0254 34.231 25.7837C34.231 26.5421 34.8457 27.1569 35.6041 27.1569Z" fill="#9747FF"/>
<path d="M38.4441 38.8346C38.9864 38.8346 39.4259 38.395 39.4259 37.8528C39.4259 37.3106 38.9864 36.8711 38.4441 36.8711C37.9019 36.8711 37.4624 37.3106 37.4624 37.8528C37.4624 38.395 37.9019 38.8346 38.4441 38.8346Z" fill="#9747FF"/>
<path d="M38.4441 43.1041C38.9864 43.1041 39.4259 42.6646 39.4259 42.1224C39.4259 41.5802 38.9864 41.1406 38.4441 41.1406C37.9019 41.1406 37.4624 41.5802 37.4624 42.1224C37.4624 42.6646 37.9019 43.1041 38.4441 43.1041Z" fill="#9747FF"/>
<path d="M41.7427 27.1569C42.5011 27.1569 43.1158 26.5421 43.1158 25.7837C43.1158 25.0254 42.5011 24.4106 41.7427 24.4106C40.9844 24.4106 40.3696 25.0254 40.3696 25.7837C40.3696 26.5421 40.9844 27.1569 41.7427 27.1569Z" fill="#9747FF"/>
<path d="M45.8418 31.3274C46.9823 29.7732 47.6018 27.8947 47.6018 25.9468C47.6018 24.3009 47.1612 22.7578 46.3942 21.4227L47.9909 16.5476C48.1139 16.1719 47.9462 15.7604 47.5951 15.5792L42.7914 13.0902C42.4403 12.9091 42.0087 13.0075 41.7717 13.325L39.1328 16.8696C38.9248 16.8562 38.7146 16.845 38.5022 16.845C33.4839 16.845 29.4003 20.9285 29.4003 25.9468C29.4003 27.8947 30.0198 29.7732 31.1603 31.3274C28.4521 33.5302 26.8599 36.8444 26.8599 40.3599C26.8599 46.7782 32.0817 52 38.4999 52C44.9182 52 50.14 46.7782 50.14 40.3599C50.14 36.8444 48.5477 33.5302 45.8395 31.3274H45.8418ZM38.5022 50.3071C33.0165 50.3071 28.555 45.8456 28.555 40.3599C28.555 37.0949 30.1629 34.0334 32.8554 32.1728C33.0567 32.0341 33.1864 31.8172 33.2155 31.5734C33.2446 31.3297 33.1663 31.0881 33.003 30.9092C31.7731 29.5473 31.0955 27.7851 31.0955 25.9491C31.0955 21.8633 34.4186 18.5424 38.5044 18.5424C38.5111 18.5424 38.5201 18.5424 38.5268 18.5424C38.6028 18.6654 38.7079 18.7705 38.8398 18.8398L44.6811 21.8655C45.4594 23.0374 45.9133 24.4418 45.9133 25.9491C45.9133 27.7851 45.2357 29.5473 44.0058 30.9115C43.8425 31.0926 43.7642 31.3341 43.7933 31.5757C43.8224 31.8172 43.9521 32.0363 44.1534 32.175C46.8459 34.0356 48.4538 37.0971 48.4538 40.3622C48.4538 45.8479 43.9923 50.3093 38.5066 50.3093L38.5022 50.3071Z" fill="#9747FF"/>
<path d="M40.3695 30.7884H36.977C36.5096 30.7884 36.1294 30.4082 36.1294 29.9408C36.1294 29.4734 36.5073 29.0933 36.977 29.0933H40.3695C40.8369 29.0933 41.217 29.4734 41.217 29.9408C41.217 30.4082 40.8391 30.7884 40.3695 30.7884Z" fill="#9747FF"/>
<defs>
<filter id="filter0_d_874_2897" x="0" y="0" width="75" height="89.3237" filterUnits="userSpaceOnUse" color-interpolation-filters="sRGB">
<feFlood flood-opacity="0" result="BackgroundImageFix"/>
<feColorMatrix in="SourceAlpha" type="matrix" values="0 0 0 0 0 0 0 0 0 0 0 0 0 0 0 0 0 0 127 0" result="hardAlpha"/>
<feOffset dy="5"/>
<feGaussianBlur stdDeviation="4"/>
<feComposite in2="hardAlpha" operator="out"/>
<feColorMatrix type="matrix" values="0 0 0 0 0 0 0 0 0 0 0 0 0 0 0 0 0 0 0.25 0"/>
<feBlend mode="normal" in2="BackgroundImageFix" result="effect1_dropShadow_874_2897"/>
<feBlend mode="normal" in="SourceGraphic" in2="effect1_dropShadow_874_2897" result="shape"/>
</filter>
</defs>
</svg>
