<svg width="66" height="91" viewBox="0 0 66 91" fill="none" xmlns="http://www.w3.org/2000/svg">
<g filter="url(#filter0_d_6_317)">
<path d="M32.9767 1.6001C17.5212 1.6001 5 14.4377 5 29.9455C5 45.4444 24.6234 81.8001 32.9767 81.8001C41.3301 81.8001 60.9535 45.4444 60.9535 29.9455C60.9535 14.4377 48.4234 1.6001 32.9767 1.6001Z" fill="#9747FF"/>
<path d="M32.9767 1.6001C17.5212 1.6001 5 14.4377 5 29.9455C5 45.4444 24.6234 81.8001 32.9767 81.8001C41.3301 81.8001 60.9535 45.4444 60.9535 29.9455C60.9535 14.4377 48.4234 1.6001 32.9767 1.6001Z" stroke="white" stroke-width="2"/>
</g>
<path d="M10 29.6001C10 42.3026 20.2975 52.6001 33 52.6001C45.7025 52.6001 56 42.3026 56 29.6001C56 16.8975 45.7025 6.6001 33 6.6001C20.2975 6.6001 10 16.8975 10 29.6001Z" fill="white"/>
<path d="M36.0355 19.6041C35.8851 19.6041 35.6711 19.6396 35.4552 19.7977L27.0476 23.7665H20.6142C19.1722 23.7665 18 25.0097 18 26.5395V29.4608C18 30.9906 19.1722 32.2338 20.6142 32.2338H21.2755V37.2086C21.2755 38.5269 22.2896 39.6001 23.535 39.6001H23.8319C25.0773 39.6001 26.0914 38.5269 26.0914 37.2086V32.2338H27.0457L35.4648 36.2085C35.6268 36.3231 35.7868 36.3725 35.9159 36.3883C35.9564 36.3942 35.9969 36.3982 36.0374 36.3982C36.0605 36.3982 36.0856 36.3982 36.1087 36.3942C37.0669 36.331 37.412 34.9712 37.6414 33.5027C37.8728 32.0262 38 30.0715 38 27.9982C38 25.9248 37.8728 23.9701 37.6414 22.4937C37.4062 20.9915 37.0495 19.6001 36.0374 19.6001L36.0355 19.6041ZM19.5423 29.4608V26.5395C19.5423 25.8814 20.0224 25.3477 20.6142 25.3477H25.6634V30.6526H20.6142C20.0243 30.6526 19.5423 30.1169 19.5423 29.4608ZM24.5491 37.2086C24.5491 37.6473 24.2213 38.0189 23.8319 38.0189H23.535C23.1456 38.0189 22.8178 37.6473 22.8178 37.2086V32.2338H24.5491V37.2086ZM27.2153 30.6526H26.4365V25.3477H27.2192C27.331 25.3477 27.4409 25.324 27.5412 25.2746L35.0349 21.7367C34.9616 22.0312 34.8922 22.3711 34.8286 22.7644C34.6011 24.1756 34.4739 26.0494 34.4739 28.0377C34.4739 30.026 34.5992 31.8997 34.8286 33.3109C34.8864 33.6667 34.9481 33.977 35.0118 34.2517L27.5373 30.7218C27.4371 30.6743 27.3272 30.6486 27.2153 30.6486V30.6526ZM35.8658 34.4711C35.5574 33.4513 35.245 31.1605 35.245 28.0397C35.245 24.9188 35.5631 22.5707 35.8774 21.5726C36.1454 22.549 36.4558 24.733 36.4558 28.0021C36.4558 31.2712 36.1357 33.5185 35.8658 34.4731V34.4711Z" fill="#9747FF"/>
<path d="M40.1777 26.7436C39.9408 26.9328 39.9408 27.24 40.1777 27.4292C40.5685 27.7429 40.7851 28.1585 40.7851 28.6015C40.7851 29.0446 40.5685 29.4601 40.1777 29.7722C39.9408 29.9614 39.9408 30.2686 40.1777 30.4578C40.2971 30.5532 40.451 30.6001 40.6069 30.6001C40.7628 30.6001 40.9188 30.5532 41.0362 30.4578C41.6578 29.9614 42 29.3017 42 28.5999C42 27.8981 41.6578 27.2384 41.0362 26.742C40.7993 26.5528 40.4146 26.5528 40.1777 26.742V26.7436Z" fill="#9747FF"/>
<path d="M43.0424 23.7824C42.8041 23.5393 42.4171 23.5393 42.1787 23.7824C41.9404 24.0254 41.9404 24.42 42.1787 24.663C44.3074 26.8334 44.3074 30.3663 42.1787 32.5367C41.9404 32.7797 41.9404 33.1743 42.1787 33.4173C42.2989 33.5399 42.4537 33.6001 42.6106 33.6001C42.7674 33.6001 42.9243 33.5399 43.0424 33.4173C44.3054 32.1296 45 30.4203 45 28.6009C45 26.7815 44.3054 25.0701 43.0424 23.7824Z" fill="#9747FF"/>
<path d="M45.1001 21.7838C44.8486 21.5389 44.4401 21.5389 44.1886 21.7838C43.9371 22.0287 43.9371 22.4265 44.1886 22.6714C45.8138 24.254 46.7102 26.3599 46.7102 28.5998C46.7102 30.8398 45.8138 32.9436 44.1886 34.5283C43.9371 34.7732 43.9371 35.171 44.1886 35.4159C44.3155 35.5394 44.4788 35.6001 44.6444 35.6001C44.8099 35.6001 44.9754 35.5394 45.1001 35.4159C46.9703 33.5946 48 31.1747 48 28.5998C48 26.025 46.9703 23.605 45.1001 21.7838Z" fill="#9747FF"/>
<defs>
<filter id="filter0_d_6_317" x="0" y="0.600098" width="65.9535" height="90.2" filterUnits="userSpaceOnUse" color-interpolation-filters="sRGB">
<feFlood flood-opacity="0" result="BackgroundImageFix"/>
<feColorMatrix in="SourceAlpha" type="matrix" values="0 0 0 0 0 0 0 0 0 0 0 0 0 0 0 0 0 0 127 0" result="hardAlpha"/>
<feOffset dy="4"/>
<feGaussianBlur stdDeviation="2"/>
<feComposite in2="hardAlpha" operator="out"/>
<feColorMatrix type="matrix" values="0 0 0 0 0 0 0 0 0 0 0 0 0 0 0 0 0 0 0.25 0"/>
<feBlend mode="normal" in2="BackgroundImageFix" result="effect1_dropShadow_6_317"/>
<feBlend mode="normal" in="SourceGraphic" in2="effect1_dropShadow_6_317" result="shape"/>
</filter>
</defs>
</svg>
