<svg width="67" height="91" viewBox="0 0 67 91" fill="none" xmlns="http://www.w3.org/2000/svg">
<g filter="url(#filter0_d_6_316)">
<path d="M33.2443 1.30005C17.7888 1.30005 5.26758 14.1377 5.26758 29.6454C5.26758 45.1443 24.8909 81.5 33.2443 81.5C41.5977 81.5 61.2211 45.1443 61.2211 29.6454C61.2211 14.1377 48.691 1.30005 33.2443 1.30005Z" fill="#9747FF"/>
<path d="M33.2443 1.30005C17.7888 1.30005 5.26758 14.1377 5.26758 29.6454C5.26758 45.1443 24.8909 81.5 33.2443 81.5C41.5977 81.5 61.2211 45.1443 61.2211 29.6454C61.2211 14.1377 48.691 1.30005 33.2443 1.30005Z" stroke="white" stroke-width="2"/>
</g>
<path d="M10.2676 29.3C10.2676 42.0026 20.565 52.3 33.2676 52.3C45.9701 52.3 56.2676 42.0026 56.2676 29.3C56.2676 16.5975 45.9701 6.30005 33.2676 6.30005C20.565 6.30005 10.2676 16.5975 10.2676 29.3Z" fill="white"/>
<path d="M40.4453 25.4794C40.2084 25.7159 40.2084 26.0999 40.4453 26.3364C40.8381 26.7285 41.0527 27.248 41.0527 27.8018C41.0527 28.3556 40.836 28.8751 40.4453 29.2652C40.2084 29.5017 40.2084 29.8857 40.4453 30.1222C40.5647 30.2414 40.7186 30.3 40.8745 30.3C41.0304 30.3 41.1863 30.2414 41.3038 30.1222C41.9254 29.5017 42.2676 28.677 42.2676 27.7998C42.2676 26.9226 41.9254 26.0979 41.3038 25.4774C41.0669 25.2409 40.6822 25.2409 40.4453 25.4774V25.4794Z" fill="#9747FF"/>
<path d="M43.3113 23.4823C43.0726 23.2393 42.6852 23.2393 42.4465 23.4823C42.2079 23.7253 42.2079 24.1199 42.4465 24.3629C44.5777 26.5333 44.5777 30.0662 42.4465 32.2366C42.2079 32.4797 42.2079 32.8743 42.4465 33.1173C42.5669 33.2398 42.7219 33.3 42.8789 33.3C43.0359 33.3 43.193 33.2398 43.3113 33.1173C45.9197 30.4609 45.9197 26.1387 43.3113 23.4823Z" fill="#9747FF"/>
<path d="M45.3677 21.4837C45.1162 21.2388 44.7077 21.2388 44.4562 21.4837C44.2047 21.7287 44.2047 22.1264 44.4562 22.3713C46.0814 23.9539 46.9778 26.0599 46.9778 28.2998C46.9778 30.5397 46.0814 32.6435 44.4562 34.2282C44.2047 34.4732 44.2047 34.8709 44.4562 35.1158C44.583 35.2393 44.7464 35.3 44.9119 35.3C45.0775 35.3 45.243 35.2393 45.3677 35.1158C47.2379 33.2946 48.2676 30.8746 48.2676 28.2998C48.2676 25.7249 47.2379 23.305 45.3677 21.4837Z" fill="#9747FF"/>
<path d="M37.9071 22.1942C37.6719 20.6918 37.3152 19.3 36.3031 19.3C36.1527 19.3 35.9387 19.3356 35.7228 19.4938L27.3152 23.4633H20.8818C19.4397 23.4633 18.2676 24.7068 18.2676 26.2369V29.1587C18.2676 30.6888 19.4397 31.9323 20.8818 31.9323H21.5431V36.908C21.5431 38.2266 22.5571 39.3 23.8026 39.3H24.0995C25.3449 39.3 26.359 38.2266 26.359 36.908V31.9323H27.3133L35.7324 35.9077C35.8943 36.0224 36.0543 36.0718 36.1835 36.0876C36.2471 36.0975 36.3108 36.0995 36.3744 36.0936C37.3325 36.0303 37.6776 34.6702 37.909 33.2014C38.1403 31.7247 38.2676 29.7696 38.2676 27.6958C38.2676 25.6221 38.1403 23.667 37.909 22.1902L37.9071 22.1942ZM26.5614 30.3033C26.5614 30.4338 26.4592 30.5386 26.332 30.5386C26.2047 30.5386 26.1025 30.4338 26.1025 30.3033V25.2939C26.1025 25.1634 26.2047 25.0587 26.332 25.0587C26.4592 25.0587 26.5614 25.1634 26.5614 25.2939V30.3033ZM36.0813 34.0258C35.6302 34.0258 35.262 31.1217 35.262 27.5396C35.262 23.9576 35.6283 21.0535 36.0813 21.0535C36.5344 21.0535 36.9007 23.9576 36.9007 27.5396C36.9007 31.1217 36.5344 34.0258 36.0813 34.0258Z" fill="#9747FF"/>
<defs>
<filter id="filter0_d_6_316" x="0.267578" y="0.300049" width="65.9536" height="90.2" filterUnits="userSpaceOnUse" color-interpolation-filters="sRGB">
<feFlood flood-opacity="0" result="BackgroundImageFix"/>
<feColorMatrix in="SourceAlpha" type="matrix" values="0 0 0 0 0 0 0 0 0 0 0 0 0 0 0 0 0 0 127 0" result="hardAlpha"/>
<feOffset dy="4"/>
<feGaussianBlur stdDeviation="2"/>
<feComposite in2="hardAlpha" operator="out"/>
<feColorMatrix type="matrix" values="0 0 0 0 0 0 0 0 0 0 0 0 0 0 0 0 0 0 0.25 0"/>
<feBlend mode="normal" in2="BackgroundImageFix" result="effect1_dropShadow_6_316"/>
<feBlend mode="normal" in="SourceGraphic" in2="effect1_dropShadow_6_316" result="shape"/>
</filter>
</defs>
</svg>
