<svg width="75" height="90" viewBox="0 0 75 90" fill="none" xmlns="http://www.w3.org/2000/svg">
<g filter="url(#filter0_d_463_2494)">
<path d="M37.0463 74.3235L18.8971 52.7206L56.1029 52.7206L37.0463 74.3235Z" fill="#008FDF"/>
<path d="M65 32.5C65 47.6878 52.6878 60 37.5 60C22.3122 60 10 47.6878 10 32.5C10 17.3122 22.3122 5 37.5 5C52.6878 5 65 17.3122 65 32.5Z" fill="white"/>
<path d="M37.0463 74.3235L18.8971 52.7206L56.1029 52.7206L37.0463 74.3235Z" stroke="white" stroke-width="4" stroke-linejoin="round"/>
<path d="M65 32.5C65 47.6878 52.6878 60 37.5 60C22.3122 60 10 47.6878 10 32.5C10 17.3122 22.3122 5 37.5 5C52.6878 5 65 17.3122 65 32.5Z" stroke="white" stroke-width="4" stroke-linejoin="round"/>
</g>
<path d="M37.0464 74.3235L18.8971 52.7205L56.103 52.7205L37.0464 74.3235Z" fill="#9747FF"/>
<path d="M61.9091 32.5C61.9091 45.9808 50.9808 56.9091 37.5 56.9091C24.0192 56.9091 13.0909 45.9808 13.0909 32.5C13.0909 19.0192 24.0192 8.09091 37.5 8.09091C50.9808 8.09091 61.9091 19.0192 61.9091 32.5Z" fill="#9747FF" stroke="#9747FF" stroke-width="6.18182"/>
<ellipse cx="37.853" cy="33" rx="23" ry="23" fill="white"/>
<path d="M45.1777 29.1794C44.9408 29.4159 44.9408 29.7999 45.1777 30.0364C45.5705 30.4285 45.7851 30.948 45.7851 31.5018C45.7851 32.0556 45.5685 32.575 45.1777 32.9651C44.9408 33.2016 44.9408 33.5856 45.1777 33.8221C45.2971 33.9414 45.451 34 45.6069 34C45.7628 34 45.9188 33.9414 46.0362 33.8221C46.6578 33.2016 47 32.377 47 31.4997C47 30.6225 46.6578 29.7979 46.0362 29.1774C45.7993 28.9409 45.4146 28.9409 45.1777 29.1774V29.1794Z" fill="#9747FF"/>
<path d="M48.0437 27.1823C47.8051 26.9392 47.4176 26.9392 47.179 27.1823C46.9403 27.4253 46.9403 27.8199 47.179 28.0629C49.3102 30.2333 49.3102 33.7662 47.179 35.9366C46.9403 36.1796 46.9403 36.5742 47.179 36.8172C47.2993 36.9398 47.4543 37 47.6113 37C47.7684 37 47.9254 36.9398 48.0437 36.8172C50.6521 34.1608 50.6521 29.8387 48.0437 27.1823Z" fill="#9747FF"/>
<path d="M50.1001 25.1837C49.8486 24.9388 49.4401 24.9388 49.1886 25.1837C48.9371 25.4286 48.9371 25.8264 49.1886 26.0713C50.8138 27.6539 51.7102 29.7598 51.7102 31.9997C51.7102 34.2397 50.8138 36.3435 49.1886 37.9282C48.9371 38.1731 48.9371 38.5709 49.1886 38.8158C49.3155 38.9393 49.4788 39 49.6444 39C49.8099 39 49.9754 38.9393 50.1001 38.8158C51.9703 36.9945 53 34.5746 53 31.9997C53 29.4249 51.9703 27.0049 50.1001 25.1837Z" fill="#9747FF"/>
<path d="M42.6395 25.8941C42.4043 24.3917 42.0476 23 41.0355 23C40.8851 23 40.6711 23.0356 40.4552 23.1937L32.0476 27.1633H25.6142C24.1722 27.1633 23 28.4067 23 29.9368V32.8587C23 34.3888 24.1722 35.6322 25.6142 35.6322H26.2755V40.608C26.2755 41.9266 27.2896 43 28.535 43H28.8319C30.0773 43 31.0914 41.9266 31.0914 40.608V35.6322H32.0457L40.4648 39.6077C40.6268 39.7223 40.7868 39.7718 40.9159 39.7876C40.9796 39.7975 41.0432 39.7994 41.1068 39.7935C42.065 39.7303 42.4101 38.3702 42.6414 36.9014C42.8728 35.4246 43 33.4695 43 31.3958C43 29.322 42.8728 27.3669 42.6414 25.8902L42.6395 25.8941ZM31.2938 34.0033C31.2938 34.1337 31.1916 34.2385 31.0644 34.2385C30.9371 34.2385 30.835 34.1337 30.835 34.0033V28.9939C30.835 28.8634 30.9371 28.7586 31.0644 28.7586C31.1916 28.7586 31.2938 28.8634 31.2938 28.9939V34.0033ZM40.8138 37.7257C40.3626 37.7257 39.9944 34.8217 39.9944 31.2396C39.9944 27.6575 40.3607 24.7535 40.8138 24.7535C41.2668 24.7535 41.6331 27.6575 41.6331 31.2396C41.6331 34.8217 41.2668 37.7257 40.8138 37.7257Z" fill="#9747FF"/>
<defs>
<filter id="filter0_d_463_2494" x="0" y="0" width="75" height="89.3235" filterUnits="userSpaceOnUse" color-interpolation-filters="sRGB">
<feFlood flood-opacity="0" result="BackgroundImageFix"/>
<feColorMatrix in="SourceAlpha" type="matrix" values="0 0 0 0 0 0 0 0 0 0 0 0 0 0 0 0 0 0 127 0" result="hardAlpha"/>
<feOffset dy="5"/>
<feGaussianBlur stdDeviation="4"/>
<feComposite in2="hardAlpha" operator="out"/>
<feColorMatrix type="matrix" values="0 0 0 0 0 0 0 0 0 0 0 0 0 0 0 0 0 0 0.25 0"/>
<feBlend mode="normal" in2="BackgroundImageFix" result="effect1_dropShadow_463_2494"/>
<feBlend mode="normal" in="SourceGraphic" in2="effect1_dropShadow_463_2494" result="shape"/>
</filter>
</defs>
</svg>
