<svg width="75" height="90" viewBox="0 0 75 90" fill="none" xmlns="http://www.w3.org/2000/svg">
<g filter="url(#filter0_d_463_2508)">
<path d="M37.0463 74.3235L18.8971 52.7206L56.1029 52.7206L37.0463 74.3235Z" fill="#008FDF"/>
<path d="M65 32.5C65 47.6878 52.6878 60 37.5 60C22.3122 60 10 47.6878 10 32.5C10 17.3122 22.3122 5 37.5 5C52.6878 5 65 17.3122 65 32.5Z" fill="white"/>
<path d="M37.0463 74.3235L18.8971 52.7206L56.1029 52.7206L37.0463 74.3235Z" stroke="white" stroke-width="4" stroke-linejoin="round"/>
<path d="M65 32.5C65 47.6878 52.6878 60 37.5 60C22.3122 60 10 47.6878 10 32.5C10 17.3122 22.3122 5 37.5 5C52.6878 5 65 17.3122 65 32.5Z" stroke="white" stroke-width="4" stroke-linejoin="round"/>
</g>
<path d="M37.0464 74.3235L18.8971 52.7205L56.103 52.7205L37.0464 74.3235Z" fill="#9747FF"/>
<path d="M61.9091 32.5C61.9091 45.9808 50.9808 56.9091 37.5 56.9091C24.0192 56.9091 13.0909 45.9808 13.0909 32.5C13.0909 19.0192 24.0192 8.09091 37.5 8.09091C50.9808 8.09091 61.9091 19.0192 61.9091 32.5Z" fill="#9747FF" stroke="#9747FF" stroke-width="6.18182"/>
<ellipse cx="37.853" cy="33" rx="23" ry="23" fill="white"/>
<path d="M41.0355 23.004C40.8851 23.004 40.6711 23.0395 40.4552 23.1976L32.0476 27.1664H25.6142C24.1722 27.1664 23 28.4096 23 29.9394V32.8607C23 34.3905 24.1722 35.6337 25.6142 35.6337H26.2755V40.6085C26.2755 41.9268 27.2896 43 28.535 43H28.8319C30.0773 43 31.0914 41.9268 31.0914 40.6085V35.6337H32.0457L40.4648 39.6084C40.6268 39.723 40.7868 39.7724 40.9159 39.7882C40.9564 39.7941 40.9969 39.7981 41.0374 39.7981C41.0605 39.7981 41.0856 39.7981 41.1087 39.7941C42.0669 39.7309 42.412 38.3711 42.6414 36.9026C42.8728 35.4261 43 33.4714 43 31.3981C43 29.3247 42.8728 27.37 42.6414 25.8936C42.4062 24.3914 42.0495 23 41.0374 23L41.0355 23.004ZM24.5423 32.8607V29.9394C24.5423 29.2813 25.0224 28.7476 25.6142 28.7476H30.6634V34.0525H25.6142C25.0243 34.0525 24.5423 33.5169 24.5423 32.8607ZM29.5491 40.6085C29.5491 41.0472 29.2213 41.4188 28.8319 41.4188H28.535C28.1456 41.4188 27.8178 41.0472 27.8178 40.6085V35.6337H29.5491V40.6085ZM32.2153 34.0525H31.4365V28.7476H32.2192C32.331 28.7476 32.4409 28.7239 32.5412 28.6745L40.0349 25.1366C39.9616 25.4311 39.8922 25.771 39.8286 26.1643C39.6011 27.5756 39.4739 29.4493 39.4739 31.4376C39.4739 33.4259 39.5992 35.2996 39.8286 36.7108C39.8864 37.0666 39.9481 37.3769 40.0118 37.6516L32.5373 34.1217C32.4371 34.0742 32.3272 34.0485 32.2153 34.0485V34.0525ZM40.8658 37.871C40.5574 36.8512 40.245 34.5604 40.245 31.4396C40.245 28.3187 40.5631 25.9706 40.8774 24.9725C41.1454 25.9489 41.4558 28.1329 41.4558 31.402C41.4558 34.6711 41.1357 36.9184 40.8658 37.873V37.871Z" fill="#9747FF"/>
<path d="M45.1777 30.1435C44.9408 30.3327 44.9408 30.6399 45.1777 30.8291C45.5685 31.1428 45.7851 31.5584 45.7851 32.0014C45.7851 32.4445 45.5685 32.86 45.1777 33.1721C44.9408 33.3613 44.9408 33.6685 45.1777 33.8577C45.2971 33.9531 45.451 34 45.6069 34C45.7628 34 45.9188 33.9531 46.0362 33.8577C46.6578 33.3613 47 32.7016 47 31.9998C47 31.298 46.6578 30.6383 46.0362 30.1419C45.7993 29.9527 45.4146 29.9527 45.1777 30.1419V30.1435Z" fill="#9747FF"/>
<path d="M48.0424 27.1823C47.8041 26.9392 47.4171 26.9392 47.1787 27.1823C46.9404 27.4253 46.9404 27.8199 47.1787 28.0629C49.3074 30.2333 49.3074 33.7662 47.1787 35.9366C46.9404 36.1796 46.9404 36.5742 47.1787 36.8172C47.2989 36.9398 47.4537 37 47.6106 37C47.7674 37 47.9243 36.9398 48.0424 36.8172C49.3054 35.5295 50 33.8202 50 32.0008C50 30.1814 49.3054 28.47 48.0424 27.1823Z" fill="#9747FF"/>
<path d="M50.1001 25.1837C49.8486 24.9388 49.4401 24.9388 49.1886 25.1837C48.9371 25.4286 48.9371 25.8264 49.1886 26.0713C50.8138 27.6539 51.7102 29.7598 51.7102 31.9997C51.7102 34.2397 50.8138 36.3435 49.1886 37.9282C48.9371 38.1731 48.9371 38.5709 49.1886 38.8158C49.3155 38.9393 49.4788 39 49.6444 39C49.8099 39 49.9754 38.9393 50.1001 38.8158C51.9703 36.9945 53 34.5746 53 31.9997C53 29.4249 51.9703 27.0049 50.1001 25.1837Z" fill="#9747FF"/>
<defs>
<filter id="filter0_d_463_2508" x="0" y="0" width="75" height="89.3235" filterUnits="userSpaceOnUse" color-interpolation-filters="sRGB">
<feFlood flood-opacity="0" result="BackgroundImageFix"/>
<feColorMatrix in="SourceAlpha" type="matrix" values="0 0 0 0 0 0 0 0 0 0 0 0 0 0 0 0 0 0 127 0" result="hardAlpha"/>
<feOffset dy="5"/>
<feGaussianBlur stdDeviation="4"/>
<feComposite in2="hardAlpha" operator="out"/>
<feColorMatrix type="matrix" values="0 0 0 0 0 0 0 0 0 0 0 0 0 0 0 0 0 0 0.25 0"/>
<feBlend mode="normal" in2="BackgroundImageFix" result="effect1_dropShadow_463_2508"/>
<feBlend mode="normal" in="SourceGraphic" in2="effect1_dropShadow_463_2508" result="shape"/>
</filter>
</defs>
</svg>
