<svg width="75" height="90" viewBox="0 0 75 90" fill="none" xmlns="http://www.w3.org/2000/svg">
<g filter="url(#filter0_d_433_1922)">
<path d="M37.0463 74.3235L18.8971 52.7206L56.1029 52.7206L37.0463 74.3235Z" fill="#008FDF"/>
<path d="M65 32.5C65 47.6878 52.6878 60 37.5 60C22.3122 60 10 47.6878 10 32.5C10 17.3122 22.3122 5 37.5 5C52.6878 5 65 17.3122 65 32.5Z" fill="white"/>
<path d="M37.0463 74.3235L18.8971 52.7206L56.1029 52.7206L37.0463 74.3235Z" stroke="white" stroke-width="4" stroke-linejoin="round"/>
<path d="M65 32.5C65 47.6878 52.6878 60 37.5 60C22.3122 60 10 47.6878 10 32.5C10 17.3122 22.3122 5 37.5 5C52.6878 5 65 17.3122 65 32.5Z" stroke="white" stroke-width="4" stroke-linejoin="round"/>
</g>
<path d="M37.0464 74.3235L18.8971 52.7205L56.103 52.7205L37.0464 74.3235Z" fill="#008FDF"/>
<path d="M61.9091 32.5C61.9091 45.9808 50.9808 56.9091 37.5 56.9091C24.0192 56.9091 13.0909 45.9808 13.0909 32.5C13.0909 19.0192 24.0192 8.09091 37.5 8.09091C50.9808 8.09091 61.9091 19.0192 61.9091 32.5Z" fill="#008FDF" stroke="#008FDF" stroke-width="6.18182"/>
<ellipse cx="37.853" cy="33" rx="23" ry="23" fill="white"/>
<path d="M42.6399 24.7183C44.1085 24.7183 45.2991 23.5277 45.2991 22.0591C45.2991 20.5905 44.1085 19.3999 42.6399 19.3999C41.1713 19.3999 39.9807 20.5905 39.9807 22.0591C39.9807 23.5277 41.1713 24.7183 42.6399 24.7183Z" fill="#008FDF"/>
<path d="M34.5857 38.1423C33.9857 37.8607 33.2705 38.1199 32.9905 38.7215L31.2305 42.4863L25.1249 44.1743C24.4865 44.3503 24.1121 45.0111 24.2881 45.6511C24.4353 46.1823 24.9185 46.5311 25.4433 46.5311C25.5489 46.5311 25.6561 46.5167 25.7633 46.4879L32.4017 44.6527C32.7393 44.5599 33.0209 44.3231 33.1697 44.0047L35.1649 39.7391C35.4449 39.1391 35.1873 38.4239 34.5857 38.1439V38.1423Z" fill="#008FDF"/>
<path d="M44.5391 37.7008L40.5407 36.368L43.6111 28.2896C44.0911 27.0016 42.3199 24.36 39.4095 25.2912L31.8095 27.6112C31.3263 27.7584 30.9871 28.1936 30.9615 28.6976L30.7215 33.4176C30.6879 34.08 31.1967 34.6432 31.8591 34.6768C31.8799 34.6768 31.9007 34.6768 31.9215 34.6768C32.5567 34.6768 33.0863 34.1792 33.1183 33.5376L33.3151 29.6592L37.0975 28.504L34.6255 35.6448C34.5199 35.9472 34.5407 36.28 34.6831 36.568C34.8255 36.856 35.0751 37.0752 35.3807 37.176L42.3743 39.5072L39.9263 43.6688C39.5903 44.24 39.7807 44.976 40.3519 45.312C40.5423 45.424 40.7519 45.4784 40.9599 45.4784C41.3711 45.4784 41.7711 45.2672 41.9951 44.8864L45.1951 39.4464C45.3791 39.1344 45.4111 38.7552 45.2847 38.416C45.1583 38.0768 44.8847 37.8128 44.5407 37.6992L44.5391 37.7008Z" fill="#008FDF"/>
<path d="M50.5761 27.6976C50.2097 27.2912 49.5841 27.2576 49.1761 27.624L46.7041 29.8496L45.4481 28.488C45.0769 28.0864 44.4497 28.0608 44.0481 28.432C43.6465 28.8032 43.6209 29.4304 43.9921 29.832L45.9121 31.912C46.1073 32.1232 46.3729 32.2304 46.6401 32.2304C46.8769 32.2304 47.1137 32.1456 47.3025 31.976L50.5025 29.096C50.9089 28.7296 50.9425 28.104 50.5761 27.696V27.6976Z" fill="#008FDF"/>
<defs>
<filter id="filter0_d_433_1922" x="0" y="0" width="75" height="89.3235" filterUnits="userSpaceOnUse" color-interpolation-filters="sRGB">
<feFlood flood-opacity="0" result="BackgroundImageFix"/>
<feColorMatrix in="SourceAlpha" type="matrix" values="0 0 0 0 0 0 0 0 0 0 0 0 0 0 0 0 0 0 127 0" result="hardAlpha"/>
<feOffset dy="5"/>
<feGaussianBlur stdDeviation="4"/>
<feComposite in2="hardAlpha" operator="out"/>
<feColorMatrix type="matrix" values="0 0 0 0 0 0 0 0 0 0 0 0 0 0 0 0 0 0 0.25 0"/>
<feBlend mode="normal" in2="BackgroundImageFix" result="effect1_dropShadow_433_1922"/>
<feBlend mode="normal" in="SourceGraphic" in2="effect1_dropShadow_433_1922" result="shape"/>
</filter>
</defs>
</svg>
