<svg width="75" height="90" viewBox="0 0 75 90" fill="none" xmlns="http://www.w3.org/2000/svg">
<g filter="url(#filter0_d_463_2524)">
<path d="M37.0463 74.3235L18.8971 52.7206L56.1029 52.7206L37.0463 74.3235Z" fill="#008FDF"/>
<path d="M65 32.5C65 47.6878 52.6878 60 37.5 60C22.3122 60 10 47.6878 10 32.5C10 17.3122 22.3122 5 37.5 5C52.6878 5 65 17.3122 65 32.5Z" fill="white"/>
<path d="M37.0463 74.3235L18.8971 52.7206L56.1029 52.7206L37.0463 74.3235Z" stroke="white" stroke-width="4" stroke-linejoin="round"/>
<path d="M65 32.5C65 47.6878 52.6878 60 37.5 60C22.3122 60 10 47.6878 10 32.5C10 17.3122 22.3122 5 37.5 5C52.6878 5 65 17.3122 65 32.5Z" stroke="white" stroke-width="4" stroke-linejoin="round"/>
</g>
<path d="M37.0464 74.3235L18.8971 52.7205L56.103 52.7205L37.0464 74.3235Z" fill="#008FDF"/>
<path d="M61.9091 32.5C61.9091 45.9808 50.9808 56.9091 37.5 56.9091C24.0192 56.9091 13.0909 45.9808 13.0909 32.5C13.0909 19.0192 24.0192 8.09091 37.5 8.09091C50.9808 8.09091 61.9091 19.0192 61.9091 32.5Z" fill="#008FDF" stroke="#008FDF" stroke-width="6.18182"/>
<ellipse cx="37.853" cy="33" rx="23" ry="23" fill="white"/>
<g clip-path="url(#clip0_463_2524)">
<path d="M39.7091 18.7538L43.1763 25.7774C43.4545 26.341 43.9908 26.7301 44.6126 26.821L52.3653 27.9482C53.9289 28.1755 54.5543 30.0973 53.4216 31.2009L47.8126 36.6681C47.3635 37.1063 47.1581 37.7372 47.2635 38.3554L48.5871 46.0753C48.8544 47.6334 47.2199 48.8207 45.8199 48.0862L38.8873 44.4407C38.3309 44.148 37.6673 44.148 37.1127 44.4407L30.1801 48.0862C28.7801 48.8225 27.1456 47.6334 27.4129 46.0753L28.7365 38.3554C28.8419 37.7372 28.6383 37.1045 28.1874 36.6681L22.5784 31.2009C21.4457 30.0973 22.0711 28.1755 23.6347 27.9482L31.3874 26.821C32.0092 26.7301 32.5455 26.341 32.8237 25.7774L36.2909 18.7538C36.9909 17.3356 39.0127 17.3356 39.7109 18.7538H39.7091Z" fill="#008FDF"/>
</g>
<defs>
<filter id="filter0_d_463_2524" x="0" y="0" width="75" height="89.3235" filterUnits="userSpaceOnUse" color-interpolation-filters="sRGB">
<feFlood flood-opacity="0" result="BackgroundImageFix"/>
<feColorMatrix in="SourceAlpha" type="matrix" values="0 0 0 0 0 0 0 0 0 0 0 0 0 0 0 0 0 0 127 0" result="hardAlpha"/>
<feOffset dy="5"/>
<feGaussianBlur stdDeviation="4"/>
<feComposite in2="hardAlpha" operator="out"/>
<feColorMatrix type="matrix" values="0 0 0 0 0 0 0 0 0 0 0 0 0 0 0 0 0 0 0.25 0"/>
<feBlend mode="normal" in2="BackgroundImageFix" result="effect1_dropShadow_463_2524"/>
<feBlend mode="normal" in="SourceGraphic" in2="effect1_dropShadow_463_2524" result="shape"/>
</filter>
<clipPath id="clip0_463_2524">
<rect width="32" height="32" fill="white" transform="translate(22 17)"/>
</clipPath>
</defs>
</svg>
