<svg width="67" height="91" viewBox="0 0 67 91" fill="none" xmlns="http://www.w3.org/2000/svg">
<g filter="url(#filter0_d_6_310)">
<path d="M33.2443 1C17.7888 1 5.26758 13.8376 5.26758 29.3454C5.26758 44.8443 24.8909 81.2 33.2443 81.2C41.5977 81.2 61.2211 44.8443 61.2211 29.3454C61.2211 13.8376 48.691 1 33.2443 1Z" fill="#008FDF"/>
<path d="M33.2443 1C17.7888 1 5.26758 13.8376 5.26758 29.3454C5.26758 44.8443 24.8909 81.2 33.2443 81.2C41.5977 81.2 61.2211 44.8443 61.2211 29.3454C61.2211 13.8376 48.691 1 33.2443 1Z" stroke="white" stroke-width="2"/>
</g>
<path d="M10.2676 29C10.2676 41.7025 20.565 52 33.2676 52C45.9701 52 56.2676 41.7025 56.2676 29C56.2676 16.2975 45.9701 6 33.2676 6C20.565 6 10.2676 16.2975 10.2676 29Z" fill="white"/>
<path d="M34.7732 16.4624L37.8244 22.6432C38.0692 23.1392 38.5412 23.4816 39.0884 23.5616L45.9108 24.5536C47.2868 24.7536 47.8372 26.4448 46.8404 27.416L41.9044 32.2272C41.5092 32.6128 41.3284 33.168 41.4212 33.712L42.586 40.5056C42.8212 41.8768 41.3828 42.9216 40.1508 42.2752L34.05 39.0672C33.5604 38.8096 32.9764 38.8096 32.4884 39.0672L26.3876 42.2752C25.1556 42.9232 23.7172 41.8768 23.9524 40.5056L25.1172 33.712C25.21 33.168 25.0308 32.6112 24.634 32.2272L19.698 27.416C18.7012 26.4448 19.2516 24.7536 20.6276 24.5536L27.45 23.5616C27.9972 23.4816 28.4692 23.1392 28.714 22.6432L31.7652 16.4624C32.3812 15.2144 34.1604 15.2144 34.7748 16.4624H34.7732Z" fill="#008FDF"/>
<defs>
<filter id="filter0_d_6_310" x="0.267578" y="0" width="65.9536" height="90.2" filterUnits="userSpaceOnUse" color-interpolation-filters="sRGB">
<feFlood flood-opacity="0" result="BackgroundImageFix"/>
<feColorMatrix in="SourceAlpha" type="matrix" values="0 0 0 0 0 0 0 0 0 0 0 0 0 0 0 0 0 0 127 0" result="hardAlpha"/>
<feOffset dy="4"/>
<feGaussianBlur stdDeviation="2"/>
<feComposite in2="hardAlpha" operator="out"/>
<feColorMatrix type="matrix" values="0 0 0 0 0 0 0 0 0 0 0 0 0 0 0 0 0 0 0.25 0"/>
<feBlend mode="normal" in2="BackgroundImageFix" result="effect1_dropShadow_6_310"/>
<feBlend mode="normal" in="SourceGraphic" in2="effect1_dropShadow_6_310" result="shape"/>
</filter>
</defs>
</svg>
