<svg width="92" height="97" viewBox="0 0 92 97" fill="none" xmlns="http://www.w3.org/2000/svg">
<g filter="url(#filter0_d_336_2254)">
<path d="M37.0463 81.3235L18.8971 59.7206L56.1029 59.7206L37.0463 81.3235Z" fill="#008FDF"/>
<path d="M65 39.5C65 54.6878 52.6878 67 37.5 67C22.3122 67 10 54.6878 10 39.5C10 24.3122 22.3122 12 37.5 12C52.6878 12 65 24.3122 65 39.5Z" fill="white"/>
<path d="M37.0463 81.3235L18.8971 59.7206L56.1029 59.7206L37.0463 81.3235Z" stroke="white" stroke-width="4" stroke-linejoin="round"/>
<path d="M65 39.5C65 54.6878 52.6878 67 37.5 67C22.3122 67 10 54.6878 10 39.5C10 24.3122 22.3122 12 37.5 12C52.6878 12 65 24.3122 65 39.5Z" stroke="white" stroke-width="4" stroke-linejoin="round"/>
</g>
<path d="M37.0462 81.3235L18.897 59.7205L56.1029 59.7205L37.0462 81.3235Z" fill="#008FDF"/>
<path d="M61.9091 39.5C61.9091 52.9808 50.9808 63.9091 37.5 63.9091C24.0192 63.9091 13.0909 52.9808 13.0909 39.5C13.0909 26.0192 24.0192 15.0909 37.5 15.0909C50.9808 15.0909 61.9091 26.0192 61.9091 39.5Z" fill="#008FDF" stroke="#008FDF" stroke-width="6.18182"/>
<ellipse cx="37.8529" cy="40" rx="23" ry="23" fill="white"/>
<g clip-path="url(#clip0_336_2254)">
<path d="M36.5094 37.1702C36.6426 37.3034 36.8142 37.3689 36.988 37.3689C37.1619 37.3689 37.3357 37.3034 37.4666 37.1702L45.481 29.1559C45.6751 28.9617 45.7338 28.6705 45.6277 28.4176C45.5239 28.1648 45.2755 28 45.0024 28H28.9737C28.7005 28 28.4522 28.1648 28.3484 28.4176C28.2445 28.6705 28.3009 28.9617 28.4951 29.1559L36.5094 37.1702ZM52.134 47.1689C50.5559 47.1689 49.7161 47.774 49.0389 48.2593C48.4677 48.6702 48.0546 48.9682 47.1312 48.9682C46.2079 48.9682 45.7948 48.6702 45.2236 48.2593C44.5486 47.774 43.7065 47.1689 42.1285 47.1689C40.5505 47.1689 39.7106 47.774 39.0334 48.2593C38.4622 48.6702 38.0491 48.9682 37.1257 48.9682C36.2024 48.9682 35.7893 48.6702 35.2181 48.2593C34.5431 47.774 33.701 47.1689 32.1252 47.1689C30.5495 47.1689 29.7074 47.774 29.0324 48.2593C28.4612 48.6702 28.0481 48.9682 27.1248 48.9682C26.2014 48.9682 25.7883 48.6702 25.2171 48.2593C24.5421 47.774 23.7 47.1689 22.1243 47.1689C21.5621 47.1689 21.1084 47.6227 21.1084 48.1848C21.1084 48.747 21.5621 49.2007 22.1243 49.2007C23.0476 49.2007 23.4585 49.4987 24.0319 49.9096C24.7069 50.395 25.549 51 27.1248 51C28.7005 51 29.5426 50.395 30.2176 49.9096C30.7888 49.4987 31.2019 49.2007 32.1252 49.2007C33.0486 49.2007 33.4595 49.4987 34.0329 49.9096C34.7079 50.395 35.55 51 37.1257 51C38.7015 51 39.5436 50.395 40.2186 49.9096C40.7898 49.4987 41.2029 49.2007 42.1262 49.2007C43.0496 49.2007 43.4627 49.4987 44.0339 49.9096C44.7089 50.395 45.5509 51 47.129 51C48.707 51 49.5468 50.395 50.2241 49.9096C50.7952 49.4987 51.2084 49.2007 52.1317 49.2007C52.6939 49.2007 53.1476 48.747 53.1476 48.1848C53.1476 47.6227 52.6939 47.1689 52.1317 47.1689H52.134ZM22.1288 43.2182C23.0137 43.2182 23.3953 43.4914 23.9687 43.9045C24.6572 44.4012 25.5151 45.0175 27.1293 45.0175C28.7434 45.0175 29.6013 44.4012 30.2899 43.9045C30.8655 43.4914 31.2448 43.2182 32.1298 43.2182C33.0147 43.2182 33.3963 43.4914 33.9697 43.9045C34.6582 44.4012 35.5161 45.0175 37.1303 45.0175C38.7444 45.0175 39.6023 44.4012 40.2908 43.9045C40.8665 43.4914 41.2458 43.2182 42.1307 43.2182C43.0157 43.2182 43.3972 43.4914 43.9729 43.9045C44.6615 44.4012 45.5193 45.0175 47.1335 45.0175C48.7476 45.0175 49.6055 44.4012 50.2941 43.9045C50.8697 43.4914 51.249 43.2159 52.1362 43.2159C52.7593 43.2159 53.265 42.7102 53.265 42.0872C53.265 41.4641 52.7593 40.9584 52.1362 40.9584C50.5221 40.9584 49.6642 41.5747 48.9757 42.0714C48.4 42.4845 48.0207 42.7577 47.1335 42.7577C46.2463 42.7577 45.867 42.4845 45.2913 42.0691C44.6028 41.5724 43.7449 40.9561 42.1307 40.9561C40.5166 40.9561 39.6587 41.5724 38.9702 42.0691C38.3945 42.4822 38.0152 42.7554 37.1303 42.7554C36.2453 42.7554 35.8638 42.4822 35.2903 42.0691C34.6018 41.5724 33.7439 40.9561 32.1298 40.9561C30.5156 40.9561 29.6577 41.5724 28.9692 42.0691C28.3935 42.4822 28.0142 42.7554 27.1293 42.7554C26.2443 42.7554 25.8628 42.4822 25.2894 42.0691C24.6008 41.5724 23.7429 40.9561 22.1288 40.9561C21.5057 40.9561 21 41.4618 21 42.0849C21 42.708 21.5057 43.2137 22.1288 43.2137V43.2182Z" fill="#008FDF"/>
</g>
<g filter="url(#filter1_d_336_2254)">
<circle cx="69.5" cy="19.5" r="19.5" fill="black"/>
</g>
<path d="M67.5777 24.92L66.6977 10.16L66.5377 4.6H72.4177L72.2577 10.16L71.4177 24.92H67.5777ZM69.4577 35.56C67.3777 35.56 65.8177 33.92 65.8177 31.72C65.8177 29.52 67.3777 27.92 69.4577 27.92C71.5777 27.92 73.1377 29.52 73.1377 31.72C73.1377 33.92 71.5777 35.56 69.4577 35.56Z" fill="#FF6B00"/>
<defs>
<filter id="filter0_d_336_2254" x="0" y="7" width="75" height="89.3235" filterUnits="userSpaceOnUse" color-interpolation-filters="sRGB">
<feFlood flood-opacity="0" result="BackgroundImageFix"/>
<feColorMatrix in="SourceAlpha" type="matrix" values="0 0 0 0 0 0 0 0 0 0 0 0 0 0 0 0 0 0 127 0" result="hardAlpha"/>
<feOffset dy="5"/>
<feGaussianBlur stdDeviation="4"/>
<feComposite in2="hardAlpha" operator="out"/>
<feColorMatrix type="matrix" values="0 0 0 0 0 0 0 0 0 0 0 0 0 0 0 0 0 0 0.25 0"/>
<feBlend mode="normal" in2="BackgroundImageFix" result="effect1_dropShadow_336_2254"/>
<feBlend mode="normal" in="SourceGraphic" in2="effect1_dropShadow_336_2254" result="shape"/>
</filter>
<filter id="filter1_d_336_2254" x="47.7714" y="0" width="43.4571" height="43.4571" filterUnits="userSpaceOnUse" color-interpolation-filters="sRGB">
<feFlood flood-opacity="0" result="BackgroundImageFix"/>
<feColorMatrix in="SourceAlpha" type="matrix" values="0 0 0 0 0 0 0 0 0 0 0 0 0 0 0 0 0 0 127 0" result="hardAlpha"/>
<feOffset dy="2.22857"/>
<feGaussianBlur stdDeviation="1.11429"/>
<feComposite in2="hardAlpha" operator="out"/>
<feColorMatrix type="matrix" values="0 0 0 0 0 0 0 0 0 0 0 0 0 0 0 0 0 0 0.25 0"/>
<feBlend mode="normal" in2="BackgroundImageFix" result="effect1_dropShadow_336_2254"/>
<feBlend mode="normal" in="SourceGraphic" in2="effect1_dropShadow_336_2254" result="shape"/>
</filter>
<clipPath id="clip0_336_2254">
<rect width="32.2628" height="23" fill="white" transform="translate(21 28)"/>
</clipPath>
</defs>
</svg>