<svg width="75" height="90" viewBox="0 0 75 90" fill="none" xmlns="http://www.w3.org/2000/svg">
<g filter="url(#filter0_d_874_2768)">
<path d="M37.0463 74.3235L18.8971 52.7206L56.1029 52.7206L37.0463 74.3235Z" fill="#008FDF"/>
<path d="M65 32.5C65 47.6878 52.6878 60 37.5 60C22.3122 60 10 47.6878 10 32.5C10 17.3122 22.3122 5 37.5 5C52.6878 5 65 17.3122 65 32.5Z" fill="white"/>
<path d="M37.0463 74.3235L18.8971 52.7206L56.1029 52.7206L37.0463 74.3235Z" stroke="white" stroke-width="4" stroke-linejoin="round"/>
<path d="M65 32.5C65 47.6878 52.6878 60 37.5 60C22.3122 60 10 47.6878 10 32.5C10 17.3122 22.3122 5 37.5 5C52.6878 5 65 17.3122 65 32.5Z" stroke="white" stroke-width="4" stroke-linejoin="round"/>
</g>
<path d="M37.0464 74.3237L18.8971 52.7208L56.103 52.7208L37.0464 74.3237Z" fill="#FF0000"/>
<path d="M37.5 8.09082C50.9808 8.09082 61.9092 19.0192 61.9092 32.5C61.9092 45.9808 50.9808 56.9092 37.5 56.9092C24.0192 56.9092 13.0908 45.9808 13.0908 32.5C13.0908 19.0192 24.0192 8.09082 37.5 8.09082Z" fill="#FF0000" stroke="#FF0000" stroke-width="6.18182"/>
<ellipse cx="37.853" cy="33" rx="23" ry="23" fill="white"/>
<path d="M28.7596 32.4998C28.7596 31.9616 28.3228 31.5248 27.7846 31.5248H22.8998C22.3616 31.5248 21.9248 31.9616 21.9248 32.4998C21.9248 33.038 22.3616 33.4748 22.8998 33.4748H27.7846C28.3228 33.4748 28.7596 33.038 28.7596 32.4998ZM38.4998 22.7596C39.038 22.7596 39.4748 22.3228 39.4748 21.7846V16.8998C39.4748 16.3616 39.038 15.9248 38.4998 15.9248C37.9616 15.9248 37.5248 16.3616 37.5248 16.8998V21.7846C37.5248 22.3228 37.9616 22.7596 38.4998 22.7596ZM46.0775 25.8971C46.3271 25.8971 46.5767 25.8016 46.7678 25.6124L50.2213 22.159C50.6015 21.7787 50.6015 21.1606 50.2213 20.7803C49.841 20.4001 49.2229 20.4001 48.8426 20.7803L45.3892 24.2338C45.0089 24.614 45.0089 25.2322 45.3892 25.6124C45.5803 25.8035 45.8299 25.8971 46.0795 25.8971H46.0775ZM28.159 20.7803C27.7787 20.4001 27.1606 20.4001 26.7803 20.7803C26.4001 21.1606 26.4001 21.7787 26.7803 22.159L30.2338 25.6124C30.4249 25.8035 30.6745 25.8971 30.9241 25.8971C31.1737 25.8971 31.4233 25.8016 31.6144 25.6124C31.9946 25.2322 31.9946 24.614 31.6144 24.2338L28.1609 20.7803H28.159ZM30.2338 39.3872L26.7803 42.8407C26.4001 43.2209 26.4001 43.8391 26.7803 44.2193C26.9714 44.4104 27.221 44.504 27.4706 44.504C27.7202 44.504 27.9698 44.4085 28.1609 44.2193L31.6144 40.7659C31.9946 40.3856 31.9946 39.7675 31.6144 39.3872C31.2341 39.007 30.616 39.007 30.2357 39.3872H30.2338ZM54.0998 31.5248H49.2151C48.6769 31.5248 48.2401 31.9616 48.2401 32.4998C48.2401 33.038 48.6769 33.4748 49.2151 33.4748H54.0998C54.638 33.4748 55.0748 33.038 55.0748 32.4998C55.0748 31.9616 54.638 31.5248 54.0998 31.5248ZM38.4998 42.2401C37.9616 42.2401 37.5248 42.6769 37.5248 43.2151V48.0998C37.5248 48.638 37.9616 49.0748 38.4998 49.0748C39.038 49.0748 39.4748 48.638 39.4748 48.0998V43.2151C39.4748 42.6769 39.038 42.2401 38.4998 42.2401ZM46.7659 39.3872C46.3856 39.007 45.7675 39.007 45.3872 39.3872C45.007 39.7675 45.007 40.3856 45.3872 40.7659L48.8407 44.2193C49.0318 44.4104 49.2814 44.504 49.531 44.504C49.7806 44.504 50.0302 44.4085 50.2213 44.2193C50.6015 43.8391 50.6015 43.2209 50.2213 42.8407L46.7678 39.3872H46.7659ZM34.0772 28.0772C31.6339 30.5206 31.6339 34.481 34.0772 36.9244C36.5206 39.3677 40.481 39.3677 42.9244 36.9244C45.3677 34.481 45.3677 30.5206 42.9244 28.0772C40.481 25.6339 36.5206 25.6339 34.0772 28.0772Z" fill="#FF0000"/>
<defs>
<filter id="filter0_d_874_2768" x="0" y="0" width="75" height="89.3237" filterUnits="userSpaceOnUse" color-interpolation-filters="sRGB">
<feFlood flood-opacity="0" result="BackgroundImageFix"/>
<feColorMatrix in="SourceAlpha" type="matrix" values="0 0 0 0 0 0 0 0 0 0 0 0 0 0 0 0 0 0 127 0" result="hardAlpha"/>
<feOffset dy="5"/>
<feGaussianBlur stdDeviation="4"/>
<feComposite in2="hardAlpha" operator="out"/>
<feColorMatrix type="matrix" values="0 0 0 0 0 0 0 0 0 0 0 0 0 0 0 0 0 0 0.25 0"/>
<feBlend mode="normal" in2="BackgroundImageFix" result="effect1_dropShadow_874_2768"/>
<feBlend mode="normal" in="SourceGraphic" in2="effect1_dropShadow_874_2768" result="shape"/>
</filter>
</defs>
</svg>
