<svg width="75" height="90" viewBox="0 0 75 90" fill="none" xmlns="http://www.w3.org/2000/svg">
<g filter="url(#filter0_d_803_2738)">
<path d="M37.0463 74.3235L18.8971 52.7206L56.1029 52.7206L37.0463 74.3235Z" fill="#008FDF"/>
<path d="M65 32.5C65 47.6878 52.6878 60 37.5 60C22.3122 60 10 47.6878 10 32.5C10 17.3122 22.3122 5 37.5 5C52.6878 5 65 17.3122 65 32.5Z" fill="#008FDF"/>
<path d="M37.0463 74.3235L18.8971 52.7206L56.1029 52.7206L37.0463 74.3235Z" stroke="white" stroke-width="4" stroke-linejoin="round"/>
<path d="M65 32.5C65 47.6878 52.6878 60 37.5 60C22.3122 60 10 47.6878 10 32.5C10 17.3122 22.3122 5 37.5 5C52.6878 5 65 17.3122 65 32.5Z" stroke="white" stroke-width="4" stroke-linejoin="round"/>
</g>
<path d="M37.0459 74.3235L18.8967 52.7205L56.1025 52.7205L37.0459 74.3235Z" fill="#008FDF"/>
<path d="M37.5 8.09082C50.9808 8.09082 61.9092 19.0192 61.9092 32.5C61.9092 45.9808 50.9808 56.9092 37.5 56.9092C24.0192 56.9092 13.0908 45.9808 13.0908 32.5C13.0908 19.0192 24.0192 8.09082 37.5 8.09082Z" fill="#008FDF" stroke="#008FDF" stroke-width="6.18182"/>
<ellipse cx="37.8525" cy="33" rx="23" ry="23" fill="white"/>
<g clip-path="url(#clip0_803_2738)">
<path d="M44.1832 17.96C42.7349 17.96 41.4535 18.3463 40.3216 18.6861C39.4286 18.9559 38.6559 19.1889 38.0579 19.152C37.4754 19.1171 36.7804 18.921 35.9747 18.6938C34.7613 18.3502 33.3848 17.9619 31.8161 17.9619C26.7683 17.9619 22.6621 22.0681 22.6621 27.1159C22.6621 30.7095 24.8307 34.2935 26.413 36.9105C26.8615 37.6522 27.2847 38.3511 27.5837 38.9277C27.9468 39.6286 28.1545 40.8168 28.3739 42.0748C28.8845 44.9967 29.5815 49 33.2955 49C36.4251 49 36.8949 46.3596 37.1765 44.7832C37.4696 43.1426 37.6172 43.0048 37.9996 43.0048C38.2423 43.0048 38.3724 43.4921 38.5685 44.5851C38.8655 46.2373 39.3606 49 42.7057 49C46.4178 49 47.008 45.253 47.439 42.5175C47.6526 41.1643 47.872 39.7664 48.367 39.0131L48.6796 38.5394C50.5356 35.7243 53.3391 31.4686 53.3391 27.1159C53.3391 22.0681 49.2329 17.9619 44.1851 17.9619L44.1832 17.96ZM47.0565 37.4716L46.742 37.9492C46.0198 39.052 45.7771 40.5877 45.5209 42.2146C44.9578 45.7888 44.4472 47.0566 42.7057 47.0566C41.1409 47.0566 40.84 46.2412 40.4808 44.2396C40.2401 42.898 39.91 41.0614 38.0016 41.0614C35.8699 41.0614 35.5068 43.0941 35.268 44.4395C34.9282 46.3383 34.672 47.0566 33.2974 47.0566C31.3618 47.0566 30.8492 44.9521 30.2882 41.7409C30.0416 40.3314 29.8106 38.9996 29.3097 38.0346C28.9816 37.3998 28.5408 36.6737 28.0768 35.9029C26.5295 33.348 24.6055 30.1659 24.6055 27.1139C24.6055 23.1359 27.8419 19.9014 31.818 19.9014C33.1169 19.9014 34.3031 20.2373 35.4486 20.5596C36.3242 20.8081 37.1512 21.0411 37.9433 21.0877C38.8869 21.144 39.8557 20.8527 40.8827 20.544C41.933 20.2276 43.0203 19.9014 44.1832 19.9014C48.1612 19.9014 51.3957 23.1378 51.3957 27.1139C51.3957 30.8862 48.7844 34.8487 47.0565 37.4697V37.4716ZM43.8609 24.6541L38.7063 27.5352C37.8579 26.613 36.0407 25.0812 33.0043 24.5454C32.4762 24.4522 31.9733 24.8055 31.8802 25.3317C31.787 25.8598 32.1403 26.3626 32.6664 26.4558C36.1475 27.0693 37.5919 29.2165 37.6482 29.302C37.8327 29.5912 38.1452 29.7504 38.4675 29.7504C38.6287 29.7504 38.7918 29.7097 38.9412 29.6262L44.8083 26.3471C45.2762 26.085 45.4432 25.4948 45.1811 25.0269C44.919 24.559 44.3269 24.392 43.8609 24.6541Z" fill="#008FDF"/>
</g>
<defs>
<filter id="filter0_d_803_2738" x="0" y="0" width="75" height="89.3235" filterUnits="userSpaceOnUse" color-interpolation-filters="sRGB">
<feFlood flood-opacity="0" result="BackgroundImageFix"/>
<feColorMatrix in="SourceAlpha" type="matrix" values="0 0 0 0 0 0 0 0 0 0 0 0 0 0 0 0 0 0 127 0" result="hardAlpha"/>
<feOffset dy="5"/>
<feGaussianBlur stdDeviation="4"/>
<feComposite in2="hardAlpha" operator="out"/>
<feColorMatrix type="matrix" values="0 0 0 0 0 0 0 0 0 0 0 0 0 0 0 0 0 0 0.25 0"/>
<feBlend mode="normal" in2="BackgroundImageFix" result="effect1_dropShadow_803_2738"/>
<feBlend mode="normal" in="SourceGraphic" in2="effect1_dropShadow_803_2738" result="shape"/>
</filter>
<clipPath id="clip0_803_2738">
<rect width="32" height="32" fill="white" transform="translate(22 17)"/>
</clipPath>
</defs>
</svg>
