<svg width="66" height="91" viewBox="0 0 66 91" fill="none" xmlns="http://www.w3.org/2000/svg">
<g filter="url(#filter0_d_16_316)">
<path d="M32.9767 1C17.5212 1 5 13.8376 5 29.3454C5 44.8443 24.6234 81.2 32.9767 81.2C41.3301 81.2 60.9535 44.8443 60.9535 29.3454C60.9535 13.8376 48.4234 1 32.9767 1Z" fill="#FF0000"/>
<path d="M32.9767 1C17.5212 1 5 13.8376 5 29.3454C5 44.8443 24.6234 81.2 32.9767 81.2C41.3301 81.2 60.9535 44.8443 60.9535 29.3454C60.9535 13.8376 48.4234 1 32.9767 1Z" stroke="white" stroke-width="2"/>
</g>
<path d="M10 29C10 41.7025 20.2975 52 33 52C45.7025 52 56 41.7025 56 29C56 16.2975 45.7025 6 33 6C20.2975 6 10 16.2975 10 29Z" fill="white"/>
<path d="M33.0033 35.0536C35.5705 35.0536 37.6516 32.9725 37.6516 30.4053C37.6516 27.8381 35.5705 25.757 33.0033 25.757C30.436 25.757 28.3549 27.8381 28.3549 30.4053C28.3549 32.9725 30.436 35.0536 33.0033 35.0536Z" fill="#FF0000"/>
<path d="M43.6295 21.8653C42.7345 21.8653 42.0016 21.1324 42.0016 20.2374V19.5996C42.0016 18.7045 41.2686 17.9716 40.3736 17.9716H25.6286C24.7335 17.9716 24.0006 18.7045 24.0006 19.5996V20.2374C24.0006 21.1324 23.2677 21.8653 22.3726 21.8653H18.628C17.7329 21.8653 17 22.5983 17 23.4933V38.4004C17 39.2955 17.7329 40.0284 18.628 40.0284H47.372C48.2671 40.0284 49 39.2955 49 38.4004V23.4933C49 22.5983 48.2671 21.8653 47.372 21.8653H43.6274H43.6295ZM33.0032 37.0751C29.3257 37.0751 26.3334 34.0829 26.3334 30.4053C26.3334 26.7277 29.3257 23.7355 33.0032 23.7355C36.6808 23.7355 39.6731 26.7277 39.6731 30.4053C39.6731 34.0829 36.6808 37.0751 33.0032 37.0751Z" fill="#FF0000"/>
<defs>
<filter id="filter0_d_16_316" x="0" y="0" width="65.9535" height="90.2" filterUnits="userSpaceOnUse" color-interpolation-filters="sRGB">
<feFlood flood-opacity="0" result="BackgroundImageFix"/>
<feColorMatrix in="SourceAlpha" type="matrix" values="0 0 0 0 0 0 0 0 0 0 0 0 0 0 0 0 0 0 127 0" result="hardAlpha"/>
<feOffset dy="4"/>
<feGaussianBlur stdDeviation="2"/>
<feComposite in2="hardAlpha" operator="out"/>
<feColorMatrix type="matrix" values="0 0 0 0 0 0 0 0 0 0 0 0 0 0 0 0 0 0 0.25 0"/>
<feBlend mode="normal" in2="BackgroundImageFix" result="effect1_dropShadow_16_316"/>
<feBlend mode="normal" in="SourceGraphic" in2="effect1_dropShadow_16_316" result="shape"/>
</filter>
</defs>
</svg>
