<svg width="75" height="90" viewBox="0 0 75 90" fill="none" xmlns="http://www.w3.org/2000/svg">
<g filter="url(#filter0_d_433_1775)">
<path d="M37.0463 74.3235L18.8971 52.7206L56.1029 52.7206L37.0463 74.3235Z" fill="#008FDF"/>
<path d="M65 32.5C65 47.6878 52.6878 60 37.5 60C22.3122 60 10 47.6878 10 32.5C10 17.3122 22.3122 5 37.5 5C52.6878 5 65 17.3122 65 32.5Z" fill="white"/>
<path d="M37.0463 74.3235L18.8971 52.7206L56.1029 52.7206L37.0463 74.3235Z" stroke="white" stroke-width="4" stroke-linejoin="round"/>
<path d="M65 32.5C65 47.6878 52.6878 60 37.5 60C22.3122 60 10 47.6878 10 32.5C10 17.3122 22.3122 5 37.5 5C52.6878 5 65 17.3122 65 32.5Z" stroke="white" stroke-width="4" stroke-linejoin="round"/>
</g>
<path d="M37.0464 74.3235L18.8971 52.7205L56.103 52.7205L37.0464 74.3235Z" fill="#FF0000"/>
<path d="M61.9091 32.5C61.9091 45.9808 50.9808 56.9091 37.5 56.9091C24.0192 56.9091 13.0909 45.9808 13.0909 32.5C13.0909 19.0192 24.0192 8.09091 37.5 8.09091C50.9808 8.09091 61.9091 19.0192 61.9091 32.5Z" fill="#FF0000" stroke="#FF0000" stroke-width="6.18182"/>
<ellipse cx="37.853" cy="33" rx="23" ry="23" fill="white"/>
<path d="M38.0033 39.0537C40.5705 39.0537 42.6516 36.9726 42.6516 34.4054C42.6516 31.8382 40.5705 29.7571 38.0033 29.7571C35.4361 29.7571 33.355 31.8382 33.355 34.4054C33.355 36.9726 35.4361 39.0537 38.0033 39.0537Z" fill="#FF0000"/>
<path d="M48.6295 25.8655C47.7345 25.8655 47.0016 25.1325 47.0016 24.2375V23.5997C47.0016 22.7046 46.2686 21.9717 45.3736 21.9717H30.6286C29.7335 21.9717 29.0006 22.7046 29.0006 23.5997V24.2375C29.0006 25.1325 28.2677 25.8655 27.3726 25.8655H23.628C22.7329 25.8655 22 26.5984 22 27.4935V42.4006C22 43.2956 22.7329 44.0286 23.628 44.0286H52.372C53.2671 44.0286 54 43.2956 54 42.4006V27.4935C54 26.5984 53.2671 25.8655 52.372 25.8655H48.6274H48.6295ZM38.0032 41.0753C34.3257 41.0753 31.3334 38.083 31.3334 34.4054C31.3334 30.7278 34.3257 27.7356 38.0032 27.7356C41.6808 27.7356 44.6731 30.7278 44.6731 34.4054C44.6731 38.083 41.6808 41.0753 38.0032 41.0753Z" fill="#FF0000"/>
<defs>
<filter id="filter0_d_433_1775" x="0" y="0" width="75" height="89.3235" filterUnits="userSpaceOnUse" color-interpolation-filters="sRGB">
<feFlood flood-opacity="0" result="BackgroundImageFix"/>
<feColorMatrix in="SourceAlpha" type="matrix" values="0 0 0 0 0 0 0 0 0 0 0 0 0 0 0 0 0 0 127 0" result="hardAlpha"/>
<feOffset dy="5"/>
<feGaussianBlur stdDeviation="4"/>
<feComposite in2="hardAlpha" operator="out"/>
<feColorMatrix type="matrix" values="0 0 0 0 0 0 0 0 0 0 0 0 0 0 0 0 0 0 0.25 0"/>
<feBlend mode="normal" in2="BackgroundImageFix" result="effect1_dropShadow_433_1775"/>
<feBlend mode="normal" in="SourceGraphic" in2="effect1_dropShadow_433_1775" result="shape"/>
</filter>
</defs>
</svg>
