<svg width="69" height="64" viewBox="0 0 69 64" fill="none" xmlns="http://www.w3.org/2000/svg">
<g filter="url(#filter0_d_772_2846)">
<path d="M37.378 6.10857C35.7964 3.29714 33.2085 3.29714 31.6269 6.10857L8.67743 46.8905C7.0959 49.7019 8.38988 52 11.5529 52H57.4519C60.615 52 61.909 49.7019 60.3275 46.8905L37.378 6.10857Z" fill="white"/>
<path d="M34.5024 2C36.5319 2 38.1279 3.3633 39.1206 5.12793L62.0708 45.9092V45.9102C63.0679 47.6828 63.3927 49.7375 62.4116 51.4805C61.4203 53.2416 59.4837 54 57.4517 54H11.5532C9.52115 54 7.58455 53.2416 6.59326 51.4805C5.61221 49.7375 5.93701 47.6828 6.93408 45.9102V45.9092L29.8843 5.12793L30.0767 4.80176C31.0775 3.19791 32.5997 2 34.5024 2Z" stroke="white" stroke-width="4"/>
</g>
<path d="M34.5024 2C36.5319 2 38.1279 3.3633 39.1206 5.12793L62.0708 45.9092V45.9102C63.0679 47.6828 63.3927 49.7375 62.4116 51.4805C61.4203 53.2416 59.4837 54 57.4517 54H11.5532C9.52115 54 7.58455 53.2416 6.59326 51.4805C5.61221 49.7375 5.93701 47.6828 6.93408 45.9102V45.9092L29.8843 5.12793L30.0767 4.80176C31.0775 3.19791 32.5997 2 34.5024 2Z" fill="#FFF000" stroke="black" stroke-width="4"/>
<path d="M49.7477 35.8604L48.4798 32.1633H39.6858L35.409 35.831H35.2971L30.9487 37.1887V39.2859L31.4918 40.517H34.0752C34.2715 41.849 35.42 42.8765 36.8053 42.8765C38.1905 42.8765 39.3391 41.849 39.5354 40.517H44.3113C44.3975 41.1023 44.6635 41.6417 45.0874 42.0674C45.6103 42.5884 46.3038 42.8765 47.0414 42.8765C48.4285 42.8765 49.5752 41.849 49.7715 40.517H51.4595L52.0026 39.3299V37.1887L49.7422 35.8585L49.7477 35.8604ZM36.8071 41.5444C36.0182 41.5444 35.3778 40.9041 35.3778 40.1152C35.3778 39.3262 36.0182 38.6859 36.8071 38.6859C37.5961 38.6859 38.2364 39.3262 38.2364 40.1152C38.2364 40.9041 37.5961 41.5444 36.8071 41.5444ZM42.7701 35.5595C42.7701 35.7833 42.5866 35.9668 42.3628 35.9668H39.3739C39.1501 35.9668 39.0749 35.8182 39.207 35.6384L40.4198 33.9852C40.5519 33.8054 40.8436 33.6568 41.0693 33.6568H42.3628C42.5866 33.6568 42.7701 33.8403 42.7701 34.0641V35.5595ZM44.2654 35.9668C44.0416 35.9668 43.8581 35.7833 43.8581 35.5595V34.0641C43.8581 33.8403 44.0416 33.6568 44.2654 33.6568H46.0304C46.2543 33.6568 46.48 33.8348 46.5313 34.0531L46.8891 35.5686C46.9405 35.787 46.7992 35.9649 46.5754 35.9649H44.2654V35.9668ZM47.0469 41.5444C46.258 41.5444 45.6176 40.9041 45.6176 40.1152C45.6176 39.3262 46.258 38.6859 47.0469 38.6859C47.8358 38.6859 48.4762 39.3262 48.4762 40.1152C48.4762 40.9041 47.8358 41.5444 47.0469 41.5444Z" fill="black"/>
<path d="M27.3305 44.1626L26.9947 39.2363L22.4243 40.9573L24.7783 36.6786L20.0024 35.6548L24.2958 33.3284L20.8318 29.8864L25.703 30.2496L24.6499 25.4793L28.5506 28.4185L30.2422 23.8372L31.9339 28.4185L35.8346 25.4793L34.7814 30.2496L39.6527 29.8864L35.7392 33.7687L35.6511 33.8329C35.4639 33.9705 35.1997 33.9302 35.0621 33.743C34.9245 33.5559 34.9649 33.2917 35.152 33.1541L35.2144 33.1082L37.44 30.8955L33.7136 31.1744L34.519 27.5269L31.5357 29.7744L30.2404 26.27L28.9451 29.7744L25.9617 27.5269L26.7672 31.1744L23.0408 30.8955L25.6902 33.5284L22.406 35.3081L26.059 36.0915L24.2572 39.3647L27.7543 38.0474L28.0057 41.7205L29.1817 40.0381C29.3157 39.8473 29.578 39.8014 29.7689 39.9335C29.9597 40.0674 30.0055 40.3298 29.8734 40.5206L27.3286 44.1589L27.3305 44.1626Z" fill="black"/>
<defs>
<filter id="filter0_d_772_2846" x="0" y="0" width="69.0049" height="64" filterUnits="userSpaceOnUse" color-interpolation-filters="sRGB">
<feFlood flood-opacity="0" result="BackgroundImageFix"/>
<feColorMatrix in="SourceAlpha" type="matrix" values="0 0 0 0 0 0 0 0 0 0 0 0 0 0 0 0 0 0 127 0" result="hardAlpha"/>
<feOffset dy="4"/>
<feGaussianBlur stdDeviation="2"/>
<feComposite in2="hardAlpha" operator="out"/>
<feColorMatrix type="matrix" values="0 0 0 0 0 0 0 0 0 0 0 0 0 0 0 0 0 0 0.25 0"/>
<feBlend mode="normal" in2="BackgroundImageFix" result="effect1_dropShadow_772_2846"/>
<feBlend mode="normal" in="SourceGraphic" in2="effect1_dropShadow_772_2846" result="shape"/>
</filter>
</defs>
</svg>
