<svg width="75" height="90" viewBox="0 0 75 90" fill="none" xmlns="http://www.w3.org/2000/svg">
<g filter="url(#filter0_d_420_1934)">
<path d="M37.0463 74.3235L18.8971 52.7206L56.1029 52.7206L37.0463 74.3235Z" fill="#008FDF"/>
<path d="M65 32.5C65 47.6878 52.6878 60 37.5 60C22.3122 60 10 47.6878 10 32.5C10 17.3122 22.3122 5 37.5 5C52.6878 5 65 17.3122 65 32.5Z" fill="white"/>
<path d="M37.0463 74.3235L18.8971 52.7206L56.1029 52.7206L37.0463 74.3235Z" stroke="white" stroke-width="4" stroke-linejoin="round"/>
<path d="M65 32.5C65 47.6878 52.6878 60 37.5 60C22.3122 60 10 47.6878 10 32.5C10 17.3122 22.3122 5 37.5 5C52.6878 5 65 17.3122 65 32.5Z" stroke="white" stroke-width="4" stroke-linejoin="round"/>
</g>
<path d="M54.7334 53.339L37.0578 73.3763L20.2239 53.339L54.7334 53.339Z" fill="#008000" stroke="#008000" stroke-width="1.23636"/>
<path d="M61.9091 32.5C61.9091 45.9808 50.9808 56.9091 37.5 56.9091C24.0192 56.9091 13.0909 45.9808 13.0909 32.5C13.0909 19.0192 24.0192 8.09091 37.5 8.09091C50.9808 8.09091 61.9091 19.0192 61.9091 32.5Z" fill="#008000" stroke="#008000" stroke-width="6.18182"/>
<path d="M59.853 33C59.853 45.1503 50.0033 55 37.853 55C25.7028 55 15.853 45.1503 15.853 33C15.853 20.8497 25.7028 11 37.853 11C50.0033 11 59.853 20.8497 59.853 33Z" fill="white" stroke="white" stroke-width="2"/>
<rect width="36" height="36" transform="matrix(-1 0 0 1 56 15)" fill="#008000"/>
<path d="M34.5061 33.9541C33.8527 33.9541 33.3271 33.4285 33.3271 32.7751C33.3271 32.1217 33.8527 31.5961 34.5061 31.5961C35.1595 31.5961 35.6851 32.1217 35.6851 32.7751C35.6851 33.4285 35.1595 33.9541 34.5061 33.9541ZM49.7089 42.0001C49.9969 41.2369 50.0311 39.2263 49.5145 38.3875C48.9979 37.5487 47.7721 36.5803 46.9333 36.4525C43.4809 35.7109 41.8501 37.8385 41.8501 37.8385L41.2561 37.6135C41.2561 37.6135 43.0975 33.5167 46.1935 32.3881C49.2895 31.2595 52.9021 31.9039 52.9021 31.9039V47.9671H37.9981V47.6449C37.9981 47.6449 47.9989 46.5487 49.7071 42.0001H49.7089ZM31.0249 36.1735C31.3543 36.1735 32.0617 36.1951 32.7205 36.2239C32.7997 36.1105 33.6205 34.9315 33.8977 34.5751C34.1875 34.2007 34.4899 33.9541 35.3791 33.9541C36.2683 33.9541 37.5427 33.9703 38.0845 33.9937C38.6263 34.0153 38.8495 34.1053 39.1807 34.6759C39.5047 35.2465 39.8521 35.8657 40.0087 36.1573C40.1653 36.4471 40.1761 36.7999 39.8071 36.9781C39.4381 37.1617 39.2041 36.9061 39.0421 36.6307C38.8855 36.3625 38.1583 35.1223 38.1583 35.1223H36.8443C36.8443 35.1223 37.5481 36.6649 37.7227 37.0501C37.8955 37.4299 37.9855 37.6315 38.0629 38.4919C38.1403 39.3523 38.2249 40.5601 38.2249 40.5601H40.4263C40.8169 40.5601 41.2201 40.5763 41.4721 41.0515C41.7187 41.5267 41.8519 41.8111 41.8519 41.8111H37.8325C37.3681 41.8111 36.9109 41.8327 36.8551 41.0965C36.7993 40.3585 36.6823 38.6089 36.6823 38.6089C36.6823 38.6089 34.5241 43.0351 34.3171 43.3825C34.1101 43.7299 34.0489 43.9027 33.3163 43.9027H32.5441L35.3215 38.0221L34.3873 35.9035C34.3873 35.9035 33.8113 36.7477 33.6151 36.9817C33.4243 37.2157 33.3253 37.4065 32.8375 37.3849C32.3515 37.3633 31.2607 37.3003 31.2607 37.3003L31.0483 37.2895C30.7297 37.2733 30.3949 37.1779 30.3823 36.7531C30.3715 36.3283 30.6901 36.1717 31.0195 36.1717L31.0249 36.1735ZM31.7413 18.8071V33.5815H26.5807V30.1615H24.6457V33.5815H22.9681V18.8071H31.7431H31.7413ZM28.2907 27.8719H30.3553V25.2259H28.2907V27.8719ZM28.2907 23.1613H30.3553V20.5153H28.2907V23.1613ZM24.5485 27.8719H26.6131V25.2259H24.5485V27.8719ZM24.5485 23.1613H26.6131V20.5153H24.5485V23.1613Z" fill="white"/>
<defs>
<filter id="filter0_d_420_1934" x="0" y="0" width="75" height="89.3237" filterUnits="userSpaceOnUse" color-interpolation-filters="sRGB">
<feFlood flood-opacity="0" result="BackgroundImageFix"/>
<feColorMatrix in="SourceAlpha" type="matrix" values="0 0 0 0 0 0 0 0 0 0 0 0 0 0 0 0 0 0 127 0" result="hardAlpha"/>
<feOffset dy="5"/>
<feGaussianBlur stdDeviation="4"/>
<feComposite in2="hardAlpha" operator="out"/>
<feColorMatrix type="matrix" values="0 0 0 0 0 0 0 0 0 0 0 0 0 0 0 0 0 0 0.25 0"/>
<feBlend mode="normal" in2="BackgroundImageFix" result="effect1_dropShadow_420_1934"/>
<feBlend mode="normal" in="SourceGraphic" in2="effect1_dropShadow_420_1934" result="shape"/>
</filter>
</defs>
</svg>
