<svg width="66" height="91" viewBox="0 0 66 91" fill="none" xmlns="http://www.w3.org/2000/svg">
<g filter="url(#filter0_d_22_941)">
<path d="M32.9767 1C17.5212 1 5 13.8376 5 29.3454C5 44.8443 24.6234 81.2 32.9767 81.2C41.3301 81.2 60.9535 44.8443 60.9535 29.3454C60.9535 13.8376 48.4234 1 32.9767 1Z" fill="#9747FF"/>
<path d="M32.9767 1C17.5212 1 5 13.8376 5 29.3454C5 44.8443 24.6234 81.2 32.9767 81.2C41.3301 81.2 60.9535 44.8443 60.9535 29.3454C60.9535 13.8376 48.4234 1 32.9767 1Z" stroke="white" stroke-width="2"/>
</g>
<path d="M10 29C10 41.7025 20.2975 52 33 52C45.7025 52 56 41.7025 56 29C56 16.2975 45.7025 6 33 6C20.2975 6 10 16.2975 10 29Z" fill="white"/>
<path d="M15.124 24.0121C15.124 31.7621 20.398 38.3161 27.648 40.4741V42.8001C31.114 44.2681 34.582 44.2681 38.048 42.8001V40.4741C45.3 38.3161 50.572 31.7621 50.572 24.0121C50.572 14.5041 15.122 14.5041 15.122 24.0121H15.124ZM25.574 26.3961C24.318 27.6061 23.442 28.8161 22.952 30.0161C22.038 29.6721 21.23 29.2801 20.548 28.8521C20.772 27.4521 21.582 26.0681 22.972 24.7281C25.632 22.1661 29.94 20.2721 33.142 19.4041C34.682 19.4161 36.164 19.5261 37.554 19.7201C33.93 20.8261 28.802 23.2841 25.574 26.3961ZM27.69 25.6361C28.556 24.9681 29.5 24.3381 30.476 23.7581C37.08 25.4061 41.672 27.8141 42.608 30.0681C41.602 30.4361 40.478 30.7501 39.256 30.9941C36.692 28.1881 30.448 26.3401 27.69 25.6361ZM29.526 26.9701C27.736 28.1421 27.066 29.8201 26.822 31.0661C25.702 30.8581 24.658 30.5941 23.708 30.2821C24.158 29.1981 24.966 28.0921 26.128 26.9721C26.414 26.6961 26.718 26.4241 27.036 26.1581L27.004 26.2881C27.88 26.5021 28.72 26.7301 29.524 26.9681L29.526 26.9701ZM18.122 25.5001C18.122 22.4941 23.372 19.9981 30.282 19.4941C27.506 20.5441 24.506 22.1381 22.418 24.1521C21.016 25.5021 20.152 26.9081 19.83 28.3501C18.742 27.5001 18.124 26.5301 18.124 25.5001H18.122ZM32.85 31.6001C30.998 31.6001 29.228 31.4581 27.594 31.1981C27.824 30.0061 28.51 28.3601 30.484 27.3321L30.442 27.2521C34.036 28.4021 36.774 29.7761 38.28 31.1701C36.598 31.4461 34.766 31.6001 32.848 31.6001H32.85ZM43.358 29.7721C42 26.3941 34.946 24.1201 31.474 23.1881C32.168 22.8081 32.87 22.4541 33.564 22.1281C40.178 23.7641 44.798 26.1641 45.788 28.4161C45.132 28.9141 44.31 29.3701 43.358 29.7721ZM46.422 27.8721C44.792 24.6781 38.124 22.5181 34.736 21.6041C36.528 20.8401 38.192 20.2981 39.436 20.0441C44.262 21.0461 47.578 23.1121 47.578 25.5001C47.578 26.3421 47.166 27.1441 46.422 27.8721Z" fill="#9747FF"/>
<defs>
<filter id="filter0_d_22_941" x="0" y="0" width="65.9535" height="90.2" filterUnits="userSpaceOnUse" color-interpolation-filters="sRGB">
<feFlood flood-opacity="0" result="BackgroundImageFix"/>
<feColorMatrix in="SourceAlpha" type="matrix" values="0 0 0 0 0 0 0 0 0 0 0 0 0 0 0 0 0 0 127 0" result="hardAlpha"/>
<feOffset dy="4"/>
<feGaussianBlur stdDeviation="2"/>
<feComposite in2="hardAlpha" operator="out"/>
<feColorMatrix type="matrix" values="0 0 0 0 0 0 0 0 0 0 0 0 0 0 0 0 0 0 0.25 0"/>
<feBlend mode="normal" in2="BackgroundImageFix" result="effect1_dropShadow_22_941"/>
<feBlend mode="normal" in="SourceGraphic" in2="effect1_dropShadow_22_941" result="shape"/>
</filter>
</defs>
</svg>
