<svg width="75" height="90" viewBox="0 0 75 90" fill="none" xmlns="http://www.w3.org/2000/svg">
<g filter="url(#filter0_d_463_2556)">
<path d="M37.0463 74.3235L18.8971 52.7206L56.1029 52.7206L37.0463 74.3235Z" fill="#008FDF"/>
<path d="M65 32.5C65 47.6878 52.6878 60 37.5 60C22.3122 60 10 47.6878 10 32.5C10 17.3122 22.3122 5 37.5 5C52.6878 5 65 17.3122 65 32.5Z" fill="white"/>
<path d="M37.0463 74.3235L18.8971 52.7206L56.1029 52.7206L37.0463 74.3235Z" stroke="white" stroke-width="4" stroke-linejoin="round"/>
<path d="M65 32.5C65 47.6878 52.6878 60 37.5 60C22.3122 60 10 47.6878 10 32.5C10 17.3122 22.3122 5 37.5 5C52.6878 5 65 17.3122 65 32.5Z" stroke="white" stroke-width="4" stroke-linejoin="round"/>
</g>
<path d="M37.0464 74.3235L18.8971 52.7205L56.103 52.7205L37.0464 74.3235Z" fill="#9747FF"/>
<path d="M61.9091 32.5C61.9091 45.9808 50.9808 56.9091 37.5 56.9091C24.0192 56.9091 13.0909 45.9808 13.0909 32.5C13.0909 19.0192 24.0192 8.09091 37.5 8.09091C50.9808 8.09091 61.9091 19.0192 61.9091 32.5Z" fill="#9747FF" stroke="#9747FF" stroke-width="6.18182"/>
<ellipse cx="37.853" cy="33" rx="23" ry="23" fill="white"/>
<path d="M20.1241 28.0121C20.1241 35.7621 25.3981 42.3161 32.6481 44.4741V46.8001C36.1141 48.2681 39.5821 48.2681 43.0481 46.8001V44.4741C50.3001 42.3161 55.5721 35.7621 55.5721 28.0121C55.5721 18.5041 20.1221 18.5041 20.1221 28.0121H20.1241ZM30.5741 30.3961C29.3181 31.6061 28.4421 32.8161 27.9521 34.0161C27.0381 33.6721 26.2301 33.2801 25.5481 32.8521C25.7721 31.4521 26.5821 30.0681 27.9721 28.7281C30.6321 26.1661 34.9401 24.2721 38.1421 23.4041C39.6821 23.4161 41.1641 23.5261 42.5541 23.7201C38.9301 24.8261 33.8021 27.2841 30.5741 30.3961ZM32.6901 29.6361C33.5561 28.9681 34.5001 28.3381 35.4761 27.7581C42.0801 29.4061 46.6721 31.8141 47.6081 34.0681C46.6021 34.4361 45.4781 34.7501 44.2561 34.9941C41.6921 32.1881 35.4481 30.3401 32.6901 29.6361ZM34.5261 30.9701C32.7361 32.1421 32.0661 33.8201 31.8221 35.0661C30.7021 34.8581 29.6581 34.5941 28.7081 34.2821C29.1581 33.1981 29.9661 32.0921 31.1281 30.9721C31.4141 30.6961 31.7181 30.4241 32.0361 30.1581L32.0041 30.2881C32.8801 30.5021 33.7201 30.7301 34.5241 30.9681L34.5261 30.9701ZM23.1221 29.5001C23.1221 26.4941 28.3721 23.9981 35.2821 23.4941C32.5061 24.5441 29.5061 26.1381 27.4181 28.1521C26.0161 29.5021 25.1521 30.9081 24.8301 32.3501C23.7421 31.5001 23.1241 30.5301 23.1241 29.5001H23.1221ZM37.8501 35.6001C35.9981 35.6001 34.2281 35.4581 32.5941 35.1981C32.8241 34.0061 33.5101 32.3601 35.4841 31.3321L35.4421 31.2521C39.0361 32.4021 41.7741 33.7761 43.2801 35.1701C41.5981 35.4461 39.7661 35.6001 37.8481 35.6001H37.8501ZM48.3581 33.7721C47.0001 30.3941 39.9461 28.1201 36.4741 27.1881C37.1681 26.8081 37.8701 26.4541 38.5641 26.1281C45.1781 27.7641 49.7981 30.1641 50.7881 32.4161C50.1321 32.9141 49.3101 33.3701 48.3581 33.7721ZM51.4221 31.8721C49.7921 28.6781 43.1241 26.5181 39.7361 25.6041C41.5281 24.8401 43.1921 24.2981 44.4361 24.0441C49.2621 25.0461 52.5781 27.1121 52.5781 29.5001C52.5781 30.3421 52.1661 31.1441 51.4221 31.8721Z" fill="#9747FF"/>
<defs>
<filter id="filter0_d_463_2556" x="0" y="0" width="75" height="89.3235" filterUnits="userSpaceOnUse" color-interpolation-filters="sRGB">
<feFlood flood-opacity="0" result="BackgroundImageFix"/>
<feColorMatrix in="SourceAlpha" type="matrix" values="0 0 0 0 0 0 0 0 0 0 0 0 0 0 0 0 0 0 127 0" result="hardAlpha"/>
<feOffset dy="5"/>
<feGaussianBlur stdDeviation="4"/>
<feComposite in2="hardAlpha" operator="out"/>
<feColorMatrix type="matrix" values="0 0 0 0 0 0 0 0 0 0 0 0 0 0 0 0 0 0 0.25 0"/>
<feBlend mode="normal" in2="BackgroundImageFix" result="effect1_dropShadow_463_2556"/>
<feBlend mode="normal" in="SourceGraphic" in2="effect1_dropShadow_463_2556" result="shape"/>
</filter>
</defs>
</svg>
