<svg width="75" height="90" viewBox="0 0 75 90" fill="none" xmlns="http://www.w3.org/2000/svg">
<g filter="url(#filter0_d_336_2451)">
<path d="M37.0463 74.3235L18.8971 52.7206L56.1029 52.7206L37.0463 74.3235Z" fill="#008FDF"/>
<path d="M65 32.5C65 47.6878 52.6878 60 37.5 60C22.3122 60 10 47.6878 10 32.5C10 17.3122 22.3122 5 37.5 5C52.6878 5 65 17.3122 65 32.5Z" fill="white"/>
<path d="M37.0463 74.3235L18.8971 52.7206L56.1029 52.7206L37.0463 74.3235Z" stroke="white" stroke-width="4" stroke-linejoin="round"/>
<path d="M65 32.5C65 47.6878 52.6878 60 37.5 60C22.3122 60 10 47.6878 10 32.5C10 17.3122 22.3122 5 37.5 5C52.6878 5 65 17.3122 65 32.5Z" stroke="white" stroke-width="4" stroke-linejoin="round"/>
</g>
<path d="M37.0462 74.3237L18.897 52.7208L56.1029 52.7208L37.0462 74.3237Z" fill="#C9C9C9"/>
<path d="M61.9091 32.5C61.9091 45.9808 50.9808 56.9091 37.5 56.9091C24.0192 56.9091 13.0909 45.9808 13.0909 32.5C13.0909 19.0192 24.0192 8.09091 37.5 8.09091C50.9808 8.09091 61.9091 19.0192 61.9091 32.5Z" fill="#C9C9C9" stroke="#C9C9C9" stroke-width="6.18182"/>
<ellipse cx="37.8529" cy="33" rx="23" ry="23" fill="white"/>
<g clip-path="url(#clip0_336_2451)">
<path d="M52.8804 41.1543C51.3152 41.1543 50.4823 41.7544 49.8105 42.2358C49.244 42.6434 48.8342 42.9389 47.9184 42.9389C47.0026 42.9389 46.5928 42.6434 46.0263 42.2358C45.3568 41.7544 44.5216 41.1543 42.9564 41.1543C41.3912 41.1543 40.5583 41.7544 39.8865 42.2358C39.32 42.6434 38.9102 42.9389 37.9944 42.9389C37.0786 42.9389 36.6688 42.6434 36.1023 42.2358C35.4328 41.7544 34.5976 41.1543 33.0346 41.1543C31.4717 41.1543 30.6365 41.7544 29.967 42.2358C29.4005 42.6434 28.9907 42.9389 28.0749 42.9389C27.1591 42.9389 26.7493 42.6434 26.1828 42.2358C25.5133 41.7544 24.678 41.1543 23.1151 41.1543C22.5576 41.1543 22.1075 41.6044 22.1075 42.1619C22.1075 42.7195 22.5576 43.1696 23.1151 43.1696C24.0309 43.1696 24.4385 43.4651 25.0072 43.8727C25.6767 44.3541 26.5119 44.9542 28.0749 44.9542C29.6378 44.9542 30.473 44.3541 31.1425 43.8727C31.709 43.4651 32.1188 43.1696 33.0346 43.1696C33.9505 43.1696 34.358 43.4651 34.9267 43.8727C35.5963 44.3541 36.4315 44.9542 37.9944 44.9542C39.5573 44.9542 40.3926 44.3541 41.0621 43.8727C41.6286 43.4651 42.0383 43.1696 42.9542 43.1696C43.87 43.1696 44.2798 43.4651 44.8463 43.8727C45.5158 44.3541 46.351 44.9542 47.9162 44.9542C49.4814 44.9542 50.3143 44.3541 50.9861 43.8727C51.5526 43.4651 51.9624 43.1696 52.8782 43.1696C53.4357 43.1696 53.8858 42.7195 53.8858 42.1619C53.8858 41.6044 53.4357 41.1543 52.8782 41.1543H52.8804ZM23.1196 38.3554C23.9973 38.3554 24.3758 38.6263 24.9445 39.0361C25.6275 39.5287 26.4783 40.14 28.0794 40.14C29.6804 40.14 30.5312 39.5287 31.2142 39.0361C31.7852 38.6263 32.1614 38.3554 33.0391 38.3554C33.9169 38.3554 34.2953 38.6263 34.864 39.0361C35.547 39.5287 36.3979 40.14 37.9989 40.14C39.5999 40.14 40.4508 39.5287 41.1337 39.0361C41.7047 38.6263 42.0809 38.3554 42.9586 38.3554C43.8364 38.3554 44.2148 38.6263 44.7858 39.0361C45.4688 39.5287 46.3196 40.14 47.9207 40.14C49.5217 40.14 50.3725 39.5287 51.0555 39.0361C51.6265 38.6263 52.0027 38.3531 52.8827 38.3531C53.5007 38.3531 54.0022 37.8515 54.0022 37.2335C54.0022 36.6155 53.5007 36.1139 52.8827 36.1139C51.2817 36.1139 50.4308 36.7252 49.7478 37.2179C49.1768 37.6276 48.8006 37.8986 47.9207 37.8986C47.0407 37.8986 46.6645 37.6276 46.0935 37.2156C45.4105 36.723 44.5597 36.1117 42.9586 36.1117C41.3576 36.1117 40.5068 36.723 39.8238 37.2156C39.2528 37.6254 38.8766 37.8963 37.9989 37.8963C37.1211 37.8963 36.7427 37.6254 36.174 37.2156C35.491 36.723 34.6401 36.1117 33.0391 36.1117C31.4381 36.1117 30.5872 36.723 29.9043 37.2156C29.3333 37.6254 28.9571 37.8963 28.0794 37.8963C27.2016 37.8963 26.8232 37.6254 26.2544 37.2156C25.5715 36.723 24.7206 36.1117 23.1196 36.1117C22.5016 36.1117 22 36.6133 22 37.2313C22 37.8493 22.5016 38.3509 23.1196 38.3509V38.3554ZM22.8419 32.473C22.927 32.6656 23.1688 32.8224 23.3793 32.8224H26.6373C26.8053 33.9643 27.4703 34.9429 28.404 35.5385C28.4667 35.4959 28.5339 35.4467 28.5944 35.4019C29.0668 35.0615 29.7296 34.5868 30.6768 34.2577C30.6141 34.2644 30.5492 34.2666 30.4842 34.2666C29.3714 34.2666 28.469 33.3642 28.469 32.2514C28.469 31.1385 29.3714 30.2361 30.4842 30.2361C31.5971 30.2361 32.4995 31.1385 32.4995 32.2514C32.4995 33.044 32.0404 33.727 31.3754 34.0561C31.8636 33.9442 32.4121 33.8748 33.0369 33.8748C33.375 33.8748 33.6907 33.8972 33.9885 33.933C34.1542 33.5859 34.2751 33.2142 34.3334 32.8201H41.0665C41.1292 33.2478 41.2658 33.6509 41.4539 34.0203C41.9018 33.9285 42.3989 33.8725 42.9564 33.8725C43.2475 33.8725 43.5207 33.8882 43.7804 33.9151C43.2475 33.5523 42.8982 32.941 42.8982 32.2491C42.8982 31.1363 43.8006 30.2339 44.9134 30.2339C46.0263 30.2339 46.9287 31.1363 46.9287 32.2491C46.9287 33.2456 46.2054 34.0718 45.2538 34.233C46.1674 34.5398 46.819 34.9832 47.2937 35.3235C48.0684 34.7212 48.6126 33.8345 48.7626 32.8179H50.7599C50.9704 32.8179 51.2145 32.6611 51.3018 32.4686L51.7496 31.4923C51.837 31.2997 51.9086 30.9728 51.9086 30.7601V28.5075C51.9086 28.297 51.7608 28.0372 51.5795 27.9298L49.0537 26.443C48.8723 26.3355 48.6685 26.0847 48.5991 25.8854L47.0608 21.4003C46.9914 21.2011 46.7652 21.0376 46.5525 21.0376H34.9245C34.714 21.0376 34.4117 21.1496 34.2505 21.2861L28.8048 25.9571C28.6459 26.0936 28.4779 26.2056 28.4354 26.2056C28.3928 26.2056 28.1913 26.2571 27.9898 26.3198L22.5956 28.0171C22.3941 28.0798 22.2306 28.3037 22.2306 28.5142V30.7041C22.2306 30.9146 22.3 31.2437 22.3851 31.4385L22.8419 32.473ZM40.4217 23.7268C40.4217 23.4111 40.6792 23.1514 40.9971 23.1514H43.4849C43.8006 23.1514 44.1185 23.4022 44.1902 23.7112L44.694 25.8473C44.7657 26.1541 44.5664 26.4071 44.2507 26.4071H40.9949C40.6792 26.4071 40.4194 26.1496 40.4194 25.8317V23.7246L40.4217 23.7268ZM33.8676 25.9436L35.5761 23.6149C35.762 23.3596 36.174 23.1514 36.4897 23.1514H38.3146C38.6303 23.1514 38.8901 23.4089 38.8901 23.7268V25.8339C38.8901 26.1496 38.6326 26.4094 38.3146 26.4094H34.1027C33.787 26.4094 33.6818 26.2011 33.8676 25.9459V25.9436Z" fill="#C9C9C9"/>
</g>
<defs>
<filter id="filter0_d_336_2451" x="0" y="0" width="75" height="89.3237" filterUnits="userSpaceOnUse" color-interpolation-filters="sRGB">
<feFlood flood-opacity="0" result="BackgroundImageFix"/>
<feColorMatrix in="SourceAlpha" type="matrix" values="0 0 0 0 0 0 0 0 0 0 0 0 0 0 0 0 0 0 127 0" result="hardAlpha"/>
<feOffset dy="5"/>
<feGaussianBlur stdDeviation="4"/>
<feComposite in2="hardAlpha" operator="out"/>
<feColorMatrix type="matrix" values="0 0 0 0 0 0 0 0 0 0 0 0 0 0 0 0 0 0 0.25 0"/>
<feBlend mode="normal" in2="BackgroundImageFix" result="effect1_dropShadow_336_2451"/>
<feBlend mode="normal" in="SourceGraphic" in2="effect1_dropShadow_336_2451" result="shape"/>
</filter>
<clipPath id="clip0_336_2451">
<rect width="32" height="23.9076" fill="white" transform="translate(22 21.0464)"/>
</clipPath>
</defs>
</svg>
