<svg width="75" height="90" viewBox="0 0 75 90" fill="none" xmlns="http://www.w3.org/2000/svg">
<g filter="url(#filter0_d_463_2577)">
<path d="M37.0463 74.3235L18.8971 52.7206L56.1029 52.7206L37.0463 74.3235Z" fill="#008FDF"/>
<path d="M65 32.5C65 47.6878 52.6878 60 37.5 60C22.3122 60 10 47.6878 10 32.5C10 17.3122 22.3122 5 37.5 5C52.6878 5 65 17.3122 65 32.5Z" fill="white"/>
<path d="M37.0463 74.3235L18.8971 52.7206L56.1029 52.7206L37.0463 74.3235Z" stroke="white" stroke-width="4" stroke-linejoin="round"/>
<path d="M65 32.5C65 47.6878 52.6878 60 37.5 60C22.3122 60 10 47.6878 10 32.5C10 17.3122 22.3122 5 37.5 5C52.6878 5 65 17.3122 65 32.5Z" stroke="white" stroke-width="4" stroke-linejoin="round"/>
</g>
<path d="M37.0464 74.3235L18.8971 52.7205L56.103 52.7205L37.0464 74.3235Z" fill="#004F88"/>
<path d="M61.9091 32.5C61.9091 45.9808 50.9808 56.9091 37.5 56.9091C24.0192 56.9091 13.0909 45.9808 13.0909 32.5C13.0909 19.0192 24.0192 8.09091 37.5 8.09091C50.9808 8.09091 61.9091 19.0192 61.9091 32.5Z" fill="#004F88" stroke="#004F88" stroke-width="6.18182"/>
<ellipse cx="37.853" cy="33" rx="23" ry="23" fill="white"/>
<g clip-path="url(#clip0_463_2577)">
<path d="M52.8804 41.1541C51.3152 41.1541 50.4823 41.7542 49.8105 42.2356C49.244 42.6431 48.8342 42.9387 47.9184 42.9387C47.0026 42.9387 46.5928 42.6431 46.0263 42.2356C45.3568 41.7542 44.5216 41.1541 42.9564 41.1541C41.3912 41.1541 40.5583 41.7542 39.8865 42.2356C39.32 42.6431 38.9102 42.9387 37.9944 42.9387C37.0786 42.9387 36.6688 42.6431 36.1023 42.2356C35.4328 41.7542 34.5976 41.1541 33.0346 41.1541C31.4717 41.1541 30.6365 41.7542 29.967 42.2356C29.4005 42.6431 28.9907 42.9387 28.0749 42.9387C27.1591 42.9387 26.7493 42.6431 26.1828 42.2356C25.5133 41.7542 24.678 41.1541 23.1151 41.1541C22.5576 41.1541 22.1075 41.6041 22.1075 42.1617C22.1075 42.7193 22.5576 43.1693 23.1151 43.1693C24.0309 43.1693 24.4385 43.4649 25.0072 43.8724C25.6767 44.3538 26.5119 44.9539 28.0749 44.9539C29.6378 44.9539 30.473 44.3538 31.1425 43.8724C31.709 43.4649 32.1188 43.1693 33.0346 43.1693C33.9505 43.1693 34.358 43.4649 34.9267 43.8724C35.5963 44.3538 36.4315 44.9539 37.9944 44.9539C39.5573 44.9539 40.3926 44.3538 41.0621 43.8724C41.6286 43.4649 42.0383 43.1693 42.9542 43.1693C43.87 43.1693 44.2798 43.4649 44.8463 43.8724C45.5158 44.3538 46.351 44.9539 47.9162 44.9539C49.4814 44.9539 50.3143 44.3538 50.9861 43.8724C51.5526 43.4649 51.9624 43.1693 52.8782 43.1693C53.4357 43.1693 53.8858 42.7193 53.8858 42.1617C53.8858 41.6041 53.4357 41.1541 52.8782 41.1541H52.8804ZM23.1196 38.3551C23.9973 38.3551 24.3758 38.626 24.9445 39.0358C25.6275 39.5284 26.4783 40.1397 28.0794 40.1397C29.6804 40.1397 30.5312 39.5284 31.2142 39.0358C31.7852 38.626 32.1614 38.3551 33.0391 38.3551C33.9169 38.3551 34.2953 38.626 34.864 39.0358C35.547 39.5284 36.3979 40.1397 37.9989 40.1397C39.5999 40.1397 40.4508 39.5284 41.1337 39.0358C41.7047 38.626 42.0809 38.3551 42.9586 38.3551C43.8364 38.3551 44.2148 38.626 44.7858 39.0358C45.4688 39.5284 46.3196 40.1397 47.9207 40.1397C49.5217 40.1397 50.3725 39.5284 51.0555 39.0358C51.6265 38.626 52.0027 38.3529 52.8827 38.3529C53.5007 38.3529 54.0022 37.8513 54.0022 37.2333C54.0022 36.6153 53.5007 36.1137 52.8827 36.1137C51.2817 36.1137 50.4308 36.725 49.7478 37.2176C49.1768 37.6274 48.8006 37.8983 47.9207 37.8983C47.0407 37.8983 46.6645 37.6274 46.0935 37.2154C45.4105 36.7228 44.5597 36.1115 42.9586 36.1115C41.3576 36.1115 40.5068 36.7228 39.8238 37.2154C39.2528 37.6251 38.8766 37.8961 37.9989 37.8961C37.1211 37.8961 36.7427 37.6251 36.174 37.2154C35.491 36.7228 34.6401 36.1115 33.0391 36.1115C31.4381 36.1115 30.5872 36.7228 29.9043 37.2154C29.3333 37.6251 28.9571 37.8961 28.0794 37.8961C27.2016 37.8961 26.8232 37.6251 26.2544 37.2154C25.5715 36.7228 24.7206 36.1115 23.1196 36.1115C22.5016 36.1115 22 36.613 22 37.231C22 37.8491 22.5016 38.3506 23.1196 38.3506V38.3551ZM22.8419 32.4728C22.927 32.6654 23.1688 32.8221 23.3793 32.8221H26.6373C26.8053 33.9641 27.4703 34.9426 28.404 35.5382C28.4667 35.4957 28.5339 35.4464 28.5944 35.4016C29.0668 35.0613 29.7296 34.5866 30.6768 34.2574C30.6141 34.2641 30.5492 34.2664 30.4842 34.2664C29.3714 34.2664 28.469 33.364 28.469 32.2511C28.469 31.1383 29.3714 30.2359 30.4842 30.2359C31.5971 30.2359 32.4995 31.1383 32.4995 32.2511C32.4995 33.0438 32.0404 33.7267 31.3754 34.0559C31.8636 33.9439 32.4121 33.8745 33.0369 33.8745C33.375 33.8745 33.6907 33.8969 33.9885 33.9327C34.1542 33.5857 34.2751 33.214 34.3334 32.8199H41.0665C41.1292 33.2476 41.2658 33.6506 41.4539 34.0201C41.9018 33.9283 42.3989 33.8723 42.9564 33.8723C43.2475 33.8723 43.5207 33.888 43.7804 33.9148C43.2475 33.5521 42.8982 32.9408 42.8982 32.2489C42.8982 31.136 43.8006 30.2336 44.9134 30.2336C46.0263 30.2336 46.9287 31.136 46.9287 32.2489C46.9287 33.2453 46.2054 34.0716 45.2538 34.2328C46.1674 34.5396 46.819 34.9829 47.2937 35.3233C48.0684 34.7209 48.6126 33.8342 48.7626 32.8176H50.7599C50.9704 32.8176 51.2145 32.6609 51.3018 32.4683L51.7496 31.492C51.837 31.2995 51.9086 30.9726 51.9086 30.7598V28.5072C51.9086 28.2967 51.7608 28.037 51.5795 27.9295L49.0537 26.4427C48.8723 26.3352 48.6685 26.0844 48.5991 25.8852L47.0608 21.4001C46.9914 21.2008 46.7652 21.0374 46.5525 21.0374H34.9245C34.714 21.0374 34.4117 21.1493 34.2505 21.2859L28.8048 25.9568C28.6459 26.0934 28.4779 26.2054 28.4354 26.2054C28.3928 26.2054 28.1913 26.2569 27.9898 26.3196L22.5956 28.0169C22.3941 28.0795 22.2306 28.3035 22.2306 28.5139V30.7039C22.2306 30.9143 22.3 31.2435 22.3851 31.4383L22.8419 32.4728ZM40.4217 23.7266C40.4217 23.4109 40.6792 23.1511 40.9971 23.1511H43.4849C43.8006 23.1511 44.1185 23.4019 44.1902 23.7109L44.694 25.8471C44.7657 26.1539 44.5664 26.4069 44.2507 26.4069H40.9949C40.6792 26.4069 40.4194 26.1494 40.4194 25.8314V23.7244L40.4217 23.7266ZM33.8676 25.9434L35.5761 23.6146C35.762 23.3594 36.174 23.1511 36.4897 23.1511H38.3146C38.6303 23.1511 38.8901 23.4086 38.8901 23.7266V25.8337C38.8901 26.1494 38.6326 26.4091 38.3146 26.4091H34.1027C33.787 26.4091 33.6818 26.2009 33.8676 25.9456V25.9434Z" fill="#004F88"/>
</g>
<defs>
<filter id="filter0_d_463_2577" x="0" y="0" width="75" height="89.3235" filterUnits="userSpaceOnUse" color-interpolation-filters="sRGB">
<feFlood flood-opacity="0" result="BackgroundImageFix"/>
<feColorMatrix in="SourceAlpha" type="matrix" values="0 0 0 0 0 0 0 0 0 0 0 0 0 0 0 0 0 0 127 0" result="hardAlpha"/>
<feOffset dy="5"/>
<feGaussianBlur stdDeviation="4"/>
<feComposite in2="hardAlpha" operator="out"/>
<feColorMatrix type="matrix" values="0 0 0 0 0 0 0 0 0 0 0 0 0 0 0 0 0 0 0.25 0"/>
<feBlend mode="normal" in2="BackgroundImageFix" result="effect1_dropShadow_463_2577"/>
<feBlend mode="normal" in="SourceGraphic" in2="effect1_dropShadow_463_2577" result="shape"/>
</filter>
<clipPath id="clip0_463_2577">
<rect width="32" height="23.9076" fill="white" transform="translate(22 21.0461)"/>
</clipPath>
</defs>
</svg>
