<svg width="67" height="91" viewBox="0 0 67 91" fill="none" xmlns="http://www.w3.org/2000/svg">
<g filter="url(#filter0_d_47_1311)">
<path d="M33.1372 1C17.6817 1 5.16046 13.8376 5.16046 29.3454C5.16046 44.8443 24.7838 81.2 33.1372 81.2C41.4906 81.2 61.114 44.8443 61.114 29.3454C61.114 13.8376 48.5839 1 33.1372 1Z" fill="#004F88"/>
<path d="M33.1372 1C17.6817 1 5.16046 13.8376 5.16046 29.3454C5.16046 44.8443 24.7838 81.2 33.1372 81.2C41.4906 81.2 61.114 44.8443 61.114 29.3454C61.114 13.8376 48.5839 1 33.1372 1Z" stroke="white" stroke-width="2"/>
</g>
<path d="M10.1605 29C10.1605 41.7025 20.4579 52 33.1605 52C45.863 52 56.1605 41.7025 56.1605 29C56.1605 16.2975 45.863 6 33.1605 6C20.4579 6 10.1605 16.2975 10.1605 29Z" fill="white"/>
<g clip-path="url(#clip0_47_1311)">
<path d="M49.2775 36.2154C47.5482 36.2154 46.628 36.8784 45.8858 37.4103C45.2599 37.8605 44.8072 38.1871 43.7954 38.1871C42.7836 38.1871 42.3309 37.8605 41.705 37.4103C40.9653 36.8784 40.0425 36.2154 38.3133 36.2154C36.5841 36.2154 35.6638 36.8784 34.9217 37.4103C34.2958 37.8605 33.8431 38.1871 32.8312 38.1871C31.8194 38.1871 31.3667 37.8605 30.7408 37.4103C30.0012 36.8784 29.0784 36.2154 27.3516 36.2154C25.6249 36.2154 24.7021 36.8784 23.9625 37.4103C23.3366 37.8605 22.8839 38.1871 21.872 38.1871C20.8602 38.1871 20.4075 37.8605 19.7816 37.4103C19.0419 36.8784 18.1192 36.2154 16.3924 36.2154C15.7765 36.2154 15.2792 36.7126 15.2792 37.3286C15.2792 37.9446 15.7765 38.4419 16.3924 38.4419C17.4043 38.4419 17.8545 38.7684 18.4829 39.2187C19.2225 39.7505 20.1453 40.4135 21.872 40.4135C23.5988 40.4135 24.5216 39.7505 25.2612 39.2187C25.8871 38.7684 26.3398 38.4419 27.3516 38.4419C28.3635 38.4419 28.8137 38.7684 29.4421 39.2187C30.1817 39.7505 31.1045 40.4135 32.8312 40.4135C34.558 40.4135 35.4808 39.7505 36.2204 39.2187C36.8463 38.7684 37.299 38.4419 38.3108 38.4419C39.3227 38.4419 39.7754 38.7684 40.4013 39.2187C41.1409 39.7505 42.0637 40.4135 43.7929 40.4135C45.5222 40.4135 46.4424 39.7505 47.1846 39.2187C47.8105 38.7684 48.2632 38.4419 49.275 38.4419C49.891 38.4419 50.3882 37.9446 50.3882 37.3286C50.3882 36.7126 49.891 36.2154 49.275 36.2154H49.2775ZM16.3974 33.1231C17.3671 33.1231 17.7852 33.4224 18.4136 33.8751C19.1681 34.4194 20.1082 35.0947 21.877 35.0947C23.6458 35.0947 24.5859 34.4194 25.3404 33.8751C25.9712 33.4224 26.3868 33.1231 27.3566 33.1231C28.3263 33.1231 28.7444 33.4224 29.3728 33.8751C30.1273 34.4194 31.0674 35.0947 32.8362 35.0947C34.605 35.0947 35.5451 34.4194 36.2996 33.8751C36.9304 33.4224 37.346 33.1231 38.3158 33.1231C39.2855 33.1231 39.7036 33.4224 40.3345 33.8751C41.089 34.4194 42.0291 35.0947 43.7979 35.0947C45.5667 35.0947 46.5067 34.4194 47.2613 33.8751C47.8921 33.4224 48.3077 33.1206 49.2799 33.1206C49.9627 33.1206 50.5169 32.5665 50.5169 31.8837C50.5169 31.2009 49.9627 30.6467 49.2799 30.6467C47.5111 30.6467 46.5711 31.3221 45.8165 31.8664C45.1857 32.3191 44.7701 32.6184 43.7979 32.6184C42.8256 32.6184 42.41 32.3191 41.7792 31.8639C41.0247 31.3196 40.0846 30.6443 38.3158 30.6443C36.547 30.6443 35.6069 31.3196 34.8524 31.8639C34.2216 32.3166 33.8059 32.6159 32.8362 32.6159C31.8664 32.6159 31.4484 32.3166 30.82 31.8639C30.0655 31.3196 29.1254 30.6443 27.3566 30.6443C25.5878 30.6443 24.6477 31.3196 23.8932 31.8639C23.2624 32.3166 22.8467 32.6159 21.877 32.6159C20.9072 32.6159 20.4892 32.3166 19.8608 31.8639C19.1063 31.3196 18.1662 30.6443 16.3974 30.6443C15.7146 30.6443 15.1605 31.1984 15.1605 31.8812C15.1605 32.564 15.7146 33.1181 16.3974 33.1181V33.1231ZM16.0906 26.6242C16.1846 26.837 16.4518 27.0102 16.6844 27.0102H20.2838C20.4694 28.2718 21.2041 29.3529 22.2357 30.011C22.305 29.964 22.3792 29.9095 22.446 29.86C22.968 29.484 23.7002 28.9596 24.7467 28.5959C24.6774 28.6033 24.6057 28.6058 24.5339 28.6058C23.3044 28.6058 22.3074 27.6088 22.3074 26.3793C22.3074 25.1498 23.3044 24.1529 24.5339 24.1529C25.7634 24.1529 26.7604 25.1498 26.7604 26.3793C26.7604 27.2551 26.2533 28.0096 25.5185 28.3733C26.0578 28.2496 26.6639 28.1729 27.3541 28.1729C27.7277 28.1729 28.0765 28.1976 28.4055 28.2372C28.5886 27.8537 28.7222 27.4431 28.7865 27.0077H36.2254C36.2947 27.4802 36.4456 27.9255 36.6534 28.3337C37.1481 28.2322 37.6973 28.1704 38.3133 28.1704C38.6349 28.1704 38.9367 28.1877 39.2237 28.2174C38.6349 27.8166 38.249 27.1413 38.249 26.3769C38.249 25.1473 39.246 24.1504 40.4755 24.1504C41.705 24.1504 42.702 25.1473 42.702 26.3769C42.702 27.4777 41.9029 28.3906 40.8515 28.5687C41.8608 28.9076 42.5807 29.3974 43.1052 29.7735C43.9611 29.108 44.5623 28.1283 44.728 27.0052H46.9347C47.1673 27.0052 47.4369 26.832 47.5334 26.6193L48.0282 25.5407C48.1247 25.3279 48.2038 24.9668 48.2038 24.7317V22.243C48.2038 22.0105 48.0405 21.7235 47.8402 21.6048L45.0496 19.9621C44.8493 19.8434 44.6241 19.5663 44.5475 19.3461L42.8479 14.391C42.7712 14.1708 42.5214 13.9902 42.2863 13.9902H29.4396C29.207 13.9902 28.8731 14.1139 28.695 14.2648L22.6785 19.4253C22.5029 19.5762 22.3173 19.6999 22.2703 19.6999C22.2233 19.6999 22.0007 19.7568 21.778 19.8261L15.8185 21.7013C15.5959 21.7705 15.4153 22.0179 15.4153 22.2505V24.6699C15.4153 24.9024 15.492 25.2661 15.586 25.4813L16.0906 26.6242ZM35.5129 16.9613C35.5129 16.6125 35.7974 16.3256 36.1487 16.3256H38.8972C39.246 16.3256 39.5973 16.6026 39.6764 16.944L40.233 19.3041C40.3122 19.643 40.092 19.9226 39.7432 19.9226H36.1462C35.7974 19.9226 35.5104 19.6381 35.5104 19.2868V16.9589L35.5129 16.9613ZM28.2719 19.4105L30.1595 16.8376C30.3648 16.5556 30.82 16.3256 31.1688 16.3256H33.185C33.5338 16.3256 33.8208 16.6101 33.8208 16.9613V19.2892C33.8208 19.6381 33.5363 19.925 33.185 19.925H28.5317C28.1829 19.925 28.0666 19.695 28.2719 19.4129V19.4105Z" fill="#004F88"/>
</g>
<defs>
<filter id="filter0_d_47_1311" x="0.160461" y="0" width="65.9535" height="90.2" filterUnits="userSpaceOnUse" color-interpolation-filters="sRGB">
<feFlood flood-opacity="0" result="BackgroundImageFix"/>
<feColorMatrix in="SourceAlpha" type="matrix" values="0 0 0 0 0 0 0 0 0 0 0 0 0 0 0 0 0 0 127 0" result="hardAlpha"/>
<feOffset dy="4"/>
<feGaussianBlur stdDeviation="2"/>
<feComposite in2="hardAlpha" operator="out"/>
<feColorMatrix type="matrix" values="0 0 0 0 0 0 0 0 0 0 0 0 0 0 0 0 0 0 0.25 0"/>
<feBlend mode="normal" in2="BackgroundImageFix" result="effect1_dropShadow_47_1311"/>
<feBlend mode="normal" in="SourceGraphic" in2="effect1_dropShadow_47_1311" result="shape"/>
</filter>
<clipPath id="clip0_47_1311">
<rect width="35.3539" height="26.4134" fill="white" transform="translate(15.1605 14)"/>
</clipPath>
</defs>
</svg>
