<svg width="92" height="97" viewBox="0 0 92 97" fill="none" xmlns="http://www.w3.org/2000/svg">
<g filter="url(#filter0_d_336_2471)">
<path d="M37.0463 81.3235L18.8971 59.7206L56.1029 59.7206L37.0463 81.3235Z" fill="#008FDF"/>
<path d="M65 39.5C65 54.6878 52.6878 67 37.5 67C22.3122 67 10 54.6878 10 39.5C10 24.3122 22.3122 12 37.5 12C52.6878 12 65 24.3122 65 39.5Z" fill="white"/>
<path d="M37.0463 81.3235L18.8971 59.7206L56.1029 59.7206L37.0463 81.3235Z" stroke="white" stroke-width="4" stroke-linejoin="round"/>
<path d="M65 39.5C65 54.6878 52.6878 67 37.5 67C22.3122 67 10 54.6878 10 39.5C10 24.3122 22.3122 12 37.5 12C52.6878 12 65 24.3122 65 39.5Z" stroke="white" stroke-width="4" stroke-linejoin="round"/>
</g>
<path d="M37.0462 81.3237L18.897 59.7208L56.1029 59.7208L37.0462 81.3237Z" fill="#008FDF"/>
<path d="M61.9091 39.5C61.9091 52.9808 50.9808 63.9091 37.5 63.9091C24.0192 63.9091 13.0909 52.9808 13.0909 39.5C13.0909 26.0192 24.0192 15.0909 37.5 15.0909C50.9808 15.0909 61.9091 26.0192 61.9091 39.5Z" fill="#008FDF" stroke="#008FDF" stroke-width="6.18182"/>
<ellipse cx="37.8529" cy="40" rx="23" ry="23" fill="white"/>
<path d="M47.9188 32.1657C46.3179 32.1657 45.4671 32.7923 44.7842 33.2972C44.2133 33.7173 43.8371 33.995 42.9572 33.995C42.0772 33.995 41.7011 33.7173 41.1324 33.2972C40.4495 32.7923 39.5987 32.1657 37.9978 32.1657C36.3969 32.1657 35.546 32.7923 34.8631 33.2972C34.2922 33.7173 33.916 33.995 33.0383 33.995C32.1606 33.995 31.7823 33.7173 31.2135 33.2972C30.5306 32.7923 29.6798 32.1657 28.0789 32.1657C26.478 32.1657 25.6272 32.7923 24.9443 33.2972C24.3734 33.7173 23.9972 33.995 23.1195 33.995C22.5015 33.995 22 34.5091 22 35.1426C22 35.776 22.5015 36.2902 23.1195 36.2902C24.7204 36.2902 25.5712 35.6636 26.2541 35.1586C26.8251 34.7386 27.2012 34.4609 28.0789 34.4609C28.9566 34.4609 29.335 34.7386 29.9037 35.1586C30.5866 35.6636 31.4374 36.2902 33.0383 36.2902C34.6392 36.2902 35.4901 35.6636 36.173 35.1586C36.7439 34.7386 37.1201 34.4609 37.9978 34.4609C38.8755 34.4609 39.2538 34.7386 39.8226 35.1586C40.5055 35.6636 41.3563 36.2902 42.9572 36.2902C44.5581 36.2902 45.4089 35.6636 46.0918 35.1586C46.6627 34.7386 47.0389 34.4586 47.9188 34.4586C48.7988 34.4586 49.1749 34.7363 49.7459 35.1563C50.4288 35.6613 51.2796 36.2879 52.8805 36.2879C53.4985 36.2879 54 35.7737 54 35.1403C54 34.5068 53.4985 33.9927 52.8805 33.9927C52.0006 33.9927 51.6244 33.715 51.0535 33.2927C50.3706 32.7877 49.5197 32.1611 47.9188 32.1611V32.1657Z" fill="#008FDF"/>
<path d="M48.1808 27C46.6557 27 45.844 27.6521 45.1894 28.1752C44.6374 28.618 44.2381 28.9392 43.3457 28.9392C42.4533 28.9392 42.0541 28.618 41.502 28.1752C40.8496 27.6521 40.0358 27 38.5128 27C36.9899 27 36.176 27.6521 35.5236 28.1752C34.9716 28.618 34.5723 28.9392 33.6799 28.9392C32.7875 28.9392 32.3882 28.618 31.8362 28.1752C31.1838 27.6521 30.37 27 28.847 27C27.324 27 26.5102 27.6521 25.8578 28.1752C25.3058 28.618 24.9065 28.9392 24.0141 28.9392C23.4708 28.9392 23.0322 29.4283 23.0322 30.0341C23.0322 30.64 23.4708 31.129 24.0141 31.129C25.5392 31.129 26.3509 30.477 27.0033 29.9538C27.5553 29.511 27.9546 29.1898 28.847 29.1898C29.7394 29.1898 30.1365 29.511 30.6907 29.9538C31.3431 30.477 32.1569 31.129 33.6799 31.129C35.2029 31.129 36.0167 30.477 36.6691 29.9538C37.2211 29.511 37.6204 29.1898 38.5128 29.1898C39.4052 29.1898 39.8045 29.511 40.3565 29.9538C41.0089 30.477 41.8228 31.129 43.3479 31.129C44.8731 31.129 45.6847 30.477 46.3393 29.9538C46.8913 29.511 47.2906 29.1898 48.183 29.1898C49.0754 29.1898 49.4747 29.511 50.0267 29.9538C50.6791 30.477 51.493 31.129 53.0181 31.129C53.5614 31.129 54 30.64 54 30.0341C54 29.4283 53.5614 28.9392 53.0181 28.9392C52.1257 28.9392 51.7264 28.618 51.1744 28.1752C50.522 27.6521 49.7082 27 48.183 27H48.1808Z" fill="#008FDF"/>
<path d="M48.8306 43.6977L47.0906 38.355H35.0222L29.1548 43.6563H28.9999L23.0322 45.6194V48.65L23.7779 50.4294H27.3232C27.5936 52.3557 29.1678 53.8389 31.0713 53.8389C32.9748 53.8389 34.549 52.3557 34.8194 50.4294H41.3758C41.6462 52.3557 43.2204 53.8389 45.1239 53.8389C47.0274 53.8389 48.6016 52.3557 48.872 50.4294H51.1898L51.9355 48.7143V45.6194L48.8328 43.6977H48.8306ZM33.0162 50.1194C33.014 50.1378 33.0119 50.1539 33.0075 50.1722C32.9944 50.2595 32.977 50.3467 32.953 50.4294C32.7132 51.2858 31.9631 51.9125 31.0713 51.9125C30.1795 51.9125 29.4295 51.2858 29.1896 50.4294C29.1657 50.3467 29.1482 50.2595 29.1351 50.1722C29.133 50.1539 29.1308 50.1378 29.1264 50.1194C29.1155 50.0299 29.1068 49.938 29.1068 49.8462C29.1068 49.1322 29.4491 48.5031 29.9724 48.1334C30.1817 47.9842 30.4194 47.8786 30.6745 47.8235C30.7377 47.8097 30.8031 47.7982 30.8685 47.7913C30.934 47.7844 31.0015 47.7798 31.0691 47.7798C31.1367 47.7798 31.2043 47.7844 31.2697 47.7913C31.3351 47.7982 31.4006 47.8097 31.4638 47.8235C31.7189 47.8786 31.9566 47.9865 32.1659 48.1334C32.687 48.5054 33.0315 49.1345 33.0315 49.8462C33.0315 49.9403 33.0249 50.0299 33.0119 50.1194H33.0162ZM39.2543 43.8515H34.0345L36.3609 40.5132H39.2565V43.8515H39.2543ZM40.7479 43.8515V40.5132H44.2888L45.0367 43.8515H40.7479ZM47.0666 50.1194C47.0645 50.1378 47.0623 50.1539 47.0579 50.1722C47.0448 50.2595 47.0274 50.3467 47.0034 50.4294C46.7636 51.2858 46.0135 51.9125 45.1217 51.9125C44.23 51.9125 43.4799 51.2858 43.2401 50.4294C43.2161 50.3467 43.1986 50.2595 43.1856 50.1722C43.1834 50.1539 43.1812 50.1378 43.1768 50.1194C43.1659 50.0299 43.1572 49.938 43.1572 49.8462C43.1572 48.7051 44.0359 47.7798 45.1196 47.7798C46.2032 47.7798 47.0819 48.7051 47.0819 49.8462C47.0819 49.9403 47.0754 50.0299 47.0623 50.1194H47.0666Z" fill="#008FDF"/>
<g filter="url(#filter1_d_336_2471)">
<circle cx="69.5" cy="19.5" r="19.5" fill="black"/>
</g>
<path d="M67.5777 24.92L66.6977 10.16L66.5377 4.6H72.4177L72.2577 10.16L71.4177 24.92H67.5777ZM69.4577 35.56C67.3777 35.56 65.8177 33.92 65.8177 31.72C65.8177 29.52 67.3777 27.92 69.4577 27.92C71.5777 27.92 73.1377 29.52 73.1377 31.72C73.1377 33.92 71.5777 35.56 69.4577 35.56Z" fill="#FFF000"/>
<defs>
<filter id="filter0_d_336_2471" x="0" y="7" width="75" height="89.3237" filterUnits="userSpaceOnUse" color-interpolation-filters="sRGB">
<feFlood flood-opacity="0" result="BackgroundImageFix"/>
<feColorMatrix in="SourceAlpha" type="matrix" values="0 0 0 0 0 0 0 0 0 0 0 0 0 0 0 0 0 0 127 0" result="hardAlpha"/>
<feOffset dy="5"/>
<feGaussianBlur stdDeviation="4"/>
<feComposite in2="hardAlpha" operator="out"/>
<feColorMatrix type="matrix" values="0 0 0 0 0 0 0 0 0 0 0 0 0 0 0 0 0 0 0.25 0"/>
<feBlend mode="normal" in2="BackgroundImageFix" result="effect1_dropShadow_336_2471"/>
<feBlend mode="normal" in="SourceGraphic" in2="effect1_dropShadow_336_2471" result="shape"/>
</filter>
<filter id="filter1_d_336_2471" x="47.7714" y="0" width="43.4571" height="43.4571" filterUnits="userSpaceOnUse" color-interpolation-filters="sRGB">
<feFlood flood-opacity="0" result="BackgroundImageFix"/>
<feColorMatrix in="SourceAlpha" type="matrix" values="0 0 0 0 0 0 0 0 0 0 0 0 0 0 0 0 0 0 127 0" result="hardAlpha"/>
<feOffset dy="2.22857"/>
<feGaussianBlur stdDeviation="1.11429"/>
<feComposite in2="hardAlpha" operator="out"/>
<feColorMatrix type="matrix" values="0 0 0 0 0 0 0 0 0 0 0 0 0 0 0 0 0 0 0.25 0"/>
<feBlend mode="normal" in2="BackgroundImageFix" result="effect1_dropShadow_336_2471"/>
<feBlend mode="normal" in="SourceGraphic" in2="effect1_dropShadow_336_2471" result="shape"/>
</filter>
</defs>
</svg>
