<svg width="75" height="90" viewBox="0 0 75 90" fill="none" xmlns="http://www.w3.org/2000/svg">
<g filter="url(#filter0_d_801_2452)">
<path d="M37.0463 74.3235L18.8971 52.7206L56.1029 52.7206L37.0463 74.3235Z" fill="#008FDF"/>
<path d="M65 32.5C65 47.6878 52.6878 60 37.5 60C22.3122 60 10 47.6878 10 32.5C10 17.3122 22.3122 5 37.5 5C52.6878 5 65 17.3122 65 32.5Z" fill="#9747FF"/>
<path d="M37.0463 74.3235L18.8971 52.7206L56.1029 52.7206L37.0463 74.3235Z" stroke="white" stroke-width="4" stroke-linejoin="round"/>
<path d="M65 32.5C65 47.6878 52.6878 60 37.5 60C22.3122 60 10 47.6878 10 32.5C10 17.3122 22.3122 5 37.5 5C52.6878 5 65 17.3122 65 32.5Z" stroke="white" stroke-width="4" stroke-linejoin="round"/>
</g>
<path d="M37.0459 74.3235L18.8967 52.7205L56.1025 52.7205L37.0459 74.3235Z" fill="#9747FF"/>
<path d="M37.5 8.09082C50.9808 8.09082 61.9092 19.0192 61.9092 32.5C61.9092 45.9808 50.9808 56.9092 37.5 56.9092C24.0192 56.9092 13.0908 45.9808 13.0908 32.5C13.0908 19.0192 24.0192 8.09082 37.5 8.09082Z" fill="#9747FF" stroke="#9747FF" stroke-width="6.18182"/>
<ellipse cx="37.8525" cy="33" rx="23" ry="23" fill="white"/>
<path d="M53.3669 27.0823L39.5226 19.9942C39.1022 19.779 38.5491 19.6724 37.996 19.6724C37.4428 19.6724 36.8897 19.779 36.4693 19.9942L22.6291 27.0823C21.7903 27.5127 21.7903 28.2147 22.6291 28.6451L36.4734 35.7332C36.8937 35.9484 37.4469 36.055 38 36.055C38.5531 36.055 39.1063 35.9484 39.5266 35.7332L53.3709 28.6451C54.2097 28.2147 54.2097 27.5127 53.3709 27.0823H53.3669Z" fill="#9747FF"/>
<path d="M52.6868 27.5771H51.4619V40.9367H52.6868V27.5771Z" fill="#9747FF"/>
<path d="M53.544 39.223C53.544 40.1664 52.8823 40.9367 52.0757 40.9367C51.2692 40.9367 50.6074 40.1664 50.6074 39.223V37.9981C50.6074 37.0548 51.2692 36.2844 52.0757 36.2844C52.8823 36.2844 53.544 37.0548 53.544 37.9981V39.223Z" fill="#9747FF"/>
<path d="M41.7527 38.1369C40.914 38.5673 38.8161 39.6032 37.9975 39.6032C37.1789 39.6032 35.081 38.5653 34.2423 38.1369L30.0003 35.9646C29.1615 35.5342 28.4736 35.9545 28.4736 36.8979V39.4684C28.4736 40.4118 29.1374 41.5763 29.948 42.0591L36.5232 45.9672C37.3337 46.4479 38.6592 46.4479 39.4698 45.9672L46.045 42.0591C46.8556 41.5783 47.5194 40.4118 47.5194 39.4684V37.2197C47.5194 36.2764 47.4409 35.4738 47.3464 35.4336C47.2518 35.3934 46.4855 35.7132 45.6468 36.1436L41.7527 38.1369Z" fill="#9747FF"/>
<defs>
<filter id="filter0_d_801_2452" x="0" y="0" width="75" height="89.3235" filterUnits="userSpaceOnUse" color-interpolation-filters="sRGB">
<feFlood flood-opacity="0" result="BackgroundImageFix"/>
<feColorMatrix in="SourceAlpha" type="matrix" values="0 0 0 0 0 0 0 0 0 0 0 0 0 0 0 0 0 0 127 0" result="hardAlpha"/>
<feOffset dy="5"/>
<feGaussianBlur stdDeviation="4"/>
<feComposite in2="hardAlpha" operator="out"/>
<feColorMatrix type="matrix" values="0 0 0 0 0 0 0 0 0 0 0 0 0 0 0 0 0 0 0.25 0"/>
<feBlend mode="normal" in2="BackgroundImageFix" result="effect1_dropShadow_801_2452"/>
<feBlend mode="normal" in="SourceGraphic" in2="effect1_dropShadow_801_2452" result="shape"/>
</filter>
</defs>
</svg>
