<svg width="75" height="90" viewBox="0 0 75 90" fill="none" xmlns="http://www.w3.org/2000/svg">
<g filter="url(#filter0_d_759_2466)">
<path d="M37.0463 74.3235L18.8971 52.7206L56.1029 52.7206L37.0463 74.3235Z" fill="#008FDF"/>
<path d="M65 32.5C65 47.6878 52.6878 60 37.5 60C22.3122 60 10 47.6878 10 32.5C10 17.3122 22.3122 5 37.5 5C52.6878 5 65 17.3122 65 32.5Z" fill="white"/>
<path d="M37.0463 74.3235L18.8971 52.7206L56.1029 52.7206L37.0463 74.3235Z" stroke="white" stroke-width="4" stroke-linejoin="round"/>
<path d="M65 32.5C65 47.6878 52.6878 60 37.5 60C22.3122 60 10 47.6878 10 32.5C10 17.3122 22.3122 5 37.5 5C52.6878 5 65 17.3122 65 32.5Z" stroke="white" stroke-width="4" stroke-linejoin="round"/>
</g>
<path d="M37.0464 74.3235L18.8971 52.7205L56.103 52.7205L37.0464 74.3235Z" fill="#008FDF"/>
<path d="M37.5 8.09082C50.9808 8.09082 61.9092 19.0192 61.9092 32.5C61.9092 45.9808 50.9808 56.9092 37.5 56.9092C24.0192 56.9092 13.0908 45.9808 13.0908 32.5C13.0908 19.0192 24.0192 8.09082 37.5 8.09082Z" fill="#008FDF" stroke="#008FDF" stroke-width="6.18182"/>
<ellipse cx="37.853" cy="33" rx="23" ry="23" fill="white"/>
<path d="M51.4144 22.3808C50.8608 22.1088 50.2144 22.176 49.7264 22.5536L38 31.648L26.2736 22.5536C25.7872 22.176 25.1392 22.1088 24.5856 22.3808C24.032 22.6528 23.688 23.2032 23.688 23.8208V42.1808C23.688 42.7968 24.032 43.3488 24.5856 43.6208C24.8112 43.7312 25.0528 43.7856 25.2928 43.7856C25.64 43.7856 25.984 43.6704 26.2736 43.448L38 34.3536L49.7264 43.448C50.0144 43.672 50.3584 43.7856 50.7072 43.7856C50.9472 43.7856 51.1888 43.7312 51.4144 43.6208C51.968 43.3488 52.312 42.7984 52.312 42.1808V23.8208C52.312 23.2048 51.968 22.6528 51.4144 22.3808Z" fill="#008FDF"/>
<defs>
<filter id="filter0_d_759_2466" x="0" y="0" width="75" height="89.3235" filterUnits="userSpaceOnUse" color-interpolation-filters="sRGB">
<feFlood flood-opacity="0" result="BackgroundImageFix"/>
<feColorMatrix in="SourceAlpha" type="matrix" values="0 0 0 0 0 0 0 0 0 0 0 0 0 0 0 0 0 0 127 0" result="hardAlpha"/>
<feOffset dy="5"/>
<feGaussianBlur stdDeviation="4"/>
<feComposite in2="hardAlpha" operator="out"/>
<feColorMatrix type="matrix" values="0 0 0 0 0 0 0 0 0 0 0 0 0 0 0 0 0 0 0.25 0"/>
<feBlend mode="normal" in2="BackgroundImageFix" result="effect1_dropShadow_759_2466"/>
<feBlend mode="normal" in="SourceGraphic" in2="effect1_dropShadow_759_2466" result="shape"/>
</filter>
</defs>
</svg>
