<svg width="75" height="90" viewBox="0 0 75 90" fill="none" xmlns="http://www.w3.org/2000/svg">
<g filter="url(#filter0_d_606_2420)">
<path d="M37.0463 74.3235L18.8971 52.7206L56.1029 52.7206L37.0463 74.3235Z" fill="#008FDF"/>
<path d="M65 32.5C65 47.6878 52.6878 60 37.5 60C22.3122 60 10 47.6878 10 32.5C10 17.3122 22.3122 5 37.5 5C52.6878 5 65 17.3122 65 32.5Z" fill="#455DB7"/>
<path d="M37.0463 74.3235L18.8971 52.7206L56.1029 52.7206L37.0463 74.3235Z" stroke="white" stroke-width="4" stroke-linejoin="round"/>
<path d="M65 32.5C65 47.6878 52.6878 60 37.5 60C22.3122 60 10 47.6878 10 32.5C10 17.3122 22.3122 5 37.5 5C52.6878 5 65 17.3122 65 32.5Z" stroke="white" stroke-width="4" stroke-linejoin="round"/>
</g>
<path d="M37.0464 74.3235L18.8971 52.7205L56.103 52.7205L37.0464 74.3235Z" fill="#455DB7"/>
<path d="M37.5 8.09082C50.9808 8.09082 61.9092 19.0192 61.9092 32.5C61.9092 45.9808 50.9808 56.9092 37.5 56.9092C24.0192 56.9092 13.0908 45.9808 13.0908 32.5C13.0908 19.0192 24.0192 8.09082 37.5 8.09082Z" fill="#455DB7" stroke="#455DB7" stroke-width="6.18182"/>
<ellipse cx="37.853" cy="33" rx="23" ry="23" fill="white"/>
<path d="M48.1986 18.4399H27.8018C26.741 18.4399 25.8818 19.2991 25.8818 20.3599V45.6399C25.8818 46.7007 26.741 47.5599 27.8018 47.5599H48.1986C49.2594 47.5599 50.1186 46.7007 50.1186 45.6399V20.3599C50.1186 19.2991 49.2594 18.4399 48.1986 18.4399ZM48.1986 45.6399H27.8018V20.3599H48.1986V45.6399ZM30.5954 36.5999H45.405C45.9266 36.5999 46.3506 36.1759 46.3506 35.6543V23.0911C46.3506 22.5695 45.9266 22.1455 45.405 22.1455H30.5954C30.0738 22.1455 29.6498 22.5695 29.6498 23.0911V35.6543C29.6498 36.1759 30.0738 36.5999 30.5954 36.5999ZM31.2498 23.7455H44.7506V34.9999H31.2498V23.7455ZM29.957 43.6783H46.045V40.3743H29.957V43.6783ZM33.1586 33.2191H34.9186V30.3391H33.1586V33.2191ZM37.1586 33.2191H38.9186V30.3391H37.1586V33.2191ZM41.1586 33.2191H42.9186V30.3391H41.1586V33.2191ZM41.1586 28.0479H42.9186V25.1679H41.1586V28.0479ZM37.1586 28.0479H38.9186V25.1679H37.1586V28.0479ZM33.1586 28.0479H34.9186V25.1679H33.1586V28.0479Z" fill="#455DB7"/>
<defs>
<filter id="filter0_d_606_2420" x="0" y="0" width="75" height="89.3235" filterUnits="userSpaceOnUse" color-interpolation-filters="sRGB">
<feFlood flood-opacity="0" result="BackgroundImageFix"/>
<feColorMatrix in="SourceAlpha" type="matrix" values="0 0 0 0 0 0 0 0 0 0 0 0 0 0 0 0 0 0 127 0" result="hardAlpha"/>
<feOffset dy="5"/>
<feGaussianBlur stdDeviation="4"/>
<feComposite in2="hardAlpha" operator="out"/>
<feColorMatrix type="matrix" values="0 0 0 0 0 0 0 0 0 0 0 0 0 0 0 0 0 0 0.25 0"/>
<feBlend mode="normal" in2="BackgroundImageFix" result="effect1_dropShadow_606_2420"/>
<feBlend mode="normal" in="SourceGraphic" in2="effect1_dropShadow_606_2420" result="shape"/>
</filter>
</defs>
</svg>
