<svg width="75" height="90" viewBox="0 0 75 90" fill="none" xmlns="http://www.w3.org/2000/svg">
<g filter="url(#filter0_d_772_2802)">
<path d="M37.0463 74.3235L18.8971 52.7206L56.1029 52.7206L37.0463 74.3235Z" fill="#008FDF"/>
<path d="M65 32.5C65 47.6878 52.6878 60 37.5 60C22.3122 60 10 47.6878 10 32.5C10 17.3122 22.3122 5 37.5 5C52.6878 5 65 17.3122 65 32.5Z" fill="white"/>
<path d="M37.0463 74.3235L18.8971 52.7206L56.1029 52.7206L37.0463 74.3235Z" stroke="white" stroke-width="4" stroke-linejoin="round"/>
<path d="M65 32.5C65 47.6878 52.6878 60 37.5 60C22.3122 60 10 47.6878 10 32.5C10 17.3122 22.3122 5 37.5 5C52.6878 5 65 17.3122 65 32.5Z" stroke="white" stroke-width="4" stroke-linejoin="round"/>
</g>
<path d="M37.0464 74.3235L18.8971 52.7205L56.103 52.7205L37.0464 74.3235Z" fill="#00A560"/>
<path d="M37.5 8.09082C50.9808 8.09082 61.9092 19.0192 61.9092 32.5C61.9092 45.9808 50.9808 56.9092 37.5 56.9092C24.0192 56.9092 13.0908 45.9808 13.0908 32.5C13.0908 19.0192 24.0192 8.09082 37.5 8.09082Z" fill="#00A560" stroke="#00A560" stroke-width="6.18182"/>
<ellipse cx="37.853" cy="33" rx="23" ry="23" fill="white"/>
<path d="M27.7751 19.7454C27.8726 19.7883 27.9818 19.7883 28.0793 19.7473C28.1768 19.7064 28.2548 19.6284 28.2918 19.5309C28.3035 19.4997 28.3191 19.4685 28.3386 19.4392C29.1537 19.0024 32.6501 18.0001 34.5611 18.474C35.1305 18.6144 35.4678 18.8581 35.5965 19.2208C36.0236 20.4298 36.4038 20.773 37.1409 20.773C37.4354 20.773 37.7864 20.7184 38.2173 20.6424C39.6447 20.3928 42.2987 19.9267 47.7021 20.7438C47.8698 20.7711 48.0317 20.6833 48.1077 20.5332C48.1838 20.383 48.1545 20.1997 48.0356 20.0808C47.6319 19.6752 47.2926 19.1409 46.965 18.6222C46.3683 17.6784 45.7502 16.7014 44.7108 16.5727C43.8587 16.4674 42.9012 16.9432 41.6981 18.0703C41.4836 17.9962 40.9746 17.5672 40.5944 17.2494C39.1611 16.0443 36.7607 14.028 34.4616 15.7537C34.1126 16.015 33.1473 16.3602 32.1255 16.7268C29.9903 17.4912 28.3815 18.1152 27.7634 18.9049C27.6093 19.02 27.5138 19.1389 27.4943 19.2598C27.4611 19.4626 27.5742 19.6576 27.7731 19.7454H27.7751ZM32.3888 17.4619C33.5159 17.0583 34.4889 16.7112 34.9316 16.3797C36.7373 15.0264 38.6775 16.6566 40.0952 17.848C41.0117 18.6183 41.6727 19.1721 42.1817 18.6904C43.2015 17.7252 44.0205 17.2728 44.6172 17.3469C45.29 17.4307 45.7619 18.1756 46.3079 19.0395C46.4756 19.3027 46.6452 19.5718 46.8266 19.8312C41.9574 19.1935 39.4634 19.6323 38.0847 19.8741C37.1877 20.0314 36.604 19.7272 36.3336 18.9615C36.1016 18.3024 35.3879 17.5711 33.3677 17.5711C33.0908 17.5711 32.7905 17.5848 32.4609 17.614C32.2503 17.6335 31.991 17.6667 31.7024 17.7115C31.9422 17.6238 32.1743 17.5399 32.3907 17.4639L32.3888 17.4619ZM29.8226 30.4548V22.6996H30.2126V22.1146H29.8226V20.3596H25.1426V22.1146H24.7526V22.6996H25.1426V31.2387C23.9745 31.4454 23.2043 31.5975 22.9976 31.6696V47.9151H41.0117V45.2416H47.5715V47.9151H54.0026V26.7127C54.0026 26.7127 38.972 28.9728 29.8226 30.4567V30.4548ZM39.6389 41.0199H36.5871V39.3702H39.6389V41.0199ZM39.6389 36.5953H36.5871V34.9456H39.6389V36.5953ZM45.7404 41.0199H42.6887V39.3702H45.7404V41.0199ZM45.7404 36.5953H42.6887V34.9456H45.7404V36.5953ZM51.842 41.0199H48.7902V39.3702H51.842V41.0199ZM51.842 36.5953H48.7902V34.9456H51.842V36.5953Z" fill="#00A560"/>
<defs>
<filter id="filter0_d_772_2802" x="0" y="0" width="75" height="89.3235" filterUnits="userSpaceOnUse" color-interpolation-filters="sRGB">
<feFlood flood-opacity="0" result="BackgroundImageFix"/>
<feColorMatrix in="SourceAlpha" type="matrix" values="0 0 0 0 0 0 0 0 0 0 0 0 0 0 0 0 0 0 127 0" result="hardAlpha"/>
<feOffset dy="5"/>
<feGaussianBlur stdDeviation="4"/>
<feComposite in2="hardAlpha" operator="out"/>
<feColorMatrix type="matrix" values="0 0 0 0 0 0 0 0 0 0 0 0 0 0 0 0 0 0 0.25 0"/>
<feBlend mode="normal" in2="BackgroundImageFix" result="effect1_dropShadow_772_2802"/>
<feBlend mode="normal" in="SourceGraphic" in2="effect1_dropShadow_772_2802" result="shape"/>
</filter>
</defs>
</svg>
