<svg width="75" height="90" viewBox="0 0 75 90" fill="none" xmlns="http://www.w3.org/2000/svg">
<g filter="url(#filter0_d_463_2610)">
<path d="M37.0463 74.3235L18.8971 52.7206L56.1029 52.7206L37.0463 74.3235Z" fill="#008FDF"/>
<path d="M65 32.5C65 47.6878 52.6878 60 37.5 60C22.3122 60 10 47.6878 10 32.5C10 17.3122 22.3122 5 37.5 5C52.6878 5 65 17.3122 65 32.5Z" fill="white"/>
<path d="M37.0463 74.3235L18.8971 52.7206L56.1029 52.7206L37.0463 74.3235Z" stroke="white" stroke-width="4" stroke-linejoin="round"/>
<path d="M65 32.5C65 47.6878 52.6878 60 37.5 60C22.3122 60 10 47.6878 10 32.5C10 17.3122 22.3122 5 37.5 5C52.6878 5 65 17.3122 65 32.5Z" stroke="white" stroke-width="4" stroke-linejoin="round"/>
</g>
<path d="M37.0464 74.3235L18.8971 52.7205L56.103 52.7205L37.0464 74.3235Z" fill="#008FDF"/>
<path d="M61.9091 32.5C61.9091 45.9808 50.9808 56.9091 37.5 56.9091C24.0192 56.9091 13.0909 45.9808 13.0909 32.5C13.0909 19.0192 24.0192 8.09091 37.5 8.09091C50.9808 8.09091 61.9091 19.0192 61.9091 32.5Z" fill="#008FDF" stroke="#008FDF" stroke-width="6.18182"/>
<ellipse cx="37.853" cy="33" rx="23" ry="23" fill="white"/>
<path d="M53.1148 19.2654H36.3768C36.1259 19.2654 35.8886 19.3703 35.7198 19.5551L22.2304 34.4224C22.0821 34.5844 22 34.7988 22 35.0179V45.8495C22 46.34 22.3969 46.7347 22.8852 46.7347H39.6232C39.8741 46.7347 40.1114 46.6297 40.2802 46.445L53.7696 31.5776C53.9179 31.4157 54 31.2012 54 30.9822V20.1505C54 19.66 53.6031 19.2654 53.1148 19.2654ZM36.7692 21.038H51.0115L39.3973 34.37H24.6737L36.7692 21.038ZM23.7749 35.668H39.046V44.9644H23.7726V35.668H23.7749ZM40.344 43.7416V35.2642L52.2297 21.6197V30.6423L40.344 43.7416Z" fill="#008FDF"/>
<defs>
<filter id="filter0_d_463_2610" x="0" y="0" width="75" height="89.3235" filterUnits="userSpaceOnUse" color-interpolation-filters="sRGB">
<feFlood flood-opacity="0" result="BackgroundImageFix"/>
<feColorMatrix in="SourceAlpha" type="matrix" values="0 0 0 0 0 0 0 0 0 0 0 0 0 0 0 0 0 0 127 0" result="hardAlpha"/>
<feOffset dy="5"/>
<feGaussianBlur stdDeviation="4"/>
<feComposite in2="hardAlpha" operator="out"/>
<feColorMatrix type="matrix" values="0 0 0 0 0 0 0 0 0 0 0 0 0 0 0 0 0 0 0.25 0"/>
<feBlend mode="normal" in2="BackgroundImageFix" result="effect1_dropShadow_463_2610"/>
<feBlend mode="normal" in="SourceGraphic" in2="effect1_dropShadow_463_2610" result="shape"/>
</filter>
</defs>
</svg>
