<svg width="66" height="91" viewBox="0 0 66 91" fill="none" xmlns="http://www.w3.org/2000/svg">
<g filter="url(#filter0_d_6_305)">
<path d="M32.9767 1C17.5212 1 5 13.8376 5 29.3454C5 44.8443 24.6234 81.2 32.9767 81.2C41.3301 81.2 60.9535 44.8443 60.9535 29.3454C60.9535 13.8376 48.4234 1 32.9767 1Z" fill="#008FDF"/>
<path d="M32.9767 1C17.5212 1 5 13.8376 5 29.3454C5 44.8443 24.6234 81.2 32.9767 81.2C41.3301 81.2 60.9535 44.8443 60.9535 29.3454C60.9535 13.8376 48.4234 1 32.9767 1Z" stroke="white" stroke-width="2"/>
</g>
<path d="M10 29C10 41.7025 20.2975 52 33 52C45.7025 52 56 41.7025 56 29C56 16.2975 45.7025 6 33 6C20.2975 6 10 16.2975 10 29Z" fill="white"/>
<path d="M48.1148 15H31.3768C31.1259 15 30.8886 15.1049 30.7198 15.2897L17.2304 30.1569C17.0821 30.3189 17 30.5334 17 30.7524V41.584C17 42.0744 17.3969 42.4691 17.8852 42.4691H34.6232C34.8741 42.4691 35.1114 42.3642 35.2802 42.1794L48.7696 27.3122C48.9179 27.1502 49 26.9358 49 26.7167V15.8851C49 15.3947 48.6031 15 48.1148 15ZM31.7692 16.7726H46.0115L34.3973 30.1045H19.6737L31.7692 16.7726ZM18.7749 31.4025H34.046V40.6988H18.7726V31.4025H18.7749ZM35.344 39.476V30.9987L47.2297 17.3543V26.3768L35.344 39.476Z" fill="#008FDF"/>
<defs>
<filter id="filter0_d_6_305" x="0" y="0" width="65.9535" height="90.2" filterUnits="userSpaceOnUse" color-interpolation-filters="sRGB">
<feFlood flood-opacity="0" result="BackgroundImageFix"/>
<feColorMatrix in="SourceAlpha" type="matrix" values="0 0 0 0 0 0 0 0 0 0 0 0 0 0 0 0 0 0 127 0" result="hardAlpha"/>
<feOffset dy="4"/>
<feGaussianBlur stdDeviation="2"/>
<feComposite in2="hardAlpha" operator="out"/>
<feColorMatrix type="matrix" values="0 0 0 0 0 0 0 0 0 0 0 0 0 0 0 0 0 0 0.25 0"/>
<feBlend mode="normal" in2="BackgroundImageFix" result="effect1_dropShadow_6_305"/>
<feBlend mode="normal" in="SourceGraphic" in2="effect1_dropShadow_6_305" result="shape"/>
</filter>
</defs>
</svg>
