<svg width="75" height="90" viewBox="0 0 75 90" fill="none" xmlns="http://www.w3.org/2000/svg">
<g filter="url(#filter0_d_463_2591)">
<path d="M37.0463 74.3235L18.8971 52.7206L56.1029 52.7206L37.0463 74.3235Z" fill="#008FDF"/>
<path d="M65 32.5C65 47.6878 52.6878 60 37.5 60C22.3122 60 10 47.6878 10 32.5C10 17.3122 22.3122 5 37.5 5C52.6878 5 65 17.3122 65 32.5Z" fill="white"/>
<path d="M37.0463 74.3235L18.8971 52.7206L56.1029 52.7206L37.0463 74.3235Z" stroke="white" stroke-width="4" stroke-linejoin="round"/>
<path d="M65 32.5C65 47.6878 52.6878 60 37.5 60C22.3122 60 10 47.6878 10 32.5C10 17.3122 22.3122 5 37.5 5C52.6878 5 65 17.3122 65 32.5Z" stroke="white" stroke-width="4" stroke-linejoin="round"/>
</g>
<path d="M37.0464 74.3235L18.8971 52.7205L56.103 52.7205L37.0464 74.3235Z" fill="#008FDF"/>
<path d="M61.9091 32.5C61.9091 45.9808 50.9808 56.9091 37.5 56.9091C24.0192 56.9091 13.0909 45.9808 13.0909 32.5C13.0909 19.0192 24.0192 8.09091 37.5 8.09091C50.9808 8.09091 61.9091 19.0192 61.9091 32.5Z" fill="#008FDF" stroke="#008FDF" stroke-width="6.18182"/>
<ellipse cx="37.853" cy="33" rx="23" ry="23" fill="white"/>
<g clip-path="url(#clip0_463_2591)">
<path d="M36.5094 30.1702C36.6426 30.3034 36.8142 30.3689 36.988 30.3689C37.1619 30.3689 37.3357 30.3034 37.4666 30.1702L45.481 22.1559C45.6751 21.9617 45.7338 21.6705 45.6277 21.4176C45.5239 21.1648 45.2755 21 45.0024 21H28.9737C28.7005 21 28.4522 21.1648 28.3484 21.4176C28.2445 21.6705 28.3009 21.9617 28.4951 22.1559L36.5094 30.1702ZM52.134 40.1689C50.5559 40.1689 49.7161 40.774 49.0389 41.2593C48.4677 41.6702 48.0546 41.9682 47.1312 41.9682C46.2079 41.9682 45.7948 41.6702 45.2236 41.2593C44.5486 40.774 43.7065 40.1689 42.1285 40.1689C40.5505 40.1689 39.7106 40.774 39.0334 41.2593C38.4622 41.6702 38.0491 41.9682 37.1257 41.9682C36.2024 41.9682 35.7893 41.6702 35.2181 41.2593C34.5431 40.774 33.701 40.1689 32.1252 40.1689C30.5495 40.1689 29.7074 40.774 29.0324 41.2593C28.4612 41.6702 28.0481 41.9682 27.1248 41.9682C26.2014 41.9682 25.7883 41.6702 25.2171 41.2593C24.5421 40.774 23.7 40.1689 22.1243 40.1689C21.5621 40.1689 21.1084 40.6227 21.1084 41.1848C21.1084 41.747 21.5621 42.2007 22.1243 42.2007C23.0476 42.2007 23.4585 42.4987 24.0319 42.9096C24.7069 43.395 25.549 44 27.1248 44C28.7005 44 29.5426 43.395 30.2176 42.9096C30.7888 42.4987 31.2019 42.2007 32.1252 42.2007C33.0486 42.2007 33.4595 42.4987 34.0329 42.9096C34.7079 43.395 35.55 44 37.1257 44C38.7015 44 39.5436 43.395 40.2186 42.9096C40.7898 42.4987 41.2029 42.2007 42.1262 42.2007C43.0496 42.2007 43.4627 42.4987 44.0339 42.9096C44.7089 43.395 45.5509 44 47.129 44C48.707 44 49.5468 43.395 50.2241 42.9096C50.7952 42.4987 51.2084 42.2007 52.1317 42.2007C52.6939 42.2007 53.1476 41.747 53.1476 41.1848C53.1476 40.6227 52.6939 40.1689 52.1317 40.1689H52.134ZM22.1288 36.2182C23.0137 36.2182 23.3953 36.4914 23.9687 36.9045C24.6572 37.4012 25.5151 38.0175 27.1293 38.0175C28.7434 38.0175 29.6013 37.4012 30.2899 36.9045C30.8655 36.4914 31.2448 36.2182 32.1298 36.2182C33.0147 36.2182 33.3963 36.4914 33.9697 36.9045C34.6582 37.4012 35.5161 38.0175 37.1303 38.0175C38.7444 38.0175 39.6023 37.4012 40.2908 36.9045C40.8665 36.4914 41.2458 36.2182 42.1307 36.2182C43.0157 36.2182 43.3972 36.4914 43.9729 36.9045C44.6615 37.4012 45.5193 38.0175 47.1335 38.0175C48.7476 38.0175 49.6055 37.4012 50.2941 36.9045C50.8697 36.4914 51.249 36.2159 52.1362 36.2159C52.7593 36.2159 53.265 35.7102 53.265 35.0872C53.265 34.4641 52.7593 33.9584 52.1362 33.9584C50.5221 33.9584 49.6642 34.5747 48.9757 35.0714C48.4 35.4845 48.0207 35.7577 47.1335 35.7577C46.2463 35.7577 45.867 35.4845 45.2913 35.0691C44.6028 34.5724 43.7449 33.9561 42.1307 33.9561C40.5166 33.9561 39.6587 34.5724 38.9702 35.0691C38.3945 35.4822 38.0152 35.7554 37.1303 35.7554C36.2453 35.7554 35.8638 35.4822 35.2903 35.0691C34.6018 34.5724 33.7439 33.9561 32.1298 33.9561C30.5156 33.9561 29.6577 34.5724 28.9692 35.0691C28.3935 35.4822 28.0142 35.7554 27.1293 35.7554C26.2443 35.7554 25.8628 35.4822 25.2894 35.0691C24.6008 34.5724 23.7429 33.9561 22.1288 33.9561C21.5057 33.9561 21 34.4618 21 35.0849C21 35.708 21.5057 36.2137 22.1288 36.2137V36.2182Z" fill="#008FDF"/>
</g>
<defs>
<filter id="filter0_d_463_2591" x="0" y="0" width="75" height="89.3235" filterUnits="userSpaceOnUse" color-interpolation-filters="sRGB">
<feFlood flood-opacity="0" result="BackgroundImageFix"/>
<feColorMatrix in="SourceAlpha" type="matrix" values="0 0 0 0 0 0 0 0 0 0 0 0 0 0 0 0 0 0 127 0" result="hardAlpha"/>
<feOffset dy="5"/>
<feGaussianBlur stdDeviation="4"/>
<feComposite in2="hardAlpha" operator="out"/>
<feColorMatrix type="matrix" values="0 0 0 0 0 0 0 0 0 0 0 0 0 0 0 0 0 0 0.25 0"/>
<feBlend mode="normal" in2="BackgroundImageFix" result="effect1_dropShadow_463_2591"/>
<feBlend mode="normal" in="SourceGraphic" in2="effect1_dropShadow_463_2591" result="shape"/>
</filter>
<clipPath id="clip0_463_2591">
<rect width="32.2628" height="23" fill="white" transform="translate(21 21)"/>
</clipPath>
</defs>
</svg>
