<svg width="67" height="91" viewBox="0 0 67 91" fill="none" xmlns="http://www.w3.org/2000/svg">
<g filter="url(#filter0_d_47_1313)">
<path d="M33.2442 1C17.7887 1 5.26746 13.8376 5.26746 29.3454C5.26746 44.8443 24.8908 81.2 33.2442 81.2C41.5976 81.2 61.2209 44.8443 61.2209 29.3454C61.2209 13.8376 48.6909 1 33.2442 1Z" fill="#008FDF"/>
<path d="M33.2442 1C17.7887 1 5.26746 13.8376 5.26746 29.3454C5.26746 44.8443 24.8908 81.2 33.2442 81.2C41.5976 81.2 61.2209 44.8443 61.2209 29.3454C61.2209 13.8376 48.6909 1 33.2442 1Z" stroke="white" stroke-width="2"/>
</g>
<path d="M10.2675 29C10.2675 41.7025 20.5649 52 33.2675 52C45.97 52 56.2675 41.7025 56.2675 29C56.2675 16.2975 45.97 6 33.2675 6C20.5649 6 10.2675 16.2975 10.2675 29Z" fill="white"/>
<g clip-path="url(#clip0_47_1313)">
<path d="M32.7769 27.1702C32.9101 27.3034 33.0816 27.3689 33.2555 27.3689C33.4293 27.3689 33.6031 27.3034 33.7341 27.1702L41.7484 19.1559C41.9426 18.9617 42.0013 18.6705 41.8952 18.4176C41.7913 18.1648 41.543 18 41.2698 18H25.2412C24.968 18 24.7197 18.1648 24.6158 18.4176C24.512 18.6705 24.5684 18.9617 24.7625 19.1559L32.7769 27.1702ZM48.4014 37.1689C46.8234 37.1689 45.9836 37.774 45.3063 38.2593C44.7352 38.6702 44.322 38.9682 43.3987 38.9682C42.4753 38.9682 42.0622 38.6702 41.4911 38.2593C40.816 37.774 39.974 37.1689 38.3959 37.1689C36.8179 37.1689 35.9781 37.774 35.3008 38.2593C34.7297 38.6702 34.3165 38.9682 33.3932 38.9682C32.4699 38.9682 32.0567 38.6702 31.4856 38.2593C30.8105 37.774 29.9685 37.1689 28.3927 37.1689C26.8169 37.1689 25.9749 37.774 25.2998 38.2593C24.7287 38.6702 24.3156 38.9682 23.3922 38.9682C22.4689 38.9682 22.0557 38.6702 21.4846 38.2593C20.8096 37.774 19.9675 37.1689 18.3917 37.1689C17.8296 37.1689 17.3758 37.6227 17.3758 38.1848C17.3758 38.747 17.8296 39.2007 18.3917 39.2007C19.3151 39.2007 19.7259 39.4987 20.2994 39.9096C20.9744 40.395 21.8164 41 23.3922 41C24.968 41 25.8101 40.395 26.4851 39.9096C27.0562 39.4987 27.4694 39.2007 28.3927 39.2007C29.316 39.2007 29.7269 39.4987 30.3003 39.9096C30.9753 40.395 31.8174 41 33.3932 41C34.969 41 35.811 40.395 36.486 39.9096C37.0572 39.4987 37.4703 39.2007 38.3937 39.2007C39.317 39.2007 39.7302 39.4987 40.3013 39.9096C40.9763 40.395 41.8184 41 43.3964 41C44.9745 41 45.8143 40.395 46.4915 39.9096C47.0627 39.4987 47.4758 39.2007 48.3992 39.2007C48.9613 39.2007 49.4151 38.747 49.4151 38.1848C49.4151 37.6227 48.9613 37.1689 48.3992 37.1689H48.4014ZM18.3962 33.2182C19.2812 33.2182 19.6627 33.4914 20.2361 33.9045C20.9247 34.4012 21.7826 35.0175 23.3967 35.0175C25.0109 35.0175 25.8688 34.4012 26.5573 33.9045C27.133 33.4914 27.5123 33.2182 28.3972 33.2182C29.2822 33.2182 29.6637 33.4914 30.2371 33.9045C30.9257 34.4012 31.7836 35.0175 33.3977 35.0175C35.0119 35.0175 35.8697 34.4012 36.5583 33.9045C37.134 33.4914 37.5132 33.2182 38.3982 33.2182C39.2832 33.2182 39.6647 33.4914 40.2404 33.9045C40.9289 34.4012 41.7868 35.0175 43.4009 35.0175C45.0151 35.0175 45.873 34.4012 46.5615 33.9045C47.1372 33.4914 47.5165 33.2159 48.4037 33.2159C49.0268 33.2159 49.5325 32.7102 49.5325 32.0872C49.5325 31.4641 49.0268 30.9584 48.4037 30.9584C46.7895 30.9584 45.9317 31.5747 45.2431 32.0714C44.6674 32.4845 44.2882 32.7577 43.4009 32.7577C42.5137 32.7577 42.1345 32.4845 41.5588 32.0691C40.8702 31.5724 40.0124 30.9561 38.3982 30.9561C36.784 30.9561 35.9262 31.5724 35.2376 32.0691C34.6619 32.4822 34.2827 32.7554 33.3977 32.7554C32.5127 32.7554 32.1312 32.4822 31.5578 32.0691C30.8692 31.5724 30.0114 30.9561 28.3972 30.9561C26.7831 30.9561 25.9252 31.5724 25.2366 32.0691C24.661 32.4822 24.2817 32.7554 23.3967 32.7554C22.5118 32.7554 22.1302 32.4822 21.5568 32.0691C20.8683 31.5724 20.0104 30.9561 18.3962 30.9561C17.7731 30.9561 17.2675 31.4618 17.2675 32.0849C17.2675 32.708 17.7731 33.2137 18.3962 33.2137V33.2182Z" fill="#008FDF"/>
</g>
<defs>
<filter id="filter0_d_47_1313" x="0.267456" y="0" width="65.9535" height="90.2" filterUnits="userSpaceOnUse" color-interpolation-filters="sRGB">
<feFlood flood-opacity="0" result="BackgroundImageFix"/>
<feColorMatrix in="SourceAlpha" type="matrix" values="0 0 0 0 0 0 0 0 0 0 0 0 0 0 0 0 0 0 127 0" result="hardAlpha"/>
<feOffset dy="4"/>
<feGaussianBlur stdDeviation="2"/>
<feComposite in2="hardAlpha" operator="out"/>
<feColorMatrix type="matrix" values="0 0 0 0 0 0 0 0 0 0 0 0 0 0 0 0 0 0 0.25 0"/>
<feBlend mode="normal" in2="BackgroundImageFix" result="effect1_dropShadow_47_1313"/>
<feBlend mode="normal" in="SourceGraphic" in2="effect1_dropShadow_47_1313" result="shape"/>
</filter>
<clipPath id="clip0_47_1313">
<rect width="32.2628" height="23" fill="white" transform="translate(17.2675 18)"/>
</clipPath>
</defs>
</svg>
