<svg width="75" height="90" viewBox="0 0 75 90" fill="none" xmlns="http://www.w3.org/2000/svg">
<g filter="url(#filter0_d_771_2667)">
<path d="M37.0463 74.3235L18.8971 52.7206L56.1029 52.7206L37.0463 74.3235Z" fill="#008FDF"/>
<path d="M65 32.5C65 47.6878 52.6878 60 37.5 60C22.3122 60 10 47.6878 10 32.5C10 17.3122 22.3122 5 37.5 5C52.6878 5 65 17.3122 65 32.5Z" fill="white"/>
<path d="M37.0463 74.3235L18.8971 52.7206L56.1029 52.7206L37.0463 74.3235Z" stroke="white" stroke-width="4" stroke-linejoin="round"/>
<path d="M65 32.5C65 47.6878 52.6878 60 37.5 60C22.3122 60 10 47.6878 10 32.5C10 17.3122 22.3122 5 37.5 5C52.6878 5 65 17.3122 65 32.5Z" stroke="white" stroke-width="4" stroke-linejoin="round"/>
</g>
<path d="M37.0464 74.3235L18.8971 52.7205L56.103 52.7205L37.0464 74.3235Z" fill="#A76400"/>
<path d="M37.5 8.09082C50.9808 8.09082 61.9092 19.0192 61.9092 32.5C61.9092 45.9808 50.9808 56.9092 37.5 56.9092C24.0192 56.9092 13.0908 45.9808 13.0908 32.5C13.0908 19.0192 24.0192 8.09082 37.5 8.09082Z" fill="#A76400" stroke="#A76400" stroke-width="6.18182"/>
<ellipse cx="37.853" cy="33" rx="23" ry="23" fill="white"/>
<path d="M36.3839 30.5727C35.7375 29.8687 34.8767 29.4799 33.9631 29.4799C33.0495 29.4799 32.1887 29.8671 31.5423 30.5727C30.2127 32.0207 30.2079 34.3727 31.5247 35.8287C33.0239 37.7759 37.9743 41.6223 37.9743 41.6223C40.3359 39.6767 42.6879 37.7423 44.4239 35.8287C45.7423 34.3727 45.7359 32.0207 44.4063 30.5727C43.7599 29.8687 42.8991 29.4799 41.9855 29.4799C41.0719 29.4799 40.2111 29.8671 39.5647 30.5727L37.9743 32.3055L36.3839 30.5727ZM50.7679 24.6655L39.1183 18.8463C38.4591 18.5167 37.5391 18.5167 36.8799 18.8463L25.2319 24.6655C24.5087 25.0271 23.9839 25.8751 23.9839 26.6831V45.5391C23.9839 46.5647 24.8175 47.3983 25.8431 47.3983H50.1567C51.1823 47.3983 52.0159 46.5647 52.0159 45.5391V26.6847C52.0159 25.8767 51.4911 25.0271 50.7679 24.6671V24.6655ZM49.5855 44.9711H26.4143V26.7919L37.9391 21.0335C37.9727 21.0287 38.0271 21.0287 38.0607 21.0335L49.5855 26.7919V44.9711Z" fill="#A76400"/>
<defs>
<filter id="filter0_d_771_2667" x="0" y="0" width="75" height="89.3235" filterUnits="userSpaceOnUse" color-interpolation-filters="sRGB">
<feFlood flood-opacity="0" result="BackgroundImageFix"/>
<feColorMatrix in="SourceAlpha" type="matrix" values="0 0 0 0 0 0 0 0 0 0 0 0 0 0 0 0 0 0 127 0" result="hardAlpha"/>
<feOffset dy="5"/>
<feGaussianBlur stdDeviation="4"/>
<feComposite in2="hardAlpha" operator="out"/>
<feColorMatrix type="matrix" values="0 0 0 0 0 0 0 0 0 0 0 0 0 0 0 0 0 0 0.25 0"/>
<feBlend mode="normal" in2="BackgroundImageFix" result="effect1_dropShadow_771_2667"/>
<feBlend mode="normal" in="SourceGraphic" in2="effect1_dropShadow_771_2667" result="shape"/>
</filter>
</defs>
</svg>
