<svg width="75" height="90" viewBox="0 0 75 90" fill="none" xmlns="http://www.w3.org/2000/svg">
<g filter="url(#filter0_d_418_1624)">
<path d="M37.0463 74.3235L18.8971 52.7206L56.1029 52.7206L37.0463 74.3235Z" fill="#008FDF"/>
<path d="M65 32.5C65 47.6878 52.6878 60 37.5 60C22.3122 60 10 47.6878 10 32.5C10 17.3122 22.3122 5 37.5 5C52.6878 5 65 17.3122 65 32.5Z" fill="white"/>
<path d="M37.0463 74.3235L18.8971 52.7206L56.1029 52.7206L37.0463 74.3235Z" stroke="white" stroke-width="4" stroke-linejoin="round"/>
<path d="M65 32.5C65 47.6878 52.6878 60 37.5 60C22.3122 60 10 47.6878 10 32.5C10 17.3122 22.3122 5 37.5 5C52.6878 5 65 17.3122 65 32.5Z" stroke="white" stroke-width="4" stroke-linejoin="round"/>
</g>
<path d="M37.0464 74.3237L18.8971 52.7208L56.103 52.7208L37.0464 74.3237Z" fill="#A50000"/>
<path d="M61.9091 32.5C61.9091 45.9808 50.9808 56.9091 37.5 56.9091C24.0192 56.9091 13.0909 45.9808 13.0909 32.5C13.0909 19.0192 24.0192 8.09091 37.5 8.09091C50.9808 8.09091 61.9091 19.0192 61.9091 32.5Z" fill="#A50000" stroke="#A50000" stroke-width="6.18182"/>
<ellipse cx="37.853" cy="33" rx="23" ry="23" fill="white"/>
<path d="M24.8999 22.3999V43.5999H34.1999V40.0939H42.7999V43.5999H51.0999V22.3999H24.8999ZM32.3999 34.5619H28.3999V32.3999H32.3999V34.5619ZM32.3999 28.7619H28.3999V26.5999H32.3999V28.7619ZM40.3999 34.5619H36.3999V32.3999H40.3999V34.5619ZM40.3999 28.7619H36.3999V26.5999H40.3999V28.7619ZM48.3999 34.5619H44.3999V32.3999H48.3999V34.5619ZM48.3999 28.7619H44.3999V26.5999H48.3999V28.7619Z" fill="#A50000"/>
<defs>
<filter id="filter0_d_418_1624" x="0" y="0" width="75" height="89.3237" filterUnits="userSpaceOnUse" color-interpolation-filters="sRGB">
<feFlood flood-opacity="0" result="BackgroundImageFix"/>
<feColorMatrix in="SourceAlpha" type="matrix" values="0 0 0 0 0 0 0 0 0 0 0 0 0 0 0 0 0 0 127 0" result="hardAlpha"/>
<feOffset dy="5"/>
<feGaussianBlur stdDeviation="4"/>
<feComposite in2="hardAlpha" operator="out"/>
<feColorMatrix type="matrix" values="0 0 0 0 0 0 0 0 0 0 0 0 0 0 0 0 0 0 0.25 0"/>
<feBlend mode="normal" in2="BackgroundImageFix" result="effect1_dropShadow_418_1624"/>
<feBlend mode="normal" in="SourceGraphic" in2="effect1_dropShadow_418_1624" result="shape"/>
</filter>
</defs>
</svg>
