<svg width="75" height="90" viewBox="0 0 75 90" fill="none" xmlns="http://www.w3.org/2000/svg">
<g filter="url(#filter0_d_408_1410)">
<path d="M37.0463 74.3235L18.8971 52.7206L56.1029 52.7206L37.0463 74.3235Z" fill="#008FDF"/>
<path d="M65 32.5C65 47.6878 52.6878 60 37.5 60C22.3122 60 10 47.6878 10 32.5C10 17.3122 22.3122 5 37.5 5C52.6878 5 65 17.3122 65 32.5Z" fill="white"/>
<path d="M37.0463 74.3235L18.8971 52.7206L56.1029 52.7206L37.0463 74.3235Z" stroke="white" stroke-width="4" stroke-linejoin="round"/>
<path d="M65 32.5C65 47.6878 52.6878 60 37.5 60C22.3122 60 10 47.6878 10 32.5C10 17.3122 22.3122 5 37.5 5C52.6878 5 65 17.3122 65 32.5Z" stroke="white" stroke-width="4" stroke-linejoin="round"/>
</g>
<path d="M37.0464 74.3237L18.8971 52.7208L56.103 52.7208L37.0464 74.3237Z" fill="#807373"/>
<path d="M61.9091 32.5C61.9091 45.9808 50.9808 56.9091 37.5 56.9091C24.0192 56.9091 13.0909 45.9808 13.0909 32.5C13.0909 19.0192 24.0192 8.09091 37.5 8.09091C50.9808 8.09091 61.9091 19.0192 61.9091 32.5Z" fill="#807373" stroke="#807373" stroke-width="6.18182"/>
<ellipse cx="37.853" cy="33" rx="23" ry="23" fill="white"/>
<path d="M37.9999 45.1614C39.6161 45.1614 40.9263 43.8512 40.9263 42.235C40.9263 40.6188 39.6161 39.3086 37.9999 39.3086C36.3837 39.3086 35.0735 40.6188 35.0735 42.235C35.0735 43.8512 36.3837 45.1614 37.9999 45.1614Z" fill="#807373"/>
<path d="M30.3439 37.0623L32.4127 39.1311C35.4943 36.0511 40.5055 36.0511 43.5871 39.1311L45.6559 37.0623C41.4335 32.8399 34.5647 32.8399 30.3423 37.0623H30.3439Z" fill="#807373"/>
<path d="M26.4111 33.1312L28.4799 35.2C33.7295 29.952 42.2687 29.952 47.5183 35.2L49.5871 33.1312C43.1967 26.7408 32.7999 26.7408 26.4111 33.1312Z" fill="#807373"/>
<path d="M22.48 29.1984L24.5488 31.2672C31.9648 23.8512 44.0336 23.8512 51.4496 31.2672L53.5184 29.1984C44.9616 20.6416 31.0384 20.6416 22.48 29.1984Z" fill="#807373"/>
<defs>
<filter id="filter0_d_408_1410" x="0" y="0" width="75" height="89.3237" filterUnits="userSpaceOnUse" color-interpolation-filters="sRGB">
<feFlood flood-opacity="0" result="BackgroundImageFix"/>
<feColorMatrix in="SourceAlpha" type="matrix" values="0 0 0 0 0 0 0 0 0 0 0 0 0 0 0 0 0 0 127 0" result="hardAlpha"/>
<feOffset dy="5"/>
<feGaussianBlur stdDeviation="4"/>
<feComposite in2="hardAlpha" operator="out"/>
<feColorMatrix type="matrix" values="0 0 0 0 0 0 0 0 0 0 0 0 0 0 0 0 0 0 0.25 0"/>
<feBlend mode="normal" in2="BackgroundImageFix" result="effect1_dropShadow_408_1410"/>
<feBlend mode="normal" in="SourceGraphic" in2="effect1_dropShadow_408_1410" result="shape"/>
</filter>
</defs>
</svg>
