<svg width="75" height="90" viewBox="0 0 75 90" fill="none" xmlns="http://www.w3.org/2000/svg">
<g filter="url(#filter0_d_771_2658)">
<path d="M37.0463 74.3235L18.8971 52.7206L56.1029 52.7206L37.0463 74.3235Z" fill="#008FDF"/>
<path d="M65 32.5C65 47.6878 52.6878 60 37.5 60C22.3122 60 10 47.6878 10 32.5C10 17.3122 22.3122 5 37.5 5C52.6878 5 65 17.3122 65 32.5Z" fill="white"/>
<path d="M37.0463 74.3235L18.8971 52.7206L56.1029 52.7206L37.0463 74.3235Z" stroke="white" stroke-width="4" stroke-linejoin="round"/>
<path d="M65 32.5C65 47.6878 52.6878 60 37.5 60C22.3122 60 10 47.6878 10 32.5C10 17.3122 22.3122 5 37.5 5C52.6878 5 65 17.3122 65 32.5Z" stroke="white" stroke-width="4" stroke-linejoin="round"/>
</g>
<path d="M37.0464 74.3235L18.8971 52.7205L56.103 52.7205L37.0464 74.3235Z" fill="#9747FF"/>
<path d="M37.5 8.09082C50.9808 8.09082 61.9092 19.0192 61.9092 32.5C61.9092 45.9808 50.9808 56.9092 37.5 56.9092C24.0192 56.9092 13.0908 45.9808 13.0908 32.5C13.0908 19.0192 24.0192 8.09082 37.5 8.09082Z" fill="#9747FF" stroke="#9747FF" stroke-width="6.18182"/>
<ellipse cx="37.853" cy="33" rx="23" ry="23" fill="white"/>
<path d="M41.2977 15.12V14.8C41.2977 14.358 40.9397 14 40.4977 14C40.0557 14 39.6977 14.358 39.6977 14.8V15.066C35.3517 15.278 31.8917 18.356 31.8917 22.11C31.8917 24.064 32.8077 25.882 34.4677 27.226C34.6097 27.342 34.7877 27.404 34.9717 27.404H39.5377C39.5697 28.032 39.5397 28.622 39.4797 29.15L36.4357 29.044C36.0657 29.028 35.7277 29.278 35.6337 29.642L30.1257 50.714C30.0637 50.95 30.1137 51.2 30.2577 51.394C30.4037 51.588 30.6277 51.708 30.8717 51.716L38.9617 52C38.9617 52 38.9797 52 38.9897 52C39.3517 52 39.6717 51.756 39.7637 51.402L45.2717 30.33C45.3337 30.094 45.2837 29.844 45.1397 29.65C44.9937 29.456 44.7697 29.336 44.5257 29.328L40.6857 29.194C40.7437 28.648 40.7697 28.046 40.7397 27.406H45.3777C45.5617 27.406 45.7377 27.344 45.8817 27.228C47.5437 25.884 48.4577 24.066 48.4577 22.112C48.4577 18.546 45.3357 15.59 41.2957 15.122L41.2977 15.12ZM38.3777 50.378L31.9277 50.152L32.9337 46.302H39.4437L38.3777 50.378ZM43.4697 30.892L39.8597 44.702H33.3497L37.0177 30.666L39.1757 30.742C39.0257 31.3 38.8877 31.63 38.8837 31.638C38.7517 31.942 38.8917 32.296 39.1977 32.426C39.2757 32.46 39.3557 32.476 39.4357 32.476C39.6677 32.476 39.8897 32.34 39.9877 32.114C40.0077 32.07 40.2137 31.58 40.4077 30.786L43.4697 30.894V30.892ZM45.0857 25.804H35.2637C34.6737 25.284 34.2237 24.684 33.9237 24.04H46.4277C46.1277 24.686 45.6757 25.284 45.0877 25.804H45.0857ZM33.6377 23.24C33.5437 22.872 33.4917 22.494 33.4917 22.11C33.4917 19.232 36.2337 16.87 39.6977 16.668V17.274C39.6977 17.716 40.0557 18.074 40.4977 18.074C40.9397 18.074 41.2977 17.716 41.2977 17.274V16.732C44.4497 17.17 46.8597 19.414 46.8597 22.11C46.8597 22.494 46.8097 22.872 46.7137 23.24H33.6377Z" fill="#9747FF"/>
<defs>
<filter id="filter0_d_771_2658" x="0" y="0" width="75" height="89.3235" filterUnits="userSpaceOnUse" color-interpolation-filters="sRGB">
<feFlood flood-opacity="0" result="BackgroundImageFix"/>
<feColorMatrix in="SourceAlpha" type="matrix" values="0 0 0 0 0 0 0 0 0 0 0 0 0 0 0 0 0 0 127 0" result="hardAlpha"/>
<feOffset dy="5"/>
<feGaussianBlur stdDeviation="4"/>
<feComposite in2="hardAlpha" operator="out"/>
<feColorMatrix type="matrix" values="0 0 0 0 0 0 0 0 0 0 0 0 0 0 0 0 0 0 0.25 0"/>
<feBlend mode="normal" in2="BackgroundImageFix" result="effect1_dropShadow_771_2658"/>
<feBlend mode="normal" in="SourceGraphic" in2="effect1_dropShadow_771_2658" result="shape"/>
</filter>
</defs>
</svg>
