<svg width="75" height="90" viewBox="0 0 75 90" fill="none" xmlns="http://www.w3.org/2000/svg">
<g filter="url(#filter0_d_874_2887)">
<path d="M37.0463 74.3235L18.8971 52.7206L56.1029 52.7206L37.0463 74.3235Z" fill="#008FDF"/>
<path d="M65 32.5C65 47.6878 52.6878 60 37.5 60C22.3122 60 10 47.6878 10 32.5C10 17.3122 22.3122 5 37.5 5C52.6878 5 65 17.3122 65 32.5Z" fill="white"/>
<path d="M37.0463 74.3235L18.8971 52.7206L56.1029 52.7206L37.0463 74.3235Z" stroke="white" stroke-width="4" stroke-linejoin="round"/>
<path d="M65 32.5C65 47.6878 52.6878 60 37.5 60C22.3122 60 10 47.6878 10 32.5C10 17.3122 22.3122 5 37.5 5C52.6878 5 65 17.3122 65 32.5Z" stroke="white" stroke-width="4" stroke-linejoin="round"/>
</g>
<path d="M37.0464 74.3237L18.8971 52.7208L56.103 52.7208L37.0464 74.3237Z" fill="#455DB7"/>
<path d="M37.5 8.09082C50.9808 8.09082 61.9092 19.0192 61.9092 32.5C61.9092 45.9808 50.9808 56.9092 37.5 56.9092C24.0192 56.9092 13.0908 45.9808 13.0908 32.5C13.0908 19.0192 24.0192 8.09082 37.5 8.09082Z" fill="#455DB7" stroke="#455DB7" stroke-width="6.18182"/>
<ellipse cx="37.853" cy="33" rx="23" ry="23" fill="white"/>
<path d="M36.2573 29.6295C36.2573 30.8248 37.2284 31.794 38.4257 31.794C39.623 31.794 40.5941 30.8248 40.5941 29.6295C40.5941 28.4341 39.623 27.465 38.4257 27.465C37.2284 27.465 36.2573 28.4341 36.2573 29.6295ZM38.4237 25.9518C39.6678 25.9518 40.7676 26.5699 41.4345 27.5157L40.0539 16.4494C39.9545 15.648 39.272 15.0454 38.4627 15.0454C37.6535 15.0454 36.9729 15.648 36.8715 16.4494L35.5065 27.3909C36.1793 26.5173 37.2342 25.9498 38.4237 25.9498V25.9518ZM34.7421 29.6295C34.7421 29.1244 34.8435 28.6447 35.0288 28.206L26.361 34.7638C25.7156 35.2513 25.5362 36.1425 25.9398 36.8445C26.2343 37.3534 26.7705 37.6459 27.3282 37.6459C27.5369 37.6459 27.7475 37.605 27.9503 37.5192L37.9928 33.2799C36.1617 33.0673 34.7402 31.5151 34.7402 29.6295H34.7421ZM50.777 34.8321L41.7056 27.9681C41.9591 28.4673 42.1053 29.0308 42.1053 29.6295C42.1053 31.482 40.7325 33.0108 38.9502 33.2662L49.1858 37.5874C49.3886 37.6732 49.5992 37.7142 49.8078 37.7142C50.3655 37.7142 50.9018 37.4217 51.1962 36.9127C51.5999 36.2127 51.4205 35.3215 50.775 34.8321H50.777ZM39.8024 34.8964C39.6717 34.795 39.5138 34.7404 39.35 34.7404C39.3129 34.7404 39.2739 34.7443 39.2349 34.7502C38.9658 34.7931 38.6928 34.8145 38.4237 34.8145C38.1546 34.8145 37.8816 34.7931 37.6145 34.7521C37.5774 34.7463 37.5384 34.7424 37.5014 34.7424C37.3376 34.7424 37.1796 34.797 37.049 34.8984C36.8891 35.0232 36.7877 35.2084 36.7682 35.4112L35.4929 49.2036C35.4734 49.4103 35.5416 49.615 35.682 49.7671C35.8224 49.9192 36.0194 50.007 36.2261 50.007H40.6253C40.832 50.007 41.0289 49.9192 41.1693 49.7671C41.3097 49.615 41.378 49.4103 41.3585 49.2036L40.0832 35.4112C40.0637 35.2084 39.9623 35.0232 39.8024 34.8984V34.8964Z" fill="#455DB7"/>
<defs>
<filter id="filter0_d_874_2887" x="0" y="0" width="75" height="89.3237" filterUnits="userSpaceOnUse" color-interpolation-filters="sRGB">
<feFlood flood-opacity="0" result="BackgroundImageFix"/>
<feColorMatrix in="SourceAlpha" type="matrix" values="0 0 0 0 0 0 0 0 0 0 0 0 0 0 0 0 0 0 127 0" result="hardAlpha"/>
<feOffset dy="5"/>
<feGaussianBlur stdDeviation="4"/>
<feComposite in2="hardAlpha" operator="out"/>
<feColorMatrix type="matrix" values="0 0 0 0 0 0 0 0 0 0 0 0 0 0 0 0 0 0 0.25 0"/>
<feBlend mode="normal" in2="BackgroundImageFix" result="effect1_dropShadow_874_2887"/>
<feBlend mode="normal" in="SourceGraphic" in2="effect1_dropShadow_874_2887" result="shape"/>
</filter>
</defs>
</svg>
