<svg width="66" height="91" viewBox="0 0 66 91" fill="none" xmlns="http://www.w3.org/2000/svg">
<g filter="url(#filter0_d_63_959)">
<path d="M32.9767 1C17.5212 1 5 13.8376 5 29.3454C5 44.8443 24.6234 81.2 32.9767 81.2C41.3301 81.2 60.9535 44.8443 60.9535 29.3454C60.9535 13.8376 48.4234 1 32.9767 1Z" fill="#FF6B00"/>
<path d="M32.9767 1C17.5212 1 5 13.8376 5 29.3454C5 44.8443 24.6234 81.2 32.9767 81.2C41.3301 81.2 60.9535 44.8443 60.9535 29.3454C60.9535 13.8376 48.4234 1 32.9767 1Z" stroke="white" stroke-width="2"/>
</g>
<path d="M10 29C10 41.7025 20.2975 52 33 52C45.7025 52 56 41.7025 56 29C56 16.2975 45.7025 6 33 6C20.2975 6 10 16.2975 10 29Z" fill="white"/>
<g clip-path="url(#clip0_63_959)">
<path d="M41.4607 38.6437H34.7975L30.3095 28.996C30.1041 28.5544 29.6604 28.273 29.1736 28.273H29.1715L16.2477 28.3018C15.8204 28.3018 15.424 28.5215 15.194 28.881C14.9639 29.2404 14.9352 29.6944 15.1159 30.0805L19.9264 40.4225C19.9264 40.4225 19.9326 40.4328 19.9346 40.4389C19.9552 40.4841 19.9798 40.5252 20.0065 40.5663C20.0106 40.5724 20.0127 40.5786 20.0168 40.5848C20.0456 40.6279 20.0784 40.669 20.1113 40.7101C20.1195 40.7203 20.1298 40.7306 20.138 40.7388C20.1667 40.7717 20.1975 40.8004 20.2304 40.8292C20.2386 40.8353 20.2448 40.8436 20.253 40.8497C20.292 40.8826 20.3352 40.9134 20.3783 40.9422C20.3865 40.9483 20.3968 40.9524 20.405 40.9586C20.444 40.9812 20.4831 41.0038 20.5241 41.0223C20.5324 41.0264 20.5426 41.0305 20.5508 41.0346C20.6001 41.0572 20.6494 41.0757 20.7008 41.09C20.7069 41.09 20.7131 41.0942 20.7193 41.0942C20.7645 41.1065 20.8096 41.1167 20.8569 41.125C20.8692 41.127 20.8836 41.1291 20.8959 41.1311C20.9493 41.1373 21.0027 41.1434 21.0582 41.1434H41.4566C42.1488 41.1434 42.7075 40.5827 42.7075 39.8926C42.7075 39.2024 42.1467 38.6417 41.4566 38.6417L41.4607 38.6437ZM24.9423 36.183C24.0036 36.2077 22.9643 35.3922 22.6213 34.3631C22.2783 33.332 22.7589 32.4776 23.6976 32.4529C24.6363 32.4283 25.6756 33.2437 26.0186 34.2728C26.3616 35.3039 25.881 36.1584 24.9423 36.183ZM42.7301 24.5121C44.8457 24.5121 46.5588 22.797 46.5588 20.6834C46.5588 18.5698 44.8437 16.8547 42.7301 16.8547C40.6165 16.8547 38.9014 18.5698 38.9014 20.6834C38.9014 22.797 40.6165 24.5121 42.7301 24.5121ZM50.1471 31.3253C49.2598 28.6817 47.8651 26.7797 46.2198 25.9725C46.0822 25.9047 45.9282 25.8698 45.7741 25.8698H39.3101C39.1561 25.8698 39.0041 25.9047 38.8644 25.9725C37.2171 26.7797 35.8224 28.6817 34.9371 31.3253C34.7461 31.8963 34.59 32.4735 34.4627 33.0506L36.1079 36.5876H41.4607C43.2867 36.5876 44.7656 38.0665 44.7656 39.8926C44.7656 40.2992 44.6896 40.6854 44.554 41.0449L49.2618 41.0613H49.266C49.648 41.0613 49.9972 40.8477 50.1677 40.5067C51.283 38.2986 51.2748 34.6938 50.1451 31.3253H50.1471Z" fill="#FF6B00"/>
</g>
<defs>
<filter id="filter0_d_63_959" x="0" y="0" width="65.9536" height="90.2" filterUnits="userSpaceOnUse" color-interpolation-filters="sRGB">
<feFlood flood-opacity="0" result="BackgroundImageFix"/>
<feColorMatrix in="SourceAlpha" type="matrix" values="0 0 0 0 0 0 0 0 0 0 0 0 0 0 0 0 0 0 127 0" result="hardAlpha"/>
<feOffset dy="4"/>
<feGaussianBlur stdDeviation="2"/>
<feComposite in2="hardAlpha" operator="out"/>
<feColorMatrix type="matrix" values="0 0 0 0 0 0 0 0 0 0 0 0 0 0 0 0 0 0 0.25 0"/>
<feBlend mode="normal" in2="BackgroundImageFix" result="effect1_dropShadow_63_959"/>
<feBlend mode="normal" in="SourceGraphic" in2="effect1_dropShadow_63_959" result="shape"/>
</filter>
<clipPath id="clip0_63_959">
<rect width="36" height="36" fill="white" transform="translate(15 11)"/>
</clipPath>
</defs>
</svg>
