<svg width="75" height="90" viewBox="0 0 75 90" fill="none" xmlns="http://www.w3.org/2000/svg">
<g filter="url(#filter0_d_463_2631)">
<path d="M37.0463 74.3235L18.8971 52.7206L56.1029 52.7206L37.0463 74.3235Z" fill="#008FDF"/>
<path d="M65 32.5C65 47.6878 52.6878 60 37.5 60C22.3122 60 10 47.6878 10 32.5C10 17.3122 22.3122 5 37.5 5C52.6878 5 65 17.3122 65 32.5Z" fill="white"/>
<path d="M37.0463 74.3235L18.8971 52.7206L56.1029 52.7206L37.0463 74.3235Z" stroke="white" stroke-width="4" stroke-linejoin="round"/>
<path d="M65 32.5C65 47.6878 52.6878 60 37.5 60C22.3122 60 10 47.6878 10 32.5C10 17.3122 22.3122 5 37.5 5C52.6878 5 65 17.3122 65 32.5Z" stroke="white" stroke-width="4" stroke-linejoin="round"/>
</g>
<path d="M37.0464 74.3235L18.8971 52.7205L56.103 52.7205L37.0464 74.3235Z" fill="#FF6B00"/>
<path d="M61.9091 32.5C61.9091 45.9808 50.9808 56.9091 37.5 56.9091C24.0192 56.9091 13.0909 45.9808 13.0909 32.5C13.0909 19.0192 24.0192 8.09091 37.5 8.09091C50.9808 8.09091 61.9091 19.0192 61.9091 32.5Z" fill="#FF6B00" stroke="#FF6B00" stroke-width="6.18182"/>
<ellipse cx="37.853" cy="33" rx="23" ry="23" fill="white"/>
<g clip-path="url(#clip0_463_2631)">
<path d="M45.5207 41.5721H39.5978L35.6085 32.9963C35.4259 32.6038 35.0315 32.3537 34.5988 32.3537H34.597L23.1091 32.3792C22.7293 32.3792 22.377 32.5746 22.1725 32.8941C21.968 33.2136 21.9424 33.6171 22.1031 33.9604L26.3791 43.1532C26.3791 43.1532 26.3846 43.1623 26.3864 43.1678C26.4047 43.208 26.4266 43.2445 26.4503 43.281C26.4539 43.2865 26.4558 43.292 26.4594 43.2975C26.485 43.3358 26.5142 43.3723 26.5434 43.4088C26.5507 43.418 26.5598 43.4271 26.5671 43.4344C26.5927 43.4636 26.6201 43.4892 26.6493 43.5147C26.6566 43.5202 26.6621 43.5275 26.6694 43.533C26.7041 43.5622 26.7424 43.5896 26.7808 43.6151C26.7881 43.6206 26.7972 43.6243 26.8045 43.6297C26.8392 43.6498 26.8739 43.6699 26.9104 43.6863C26.9177 43.69 26.9268 43.6936 26.9341 43.6973C26.978 43.7174 27.0218 43.7338 27.0674 43.7466C27.0729 43.7466 27.0784 43.7503 27.0838 43.7503C27.124 43.7612 27.1642 43.7703 27.2062 43.7776C27.2171 43.7795 27.2299 43.7813 27.2409 43.7831C27.2883 43.7886 27.3358 43.7941 27.3851 43.7941H45.517C46.1323 43.7941 46.6289 43.2956 46.6289 42.6822C46.6289 42.0687 46.1305 41.5703 45.517 41.5703L45.5207 41.5721ZM30.8377 39.3848C30.0033 39.4067 29.0794 38.6819 28.7745 37.7671C28.4696 36.8506 28.8969 36.0911 29.7312 36.0692C30.5656 36.0472 31.4895 36.7721 31.7944 37.6868C32.0993 38.6033 31.6721 39.3629 30.8377 39.3848ZM46.649 29.0106C48.5296 29.0106 50.0523 27.4861 50.0523 25.6074C50.0523 23.7286 48.5277 22.2041 46.649 22.2041C44.7703 22.2041 43.2457 23.7286 43.2457 25.6074C43.2457 27.4861 44.7703 29.0106 46.649 29.0106ZM53.2419 35.0668C52.4532 32.717 51.2135 31.0263 49.751 30.3088C49.6287 30.2485 49.4918 30.2175 49.3548 30.2175H43.6091C43.4721 30.2175 43.337 30.2485 43.2129 30.3088C41.7486 31.0263 40.5089 32.717 39.722 35.0668C39.5522 35.5744 39.4134 36.0874 39.3002 36.6005L40.7627 39.7445H45.5207C47.1438 39.7445 48.4584 41.059 48.4584 42.6822C48.4584 43.0437 48.3908 43.3869 48.2703 43.7064L52.455 43.721H52.4587C52.7983 43.721 53.1087 43.5312 53.2602 43.2281C54.2516 41.2654 54.2443 38.0611 53.2401 35.0668H53.2419Z" fill="#FF6B00"/>
</g>
<defs>
<filter id="filter0_d_463_2631" x="0" y="0" width="75" height="89.3235" filterUnits="userSpaceOnUse" color-interpolation-filters="sRGB">
<feFlood flood-opacity="0" result="BackgroundImageFix"/>
<feColorMatrix in="SourceAlpha" type="matrix" values="0 0 0 0 0 0 0 0 0 0 0 0 0 0 0 0 0 0 127 0" result="hardAlpha"/>
<feOffset dy="5"/>
<feGaussianBlur stdDeviation="4"/>
<feComposite in2="hardAlpha" operator="out"/>
<feColorMatrix type="matrix" values="0 0 0 0 0 0 0 0 0 0 0 0 0 0 0 0 0 0 0.25 0"/>
<feBlend mode="normal" in2="BackgroundImageFix" result="effect1_dropShadow_463_2631"/>
<feBlend mode="normal" in="SourceGraphic" in2="effect1_dropShadow_463_2631" result="shape"/>
</filter>
<clipPath id="clip0_463_2631">
<rect width="32" height="32" fill="white" transform="translate(22 17)"/>
</clipPath>
</defs>
</svg>
