<svg width="92" height="97" viewBox="0 0 92 97" fill="none" xmlns="http://www.w3.org/2000/svg">
<g filter="url(#filter0_d_336_1778)">
<path d="M37.0463 81.3235L18.8971 59.7206L56.1029 59.7206L37.0463 81.3235Z" fill="#008FDF"/>
<path d="M65 39.5C65 54.6878 52.6878 67 37.5 67C22.3122 67 10 54.6878 10 39.5C10 24.3122 22.3122 12 37.5 12C52.6878 12 65 24.3122 65 39.5Z" fill="white"/>
<path d="M37.0463 81.3235L18.8971 59.7206L56.1029 59.7206L37.0463 81.3235Z" stroke="white" stroke-width="4" stroke-linejoin="round"/>
<path d="M65 39.5C65 54.6878 52.6878 67 37.5 67C22.3122 67 10 54.6878 10 39.5C10 24.3122 22.3122 12 37.5 12C52.6878 12 65 24.3122 65 39.5Z" stroke="white" stroke-width="4" stroke-linejoin="round"/>
</g>
<path d="M54.7333 60.3387L37.0577 80.3761L20.2238 60.3387L54.7333 60.3387Z" fill="#00A560" stroke="#00A560" stroke-width="1.23636"/>
<path d="M61.9091 39.5C61.9091 52.9808 50.9808 63.9091 37.5 63.9091C24.0192 63.9091 13.0909 52.9808 13.0909 39.5C13.0909 26.0192 24.0192 15.0909 37.5 15.0909C50.9808 15.0909 61.9091 26.0192 61.9091 39.5Z" fill="#00A560" stroke="#00A560" stroke-width="6.18182"/>
<path d="M59.8529 40C59.8529 52.1503 50.0032 62 37.8529 62C25.7026 62 15.8529 52.1503 15.8529 40C15.8529 27.8497 25.7026 18 37.8529 18C50.0032 18 59.8529 27.8497 59.8529 40Z" fill="#00A560" stroke="white" stroke-width="2"/>
<path d="M37.2162 38.0599C37.2162 38.9866 36.4652 39.7456 35.5305 39.7456C34.5958 39.7456 33.8448 38.9946 33.8448 38.0599C33.8448 37.1252 34.5958 36.3743 35.5305 36.3743C36.4652 36.3743 37.2162 37.1252 37.2162 38.0599Z" fill="white"/>
<path d="M32.9819 43.141C32.0392 43.101 31.0246 43.0691 30.5532 43.0691C30.0819 43.0691 29.6265 43.2927 29.6425 43.8999C29.6585 44.5071 30.1378 44.6429 30.5932 44.6668L30.8968 44.6828C30.8968 44.6828 32.4546 44.7707 33.1496 44.8026C33.8447 44.8346 33.9885 44.563 34.2601 44.2274C34.5397 43.8919 35.3626 42.6856 35.3626 42.6856L36.6967 45.7134L32.7262 54.1177H33.8287C34.8752 54.1177 34.9631 53.8701 35.2587 53.3747C35.5543 52.8794 38.638 46.5522 38.638 46.5522C38.638 46.5522 38.8058 49.0527 38.8857 50.1073C38.9655 51.1618 39.6206 51.1299 40.2837 51.1299H46.0277C46.0277 51.1299 45.836 50.7224 45.4845 50.0434C45.125 49.3643 44.5498 49.3403 43.9906 49.3403H40.8429C40.8429 49.3403 40.7231 47.6147 40.6113 46.3845C40.4994 45.1542 40.3716 44.8666 40.1239 44.3233C39.8763 43.7721 38.8697 41.5671 38.8697 41.5671H40.7471C40.7471 41.5671 41.7856 43.3407 42.0093 43.7241C42.241 44.1156 42.5765 44.4831 43.1038 44.2195C43.6311 43.9638 43.6151 43.4605 43.3914 43.0451C43.1677 42.6297 42.6724 41.7429 42.209 40.928C41.7377 40.1132 41.4181 39.9853 40.6432 39.9534C39.8683 39.9214 38.0468 39.8975 36.7766 39.8975C35.5064 39.8975 35.075 40.249 34.6595 40.7842C34.2441 41.3195 32.9659 43.1569 32.9659 43.1569L32.9819 43.141Z" fill="white"/>
<path d="M37.8393 25.5254L25.3766 34.3132V54.3254H31.576V34.6248H44.7736V54.3254H51.1488V34.3132L37.8393 25.5254Z" fill="white"/>
<g filter="url(#filter1_d_336_1778)">
<circle cx="69.5" cy="19.5" r="19.5" fill="black"/>
</g>
<path d="M67.992 14.04V15.608H76.812V14.04H67.992ZM67.992 10.008V11.548H76.812V10.008H67.992ZM64.828 7.32H80.116V18.296H64.828V7.32ZM64.968 19.192H68.188V30.196H64.968V19.192ZM66.564 22.076H72.248V25.016H66.564V22.076ZM62.448 28.88C64.94 28.6 68.608 28.04 72.192 27.508L72.332 30.476C69.168 31.008 65.78 31.568 63.176 31.96L62.448 28.88ZM79.612 20.676L81.908 23.196C79.808 24.4 77.204 25.464 74.992 26.248C74.824 25.576 74.348 24.512 73.956 23.868C75.972 23.028 78.212 21.768 79.612 20.676ZM72.948 19.192H76.196V28.124C76.196 29.048 76.28 29.16 76.924 29.16C77.204 29.16 78.38 29.16 78.688 29.16C79.304 29.16 79.444 28.74 79.528 26.192C80.172 26.724 81.488 27.228 82.356 27.452C82.048 31.064 81.236 32.1 79.024 32.1C78.464 32.1 76.924 32.1 76.364 32.1C73.592 32.1 72.948 31.148 72.948 28.152V19.192ZM57.24 8.832L59.088 6.34C60.74 6.984 62.896 8.104 63.96 9.028L62 11.8C61.02 10.848 58.892 9.588 57.24 8.832ZM55.756 16.42L57.604 13.872C59.256 14.46 61.384 15.552 62.476 16.448L60.516 19.22C59.536 18.324 57.436 17.12 55.756 16.42ZM56.456 30.196C57.772 28.04 59.592 24.512 60.992 21.208L63.652 23.224C62.42 26.22 60.908 29.468 59.48 32.212L56.456 30.196Z" fill="#FFF000"/>
<defs>
<filter id="filter0_d_336_1778" x="0" y="7" width="75" height="89.3235" filterUnits="userSpaceOnUse" color-interpolation-filters="sRGB">
<feFlood flood-opacity="0" result="BackgroundImageFix"/>
<feColorMatrix in="SourceAlpha" type="matrix" values="0 0 0 0 0 0 0 0 0 0 0 0 0 0 0 0 0 0 127 0" result="hardAlpha"/>
<feOffset dy="5"/>
<feGaussianBlur stdDeviation="4"/>
<feComposite in2="hardAlpha" operator="out"/>
<feColorMatrix type="matrix" values="0 0 0 0 0 0 0 0 0 0 0 0 0 0 0 0 0 0 0.25 0"/>
<feBlend mode="normal" in2="BackgroundImageFix" result="effect1_dropShadow_336_1778"/>
<feBlend mode="normal" in="SourceGraphic" in2="effect1_dropShadow_336_1778" result="shape"/>
</filter>
<filter id="filter1_d_336_1778" x="47.7714" y="0" width="43.4571" height="43.4571" filterUnits="userSpaceOnUse" color-interpolation-filters="sRGB">
<feFlood flood-opacity="0" result="BackgroundImageFix"/>
<feColorMatrix in="SourceAlpha" type="matrix" values="0 0 0 0 0 0 0 0 0 0 0 0 0 0 0 0 0 0 127 0" result="hardAlpha"/>
<feOffset dy="2.22857"/>
<feGaussianBlur stdDeviation="1.11429"/>
<feComposite in2="hardAlpha" operator="out"/>
<feColorMatrix type="matrix" values="0 0 0 0 0 0 0 0 0 0 0 0 0 0 0 0 0 0 0.25 0"/>
<feBlend mode="normal" in2="BackgroundImageFix" result="effect1_dropShadow_336_1778"/>
<feBlend mode="normal" in="SourceGraphic" in2="effect1_dropShadow_336_1778" result="shape"/>
</filter>
</defs>
</svg>