<svg width="75" height="90" viewBox="0 0 75 90" fill="none" xmlns="http://www.w3.org/2000/svg">
<g filter="url(#filter0_d_336_1979)">
<path d="M37.0463 74.3235L18.8971 52.7206L56.1029 52.7206L37.0463 74.3235Z" fill="#008FDF"/>
<path d="M65 32.5C65 47.6878 52.6878 60 37.5 60C22.3122 60 10 47.6878 10 32.5C10 17.3122 22.3122 5 37.5 5C52.6878 5 65 17.3122 65 32.5Z" fill="white"/>
<path d="M37.0463 74.3235L18.8971 52.7206L56.1029 52.7206L37.0463 74.3235Z" stroke="white" stroke-width="4" stroke-linejoin="round"/>
<path d="M65 32.5C65 47.6878 52.6878 60 37.5 60C22.3122 60 10 47.6878 10 32.5C10 17.3122 22.3122 5 37.5 5C52.6878 5 65 17.3122 65 32.5Z" stroke="white" stroke-width="4" stroke-linejoin="round"/>
</g>
<path d="M37.0462 74.3235L18.897 52.7205L56.1029 52.7205L37.0462 74.3235Z" fill="#008FDF"/>
<path d="M61.9091 32.5C61.9091 45.9808 50.9808 56.9091 37.5 56.9091C24.0192 56.9091 13.0909 45.9808 13.0909 32.5C13.0909 19.0192 24.0192 8.09091 37.5 8.09091C50.9808 8.09091 61.9091 19.0192 61.9091 32.5Z" fill="#008FDF" stroke="#008FDF" stroke-width="6.18182"/>
<ellipse cx="37.8529" cy="33" rx="23" ry="23" fill="white"/>
<path d="M38.7561 15.2081C39.2681 14.9141 39.8541 14.7581 40.4601 14.7641C41.3581 14.7721 42.2001 15.1301 42.8301 15.7721C43.4601 16.4141 43.8021 17.2621 43.7921 18.1601C43.7881 18.6961 43.3481 19.1281 42.8101 19.1221C42.2741 19.1161 41.8421 18.6781 41.8481 18.1421C41.8521 17.7621 41.7081 17.4041 41.4421 17.1341C41.1761 16.8641 40.8201 16.7121 40.4421 16.7081C40.0621 16.7041 39.7041 16.8481 39.4341 17.1141C39.1641 17.3801 39.0121 17.7361 39.0081 18.1141L38.9601 23.1221C38.9541 23.6581 38.5161 24.0901 37.9781 24.0841C37.4421 24.0781 37.0101 23.6401 37.0161 23.1021L37.0641 18.0941C37.0721 17.1961 37.4301 16.3541 38.0721 15.7241C38.2801 15.5201 38.5101 15.3461 38.7561 15.2041V15.2081Z" fill="#008FDF"/>
<path d="M28.766 25.6339C28.708 25.6559 37.774 49.7139 37.774 49.7139C37.774 49.7139 47.314 25.8319 47.232 25.8079C46.204 26.7719 43.18 26.2579 42.098 23.1219C39.458 25.7959 36.196 25.7659 34.052 23.0459C33.634 25.7419 30.662 27.3459 28.766 25.6339Z" fill="#008FDF"/>
<defs>
<filter id="filter0_d_336_1979" x="0" y="0" width="75" height="89.3235" filterUnits="userSpaceOnUse" color-interpolation-filters="sRGB">
<feFlood flood-opacity="0" result="BackgroundImageFix"/>
<feColorMatrix in="SourceAlpha" type="matrix" values="0 0 0 0 0 0 0 0 0 0 0 0 0 0 0 0 0 0 127 0" result="hardAlpha"/>
<feOffset dy="5"/>
<feGaussianBlur stdDeviation="4"/>
<feComposite in2="hardAlpha" operator="out"/>
<feColorMatrix type="matrix" values="0 0 0 0 0 0 0 0 0 0 0 0 0 0 0 0 0 0 0.25 0"/>
<feBlend mode="normal" in2="BackgroundImageFix" result="effect1_dropShadow_336_1979"/>
<feBlend mode="normal" in="SourceGraphic" in2="effect1_dropShadow_336_1979" result="shape"/>
</filter>
</defs>
</svg>
