<svg width="92" height="97" viewBox="0 0 92 97" fill="none" xmlns="http://www.w3.org/2000/svg">
<g filter="url(#filter0_d_336_2122)">
<path d="M37.0463 81.3235L18.8971 59.7206L56.1029 59.7206L37.0463 81.3235Z" fill="#008FDF"/>
<path d="M65 39.5C65 54.6878 52.6878 67 37.5 67C22.3122 67 10 54.6878 10 39.5C10 24.3122 22.3122 12 37.5 12C52.6878 12 65 24.3122 65 39.5Z" fill="white"/>
<path d="M37.0463 81.3235L18.8971 59.7206L56.1029 59.7206L37.0463 81.3235Z" stroke="white" stroke-width="4" stroke-linejoin="round"/>
<path d="M65 39.5C65 54.6878 52.6878 67 37.5 67C22.3122 67 10 54.6878 10 39.5C10 24.3122 22.3122 12 37.5 12C52.6878 12 65 24.3122 65 39.5Z" stroke="white" stroke-width="4" stroke-linejoin="round"/>
</g>
<path d="M37.0464 81.3235L18.8971 59.7205L56.103 59.7205L37.0464 81.3235Z" fill="#008FDF"/>
<path d="M61.9091 39.5C61.9091 52.9808 50.9808 63.9091 37.5 63.9091C24.0192 63.9091 13.0909 52.9808 13.0909 39.5C13.0909 26.0192 24.0192 15.0909 37.5 15.0909C50.9808 15.0909 61.9091 26.0192 61.9091 39.5Z" fill="#008FDF" stroke="#008FDF" stroke-width="6.18182"/>
<ellipse cx="37.8529" cy="40" rx="23" ry="23" fill="white"/>
<g clip-path="url(#clip0_336_2122)">
<path d="M39.5028 33.0315L39.7823 31.9883C39.9319 31.4299 39.6015 30.8548 39.0413 30.7047C38.4811 30.5546 37.9079 30.8855 37.7578 31.4458L37.4782 32.489C31.2033 31.2569 25.0237 34.1045 22.1558 39.2827C23.9726 38.5065 28.2792 40.292 28.9069 44.5101C30.8262 43.6061 32.7582 43.2811 34.5313 43.487L32.2532 51.9891C32.0348 52.8043 31.1946 53.2894 30.3793 53.071C29.5641 52.8525 29.079 52.0123 29.2975 51.1971C29.4471 50.6388 29.1167 50.0637 28.5564 49.9136C27.9962 49.7634 27.423 50.0944 27.2729 50.6546C26.7552 52.5865 27.905 54.5779 29.8369 55.0955C31.7687 55.6132 33.7601 54.4634 34.2778 52.5316L36.5673 43.987C38.2958 44.653 39.768 45.9047 40.7728 47.6875C42.2267 44.5799 47.1159 43.7739 49.3858 46.5769C49.4897 40.6561 45.5585 35.0972 39.5033 33.0295L39.5028 33.0315ZM25.259 41.5719L24.5587 42.2228C24.4651 42.3095 22.282 44.3521 21.8167 46.0889C21.3813 47.7135 22.2318 48.72 23.2692 48.9979C24.8051 49.4095 25.6774 48.3408 25.9817 47.2049C26.4471 45.4682 25.5778 42.6077 25.5401 42.4858L25.259 41.5719ZM23.5798 47.8388C22.9925 47.6815 22.7729 47.1567 22.9758 46.3994C23.1922 45.5919 23.9919 44.5701 24.6498 43.8457C24.8573 44.802 25.039 46.0868 24.8226 46.8943C24.5395 47.951 24.0106 47.9543 23.5798 47.8388ZM49.2658 47.7974L48.5654 48.4483C48.4718 48.5351 46.2888 50.5777 45.8234 52.3144C45.3881 53.9391 46.2386 54.9455 47.276 55.2235C48.8118 55.635 49.6841 54.5663 49.9885 53.4304C50.4538 51.6937 49.5845 48.8332 49.5468 48.7113L49.2658 47.7974ZM47.5865 54.0644C46.9993 53.907 46.7796 53.3823 46.9825 52.625C47.1989 51.8175 47.9986 50.7956 48.6565 50.0712C48.8641 51.0275 49.0457 52.3123 48.8294 53.1198C48.5462 54.1766 48.0174 54.1798 47.5865 54.0644ZM40.7415 51.019L40.1067 51.5259C39.8805 51.7055 37.8933 53.3264 37.4916 54.8255C37.1572 56.0735 37.769 57.1361 39.0151 57.4699C40.2611 57.8038 41.3119 57.2282 41.6566 55.9415C42.0583 54.4424 41.1458 52.0446 41.0417 51.7765L40.7454 51.02L40.7415 51.019ZM39.3237 56.3103C38.9798 56.2182 38.4324 55.9431 38.6487 55.1356C38.8273 54.4691 39.5828 53.628 40.1996 53.0416C40.4405 53.8578 40.6742 54.964 40.4956 55.6304C40.317 56.2969 39.9709 56.4837 39.3237 56.3103ZM42.5387 28.3932C42.617 28.4721 42.7107 28.5241 42.8092 28.5505C43.0082 28.6038 43.2288 28.5532 43.3867 28.3968L49.4785 22.3763L48.1359 22.0165L42.5443 27.5457C42.308 27.7785 42.3055 28.1588 42.5387 28.3932ZM44.783 34.3365C44.8598 34.413 44.953 34.467 45.0515 34.4934C45.2505 34.5467 45.4736 34.4947 45.6314 34.3382L48.1113 31.8678C48.3457 31.6346 48.3463 31.2537 48.113 31.0194C47.8797 30.785 47.4989 30.7844 47.2645 31.0177L44.7846 33.488C44.5503 33.7213 44.5497 34.1022 44.783 34.3365ZM37.6563 24.213C37.7322 24.2852 37.8206 24.3337 37.9153 24.3591C38.1201 24.4139 38.348 24.3591 38.5041 24.1938L42.1317 20.4077L40.8103 20.0536L37.639 23.3657C37.4094 23.6044 37.417 23.9854 37.6582 24.2136L37.6563 24.213ZM50.4675 28.6769C50.5443 28.7534 50.638 28.8055 50.7346 28.8313C50.9355 28.8852 51.1586 28.8331 51.315 28.6742L55.8826 24.0922L54.5457 23.734L50.4647 27.8293C50.2299 28.0646 50.2317 28.444 50.465 28.6783L50.4675 28.6769ZM51.246 36.0103C51.0002 36.2322 50.9792 36.6118 51.2012 36.8576C51.2807 36.9472 51.383 37.0057 51.4912 37.0347C51.6805 37.0854 51.8908 37.0424 52.0489 36.9005L61.8098 28.1133L62.3797 25.9864L51.246 36.0103ZM33.6759 18.142L23.2776 28.5431C23.0433 28.7764 23.0427 29.1572 23.2779 29.3921C23.3547 29.4686 23.4484 29.5206 23.547 29.547C23.7479 29.6009 23.9709 29.5488 24.1269 29.3919L35.0128 18.5002L33.674 18.1415L33.6759 18.142ZM31.4876 30.1881C31.5668 30.2714 31.6638 30.3264 31.7662 30.3538C31.9613 30.4061 32.179 30.3588 32.3353 30.2082L35.2836 27.4037C35.5228 27.1758 35.5335 26.7956 35.3037 26.556C35.0758 26.3169 34.6957 26.3061 34.456 26.5359L31.5077 29.3404C31.2686 29.5683 31.2578 29.9484 31.4876 30.1881Z" fill="#008FDF"/>
</g>
<g filter="url(#filter1_d_336_2122)">
<circle cx="69.5" cy="19.5" r="19.5" fill="black"/>
</g>
<path d="M67.5777 24.92L66.6977 10.16L66.5377 4.6H72.4177L72.2577 10.16L71.4177 24.92H67.5777ZM69.4577 35.56C67.3777 35.56 65.8177 33.92 65.8177 31.72C65.8177 29.52 67.3777 27.92 69.4577 27.92C71.5777 27.92 73.1377 29.52 73.1377 31.72C73.1377 33.92 71.5777 35.56 69.4577 35.56Z" fill="#FF0000"/>
<defs>
<filter id="filter0_d_336_2122" x="0" y="7" width="75" height="89.3235" filterUnits="userSpaceOnUse" color-interpolation-filters="sRGB">
<feFlood flood-opacity="0" result="BackgroundImageFix"/>
<feColorMatrix in="SourceAlpha" type="matrix" values="0 0 0 0 0 0 0 0 0 0 0 0 0 0 0 0 0 0 127 0" result="hardAlpha"/>
<feOffset dy="5"/>
<feGaussianBlur stdDeviation="4"/>
<feComposite in2="hardAlpha" operator="out"/>
<feColorMatrix type="matrix" values="0 0 0 0 0 0 0 0 0 0 0 0 0 0 0 0 0 0 0.25 0"/>
<feBlend mode="normal" in2="BackgroundImageFix" result="effect1_dropShadow_336_2122"/>
<feBlend mode="normal" in="SourceGraphic" in2="effect1_dropShadow_336_2122" result="shape"/>
</filter>
<filter id="filter1_d_336_2122" x="47.7714" y="0" width="43.4571" height="43.4571" filterUnits="userSpaceOnUse" color-interpolation-filters="sRGB">
<feFlood flood-opacity="0" result="BackgroundImageFix"/>
<feColorMatrix in="SourceAlpha" type="matrix" values="0 0 0 0 0 0 0 0 0 0 0 0 0 0 0 0 0 0 127 0" result="hardAlpha"/>
<feOffset dy="2.22857"/>
<feGaussianBlur stdDeviation="1.11429"/>
<feComposite in2="hardAlpha" operator="out"/>
<feColorMatrix type="matrix" values="0 0 0 0 0 0 0 0 0 0 0 0 0 0 0 0 0 0 0.25 0"/>
<feBlend mode="normal" in2="BackgroundImageFix" result="effect1_dropShadow_336_2122"/>
<feBlend mode="normal" in="SourceGraphic" in2="effect1_dropShadow_336_2122" result="shape"/>
</filter>
<clipPath id="clip0_336_2122">
<rect width="40" height="40" fill="white" transform="translate(23.8579 15.5051) rotate(15)"/>
</clipPath>
</defs>
</svg>
